%TF.GenerationSoftware,KiCad,Pcbnew,no-vcs-found-e797af3~59~ubuntu17.04.1*%
%TF.CreationDate,2017-07-18T08:56:31+02:00*%
%TF.ProjectId,LEDBoard_4x4_16bit,4C4544426F6172645F3478345F313662,0.1*%
%TF.SameCoordinates,Original%
%TF.FileFunction,Soldermask,Bot*%
%TF.FilePolarity,Negative*%
%FSLAX46Y46*%
G04 Gerber Fmt 4.6, Leading zero omitted, Abs format (unit mm)*
G04 Created by KiCad (PCBNEW no-vcs-found-e797af3~59~ubuntu17.04.1) date Tue Jul 18 08:56:31 2017*
%MOMM*%
%LPD*%
G01*
G04 APERTURE LIST*
%ADD10C,0.100000*%
G04 APERTURE END LIST*
D10*
G36*
X66380976Y-87064800D02*
X66380986Y-87064803D01*
X66381024Y-87064807D01*
X66558140Y-87119633D01*
X66721233Y-87207817D01*
X66864092Y-87326001D01*
X66981275Y-87469681D01*
X67068319Y-87633386D01*
X67121907Y-87810880D01*
X67140000Y-87995403D01*
X67140000Y-88004636D01*
X67139922Y-88015839D01*
X67139921Y-88015847D01*
X67139907Y-88017861D01*
X67119240Y-88202113D01*
X67063179Y-88378842D01*
X66973858Y-88541316D01*
X66854680Y-88683346D01*
X66710185Y-88799523D01*
X66545876Y-88885422D01*
X66368012Y-88937770D01*
X66367978Y-88937773D01*
X66367965Y-88937777D01*
X66183371Y-88954577D01*
X65999024Y-88935200D01*
X65999014Y-88935197D01*
X65998976Y-88935193D01*
X65821860Y-88880367D01*
X65658767Y-88792183D01*
X65515908Y-88673999D01*
X65398725Y-88530319D01*
X65311681Y-88366614D01*
X65258093Y-88189120D01*
X65240000Y-88004597D01*
X65240000Y-87995364D01*
X65240078Y-87984161D01*
X65240079Y-87984153D01*
X65240093Y-87982139D01*
X65260760Y-87797887D01*
X65316821Y-87621158D01*
X65406142Y-87458684D01*
X65525320Y-87316654D01*
X65669815Y-87200477D01*
X65834124Y-87114578D01*
X66011988Y-87062230D01*
X66012022Y-87062227D01*
X66012035Y-87062223D01*
X66196629Y-87045423D01*
X66380976Y-87064800D01*
X66380976Y-87064800D01*
G37*
G36*
X68920976Y-87064800D02*
X68920986Y-87064803D01*
X68921024Y-87064807D01*
X69098140Y-87119633D01*
X69261233Y-87207817D01*
X69404092Y-87326001D01*
X69521275Y-87469681D01*
X69608319Y-87633386D01*
X69661907Y-87810880D01*
X69680000Y-87995403D01*
X69680000Y-88004636D01*
X69679922Y-88015839D01*
X69679921Y-88015847D01*
X69679907Y-88017861D01*
X69659240Y-88202113D01*
X69603179Y-88378842D01*
X69513858Y-88541316D01*
X69394680Y-88683346D01*
X69250185Y-88799523D01*
X69085876Y-88885422D01*
X68908012Y-88937770D01*
X68907978Y-88937773D01*
X68907965Y-88937777D01*
X68723371Y-88954577D01*
X68539024Y-88935200D01*
X68539014Y-88935197D01*
X68538976Y-88935193D01*
X68361860Y-88880367D01*
X68198767Y-88792183D01*
X68055908Y-88673999D01*
X67938725Y-88530319D01*
X67851681Y-88366614D01*
X67798093Y-88189120D01*
X67780000Y-88004597D01*
X67780000Y-87995364D01*
X67780078Y-87984161D01*
X67780079Y-87984153D01*
X67780093Y-87982139D01*
X67800760Y-87797887D01*
X67856821Y-87621158D01*
X67946142Y-87458684D01*
X68065320Y-87316654D01*
X68209815Y-87200477D01*
X68374124Y-87114578D01*
X68551988Y-87062230D01*
X68552022Y-87062227D01*
X68552035Y-87062223D01*
X68736629Y-87045423D01*
X68920976Y-87064800D01*
X68920976Y-87064800D01*
G37*
G36*
X71460976Y-87064800D02*
X71460986Y-87064803D01*
X71461024Y-87064807D01*
X71638140Y-87119633D01*
X71801233Y-87207817D01*
X71944092Y-87326001D01*
X72061275Y-87469681D01*
X72148319Y-87633386D01*
X72201907Y-87810880D01*
X72220000Y-87995403D01*
X72220000Y-88004636D01*
X72219922Y-88015839D01*
X72219921Y-88015847D01*
X72219907Y-88017861D01*
X72199240Y-88202113D01*
X72143179Y-88378842D01*
X72053858Y-88541316D01*
X71934680Y-88683346D01*
X71790185Y-88799523D01*
X71625876Y-88885422D01*
X71448012Y-88937770D01*
X71447978Y-88937773D01*
X71447965Y-88937777D01*
X71263371Y-88954577D01*
X71079024Y-88935200D01*
X71079014Y-88935197D01*
X71078976Y-88935193D01*
X70901860Y-88880367D01*
X70738767Y-88792183D01*
X70595908Y-88673999D01*
X70478725Y-88530319D01*
X70391681Y-88366614D01*
X70338093Y-88189120D01*
X70320000Y-88004597D01*
X70320000Y-87995364D01*
X70320078Y-87984161D01*
X70320079Y-87984153D01*
X70320093Y-87982139D01*
X70340760Y-87797887D01*
X70396821Y-87621158D01*
X70486142Y-87458684D01*
X70605320Y-87316654D01*
X70749815Y-87200477D01*
X70914124Y-87114578D01*
X71091988Y-87062230D01*
X71092022Y-87062227D01*
X71092035Y-87062223D01*
X71276629Y-87045423D01*
X71460976Y-87064800D01*
X71460976Y-87064800D01*
G37*
G36*
X74000976Y-87064800D02*
X74000986Y-87064803D01*
X74001024Y-87064807D01*
X74178140Y-87119633D01*
X74341233Y-87207817D01*
X74484092Y-87326001D01*
X74601275Y-87469681D01*
X74688319Y-87633386D01*
X74741907Y-87810880D01*
X74760000Y-87995403D01*
X74760000Y-88004636D01*
X74759922Y-88015839D01*
X74759921Y-88015847D01*
X74759907Y-88017861D01*
X74739240Y-88202113D01*
X74683179Y-88378842D01*
X74593858Y-88541316D01*
X74474680Y-88683346D01*
X74330185Y-88799523D01*
X74165876Y-88885422D01*
X73988012Y-88937770D01*
X73987978Y-88937773D01*
X73987965Y-88937777D01*
X73803371Y-88954577D01*
X73619024Y-88935200D01*
X73619014Y-88935197D01*
X73618976Y-88935193D01*
X73441860Y-88880367D01*
X73278767Y-88792183D01*
X73135908Y-88673999D01*
X73018725Y-88530319D01*
X72931681Y-88366614D01*
X72878093Y-88189120D01*
X72860000Y-88004597D01*
X72860000Y-87995364D01*
X72860078Y-87984161D01*
X72860079Y-87984153D01*
X72860093Y-87982139D01*
X72880760Y-87797887D01*
X72936821Y-87621158D01*
X73026142Y-87458684D01*
X73145320Y-87316654D01*
X73289815Y-87200477D01*
X73454124Y-87114578D01*
X73631988Y-87062230D01*
X73632022Y-87062227D01*
X73632035Y-87062223D01*
X73816629Y-87045423D01*
X74000976Y-87064800D01*
X74000976Y-87064800D01*
G37*
G36*
X76540976Y-87064800D02*
X76540986Y-87064803D01*
X76541024Y-87064807D01*
X76718140Y-87119633D01*
X76881233Y-87207817D01*
X77024092Y-87326001D01*
X77141275Y-87469681D01*
X77228319Y-87633386D01*
X77281907Y-87810880D01*
X77300000Y-87995403D01*
X77300000Y-88004636D01*
X77299922Y-88015839D01*
X77299921Y-88015847D01*
X77299907Y-88017861D01*
X77279240Y-88202113D01*
X77223179Y-88378842D01*
X77133858Y-88541316D01*
X77014680Y-88683346D01*
X76870185Y-88799523D01*
X76705876Y-88885422D01*
X76528012Y-88937770D01*
X76527978Y-88937773D01*
X76527965Y-88937777D01*
X76343371Y-88954577D01*
X76159024Y-88935200D01*
X76159014Y-88935197D01*
X76158976Y-88935193D01*
X75981860Y-88880367D01*
X75818767Y-88792183D01*
X75675908Y-88673999D01*
X75558725Y-88530319D01*
X75471681Y-88366614D01*
X75418093Y-88189120D01*
X75400000Y-88004597D01*
X75400000Y-87995364D01*
X75400078Y-87984161D01*
X75400079Y-87984153D01*
X75400093Y-87982139D01*
X75420760Y-87797887D01*
X75476821Y-87621158D01*
X75566142Y-87458684D01*
X75685320Y-87316654D01*
X75829815Y-87200477D01*
X75994124Y-87114578D01*
X76171988Y-87062230D01*
X76172022Y-87062227D01*
X76172035Y-87062223D01*
X76356629Y-87045423D01*
X76540976Y-87064800D01*
X76540976Y-87064800D01*
G37*
G36*
X86460976Y-87064800D02*
X86460986Y-87064803D01*
X86461024Y-87064807D01*
X86638140Y-87119633D01*
X86801233Y-87207817D01*
X86944092Y-87326001D01*
X87061275Y-87469681D01*
X87148319Y-87633386D01*
X87201907Y-87810880D01*
X87220000Y-87995403D01*
X87220000Y-88004636D01*
X87219922Y-88015839D01*
X87219921Y-88015847D01*
X87219907Y-88017861D01*
X87199240Y-88202113D01*
X87143179Y-88378842D01*
X87053858Y-88541316D01*
X86934680Y-88683346D01*
X86790185Y-88799523D01*
X86625876Y-88885422D01*
X86448012Y-88937770D01*
X86447978Y-88937773D01*
X86447965Y-88937777D01*
X86263371Y-88954577D01*
X86079024Y-88935200D01*
X86079014Y-88935197D01*
X86078976Y-88935193D01*
X85901860Y-88880367D01*
X85738767Y-88792183D01*
X85595908Y-88673999D01*
X85478725Y-88530319D01*
X85391681Y-88366614D01*
X85338093Y-88189120D01*
X85320000Y-88004597D01*
X85320000Y-87995364D01*
X85320078Y-87984161D01*
X85320079Y-87984153D01*
X85320093Y-87982139D01*
X85340760Y-87797887D01*
X85396821Y-87621158D01*
X85486142Y-87458684D01*
X85605320Y-87316654D01*
X85749815Y-87200477D01*
X85914124Y-87114578D01*
X86091988Y-87062230D01*
X86092022Y-87062227D01*
X86092035Y-87062223D01*
X86276629Y-87045423D01*
X86460976Y-87064800D01*
X86460976Y-87064800D01*
G37*
G36*
X56460976Y-87064800D02*
X56460986Y-87064803D01*
X56461024Y-87064807D01*
X56638140Y-87119633D01*
X56801233Y-87207817D01*
X56944092Y-87326001D01*
X57061275Y-87469681D01*
X57148319Y-87633386D01*
X57201907Y-87810880D01*
X57220000Y-87995403D01*
X57220000Y-88004636D01*
X57219922Y-88015839D01*
X57219921Y-88015847D01*
X57219907Y-88017861D01*
X57199240Y-88202113D01*
X57143179Y-88378842D01*
X57053858Y-88541316D01*
X56934680Y-88683346D01*
X56790185Y-88799523D01*
X56625876Y-88885422D01*
X56448012Y-88937770D01*
X56447978Y-88937773D01*
X56447965Y-88937777D01*
X56263371Y-88954577D01*
X56079024Y-88935200D01*
X56079014Y-88935197D01*
X56078976Y-88935193D01*
X55901860Y-88880367D01*
X55738767Y-88792183D01*
X55595908Y-88673999D01*
X55478725Y-88530319D01*
X55391681Y-88366614D01*
X55338093Y-88189120D01*
X55320000Y-88004597D01*
X55320000Y-87995364D01*
X55320078Y-87984161D01*
X55320079Y-87984153D01*
X55320093Y-87982139D01*
X55340760Y-87797887D01*
X55396821Y-87621158D01*
X55486142Y-87458684D01*
X55605320Y-87316654D01*
X55749815Y-87200477D01*
X55914124Y-87114578D01*
X56091988Y-87062230D01*
X56092022Y-87062227D01*
X56092035Y-87062223D01*
X56276629Y-87045423D01*
X56460976Y-87064800D01*
X56460976Y-87064800D01*
G37*
G36*
X64600000Y-88950000D02*
X62700000Y-88950000D01*
X62700000Y-87050000D01*
X64600000Y-87050000D01*
X64600000Y-88950000D01*
X64600000Y-88950000D01*
G37*
G36*
X54680000Y-88950000D02*
X52780000Y-88950000D01*
X52780000Y-87050000D01*
X54680000Y-87050000D01*
X54680000Y-88950000D01*
X54680000Y-88950000D01*
G37*
G36*
X84680000Y-88950000D02*
X82780000Y-88950000D01*
X82780000Y-87050000D01*
X84680000Y-87050000D01*
X84680000Y-88950000D01*
X84680000Y-88950000D01*
G37*
G36*
X80309851Y-65051963D02*
X80876562Y-65168292D01*
X81409880Y-65392478D01*
X81889500Y-65715986D01*
X82297151Y-66126493D01*
X82617303Y-66608359D01*
X82837758Y-67143226D01*
X82950061Y-67710394D01*
X82950061Y-67710404D01*
X82950127Y-67710738D01*
X82940900Y-68371522D01*
X82940824Y-68371856D01*
X82940824Y-68371868D01*
X82812732Y-68935669D01*
X82577423Y-69464180D01*
X82243944Y-69936918D01*
X81824987Y-70335884D01*
X81336527Y-70645870D01*
X80797152Y-70855081D01*
X80227419Y-70955539D01*
X79649020Y-70943424D01*
X79083984Y-70819193D01*
X78553849Y-70587583D01*
X78078794Y-70257410D01*
X77676915Y-69841252D01*
X77363525Y-69354967D01*
X77150555Y-68817067D01*
X77046119Y-68248041D01*
X77054198Y-67669574D01*
X77174478Y-67103694D01*
X77402385Y-66571949D01*
X77729233Y-66094600D01*
X78142575Y-65689825D01*
X78626663Y-65373047D01*
X79163062Y-65156328D01*
X79731337Y-65047924D01*
X80309851Y-65051963D01*
X80309851Y-65051963D01*
G37*
G36*
X60309851Y-65051963D02*
X60876562Y-65168292D01*
X61409880Y-65392478D01*
X61889500Y-65715986D01*
X62297151Y-66126493D01*
X62617303Y-66608359D01*
X62837758Y-67143226D01*
X62950061Y-67710394D01*
X62950061Y-67710404D01*
X62950127Y-67710738D01*
X62940900Y-68371522D01*
X62940824Y-68371856D01*
X62940824Y-68371868D01*
X62812732Y-68935669D01*
X62577423Y-69464180D01*
X62243944Y-69936918D01*
X61824987Y-70335884D01*
X61336527Y-70645870D01*
X60797152Y-70855081D01*
X60227419Y-70955539D01*
X59649020Y-70943424D01*
X59083984Y-70819193D01*
X58553849Y-70587583D01*
X58078794Y-70257410D01*
X57676915Y-69841252D01*
X57363525Y-69354967D01*
X57150555Y-68817067D01*
X57046119Y-68248041D01*
X57054198Y-67669574D01*
X57174478Y-67103694D01*
X57402385Y-66571949D01*
X57729233Y-66094600D01*
X58142575Y-65689825D01*
X58626663Y-65373047D01*
X59163062Y-65156328D01*
X59731337Y-65047924D01*
X60309851Y-65051963D01*
X60309851Y-65051963D01*
G37*
M02*
