%TF.GenerationSoftware,KiCad,Pcbnew,no-vcs-found-e797af3~59~ubuntu17.04.1*%
%TF.CreationDate,2017-07-18T08:46:09+02:00*%
%TF.ProjectId,LEDBoard_4x4_16bit,4C4544426F6172645F3478345F313662,0.1*%
%TF.SameCoordinates,Original%
%TF.FileFunction,Other,Fab,Top*%
%FSLAX46Y46*%
G04 Gerber Fmt 4.6, Leading zero omitted, Abs format (unit mm)*
G04 Created by KiCad (PCBNEW no-vcs-found-e797af3~59~ubuntu17.04.1) date Tue Jul 18 08:46:09 2017*
%MOMM*%
%LPD*%
G01*
G04 APERTURE LIST*
%ADD10C,0.150000*%
%ADD11C,0.100000*%
%ADD12C,0.075000*%
G04 APERTURE END LIST*
D10*
X58000000Y-57000000D02*
X59000000Y-56000000D01*
X58000000Y-60000000D02*
X58000000Y-57000000D01*
X62000000Y-60000000D02*
X58000000Y-60000000D01*
X62000000Y-56000000D02*
X62000000Y-60000000D01*
X59000000Y-56000000D02*
X62000000Y-56000000D01*
X78000000Y-57000000D02*
X79000000Y-56000000D01*
X78000000Y-60000000D02*
X78000000Y-57000000D01*
X82000000Y-60000000D02*
X78000000Y-60000000D01*
X82000000Y-56000000D02*
X82000000Y-60000000D01*
X79000000Y-56000000D02*
X82000000Y-56000000D01*
X58000000Y-77000000D02*
X59000000Y-76000000D01*
X58000000Y-80000000D02*
X58000000Y-77000000D01*
X62000000Y-80000000D02*
X58000000Y-80000000D01*
X62000000Y-76000000D02*
X62000000Y-80000000D01*
X59000000Y-76000000D02*
X62000000Y-76000000D01*
X78000000Y-77000000D02*
X79000000Y-76000000D01*
X78000000Y-80000000D02*
X78000000Y-77000000D01*
X82000000Y-80000000D02*
X78000000Y-80000000D01*
X82000000Y-76000000D02*
X82000000Y-80000000D01*
X79000000Y-76000000D02*
X82000000Y-76000000D01*
D11*
X64200000Y-59400000D02*
X64200000Y-58600000D01*
X65800000Y-59400000D02*
X64200000Y-59400000D01*
X65800000Y-58600000D02*
X65800000Y-59400000D01*
X64200000Y-58600000D02*
X65800000Y-58600000D01*
X84200000Y-58600000D02*
X85800000Y-58600000D01*
X85800000Y-58600000D02*
X85800000Y-59400000D01*
X85800000Y-59400000D02*
X84200000Y-59400000D01*
X84200000Y-59400000D02*
X84200000Y-58600000D01*
X64200000Y-79400000D02*
X64200000Y-78600000D01*
X65800000Y-79400000D02*
X64200000Y-79400000D01*
X65800000Y-78600000D02*
X65800000Y-79400000D01*
X64200000Y-78600000D02*
X65800000Y-78600000D01*
X84200000Y-78600000D02*
X85800000Y-78600000D01*
X85800000Y-78600000D02*
X85800000Y-79400000D01*
X85800000Y-79400000D02*
X84200000Y-79400000D01*
X84200000Y-79400000D02*
X84200000Y-78600000D01*
X64200000Y-57400000D02*
X64200000Y-56600000D01*
X65800000Y-57400000D02*
X64200000Y-57400000D01*
X65800000Y-56600000D02*
X65800000Y-57400000D01*
X64200000Y-56600000D02*
X65800000Y-56600000D01*
X84200000Y-56600000D02*
X85800000Y-56600000D01*
X85800000Y-56600000D02*
X85800000Y-57400000D01*
X85800000Y-57400000D02*
X84200000Y-57400000D01*
X84200000Y-57400000D02*
X84200000Y-56600000D01*
X64200000Y-77400000D02*
X64200000Y-76600000D01*
X65800000Y-77400000D02*
X64200000Y-77400000D01*
X65800000Y-76600000D02*
X65800000Y-77400000D01*
X64200000Y-76600000D02*
X65800000Y-76600000D01*
X84200000Y-76600000D02*
X85800000Y-76600000D01*
X85800000Y-76600000D02*
X85800000Y-77400000D01*
X85800000Y-77400000D02*
X84200000Y-77400000D01*
X84200000Y-77400000D02*
X84200000Y-76600000D01*
X70800000Y-68400000D02*
X69200000Y-68400000D01*
X69200000Y-68400000D02*
X69200000Y-67600000D01*
X69200000Y-67600000D02*
X70800000Y-67600000D01*
X70800000Y-67600000D02*
X70800000Y-68400000D01*
D10*
X52785714Y-56452380D02*
X52309523Y-56452380D01*
X52309523Y-55452380D01*
X53119047Y-55928571D02*
X53452380Y-55928571D01*
X53595238Y-56452380D02*
X53119047Y-56452380D01*
X53119047Y-55452380D01*
X53595238Y-55452380D01*
X54023809Y-56452380D02*
X54023809Y-55452380D01*
X54261904Y-55452380D01*
X54404761Y-55500000D01*
X54500000Y-55595238D01*
X54547619Y-55690476D01*
X54595238Y-55880952D01*
X54595238Y-56023809D01*
X54547619Y-56214285D01*
X54500000Y-56309523D01*
X54404761Y-56404761D01*
X54261904Y-56452380D01*
X54023809Y-56452380D01*
X54785714Y-56547619D02*
X55547619Y-56547619D01*
X56309523Y-56452380D02*
X55738095Y-56452380D01*
X56023809Y-56452380D02*
X56023809Y-55452380D01*
X55928571Y-55595238D01*
X55833333Y-55690476D01*
X55738095Y-55738095D01*
X56738095Y-56357142D02*
X56785714Y-56404761D01*
X56738095Y-56452380D01*
X56690476Y-56404761D01*
X56738095Y-56357142D01*
X56738095Y-56452380D01*
X57738095Y-56452380D02*
X57166666Y-56452380D01*
X57452380Y-56452380D02*
X57452380Y-55452380D01*
X57357142Y-55595238D01*
X57261904Y-55690476D01*
X57166666Y-55738095D01*
X52785714Y-66452380D02*
X52309523Y-66452380D01*
X52309523Y-65452380D01*
X53119047Y-65928571D02*
X53452380Y-65928571D01*
X53595238Y-66452380D02*
X53119047Y-66452380D01*
X53119047Y-65452380D01*
X53595238Y-65452380D01*
X54023809Y-66452380D02*
X54023809Y-65452380D01*
X54261904Y-65452380D01*
X54404761Y-65500000D01*
X54500000Y-65595238D01*
X54547619Y-65690476D01*
X54595238Y-65880952D01*
X54595238Y-66023809D01*
X54547619Y-66214285D01*
X54500000Y-66309523D01*
X54404761Y-66404761D01*
X54261904Y-66452380D01*
X54023809Y-66452380D01*
X54785714Y-66547619D02*
X55547619Y-66547619D01*
X56309523Y-66452380D02*
X55738095Y-66452380D01*
X56023809Y-66452380D02*
X56023809Y-65452380D01*
X55928571Y-65595238D01*
X55833333Y-65690476D01*
X55738095Y-65738095D01*
X56738095Y-66357142D02*
X56785714Y-66404761D01*
X56738095Y-66452380D01*
X56690476Y-66404761D01*
X56738095Y-66357142D01*
X56738095Y-66452380D01*
X57166666Y-65547619D02*
X57214285Y-65500000D01*
X57309523Y-65452380D01*
X57547619Y-65452380D01*
X57642857Y-65500000D01*
X57690476Y-65547619D01*
X57738095Y-65642857D01*
X57738095Y-65738095D01*
X57690476Y-65880952D01*
X57119047Y-66452380D01*
X57738095Y-66452380D01*
X52785714Y-76452380D02*
X52309523Y-76452380D01*
X52309523Y-75452380D01*
X53119047Y-75928571D02*
X53452380Y-75928571D01*
X53595238Y-76452380D02*
X53119047Y-76452380D01*
X53119047Y-75452380D01*
X53595238Y-75452380D01*
X54023809Y-76452380D02*
X54023809Y-75452380D01*
X54261904Y-75452380D01*
X54404761Y-75500000D01*
X54500000Y-75595238D01*
X54547619Y-75690476D01*
X54595238Y-75880952D01*
X54595238Y-76023809D01*
X54547619Y-76214285D01*
X54500000Y-76309523D01*
X54404761Y-76404761D01*
X54261904Y-76452380D01*
X54023809Y-76452380D01*
X54785714Y-76547619D02*
X55547619Y-76547619D01*
X56309523Y-76452380D02*
X55738095Y-76452380D01*
X56023809Y-76452380D02*
X56023809Y-75452380D01*
X55928571Y-75595238D01*
X55833333Y-75690476D01*
X55738095Y-75738095D01*
X56738095Y-76357142D02*
X56785714Y-76404761D01*
X56738095Y-76452380D01*
X56690476Y-76404761D01*
X56738095Y-76357142D01*
X56738095Y-76452380D01*
X57119047Y-75452380D02*
X57738095Y-75452380D01*
X57404761Y-75833333D01*
X57547619Y-75833333D01*
X57642857Y-75880952D01*
X57690476Y-75928571D01*
X57738095Y-76023809D01*
X57738095Y-76261904D01*
X57690476Y-76357142D01*
X57642857Y-76404761D01*
X57547619Y-76452380D01*
X57261904Y-76452380D01*
X57166666Y-76404761D01*
X57119047Y-76357142D01*
X52785714Y-86452380D02*
X52309523Y-86452380D01*
X52309523Y-85452380D01*
X53119047Y-85928571D02*
X53452380Y-85928571D01*
X53595238Y-86452380D02*
X53119047Y-86452380D01*
X53119047Y-85452380D01*
X53595238Y-85452380D01*
X54023809Y-86452380D02*
X54023809Y-85452380D01*
X54261904Y-85452380D01*
X54404761Y-85500000D01*
X54500000Y-85595238D01*
X54547619Y-85690476D01*
X54595238Y-85880952D01*
X54595238Y-86023809D01*
X54547619Y-86214285D01*
X54500000Y-86309523D01*
X54404761Y-86404761D01*
X54261904Y-86452380D01*
X54023809Y-86452380D01*
X54785714Y-86547619D02*
X55547619Y-86547619D01*
X56309523Y-86452380D02*
X55738095Y-86452380D01*
X56023809Y-86452380D02*
X56023809Y-85452380D01*
X55928571Y-85595238D01*
X55833333Y-85690476D01*
X55738095Y-85738095D01*
X56738095Y-86357142D02*
X56785714Y-86404761D01*
X56738095Y-86452380D01*
X56690476Y-86404761D01*
X56738095Y-86357142D01*
X56738095Y-86452380D01*
X57642857Y-85785714D02*
X57642857Y-86452380D01*
X57404761Y-85404761D02*
X57166666Y-86119047D01*
X57785714Y-86119047D01*
X62785714Y-56452380D02*
X62309523Y-56452380D01*
X62309523Y-55452380D01*
X63119047Y-55928571D02*
X63452380Y-55928571D01*
X63595238Y-56452380D02*
X63119047Y-56452380D01*
X63119047Y-55452380D01*
X63595238Y-55452380D01*
X64023809Y-56452380D02*
X64023809Y-55452380D01*
X64261904Y-55452380D01*
X64404761Y-55500000D01*
X64500000Y-55595238D01*
X64547619Y-55690476D01*
X64595238Y-55880952D01*
X64595238Y-56023809D01*
X64547619Y-56214285D01*
X64500000Y-56309523D01*
X64404761Y-56404761D01*
X64261904Y-56452380D01*
X64023809Y-56452380D01*
X64785714Y-56547619D02*
X65547619Y-56547619D01*
X65738095Y-55547619D02*
X65785714Y-55500000D01*
X65880952Y-55452380D01*
X66119047Y-55452380D01*
X66214285Y-55500000D01*
X66261904Y-55547619D01*
X66309523Y-55642857D01*
X66309523Y-55738095D01*
X66261904Y-55880952D01*
X65690476Y-56452380D01*
X66309523Y-56452380D01*
X66738095Y-56357142D02*
X66785714Y-56404761D01*
X66738095Y-56452380D01*
X66690476Y-56404761D01*
X66738095Y-56357142D01*
X66738095Y-56452380D01*
X67738095Y-56452380D02*
X67166666Y-56452380D01*
X67452380Y-56452380D02*
X67452380Y-55452380D01*
X67357142Y-55595238D01*
X67261904Y-55690476D01*
X67166666Y-55738095D01*
X62785714Y-66452380D02*
X62309523Y-66452380D01*
X62309523Y-65452380D01*
X63119047Y-65928571D02*
X63452380Y-65928571D01*
X63595238Y-66452380D02*
X63119047Y-66452380D01*
X63119047Y-65452380D01*
X63595238Y-65452380D01*
X64023809Y-66452380D02*
X64023809Y-65452380D01*
X64261904Y-65452380D01*
X64404761Y-65500000D01*
X64500000Y-65595238D01*
X64547619Y-65690476D01*
X64595238Y-65880952D01*
X64595238Y-66023809D01*
X64547619Y-66214285D01*
X64500000Y-66309523D01*
X64404761Y-66404761D01*
X64261904Y-66452380D01*
X64023809Y-66452380D01*
X64785714Y-66547619D02*
X65547619Y-66547619D01*
X65738095Y-65547619D02*
X65785714Y-65500000D01*
X65880952Y-65452380D01*
X66119047Y-65452380D01*
X66214285Y-65500000D01*
X66261904Y-65547619D01*
X66309523Y-65642857D01*
X66309523Y-65738095D01*
X66261904Y-65880952D01*
X65690476Y-66452380D01*
X66309523Y-66452380D01*
X66738095Y-66357142D02*
X66785714Y-66404761D01*
X66738095Y-66452380D01*
X66690476Y-66404761D01*
X66738095Y-66357142D01*
X66738095Y-66452380D01*
X67166666Y-65547619D02*
X67214285Y-65500000D01*
X67309523Y-65452380D01*
X67547619Y-65452380D01*
X67642857Y-65500000D01*
X67690476Y-65547619D01*
X67738095Y-65642857D01*
X67738095Y-65738095D01*
X67690476Y-65880952D01*
X67119047Y-66452380D01*
X67738095Y-66452380D01*
X62785714Y-76452380D02*
X62309523Y-76452380D01*
X62309523Y-75452380D01*
X63119047Y-75928571D02*
X63452380Y-75928571D01*
X63595238Y-76452380D02*
X63119047Y-76452380D01*
X63119047Y-75452380D01*
X63595238Y-75452380D01*
X64023809Y-76452380D02*
X64023809Y-75452380D01*
X64261904Y-75452380D01*
X64404761Y-75500000D01*
X64500000Y-75595238D01*
X64547619Y-75690476D01*
X64595238Y-75880952D01*
X64595238Y-76023809D01*
X64547619Y-76214285D01*
X64500000Y-76309523D01*
X64404761Y-76404761D01*
X64261904Y-76452380D01*
X64023809Y-76452380D01*
X64785714Y-76547619D02*
X65547619Y-76547619D01*
X65738095Y-75547619D02*
X65785714Y-75500000D01*
X65880952Y-75452380D01*
X66119047Y-75452380D01*
X66214285Y-75500000D01*
X66261904Y-75547619D01*
X66309523Y-75642857D01*
X66309523Y-75738095D01*
X66261904Y-75880952D01*
X65690476Y-76452380D01*
X66309523Y-76452380D01*
X66738095Y-76357142D02*
X66785714Y-76404761D01*
X66738095Y-76452380D01*
X66690476Y-76404761D01*
X66738095Y-76357142D01*
X66738095Y-76452380D01*
X67119047Y-75452380D02*
X67738095Y-75452380D01*
X67404761Y-75833333D01*
X67547619Y-75833333D01*
X67642857Y-75880952D01*
X67690476Y-75928571D01*
X67738095Y-76023809D01*
X67738095Y-76261904D01*
X67690476Y-76357142D01*
X67642857Y-76404761D01*
X67547619Y-76452380D01*
X67261904Y-76452380D01*
X67166666Y-76404761D01*
X67119047Y-76357142D01*
X62785714Y-86452380D02*
X62309523Y-86452380D01*
X62309523Y-85452380D01*
X63119047Y-85928571D02*
X63452380Y-85928571D01*
X63595238Y-86452380D02*
X63119047Y-86452380D01*
X63119047Y-85452380D01*
X63595238Y-85452380D01*
X64023809Y-86452380D02*
X64023809Y-85452380D01*
X64261904Y-85452380D01*
X64404761Y-85500000D01*
X64500000Y-85595238D01*
X64547619Y-85690476D01*
X64595238Y-85880952D01*
X64595238Y-86023809D01*
X64547619Y-86214285D01*
X64500000Y-86309523D01*
X64404761Y-86404761D01*
X64261904Y-86452380D01*
X64023809Y-86452380D01*
X64785714Y-86547619D02*
X65547619Y-86547619D01*
X65738095Y-85547619D02*
X65785714Y-85500000D01*
X65880952Y-85452380D01*
X66119047Y-85452380D01*
X66214285Y-85500000D01*
X66261904Y-85547619D01*
X66309523Y-85642857D01*
X66309523Y-85738095D01*
X66261904Y-85880952D01*
X65690476Y-86452380D01*
X66309523Y-86452380D01*
X66738095Y-86357142D02*
X66785714Y-86404761D01*
X66738095Y-86452380D01*
X66690476Y-86404761D01*
X66738095Y-86357142D01*
X66738095Y-86452380D01*
X67642857Y-85785714D02*
X67642857Y-86452380D01*
X67404761Y-85404761D02*
X67166666Y-86119047D01*
X67785714Y-86119047D01*
X72785714Y-56452380D02*
X72309523Y-56452380D01*
X72309523Y-55452380D01*
X73119047Y-55928571D02*
X73452380Y-55928571D01*
X73595238Y-56452380D02*
X73119047Y-56452380D01*
X73119047Y-55452380D01*
X73595238Y-55452380D01*
X74023809Y-56452380D02*
X74023809Y-55452380D01*
X74261904Y-55452380D01*
X74404761Y-55500000D01*
X74500000Y-55595238D01*
X74547619Y-55690476D01*
X74595238Y-55880952D01*
X74595238Y-56023809D01*
X74547619Y-56214285D01*
X74500000Y-56309523D01*
X74404761Y-56404761D01*
X74261904Y-56452380D01*
X74023809Y-56452380D01*
X74785714Y-56547619D02*
X75547619Y-56547619D01*
X75690476Y-55452380D02*
X76309523Y-55452380D01*
X75976190Y-55833333D01*
X76119047Y-55833333D01*
X76214285Y-55880952D01*
X76261904Y-55928571D01*
X76309523Y-56023809D01*
X76309523Y-56261904D01*
X76261904Y-56357142D01*
X76214285Y-56404761D01*
X76119047Y-56452380D01*
X75833333Y-56452380D01*
X75738095Y-56404761D01*
X75690476Y-56357142D01*
X76738095Y-56357142D02*
X76785714Y-56404761D01*
X76738095Y-56452380D01*
X76690476Y-56404761D01*
X76738095Y-56357142D01*
X76738095Y-56452380D01*
X77738095Y-56452380D02*
X77166666Y-56452380D01*
X77452380Y-56452380D02*
X77452380Y-55452380D01*
X77357142Y-55595238D01*
X77261904Y-55690476D01*
X77166666Y-55738095D01*
X72785714Y-66452380D02*
X72309523Y-66452380D01*
X72309523Y-65452380D01*
X73119047Y-65928571D02*
X73452380Y-65928571D01*
X73595238Y-66452380D02*
X73119047Y-66452380D01*
X73119047Y-65452380D01*
X73595238Y-65452380D01*
X74023809Y-66452380D02*
X74023809Y-65452380D01*
X74261904Y-65452380D01*
X74404761Y-65500000D01*
X74500000Y-65595238D01*
X74547619Y-65690476D01*
X74595238Y-65880952D01*
X74595238Y-66023809D01*
X74547619Y-66214285D01*
X74500000Y-66309523D01*
X74404761Y-66404761D01*
X74261904Y-66452380D01*
X74023809Y-66452380D01*
X74785714Y-66547619D02*
X75547619Y-66547619D01*
X75690476Y-65452380D02*
X76309523Y-65452380D01*
X75976190Y-65833333D01*
X76119047Y-65833333D01*
X76214285Y-65880952D01*
X76261904Y-65928571D01*
X76309523Y-66023809D01*
X76309523Y-66261904D01*
X76261904Y-66357142D01*
X76214285Y-66404761D01*
X76119047Y-66452380D01*
X75833333Y-66452380D01*
X75738095Y-66404761D01*
X75690476Y-66357142D01*
X76738095Y-66357142D02*
X76785714Y-66404761D01*
X76738095Y-66452380D01*
X76690476Y-66404761D01*
X76738095Y-66357142D01*
X76738095Y-66452380D01*
X77166666Y-65547619D02*
X77214285Y-65500000D01*
X77309523Y-65452380D01*
X77547619Y-65452380D01*
X77642857Y-65500000D01*
X77690476Y-65547619D01*
X77738095Y-65642857D01*
X77738095Y-65738095D01*
X77690476Y-65880952D01*
X77119047Y-66452380D01*
X77738095Y-66452380D01*
X72785714Y-76452380D02*
X72309523Y-76452380D01*
X72309523Y-75452380D01*
X73119047Y-75928571D02*
X73452380Y-75928571D01*
X73595238Y-76452380D02*
X73119047Y-76452380D01*
X73119047Y-75452380D01*
X73595238Y-75452380D01*
X74023809Y-76452380D02*
X74023809Y-75452380D01*
X74261904Y-75452380D01*
X74404761Y-75500000D01*
X74500000Y-75595238D01*
X74547619Y-75690476D01*
X74595238Y-75880952D01*
X74595238Y-76023809D01*
X74547619Y-76214285D01*
X74500000Y-76309523D01*
X74404761Y-76404761D01*
X74261904Y-76452380D01*
X74023809Y-76452380D01*
X74785714Y-76547619D02*
X75547619Y-76547619D01*
X75690476Y-75452380D02*
X76309523Y-75452380D01*
X75976190Y-75833333D01*
X76119047Y-75833333D01*
X76214285Y-75880952D01*
X76261904Y-75928571D01*
X76309523Y-76023809D01*
X76309523Y-76261904D01*
X76261904Y-76357142D01*
X76214285Y-76404761D01*
X76119047Y-76452380D01*
X75833333Y-76452380D01*
X75738095Y-76404761D01*
X75690476Y-76357142D01*
X76738095Y-76357142D02*
X76785714Y-76404761D01*
X76738095Y-76452380D01*
X76690476Y-76404761D01*
X76738095Y-76357142D01*
X76738095Y-76452380D01*
X77119047Y-75452380D02*
X77738095Y-75452380D01*
X77404761Y-75833333D01*
X77547619Y-75833333D01*
X77642857Y-75880952D01*
X77690476Y-75928571D01*
X77738095Y-76023809D01*
X77738095Y-76261904D01*
X77690476Y-76357142D01*
X77642857Y-76404761D01*
X77547619Y-76452380D01*
X77261904Y-76452380D01*
X77166666Y-76404761D01*
X77119047Y-76357142D01*
X72785714Y-86452380D02*
X72309523Y-86452380D01*
X72309523Y-85452380D01*
X73119047Y-85928571D02*
X73452380Y-85928571D01*
X73595238Y-86452380D02*
X73119047Y-86452380D01*
X73119047Y-85452380D01*
X73595238Y-85452380D01*
X74023809Y-86452380D02*
X74023809Y-85452380D01*
X74261904Y-85452380D01*
X74404761Y-85500000D01*
X74500000Y-85595238D01*
X74547619Y-85690476D01*
X74595238Y-85880952D01*
X74595238Y-86023809D01*
X74547619Y-86214285D01*
X74500000Y-86309523D01*
X74404761Y-86404761D01*
X74261904Y-86452380D01*
X74023809Y-86452380D01*
X74785714Y-86547619D02*
X75547619Y-86547619D01*
X75690476Y-85452380D02*
X76309523Y-85452380D01*
X75976190Y-85833333D01*
X76119047Y-85833333D01*
X76214285Y-85880952D01*
X76261904Y-85928571D01*
X76309523Y-86023809D01*
X76309523Y-86261904D01*
X76261904Y-86357142D01*
X76214285Y-86404761D01*
X76119047Y-86452380D01*
X75833333Y-86452380D01*
X75738095Y-86404761D01*
X75690476Y-86357142D01*
X76738095Y-86357142D02*
X76785714Y-86404761D01*
X76738095Y-86452380D01*
X76690476Y-86404761D01*
X76738095Y-86357142D01*
X76738095Y-86452380D01*
X77642857Y-85785714D02*
X77642857Y-86452380D01*
X77404761Y-85404761D02*
X77166666Y-86119047D01*
X77785714Y-86119047D01*
X82785714Y-56452380D02*
X82309523Y-56452380D01*
X82309523Y-55452380D01*
X83119047Y-55928571D02*
X83452380Y-55928571D01*
X83595238Y-56452380D02*
X83119047Y-56452380D01*
X83119047Y-55452380D01*
X83595238Y-55452380D01*
X84023809Y-56452380D02*
X84023809Y-55452380D01*
X84261904Y-55452380D01*
X84404761Y-55500000D01*
X84500000Y-55595238D01*
X84547619Y-55690476D01*
X84595238Y-55880952D01*
X84595238Y-56023809D01*
X84547619Y-56214285D01*
X84500000Y-56309523D01*
X84404761Y-56404761D01*
X84261904Y-56452380D01*
X84023809Y-56452380D01*
X84785714Y-56547619D02*
X85547619Y-56547619D01*
X86214285Y-55785714D02*
X86214285Y-56452380D01*
X85976190Y-55404761D02*
X85738095Y-56119047D01*
X86357142Y-56119047D01*
X86738095Y-56357142D02*
X86785714Y-56404761D01*
X86738095Y-56452380D01*
X86690476Y-56404761D01*
X86738095Y-56357142D01*
X86738095Y-56452380D01*
X87738095Y-56452380D02*
X87166666Y-56452380D01*
X87452380Y-56452380D02*
X87452380Y-55452380D01*
X87357142Y-55595238D01*
X87261904Y-55690476D01*
X87166666Y-55738095D01*
X82785714Y-66452380D02*
X82309523Y-66452380D01*
X82309523Y-65452380D01*
X83119047Y-65928571D02*
X83452380Y-65928571D01*
X83595238Y-66452380D02*
X83119047Y-66452380D01*
X83119047Y-65452380D01*
X83595238Y-65452380D01*
X84023809Y-66452380D02*
X84023809Y-65452380D01*
X84261904Y-65452380D01*
X84404761Y-65500000D01*
X84500000Y-65595238D01*
X84547619Y-65690476D01*
X84595238Y-65880952D01*
X84595238Y-66023809D01*
X84547619Y-66214285D01*
X84500000Y-66309523D01*
X84404761Y-66404761D01*
X84261904Y-66452380D01*
X84023809Y-66452380D01*
X84785714Y-66547619D02*
X85547619Y-66547619D01*
X86214285Y-65785714D02*
X86214285Y-66452380D01*
X85976190Y-65404761D02*
X85738095Y-66119047D01*
X86357142Y-66119047D01*
X86738095Y-66357142D02*
X86785714Y-66404761D01*
X86738095Y-66452380D01*
X86690476Y-66404761D01*
X86738095Y-66357142D01*
X86738095Y-66452380D01*
X87166666Y-65547619D02*
X87214285Y-65500000D01*
X87309523Y-65452380D01*
X87547619Y-65452380D01*
X87642857Y-65500000D01*
X87690476Y-65547619D01*
X87738095Y-65642857D01*
X87738095Y-65738095D01*
X87690476Y-65880952D01*
X87119047Y-66452380D01*
X87738095Y-66452380D01*
X82785714Y-76452380D02*
X82309523Y-76452380D01*
X82309523Y-75452380D01*
X83119047Y-75928571D02*
X83452380Y-75928571D01*
X83595238Y-76452380D02*
X83119047Y-76452380D01*
X83119047Y-75452380D01*
X83595238Y-75452380D01*
X84023809Y-76452380D02*
X84023809Y-75452380D01*
X84261904Y-75452380D01*
X84404761Y-75500000D01*
X84500000Y-75595238D01*
X84547619Y-75690476D01*
X84595238Y-75880952D01*
X84595238Y-76023809D01*
X84547619Y-76214285D01*
X84500000Y-76309523D01*
X84404761Y-76404761D01*
X84261904Y-76452380D01*
X84023809Y-76452380D01*
X84785714Y-76547619D02*
X85547619Y-76547619D01*
X86214285Y-75785714D02*
X86214285Y-76452380D01*
X85976190Y-75404761D02*
X85738095Y-76119047D01*
X86357142Y-76119047D01*
X86738095Y-76357142D02*
X86785714Y-76404761D01*
X86738095Y-76452380D01*
X86690476Y-76404761D01*
X86738095Y-76357142D01*
X86738095Y-76452380D01*
X87119047Y-75452380D02*
X87738095Y-75452380D01*
X87404761Y-75833333D01*
X87547619Y-75833333D01*
X87642857Y-75880952D01*
X87690476Y-75928571D01*
X87738095Y-76023809D01*
X87738095Y-76261904D01*
X87690476Y-76357142D01*
X87642857Y-76404761D01*
X87547619Y-76452380D01*
X87261904Y-76452380D01*
X87166666Y-76404761D01*
X87119047Y-76357142D01*
X82785714Y-86452380D02*
X82309523Y-86452380D01*
X82309523Y-85452380D01*
X83119047Y-85928571D02*
X83452380Y-85928571D01*
X83595238Y-86452380D02*
X83119047Y-86452380D01*
X83119047Y-85452380D01*
X83595238Y-85452380D01*
X84023809Y-86452380D02*
X84023809Y-85452380D01*
X84261904Y-85452380D01*
X84404761Y-85500000D01*
X84500000Y-85595238D01*
X84547619Y-85690476D01*
X84595238Y-85880952D01*
X84595238Y-86023809D01*
X84547619Y-86214285D01*
X84500000Y-86309523D01*
X84404761Y-86404761D01*
X84261904Y-86452380D01*
X84023809Y-86452380D01*
X84785714Y-86547619D02*
X85547619Y-86547619D01*
X86214285Y-85785714D02*
X86214285Y-86452380D01*
X85976190Y-85404761D02*
X85738095Y-86119047D01*
X86357142Y-86119047D01*
X86738095Y-86357142D02*
X86785714Y-86404761D01*
X86738095Y-86452380D01*
X86690476Y-86404761D01*
X86738095Y-86357142D01*
X86738095Y-86452380D01*
X87642857Y-85785714D02*
X87642857Y-86452380D01*
X87404761Y-85404761D02*
X87166666Y-86119047D01*
X87785714Y-86119047D01*
X54952380Y-60827380D02*
X55523809Y-60827380D01*
X55238095Y-61827380D02*
X55238095Y-60827380D01*
X56333333Y-61827380D02*
X55857142Y-61827380D01*
X55857142Y-60827380D01*
X57238095Y-61732142D02*
X57190476Y-61779761D01*
X57047619Y-61827380D01*
X56952380Y-61827380D01*
X56809523Y-61779761D01*
X56714285Y-61684523D01*
X56666666Y-61589285D01*
X56619047Y-61398809D01*
X56619047Y-61255952D01*
X56666666Y-61065476D01*
X56714285Y-60970238D01*
X56809523Y-60875000D01*
X56952380Y-60827380D01*
X57047619Y-60827380D01*
X57190476Y-60875000D01*
X57238095Y-60922619D01*
X58142857Y-60827380D02*
X57666666Y-60827380D01*
X57619047Y-61303571D01*
X57666666Y-61255952D01*
X57761904Y-61208333D01*
X58000000Y-61208333D01*
X58095238Y-61255952D01*
X58142857Y-61303571D01*
X58190476Y-61398809D01*
X58190476Y-61636904D01*
X58142857Y-61732142D01*
X58095238Y-61779761D01*
X58000000Y-61827380D01*
X57761904Y-61827380D01*
X57666666Y-61779761D01*
X57619047Y-61732142D01*
X58666666Y-61827380D02*
X58857142Y-61827380D01*
X58952380Y-61779761D01*
X59000000Y-61732142D01*
X59095238Y-61589285D01*
X59142857Y-61398809D01*
X59142857Y-61017857D01*
X59095238Y-60922619D01*
X59047619Y-60875000D01*
X58952380Y-60827380D01*
X58761904Y-60827380D01*
X58666666Y-60875000D01*
X58619047Y-60922619D01*
X58571428Y-61017857D01*
X58571428Y-61255952D01*
X58619047Y-61351190D01*
X58666666Y-61398809D01*
X58761904Y-61446428D01*
X58952380Y-61446428D01*
X59047619Y-61398809D01*
X59095238Y-61351190D01*
X59142857Y-61255952D01*
X59476190Y-60827380D02*
X60142857Y-60827380D01*
X59714285Y-61827380D01*
X61047619Y-61827380D02*
X60476190Y-61827380D01*
X60761904Y-61827380D02*
X60761904Y-60827380D01*
X60666666Y-60970238D01*
X60571428Y-61065476D01*
X60476190Y-61113095D01*
X62047619Y-61827380D02*
X61714285Y-61351190D01*
X61476190Y-61827380D02*
X61476190Y-60827380D01*
X61857142Y-60827380D01*
X61952380Y-60875000D01*
X62000000Y-60922619D01*
X62047619Y-61017857D01*
X62047619Y-61160714D01*
X62000000Y-61255952D01*
X61952380Y-61303571D01*
X61857142Y-61351190D01*
X61476190Y-61351190D01*
X63000000Y-60875000D02*
X62904761Y-60827380D01*
X62761904Y-60827380D01*
X62619047Y-60875000D01*
X62523809Y-60970238D01*
X62476190Y-61065476D01*
X62428571Y-61255952D01*
X62428571Y-61398809D01*
X62476190Y-61589285D01*
X62523809Y-61684523D01*
X62619047Y-61779761D01*
X62761904Y-61827380D01*
X62857142Y-61827380D01*
X63000000Y-61779761D01*
X63047619Y-61732142D01*
X63047619Y-61398809D01*
X62857142Y-61398809D01*
X63476190Y-61303571D02*
X63809523Y-61303571D01*
X63952380Y-61827380D02*
X63476190Y-61827380D01*
X63476190Y-60827380D01*
X63952380Y-60827380D01*
X64952380Y-61827380D02*
X64619047Y-61351190D01*
X64380952Y-61827380D02*
X64380952Y-60827380D01*
X64761904Y-60827380D01*
X64857142Y-60875000D01*
X64904761Y-60922619D01*
X64952380Y-61017857D01*
X64952380Y-61160714D01*
X64904761Y-61255952D01*
X64857142Y-61303571D01*
X64761904Y-61351190D01*
X64380952Y-61351190D01*
X74952380Y-60827380D02*
X75523809Y-60827380D01*
X75238095Y-61827380D02*
X75238095Y-60827380D01*
X76333333Y-61827380D02*
X75857142Y-61827380D01*
X75857142Y-60827380D01*
X77238095Y-61732142D02*
X77190476Y-61779761D01*
X77047619Y-61827380D01*
X76952380Y-61827380D01*
X76809523Y-61779761D01*
X76714285Y-61684523D01*
X76666666Y-61589285D01*
X76619047Y-61398809D01*
X76619047Y-61255952D01*
X76666666Y-61065476D01*
X76714285Y-60970238D01*
X76809523Y-60875000D01*
X76952380Y-60827380D01*
X77047619Y-60827380D01*
X77190476Y-60875000D01*
X77238095Y-60922619D01*
X78142857Y-60827380D02*
X77666666Y-60827380D01*
X77619047Y-61303571D01*
X77666666Y-61255952D01*
X77761904Y-61208333D01*
X78000000Y-61208333D01*
X78095238Y-61255952D01*
X78142857Y-61303571D01*
X78190476Y-61398809D01*
X78190476Y-61636904D01*
X78142857Y-61732142D01*
X78095238Y-61779761D01*
X78000000Y-61827380D01*
X77761904Y-61827380D01*
X77666666Y-61779761D01*
X77619047Y-61732142D01*
X78666666Y-61827380D02*
X78857142Y-61827380D01*
X78952380Y-61779761D01*
X79000000Y-61732142D01*
X79095238Y-61589285D01*
X79142857Y-61398809D01*
X79142857Y-61017857D01*
X79095238Y-60922619D01*
X79047619Y-60875000D01*
X78952380Y-60827380D01*
X78761904Y-60827380D01*
X78666666Y-60875000D01*
X78619047Y-60922619D01*
X78571428Y-61017857D01*
X78571428Y-61255952D01*
X78619047Y-61351190D01*
X78666666Y-61398809D01*
X78761904Y-61446428D01*
X78952380Y-61446428D01*
X79047619Y-61398809D01*
X79095238Y-61351190D01*
X79142857Y-61255952D01*
X79476190Y-60827380D02*
X80142857Y-60827380D01*
X79714285Y-61827380D01*
X81047619Y-61827380D02*
X80476190Y-61827380D01*
X80761904Y-61827380D02*
X80761904Y-60827380D01*
X80666666Y-60970238D01*
X80571428Y-61065476D01*
X80476190Y-61113095D01*
X82047619Y-61827380D02*
X81714285Y-61351190D01*
X81476190Y-61827380D02*
X81476190Y-60827380D01*
X81857142Y-60827380D01*
X81952380Y-60875000D01*
X82000000Y-60922619D01*
X82047619Y-61017857D01*
X82047619Y-61160714D01*
X82000000Y-61255952D01*
X81952380Y-61303571D01*
X81857142Y-61351190D01*
X81476190Y-61351190D01*
X83000000Y-60875000D02*
X82904761Y-60827380D01*
X82761904Y-60827380D01*
X82619047Y-60875000D01*
X82523809Y-60970238D01*
X82476190Y-61065476D01*
X82428571Y-61255952D01*
X82428571Y-61398809D01*
X82476190Y-61589285D01*
X82523809Y-61684523D01*
X82619047Y-61779761D01*
X82761904Y-61827380D01*
X82857142Y-61827380D01*
X83000000Y-61779761D01*
X83047619Y-61732142D01*
X83047619Y-61398809D01*
X82857142Y-61398809D01*
X83476190Y-61303571D02*
X83809523Y-61303571D01*
X83952380Y-61827380D02*
X83476190Y-61827380D01*
X83476190Y-60827380D01*
X83952380Y-60827380D01*
X84952380Y-61827380D02*
X84619047Y-61351190D01*
X84380952Y-61827380D02*
X84380952Y-60827380D01*
X84761904Y-60827380D01*
X84857142Y-60875000D01*
X84904761Y-60922619D01*
X84952380Y-61017857D01*
X84952380Y-61160714D01*
X84904761Y-61255952D01*
X84857142Y-61303571D01*
X84761904Y-61351190D01*
X84380952Y-61351190D01*
X54952380Y-80827380D02*
X55523809Y-80827380D01*
X55238095Y-81827380D02*
X55238095Y-80827380D01*
X56333333Y-81827380D02*
X55857142Y-81827380D01*
X55857142Y-80827380D01*
X57238095Y-81732142D02*
X57190476Y-81779761D01*
X57047619Y-81827380D01*
X56952380Y-81827380D01*
X56809523Y-81779761D01*
X56714285Y-81684523D01*
X56666666Y-81589285D01*
X56619047Y-81398809D01*
X56619047Y-81255952D01*
X56666666Y-81065476D01*
X56714285Y-80970238D01*
X56809523Y-80875000D01*
X56952380Y-80827380D01*
X57047619Y-80827380D01*
X57190476Y-80875000D01*
X57238095Y-80922619D01*
X58142857Y-80827380D02*
X57666666Y-80827380D01*
X57619047Y-81303571D01*
X57666666Y-81255952D01*
X57761904Y-81208333D01*
X58000000Y-81208333D01*
X58095238Y-81255952D01*
X58142857Y-81303571D01*
X58190476Y-81398809D01*
X58190476Y-81636904D01*
X58142857Y-81732142D01*
X58095238Y-81779761D01*
X58000000Y-81827380D01*
X57761904Y-81827380D01*
X57666666Y-81779761D01*
X57619047Y-81732142D01*
X58666666Y-81827380D02*
X58857142Y-81827380D01*
X58952380Y-81779761D01*
X59000000Y-81732142D01*
X59095238Y-81589285D01*
X59142857Y-81398809D01*
X59142857Y-81017857D01*
X59095238Y-80922619D01*
X59047619Y-80875000D01*
X58952380Y-80827380D01*
X58761904Y-80827380D01*
X58666666Y-80875000D01*
X58619047Y-80922619D01*
X58571428Y-81017857D01*
X58571428Y-81255952D01*
X58619047Y-81351190D01*
X58666666Y-81398809D01*
X58761904Y-81446428D01*
X58952380Y-81446428D01*
X59047619Y-81398809D01*
X59095238Y-81351190D01*
X59142857Y-81255952D01*
X59476190Y-80827380D02*
X60142857Y-80827380D01*
X59714285Y-81827380D01*
X61047619Y-81827380D02*
X60476190Y-81827380D01*
X60761904Y-81827380D02*
X60761904Y-80827380D01*
X60666666Y-80970238D01*
X60571428Y-81065476D01*
X60476190Y-81113095D01*
X62047619Y-81827380D02*
X61714285Y-81351190D01*
X61476190Y-81827380D02*
X61476190Y-80827380D01*
X61857142Y-80827380D01*
X61952380Y-80875000D01*
X62000000Y-80922619D01*
X62047619Y-81017857D01*
X62047619Y-81160714D01*
X62000000Y-81255952D01*
X61952380Y-81303571D01*
X61857142Y-81351190D01*
X61476190Y-81351190D01*
X63000000Y-80875000D02*
X62904761Y-80827380D01*
X62761904Y-80827380D01*
X62619047Y-80875000D01*
X62523809Y-80970238D01*
X62476190Y-81065476D01*
X62428571Y-81255952D01*
X62428571Y-81398809D01*
X62476190Y-81589285D01*
X62523809Y-81684523D01*
X62619047Y-81779761D01*
X62761904Y-81827380D01*
X62857142Y-81827380D01*
X63000000Y-81779761D01*
X63047619Y-81732142D01*
X63047619Y-81398809D01*
X62857142Y-81398809D01*
X63476190Y-81303571D02*
X63809523Y-81303571D01*
X63952380Y-81827380D02*
X63476190Y-81827380D01*
X63476190Y-80827380D01*
X63952380Y-80827380D01*
X64952380Y-81827380D02*
X64619047Y-81351190D01*
X64380952Y-81827380D02*
X64380952Y-80827380D01*
X64761904Y-80827380D01*
X64857142Y-80875000D01*
X64904761Y-80922619D01*
X64952380Y-81017857D01*
X64952380Y-81160714D01*
X64904761Y-81255952D01*
X64857142Y-81303571D01*
X64761904Y-81351190D01*
X64380952Y-81351190D01*
X74952380Y-80827380D02*
X75523809Y-80827380D01*
X75238095Y-81827380D02*
X75238095Y-80827380D01*
X76333333Y-81827380D02*
X75857142Y-81827380D01*
X75857142Y-80827380D01*
X77238095Y-81732142D02*
X77190476Y-81779761D01*
X77047619Y-81827380D01*
X76952380Y-81827380D01*
X76809523Y-81779761D01*
X76714285Y-81684523D01*
X76666666Y-81589285D01*
X76619047Y-81398809D01*
X76619047Y-81255952D01*
X76666666Y-81065476D01*
X76714285Y-80970238D01*
X76809523Y-80875000D01*
X76952380Y-80827380D01*
X77047619Y-80827380D01*
X77190476Y-80875000D01*
X77238095Y-80922619D01*
X78142857Y-80827380D02*
X77666666Y-80827380D01*
X77619047Y-81303571D01*
X77666666Y-81255952D01*
X77761904Y-81208333D01*
X78000000Y-81208333D01*
X78095238Y-81255952D01*
X78142857Y-81303571D01*
X78190476Y-81398809D01*
X78190476Y-81636904D01*
X78142857Y-81732142D01*
X78095238Y-81779761D01*
X78000000Y-81827380D01*
X77761904Y-81827380D01*
X77666666Y-81779761D01*
X77619047Y-81732142D01*
X78666666Y-81827380D02*
X78857142Y-81827380D01*
X78952380Y-81779761D01*
X79000000Y-81732142D01*
X79095238Y-81589285D01*
X79142857Y-81398809D01*
X79142857Y-81017857D01*
X79095238Y-80922619D01*
X79047619Y-80875000D01*
X78952380Y-80827380D01*
X78761904Y-80827380D01*
X78666666Y-80875000D01*
X78619047Y-80922619D01*
X78571428Y-81017857D01*
X78571428Y-81255952D01*
X78619047Y-81351190D01*
X78666666Y-81398809D01*
X78761904Y-81446428D01*
X78952380Y-81446428D01*
X79047619Y-81398809D01*
X79095238Y-81351190D01*
X79142857Y-81255952D01*
X79476190Y-80827380D02*
X80142857Y-80827380D01*
X79714285Y-81827380D01*
X81047619Y-81827380D02*
X80476190Y-81827380D01*
X80761904Y-81827380D02*
X80761904Y-80827380D01*
X80666666Y-80970238D01*
X80571428Y-81065476D01*
X80476190Y-81113095D01*
X82047619Y-81827380D02*
X81714285Y-81351190D01*
X81476190Y-81827380D02*
X81476190Y-80827380D01*
X81857142Y-80827380D01*
X81952380Y-80875000D01*
X82000000Y-80922619D01*
X82047619Y-81017857D01*
X82047619Y-81160714D01*
X82000000Y-81255952D01*
X81952380Y-81303571D01*
X81857142Y-81351190D01*
X81476190Y-81351190D01*
X83000000Y-80875000D02*
X82904761Y-80827380D01*
X82761904Y-80827380D01*
X82619047Y-80875000D01*
X82523809Y-80970238D01*
X82476190Y-81065476D01*
X82428571Y-81255952D01*
X82428571Y-81398809D01*
X82476190Y-81589285D01*
X82523809Y-81684523D01*
X82619047Y-81779761D01*
X82761904Y-81827380D01*
X82857142Y-81827380D01*
X83000000Y-81779761D01*
X83047619Y-81732142D01*
X83047619Y-81398809D01*
X82857142Y-81398809D01*
X83476190Y-81303571D02*
X83809523Y-81303571D01*
X83952380Y-81827380D02*
X83476190Y-81827380D01*
X83476190Y-80827380D01*
X83952380Y-80827380D01*
X84952380Y-81827380D02*
X84619047Y-81351190D01*
X84380952Y-81827380D02*
X84380952Y-80827380D01*
X84761904Y-80827380D01*
X84857142Y-80875000D01*
X84904761Y-80922619D01*
X84952380Y-81017857D01*
X84952380Y-81160714D01*
X84904761Y-81255952D01*
X84857142Y-81303571D01*
X84761904Y-81351190D01*
X84380952Y-81351190D01*
X54833333Y-72302380D02*
X54833333Y-71302380D01*
X55166666Y-72016666D01*
X55500000Y-71302380D01*
X55500000Y-72302380D01*
X56119047Y-72302380D02*
X56023809Y-72254761D01*
X55976190Y-72207142D01*
X55928571Y-72111904D01*
X55928571Y-71826190D01*
X55976190Y-71730952D01*
X56023809Y-71683333D01*
X56119047Y-71635714D01*
X56261904Y-71635714D01*
X56357142Y-71683333D01*
X56404761Y-71730952D01*
X56452380Y-71826190D01*
X56452380Y-72111904D01*
X56404761Y-72207142D01*
X56357142Y-72254761D01*
X56261904Y-72302380D01*
X56119047Y-72302380D01*
X57309523Y-71635714D02*
X57309523Y-72302380D01*
X56880952Y-71635714D02*
X56880952Y-72159523D01*
X56928571Y-72254761D01*
X57023809Y-72302380D01*
X57166666Y-72302380D01*
X57261904Y-72254761D01*
X57309523Y-72207142D01*
X57785714Y-71635714D02*
X57785714Y-72302380D01*
X57785714Y-71730952D02*
X57833333Y-71683333D01*
X57928571Y-71635714D01*
X58071428Y-71635714D01*
X58166666Y-71683333D01*
X58214285Y-71778571D01*
X58214285Y-72302380D01*
X58547619Y-71635714D02*
X58928571Y-71635714D01*
X58690476Y-71302380D02*
X58690476Y-72159523D01*
X58738095Y-72254761D01*
X58833333Y-72302380D01*
X58928571Y-72302380D01*
X59261904Y-72302380D02*
X59261904Y-71635714D01*
X59261904Y-71302380D02*
X59214285Y-71350000D01*
X59261904Y-71397619D01*
X59309523Y-71350000D01*
X59261904Y-71302380D01*
X59261904Y-71397619D01*
X59738095Y-71635714D02*
X59738095Y-72302380D01*
X59738095Y-71730952D02*
X59785714Y-71683333D01*
X59880952Y-71635714D01*
X60023809Y-71635714D01*
X60119047Y-71683333D01*
X60166666Y-71778571D01*
X60166666Y-72302380D01*
X61071428Y-71635714D02*
X61071428Y-72445238D01*
X61023809Y-72540476D01*
X60976190Y-72588095D01*
X60880952Y-72635714D01*
X60738095Y-72635714D01*
X60642857Y-72588095D01*
X61071428Y-72254761D02*
X60976190Y-72302380D01*
X60785714Y-72302380D01*
X60690476Y-72254761D01*
X60642857Y-72207142D01*
X60595238Y-72111904D01*
X60595238Y-71826190D01*
X60642857Y-71730952D01*
X60690476Y-71683333D01*
X60785714Y-71635714D01*
X60976190Y-71635714D01*
X61071428Y-71683333D01*
X61309523Y-72397619D02*
X62071428Y-72397619D01*
X62309523Y-72302380D02*
X62309523Y-71302380D01*
X62309523Y-71778571D02*
X62880952Y-71778571D01*
X62880952Y-72302380D02*
X62880952Y-71302380D01*
X63500000Y-72302380D02*
X63404761Y-72254761D01*
X63357142Y-72207142D01*
X63309523Y-72111904D01*
X63309523Y-71826190D01*
X63357142Y-71730952D01*
X63404761Y-71683333D01*
X63500000Y-71635714D01*
X63642857Y-71635714D01*
X63738095Y-71683333D01*
X63785714Y-71730952D01*
X63833333Y-71826190D01*
X63833333Y-72111904D01*
X63785714Y-72207142D01*
X63738095Y-72254761D01*
X63642857Y-72302380D01*
X63500000Y-72302380D01*
X64404761Y-72302380D02*
X64309523Y-72254761D01*
X64261904Y-72159523D01*
X64261904Y-71302380D01*
X65166666Y-72254761D02*
X65071428Y-72302380D01*
X64880952Y-72302380D01*
X64785714Y-72254761D01*
X64738095Y-72159523D01*
X64738095Y-71778571D01*
X64785714Y-71683333D01*
X64880952Y-71635714D01*
X65071428Y-71635714D01*
X65166666Y-71683333D01*
X65214285Y-71778571D01*
X65214285Y-71873809D01*
X64738095Y-71969047D01*
X63452380Y-60952380D02*
X62880952Y-60952380D01*
X63166666Y-60952380D02*
X63166666Y-59952380D01*
X63071428Y-60095238D01*
X62976190Y-60190476D01*
X62880952Y-60238095D01*
X64071428Y-59952380D02*
X64166666Y-59952380D01*
X64261904Y-60000000D01*
X64309523Y-60047619D01*
X64357142Y-60142857D01*
X64404761Y-60333333D01*
X64404761Y-60571428D01*
X64357142Y-60761904D01*
X64309523Y-60857142D01*
X64261904Y-60904761D01*
X64166666Y-60952380D01*
X64071428Y-60952380D01*
X63976190Y-60904761D01*
X63928571Y-60857142D01*
X63880952Y-60761904D01*
X63833333Y-60571428D01*
X63833333Y-60333333D01*
X63880952Y-60142857D01*
X63928571Y-60047619D01*
X63976190Y-60000000D01*
X64071428Y-59952380D01*
X65023809Y-59952380D02*
X65119047Y-59952380D01*
X65214285Y-60000000D01*
X65261904Y-60047619D01*
X65309523Y-60142857D01*
X65357142Y-60333333D01*
X65357142Y-60571428D01*
X65309523Y-60761904D01*
X65261904Y-60857142D01*
X65214285Y-60904761D01*
X65119047Y-60952380D01*
X65023809Y-60952380D01*
X64928571Y-60904761D01*
X64880952Y-60857142D01*
X64833333Y-60761904D01*
X64785714Y-60571428D01*
X64785714Y-60333333D01*
X64833333Y-60142857D01*
X64880952Y-60047619D01*
X64928571Y-60000000D01*
X65023809Y-59952380D01*
X65785714Y-60285714D02*
X65785714Y-60952380D01*
X65785714Y-60380952D02*
X65833333Y-60333333D01*
X65928571Y-60285714D01*
X66071428Y-60285714D01*
X66166666Y-60333333D01*
X66214285Y-60428571D01*
X66214285Y-60952380D01*
X67023809Y-60428571D02*
X66690476Y-60428571D01*
X66690476Y-60952380D02*
X66690476Y-59952380D01*
X67166666Y-59952380D01*
X64833333Y-57857142D02*
X64785714Y-57904761D01*
X64642857Y-57952380D01*
X64547619Y-57952380D01*
X64404761Y-57904761D01*
X64309523Y-57809523D01*
X64261904Y-57714285D01*
X64214285Y-57523809D01*
X64214285Y-57380952D01*
X64261904Y-57190476D01*
X64309523Y-57095238D01*
X64404761Y-57000000D01*
X64547619Y-56952380D01*
X64642857Y-56952380D01*
X64785714Y-57000000D01*
X64833333Y-57047619D01*
X65785714Y-57952380D02*
X65214285Y-57952380D01*
X65500000Y-57952380D02*
X65500000Y-56952380D01*
X65404761Y-57095238D01*
X65309523Y-57190476D01*
X65214285Y-57238095D01*
X83452380Y-60952380D02*
X82880952Y-60952380D01*
X83166666Y-60952380D02*
X83166666Y-59952380D01*
X83071428Y-60095238D01*
X82976190Y-60190476D01*
X82880952Y-60238095D01*
X84071428Y-59952380D02*
X84166666Y-59952380D01*
X84261904Y-60000000D01*
X84309523Y-60047619D01*
X84357142Y-60142857D01*
X84404761Y-60333333D01*
X84404761Y-60571428D01*
X84357142Y-60761904D01*
X84309523Y-60857142D01*
X84261904Y-60904761D01*
X84166666Y-60952380D01*
X84071428Y-60952380D01*
X83976190Y-60904761D01*
X83928571Y-60857142D01*
X83880952Y-60761904D01*
X83833333Y-60571428D01*
X83833333Y-60333333D01*
X83880952Y-60142857D01*
X83928571Y-60047619D01*
X83976190Y-60000000D01*
X84071428Y-59952380D01*
X85023809Y-59952380D02*
X85119047Y-59952380D01*
X85214285Y-60000000D01*
X85261904Y-60047619D01*
X85309523Y-60142857D01*
X85357142Y-60333333D01*
X85357142Y-60571428D01*
X85309523Y-60761904D01*
X85261904Y-60857142D01*
X85214285Y-60904761D01*
X85119047Y-60952380D01*
X85023809Y-60952380D01*
X84928571Y-60904761D01*
X84880952Y-60857142D01*
X84833333Y-60761904D01*
X84785714Y-60571428D01*
X84785714Y-60333333D01*
X84833333Y-60142857D01*
X84880952Y-60047619D01*
X84928571Y-60000000D01*
X85023809Y-59952380D01*
X85785714Y-60285714D02*
X85785714Y-60952380D01*
X85785714Y-60380952D02*
X85833333Y-60333333D01*
X85928571Y-60285714D01*
X86071428Y-60285714D01*
X86166666Y-60333333D01*
X86214285Y-60428571D01*
X86214285Y-60952380D01*
X87023809Y-60428571D02*
X86690476Y-60428571D01*
X86690476Y-60952380D02*
X86690476Y-59952380D01*
X87166666Y-59952380D01*
X84833333Y-57857142D02*
X84785714Y-57904761D01*
X84642857Y-57952380D01*
X84547619Y-57952380D01*
X84404761Y-57904761D01*
X84309523Y-57809523D01*
X84261904Y-57714285D01*
X84214285Y-57523809D01*
X84214285Y-57380952D01*
X84261904Y-57190476D01*
X84309523Y-57095238D01*
X84404761Y-57000000D01*
X84547619Y-56952380D01*
X84642857Y-56952380D01*
X84785714Y-57000000D01*
X84833333Y-57047619D01*
X85214285Y-57047619D02*
X85261904Y-57000000D01*
X85357142Y-56952380D01*
X85595238Y-56952380D01*
X85690476Y-57000000D01*
X85738095Y-57047619D01*
X85785714Y-57142857D01*
X85785714Y-57238095D01*
X85738095Y-57380952D01*
X85166666Y-57952380D01*
X85785714Y-57952380D01*
X63452380Y-80952380D02*
X62880952Y-80952380D01*
X63166666Y-80952380D02*
X63166666Y-79952380D01*
X63071428Y-80095238D01*
X62976190Y-80190476D01*
X62880952Y-80238095D01*
X64071428Y-79952380D02*
X64166666Y-79952380D01*
X64261904Y-80000000D01*
X64309523Y-80047619D01*
X64357142Y-80142857D01*
X64404761Y-80333333D01*
X64404761Y-80571428D01*
X64357142Y-80761904D01*
X64309523Y-80857142D01*
X64261904Y-80904761D01*
X64166666Y-80952380D01*
X64071428Y-80952380D01*
X63976190Y-80904761D01*
X63928571Y-80857142D01*
X63880952Y-80761904D01*
X63833333Y-80571428D01*
X63833333Y-80333333D01*
X63880952Y-80142857D01*
X63928571Y-80047619D01*
X63976190Y-80000000D01*
X64071428Y-79952380D01*
X65023809Y-79952380D02*
X65119047Y-79952380D01*
X65214285Y-80000000D01*
X65261904Y-80047619D01*
X65309523Y-80142857D01*
X65357142Y-80333333D01*
X65357142Y-80571428D01*
X65309523Y-80761904D01*
X65261904Y-80857142D01*
X65214285Y-80904761D01*
X65119047Y-80952380D01*
X65023809Y-80952380D01*
X64928571Y-80904761D01*
X64880952Y-80857142D01*
X64833333Y-80761904D01*
X64785714Y-80571428D01*
X64785714Y-80333333D01*
X64833333Y-80142857D01*
X64880952Y-80047619D01*
X64928571Y-80000000D01*
X65023809Y-79952380D01*
X65785714Y-80285714D02*
X65785714Y-80952380D01*
X65785714Y-80380952D02*
X65833333Y-80333333D01*
X65928571Y-80285714D01*
X66071428Y-80285714D01*
X66166666Y-80333333D01*
X66214285Y-80428571D01*
X66214285Y-80952380D01*
X67023809Y-80428571D02*
X66690476Y-80428571D01*
X66690476Y-80952380D02*
X66690476Y-79952380D01*
X67166666Y-79952380D01*
X64833333Y-77857142D02*
X64785714Y-77904761D01*
X64642857Y-77952380D01*
X64547619Y-77952380D01*
X64404761Y-77904761D01*
X64309523Y-77809523D01*
X64261904Y-77714285D01*
X64214285Y-77523809D01*
X64214285Y-77380952D01*
X64261904Y-77190476D01*
X64309523Y-77095238D01*
X64404761Y-77000000D01*
X64547619Y-76952380D01*
X64642857Y-76952380D01*
X64785714Y-77000000D01*
X64833333Y-77047619D01*
X65166666Y-76952380D02*
X65785714Y-76952380D01*
X65452380Y-77333333D01*
X65595238Y-77333333D01*
X65690476Y-77380952D01*
X65738095Y-77428571D01*
X65785714Y-77523809D01*
X65785714Y-77761904D01*
X65738095Y-77857142D01*
X65690476Y-77904761D01*
X65595238Y-77952380D01*
X65309523Y-77952380D01*
X65214285Y-77904761D01*
X65166666Y-77857142D01*
X83452380Y-80952380D02*
X82880952Y-80952380D01*
X83166666Y-80952380D02*
X83166666Y-79952380D01*
X83071428Y-80095238D01*
X82976190Y-80190476D01*
X82880952Y-80238095D01*
X84071428Y-79952380D02*
X84166666Y-79952380D01*
X84261904Y-80000000D01*
X84309523Y-80047619D01*
X84357142Y-80142857D01*
X84404761Y-80333333D01*
X84404761Y-80571428D01*
X84357142Y-80761904D01*
X84309523Y-80857142D01*
X84261904Y-80904761D01*
X84166666Y-80952380D01*
X84071428Y-80952380D01*
X83976190Y-80904761D01*
X83928571Y-80857142D01*
X83880952Y-80761904D01*
X83833333Y-80571428D01*
X83833333Y-80333333D01*
X83880952Y-80142857D01*
X83928571Y-80047619D01*
X83976190Y-80000000D01*
X84071428Y-79952380D01*
X85023809Y-79952380D02*
X85119047Y-79952380D01*
X85214285Y-80000000D01*
X85261904Y-80047619D01*
X85309523Y-80142857D01*
X85357142Y-80333333D01*
X85357142Y-80571428D01*
X85309523Y-80761904D01*
X85261904Y-80857142D01*
X85214285Y-80904761D01*
X85119047Y-80952380D01*
X85023809Y-80952380D01*
X84928571Y-80904761D01*
X84880952Y-80857142D01*
X84833333Y-80761904D01*
X84785714Y-80571428D01*
X84785714Y-80333333D01*
X84833333Y-80142857D01*
X84880952Y-80047619D01*
X84928571Y-80000000D01*
X85023809Y-79952380D01*
X85785714Y-80285714D02*
X85785714Y-80952380D01*
X85785714Y-80380952D02*
X85833333Y-80333333D01*
X85928571Y-80285714D01*
X86071428Y-80285714D01*
X86166666Y-80333333D01*
X86214285Y-80428571D01*
X86214285Y-80952380D01*
X87023809Y-80428571D02*
X86690476Y-80428571D01*
X86690476Y-80952380D02*
X86690476Y-79952380D01*
X87166666Y-79952380D01*
X84833333Y-77857142D02*
X84785714Y-77904761D01*
X84642857Y-77952380D01*
X84547619Y-77952380D01*
X84404761Y-77904761D01*
X84309523Y-77809523D01*
X84261904Y-77714285D01*
X84214285Y-77523809D01*
X84214285Y-77380952D01*
X84261904Y-77190476D01*
X84309523Y-77095238D01*
X84404761Y-77000000D01*
X84547619Y-76952380D01*
X84642857Y-76952380D01*
X84785714Y-77000000D01*
X84833333Y-77047619D01*
X85690476Y-77285714D02*
X85690476Y-77952380D01*
X85452380Y-76904761D02*
X85214285Y-77619047D01*
X85833333Y-77619047D01*
X62404761Y-58047619D02*
X62452380Y-58000000D01*
X62547619Y-57952380D01*
X62785714Y-57952380D01*
X62880952Y-58000000D01*
X62928571Y-58047619D01*
X62976190Y-58142857D01*
X62976190Y-58238095D01*
X62928571Y-58380952D01*
X62357142Y-58952380D01*
X62976190Y-58952380D01*
X63404761Y-58952380D02*
X63404761Y-57952380D01*
X63500000Y-58571428D02*
X63785714Y-58952380D01*
X63785714Y-58285714D02*
X63404761Y-58666666D01*
X64119047Y-57952380D02*
X64785714Y-57952380D01*
X64357142Y-58952380D01*
X66452380Y-58952380D02*
X65880952Y-58952380D01*
X66166666Y-58952380D02*
X66166666Y-57952380D01*
X66071428Y-58095238D01*
X65976190Y-58190476D01*
X65880952Y-58238095D01*
X66833333Y-58952380D02*
X67595238Y-57952380D01*
X66976190Y-57952380D02*
X67071428Y-58000000D01*
X67119047Y-58095238D01*
X67071428Y-58190476D01*
X66976190Y-58238095D01*
X66880952Y-58190476D01*
X66833333Y-58095238D01*
X66880952Y-58000000D01*
X66976190Y-57952380D01*
X67547619Y-58904761D02*
X67595238Y-58809523D01*
X67547619Y-58714285D01*
X67452380Y-58666666D01*
X67357142Y-58714285D01*
X67309523Y-58809523D01*
X67357142Y-58904761D01*
X67452380Y-58952380D01*
X67547619Y-58904761D01*
D12*
X64916666Y-57226190D02*
X64750000Y-56988095D01*
X64630952Y-57226190D02*
X64630952Y-56726190D01*
X64821428Y-56726190D01*
X64869047Y-56750000D01*
X64892857Y-56773809D01*
X64916666Y-56821428D01*
X64916666Y-56892857D01*
X64892857Y-56940476D01*
X64869047Y-56964285D01*
X64821428Y-56988095D01*
X64630952Y-56988095D01*
X65392857Y-57226190D02*
X65107142Y-57226190D01*
X65250000Y-57226190D02*
X65250000Y-56726190D01*
X65202380Y-56797619D01*
X65154761Y-56845238D01*
X65107142Y-56869047D01*
D10*
X82404761Y-58047619D02*
X82452380Y-58000000D01*
X82547619Y-57952380D01*
X82785714Y-57952380D01*
X82880952Y-58000000D01*
X82928571Y-58047619D01*
X82976190Y-58142857D01*
X82976190Y-58238095D01*
X82928571Y-58380952D01*
X82357142Y-58952380D01*
X82976190Y-58952380D01*
X83404761Y-58952380D02*
X83404761Y-57952380D01*
X83500000Y-58571428D02*
X83785714Y-58952380D01*
X83785714Y-58285714D02*
X83404761Y-58666666D01*
X84119047Y-57952380D02*
X84785714Y-57952380D01*
X84357142Y-58952380D01*
X86452380Y-58952380D02*
X85880952Y-58952380D01*
X86166666Y-58952380D02*
X86166666Y-57952380D01*
X86071428Y-58095238D01*
X85976190Y-58190476D01*
X85880952Y-58238095D01*
X86833333Y-58952380D02*
X87595238Y-57952380D01*
X86976190Y-57952380D02*
X87071428Y-58000000D01*
X87119047Y-58095238D01*
X87071428Y-58190476D01*
X86976190Y-58238095D01*
X86880952Y-58190476D01*
X86833333Y-58095238D01*
X86880952Y-58000000D01*
X86976190Y-57952380D01*
X87547619Y-58904761D02*
X87595238Y-58809523D01*
X87547619Y-58714285D01*
X87452380Y-58666666D01*
X87357142Y-58714285D01*
X87309523Y-58809523D01*
X87357142Y-58904761D01*
X87452380Y-58952380D01*
X87547619Y-58904761D01*
D12*
X84916666Y-57226190D02*
X84750000Y-56988095D01*
X84630952Y-57226190D02*
X84630952Y-56726190D01*
X84821428Y-56726190D01*
X84869047Y-56750000D01*
X84892857Y-56773809D01*
X84916666Y-56821428D01*
X84916666Y-56892857D01*
X84892857Y-56940476D01*
X84869047Y-56964285D01*
X84821428Y-56988095D01*
X84630952Y-56988095D01*
X85107142Y-56773809D02*
X85130952Y-56750000D01*
X85178571Y-56726190D01*
X85297619Y-56726190D01*
X85345238Y-56750000D01*
X85369047Y-56773809D01*
X85392857Y-56821428D01*
X85392857Y-56869047D01*
X85369047Y-56940476D01*
X85083333Y-57226190D01*
X85392857Y-57226190D01*
D10*
X62404761Y-78047619D02*
X62452380Y-78000000D01*
X62547619Y-77952380D01*
X62785714Y-77952380D01*
X62880952Y-78000000D01*
X62928571Y-78047619D01*
X62976190Y-78142857D01*
X62976190Y-78238095D01*
X62928571Y-78380952D01*
X62357142Y-78952380D01*
X62976190Y-78952380D01*
X63404761Y-78952380D02*
X63404761Y-77952380D01*
X63500000Y-78571428D02*
X63785714Y-78952380D01*
X63785714Y-78285714D02*
X63404761Y-78666666D01*
X64119047Y-77952380D02*
X64785714Y-77952380D01*
X64357142Y-78952380D01*
X66452380Y-78952380D02*
X65880952Y-78952380D01*
X66166666Y-78952380D02*
X66166666Y-77952380D01*
X66071428Y-78095238D01*
X65976190Y-78190476D01*
X65880952Y-78238095D01*
X66833333Y-78952380D02*
X67595238Y-77952380D01*
X66976190Y-77952380D02*
X67071428Y-78000000D01*
X67119047Y-78095238D01*
X67071428Y-78190476D01*
X66976190Y-78238095D01*
X66880952Y-78190476D01*
X66833333Y-78095238D01*
X66880952Y-78000000D01*
X66976190Y-77952380D01*
X67547619Y-78904761D02*
X67595238Y-78809523D01*
X67547619Y-78714285D01*
X67452380Y-78666666D01*
X67357142Y-78714285D01*
X67309523Y-78809523D01*
X67357142Y-78904761D01*
X67452380Y-78952380D01*
X67547619Y-78904761D01*
D12*
X64916666Y-77226190D02*
X64750000Y-76988095D01*
X64630952Y-77226190D02*
X64630952Y-76726190D01*
X64821428Y-76726190D01*
X64869047Y-76750000D01*
X64892857Y-76773809D01*
X64916666Y-76821428D01*
X64916666Y-76892857D01*
X64892857Y-76940476D01*
X64869047Y-76964285D01*
X64821428Y-76988095D01*
X64630952Y-76988095D01*
X65083333Y-76726190D02*
X65392857Y-76726190D01*
X65226190Y-76916666D01*
X65297619Y-76916666D01*
X65345238Y-76940476D01*
X65369047Y-76964285D01*
X65392857Y-77011904D01*
X65392857Y-77130952D01*
X65369047Y-77178571D01*
X65345238Y-77202380D01*
X65297619Y-77226190D01*
X65154761Y-77226190D01*
X65107142Y-77202380D01*
X65083333Y-77178571D01*
D10*
X82404761Y-78047619D02*
X82452380Y-78000000D01*
X82547619Y-77952380D01*
X82785714Y-77952380D01*
X82880952Y-78000000D01*
X82928571Y-78047619D01*
X82976190Y-78142857D01*
X82976190Y-78238095D01*
X82928571Y-78380952D01*
X82357142Y-78952380D01*
X82976190Y-78952380D01*
X83404761Y-78952380D02*
X83404761Y-77952380D01*
X83500000Y-78571428D02*
X83785714Y-78952380D01*
X83785714Y-78285714D02*
X83404761Y-78666666D01*
X84119047Y-77952380D02*
X84785714Y-77952380D01*
X84357142Y-78952380D01*
X86452380Y-78952380D02*
X85880952Y-78952380D01*
X86166666Y-78952380D02*
X86166666Y-77952380D01*
X86071428Y-78095238D01*
X85976190Y-78190476D01*
X85880952Y-78238095D01*
X86833333Y-78952380D02*
X87595238Y-77952380D01*
X86976190Y-77952380D02*
X87071428Y-78000000D01*
X87119047Y-78095238D01*
X87071428Y-78190476D01*
X86976190Y-78238095D01*
X86880952Y-78190476D01*
X86833333Y-78095238D01*
X86880952Y-78000000D01*
X86976190Y-77952380D01*
X87547619Y-78904761D02*
X87595238Y-78809523D01*
X87547619Y-78714285D01*
X87452380Y-78666666D01*
X87357142Y-78714285D01*
X87309523Y-78809523D01*
X87357142Y-78904761D01*
X87452380Y-78952380D01*
X87547619Y-78904761D01*
D12*
X84916666Y-77226190D02*
X84750000Y-76988095D01*
X84630952Y-77226190D02*
X84630952Y-76726190D01*
X84821428Y-76726190D01*
X84869047Y-76750000D01*
X84892857Y-76773809D01*
X84916666Y-76821428D01*
X84916666Y-76892857D01*
X84892857Y-76940476D01*
X84869047Y-76964285D01*
X84821428Y-76988095D01*
X84630952Y-76988095D01*
X85345238Y-76892857D02*
X85345238Y-77226190D01*
X85226190Y-76702380D02*
X85107142Y-77059523D01*
X85416666Y-77059523D01*
D10*
X68833333Y-66285714D02*
X68833333Y-66952380D01*
X68595238Y-65904761D02*
X68357142Y-66619047D01*
X68976190Y-66619047D01*
X69261904Y-65952380D02*
X69928571Y-65952380D01*
X69500000Y-66952380D01*
X70738095Y-66285714D02*
X70738095Y-66952380D01*
X70309523Y-66285714D02*
X70309523Y-66809523D01*
X70357142Y-66904761D01*
X70452380Y-66952380D01*
X70595238Y-66952380D01*
X70690476Y-66904761D01*
X70738095Y-66857142D01*
X71547619Y-66428571D02*
X71214285Y-66428571D01*
X71214285Y-66952380D02*
X71214285Y-65952380D01*
X71690476Y-65952380D01*
X69833333Y-69857142D02*
X69785714Y-69904761D01*
X69642857Y-69952380D01*
X69547619Y-69952380D01*
X69404761Y-69904761D01*
X69309523Y-69809523D01*
X69261904Y-69714285D01*
X69214285Y-69523809D01*
X69214285Y-69380952D01*
X69261904Y-69190476D01*
X69309523Y-69095238D01*
X69404761Y-69000000D01*
X69547619Y-68952380D01*
X69642857Y-68952380D01*
X69785714Y-69000000D01*
X69833333Y-69047619D01*
X70738095Y-68952380D02*
X70261904Y-68952380D01*
X70214285Y-69428571D01*
X70261904Y-69380952D01*
X70357142Y-69333333D01*
X70595238Y-69333333D01*
X70690476Y-69380952D01*
X70738095Y-69428571D01*
X70785714Y-69523809D01*
X70785714Y-69761904D01*
X70738095Y-69857142D01*
X70690476Y-69904761D01*
X70595238Y-69952380D01*
X70357142Y-69952380D01*
X70261904Y-69904761D01*
X70214285Y-69857142D01*
X74833333Y-72302380D02*
X74833333Y-71302380D01*
X75166666Y-72016666D01*
X75500000Y-71302380D01*
X75500000Y-72302380D01*
X76119047Y-72302380D02*
X76023809Y-72254761D01*
X75976190Y-72207142D01*
X75928571Y-72111904D01*
X75928571Y-71826190D01*
X75976190Y-71730952D01*
X76023809Y-71683333D01*
X76119047Y-71635714D01*
X76261904Y-71635714D01*
X76357142Y-71683333D01*
X76404761Y-71730952D01*
X76452380Y-71826190D01*
X76452380Y-72111904D01*
X76404761Y-72207142D01*
X76357142Y-72254761D01*
X76261904Y-72302380D01*
X76119047Y-72302380D01*
X77309523Y-71635714D02*
X77309523Y-72302380D01*
X76880952Y-71635714D02*
X76880952Y-72159523D01*
X76928571Y-72254761D01*
X77023809Y-72302380D01*
X77166666Y-72302380D01*
X77261904Y-72254761D01*
X77309523Y-72207142D01*
X77785714Y-71635714D02*
X77785714Y-72302380D01*
X77785714Y-71730952D02*
X77833333Y-71683333D01*
X77928571Y-71635714D01*
X78071428Y-71635714D01*
X78166666Y-71683333D01*
X78214285Y-71778571D01*
X78214285Y-72302380D01*
X78547619Y-71635714D02*
X78928571Y-71635714D01*
X78690476Y-71302380D02*
X78690476Y-72159523D01*
X78738095Y-72254761D01*
X78833333Y-72302380D01*
X78928571Y-72302380D01*
X79261904Y-72302380D02*
X79261904Y-71635714D01*
X79261904Y-71302380D02*
X79214285Y-71350000D01*
X79261904Y-71397619D01*
X79309523Y-71350000D01*
X79261904Y-71302380D01*
X79261904Y-71397619D01*
X79738095Y-71635714D02*
X79738095Y-72302380D01*
X79738095Y-71730952D02*
X79785714Y-71683333D01*
X79880952Y-71635714D01*
X80023809Y-71635714D01*
X80119047Y-71683333D01*
X80166666Y-71778571D01*
X80166666Y-72302380D01*
X81071428Y-71635714D02*
X81071428Y-72445238D01*
X81023809Y-72540476D01*
X80976190Y-72588095D01*
X80880952Y-72635714D01*
X80738095Y-72635714D01*
X80642857Y-72588095D01*
X81071428Y-72254761D02*
X80976190Y-72302380D01*
X80785714Y-72302380D01*
X80690476Y-72254761D01*
X80642857Y-72207142D01*
X80595238Y-72111904D01*
X80595238Y-71826190D01*
X80642857Y-71730952D01*
X80690476Y-71683333D01*
X80785714Y-71635714D01*
X80976190Y-71635714D01*
X81071428Y-71683333D01*
X81309523Y-72397619D02*
X82071428Y-72397619D01*
X82309523Y-72302380D02*
X82309523Y-71302380D01*
X82309523Y-71778571D02*
X82880952Y-71778571D01*
X82880952Y-72302380D02*
X82880952Y-71302380D01*
X83500000Y-72302380D02*
X83404761Y-72254761D01*
X83357142Y-72207142D01*
X83309523Y-72111904D01*
X83309523Y-71826190D01*
X83357142Y-71730952D01*
X83404761Y-71683333D01*
X83500000Y-71635714D01*
X83642857Y-71635714D01*
X83738095Y-71683333D01*
X83785714Y-71730952D01*
X83833333Y-71826190D01*
X83833333Y-72111904D01*
X83785714Y-72207142D01*
X83738095Y-72254761D01*
X83642857Y-72302380D01*
X83500000Y-72302380D01*
X84404761Y-72302380D02*
X84309523Y-72254761D01*
X84261904Y-72159523D01*
X84261904Y-71302380D01*
X85166666Y-72254761D02*
X85071428Y-72302380D01*
X84880952Y-72302380D01*
X84785714Y-72254761D01*
X84738095Y-72159523D01*
X84738095Y-71778571D01*
X84785714Y-71683333D01*
X84880952Y-71635714D01*
X85071428Y-71635714D01*
X85166666Y-71683333D01*
X85214285Y-71778571D01*
X85214285Y-71873809D01*
X84738095Y-71969047D01*
M02*
