M48
;DRILL file {KiCad no-vcs-found-2c23c4c~60~ubuntu17.04.1} date Wed Sep 27 11:51:04 2017
;FORMAT={-:-/ absolute / metric / decimal}
FMAT,2
METRIC,TZ
T1C0.300
T2C1.000
T3C3.200
%
G90
G05
M71
T1
X54.5Y-58.
X54.75Y-56.25
X54.75Y-76.25
X55.25Y-59.
X55.5Y-56.
X55.5Y-76.
X56.25Y-55.8
X56.25Y-75.8
X57.75Y-51.75
X57.75Y-71.75
X58.Y-64.25
X58.Y-85.
X58.5Y-51.75
X58.5Y-71.75
X58.75Y-82.25
X58.75Y-85.55
X58.97Y-62.22
X58.986Y-64.35
X59.25Y-51.75
X59.25Y-71.75
X59.5Y-85.9
X59.65Y-83.003
X60.25Y-63.25
X60.25Y-84.25
X60.75Y-83.25
X61.75Y-64.5
X63.483Y-60.45
X63.483Y-80.45
X64.25Y-60.5
X64.25Y-80.5
X66.Y-57.
X66.Y-77.
X68.2Y-69.
X68.2Y-69.6
X68.2Y-70.2
X68.25Y-80.75
X68.5Y-56.
X68.5Y-57.5
X68.5Y-59.5
X69.5Y-60.25
X69.5Y-81.5
X70.05Y-69.
X70.05Y-69.6
X70.05Y-70.2
X70.75Y-56.
X71.Y-77.5
X71.Y-79.25
X71.Y-57.25
X71.25Y-60.
X71.25Y-58.75
X73.Y-57.25
X74.Y-57.75
X74.5Y-58.75
X74.5Y-60.
X74.5Y-77.5
X74.5Y-78.75
X74.75Y-56.25
X74.75Y-76.25
X75.5Y-56.
X75.5Y-76.
X76.25Y-55.8
X76.25Y-75.8
X77.75Y-51.75
X77.75Y-71.75
X78.Y-64.25
X78.Y-84.75
X78.5Y-51.75
X78.5Y-71.75
X78.75Y-85.25
X79.Y-64.25
X79.25Y-82.5
X79.25Y-51.75
X79.25Y-71.75
X79.75Y-83.45
X79.75Y-85.
X81.5Y-64.25
X83.483Y-60.45
X83.483Y-80.45
X84.25Y-60.5
X84.25Y-80.5
X86.Y-57.
X86.Y-77.
X83.1Y-61.9
X83.1Y-63.
X83.1Y-64.1
X84.25Y-61.9
X84.25Y-63.
X84.25Y-64.1
X85.4Y-61.9
X85.4Y-63.
X85.4Y-64.1
X63.1Y-51.9
X63.1Y-53.
X63.1Y-54.1
X64.25Y-51.9
X64.25Y-53.
X64.25Y-54.1
X65.4Y-51.9
X65.4Y-53.
X65.4Y-54.1
X53.1Y-71.9
X53.1Y-73.
X53.1Y-74.1
X54.25Y-71.9
X54.25Y-73.
X54.25Y-74.1
X55.4Y-71.9
X55.4Y-73.
X55.4Y-74.1
X73.1Y-61.9
X73.1Y-63.
X73.1Y-64.1
X74.25Y-61.9
X74.25Y-63.
X74.25Y-64.1
X75.4Y-61.9
X75.4Y-63.
X75.4Y-64.1
X53.1Y-61.9
X53.1Y-63.
X53.1Y-64.1
X54.25Y-61.9
X54.25Y-63.
X54.25Y-64.1
X55.4Y-61.9
X55.4Y-63.
X55.4Y-64.1
X73.1Y-71.9
X73.1Y-73.
X73.1Y-74.1
X74.25Y-71.9
X74.25Y-73.
X74.25Y-74.1
X75.4Y-71.9
X75.4Y-73.
X75.4Y-74.1
X57.242Y-58.919
X58.162Y-58.
X58.162Y-59.838
X59.081Y-57.081
X59.081Y-58.919
X59.081Y-60.758
X60.Y-56.162
X60.Y-58.
X60.Y-59.838
X60.919Y-55.242
X60.919Y-57.081
X60.919Y-58.919
X61.838Y-56.162
X61.838Y-58.
X62.758Y-57.081
X73.1Y-81.9
X73.1Y-83.
X73.1Y-84.1
X74.25Y-81.9
X74.25Y-83.
X74.25Y-84.1
X75.4Y-81.9
X75.4Y-83.
X75.4Y-84.1
X77.242Y-78.919
X78.162Y-78.
X78.162Y-79.838
X79.081Y-77.081
X79.081Y-78.919
X79.081Y-80.758
X80.Y-76.162
X80.Y-78.
X80.Y-79.838
X80.919Y-75.242
X80.919Y-77.081
X80.919Y-78.919
X81.838Y-76.162
X81.838Y-78.
X82.758Y-77.081
X57.242Y-78.919
X58.162Y-78.
X58.162Y-79.838
X59.081Y-77.081
X59.081Y-78.919
X59.081Y-80.758
X60.Y-76.162
X60.Y-78.
X60.Y-79.838
X60.919Y-75.242
X60.919Y-77.081
X60.919Y-78.919
X61.838Y-76.162
X61.838Y-78.
X62.758Y-77.081
X83.1Y-81.9
X83.1Y-83.
X83.1Y-84.1
X84.25Y-81.9
X84.25Y-83.
X84.25Y-84.1
X85.4Y-81.9
X85.4Y-83.
X85.4Y-84.1
X83.1Y-71.9
X83.1Y-73.
X83.1Y-74.1
X84.25Y-71.9
X84.25Y-73.
X84.25Y-74.1
X85.4Y-71.9
X85.4Y-73.
X85.4Y-74.1
X83.1Y-51.9
X83.1Y-53.
X83.1Y-54.1
X84.25Y-51.9
X84.25Y-53.
X84.25Y-54.1
X85.4Y-51.9
X85.4Y-53.
X85.4Y-54.1
X77.242Y-58.919
X78.162Y-58.
X78.162Y-59.838
X79.081Y-57.081
X79.081Y-58.919
X79.081Y-60.758
X80.Y-56.162
X80.Y-58.
X80.Y-59.838
X80.919Y-55.242
X80.919Y-57.081
X80.919Y-58.919
X81.838Y-56.162
X81.838Y-58.
X82.758Y-57.081
X53.1Y-81.9
X53.1Y-83.
X53.1Y-84.1
X54.25Y-81.9
X54.25Y-83.
X54.25Y-84.1
X55.4Y-81.9
X55.4Y-83.
X55.4Y-84.1
X53.1Y-51.9
X53.1Y-53.
X53.1Y-54.1
X54.25Y-51.9
X54.25Y-53.
X54.25Y-54.1
X55.4Y-51.9
X55.4Y-53.
X55.4Y-54.1
X63.1Y-71.9
X63.1Y-73.
X63.1Y-74.1
X64.25Y-71.9
X64.25Y-73.
X64.25Y-74.1
X65.4Y-71.9
X65.4Y-73.
X65.4Y-74.1
X63.1Y-81.9
X63.1Y-83.
X63.1Y-84.1
X64.25Y-81.9
X64.25Y-83.
X64.25Y-84.1
X65.4Y-81.9
X65.4Y-83.
X65.4Y-84.1
X73.1Y-51.9
X73.1Y-53.
X73.1Y-54.1
X74.25Y-51.9
X74.25Y-53.
X74.25Y-54.1
X75.4Y-51.9
X75.4Y-53.
X75.4Y-54.1
X63.1Y-61.9
X63.1Y-63.
X63.1Y-64.1
X64.25Y-61.9
X64.25Y-63.
X64.25Y-64.1
X65.4Y-61.9
X65.4Y-63.
X65.4Y-64.1
T2
X78.89Y-88.
X81.43Y-88.
X83.97Y-88.
X56.03Y-88.
X58.57Y-88.
X61.11Y-88.
X63.65Y-88.
X66.19Y-88.
X68.73Y-88.
X71.27Y-88.
X73.81Y-88.
X76.35Y-88.
T3
X80.Y-68.
X60.Y-68.
T0
M30
