%TF.GenerationSoftware,KiCad,Pcbnew,5.99.0-unknown-652a59b78~104~ubuntu20.04.1*%
%TF.CreationDate,2020-09-21T15:47:38+02:00*%
%TF.ProjectId,LEDBoard_4x4_16bit,4c454442-6f61-4726-945f-3478345f3136,4.0.0*%
%TF.SameCoordinates,Original*%
%TF.FileFunction,Other,Comment*%
%FSLAX46Y46*%
G04 Gerber Fmt 4.6, Leading zero omitted, Abs format (unit mm)*
G04 Created by KiCad (PCBNEW 5.99.0-unknown-652a59b78~104~ubuntu20.04.1) date 2020-09-21 15:47:38*
%MOMM*%
%LPD*%
G01*
G04 APERTURE LIST*
%ADD10C,0.150000*%
%ADD11C,0.125000*%
G04 APERTURE END LIST*
D10*
X78928571Y-46528571D02*
X78071428Y-46528571D01*
X78500000Y-46528571D02*
X78500000Y-45028571D01*
X78357142Y-45242857D01*
X78214285Y-45385714D01*
X78071428Y-45457142D01*
X79857142Y-45028571D02*
X80000000Y-45028571D01*
X80142857Y-45100000D01*
X80214285Y-45171428D01*
X80285714Y-45314285D01*
X80357142Y-45600000D01*
X80357142Y-45957142D01*
X80285714Y-46242857D01*
X80214285Y-46385714D01*
X80142857Y-46457142D01*
X80000000Y-46528571D01*
X79857142Y-46528571D01*
X79714285Y-46457142D01*
X79642857Y-46385714D01*
X79571428Y-46242857D01*
X79500000Y-45957142D01*
X79500000Y-45600000D01*
X79571428Y-45314285D01*
X79642857Y-45171428D01*
X79714285Y-45100000D01*
X79857142Y-45028571D01*
X81000000Y-46385714D02*
X81071428Y-46457142D01*
X81000000Y-46528571D01*
X80928571Y-46457142D01*
X81000000Y-46385714D01*
X81000000Y-46528571D01*
X82000000Y-45028571D02*
X82142857Y-45028571D01*
X82285714Y-45100000D01*
X82357142Y-45171428D01*
X82428571Y-45314285D01*
X82500000Y-45600000D01*
X82500000Y-45957142D01*
X82428571Y-46242857D01*
X82357142Y-46385714D01*
X82285714Y-46457142D01*
X82142857Y-46528571D01*
X82000000Y-46528571D01*
X81857142Y-46457142D01*
X81785714Y-46385714D01*
X81714285Y-46242857D01*
X81642857Y-45957142D01*
X81642857Y-45600000D01*
X81714285Y-45314285D01*
X81785714Y-45171428D01*
X81857142Y-45100000D01*
X82000000Y-45028571D01*
X83428571Y-45028571D02*
X83571428Y-45028571D01*
X83714285Y-45100000D01*
X83785714Y-45171428D01*
X83857142Y-45314285D01*
X83928571Y-45600000D01*
X83928571Y-45957142D01*
X83857142Y-46242857D01*
X83785714Y-46385714D01*
X83714285Y-46457142D01*
X83571428Y-46528571D01*
X83428571Y-46528571D01*
X83285714Y-46457142D01*
X83214285Y-46385714D01*
X83142857Y-46242857D01*
X83071428Y-45957142D01*
X83071428Y-45600000D01*
X83142857Y-45314285D01*
X83214285Y-45171428D01*
X83285714Y-45100000D01*
X83428571Y-45028571D01*
X84857142Y-45028571D02*
X85000000Y-45028571D01*
X85142857Y-45100000D01*
X85214285Y-45171428D01*
X85285714Y-45314285D01*
X85357142Y-45600000D01*
X85357142Y-45957142D01*
X85285714Y-46242857D01*
X85214285Y-46385714D01*
X85142857Y-46457142D01*
X85000000Y-46528571D01*
X84857142Y-46528571D01*
X84714285Y-46457142D01*
X84642857Y-46385714D01*
X84571428Y-46242857D01*
X84500000Y-45957142D01*
X84500000Y-45600000D01*
X84571428Y-45314285D01*
X84642857Y-45171428D01*
X84714285Y-45100000D01*
X84857142Y-45028571D01*
X86285714Y-45028571D02*
X86428571Y-45028571D01*
X86571428Y-45100000D01*
X86642857Y-45171428D01*
X86714285Y-45314285D01*
X86785714Y-45600000D01*
X86785714Y-45957142D01*
X86714285Y-46242857D01*
X86642857Y-46385714D01*
X86571428Y-46457142D01*
X86428571Y-46528571D01*
X86285714Y-46528571D01*
X86142857Y-46457142D01*
X86071428Y-46385714D01*
X86000000Y-46242857D01*
X85928571Y-45957142D01*
X85928571Y-45600000D01*
X86000000Y-45314285D01*
X86071428Y-45171428D01*
X86142857Y-45100000D01*
X86285714Y-45028571D01*
X88571428Y-46528571D02*
X88571428Y-45528571D01*
X88571428Y-45671428D02*
X88642857Y-45600000D01*
X88785714Y-45528571D01*
X89000000Y-45528571D01*
X89142857Y-45600000D01*
X89214285Y-45742857D01*
X89214285Y-46528571D01*
X89214285Y-45742857D02*
X89285714Y-45600000D01*
X89428571Y-45528571D01*
X89642857Y-45528571D01*
X89785714Y-45600000D01*
X89857142Y-45742857D01*
X89857142Y-46528571D01*
X90571428Y-46528571D02*
X90571428Y-45528571D01*
X90571428Y-45671428D02*
X90642857Y-45600000D01*
X90785714Y-45528571D01*
X91000000Y-45528571D01*
X91142857Y-45600000D01*
X91214285Y-45742857D01*
X91214285Y-46528571D01*
X91214285Y-45742857D02*
X91285714Y-45600000D01*
X91428571Y-45528571D01*
X91642857Y-45528571D01*
X91785714Y-45600000D01*
X91857142Y-45742857D01*
X91857142Y-46528571D01*
X90000000Y-50000000D02*
X90000000Y-46913580D01*
X80000000Y-50000000D02*
X80000000Y-46913580D01*
X90000000Y-47500000D02*
X80000000Y-47500000D01*
X90000000Y-47500000D02*
X80000000Y-47500000D01*
X90000000Y-47500000D02*
X88873497Y-46913580D01*
X90000000Y-47500000D02*
X88873497Y-48086420D01*
X80000000Y-47500000D02*
X81126503Y-48086420D01*
X80000000Y-47500000D02*
X81126503Y-46913580D01*
D11*
X46648809Y-86964285D02*
X46648809Y-86678571D01*
X46648809Y-86821428D02*
X47148809Y-86821428D01*
X47077380Y-86773809D01*
X47029761Y-86726190D01*
X47005952Y-86678571D01*
X46696428Y-87178571D02*
X46672619Y-87202380D01*
X46648809Y-87178571D01*
X46672619Y-87154761D01*
X46696428Y-87178571D01*
X46648809Y-87178571D01*
X47148809Y-87654761D02*
X47148809Y-87416666D01*
X46910714Y-87392857D01*
X46934523Y-87416666D01*
X46958333Y-87464285D01*
X46958333Y-87583333D01*
X46934523Y-87630952D01*
X46910714Y-87654761D01*
X46863095Y-87678571D01*
X46744047Y-87678571D01*
X46696428Y-87654761D01*
X46672619Y-87630952D01*
X46648809Y-87583333D01*
X46648809Y-87464285D01*
X46672619Y-87416666D01*
X46696428Y-87392857D01*
X47148809Y-87988095D02*
X47148809Y-88035714D01*
X47125000Y-88083333D01*
X47101190Y-88107142D01*
X47053571Y-88130952D01*
X46958333Y-88154761D01*
X46839285Y-88154761D01*
X46744047Y-88130952D01*
X46696428Y-88107142D01*
X46672619Y-88083333D01*
X46648809Y-88035714D01*
X46648809Y-87988095D01*
X46672619Y-87940476D01*
X46696428Y-87916666D01*
X46744047Y-87892857D01*
X46839285Y-87869047D01*
X46958333Y-87869047D01*
X47053571Y-87892857D01*
X47101190Y-87916666D01*
X47125000Y-87940476D01*
X47148809Y-87988095D01*
X47148809Y-88464285D02*
X47148809Y-88511904D01*
X47125000Y-88559523D01*
X47101190Y-88583333D01*
X47053571Y-88607142D01*
X46958333Y-88630952D01*
X46839285Y-88630952D01*
X46744047Y-88607142D01*
X46696428Y-88583333D01*
X46672619Y-88559523D01*
X46648809Y-88511904D01*
X46648809Y-88464285D01*
X46672619Y-88416666D01*
X46696428Y-88392857D01*
X46744047Y-88369047D01*
X46839285Y-88345238D01*
X46958333Y-88345238D01*
X47053571Y-88369047D01*
X47101190Y-88392857D01*
X47125000Y-88416666D01*
X47148809Y-88464285D01*
X47148809Y-88940476D02*
X47148809Y-88988095D01*
X47125000Y-89035714D01*
X47101190Y-89059523D01*
X47053571Y-89083333D01*
X46958333Y-89107142D01*
X46839285Y-89107142D01*
X46744047Y-89083333D01*
X46696428Y-89059523D01*
X46672619Y-89035714D01*
X46648809Y-88988095D01*
X46648809Y-88940476D01*
X46672619Y-88892857D01*
X46696428Y-88869047D01*
X46744047Y-88845238D01*
X46839285Y-88821428D01*
X46958333Y-88821428D01*
X47053571Y-88845238D01*
X47101190Y-88869047D01*
X47125000Y-88892857D01*
X47148809Y-88940476D01*
X46648809Y-89702380D02*
X46982142Y-89702380D01*
X46934523Y-89702380D02*
X46958333Y-89726190D01*
X46982142Y-89773809D01*
X46982142Y-89845238D01*
X46958333Y-89892857D01*
X46910714Y-89916666D01*
X46648809Y-89916666D01*
X46910714Y-89916666D02*
X46958333Y-89940476D01*
X46982142Y-89988095D01*
X46982142Y-90059523D01*
X46958333Y-90107142D01*
X46910714Y-90130952D01*
X46648809Y-90130952D01*
X46648809Y-90369047D02*
X46982142Y-90369047D01*
X46934523Y-90369047D02*
X46958333Y-90392857D01*
X46982142Y-90440476D01*
X46982142Y-90511904D01*
X46958333Y-90559523D01*
X46910714Y-90583333D01*
X46648809Y-90583333D01*
X46910714Y-90583333D02*
X46958333Y-90607142D01*
X46982142Y-90654761D01*
X46982142Y-90726190D01*
X46958333Y-90773809D01*
X46910714Y-90797619D01*
X46648809Y-90797619D01*
X50000000Y-88000000D02*
X46913580Y-88000000D01*
X50000000Y-89500000D02*
X46913580Y-89500000D01*
X47500000Y-88000000D02*
X47500000Y-89500000D01*
X47500000Y-88000000D02*
X47500000Y-89500000D01*
X47500000Y-88000000D02*
X46913580Y-89126503D01*
X47500000Y-88000000D02*
X48086420Y-89126503D01*
X47500000Y-89500000D02*
X48086420Y-88373497D01*
X47500000Y-89500000D02*
X46913580Y-88373497D01*
D10*
X63000000Y-42528571D02*
X63928571Y-42528571D01*
X63428571Y-43100000D01*
X63642857Y-43100000D01*
X63785714Y-43171428D01*
X63857142Y-43242857D01*
X63928571Y-43385714D01*
X63928571Y-43742857D01*
X63857142Y-43885714D01*
X63785714Y-43957142D01*
X63642857Y-44028571D01*
X63214285Y-44028571D01*
X63071428Y-43957142D01*
X63000000Y-43885714D01*
X64642857Y-44028571D02*
X64928571Y-44028571D01*
X65071428Y-43957142D01*
X65142857Y-43885714D01*
X65285714Y-43671428D01*
X65357142Y-43385714D01*
X65357142Y-42814285D01*
X65285714Y-42671428D01*
X65214285Y-42600000D01*
X65071428Y-42528571D01*
X64785714Y-42528571D01*
X64642857Y-42600000D01*
X64571428Y-42671428D01*
X64500000Y-42814285D01*
X64500000Y-43171428D01*
X64571428Y-43314285D01*
X64642857Y-43385714D01*
X64785714Y-43457142D01*
X65071428Y-43457142D01*
X65214285Y-43385714D01*
X65285714Y-43314285D01*
X65357142Y-43171428D01*
X66000000Y-43885714D02*
X66071428Y-43957142D01*
X66000000Y-44028571D01*
X65928571Y-43957142D01*
X66000000Y-43885714D01*
X66000000Y-44028571D01*
X67428571Y-42528571D02*
X66714285Y-42528571D01*
X66642857Y-43242857D01*
X66714285Y-43171428D01*
X66857142Y-43100000D01*
X67214285Y-43100000D01*
X67357142Y-43171428D01*
X67428571Y-43242857D01*
X67500000Y-43385714D01*
X67500000Y-43742857D01*
X67428571Y-43885714D01*
X67357142Y-43957142D01*
X67214285Y-44028571D01*
X66857142Y-44028571D01*
X66714285Y-43957142D01*
X66642857Y-43885714D01*
X68428571Y-42528571D02*
X68571428Y-42528571D01*
X68714285Y-42600000D01*
X68785714Y-42671428D01*
X68857142Y-42814285D01*
X68928571Y-43100000D01*
X68928571Y-43457142D01*
X68857142Y-43742857D01*
X68785714Y-43885714D01*
X68714285Y-43957142D01*
X68571428Y-44028571D01*
X68428571Y-44028571D01*
X68285714Y-43957142D01*
X68214285Y-43885714D01*
X68142857Y-43742857D01*
X68071428Y-43457142D01*
X68071428Y-43100000D01*
X68142857Y-42814285D01*
X68214285Y-42671428D01*
X68285714Y-42600000D01*
X68428571Y-42528571D01*
X69857142Y-42528571D02*
X70000000Y-42528571D01*
X70142857Y-42600000D01*
X70214285Y-42671428D01*
X70285714Y-42814285D01*
X70357142Y-43100000D01*
X70357142Y-43457142D01*
X70285714Y-43742857D01*
X70214285Y-43885714D01*
X70142857Y-43957142D01*
X70000000Y-44028571D01*
X69857142Y-44028571D01*
X69714285Y-43957142D01*
X69642857Y-43885714D01*
X69571428Y-43742857D01*
X69500000Y-43457142D01*
X69500000Y-43100000D01*
X69571428Y-42814285D01*
X69642857Y-42671428D01*
X69714285Y-42600000D01*
X69857142Y-42528571D01*
X71285714Y-42528571D02*
X71428571Y-42528571D01*
X71571428Y-42600000D01*
X71642857Y-42671428D01*
X71714285Y-42814285D01*
X71785714Y-43100000D01*
X71785714Y-43457142D01*
X71714285Y-43742857D01*
X71642857Y-43885714D01*
X71571428Y-43957142D01*
X71428571Y-44028571D01*
X71285714Y-44028571D01*
X71142857Y-43957142D01*
X71071428Y-43885714D01*
X71000000Y-43742857D01*
X70928571Y-43457142D01*
X70928571Y-43100000D01*
X71000000Y-42814285D01*
X71071428Y-42671428D01*
X71142857Y-42600000D01*
X71285714Y-42528571D01*
X73571428Y-44028571D02*
X73571428Y-43028571D01*
X73571428Y-43171428D02*
X73642857Y-43100000D01*
X73785714Y-43028571D01*
X74000000Y-43028571D01*
X74142857Y-43100000D01*
X74214285Y-43242857D01*
X74214285Y-44028571D01*
X74214285Y-43242857D02*
X74285714Y-43100000D01*
X74428571Y-43028571D01*
X74642857Y-43028571D01*
X74785714Y-43100000D01*
X74857142Y-43242857D01*
X74857142Y-44028571D01*
X75571428Y-44028571D02*
X75571428Y-43028571D01*
X75571428Y-43171428D02*
X75642857Y-43100000D01*
X75785714Y-43028571D01*
X76000000Y-43028571D01*
X76142857Y-43100000D01*
X76214285Y-43242857D01*
X76214285Y-44028571D01*
X76214285Y-43242857D02*
X76285714Y-43100000D01*
X76428571Y-43028571D01*
X76642857Y-43028571D01*
X76785714Y-43100000D01*
X76857142Y-43242857D01*
X76857142Y-44028571D01*
X89750000Y-50000000D02*
X89750000Y-44413580D01*
X50250000Y-50000000D02*
X50250000Y-44413580D01*
X89750000Y-45000000D02*
X50250000Y-45000000D01*
X89750000Y-45000000D02*
X50250000Y-45000000D01*
X89750000Y-45000000D02*
X88623497Y-44413580D01*
X89750000Y-45000000D02*
X88623497Y-45586420D01*
X50250000Y-45000000D02*
X51376503Y-45586420D01*
X50250000Y-45000000D02*
X51376503Y-44413580D01*
X53071428Y-95971428D02*
X53142857Y-95900000D01*
X53285714Y-95828571D01*
X53642857Y-95828571D01*
X53785714Y-95900000D01*
X53857142Y-95971428D01*
X53928571Y-96114285D01*
X53928571Y-96257142D01*
X53857142Y-96471428D01*
X53000000Y-97328571D01*
X53928571Y-97328571D01*
X54857142Y-95828571D02*
X55000000Y-95828571D01*
X55142857Y-95900000D01*
X55214285Y-95971428D01*
X55285714Y-96114285D01*
X55357142Y-96400000D01*
X55357142Y-96757142D01*
X55285714Y-97042857D01*
X55214285Y-97185714D01*
X55142857Y-97257142D01*
X55000000Y-97328571D01*
X54857142Y-97328571D01*
X54714285Y-97257142D01*
X54642857Y-97185714D01*
X54571428Y-97042857D01*
X54500000Y-96757142D01*
X54500000Y-96400000D01*
X54571428Y-96114285D01*
X54642857Y-95971428D01*
X54714285Y-95900000D01*
X54857142Y-95828571D01*
X56000000Y-97185714D02*
X56071428Y-97257142D01*
X56000000Y-97328571D01*
X55928571Y-97257142D01*
X56000000Y-97185714D01*
X56000000Y-97328571D01*
X57000000Y-95828571D02*
X57142857Y-95828571D01*
X57285714Y-95900000D01*
X57357142Y-95971428D01*
X57428571Y-96114285D01*
X57500000Y-96400000D01*
X57500000Y-96757142D01*
X57428571Y-97042857D01*
X57357142Y-97185714D01*
X57285714Y-97257142D01*
X57142857Y-97328571D01*
X57000000Y-97328571D01*
X56857142Y-97257142D01*
X56785714Y-97185714D01*
X56714285Y-97042857D01*
X56642857Y-96757142D01*
X56642857Y-96400000D01*
X56714285Y-96114285D01*
X56785714Y-95971428D01*
X56857142Y-95900000D01*
X57000000Y-95828571D01*
X58428571Y-95828571D02*
X58571428Y-95828571D01*
X58714285Y-95900000D01*
X58785714Y-95971428D01*
X58857142Y-96114285D01*
X58928571Y-96400000D01*
X58928571Y-96757142D01*
X58857142Y-97042857D01*
X58785714Y-97185714D01*
X58714285Y-97257142D01*
X58571428Y-97328571D01*
X58428571Y-97328571D01*
X58285714Y-97257142D01*
X58214285Y-97185714D01*
X58142857Y-97042857D01*
X58071428Y-96757142D01*
X58071428Y-96400000D01*
X58142857Y-96114285D01*
X58214285Y-95971428D01*
X58285714Y-95900000D01*
X58428571Y-95828571D01*
X59857142Y-95828571D02*
X60000000Y-95828571D01*
X60142857Y-95900000D01*
X60214285Y-95971428D01*
X60285714Y-96114285D01*
X60357142Y-96400000D01*
X60357142Y-96757142D01*
X60285714Y-97042857D01*
X60214285Y-97185714D01*
X60142857Y-97257142D01*
X60000000Y-97328571D01*
X59857142Y-97328571D01*
X59714285Y-97257142D01*
X59642857Y-97185714D01*
X59571428Y-97042857D01*
X59500000Y-96757142D01*
X59500000Y-96400000D01*
X59571428Y-96114285D01*
X59642857Y-95971428D01*
X59714285Y-95900000D01*
X59857142Y-95828571D01*
X61285714Y-95828571D02*
X61428571Y-95828571D01*
X61571428Y-95900000D01*
X61642857Y-95971428D01*
X61714285Y-96114285D01*
X61785714Y-96400000D01*
X61785714Y-96757142D01*
X61714285Y-97042857D01*
X61642857Y-97185714D01*
X61571428Y-97257142D01*
X61428571Y-97328571D01*
X61285714Y-97328571D01*
X61142857Y-97257142D01*
X61071428Y-97185714D01*
X61000000Y-97042857D01*
X60928571Y-96757142D01*
X60928571Y-96400000D01*
X61000000Y-96114285D01*
X61071428Y-95971428D01*
X61142857Y-95900000D01*
X61285714Y-95828571D01*
X63571428Y-97328571D02*
X63571428Y-96328571D01*
X63571428Y-96471428D02*
X63642857Y-96400000D01*
X63785714Y-96328571D01*
X63999999Y-96328571D01*
X64142857Y-96400000D01*
X64214285Y-96542857D01*
X64214285Y-97328571D01*
X64214285Y-96542857D02*
X64285714Y-96400000D01*
X64428571Y-96328571D01*
X64642857Y-96328571D01*
X64785714Y-96400000D01*
X64857142Y-96542857D01*
X64857142Y-97328571D01*
X65571428Y-97328571D02*
X65571428Y-96328571D01*
X65571428Y-96471428D02*
X65642857Y-96400000D01*
X65785714Y-96328571D01*
X65999999Y-96328571D01*
X66142857Y-96400000D01*
X66214285Y-96542857D01*
X66214285Y-97328571D01*
X66214285Y-96542857D02*
X66285714Y-96400000D01*
X66428571Y-96328571D01*
X66642857Y-96328571D01*
X66785714Y-96400000D01*
X66857142Y-96542857D01*
X66857142Y-97328571D01*
X70000000Y-90000000D02*
X70000000Y-95586420D01*
X50000000Y-90000000D02*
X50000000Y-95586420D01*
X70000000Y-95000000D02*
X50000000Y-95000000D01*
X70000000Y-95000000D02*
X50000000Y-95000000D01*
X70000000Y-95000000D02*
X68873497Y-94413580D01*
X70000000Y-95000000D02*
X68873497Y-95586420D01*
X50000000Y-95000000D02*
X51126503Y-95586420D01*
X50000000Y-95000000D02*
X51126503Y-94413580D01*
X81500000Y-95828571D02*
X81214285Y-95828571D01*
X81071428Y-95900000D01*
X81000000Y-95971428D01*
X80857142Y-96185714D01*
X80785714Y-96471428D01*
X80785714Y-97042857D01*
X80857142Y-97185714D01*
X80928571Y-97257142D01*
X81071428Y-97328571D01*
X81357142Y-97328571D01*
X81500000Y-97257142D01*
X81571428Y-97185714D01*
X81642857Y-97042857D01*
X81642857Y-96685714D01*
X81571428Y-96542857D01*
X81500000Y-96471428D01*
X81357142Y-96400000D01*
X81071428Y-96400000D01*
X80928571Y-96471428D01*
X80857142Y-96542857D01*
X80785714Y-96685714D01*
X82285714Y-97185714D02*
X82357142Y-97257142D01*
X82285714Y-97328571D01*
X82214285Y-97257142D01*
X82285714Y-97185714D01*
X82285714Y-97328571D01*
X83285714Y-95828571D02*
X83428571Y-95828571D01*
X83571428Y-95900000D01*
X83642857Y-95971428D01*
X83714285Y-96114285D01*
X83785714Y-96400000D01*
X83785714Y-96757142D01*
X83714285Y-97042857D01*
X83642857Y-97185714D01*
X83571428Y-97257142D01*
X83428571Y-97328571D01*
X83285714Y-97328571D01*
X83142857Y-97257142D01*
X83071428Y-97185714D01*
X83000000Y-97042857D01*
X82928571Y-96757142D01*
X82928571Y-96400000D01*
X83000000Y-96114285D01*
X83071428Y-95971428D01*
X83142857Y-95900000D01*
X83285714Y-95828571D01*
X84714285Y-95828571D02*
X84857142Y-95828571D01*
X85000000Y-95900000D01*
X85071428Y-95971428D01*
X85142857Y-96114285D01*
X85214285Y-96400000D01*
X85214285Y-96757142D01*
X85142857Y-97042857D01*
X85071428Y-97185714D01*
X85000000Y-97257142D01*
X84857142Y-97328571D01*
X84714285Y-97328571D01*
X84571428Y-97257142D01*
X84500000Y-97185714D01*
X84428571Y-97042857D01*
X84357142Y-96757142D01*
X84357142Y-96400000D01*
X84428571Y-96114285D01*
X84500000Y-95971428D01*
X84571428Y-95900000D01*
X84714285Y-95828571D01*
X86142857Y-95828571D02*
X86285714Y-95828571D01*
X86428571Y-95900000D01*
X86500000Y-95971428D01*
X86571428Y-96114285D01*
X86642857Y-96400000D01*
X86642857Y-96757142D01*
X86571428Y-97042857D01*
X86500000Y-97185714D01*
X86428571Y-97257142D01*
X86285714Y-97328571D01*
X86142857Y-97328571D01*
X86000000Y-97257142D01*
X85928571Y-97185714D01*
X85857142Y-97042857D01*
X85785714Y-96757142D01*
X85785714Y-96400000D01*
X85857142Y-96114285D01*
X85928571Y-95971428D01*
X86000000Y-95900000D01*
X86142857Y-95828571D01*
X87571428Y-95828571D02*
X87714285Y-95828571D01*
X87857142Y-95900000D01*
X87928571Y-95971428D01*
X88000000Y-96114285D01*
X88071428Y-96400000D01*
X88071428Y-96757142D01*
X88000000Y-97042857D01*
X87928571Y-97185714D01*
X87857142Y-97257142D01*
X87714285Y-97328571D01*
X87571428Y-97328571D01*
X87428571Y-97257142D01*
X87357142Y-97185714D01*
X87285714Y-97042857D01*
X87214285Y-96757142D01*
X87214285Y-96400000D01*
X87285714Y-96114285D01*
X87357142Y-95971428D01*
X87428571Y-95900000D01*
X87571428Y-95828571D01*
X89857142Y-97328571D02*
X89857142Y-96328571D01*
X89857142Y-96471428D02*
X89928571Y-96400000D01*
X90071428Y-96328571D01*
X90285714Y-96328571D01*
X90428571Y-96400000D01*
X90500000Y-96542857D01*
X90500000Y-97328571D01*
X90500000Y-96542857D02*
X90571428Y-96400000D01*
X90714285Y-96328571D01*
X90928571Y-96328571D01*
X91071428Y-96400000D01*
X91142857Y-96542857D01*
X91142857Y-97328571D01*
X91857142Y-97328571D02*
X91857142Y-96328571D01*
X91857142Y-96471428D02*
X91928571Y-96400000D01*
X92071428Y-96328571D01*
X92285714Y-96328571D01*
X92428571Y-96400000D01*
X92500000Y-96542857D01*
X92500000Y-97328571D01*
X92500000Y-96542857D02*
X92571428Y-96400000D01*
X92714285Y-96328571D01*
X92928571Y-96328571D01*
X93071428Y-96400000D01*
X93142857Y-96542857D01*
X93142857Y-97328571D01*
X90000000Y-90000000D02*
X90000000Y-95586420D01*
X84000000Y-90000000D02*
X84000000Y-95586420D01*
X90000000Y-95000000D02*
X84000000Y-95000000D01*
X90000000Y-95000000D02*
X84000000Y-95000000D01*
X90000000Y-95000000D02*
X88873497Y-94413580D01*
X90000000Y-95000000D02*
X88873497Y-95586420D01*
X84000000Y-95000000D02*
X85126503Y-95586420D01*
X84000000Y-95000000D02*
X85126503Y-94413580D01*
X38671428Y-63785714D02*
X37671428Y-63785714D01*
X39242857Y-63428571D02*
X38171428Y-63071428D01*
X38171428Y-64000000D01*
X39171428Y-64857142D02*
X39171428Y-65000000D01*
X39100000Y-65142857D01*
X39028571Y-65214285D01*
X38885714Y-65285714D01*
X38600000Y-65357142D01*
X38242857Y-65357142D01*
X37957142Y-65285714D01*
X37814285Y-65214285D01*
X37742857Y-65142857D01*
X37671428Y-65000000D01*
X37671428Y-64857142D01*
X37742857Y-64714285D01*
X37814285Y-64642857D01*
X37957142Y-64571428D01*
X38242857Y-64500000D01*
X38600000Y-64500000D01*
X38885714Y-64571428D01*
X39028571Y-64642857D01*
X39100000Y-64714285D01*
X39171428Y-64857142D01*
X37814285Y-66000000D02*
X37742857Y-66071428D01*
X37671428Y-66000000D01*
X37742857Y-65928571D01*
X37814285Y-66000000D01*
X37671428Y-66000000D01*
X39171428Y-67000000D02*
X39171428Y-67142857D01*
X39100000Y-67285714D01*
X39028571Y-67357142D01*
X38885714Y-67428571D01*
X38600000Y-67500000D01*
X38242857Y-67500000D01*
X37957142Y-67428571D01*
X37814285Y-67357142D01*
X37742857Y-67285714D01*
X37671428Y-67142857D01*
X37671428Y-67000000D01*
X37742857Y-66857142D01*
X37814285Y-66785714D01*
X37957142Y-66714285D01*
X38242857Y-66642857D01*
X38600000Y-66642857D01*
X38885714Y-66714285D01*
X39028571Y-66785714D01*
X39100000Y-66857142D01*
X39171428Y-67000000D01*
X39171428Y-68428571D02*
X39171428Y-68571428D01*
X39100000Y-68714285D01*
X39028571Y-68785714D01*
X38885714Y-68857142D01*
X38600000Y-68928571D01*
X38242857Y-68928571D01*
X37957142Y-68857142D01*
X37814285Y-68785714D01*
X37742857Y-68714285D01*
X37671428Y-68571428D01*
X37671428Y-68428571D01*
X37742857Y-68285714D01*
X37814285Y-68214285D01*
X37957142Y-68142857D01*
X38242857Y-68071428D01*
X38600000Y-68071428D01*
X38885714Y-68142857D01*
X39028571Y-68214285D01*
X39100000Y-68285714D01*
X39171428Y-68428571D01*
X39171428Y-69857142D02*
X39171428Y-70000000D01*
X39100000Y-70142857D01*
X39028571Y-70214285D01*
X38885714Y-70285714D01*
X38600000Y-70357142D01*
X38242857Y-70357142D01*
X37957142Y-70285714D01*
X37814285Y-70214285D01*
X37742857Y-70142857D01*
X37671428Y-70000000D01*
X37671428Y-69857142D01*
X37742857Y-69714285D01*
X37814285Y-69642857D01*
X37957142Y-69571428D01*
X38242857Y-69500000D01*
X38600000Y-69500000D01*
X38885714Y-69571428D01*
X39028571Y-69642857D01*
X39100000Y-69714285D01*
X39171428Y-69857142D01*
X39171428Y-71285714D02*
X39171428Y-71428571D01*
X39100000Y-71571428D01*
X39028571Y-71642857D01*
X38885714Y-71714285D01*
X38600000Y-71785714D01*
X38242857Y-71785714D01*
X37957142Y-71714285D01*
X37814285Y-71642857D01*
X37742857Y-71571428D01*
X37671428Y-71428571D01*
X37671428Y-71285714D01*
X37742857Y-71142857D01*
X37814285Y-71071428D01*
X37957142Y-71000000D01*
X38242857Y-70928571D01*
X38600000Y-70928571D01*
X38885714Y-71000000D01*
X39028571Y-71071428D01*
X39100000Y-71142857D01*
X39171428Y-71285714D01*
X37671428Y-73571428D02*
X38671428Y-73571428D01*
X38528571Y-73571428D02*
X38600000Y-73642857D01*
X38671428Y-73785714D01*
X38671428Y-74000000D01*
X38600000Y-74142857D01*
X38457142Y-74214285D01*
X37671428Y-74214285D01*
X38457142Y-74214285D02*
X38600000Y-74285714D01*
X38671428Y-74428571D01*
X38671428Y-74642857D01*
X38600000Y-74785714D01*
X38457142Y-74857142D01*
X37671428Y-74857142D01*
X37671428Y-75571428D02*
X38671428Y-75571428D01*
X38528571Y-75571428D02*
X38600000Y-75642857D01*
X38671428Y-75785714D01*
X38671428Y-76000000D01*
X38600000Y-76142857D01*
X38457142Y-76214285D01*
X37671428Y-76214285D01*
X38457142Y-76214285D02*
X38600000Y-76285714D01*
X38671428Y-76428571D01*
X38671428Y-76642857D01*
X38600000Y-76785714D01*
X38457142Y-76857142D01*
X37671428Y-76857142D01*
X50000000Y-50000000D02*
X39413580Y-50000000D01*
X50000000Y-90000000D02*
X39413580Y-90000000D01*
X40000000Y-50000000D02*
X40000000Y-90000000D01*
X40000000Y-50000000D02*
X40000000Y-90000000D01*
X40000000Y-50000000D02*
X39413580Y-51126503D01*
X40000000Y-50000000D02*
X40586420Y-51126503D01*
X40000000Y-90000000D02*
X40586420Y-88873497D01*
X40000000Y-90000000D02*
X39413580Y-88873497D01*
X41671428Y-62750000D02*
X41671428Y-63678571D01*
X41100000Y-63178571D01*
X41100000Y-63392857D01*
X41028571Y-63535714D01*
X40957142Y-63607142D01*
X40814285Y-63678571D01*
X40457142Y-63678571D01*
X40314285Y-63607142D01*
X40242857Y-63535714D01*
X40171428Y-63392857D01*
X40171428Y-62964285D01*
X40242857Y-62821428D01*
X40314285Y-62750000D01*
X40171428Y-64392857D02*
X40171428Y-64678571D01*
X40242857Y-64821428D01*
X40314285Y-64892857D01*
X40528571Y-65035714D01*
X40814285Y-65107142D01*
X41385714Y-65107142D01*
X41528571Y-65035714D01*
X41600000Y-64964285D01*
X41671428Y-64821428D01*
X41671428Y-64535714D01*
X41600000Y-64392857D01*
X41528571Y-64321428D01*
X41385714Y-64250000D01*
X41028571Y-64250000D01*
X40885714Y-64321428D01*
X40814285Y-64392857D01*
X40742857Y-64535714D01*
X40742857Y-64821428D01*
X40814285Y-64964285D01*
X40885714Y-65035714D01*
X41028571Y-65107142D01*
X40314285Y-65750000D02*
X40242857Y-65821428D01*
X40171428Y-65750000D01*
X40242857Y-65678571D01*
X40314285Y-65750000D01*
X40171428Y-65750000D01*
X41671428Y-67178571D02*
X41671428Y-66464285D01*
X40957142Y-66392857D01*
X41028571Y-66464285D01*
X41100000Y-66607142D01*
X41100000Y-66964285D01*
X41028571Y-67107142D01*
X40957142Y-67178571D01*
X40814285Y-67250000D01*
X40457142Y-67250000D01*
X40314285Y-67178571D01*
X40242857Y-67107142D01*
X40171428Y-66964285D01*
X40171428Y-66607142D01*
X40242857Y-66464285D01*
X40314285Y-66392857D01*
X41671428Y-68178571D02*
X41671428Y-68321428D01*
X41600000Y-68464285D01*
X41528571Y-68535714D01*
X41385714Y-68607142D01*
X41100000Y-68678571D01*
X40742857Y-68678571D01*
X40457142Y-68607142D01*
X40314285Y-68535714D01*
X40242857Y-68464285D01*
X40171428Y-68321428D01*
X40171428Y-68178571D01*
X40242857Y-68035714D01*
X40314285Y-67964285D01*
X40457142Y-67892857D01*
X40742857Y-67821428D01*
X41100000Y-67821428D01*
X41385714Y-67892857D01*
X41528571Y-67964285D01*
X41600000Y-68035714D01*
X41671428Y-68178571D01*
X41671428Y-69607142D02*
X41671428Y-69750000D01*
X41600000Y-69892857D01*
X41528571Y-69964285D01*
X41385714Y-70035714D01*
X41100000Y-70107142D01*
X40742857Y-70107142D01*
X40457142Y-70035714D01*
X40314285Y-69964285D01*
X40242857Y-69892857D01*
X40171428Y-69750000D01*
X40171428Y-69607142D01*
X40242857Y-69464285D01*
X40314285Y-69392857D01*
X40457142Y-69321428D01*
X40742857Y-69250000D01*
X41100000Y-69250000D01*
X41385714Y-69321428D01*
X41528571Y-69392857D01*
X41600000Y-69464285D01*
X41671428Y-69607142D01*
X41671428Y-71035714D02*
X41671428Y-71178571D01*
X41600000Y-71321428D01*
X41528571Y-71392857D01*
X41385714Y-71464285D01*
X41100000Y-71535714D01*
X40742857Y-71535714D01*
X40457142Y-71464285D01*
X40314285Y-71392857D01*
X40242857Y-71321428D01*
X40171428Y-71178571D01*
X40171428Y-71035714D01*
X40242857Y-70892857D01*
X40314285Y-70821428D01*
X40457142Y-70750000D01*
X40742857Y-70678571D01*
X41100000Y-70678571D01*
X41385714Y-70750000D01*
X41528571Y-70821428D01*
X41600000Y-70892857D01*
X41671428Y-71035714D01*
X40171428Y-73321428D02*
X41171428Y-73321428D01*
X41028571Y-73321428D02*
X41100000Y-73392857D01*
X41171428Y-73535714D01*
X41171428Y-73750000D01*
X41100000Y-73892857D01*
X40957142Y-73964285D01*
X40171428Y-73964285D01*
X40957142Y-73964285D02*
X41100000Y-74035714D01*
X41171428Y-74178571D01*
X41171428Y-74392857D01*
X41100000Y-74535714D01*
X40957142Y-74607142D01*
X40171428Y-74607142D01*
X40171428Y-75321428D02*
X41171428Y-75321428D01*
X41028571Y-75321428D02*
X41100000Y-75392857D01*
X41171428Y-75535714D01*
X41171428Y-75750000D01*
X41100000Y-75892857D01*
X40957142Y-75964285D01*
X40171428Y-75964285D01*
X40957142Y-75964285D02*
X41100000Y-76035714D01*
X41171428Y-76178571D01*
X41171428Y-76392857D01*
X41100000Y-76535714D01*
X40957142Y-76607142D01*
X40171428Y-76607142D01*
X50250000Y-50000000D02*
X41913580Y-50000000D01*
X50250000Y-89500000D02*
X41913580Y-89500000D01*
X42500000Y-50000000D02*
X42500000Y-89500000D01*
X42500000Y-50000000D02*
X42500000Y-89500000D01*
X42500000Y-50000000D02*
X41913580Y-51126503D01*
X42500000Y-50000000D02*
X43086420Y-51126503D01*
X42500000Y-89500000D02*
X43086420Y-88373497D01*
X42500000Y-89500000D02*
X41913580Y-88373497D01*
X63071428Y-45171428D02*
X63142857Y-45100000D01*
X63285714Y-45028571D01*
X63642857Y-45028571D01*
X63785714Y-45100000D01*
X63857142Y-45171428D01*
X63928571Y-45314285D01*
X63928571Y-45457142D01*
X63857142Y-45671428D01*
X63000000Y-46528571D01*
X63928571Y-46528571D01*
X64857142Y-45028571D02*
X65000000Y-45028571D01*
X65142857Y-45100000D01*
X65214285Y-45171428D01*
X65285714Y-45314285D01*
X65357142Y-45600000D01*
X65357142Y-45957142D01*
X65285714Y-46242857D01*
X65214285Y-46385714D01*
X65142857Y-46457142D01*
X65000000Y-46528571D01*
X64857142Y-46528571D01*
X64714285Y-46457142D01*
X64642857Y-46385714D01*
X64571428Y-46242857D01*
X64500000Y-45957142D01*
X64500000Y-45600000D01*
X64571428Y-45314285D01*
X64642857Y-45171428D01*
X64714285Y-45100000D01*
X64857142Y-45028571D01*
X66000000Y-46385714D02*
X66071428Y-46457142D01*
X66000000Y-46528571D01*
X65928571Y-46457142D01*
X66000000Y-46385714D01*
X66000000Y-46528571D01*
X67000000Y-45028571D02*
X67142857Y-45028571D01*
X67285714Y-45100000D01*
X67357142Y-45171428D01*
X67428571Y-45314285D01*
X67500000Y-45600000D01*
X67500000Y-45957142D01*
X67428571Y-46242857D01*
X67357142Y-46385714D01*
X67285714Y-46457142D01*
X67142857Y-46528571D01*
X67000000Y-46528571D01*
X66857142Y-46457142D01*
X66785714Y-46385714D01*
X66714285Y-46242857D01*
X66642857Y-45957142D01*
X66642857Y-45600000D01*
X66714285Y-45314285D01*
X66785714Y-45171428D01*
X66857142Y-45100000D01*
X67000000Y-45028571D01*
X68428571Y-45028571D02*
X68571428Y-45028571D01*
X68714285Y-45100000D01*
X68785714Y-45171428D01*
X68857142Y-45314285D01*
X68928571Y-45600000D01*
X68928571Y-45957142D01*
X68857142Y-46242857D01*
X68785714Y-46385714D01*
X68714285Y-46457142D01*
X68571428Y-46528571D01*
X68428571Y-46528571D01*
X68285714Y-46457142D01*
X68214285Y-46385714D01*
X68142857Y-46242857D01*
X68071428Y-45957142D01*
X68071428Y-45600000D01*
X68142857Y-45314285D01*
X68214285Y-45171428D01*
X68285714Y-45100000D01*
X68428571Y-45028571D01*
X69857142Y-45028571D02*
X70000000Y-45028571D01*
X70142857Y-45100000D01*
X70214285Y-45171428D01*
X70285714Y-45314285D01*
X70357142Y-45600000D01*
X70357142Y-45957142D01*
X70285714Y-46242857D01*
X70214285Y-46385714D01*
X70142857Y-46457142D01*
X70000000Y-46528571D01*
X69857142Y-46528571D01*
X69714285Y-46457142D01*
X69642857Y-46385714D01*
X69571428Y-46242857D01*
X69500000Y-45957142D01*
X69500000Y-45600000D01*
X69571428Y-45314285D01*
X69642857Y-45171428D01*
X69714285Y-45100000D01*
X69857142Y-45028571D01*
X71285714Y-45028571D02*
X71428571Y-45028571D01*
X71571428Y-45100000D01*
X71642857Y-45171428D01*
X71714285Y-45314285D01*
X71785714Y-45600000D01*
X71785714Y-45957142D01*
X71714285Y-46242857D01*
X71642857Y-46385714D01*
X71571428Y-46457142D01*
X71428571Y-46528571D01*
X71285714Y-46528571D01*
X71142857Y-46457142D01*
X71071428Y-46385714D01*
X71000000Y-46242857D01*
X70928571Y-45957142D01*
X70928571Y-45600000D01*
X71000000Y-45314285D01*
X71071428Y-45171428D01*
X71142857Y-45100000D01*
X71285714Y-45028571D01*
X73571428Y-46528571D02*
X73571428Y-45528571D01*
X73571428Y-45671428D02*
X73642857Y-45600000D01*
X73785714Y-45528571D01*
X74000000Y-45528571D01*
X74142857Y-45600000D01*
X74214285Y-45742857D01*
X74214285Y-46528571D01*
X74214285Y-45742857D02*
X74285714Y-45600000D01*
X74428571Y-45528571D01*
X74642857Y-45528571D01*
X74785714Y-45600000D01*
X74857142Y-45742857D01*
X74857142Y-46528571D01*
X75571428Y-46528571D02*
X75571428Y-45528571D01*
X75571428Y-45671428D02*
X75642857Y-45600000D01*
X75785714Y-45528571D01*
X76000000Y-45528571D01*
X76142857Y-45600000D01*
X76214285Y-45742857D01*
X76214285Y-46528571D01*
X76214285Y-45742857D02*
X76285714Y-45600000D01*
X76428571Y-45528571D01*
X76642857Y-45528571D01*
X76785714Y-45600000D01*
X76857142Y-45742857D01*
X76857142Y-46528571D01*
X80000000Y-50000000D02*
X80000000Y-46913580D01*
X60000000Y-50000000D02*
X60000000Y-46913580D01*
X80000000Y-47500000D02*
X60000000Y-47500000D01*
X80000000Y-47500000D02*
X60000000Y-47500000D01*
X80000000Y-47500000D02*
X78873497Y-46913580D01*
X80000000Y-47500000D02*
X78873497Y-48086420D01*
X60000000Y-47500000D02*
X61126503Y-48086420D01*
X60000000Y-47500000D02*
X61126503Y-46913580D01*
X45171428Y-52928571D02*
X45171428Y-52071428D01*
X45171428Y-52500000D02*
X46671428Y-52500000D01*
X46457142Y-52357142D01*
X46314285Y-52214285D01*
X46242857Y-52071428D01*
X46028571Y-53785714D02*
X46100000Y-53642857D01*
X46171428Y-53571428D01*
X46314285Y-53500000D01*
X46385714Y-53500000D01*
X46528571Y-53571428D01*
X46600000Y-53642857D01*
X46671428Y-53785714D01*
X46671428Y-54071428D01*
X46600000Y-54214285D01*
X46528571Y-54285714D01*
X46385714Y-54357142D01*
X46314285Y-54357142D01*
X46171428Y-54285714D01*
X46100000Y-54214285D01*
X46028571Y-54071428D01*
X46028571Y-53785714D01*
X45957142Y-53642857D01*
X45885714Y-53571428D01*
X45742857Y-53500000D01*
X45457142Y-53500000D01*
X45314285Y-53571428D01*
X45242857Y-53642857D01*
X45171428Y-53785714D01*
X45171428Y-54071428D01*
X45242857Y-54214285D01*
X45314285Y-54285714D01*
X45457142Y-54357142D01*
X45742857Y-54357142D01*
X45885714Y-54285714D01*
X45957142Y-54214285D01*
X46028571Y-54071428D01*
X45314285Y-55000000D02*
X45242857Y-55071428D01*
X45171428Y-55000000D01*
X45242857Y-54928571D01*
X45314285Y-55000000D01*
X45171428Y-55000000D01*
X46671428Y-56000000D02*
X46671428Y-56142857D01*
X46600000Y-56285714D01*
X46528571Y-56357142D01*
X46385714Y-56428571D01*
X46100000Y-56500000D01*
X45742857Y-56500000D01*
X45457142Y-56428571D01*
X45314285Y-56357142D01*
X45242857Y-56285714D01*
X45171428Y-56142857D01*
X45171428Y-56000000D01*
X45242857Y-55857142D01*
X45314285Y-55785714D01*
X45457142Y-55714285D01*
X45742857Y-55642857D01*
X46100000Y-55642857D01*
X46385714Y-55714285D01*
X46528571Y-55785714D01*
X46600000Y-55857142D01*
X46671428Y-56000000D01*
X46671428Y-57428571D02*
X46671428Y-57571428D01*
X46600000Y-57714285D01*
X46528571Y-57785714D01*
X46385714Y-57857142D01*
X46100000Y-57928571D01*
X45742857Y-57928571D01*
X45457142Y-57857142D01*
X45314285Y-57785714D01*
X45242857Y-57714285D01*
X45171428Y-57571428D01*
X45171428Y-57428571D01*
X45242857Y-57285714D01*
X45314285Y-57214285D01*
X45457142Y-57142857D01*
X45742857Y-57071428D01*
X46100000Y-57071428D01*
X46385714Y-57142857D01*
X46528571Y-57214285D01*
X46600000Y-57285714D01*
X46671428Y-57428571D01*
X46671428Y-58857142D02*
X46671428Y-59000000D01*
X46600000Y-59142857D01*
X46528571Y-59214285D01*
X46385714Y-59285714D01*
X46100000Y-59357142D01*
X45742857Y-59357142D01*
X45457142Y-59285714D01*
X45314285Y-59214285D01*
X45242857Y-59142857D01*
X45171428Y-59000000D01*
X45171428Y-58857142D01*
X45242857Y-58714285D01*
X45314285Y-58642857D01*
X45457142Y-58571428D01*
X45742857Y-58500000D01*
X46100000Y-58500000D01*
X46385714Y-58571428D01*
X46528571Y-58642857D01*
X46600000Y-58714285D01*
X46671428Y-58857142D01*
X46671428Y-60285714D02*
X46671428Y-60428571D01*
X46600000Y-60571428D01*
X46528571Y-60642857D01*
X46385714Y-60714285D01*
X46100000Y-60785714D01*
X45742857Y-60785714D01*
X45457142Y-60714285D01*
X45314285Y-60642857D01*
X45242857Y-60571428D01*
X45171428Y-60428571D01*
X45171428Y-60285714D01*
X45242857Y-60142857D01*
X45314285Y-60071428D01*
X45457142Y-60000000D01*
X45742857Y-59928571D01*
X46100000Y-59928571D01*
X46385714Y-60000000D01*
X46528571Y-60071428D01*
X46600000Y-60142857D01*
X46671428Y-60285714D01*
X45171428Y-62571428D02*
X46171428Y-62571428D01*
X46028571Y-62571428D02*
X46100000Y-62642857D01*
X46171428Y-62785714D01*
X46171428Y-62999999D01*
X46100000Y-63142857D01*
X45957142Y-63214285D01*
X45171428Y-63214285D01*
X45957142Y-63214285D02*
X46100000Y-63285714D01*
X46171428Y-63428571D01*
X46171428Y-63642857D01*
X46100000Y-63785714D01*
X45957142Y-63857142D01*
X45171428Y-63857142D01*
X45171428Y-64571428D02*
X46171428Y-64571428D01*
X46028571Y-64571428D02*
X46100000Y-64642857D01*
X46171428Y-64785714D01*
X46171428Y-64999999D01*
X46100000Y-65142857D01*
X45957142Y-65214285D01*
X45171428Y-65214285D01*
X45957142Y-65214285D02*
X46100000Y-65285714D01*
X46171428Y-65428571D01*
X46171428Y-65642857D01*
X46100000Y-65785714D01*
X45957142Y-65857142D01*
X45171428Y-65857142D01*
X50000000Y-50000000D02*
X46913580Y-50000000D01*
X50000000Y-68000000D02*
X46913580Y-68000000D01*
X47500000Y-50000000D02*
X47500000Y-68000000D01*
X47500000Y-50000000D02*
X47500000Y-68000000D01*
X47500000Y-50000000D02*
X46913580Y-51126503D01*
X47500000Y-50000000D02*
X48086420Y-51126503D01*
X47500000Y-68000000D02*
X48086420Y-66873497D01*
X47500000Y-68000000D02*
X46913580Y-66873497D01*
X63785714Y-40528571D02*
X63785714Y-41528571D01*
X63428571Y-39957142D02*
X63071428Y-41028571D01*
X64000000Y-41028571D01*
X64857142Y-40028571D02*
X65000000Y-40028571D01*
X65142857Y-40100000D01*
X65214285Y-40171428D01*
X65285714Y-40314285D01*
X65357142Y-40600000D01*
X65357142Y-40957142D01*
X65285714Y-41242857D01*
X65214285Y-41385714D01*
X65142857Y-41457142D01*
X65000000Y-41528571D01*
X64857142Y-41528571D01*
X64714285Y-41457142D01*
X64642857Y-41385714D01*
X64571428Y-41242857D01*
X64500000Y-40957142D01*
X64500000Y-40600000D01*
X64571428Y-40314285D01*
X64642857Y-40171428D01*
X64714285Y-40100000D01*
X64857142Y-40028571D01*
X66000000Y-41385714D02*
X66071428Y-41457142D01*
X66000000Y-41528571D01*
X65928571Y-41457142D01*
X66000000Y-41385714D01*
X66000000Y-41528571D01*
X67000000Y-40028571D02*
X67142857Y-40028571D01*
X67285714Y-40100000D01*
X67357142Y-40171428D01*
X67428571Y-40314285D01*
X67500000Y-40600000D01*
X67500000Y-40957142D01*
X67428571Y-41242857D01*
X67357142Y-41385714D01*
X67285714Y-41457142D01*
X67142857Y-41528571D01*
X67000000Y-41528571D01*
X66857142Y-41457142D01*
X66785714Y-41385714D01*
X66714285Y-41242857D01*
X66642857Y-40957142D01*
X66642857Y-40600000D01*
X66714285Y-40314285D01*
X66785714Y-40171428D01*
X66857142Y-40100000D01*
X67000000Y-40028571D01*
X68428571Y-40028571D02*
X68571428Y-40028571D01*
X68714285Y-40100000D01*
X68785714Y-40171428D01*
X68857142Y-40314285D01*
X68928571Y-40600000D01*
X68928571Y-40957142D01*
X68857142Y-41242857D01*
X68785714Y-41385714D01*
X68714285Y-41457142D01*
X68571428Y-41528571D01*
X68428571Y-41528571D01*
X68285714Y-41457142D01*
X68214285Y-41385714D01*
X68142857Y-41242857D01*
X68071428Y-40957142D01*
X68071428Y-40600000D01*
X68142857Y-40314285D01*
X68214285Y-40171428D01*
X68285714Y-40100000D01*
X68428571Y-40028571D01*
X69857142Y-40028571D02*
X70000000Y-40028571D01*
X70142857Y-40100000D01*
X70214285Y-40171428D01*
X70285714Y-40314285D01*
X70357142Y-40600000D01*
X70357142Y-40957142D01*
X70285714Y-41242857D01*
X70214285Y-41385714D01*
X70142857Y-41457142D01*
X70000000Y-41528571D01*
X69857142Y-41528571D01*
X69714285Y-41457142D01*
X69642857Y-41385714D01*
X69571428Y-41242857D01*
X69500000Y-40957142D01*
X69500000Y-40600000D01*
X69571428Y-40314285D01*
X69642857Y-40171428D01*
X69714285Y-40100000D01*
X69857142Y-40028571D01*
X71285714Y-40028571D02*
X71428571Y-40028571D01*
X71571428Y-40100000D01*
X71642857Y-40171428D01*
X71714285Y-40314285D01*
X71785714Y-40600000D01*
X71785714Y-40957142D01*
X71714285Y-41242857D01*
X71642857Y-41385714D01*
X71571428Y-41457142D01*
X71428571Y-41528571D01*
X71285714Y-41528571D01*
X71142857Y-41457142D01*
X71071428Y-41385714D01*
X71000000Y-41242857D01*
X70928571Y-40957142D01*
X70928571Y-40600000D01*
X71000000Y-40314285D01*
X71071428Y-40171428D01*
X71142857Y-40100000D01*
X71285714Y-40028571D01*
X73571428Y-41528571D02*
X73571428Y-40528571D01*
X73571428Y-40671428D02*
X73642857Y-40600000D01*
X73785714Y-40528571D01*
X74000000Y-40528571D01*
X74142857Y-40600000D01*
X74214285Y-40742857D01*
X74214285Y-41528571D01*
X74214285Y-40742857D02*
X74285714Y-40600000D01*
X74428571Y-40528571D01*
X74642857Y-40528571D01*
X74785714Y-40600000D01*
X74857142Y-40742857D01*
X74857142Y-41528571D01*
X75571428Y-41528571D02*
X75571428Y-40528571D01*
X75571428Y-40671428D02*
X75642857Y-40600000D01*
X75785714Y-40528571D01*
X76000000Y-40528571D01*
X76142857Y-40600000D01*
X76214285Y-40742857D01*
X76214285Y-41528571D01*
X76214285Y-40742857D02*
X76285714Y-40600000D01*
X76428571Y-40528571D01*
X76642857Y-40528571D01*
X76785714Y-40600000D01*
X76857142Y-40742857D01*
X76857142Y-41528571D01*
X90000000Y-50000000D02*
X90000000Y-41913580D01*
X50000000Y-50000000D02*
X50000000Y-41913580D01*
X90000000Y-42500000D02*
X50000000Y-42500000D01*
X90000000Y-42500000D02*
X50000000Y-42500000D01*
X90000000Y-42500000D02*
X88873497Y-41913580D01*
X90000000Y-42500000D02*
X88873497Y-43086420D01*
X50000000Y-42500000D02*
X51126503Y-43086420D01*
X50000000Y-42500000D02*
X51126503Y-41913580D01*
X47500000Y-92328571D02*
X47214285Y-92328571D01*
X47071428Y-92400000D01*
X47000000Y-92471428D01*
X46857142Y-92685714D01*
X46785714Y-92971428D01*
X46785714Y-93542857D01*
X46857142Y-93685714D01*
X46928571Y-93757142D01*
X47071428Y-93828571D01*
X47357142Y-93828571D01*
X47500000Y-93757142D01*
X47571428Y-93685714D01*
X47642857Y-93542857D01*
X47642857Y-93185714D01*
X47571428Y-93042857D01*
X47500000Y-92971428D01*
X47357142Y-92900000D01*
X47071428Y-92900000D01*
X46928571Y-92971428D01*
X46857142Y-93042857D01*
X46785714Y-93185714D01*
X48285714Y-93685714D02*
X48357142Y-93757142D01*
X48285714Y-93828571D01*
X48214285Y-93757142D01*
X48285714Y-93685714D01*
X48285714Y-93828571D01*
X49285714Y-92328571D02*
X49428571Y-92328571D01*
X49571428Y-92400000D01*
X49642857Y-92471428D01*
X49714285Y-92614285D01*
X49785714Y-92900000D01*
X49785714Y-93257142D01*
X49714285Y-93542857D01*
X49642857Y-93685714D01*
X49571428Y-93757142D01*
X49428571Y-93828571D01*
X49285714Y-93828571D01*
X49142857Y-93757142D01*
X49071428Y-93685714D01*
X49000000Y-93542857D01*
X48928571Y-93257142D01*
X48928571Y-92900000D01*
X49000000Y-92614285D01*
X49071428Y-92471428D01*
X49142857Y-92400000D01*
X49285714Y-92328571D01*
X50714285Y-92328571D02*
X50857142Y-92328571D01*
X51000000Y-92400000D01*
X51071428Y-92471428D01*
X51142857Y-92614285D01*
X51214285Y-92900000D01*
X51214285Y-93257142D01*
X51142857Y-93542857D01*
X51071428Y-93685714D01*
X51000000Y-93757142D01*
X50857142Y-93828571D01*
X50714285Y-93828571D01*
X50571428Y-93757142D01*
X50500000Y-93685714D01*
X50428571Y-93542857D01*
X50357142Y-93257142D01*
X50357142Y-92900000D01*
X50428571Y-92614285D01*
X50500000Y-92471428D01*
X50571428Y-92400000D01*
X50714285Y-92328571D01*
X52142857Y-92328571D02*
X52285714Y-92328571D01*
X52428571Y-92400000D01*
X52500000Y-92471428D01*
X52571428Y-92614285D01*
X52642857Y-92900000D01*
X52642857Y-93257142D01*
X52571428Y-93542857D01*
X52500000Y-93685714D01*
X52428571Y-93757142D01*
X52285714Y-93828571D01*
X52142857Y-93828571D01*
X52000000Y-93757142D01*
X51928571Y-93685714D01*
X51857142Y-93542857D01*
X51785714Y-93257142D01*
X51785714Y-92900000D01*
X51857142Y-92614285D01*
X51928571Y-92471428D01*
X52000000Y-92400000D01*
X52142857Y-92328571D01*
X53571428Y-92328571D02*
X53714285Y-92328571D01*
X53857142Y-92400000D01*
X53928571Y-92471428D01*
X54000000Y-92614285D01*
X54071428Y-92900000D01*
X54071428Y-93257142D01*
X54000000Y-93542857D01*
X53928571Y-93685714D01*
X53857142Y-93757142D01*
X53714285Y-93828571D01*
X53571428Y-93828571D01*
X53428571Y-93757142D01*
X53357142Y-93685714D01*
X53285714Y-93542857D01*
X53214285Y-93257142D01*
X53214285Y-92900000D01*
X53285714Y-92614285D01*
X53357142Y-92471428D01*
X53428571Y-92400000D01*
X53571428Y-92328571D01*
X55857142Y-93828571D02*
X55857142Y-92828571D01*
X55857142Y-92971428D02*
X55928571Y-92900000D01*
X56071428Y-92828571D01*
X56285714Y-92828571D01*
X56428571Y-92900000D01*
X56500000Y-93042857D01*
X56500000Y-93828571D01*
X56500000Y-93042857D02*
X56571428Y-92900000D01*
X56714285Y-92828571D01*
X56928571Y-92828571D01*
X57071428Y-92900000D01*
X57142857Y-93042857D01*
X57142857Y-93828571D01*
X57857142Y-93828571D02*
X57857142Y-92828571D01*
X57857142Y-92971428D02*
X57928571Y-92900000D01*
X58071428Y-92828571D01*
X58285714Y-92828571D01*
X58428571Y-92900000D01*
X58500000Y-93042857D01*
X58500000Y-93828571D01*
X58500000Y-93042857D02*
X58571428Y-92900000D01*
X58714285Y-92828571D01*
X58928571Y-92828571D01*
X59071428Y-92900000D01*
X59142857Y-93042857D01*
X59142857Y-93828571D01*
X56000000Y-90000000D02*
X56000000Y-92086420D01*
X50000000Y-90000000D02*
X50000000Y-92086420D01*
X56000000Y-91500000D02*
X50000000Y-91500000D01*
X56000000Y-91500000D02*
X50000000Y-91500000D01*
X56000000Y-91500000D02*
X54873497Y-90913580D01*
X56000000Y-91500000D02*
X54873497Y-92086420D01*
X50000000Y-91500000D02*
X51126503Y-92086420D01*
X50000000Y-91500000D02*
X51126503Y-90913580D01*
X44028571Y-71821428D02*
X44100000Y-71892857D01*
X44171428Y-72035714D01*
X44171428Y-72392857D01*
X44100000Y-72535714D01*
X44028571Y-72607142D01*
X43885714Y-72678571D01*
X43742857Y-72678571D01*
X43528571Y-72607142D01*
X42671428Y-71750000D01*
X42671428Y-72678571D01*
X42671428Y-74107142D02*
X42671428Y-73250000D01*
X42671428Y-73678571D02*
X44171428Y-73678571D01*
X43957142Y-73535714D01*
X43814285Y-73392857D01*
X43742857Y-73250000D01*
X42814285Y-74750000D02*
X42742857Y-74821428D01*
X42671428Y-74750000D01*
X42742857Y-74678571D01*
X42814285Y-74750000D01*
X42671428Y-74750000D01*
X44171428Y-76178571D02*
X44171428Y-75464285D01*
X43457142Y-75392857D01*
X43528571Y-75464285D01*
X43600000Y-75607142D01*
X43600000Y-75964285D01*
X43528571Y-76107142D01*
X43457142Y-76178571D01*
X43314285Y-76250000D01*
X42957142Y-76250000D01*
X42814285Y-76178571D01*
X42742857Y-76107142D01*
X42671428Y-75964285D01*
X42671428Y-75607142D01*
X42742857Y-75464285D01*
X42814285Y-75392857D01*
X44171428Y-77178571D02*
X44171428Y-77321428D01*
X44100000Y-77464285D01*
X44028571Y-77535714D01*
X43885714Y-77607142D01*
X43600000Y-77678571D01*
X43242857Y-77678571D01*
X42957142Y-77607142D01*
X42814285Y-77535714D01*
X42742857Y-77464285D01*
X42671428Y-77321428D01*
X42671428Y-77178571D01*
X42742857Y-77035714D01*
X42814285Y-76964285D01*
X42957142Y-76892857D01*
X43242857Y-76821428D01*
X43600000Y-76821428D01*
X43885714Y-76892857D01*
X44028571Y-76964285D01*
X44100000Y-77035714D01*
X44171428Y-77178571D01*
X44171428Y-78607142D02*
X44171428Y-78750000D01*
X44100000Y-78892857D01*
X44028571Y-78964285D01*
X43885714Y-79035714D01*
X43600000Y-79107142D01*
X43242857Y-79107142D01*
X42957142Y-79035714D01*
X42814285Y-78964285D01*
X42742857Y-78892857D01*
X42671428Y-78750000D01*
X42671428Y-78607142D01*
X42742857Y-78464285D01*
X42814285Y-78392857D01*
X42957142Y-78321428D01*
X43242857Y-78250000D01*
X43600000Y-78250000D01*
X43885714Y-78321428D01*
X44028571Y-78392857D01*
X44100000Y-78464285D01*
X44171428Y-78607142D01*
X44171428Y-80035714D02*
X44171428Y-80178571D01*
X44100000Y-80321428D01*
X44028571Y-80392857D01*
X43885714Y-80464285D01*
X43600000Y-80535714D01*
X43242857Y-80535714D01*
X42957142Y-80464285D01*
X42814285Y-80392857D01*
X42742857Y-80321428D01*
X42671428Y-80178571D01*
X42671428Y-80035714D01*
X42742857Y-79892857D01*
X42814285Y-79821428D01*
X42957142Y-79750000D01*
X43242857Y-79678571D01*
X43600000Y-79678571D01*
X43885714Y-79750000D01*
X44028571Y-79821428D01*
X44100000Y-79892857D01*
X44171428Y-80035714D01*
X42671428Y-82321428D02*
X43671428Y-82321428D01*
X43528571Y-82321428D02*
X43600000Y-82392857D01*
X43671428Y-82535714D01*
X43671428Y-82750000D01*
X43600000Y-82892857D01*
X43457142Y-82964285D01*
X42671428Y-82964285D01*
X43457142Y-82964285D02*
X43600000Y-83035714D01*
X43671428Y-83178571D01*
X43671428Y-83392857D01*
X43600000Y-83535714D01*
X43457142Y-83607142D01*
X42671428Y-83607142D01*
X42671428Y-84321428D02*
X43671428Y-84321428D01*
X43528571Y-84321428D02*
X43600000Y-84392857D01*
X43671428Y-84535714D01*
X43671428Y-84750000D01*
X43600000Y-84892857D01*
X43457142Y-84964285D01*
X42671428Y-84964285D01*
X43457142Y-84964285D02*
X43600000Y-85035714D01*
X43671428Y-85178571D01*
X43671428Y-85392857D01*
X43600000Y-85535714D01*
X43457142Y-85607142D01*
X42671428Y-85607142D01*
X50000000Y-68000000D02*
X44413580Y-68000000D01*
X50000000Y-89500000D02*
X44413580Y-89500000D01*
X45000000Y-68000000D02*
X45000000Y-89500000D01*
X45000000Y-68000000D02*
X45000000Y-89500000D01*
X45000000Y-68000000D02*
X44413580Y-69126503D01*
X45000000Y-68000000D02*
X45586420Y-69126503D01*
X45000000Y-89500000D02*
X45586420Y-88373497D01*
X45000000Y-89500000D02*
X44413580Y-88373497D01*
X48928571Y-46528571D02*
X48071428Y-46528571D01*
X48500000Y-46528571D02*
X48500000Y-45028571D01*
X48357142Y-45242857D01*
X48214285Y-45385714D01*
X48071428Y-45457142D01*
X49857142Y-45028571D02*
X50000000Y-45028571D01*
X50142857Y-45100000D01*
X50214285Y-45171428D01*
X50285714Y-45314285D01*
X50357142Y-45600000D01*
X50357142Y-45957142D01*
X50285714Y-46242857D01*
X50214285Y-46385714D01*
X50142857Y-46457142D01*
X50000000Y-46528571D01*
X49857142Y-46528571D01*
X49714285Y-46457142D01*
X49642857Y-46385714D01*
X49571428Y-46242857D01*
X49500000Y-45957142D01*
X49500000Y-45600000D01*
X49571428Y-45314285D01*
X49642857Y-45171428D01*
X49714285Y-45100000D01*
X49857142Y-45028571D01*
X51000000Y-46385714D02*
X51071428Y-46457142D01*
X51000000Y-46528571D01*
X50928571Y-46457142D01*
X51000000Y-46385714D01*
X51000000Y-46528571D01*
X52000000Y-45028571D02*
X52142857Y-45028571D01*
X52285714Y-45100000D01*
X52357142Y-45171428D01*
X52428571Y-45314285D01*
X52500000Y-45600000D01*
X52500000Y-45957142D01*
X52428571Y-46242857D01*
X52357142Y-46385714D01*
X52285714Y-46457142D01*
X52142857Y-46528571D01*
X52000000Y-46528571D01*
X51857142Y-46457142D01*
X51785714Y-46385714D01*
X51714285Y-46242857D01*
X51642857Y-45957142D01*
X51642857Y-45600000D01*
X51714285Y-45314285D01*
X51785714Y-45171428D01*
X51857142Y-45100000D01*
X52000000Y-45028571D01*
X53428571Y-45028571D02*
X53571428Y-45028571D01*
X53714285Y-45100000D01*
X53785714Y-45171428D01*
X53857142Y-45314285D01*
X53928571Y-45600000D01*
X53928571Y-45957142D01*
X53857142Y-46242857D01*
X53785714Y-46385714D01*
X53714285Y-46457142D01*
X53571428Y-46528571D01*
X53428571Y-46528571D01*
X53285714Y-46457142D01*
X53214285Y-46385714D01*
X53142857Y-46242857D01*
X53071428Y-45957142D01*
X53071428Y-45600000D01*
X53142857Y-45314285D01*
X53214285Y-45171428D01*
X53285714Y-45100000D01*
X53428571Y-45028571D01*
X54857142Y-45028571D02*
X55000000Y-45028571D01*
X55142857Y-45100000D01*
X55214285Y-45171428D01*
X55285714Y-45314285D01*
X55357142Y-45600000D01*
X55357142Y-45957142D01*
X55285714Y-46242857D01*
X55214285Y-46385714D01*
X55142857Y-46457142D01*
X55000000Y-46528571D01*
X54857142Y-46528571D01*
X54714285Y-46457142D01*
X54642857Y-46385714D01*
X54571428Y-46242857D01*
X54500000Y-45957142D01*
X54500000Y-45600000D01*
X54571428Y-45314285D01*
X54642857Y-45171428D01*
X54714285Y-45100000D01*
X54857142Y-45028571D01*
X56285714Y-45028571D02*
X56428571Y-45028571D01*
X56571428Y-45100000D01*
X56642857Y-45171428D01*
X56714285Y-45314285D01*
X56785714Y-45600000D01*
X56785714Y-45957142D01*
X56714285Y-46242857D01*
X56642857Y-46385714D01*
X56571428Y-46457142D01*
X56428571Y-46528571D01*
X56285714Y-46528571D01*
X56142857Y-46457142D01*
X56071428Y-46385714D01*
X56000000Y-46242857D01*
X55928571Y-45957142D01*
X55928571Y-45600000D01*
X56000000Y-45314285D01*
X56071428Y-45171428D01*
X56142857Y-45100000D01*
X56285714Y-45028571D01*
X58571428Y-46528571D02*
X58571428Y-45528571D01*
X58571428Y-45671428D02*
X58642857Y-45600000D01*
X58785714Y-45528571D01*
X58999999Y-45528571D01*
X59142857Y-45600000D01*
X59214285Y-45742857D01*
X59214285Y-46528571D01*
X59214285Y-45742857D02*
X59285714Y-45600000D01*
X59428571Y-45528571D01*
X59642857Y-45528571D01*
X59785714Y-45600000D01*
X59857142Y-45742857D01*
X59857142Y-46528571D01*
X60571428Y-46528571D02*
X60571428Y-45528571D01*
X60571428Y-45671428D02*
X60642857Y-45600000D01*
X60785714Y-45528571D01*
X60999999Y-45528571D01*
X61142857Y-45600000D01*
X61214285Y-45742857D01*
X61214285Y-46528571D01*
X61214285Y-45742857D02*
X61285714Y-45600000D01*
X61428571Y-45528571D01*
X61642857Y-45528571D01*
X61785714Y-45600000D01*
X61857142Y-45742857D01*
X61857142Y-46528571D01*
X60000000Y-50000000D02*
X60000000Y-46913580D01*
X50000000Y-50000000D02*
X50000000Y-46913580D01*
X60000000Y-47500000D02*
X50000000Y-47500000D01*
X60000000Y-47500000D02*
X50000000Y-47500000D01*
X60000000Y-47500000D02*
X58873497Y-46913580D01*
X60000000Y-47500000D02*
X58873497Y-48086420D01*
X50000000Y-47500000D02*
X51126503Y-48086420D01*
X50000000Y-47500000D02*
X51126503Y-46913580D01*
%TO.C,MK1*%
X62850000Y-68000000D02*
G75*
G03*
X62850000Y-68000000I-2850000J0D01*
G01*
%TO.C,MK2*%
X82850000Y-68000000D02*
G75*
G03*
X82850000Y-68000000I-2850000J0D01*
G01*
%TD*%
M02*
