M48
;DRILL file {KiCad no-vcs-found-e797af3~59~ubuntu17.04.1} date Tue Jul 18 08:46:47 2017
;FORMAT={-:-/ absolute / metric / decimal}
FMAT,2
METRIC,TZ
T1C0.300
T2C1.000
T3C3.200
%
G90
G05
M71
T1
X55.2Y-56.6
X55.2Y-57.4
X56.8Y-77.4
X56.8Y-58.6
X56.8Y-59.4
X56.8Y-76.6
X56.8Y-78.6
X56.8Y-79.4
X59.Y-64.2
X59.Y-84.2
X59.4Y-63.
X59.4Y-83.
X59.8Y-61.8
X59.8Y-81.8
X60.2Y-53.6
X60.2Y-73.6
X61.Y-54.
X61.Y-74.
X61.2Y-54.8
X61.2Y-74.8
X65.8Y-58.
X65.8Y-78.
X68.Y-79.8
X68.Y-58.2
X68.Y-59.
X68.Y-79.
X68.2Y-69.
X68.2Y-69.6
X68.2Y-70.2
X70.Y-69.
X70.Y-69.6
X70.Y-70.2
X70.4Y-79.
X70.4Y-79.8
X70.8Y-58.6
X70.8Y-59.4
X75.2Y-79.
X75.2Y-79.8
X76.8Y-56.8
X76.8Y-58.6
X76.8Y-59.4
X76.8Y-79.
X76.8Y-79.8
X76.8Y-56.
X79.Y-64.2
X79.Y-84.2
X79.4Y-63.
X79.4Y-83.
X79.8Y-61.8
X79.8Y-81.8
X80.2Y-53.6
X80.2Y-73.6
X81.Y-54.
X81.Y-74.
X81.2Y-54.8
X81.2Y-74.8
X85.75Y-58.
X85.75Y-78.
X52.9Y-81.8
X52.9Y-83.
X52.9Y-84.2
X53.6Y-81.8
X53.6Y-83.
X53.6Y-84.2
X54.3Y-81.8
X54.3Y-83.
X54.3Y-84.2
X55.Y-81.8
X55.Y-83.
X55.Y-84.2
X55.7Y-81.8
X55.7Y-83.
X55.7Y-84.2
X59.1Y-77.1
X59.1Y-78.
X59.1Y-78.9
X60.Y-77.1
X60.Y-78.
X60.Y-78.9
X60.9Y-77.1
X60.9Y-78.
X60.9Y-78.9
X79.1Y-77.1
X79.1Y-78.
X79.1Y-78.9
X80.Y-77.1
X80.Y-78.
X80.Y-78.9
X80.9Y-77.1
X80.9Y-78.
X80.9Y-78.9
X72.9Y-51.8
X72.9Y-53.
X72.9Y-54.2
X73.6Y-51.8
X73.6Y-53.
X73.6Y-54.2
X74.3Y-51.8
X74.3Y-53.
X74.3Y-54.2
X75.Y-51.8
X75.Y-53.
X75.Y-54.2
X75.7Y-51.8
X75.7Y-53.
X75.7Y-54.2
X72.9Y-61.8
X72.9Y-63.
X72.9Y-64.2
X73.6Y-61.8
X73.6Y-63.
X73.6Y-64.2
X74.3Y-61.8
X74.3Y-63.
X74.3Y-64.2
X75.Y-61.8
X75.Y-63.
X75.Y-64.2
X75.7Y-61.8
X75.7Y-63.
X75.7Y-64.2
X82.9Y-71.8
X82.9Y-73.
X82.9Y-74.2
X83.6Y-71.8
X83.6Y-73.
X83.6Y-74.2
X84.3Y-71.8
X84.3Y-73.
X84.3Y-74.2
X85.Y-71.8
X85.Y-73.
X85.Y-74.2
X85.7Y-71.8
X85.7Y-73.
X85.7Y-74.2
X62.9Y-71.8
X62.9Y-73.
X62.9Y-74.2
X63.6Y-71.8
X63.6Y-73.
X63.6Y-74.2
X64.3Y-71.8
X64.3Y-73.
X64.3Y-74.2
X65.Y-71.8
X65.Y-73.
X65.Y-74.2
X65.7Y-71.8
X65.7Y-73.
X65.7Y-74.2
X52.9Y-61.8
X52.9Y-63.
X52.9Y-64.2
X53.6Y-61.8
X53.6Y-63.
X53.6Y-64.2
X54.3Y-61.8
X54.3Y-63.
X54.3Y-64.2
X55.Y-61.8
X55.Y-63.
X55.Y-64.2
X55.7Y-61.8
X55.7Y-63.
X55.7Y-64.2
X72.9Y-71.8
X72.9Y-73.
X72.9Y-74.2
X73.6Y-71.8
X73.6Y-73.
X73.6Y-74.2
X74.3Y-71.8
X74.3Y-73.
X74.3Y-74.2
X75.Y-71.8
X75.Y-73.
X75.Y-74.2
X75.7Y-71.8
X75.7Y-73.
X75.7Y-74.2
X82.9Y-61.8
X82.9Y-63.
X82.9Y-64.2
X83.6Y-61.8
X83.6Y-63.
X83.6Y-64.2
X84.3Y-61.8
X84.3Y-63.
X84.3Y-64.2
X85.Y-61.8
X85.Y-63.
X85.Y-64.2
X85.7Y-61.8
X85.7Y-63.
X85.7Y-64.2
X52.9Y-71.8
X52.9Y-73.
X52.9Y-74.2
X53.6Y-71.8
X53.6Y-73.
X53.6Y-74.2
X54.3Y-71.8
X54.3Y-73.
X54.3Y-74.2
X55.Y-71.8
X55.Y-73.
X55.Y-74.2
X55.7Y-71.8
X55.7Y-73.
X55.7Y-74.2
X82.9Y-51.8
X82.9Y-53.
X82.9Y-54.2
X83.6Y-51.8
X83.6Y-53.
X83.6Y-54.2
X84.3Y-51.8
X84.3Y-53.
X84.3Y-54.2
X85.Y-51.8
X85.Y-53.
X85.Y-54.2
X85.7Y-51.8
X85.7Y-53.
X85.7Y-54.2
X62.9Y-61.8
X62.9Y-63.
X62.9Y-64.2
X63.6Y-61.8
X63.6Y-63.
X63.6Y-64.2
X64.3Y-61.8
X64.3Y-63.
X64.3Y-64.2
X65.Y-61.8
X65.Y-63.
X65.Y-64.2
X65.7Y-61.8
X65.7Y-63.
X65.7Y-64.2
X62.9Y-81.8
X62.9Y-83.
X62.9Y-84.2
X63.6Y-81.8
X63.6Y-83.
X63.6Y-84.2
X64.3Y-81.8
X64.3Y-83.
X64.3Y-84.2
X65.Y-81.8
X65.Y-83.
X65.Y-84.2
X65.7Y-81.8
X65.7Y-83.
X65.7Y-84.2
X72.9Y-81.8
X72.9Y-83.
X72.9Y-84.2
X73.6Y-81.8
X73.6Y-83.
X73.6Y-84.2
X74.3Y-81.8
X74.3Y-83.
X74.3Y-84.2
X75.Y-81.8
X75.Y-83.
X75.Y-84.2
X75.7Y-81.8
X75.7Y-83.
X75.7Y-84.2
X52.9Y-51.8
X52.9Y-53.
X52.9Y-54.2
X53.6Y-51.8
X53.6Y-53.
X53.6Y-54.2
X54.3Y-51.8
X54.3Y-53.
X54.3Y-54.2
X55.Y-51.8
X55.Y-53.
X55.Y-54.2
X55.7Y-51.8
X55.7Y-53.
X55.7Y-54.2
X79.1Y-57.1
X79.1Y-58.
X79.1Y-58.9
X80.Y-57.1
X80.Y-58.
X80.Y-58.9
X80.9Y-57.1
X80.9Y-58.
X80.9Y-58.9
X82.9Y-81.8
X82.9Y-83.
X82.9Y-84.2
X83.6Y-81.8
X83.6Y-83.
X83.6Y-84.2
X84.3Y-81.8
X84.3Y-83.
X84.3Y-84.2
X85.Y-81.8
X85.Y-83.
X85.Y-84.2
X85.7Y-81.8
X85.7Y-83.
X85.7Y-84.2
X59.1Y-57.1
X59.1Y-58.
X59.1Y-58.9
X60.Y-57.1
X60.Y-58.
X60.Y-58.9
X60.9Y-57.1
X60.9Y-58.
X60.9Y-58.9
X62.9Y-51.8
X62.9Y-53.
X62.9Y-54.2
X63.6Y-51.8
X63.6Y-53.
X63.6Y-54.2
X64.3Y-51.8
X64.3Y-53.
X64.3Y-54.2
X65.Y-51.8
X65.Y-53.
X65.Y-54.2
X65.7Y-51.8
X65.7Y-53.
X65.7Y-54.2
T2
X53.73Y-88.
X56.27Y-88.
X63.65Y-88.
X66.19Y-88.
X68.73Y-88.
X71.27Y-88.
X73.81Y-88.
X76.35Y-88.
X83.73Y-88.
X86.27Y-88.
T3
X80.Y-68.
X60.Y-68.
T0
M30
