%TF.GenerationSoftware,KiCad,Pcbnew,5.99.0-unknown-652a59b78~104~ubuntu20.04.1*%
%TF.CreationDate,2020-09-21T15:47:38+02:00*%
%TF.ProjectId,LEDBoard_4x4_16bit,4c454442-6f61-4726-945f-3478345f3136,4.0.0*%
%TF.SameCoordinates,Original*%
%TF.FileFunction,Legend,Bot*%
%TF.FilePolarity,Positive*%
%FSLAX46Y46*%
G04 Gerber Fmt 4.6, Leading zero omitted, Abs format (unit mm)*
G04 Created by KiCad (PCBNEW 5.99.0-unknown-652a59b78~104~ubuntu20.04.1) date 2020-09-21 15:47:38*
%MOMM*%
%LPD*%
G01*
G04 APERTURE LIST*
%ADD10C,0.200000*%
%ADD11C,0.100000*%
%ADD12C,0.150000*%
%ADD13C,0.120000*%
G04 APERTURE END LIST*
D10*
X52000000Y-50000000D02*
X88000000Y-50000000D01*
X52000000Y-86000000D02*
X52000000Y-50000000D01*
X88000000Y-86000000D02*
X52000000Y-86000000D01*
X88000000Y-50000000D02*
X88000000Y-86000000D01*
D11*
X80504761Y-85623690D02*
X80552380Y-85599880D01*
X80576190Y-85576071D01*
X80600000Y-85528452D01*
X80600000Y-85385595D01*
X80576190Y-85337976D01*
X80552380Y-85314166D01*
X80504761Y-85290357D01*
X80433333Y-85290357D01*
X80385714Y-85314166D01*
X80361904Y-85337976D01*
X80338095Y-85385595D01*
X80338095Y-85528452D01*
X80361904Y-85576071D01*
X80385714Y-85599880D01*
X80433333Y-85623690D01*
X80504761Y-85623690D01*
X79909523Y-85290357D02*
X79909523Y-85623690D01*
X80123809Y-85290357D02*
X80123809Y-85552261D01*
X80100000Y-85599880D01*
X80052380Y-85623690D01*
X79980952Y-85623690D01*
X79933333Y-85599880D01*
X79909523Y-85576071D01*
X79742857Y-85290357D02*
X79552380Y-85290357D01*
X79671428Y-85123690D02*
X79671428Y-85552261D01*
X79647619Y-85599880D01*
X79600000Y-85623690D01*
X79552380Y-85623690D01*
X81766666Y-86404880D02*
X81814285Y-86428690D01*
X81909523Y-86428690D01*
X81957142Y-86404880D01*
X81980952Y-86381071D01*
X82004761Y-86333452D01*
X82004761Y-86190595D01*
X81980952Y-86142976D01*
X81957142Y-86119166D01*
X81909523Y-86095357D01*
X81814285Y-86095357D01*
X81766666Y-86119166D01*
X81480952Y-86428690D02*
X81528571Y-86404880D01*
X81552380Y-86357261D01*
X81552380Y-85928690D01*
X81219047Y-86428690D02*
X81266666Y-86404880D01*
X81290476Y-86381071D01*
X81314285Y-86333452D01*
X81314285Y-86190595D01*
X81290476Y-86142976D01*
X81266666Y-86119166D01*
X81219047Y-86095357D01*
X81147619Y-86095357D01*
X81100000Y-86119166D01*
X81076190Y-86142976D01*
X81052380Y-86190595D01*
X81052380Y-86333452D01*
X81076190Y-86381071D01*
X81100000Y-86404880D01*
X81147619Y-86428690D01*
X81219047Y-86428690D01*
X80623809Y-86404880D02*
X80671428Y-86428690D01*
X80766666Y-86428690D01*
X80814285Y-86404880D01*
X80838095Y-86381071D01*
X80861904Y-86333452D01*
X80861904Y-86190595D01*
X80838095Y-86142976D01*
X80814285Y-86119166D01*
X80766666Y-86095357D01*
X80671428Y-86095357D01*
X80623809Y-86119166D01*
X80409523Y-86428690D02*
X80409523Y-85928690D01*
X80361904Y-86238214D02*
X80219047Y-86428690D01*
X80219047Y-86095357D02*
X80409523Y-86285833D01*
X79409523Y-86428690D02*
X79409523Y-85928690D01*
X79409523Y-86404880D02*
X79457142Y-86428690D01*
X79552380Y-86428690D01*
X79600000Y-86404880D01*
X79623809Y-86381071D01*
X79647619Y-86333452D01*
X79647619Y-86190595D01*
X79623809Y-86142976D01*
X79600000Y-86119166D01*
X79552380Y-86095357D01*
X79457142Y-86095357D01*
X79409523Y-86119166D01*
X78957142Y-86428690D02*
X78957142Y-86166785D01*
X78980952Y-86119166D01*
X79028571Y-86095357D01*
X79123809Y-86095357D01*
X79171428Y-86119166D01*
X78957142Y-86404880D02*
X79004761Y-86428690D01*
X79123809Y-86428690D01*
X79171428Y-86404880D01*
X79195238Y-86357261D01*
X79195238Y-86309642D01*
X79171428Y-86262023D01*
X79123809Y-86238214D01*
X79004761Y-86238214D01*
X78957142Y-86214404D01*
X78790476Y-86095357D02*
X78600000Y-86095357D01*
X78719047Y-85928690D02*
X78719047Y-86357261D01*
X78695238Y-86404880D01*
X78647619Y-86428690D01*
X78600000Y-86428690D01*
X78219047Y-86428690D02*
X78219047Y-86166785D01*
X78242857Y-86119166D01*
X78290476Y-86095357D01*
X78385714Y-86095357D01*
X78433333Y-86119166D01*
X78219047Y-86404880D02*
X78266666Y-86428690D01*
X78385714Y-86428690D01*
X78433333Y-86404880D01*
X78457142Y-86357261D01*
X78457142Y-86309642D01*
X78433333Y-86262023D01*
X78385714Y-86238214D01*
X78266666Y-86238214D01*
X78219047Y-86214404D01*
X57426190Y-85823690D02*
X57426190Y-85490357D01*
X57426190Y-85323690D02*
X57450000Y-85347500D01*
X57426190Y-85371309D01*
X57402380Y-85347500D01*
X57426190Y-85323690D01*
X57426190Y-85371309D01*
X57188095Y-85490357D02*
X57188095Y-85823690D01*
X57188095Y-85537976D02*
X57164285Y-85514166D01*
X57116666Y-85490357D01*
X57045238Y-85490357D01*
X56997619Y-85514166D01*
X56973809Y-85561785D01*
X56973809Y-85823690D01*
X58866666Y-86604880D02*
X58914285Y-86628690D01*
X59009523Y-86628690D01*
X59057142Y-86604880D01*
X59080952Y-86581071D01*
X59104761Y-86533452D01*
X59104761Y-86390595D01*
X59080952Y-86342976D01*
X59057142Y-86319166D01*
X59009523Y-86295357D01*
X58914285Y-86295357D01*
X58866666Y-86319166D01*
X58580952Y-86628690D02*
X58628571Y-86604880D01*
X58652380Y-86557261D01*
X58652380Y-86128690D01*
X58319047Y-86628690D02*
X58366666Y-86604880D01*
X58390476Y-86581071D01*
X58414285Y-86533452D01*
X58414285Y-86390595D01*
X58390476Y-86342976D01*
X58366666Y-86319166D01*
X58319047Y-86295357D01*
X58247619Y-86295357D01*
X58200000Y-86319166D01*
X58176190Y-86342976D01*
X58152380Y-86390595D01*
X58152380Y-86533452D01*
X58176190Y-86581071D01*
X58200000Y-86604880D01*
X58247619Y-86628690D01*
X58319047Y-86628690D01*
X57723809Y-86604880D02*
X57771428Y-86628690D01*
X57866666Y-86628690D01*
X57914285Y-86604880D01*
X57938095Y-86581071D01*
X57961904Y-86533452D01*
X57961904Y-86390595D01*
X57938095Y-86342976D01*
X57914285Y-86319166D01*
X57866666Y-86295357D01*
X57771428Y-86295357D01*
X57723809Y-86319166D01*
X57509523Y-86628690D02*
X57509523Y-86128690D01*
X57461904Y-86438214D02*
X57319047Y-86628690D01*
X57319047Y-86295357D02*
X57509523Y-86485833D01*
X56509523Y-86628690D02*
X56509523Y-86128690D01*
X56509523Y-86604880D02*
X56557142Y-86628690D01*
X56652380Y-86628690D01*
X56700000Y-86604880D01*
X56723809Y-86581071D01*
X56747619Y-86533452D01*
X56747619Y-86390595D01*
X56723809Y-86342976D01*
X56700000Y-86319166D01*
X56652380Y-86295357D01*
X56557142Y-86295357D01*
X56509523Y-86319166D01*
X56057142Y-86628690D02*
X56057142Y-86366785D01*
X56080952Y-86319166D01*
X56128571Y-86295357D01*
X56223809Y-86295357D01*
X56271428Y-86319166D01*
X56057142Y-86604880D02*
X56104761Y-86628690D01*
X56223809Y-86628690D01*
X56271428Y-86604880D01*
X56295238Y-86557261D01*
X56295238Y-86509642D01*
X56271428Y-86462023D01*
X56223809Y-86438214D01*
X56104761Y-86438214D01*
X56057142Y-86414404D01*
X55890476Y-86295357D02*
X55700000Y-86295357D01*
X55819047Y-86128690D02*
X55819047Y-86557261D01*
X55795238Y-86604880D01*
X55747619Y-86628690D01*
X55700000Y-86628690D01*
X55319047Y-86628690D02*
X55319047Y-86366785D01*
X55342857Y-86319166D01*
X55390476Y-86295357D01*
X55485714Y-86295357D01*
X55533333Y-86319166D01*
X55319047Y-86604880D02*
X55366666Y-86628690D01*
X55485714Y-86628690D01*
X55533333Y-86604880D01*
X55557142Y-86557261D01*
X55557142Y-86509642D01*
X55533333Y-86462023D01*
X55485714Y-86438214D01*
X55366666Y-86438214D01*
X55319047Y-86414404D01*
X76666666Y-85950000D02*
X76714285Y-85926190D01*
X76785714Y-85926190D01*
X76857142Y-85950000D01*
X76904761Y-85997619D01*
X76928571Y-86045238D01*
X76952380Y-86140476D01*
X76952380Y-86211904D01*
X76928571Y-86307142D01*
X76904761Y-86354761D01*
X76857142Y-86402380D01*
X76785714Y-86426190D01*
X76738095Y-86426190D01*
X76666666Y-86402380D01*
X76642857Y-86378571D01*
X76642857Y-86211904D01*
X76738095Y-86211904D01*
X76428571Y-86426190D02*
X76428571Y-85926190D01*
X76142857Y-86426190D01*
X76142857Y-85926190D01*
X75904761Y-86426190D02*
X75904761Y-85926190D01*
X75785714Y-85926190D01*
X75714285Y-85950000D01*
X75666666Y-85997619D01*
X75642857Y-86045238D01*
X75619047Y-86140476D01*
X75619047Y-86211904D01*
X75642857Y-86307142D01*
X75666666Y-86354761D01*
X75714285Y-86402380D01*
X75785714Y-86426190D01*
X75904761Y-86426190D01*
X74333333Y-85926190D02*
X74166666Y-86426190D01*
X74000000Y-85926190D01*
X73547619Y-86378571D02*
X73571428Y-86402380D01*
X73642857Y-86426190D01*
X73690476Y-86426190D01*
X73761904Y-86402380D01*
X73809523Y-86354761D01*
X73833333Y-86307142D01*
X73857142Y-86211904D01*
X73857142Y-86140476D01*
X73833333Y-86045238D01*
X73809523Y-85997619D01*
X73761904Y-85950000D01*
X73690476Y-85926190D01*
X73642857Y-85926190D01*
X73571428Y-85950000D01*
X73547619Y-85973809D01*
X73047619Y-86378571D02*
X73071428Y-86402380D01*
X73142857Y-86426190D01*
X73190476Y-86426190D01*
X73261904Y-86402380D01*
X73309523Y-86354761D01*
X73333333Y-86307142D01*
X73357142Y-86211904D01*
X73357142Y-86140476D01*
X73333333Y-86045238D01*
X73309523Y-85997619D01*
X73261904Y-85950000D01*
X73190476Y-85926190D01*
X73142857Y-85926190D01*
X73071428Y-85950000D01*
X73047619Y-85973809D01*
X71666666Y-85950000D02*
X71714285Y-85926190D01*
X71785714Y-85926190D01*
X71857142Y-85950000D01*
X71904761Y-85997619D01*
X71928571Y-86045238D01*
X71952380Y-86140476D01*
X71952380Y-86211904D01*
X71928571Y-86307142D01*
X71904761Y-86354761D01*
X71857142Y-86402380D01*
X71785714Y-86426190D01*
X71738095Y-86426190D01*
X71666666Y-86402380D01*
X71642857Y-86378571D01*
X71642857Y-86211904D01*
X71738095Y-86211904D01*
X71428571Y-86426190D02*
X71428571Y-85926190D01*
X71142857Y-86426190D01*
X71142857Y-85926190D01*
X70904761Y-86426190D02*
X70904761Y-85926190D01*
X70785714Y-85926190D01*
X70714285Y-85950000D01*
X70666666Y-85997619D01*
X70642857Y-86045238D01*
X70619047Y-86140476D01*
X70619047Y-86211904D01*
X70642857Y-86307142D01*
X70666666Y-86354761D01*
X70714285Y-86402380D01*
X70785714Y-86426190D01*
X70904761Y-86426190D01*
X69333333Y-85926190D02*
X69166666Y-86426190D01*
X69000000Y-85926190D01*
X68547619Y-86378571D02*
X68571428Y-86402380D01*
X68642857Y-86426190D01*
X68690476Y-86426190D01*
X68761904Y-86402380D01*
X68809523Y-86354761D01*
X68833333Y-86307142D01*
X68857142Y-86211904D01*
X68857142Y-86140476D01*
X68833333Y-86045238D01*
X68809523Y-85997619D01*
X68761904Y-85950000D01*
X68690476Y-85926190D01*
X68642857Y-85926190D01*
X68571428Y-85950000D01*
X68547619Y-85973809D01*
X68047619Y-86378571D02*
X68071428Y-86402380D01*
X68142857Y-86426190D01*
X68190476Y-86426190D01*
X68261904Y-86402380D01*
X68309523Y-86354761D01*
X68333333Y-86307142D01*
X68357142Y-86211904D01*
X68357142Y-86140476D01*
X68333333Y-86045238D01*
X68309523Y-85997619D01*
X68261904Y-85950000D01*
X68190476Y-85926190D01*
X68142857Y-85926190D01*
X68071428Y-85950000D01*
X68047619Y-85973809D01*
X66466666Y-85950000D02*
X66514285Y-85926190D01*
X66585714Y-85926190D01*
X66657142Y-85950000D01*
X66704761Y-85997619D01*
X66728571Y-86045238D01*
X66752380Y-86140476D01*
X66752380Y-86211904D01*
X66728571Y-86307142D01*
X66704761Y-86354761D01*
X66657142Y-86402380D01*
X66585714Y-86426190D01*
X66538095Y-86426190D01*
X66466666Y-86402380D01*
X66442857Y-86378571D01*
X66442857Y-86211904D01*
X66538095Y-86211904D01*
X66228571Y-86426190D02*
X66228571Y-85926190D01*
X65942857Y-86426190D01*
X65942857Y-85926190D01*
X65704761Y-86426190D02*
X65704761Y-85926190D01*
X65585714Y-85926190D01*
X65514285Y-85950000D01*
X65466666Y-85997619D01*
X65442857Y-86045238D01*
X65419047Y-86140476D01*
X65419047Y-86211904D01*
X65442857Y-86307142D01*
X65466666Y-86354761D01*
X65514285Y-86402380D01*
X65585714Y-86426190D01*
X65704761Y-86426190D01*
X64133333Y-85926190D02*
X63966666Y-86426190D01*
X63800000Y-85926190D01*
X63347619Y-86378571D02*
X63371428Y-86402380D01*
X63442857Y-86426190D01*
X63490476Y-86426190D01*
X63561904Y-86402380D01*
X63609523Y-86354761D01*
X63633333Y-86307142D01*
X63657142Y-86211904D01*
X63657142Y-86140476D01*
X63633333Y-86045238D01*
X63609523Y-85997619D01*
X63561904Y-85950000D01*
X63490476Y-85926190D01*
X63442857Y-85926190D01*
X63371428Y-85950000D01*
X63347619Y-85973809D01*
X62847619Y-86378571D02*
X62871428Y-86402380D01*
X62942857Y-86426190D01*
X62990476Y-86426190D01*
X63061904Y-86402380D01*
X63109523Y-86354761D01*
X63133333Y-86307142D01*
X63157142Y-86211904D01*
X63157142Y-86140476D01*
X63133333Y-86045238D01*
X63109523Y-85997619D01*
X63061904Y-85950000D01*
X62990476Y-85926190D01*
X62942857Y-85926190D01*
X62871428Y-85950000D01*
X62847619Y-85973809D01*
X61480952Y-85950000D02*
X61528571Y-85926190D01*
X61600000Y-85926190D01*
X61671428Y-85950000D01*
X61719047Y-85997619D01*
X61742857Y-86045238D01*
X61766666Y-86140476D01*
X61766666Y-86211904D01*
X61742857Y-86307142D01*
X61719047Y-86354761D01*
X61671428Y-86402380D01*
X61600000Y-86426190D01*
X61552380Y-86426190D01*
X61480952Y-86402380D01*
X61457142Y-86378571D01*
X61457142Y-86211904D01*
X61552380Y-86211904D01*
X61242857Y-86426190D02*
X61242857Y-85926190D01*
X60957142Y-86426190D01*
X60957142Y-85926190D01*
X60719047Y-86426190D02*
X60719047Y-85926190D01*
X60600000Y-85926190D01*
X60528571Y-85950000D01*
X60480952Y-85997619D01*
X60457142Y-86045238D01*
X60433333Y-86140476D01*
X60433333Y-86211904D01*
X60457142Y-86307142D01*
X60480952Y-86354761D01*
X60528571Y-86402380D01*
X60600000Y-86426190D01*
X60719047Y-86426190D01*
X84380952Y-85950000D02*
X84428571Y-85926190D01*
X84500000Y-85926190D01*
X84571428Y-85950000D01*
X84619047Y-85997619D01*
X84642857Y-86045238D01*
X84666666Y-86140476D01*
X84666666Y-86211904D01*
X84642857Y-86307142D01*
X84619047Y-86354761D01*
X84571428Y-86402380D01*
X84500000Y-86426190D01*
X84452380Y-86426190D01*
X84380952Y-86402380D01*
X84357142Y-86378571D01*
X84357142Y-86211904D01*
X84452380Y-86211904D01*
X84142857Y-86426190D02*
X84142857Y-85926190D01*
X83857142Y-86426190D01*
X83857142Y-85926190D01*
X83619047Y-86426190D02*
X83619047Y-85926190D01*
X83500000Y-85926190D01*
X83428571Y-85950000D01*
X83380952Y-85997619D01*
X83357142Y-86045238D01*
X83333333Y-86140476D01*
X83333333Y-86211904D01*
X83357142Y-86307142D01*
X83380952Y-86354761D01*
X83428571Y-86402380D01*
X83500000Y-86426190D01*
X83619047Y-86426190D01*
D12*
%TO.C,J2*%
X60332380Y-87666666D02*
X61046666Y-87666666D01*
X61189523Y-87619047D01*
X61284761Y-87523809D01*
X61332380Y-87380952D01*
X61332380Y-87285714D01*
X60427619Y-88095238D02*
X60380000Y-88142857D01*
X60332380Y-88238095D01*
X60332380Y-88476190D01*
X60380000Y-88571428D01*
X60427619Y-88619047D01*
X60522857Y-88666666D01*
X60618095Y-88666666D01*
X60760952Y-88619047D01*
X61332380Y-88047619D01*
X61332380Y-88666666D01*
%TO.C,J1*%
X52712380Y-87666666D02*
X53426666Y-87666666D01*
X53569523Y-87619047D01*
X53664761Y-87523809D01*
X53712380Y-87380952D01*
X53712380Y-87285714D01*
X53712380Y-88666666D02*
X53712380Y-88095238D01*
X53712380Y-88380952D02*
X52712380Y-88380952D01*
X52855238Y-88285714D01*
X52950476Y-88190476D01*
X52998095Y-88095238D01*
%TO.C,J6*%
X75572380Y-87666666D02*
X76286666Y-87666666D01*
X76429523Y-87619047D01*
X76524761Y-87523809D01*
X76572380Y-87380952D01*
X76572380Y-87285714D01*
X75572380Y-88571428D02*
X75572380Y-88380952D01*
X75620000Y-88285714D01*
X75667619Y-88238095D01*
X75810476Y-88142857D01*
X76000952Y-88095238D01*
X76381904Y-88095238D01*
X76477142Y-88142857D01*
X76524761Y-88190476D01*
X76572380Y-88285714D01*
X76572380Y-88476190D01*
X76524761Y-88571428D01*
X76477142Y-88619047D01*
X76381904Y-88666666D01*
X76143809Y-88666666D01*
X76048571Y-88619047D01*
X76000952Y-88571428D01*
X75953333Y-88476190D01*
X75953333Y-88285714D01*
X76000952Y-88190476D01*
X76048571Y-88142857D01*
X76143809Y-88095238D01*
D13*
%TO.C,J2*%
X62320000Y-88000000D02*
X62320000Y-89330000D01*
X62320000Y-89330000D02*
X63650000Y-89330000D01*
X64920000Y-89330000D02*
X77680000Y-89330000D01*
X77680000Y-86670000D02*
X77680000Y-89330000D01*
X64920000Y-86670000D02*
X77680000Y-86670000D01*
X64920000Y-86670000D02*
X64920000Y-89330000D01*
%TO.C,J1*%
X54700000Y-88000000D02*
X54700000Y-89330000D01*
X54700000Y-89330000D02*
X56030000Y-89330000D01*
X57300000Y-89330000D02*
X62440000Y-89330000D01*
X62440000Y-86670000D02*
X62440000Y-89330000D01*
X57300000Y-86670000D02*
X62440000Y-86670000D01*
X57300000Y-86670000D02*
X57300000Y-89330000D01*
%TO.C,J6*%
X77560000Y-88000000D02*
X77560000Y-89330000D01*
X77560000Y-89330000D02*
X78890000Y-89330000D01*
X80160000Y-89330000D02*
X85300000Y-89330000D01*
X85300000Y-86670000D02*
X85300000Y-89330000D01*
X80160000Y-86670000D02*
X85300000Y-86670000D01*
X80160000Y-86670000D02*
X80160000Y-89330000D01*
%TD*%
M02*
