%FSLAX45Y45*%
G04 Gerber Fmt 4.5, Leading zero omitted, Abs format (unit mm)*
G04 Created by KiCad (PCBNEW no-vcs-found-1f6854f~59~ubuntu17.04.1) date Fri Aug  4 00:07:45 2017*
%MOMM*%
%LPD*%
G01*
G04 APERTURE LIST*
%ADD10C,0.150000*%
%ADD11C,0.200000*%
%ADD12C,0.300000*%
G04 APERTURE END LIST*
D10*
X5000000Y-9000000D02*
X5000000Y-5000000D01*
X9000000Y-9000000D02*
X5000000Y-9000000D01*
X9000000Y-5000000D02*
X9000000Y-9000000D01*
X5000000Y-5000000D02*
X9000000Y-5000000D01*
D11*
X5505000Y-5645000D02*
X5535000Y-5675000D01*
X5535000Y-5645000D02*
X5505000Y-5675000D01*
X5505000Y-5725000D02*
X5535000Y-5755000D01*
X5535000Y-5725000D02*
X5505000Y-5755000D01*
X5664998Y-7725000D02*
X5694998Y-7755000D01*
X5694998Y-7725000D02*
X5664998Y-7755000D01*
X5665000Y-5845000D02*
X5695000Y-5875000D01*
X5695000Y-5845000D02*
X5665000Y-5875000D01*
X5665000Y-5925000D02*
X5695000Y-5955000D01*
X5695000Y-5925000D02*
X5665000Y-5955000D01*
X5665000Y-7645000D02*
X5695000Y-7675000D01*
X5695000Y-7645000D02*
X5665000Y-7675000D01*
X5665000Y-7845000D02*
X5695000Y-7875000D01*
X5695000Y-7845000D02*
X5665000Y-7875000D01*
X5665000Y-7925000D02*
X5695000Y-7955000D01*
X5695000Y-7925000D02*
X5665000Y-7955000D01*
X5885000Y-6405000D02*
X5915000Y-6435000D01*
X5915000Y-6405000D02*
X5885000Y-6435000D01*
X5885000Y-8405000D02*
X5915000Y-8435000D01*
X5915000Y-8405000D02*
X5885000Y-8435000D01*
X5925000Y-6285000D02*
X5955000Y-6315000D01*
X5955000Y-6285000D02*
X5925000Y-6315000D01*
X5925000Y-8285000D02*
X5955000Y-8315000D01*
X5955000Y-8285000D02*
X5925000Y-8315000D01*
X5965000Y-6165000D02*
X5995000Y-6195000D01*
X5995000Y-6165000D02*
X5965000Y-6195000D01*
X5965000Y-8165000D02*
X5995000Y-8195000D01*
X5995000Y-8165000D02*
X5965000Y-8195000D01*
X6005000Y-5345001D02*
X6035000Y-5375001D01*
X6035000Y-5345001D02*
X6005000Y-5375001D01*
X6005000Y-7345001D02*
X6035000Y-7375001D01*
X6035000Y-7345001D02*
X6005000Y-7375001D01*
X6085000Y-5385000D02*
X6115000Y-5415000D01*
X6115000Y-5385000D02*
X6085000Y-5415000D01*
X6085000Y-7385000D02*
X6115000Y-7415000D01*
X6115000Y-7385000D02*
X6085000Y-7415000D01*
X6105000Y-5465004D02*
X6135000Y-5495004D01*
X6135000Y-5465004D02*
X6105000Y-5495004D01*
X6105000Y-7465004D02*
X6135000Y-7495004D01*
X6135000Y-7465004D02*
X6105000Y-7495004D01*
X6565000Y-5785000D02*
X6595000Y-5815000D01*
X6595000Y-5785000D02*
X6565000Y-5815000D01*
X6565000Y-7785000D02*
X6595000Y-7815000D01*
X6595000Y-7785000D02*
X6565000Y-7815000D01*
X6784999Y-7965000D02*
X6814999Y-7995000D01*
X6814999Y-7965000D02*
X6784999Y-7995000D01*
X6785000Y-5805000D02*
X6815000Y-5835000D01*
X6815000Y-5805000D02*
X6785000Y-5835000D01*
X6785000Y-5885000D02*
X6815000Y-5915000D01*
X6815000Y-5885000D02*
X6785000Y-5915000D01*
X6785000Y-7885000D02*
X6815000Y-7915000D01*
X6815000Y-7885000D02*
X6785000Y-7915000D01*
X6805000Y-6885000D02*
X6835000Y-6915000D01*
X6835000Y-6885000D02*
X6805000Y-6915000D01*
X6805000Y-6945000D02*
X6835000Y-6975000D01*
X6835000Y-6945000D02*
X6805000Y-6975000D01*
X6805000Y-7005000D02*
X6835000Y-7035000D01*
X6835000Y-7005000D02*
X6805000Y-7035000D01*
X6985000Y-6885000D02*
X7015000Y-6915000D01*
X7015000Y-6885000D02*
X6985000Y-6915000D01*
X6985000Y-6945000D02*
X7015000Y-6975000D01*
X7015000Y-6945000D02*
X6985000Y-6975000D01*
X6985000Y-7005000D02*
X7015000Y-7035000D01*
X7015000Y-7005000D02*
X6985000Y-7035000D01*
X7025000Y-7885000D02*
X7055000Y-7915000D01*
X7055000Y-7885000D02*
X7025000Y-7915000D01*
X7025000Y-7965000D02*
X7055000Y-7995000D01*
X7055000Y-7965000D02*
X7025000Y-7995000D01*
X7065000Y-5845000D02*
X7095000Y-5875000D01*
X7095000Y-5845000D02*
X7065000Y-5875000D01*
X7065000Y-5925000D02*
X7095000Y-5955000D01*
X7095000Y-5925000D02*
X7065000Y-5955000D01*
X7505000Y-7885000D02*
X7535000Y-7915000D01*
X7535000Y-7885000D02*
X7505000Y-7915000D01*
X7505001Y-7965000D02*
X7535001Y-7995000D01*
X7535001Y-7965000D02*
X7505001Y-7995000D01*
X7665000Y-5665000D02*
X7695000Y-5695000D01*
X7695000Y-5665000D02*
X7665000Y-5695000D01*
X7665000Y-5845000D02*
X7695000Y-5875000D01*
X7695000Y-5845000D02*
X7665000Y-5875000D01*
X7665000Y-5925000D02*
X7695000Y-5955000D01*
X7695000Y-5925000D02*
X7665000Y-5955000D01*
X7665000Y-7885000D02*
X7695000Y-7915000D01*
X7695000Y-7885000D02*
X7665000Y-7915000D01*
X7665000Y-7965001D02*
X7695000Y-7995001D01*
X7695000Y-7965001D02*
X7665000Y-7995001D01*
X7665002Y-5585000D02*
X7695002Y-5615000D01*
X7695002Y-5585000D02*
X7665002Y-5615000D01*
X7885000Y-6405000D02*
X7915000Y-6435000D01*
X7915000Y-6405000D02*
X7885000Y-6435000D01*
X7885000Y-8405000D02*
X7915000Y-8435000D01*
X7915000Y-8405000D02*
X7885000Y-8435000D01*
X7925000Y-6285000D02*
X7955000Y-6315000D01*
X7955000Y-6285000D02*
X7925000Y-6315000D01*
X7925000Y-8285000D02*
X7955000Y-8315000D01*
X7955000Y-8285000D02*
X7925000Y-8315000D01*
X7965000Y-6165000D02*
X7995000Y-6195000D01*
X7995000Y-6165000D02*
X7965000Y-6195000D01*
X7965000Y-8165000D02*
X7995000Y-8195000D01*
X7995000Y-8165000D02*
X7965000Y-8195000D01*
X8005000Y-5345001D02*
X8035000Y-5375001D01*
X8035000Y-5345001D02*
X8005000Y-5375001D01*
X8005000Y-7345001D02*
X8035000Y-7375001D01*
X8035000Y-7345001D02*
X8005000Y-7375001D01*
X8085000Y-5385000D02*
X8115000Y-5415000D01*
X8115000Y-5385000D02*
X8085000Y-5415000D01*
X8085000Y-7385000D02*
X8115000Y-7415000D01*
X8115000Y-7385000D02*
X8085000Y-7415000D01*
X8105000Y-5465004D02*
X8135000Y-5495004D01*
X8135000Y-5465004D02*
X8105000Y-5495004D01*
X8105000Y-7465004D02*
X8135000Y-7495004D01*
X8135000Y-7465004D02*
X8105000Y-7495004D01*
X8560000Y-5785000D02*
X8590000Y-5815000D01*
X8590000Y-5785000D02*
X8560000Y-5815000D01*
X8560000Y-7785000D02*
X8590000Y-7815000D01*
X8590000Y-7785000D02*
X8560000Y-7815000D01*
X5275000Y-6165000D02*
X5305000Y-6195000D01*
X5305000Y-6165000D02*
X5275000Y-6195000D01*
X5275000Y-6285000D02*
X5305000Y-6315000D01*
X5305000Y-6285000D02*
X5275000Y-6315000D01*
X5275000Y-6405000D02*
X5305000Y-6435000D01*
X5305000Y-6405000D02*
X5275000Y-6435000D01*
X5345000Y-6165000D02*
X5375000Y-6195000D01*
X5375000Y-6165000D02*
X5345000Y-6195000D01*
X5345000Y-6285000D02*
X5375000Y-6315000D01*
X5375000Y-6285000D02*
X5345000Y-6315000D01*
X5345000Y-6405000D02*
X5375000Y-6435000D01*
X5375000Y-6405000D02*
X5345000Y-6435000D01*
X5415000Y-6165000D02*
X5445000Y-6195000D01*
X5445000Y-6165000D02*
X5415000Y-6195000D01*
X5415000Y-6285000D02*
X5445000Y-6315000D01*
X5445000Y-6285000D02*
X5415000Y-6315000D01*
X5415000Y-6405000D02*
X5445000Y-6435000D01*
X5445000Y-6405000D02*
X5415000Y-6435000D01*
X5485000Y-6165000D02*
X5515000Y-6195000D01*
X5515000Y-6165000D02*
X5485000Y-6195000D01*
X5485000Y-6285000D02*
X5515000Y-6315000D01*
X5515000Y-6285000D02*
X5485000Y-6315000D01*
X5485000Y-6405000D02*
X5515000Y-6435000D01*
X5515000Y-6405000D02*
X5485000Y-6435000D01*
X5555000Y-6165000D02*
X5585000Y-6195000D01*
X5585000Y-6165000D02*
X5555000Y-6195000D01*
X5555000Y-6285000D02*
X5585000Y-6315000D01*
X5585000Y-6285000D02*
X5555000Y-6315000D01*
X5555000Y-6405000D02*
X5585000Y-6435000D01*
X5585000Y-6405000D02*
X5555000Y-6435000D01*
X7275000Y-8165000D02*
X7305000Y-8195000D01*
X7305000Y-8165000D02*
X7275000Y-8195000D01*
X7275000Y-8285000D02*
X7305000Y-8315000D01*
X7305000Y-8285000D02*
X7275000Y-8315000D01*
X7275000Y-8405000D02*
X7305000Y-8435000D01*
X7305000Y-8405000D02*
X7275000Y-8435000D01*
X7345000Y-8165000D02*
X7375000Y-8195000D01*
X7375000Y-8165000D02*
X7345000Y-8195000D01*
X7345000Y-8285000D02*
X7375000Y-8315000D01*
X7375000Y-8285000D02*
X7345000Y-8315000D01*
X7345000Y-8405000D02*
X7375000Y-8435000D01*
X7375000Y-8405000D02*
X7345000Y-8435000D01*
X7415000Y-8165000D02*
X7445000Y-8195000D01*
X7445000Y-8165000D02*
X7415000Y-8195000D01*
X7415000Y-8285000D02*
X7445000Y-8315000D01*
X7445000Y-8285000D02*
X7415000Y-8315000D01*
X7415000Y-8405000D02*
X7445000Y-8435000D01*
X7445000Y-8405000D02*
X7415000Y-8435000D01*
X7485000Y-8165000D02*
X7515000Y-8195000D01*
X7515000Y-8165000D02*
X7485000Y-8195000D01*
X7485000Y-8285000D02*
X7515000Y-8315000D01*
X7515000Y-8285000D02*
X7485000Y-8315000D01*
X7485000Y-8405000D02*
X7515000Y-8435000D01*
X7515000Y-8405000D02*
X7485000Y-8435000D01*
X7555000Y-8165000D02*
X7585000Y-8195000D01*
X7585000Y-8165000D02*
X7555000Y-8195000D01*
X7555000Y-8285000D02*
X7585000Y-8315000D01*
X7585000Y-8285000D02*
X7555000Y-8315000D01*
X7555000Y-8405000D02*
X7585000Y-8435000D01*
X7585000Y-8405000D02*
X7555000Y-8435000D01*
X6275000Y-6165000D02*
X6305000Y-6195000D01*
X6305000Y-6165000D02*
X6275000Y-6195000D01*
X6275000Y-6285000D02*
X6305000Y-6315000D01*
X6305000Y-6285000D02*
X6275000Y-6315000D01*
X6275000Y-6405000D02*
X6305000Y-6435000D01*
X6305000Y-6405000D02*
X6275000Y-6435000D01*
X6345000Y-6165000D02*
X6375000Y-6195000D01*
X6375000Y-6165000D02*
X6345000Y-6195000D01*
X6345000Y-6285000D02*
X6375000Y-6315000D01*
X6375000Y-6285000D02*
X6345000Y-6315000D01*
X6345000Y-6405000D02*
X6375000Y-6435000D01*
X6375000Y-6405000D02*
X6345000Y-6435000D01*
X6415000Y-6165000D02*
X6445000Y-6195000D01*
X6445000Y-6165000D02*
X6415000Y-6195000D01*
X6415000Y-6285000D02*
X6445000Y-6315000D01*
X6445000Y-6285000D02*
X6415000Y-6315000D01*
X6415000Y-6405000D02*
X6445000Y-6435000D01*
X6445000Y-6405000D02*
X6415000Y-6435000D01*
X6485000Y-6165000D02*
X6515000Y-6195000D01*
X6515000Y-6165000D02*
X6485000Y-6195000D01*
X6485000Y-6285000D02*
X6515000Y-6315000D01*
X6515000Y-6285000D02*
X6485000Y-6315000D01*
X6485000Y-6405000D02*
X6515000Y-6435000D01*
X6515000Y-6405000D02*
X6485000Y-6435000D01*
X6555000Y-6165000D02*
X6585000Y-6195000D01*
X6585000Y-6165000D02*
X6555000Y-6195000D01*
X6555000Y-6285000D02*
X6585000Y-6315000D01*
X6585000Y-6285000D02*
X6555000Y-6315000D01*
X6555000Y-6405000D02*
X6585000Y-6435000D01*
X6585000Y-6405000D02*
X6555000Y-6435000D01*
X7275000Y-7165000D02*
X7305000Y-7195000D01*
X7305000Y-7165000D02*
X7275000Y-7195000D01*
X7275000Y-7285000D02*
X7305000Y-7315000D01*
X7305000Y-7285000D02*
X7275000Y-7315000D01*
X7275000Y-7405000D02*
X7305000Y-7435000D01*
X7305000Y-7405000D02*
X7275000Y-7435000D01*
X7345000Y-7165000D02*
X7375000Y-7195000D01*
X7375000Y-7165000D02*
X7345000Y-7195000D01*
X7345000Y-7285000D02*
X7375000Y-7315000D01*
X7375000Y-7285000D02*
X7345000Y-7315000D01*
X7345000Y-7405000D02*
X7375000Y-7435000D01*
X7375000Y-7405000D02*
X7345000Y-7435000D01*
X7415000Y-7165000D02*
X7445000Y-7195000D01*
X7445000Y-7165000D02*
X7415000Y-7195000D01*
X7415000Y-7285000D02*
X7445000Y-7315000D01*
X7445000Y-7285000D02*
X7415000Y-7315000D01*
X7415000Y-7405000D02*
X7445000Y-7435000D01*
X7445000Y-7405000D02*
X7415000Y-7435000D01*
X7485000Y-7165000D02*
X7515000Y-7195000D01*
X7515000Y-7165000D02*
X7485000Y-7195000D01*
X7485000Y-7285000D02*
X7515000Y-7315000D01*
X7515000Y-7285000D02*
X7485000Y-7315000D01*
X7485000Y-7405000D02*
X7515000Y-7435000D01*
X7515000Y-7405000D02*
X7485000Y-7435000D01*
X7555000Y-7165000D02*
X7585000Y-7195000D01*
X7585000Y-7165000D02*
X7555000Y-7195000D01*
X7555000Y-7285000D02*
X7585000Y-7315000D01*
X7585000Y-7285000D02*
X7555000Y-7315000D01*
X7555000Y-7405000D02*
X7585000Y-7435000D01*
X7585000Y-7405000D02*
X7555000Y-7435000D01*
X7275000Y-6165000D02*
X7305000Y-6195000D01*
X7305000Y-6165000D02*
X7275000Y-6195000D01*
X7275000Y-6285000D02*
X7305000Y-6315000D01*
X7305000Y-6285000D02*
X7275000Y-6315000D01*
X7275000Y-6405000D02*
X7305000Y-6435000D01*
X7305000Y-6405000D02*
X7275000Y-6435000D01*
X7345000Y-6165000D02*
X7375000Y-6195000D01*
X7375000Y-6165000D02*
X7345000Y-6195000D01*
X7345000Y-6285000D02*
X7375000Y-6315000D01*
X7375000Y-6285000D02*
X7345000Y-6315000D01*
X7345000Y-6405000D02*
X7375000Y-6435000D01*
X7375000Y-6405000D02*
X7345000Y-6435000D01*
X7415000Y-6165000D02*
X7445000Y-6195000D01*
X7445000Y-6165000D02*
X7415000Y-6195000D01*
X7415000Y-6285000D02*
X7445000Y-6315000D01*
X7445000Y-6285000D02*
X7415000Y-6315000D01*
X7415000Y-6405000D02*
X7445000Y-6435000D01*
X7445000Y-6405000D02*
X7415000Y-6435000D01*
X7485000Y-6165000D02*
X7515000Y-6195000D01*
X7515000Y-6165000D02*
X7485000Y-6195000D01*
X7485000Y-6285000D02*
X7515000Y-6315000D01*
X7515000Y-6285000D02*
X7485000Y-6315000D01*
X7485000Y-6405000D02*
X7515000Y-6435000D01*
X7515000Y-6405000D02*
X7485000Y-6435000D01*
X7555000Y-6165000D02*
X7585000Y-6195000D01*
X7585000Y-6165000D02*
X7555000Y-6195000D01*
X7555000Y-6285000D02*
X7585000Y-6315000D01*
X7585000Y-6285000D02*
X7555000Y-6315000D01*
X7555000Y-6405000D02*
X7585000Y-6435000D01*
X7585000Y-6405000D02*
X7555000Y-6435000D01*
X7275000Y-5165000D02*
X7305000Y-5195000D01*
X7305000Y-5165000D02*
X7275000Y-5195000D01*
X7275000Y-5285000D02*
X7305000Y-5315000D01*
X7305000Y-5285000D02*
X7275000Y-5315000D01*
X7275000Y-5405000D02*
X7305000Y-5435000D01*
X7305000Y-5405000D02*
X7275000Y-5435000D01*
X7345000Y-5165000D02*
X7375000Y-5195000D01*
X7375000Y-5165000D02*
X7345000Y-5195000D01*
X7345000Y-5285000D02*
X7375000Y-5315000D01*
X7375000Y-5285000D02*
X7345000Y-5315000D01*
X7345000Y-5405000D02*
X7375000Y-5435000D01*
X7375000Y-5405000D02*
X7345000Y-5435000D01*
X7415000Y-5165000D02*
X7445000Y-5195000D01*
X7445000Y-5165000D02*
X7415000Y-5195000D01*
X7415000Y-5285000D02*
X7445000Y-5315000D01*
X7445000Y-5285000D02*
X7415000Y-5315000D01*
X7415000Y-5405000D02*
X7445000Y-5435000D01*
X7445000Y-5405000D02*
X7415000Y-5435000D01*
X7485000Y-5165000D02*
X7515000Y-5195000D01*
X7515000Y-5165000D02*
X7485000Y-5195000D01*
X7485000Y-5285000D02*
X7515000Y-5315000D01*
X7515000Y-5285000D02*
X7485000Y-5315000D01*
X7485000Y-5405000D02*
X7515000Y-5435000D01*
X7515000Y-5405000D02*
X7485000Y-5435000D01*
X7555000Y-5165000D02*
X7585000Y-5195000D01*
X7585000Y-5165000D02*
X7555000Y-5195000D01*
X7555000Y-5285000D02*
X7585000Y-5315000D01*
X7585000Y-5285000D02*
X7555000Y-5315000D01*
X7555000Y-5405000D02*
X7585000Y-5435000D01*
X7585000Y-5405000D02*
X7555000Y-5435000D01*
X8275000Y-7165000D02*
X8305000Y-7195000D01*
X8305000Y-7165000D02*
X8275000Y-7195000D01*
X8275000Y-7285000D02*
X8305000Y-7315000D01*
X8305000Y-7285000D02*
X8275000Y-7315000D01*
X8275000Y-7405000D02*
X8305000Y-7435000D01*
X8305000Y-7405000D02*
X8275000Y-7435000D01*
X8345000Y-7165000D02*
X8375000Y-7195000D01*
X8375000Y-7165000D02*
X8345000Y-7195000D01*
X8345000Y-7285000D02*
X8375000Y-7315000D01*
X8375000Y-7285000D02*
X8345000Y-7315000D01*
X8345000Y-7405000D02*
X8375000Y-7435000D01*
X8375000Y-7405000D02*
X8345000Y-7435000D01*
X8415000Y-7165000D02*
X8445000Y-7195000D01*
X8445000Y-7165000D02*
X8415000Y-7195000D01*
X8415000Y-7285000D02*
X8445000Y-7315000D01*
X8445000Y-7285000D02*
X8415000Y-7315000D01*
X8415000Y-7405000D02*
X8445000Y-7435000D01*
X8445000Y-7405000D02*
X8415000Y-7435000D01*
X8485000Y-7165000D02*
X8515000Y-7195000D01*
X8515000Y-7165000D02*
X8485000Y-7195000D01*
X8485000Y-7285000D02*
X8515000Y-7315000D01*
X8515000Y-7285000D02*
X8485000Y-7315000D01*
X8485000Y-7405000D02*
X8515000Y-7435000D01*
X8515000Y-7405000D02*
X8485000Y-7435000D01*
X8555000Y-7165000D02*
X8585000Y-7195000D01*
X8585000Y-7165000D02*
X8555000Y-7195000D01*
X8555000Y-7285000D02*
X8585000Y-7315000D01*
X8585000Y-7285000D02*
X8555000Y-7315000D01*
X8555000Y-7405000D02*
X8585000Y-7435000D01*
X8585000Y-7405000D02*
X8555000Y-7435000D01*
X6275000Y-8165000D02*
X6305000Y-8195000D01*
X6305000Y-8165000D02*
X6275000Y-8195000D01*
X6275000Y-8285000D02*
X6305000Y-8315000D01*
X6305000Y-8285000D02*
X6275000Y-8315000D01*
X6275000Y-8405000D02*
X6305000Y-8435000D01*
X6305000Y-8405000D02*
X6275000Y-8435000D01*
X6345000Y-8165000D02*
X6375000Y-8195000D01*
X6375000Y-8165000D02*
X6345000Y-8195000D01*
X6345000Y-8285000D02*
X6375000Y-8315000D01*
X6375000Y-8285000D02*
X6345000Y-8315000D01*
X6345000Y-8405000D02*
X6375000Y-8435000D01*
X6375000Y-8405000D02*
X6345000Y-8435000D01*
X6415000Y-8165000D02*
X6445000Y-8195000D01*
X6445000Y-8165000D02*
X6415000Y-8195000D01*
X6415000Y-8285000D02*
X6445000Y-8315000D01*
X6445000Y-8285000D02*
X6415000Y-8315000D01*
X6415000Y-8405000D02*
X6445000Y-8435000D01*
X6445000Y-8405000D02*
X6415000Y-8435000D01*
X6485000Y-8165000D02*
X6515000Y-8195000D01*
X6515000Y-8165000D02*
X6485000Y-8195000D01*
X6485000Y-8285000D02*
X6515000Y-8315000D01*
X6515000Y-8285000D02*
X6485000Y-8315000D01*
X6485000Y-8405000D02*
X6515000Y-8435000D01*
X6515000Y-8405000D02*
X6485000Y-8435000D01*
X6555000Y-8165000D02*
X6585000Y-8195000D01*
X6585000Y-8165000D02*
X6555000Y-8195000D01*
X6555000Y-8285000D02*
X6585000Y-8315000D01*
X6585000Y-8285000D02*
X6555000Y-8315000D01*
X6555000Y-8405000D02*
X6585000Y-8435000D01*
X6585000Y-8405000D02*
X6555000Y-8435000D01*
X8275000Y-8165000D02*
X8305000Y-8195000D01*
X8305000Y-8165000D02*
X8275000Y-8195000D01*
X8275000Y-8285000D02*
X8305000Y-8315000D01*
X8305000Y-8285000D02*
X8275000Y-8315000D01*
X8275000Y-8405000D02*
X8305000Y-8435000D01*
X8305000Y-8405000D02*
X8275000Y-8435000D01*
X8345000Y-8165000D02*
X8375000Y-8195000D01*
X8375000Y-8165000D02*
X8345000Y-8195000D01*
X8345000Y-8285000D02*
X8375000Y-8315000D01*
X8375000Y-8285000D02*
X8345000Y-8315000D01*
X8345000Y-8405000D02*
X8375000Y-8435000D01*
X8375000Y-8405000D02*
X8345000Y-8435000D01*
X8415000Y-8165000D02*
X8445000Y-8195000D01*
X8445000Y-8165000D02*
X8415000Y-8195000D01*
X8415000Y-8285000D02*
X8445000Y-8315000D01*
X8445000Y-8285000D02*
X8415000Y-8315000D01*
X8415000Y-8405000D02*
X8445000Y-8435000D01*
X8445000Y-8405000D02*
X8415000Y-8435000D01*
X8485000Y-8165000D02*
X8515000Y-8195000D01*
X8515000Y-8165000D02*
X8485000Y-8195000D01*
X8485000Y-8285000D02*
X8515000Y-8315000D01*
X8515000Y-8285000D02*
X8485000Y-8315000D01*
X8485000Y-8405000D02*
X8515000Y-8435000D01*
X8515000Y-8405000D02*
X8485000Y-8435000D01*
X8555000Y-8165000D02*
X8585000Y-8195000D01*
X8585000Y-8165000D02*
X8555000Y-8195000D01*
X8555000Y-8285000D02*
X8585000Y-8315000D01*
X8585000Y-8285000D02*
X8555000Y-8315000D01*
X8555000Y-8405000D02*
X8585000Y-8435000D01*
X8585000Y-8405000D02*
X8555000Y-8435000D01*
X7895000Y-5695000D02*
X7925000Y-5725000D01*
X7925000Y-5695000D02*
X7895000Y-5725000D01*
X7895000Y-5785000D02*
X7925000Y-5815000D01*
X7925000Y-5785000D02*
X7895000Y-5815000D01*
X7895000Y-5875000D02*
X7925000Y-5905000D01*
X7925000Y-5875000D02*
X7895000Y-5905000D01*
X7985000Y-5695000D02*
X8015000Y-5725000D01*
X8015000Y-5695000D02*
X7985000Y-5725000D01*
X7985000Y-5785000D02*
X8015000Y-5815000D01*
X8015000Y-5785000D02*
X7985000Y-5815000D01*
X7985000Y-5875000D02*
X8015000Y-5905000D01*
X8015000Y-5875000D02*
X7985000Y-5905000D01*
X8075000Y-5695000D02*
X8105000Y-5725000D01*
X8105000Y-5695000D02*
X8075000Y-5725000D01*
X8075000Y-5785000D02*
X8105000Y-5815000D01*
X8105000Y-5785000D02*
X8075000Y-5815000D01*
X8075000Y-5875000D02*
X8105000Y-5905000D01*
X8105000Y-5875000D02*
X8075000Y-5905000D01*
X5275000Y-7165000D02*
X5305000Y-7195000D01*
X5305000Y-7165000D02*
X5275000Y-7195000D01*
X5275000Y-7285000D02*
X5305000Y-7315000D01*
X5305000Y-7285000D02*
X5275000Y-7315000D01*
X5275000Y-7405000D02*
X5305000Y-7435000D01*
X5305000Y-7405000D02*
X5275000Y-7435000D01*
X5345000Y-7165000D02*
X5375000Y-7195000D01*
X5375000Y-7165000D02*
X5345000Y-7195000D01*
X5345000Y-7285000D02*
X5375000Y-7315000D01*
X5375000Y-7285000D02*
X5345000Y-7315000D01*
X5345000Y-7405000D02*
X5375000Y-7435000D01*
X5375000Y-7405000D02*
X5345000Y-7435000D01*
X5415000Y-7165000D02*
X5445000Y-7195000D01*
X5445000Y-7165000D02*
X5415000Y-7195000D01*
X5415000Y-7285000D02*
X5445000Y-7315000D01*
X5445000Y-7285000D02*
X5415000Y-7315000D01*
X5415000Y-7405000D02*
X5445000Y-7435000D01*
X5445000Y-7405000D02*
X5415000Y-7435000D01*
X5485000Y-7165000D02*
X5515000Y-7195000D01*
X5515000Y-7165000D02*
X5485000Y-7195000D01*
X5485000Y-7285000D02*
X5515000Y-7315000D01*
X5515000Y-7285000D02*
X5485000Y-7315000D01*
X5485000Y-7405000D02*
X5515000Y-7435000D01*
X5515000Y-7405000D02*
X5485000Y-7435000D01*
X5555000Y-7165000D02*
X5585000Y-7195000D01*
X5585000Y-7165000D02*
X5555000Y-7195000D01*
X5555000Y-7285000D02*
X5585000Y-7315000D01*
X5585000Y-7285000D02*
X5555000Y-7315000D01*
X5555000Y-7405000D02*
X5585000Y-7435000D01*
X5585000Y-7405000D02*
X5555000Y-7435000D01*
X5895000Y-5695000D02*
X5925000Y-5725000D01*
X5925000Y-5695000D02*
X5895000Y-5725000D01*
X5895000Y-5785000D02*
X5925000Y-5815000D01*
X5925000Y-5785000D02*
X5895000Y-5815000D01*
X5895000Y-5875000D02*
X5925000Y-5905000D01*
X5925000Y-5875000D02*
X5895000Y-5905000D01*
X5985000Y-5695000D02*
X6015000Y-5725000D01*
X6015000Y-5695000D02*
X5985000Y-5725000D01*
X5985000Y-5785000D02*
X6015000Y-5815000D01*
X6015000Y-5785000D02*
X5985000Y-5815000D01*
X5985000Y-5875000D02*
X6015000Y-5905000D01*
X6015000Y-5875000D02*
X5985000Y-5905000D01*
X6075000Y-5695000D02*
X6105000Y-5725000D01*
X6105000Y-5695000D02*
X6075000Y-5725000D01*
X6075000Y-5785000D02*
X6105000Y-5815000D01*
X6105000Y-5785000D02*
X6075000Y-5815000D01*
X6075000Y-5875000D02*
X6105000Y-5905000D01*
X6105000Y-5875000D02*
X6075000Y-5905000D01*
X5275000Y-5165000D02*
X5305000Y-5195000D01*
X5305000Y-5165000D02*
X5275000Y-5195000D01*
X5275000Y-5285000D02*
X5305000Y-5315000D01*
X5305000Y-5285000D02*
X5275000Y-5315000D01*
X5275000Y-5405000D02*
X5305000Y-5435000D01*
X5305000Y-5405000D02*
X5275000Y-5435000D01*
X5345000Y-5165000D02*
X5375000Y-5195000D01*
X5375000Y-5165000D02*
X5345000Y-5195000D01*
X5345000Y-5285000D02*
X5375000Y-5315000D01*
X5375000Y-5285000D02*
X5345000Y-5315000D01*
X5345000Y-5405000D02*
X5375000Y-5435000D01*
X5375000Y-5405000D02*
X5345000Y-5435000D01*
X5415000Y-5165000D02*
X5445000Y-5195000D01*
X5445000Y-5165000D02*
X5415000Y-5195000D01*
X5415000Y-5285000D02*
X5445000Y-5315000D01*
X5445000Y-5285000D02*
X5415000Y-5315000D01*
X5415000Y-5405000D02*
X5445000Y-5435000D01*
X5445000Y-5405000D02*
X5415000Y-5435000D01*
X5485000Y-5165000D02*
X5515000Y-5195000D01*
X5515000Y-5165000D02*
X5485000Y-5195000D01*
X5485000Y-5285000D02*
X5515000Y-5315000D01*
X5515000Y-5285000D02*
X5485000Y-5315000D01*
X5485000Y-5405000D02*
X5515000Y-5435000D01*
X5515000Y-5405000D02*
X5485000Y-5435000D01*
X5555000Y-5165000D02*
X5585000Y-5195000D01*
X5585000Y-5165000D02*
X5555000Y-5195000D01*
X5555000Y-5285000D02*
X5585000Y-5315000D01*
X5585000Y-5285000D02*
X5555000Y-5315000D01*
X5555000Y-5405000D02*
X5585000Y-5435000D01*
X5585000Y-5405000D02*
X5555000Y-5435000D01*
X6275000Y-7165000D02*
X6305000Y-7195000D01*
X6305000Y-7165000D02*
X6275000Y-7195000D01*
X6275000Y-7285000D02*
X6305000Y-7315000D01*
X6305000Y-7285000D02*
X6275000Y-7315000D01*
X6275000Y-7405000D02*
X6305000Y-7435000D01*
X6305000Y-7405000D02*
X6275000Y-7435000D01*
X6345000Y-7165000D02*
X6375000Y-7195000D01*
X6375000Y-7165000D02*
X6345000Y-7195000D01*
X6345000Y-7285000D02*
X6375000Y-7315000D01*
X6375000Y-7285000D02*
X6345000Y-7315000D01*
X6345000Y-7405000D02*
X6375000Y-7435000D01*
X6375000Y-7405000D02*
X6345000Y-7435000D01*
X6415000Y-7165000D02*
X6445000Y-7195000D01*
X6445000Y-7165000D02*
X6415000Y-7195000D01*
X6415000Y-7285000D02*
X6445000Y-7315000D01*
X6445000Y-7285000D02*
X6415000Y-7315000D01*
X6415000Y-7405000D02*
X6445000Y-7435000D01*
X6445000Y-7405000D02*
X6415000Y-7435000D01*
X6485000Y-7165000D02*
X6515000Y-7195000D01*
X6515000Y-7165000D02*
X6485000Y-7195000D01*
X6485000Y-7285000D02*
X6515000Y-7315000D01*
X6515000Y-7285000D02*
X6485000Y-7315000D01*
X6485000Y-7405000D02*
X6515000Y-7435000D01*
X6515000Y-7405000D02*
X6485000Y-7435000D01*
X6555000Y-7165000D02*
X6585000Y-7195000D01*
X6585000Y-7165000D02*
X6555000Y-7195000D01*
X6555000Y-7285000D02*
X6585000Y-7315000D01*
X6585000Y-7285000D02*
X6555000Y-7315000D01*
X6555000Y-7405000D02*
X6585000Y-7435000D01*
X6585000Y-7405000D02*
X6555000Y-7435000D01*
X6275000Y-5165000D02*
X6305000Y-5195000D01*
X6305000Y-5165000D02*
X6275000Y-5195000D01*
X6275000Y-5285000D02*
X6305000Y-5315000D01*
X6305000Y-5285000D02*
X6275000Y-5315000D01*
X6275000Y-5405000D02*
X6305000Y-5435000D01*
X6305000Y-5405000D02*
X6275000Y-5435000D01*
X6345000Y-5165000D02*
X6375000Y-5195000D01*
X6375000Y-5165000D02*
X6345000Y-5195000D01*
X6345000Y-5285000D02*
X6375000Y-5315000D01*
X6375000Y-5285000D02*
X6345000Y-5315000D01*
X6345000Y-5405000D02*
X6375000Y-5435000D01*
X6375000Y-5405000D02*
X6345000Y-5435000D01*
X6415000Y-5165000D02*
X6445000Y-5195000D01*
X6445000Y-5165000D02*
X6415000Y-5195000D01*
X6415000Y-5285000D02*
X6445000Y-5315000D01*
X6445000Y-5285000D02*
X6415000Y-5315000D01*
X6415000Y-5405000D02*
X6445000Y-5435000D01*
X6445000Y-5405000D02*
X6415000Y-5435000D01*
X6485000Y-5165000D02*
X6515000Y-5195000D01*
X6515000Y-5165000D02*
X6485000Y-5195000D01*
X6485000Y-5285000D02*
X6515000Y-5315000D01*
X6515000Y-5285000D02*
X6485000Y-5315000D01*
X6485000Y-5405000D02*
X6515000Y-5435000D01*
X6515000Y-5405000D02*
X6485000Y-5435000D01*
X6555000Y-5165000D02*
X6585000Y-5195000D01*
X6585000Y-5165000D02*
X6555000Y-5195000D01*
X6555000Y-5285000D02*
X6585000Y-5315000D01*
X6585000Y-5285000D02*
X6555000Y-5315000D01*
X6555000Y-5405000D02*
X6585000Y-5435000D01*
X6585000Y-5405000D02*
X6555000Y-5435000D01*
X5275000Y-8165000D02*
X5305000Y-8195000D01*
X5305000Y-8165000D02*
X5275000Y-8195000D01*
X5275000Y-8285000D02*
X5305000Y-8315000D01*
X5305000Y-8285000D02*
X5275000Y-8315000D01*
X5275000Y-8405000D02*
X5305000Y-8435000D01*
X5305000Y-8405000D02*
X5275000Y-8435000D01*
X5345000Y-8165000D02*
X5375000Y-8195000D01*
X5375000Y-8165000D02*
X5345000Y-8195000D01*
X5345000Y-8285000D02*
X5375000Y-8315000D01*
X5375000Y-8285000D02*
X5345000Y-8315000D01*
X5345000Y-8405000D02*
X5375000Y-8435000D01*
X5375000Y-8405000D02*
X5345000Y-8435000D01*
X5415000Y-8165000D02*
X5445000Y-8195000D01*
X5445000Y-8165000D02*
X5415000Y-8195000D01*
X5415000Y-8285000D02*
X5445000Y-8315000D01*
X5445000Y-8285000D02*
X5415000Y-8315000D01*
X5415000Y-8405000D02*
X5445000Y-8435000D01*
X5445000Y-8405000D02*
X5415000Y-8435000D01*
X5485000Y-8165000D02*
X5515000Y-8195000D01*
X5515000Y-8165000D02*
X5485000Y-8195000D01*
X5485000Y-8285000D02*
X5515000Y-8315000D01*
X5515000Y-8285000D02*
X5485000Y-8315000D01*
X5485000Y-8405000D02*
X5515000Y-8435000D01*
X5515000Y-8405000D02*
X5485000Y-8435000D01*
X5555000Y-8165000D02*
X5585000Y-8195000D01*
X5585000Y-8165000D02*
X5555000Y-8195000D01*
X5555000Y-8285000D02*
X5585000Y-8315000D01*
X5585000Y-8285000D02*
X5555000Y-8315000D01*
X5555000Y-8405000D02*
X5585000Y-8435000D01*
X5585000Y-8405000D02*
X5555000Y-8435000D01*
X8275000Y-5165000D02*
X8305000Y-5195000D01*
X8305000Y-5165000D02*
X8275000Y-5195000D01*
X8275000Y-5285000D02*
X8305000Y-5315000D01*
X8305000Y-5285000D02*
X8275000Y-5315000D01*
X8275000Y-5405000D02*
X8305000Y-5435000D01*
X8305000Y-5405000D02*
X8275000Y-5435000D01*
X8345000Y-5165000D02*
X8375000Y-5195000D01*
X8375000Y-5165000D02*
X8345000Y-5195000D01*
X8345000Y-5285000D02*
X8375000Y-5315000D01*
X8375000Y-5285000D02*
X8345000Y-5315000D01*
X8345000Y-5405000D02*
X8375000Y-5435000D01*
X8375000Y-5405000D02*
X8345000Y-5435000D01*
X8415000Y-5165000D02*
X8445000Y-5195000D01*
X8445000Y-5165000D02*
X8415000Y-5195000D01*
X8415000Y-5285000D02*
X8445000Y-5315000D01*
X8445000Y-5285000D02*
X8415000Y-5315000D01*
X8415000Y-5405000D02*
X8445000Y-5435000D01*
X8445000Y-5405000D02*
X8415000Y-5435000D01*
X8485000Y-5165000D02*
X8515000Y-5195000D01*
X8515000Y-5165000D02*
X8485000Y-5195000D01*
X8485000Y-5285000D02*
X8515000Y-5315000D01*
X8515000Y-5285000D02*
X8485000Y-5315000D01*
X8485000Y-5405000D02*
X8515000Y-5435000D01*
X8515000Y-5405000D02*
X8485000Y-5435000D01*
X8555000Y-5165000D02*
X8585000Y-5195000D01*
X8585000Y-5165000D02*
X8555000Y-5195000D01*
X8555000Y-5285000D02*
X8585000Y-5315000D01*
X8585000Y-5285000D02*
X8555000Y-5315000D01*
X8555000Y-5405000D02*
X8585000Y-5435000D01*
X8585000Y-5405000D02*
X8555000Y-5435000D01*
X7895000Y-7695000D02*
X7925000Y-7725000D01*
X7925000Y-7695000D02*
X7895000Y-7725000D01*
X7895000Y-7785000D02*
X7925000Y-7815000D01*
X7925000Y-7785000D02*
X7895000Y-7815000D01*
X7895000Y-7875000D02*
X7925000Y-7905000D01*
X7925000Y-7875000D02*
X7895000Y-7905000D01*
X7985000Y-7695000D02*
X8015000Y-7725000D01*
X8015000Y-7695000D02*
X7985000Y-7725000D01*
X7985000Y-7785000D02*
X8015000Y-7815000D01*
X8015000Y-7785000D02*
X7985000Y-7815000D01*
X7985000Y-7875000D02*
X8015000Y-7905000D01*
X8015000Y-7875000D02*
X7985000Y-7905000D01*
X8075000Y-7695000D02*
X8105000Y-7725000D01*
X8105000Y-7695000D02*
X8075000Y-7725000D01*
X8075000Y-7785000D02*
X8105000Y-7815000D01*
X8105000Y-7785000D02*
X8075000Y-7815000D01*
X8075000Y-7875000D02*
X8105000Y-7905000D01*
X8105000Y-7875000D02*
X8075000Y-7905000D01*
X8275000Y-6165000D02*
X8305000Y-6195000D01*
X8305000Y-6165000D02*
X8275000Y-6195000D01*
X8275000Y-6285000D02*
X8305000Y-6315000D01*
X8305000Y-6285000D02*
X8275000Y-6315000D01*
X8275000Y-6405000D02*
X8305000Y-6435000D01*
X8305000Y-6405000D02*
X8275000Y-6435000D01*
X8345000Y-6165000D02*
X8375000Y-6195000D01*
X8375000Y-6165000D02*
X8345000Y-6195000D01*
X8345000Y-6285000D02*
X8375000Y-6315000D01*
X8375000Y-6285000D02*
X8345000Y-6315000D01*
X8345000Y-6405000D02*
X8375000Y-6435000D01*
X8375000Y-6405000D02*
X8345000Y-6435000D01*
X8415000Y-6165000D02*
X8445000Y-6195000D01*
X8445000Y-6165000D02*
X8415000Y-6195000D01*
X8415000Y-6285000D02*
X8445000Y-6315000D01*
X8445000Y-6285000D02*
X8415000Y-6315000D01*
X8415000Y-6405000D02*
X8445000Y-6435000D01*
X8445000Y-6405000D02*
X8415000Y-6435000D01*
X8485000Y-6165000D02*
X8515000Y-6195000D01*
X8515000Y-6165000D02*
X8485000Y-6195000D01*
X8485000Y-6285000D02*
X8515000Y-6315000D01*
X8515000Y-6285000D02*
X8485000Y-6315000D01*
X8485000Y-6405000D02*
X8515000Y-6435000D01*
X8515000Y-6405000D02*
X8485000Y-6435000D01*
X8555000Y-6165000D02*
X8585000Y-6195000D01*
X8585000Y-6165000D02*
X8555000Y-6195000D01*
X8555000Y-6285000D02*
X8585000Y-6315000D01*
X8585000Y-6285000D02*
X8555000Y-6315000D01*
X8555000Y-6405000D02*
X8585000Y-6435000D01*
X8585000Y-6405000D02*
X8555000Y-6435000D01*
X5895000Y-7695000D02*
X5925000Y-7725000D01*
X5925000Y-7695000D02*
X5895000Y-7725000D01*
X5895000Y-7785000D02*
X5925000Y-7815000D01*
X5925000Y-7785000D02*
X5895000Y-7815000D01*
X5895000Y-7875000D02*
X5925000Y-7905000D01*
X5925000Y-7875000D02*
X5895000Y-7905000D01*
X5985000Y-7695000D02*
X6015000Y-7725000D01*
X6015000Y-7695000D02*
X5985000Y-7725000D01*
X5985000Y-7785000D02*
X6015000Y-7815000D01*
X6015000Y-7785000D02*
X5985000Y-7815000D01*
X5985000Y-7875000D02*
X6015000Y-7905000D01*
X6015000Y-7875000D02*
X5985000Y-7905000D01*
X6075000Y-7695000D02*
X6105000Y-7725000D01*
X6105000Y-7695000D02*
X6075000Y-7725000D01*
X6075000Y-7785000D02*
X6105000Y-7815000D01*
X6105000Y-7785000D02*
X6075000Y-7815000D01*
X6075000Y-7875000D02*
X6105000Y-7905000D01*
X6105000Y-7875000D02*
X6075000Y-7905000D01*
X5653000Y-8800000D02*
G75*
G03X5653000Y-8800000I-50000J0D01*
G01*
X5907000Y-8800000D02*
G75*
G03X5907000Y-8800000I-50000J0D01*
G01*
X6161000Y-8800000D02*
G75*
G03X6161000Y-8800000I-50000J0D01*
G01*
X7939000Y-8800000D02*
G75*
G03X7939000Y-8800000I-50000J0D01*
G01*
X8193000Y-8800000D02*
G75*
G03X8193000Y-8800000I-50000J0D01*
G01*
X8447000Y-8800000D02*
G75*
G03X8447000Y-8800000I-50000J0D01*
G01*
X6415000Y-8800000D02*
G75*
G03X6415000Y-8800000I-50000J0D01*
G01*
X6669000Y-8800000D02*
G75*
G03X6669000Y-8800000I-50000J0D01*
G01*
X6923000Y-8800000D02*
G75*
G03X6923000Y-8800000I-50000J0D01*
G01*
X7177000Y-8800000D02*
G75*
G03X7177000Y-8800000I-50000J0D01*
G01*
X7431000Y-8800000D02*
G75*
G03X7431000Y-8800000I-50000J0D01*
G01*
X7685000Y-8800000D02*
G75*
G03X7685000Y-8800000I-50000J0D01*
G01*
X8000000Y-6640000D02*
X8000000Y-6960000D01*
X7840000Y-6800000D02*
X8160000Y-6800000D01*
X6000000Y-6640000D02*
X6000000Y-6960000D01*
X5840000Y-6800000D02*
X6160000Y-6800000D01*
D12*
X5278928Y-9473214D02*
X5278928Y-9173214D01*
X5350357Y-9173214D01*
X5393214Y-9187500D01*
X5421786Y-9216072D01*
X5436071Y-9244643D01*
X5450357Y-9301786D01*
X5450357Y-9344643D01*
X5436071Y-9401786D01*
X5421786Y-9430357D01*
X5393214Y-9458929D01*
X5350357Y-9473214D01*
X5278928Y-9473214D01*
X5578928Y-9473214D02*
X5578928Y-9273214D01*
X5578928Y-9330357D02*
X5593214Y-9301786D01*
X5607500Y-9287500D01*
X5636071Y-9273214D01*
X5664643Y-9273214D01*
X5764643Y-9473214D02*
X5764643Y-9273214D01*
X5764643Y-9173214D02*
X5750357Y-9187500D01*
X5764643Y-9201786D01*
X5778928Y-9187500D01*
X5764643Y-9173214D01*
X5764643Y-9201786D01*
X5950357Y-9473214D02*
X5921786Y-9458929D01*
X5907500Y-9430357D01*
X5907500Y-9173214D01*
X6107500Y-9473214D02*
X6078928Y-9458929D01*
X6064643Y-9430357D01*
X6064643Y-9173214D01*
X6450357Y-9473214D02*
X6450357Y-9173214D01*
X6550357Y-9387500D01*
X6650357Y-9173214D01*
X6650357Y-9473214D01*
X6921786Y-9473214D02*
X6921786Y-9316072D01*
X6907500Y-9287500D01*
X6878928Y-9273214D01*
X6821786Y-9273214D01*
X6793214Y-9287500D01*
X6921786Y-9458929D02*
X6893214Y-9473214D01*
X6821786Y-9473214D01*
X6793214Y-9458929D01*
X6778928Y-9430357D01*
X6778928Y-9401786D01*
X6793214Y-9373214D01*
X6821786Y-9358929D01*
X6893214Y-9358929D01*
X6921786Y-9344643D01*
X7064643Y-9273214D02*
X7064643Y-9573214D01*
X7064643Y-9287500D02*
X7093214Y-9273214D01*
X7150357Y-9273214D01*
X7178928Y-9287500D01*
X7193214Y-9301786D01*
X7207500Y-9330357D01*
X7207500Y-9416072D01*
X7193214Y-9444643D01*
X7178928Y-9458929D01*
X7150357Y-9473214D01*
X7093214Y-9473214D01*
X7064643Y-9458929D01*
X7336071Y-9444643D02*
X7350357Y-9458929D01*
X7336071Y-9473214D01*
X7321786Y-9458929D01*
X7336071Y-9444643D01*
X7336071Y-9473214D01*
X7336071Y-9287500D02*
X7350357Y-9301786D01*
X7336071Y-9316072D01*
X7321786Y-9301786D01*
X7336071Y-9287500D01*
X7336071Y-9316072D01*
X4962500Y-9952500D02*
X4992500Y-9982500D01*
X4992500Y-9952500D02*
X4962500Y-9982500D01*
X5336071Y-9803214D02*
X5364643Y-9803214D01*
X5393214Y-9817500D01*
X5407500Y-9831786D01*
X5421786Y-9860357D01*
X5436071Y-9917500D01*
X5436071Y-9988929D01*
X5421786Y-10046072D01*
X5407500Y-10074643D01*
X5393214Y-10088929D01*
X5364643Y-10103214D01*
X5336071Y-10103214D01*
X5307500Y-10088929D01*
X5293214Y-10074643D01*
X5278928Y-10046072D01*
X5264643Y-9988929D01*
X5264643Y-9917500D01*
X5278928Y-9860357D01*
X5293214Y-9831786D01*
X5307500Y-9817500D01*
X5336071Y-9803214D01*
X5564643Y-10074643D02*
X5578928Y-10088929D01*
X5564643Y-10103214D01*
X5550357Y-10088929D01*
X5564643Y-10074643D01*
X5564643Y-10103214D01*
X5678928Y-9803214D02*
X5864643Y-9803214D01*
X5764643Y-9917500D01*
X5807500Y-9917500D01*
X5836071Y-9931786D01*
X5850357Y-9946072D01*
X5864643Y-9974643D01*
X5864643Y-10046072D01*
X5850357Y-10074643D01*
X5836071Y-10088929D01*
X5807500Y-10103214D01*
X5721786Y-10103214D01*
X5693214Y-10088929D01*
X5678928Y-10074643D01*
X6050357Y-9803214D02*
X6078928Y-9803214D01*
X6107500Y-9817500D01*
X6121786Y-9831786D01*
X6136071Y-9860357D01*
X6150357Y-9917500D01*
X6150357Y-9988929D01*
X6136071Y-10046072D01*
X6121786Y-10074643D01*
X6107500Y-10088929D01*
X6078928Y-10103214D01*
X6050357Y-10103214D01*
X6021786Y-10088929D01*
X6007500Y-10074643D01*
X5993214Y-10046072D01*
X5978928Y-9988929D01*
X5978928Y-9917500D01*
X5993214Y-9860357D01*
X6007500Y-9831786D01*
X6021786Y-9817500D01*
X6050357Y-9803214D01*
X6278928Y-10103214D02*
X6278928Y-9903214D01*
X6278928Y-9931786D02*
X6293214Y-9917500D01*
X6321786Y-9903214D01*
X6364643Y-9903214D01*
X6393214Y-9917500D01*
X6407500Y-9946072D01*
X6407500Y-10103214D01*
X6407500Y-9946072D02*
X6421786Y-9917500D01*
X6450357Y-9903214D01*
X6493214Y-9903214D01*
X6521786Y-9917500D01*
X6536071Y-9946072D01*
X6536071Y-10103214D01*
X6678928Y-10103214D02*
X6678928Y-9903214D01*
X6678928Y-9931786D02*
X6693214Y-9917500D01*
X6721786Y-9903214D01*
X6764643Y-9903214D01*
X6793214Y-9917500D01*
X6807500Y-9946072D01*
X6807500Y-10103214D01*
X6807500Y-9946072D02*
X6821786Y-9917500D01*
X6850357Y-9903214D01*
X6893214Y-9903214D01*
X6921786Y-9917500D01*
X6936071Y-9946072D01*
X6936071Y-10103214D01*
X7521786Y-9788929D02*
X7264643Y-10174643D01*
X7907500Y-9803214D02*
X7936071Y-9803214D01*
X7964643Y-9817500D01*
X7978928Y-9831786D01*
X7993214Y-9860357D01*
X8007500Y-9917500D01*
X8007500Y-9988929D01*
X7993214Y-10046072D01*
X7978928Y-10074643D01*
X7964643Y-10088929D01*
X7936071Y-10103214D01*
X7907500Y-10103214D01*
X7878928Y-10088929D01*
X7864643Y-10074643D01*
X7850357Y-10046072D01*
X7836071Y-9988929D01*
X7836071Y-9917500D01*
X7850357Y-9860357D01*
X7864643Y-9831786D01*
X7878928Y-9817500D01*
X7907500Y-9803214D01*
X8136071Y-10074643D02*
X8150357Y-10088929D01*
X8136071Y-10103214D01*
X8121786Y-10088929D01*
X8136071Y-10074643D01*
X8136071Y-10103214D01*
X8336071Y-9803214D02*
X8364643Y-9803214D01*
X8393214Y-9817500D01*
X8407500Y-9831786D01*
X8421786Y-9860357D01*
X8436071Y-9917500D01*
X8436071Y-9988929D01*
X8421786Y-10046072D01*
X8407500Y-10074643D01*
X8393214Y-10088929D01*
X8364643Y-10103214D01*
X8336071Y-10103214D01*
X8307500Y-10088929D01*
X8293214Y-10074643D01*
X8278928Y-10046072D01*
X8264643Y-9988929D01*
X8264643Y-9917500D01*
X8278928Y-9860357D01*
X8293214Y-9831786D01*
X8307500Y-9817500D01*
X8336071Y-9803214D01*
X8721786Y-10103214D02*
X8550357Y-10103214D01*
X8636071Y-10103214D02*
X8636071Y-9803214D01*
X8607500Y-9846072D01*
X8578928Y-9874643D01*
X8550357Y-9888929D01*
X8836071Y-9831786D02*
X8850357Y-9817500D01*
X8878928Y-9803214D01*
X8950357Y-9803214D01*
X8978928Y-9817500D01*
X8993214Y-9831786D01*
X9007500Y-9860357D01*
X9007500Y-9888929D01*
X8993214Y-9931786D01*
X8821786Y-10103214D01*
X9007500Y-10103214D01*
X9121786Y-9803214D02*
X9121786Y-9860357D01*
X9236071Y-9803214D02*
X9236071Y-9860357D01*
X9678928Y-10217500D02*
X9664643Y-10203214D01*
X9636071Y-10160357D01*
X9621786Y-10131786D01*
X9607500Y-10088929D01*
X9593214Y-10017500D01*
X9593214Y-9960357D01*
X9607500Y-9888929D01*
X9621786Y-9846072D01*
X9636071Y-9817500D01*
X9664643Y-9774643D01*
X9678928Y-9760357D01*
X9764643Y-9803214D02*
X9950357Y-9803214D01*
X9850357Y-9917500D01*
X9893214Y-9917500D01*
X9921786Y-9931786D01*
X9936071Y-9946072D01*
X9950357Y-9974643D01*
X9950357Y-10046072D01*
X9936071Y-10074643D01*
X9921786Y-10088929D01*
X9893214Y-10103214D01*
X9807500Y-10103214D01*
X9778928Y-10088929D01*
X9764643Y-10074643D01*
X10050357Y-9803214D02*
X10236071Y-9803214D01*
X10136071Y-9917500D01*
X10178928Y-9917500D01*
X10207500Y-9931786D01*
X10221786Y-9946072D01*
X10236071Y-9974643D01*
X10236071Y-10046072D01*
X10221786Y-10074643D01*
X10207500Y-10088929D01*
X10178928Y-10103214D01*
X10093214Y-10103214D01*
X10064643Y-10088929D01*
X10050357Y-10074643D01*
X10493214Y-9903214D02*
X10493214Y-10103214D01*
X10421786Y-9788929D02*
X10350357Y-10003214D01*
X10536071Y-10003214D01*
X10878928Y-10103214D02*
X10878928Y-9803214D01*
X11007500Y-10103214D02*
X11007500Y-9946072D01*
X10993214Y-9917500D01*
X10964643Y-9903214D01*
X10921786Y-9903214D01*
X10893214Y-9917500D01*
X10878928Y-9931786D01*
X11193214Y-10103214D02*
X11164643Y-10088929D01*
X11150357Y-10074643D01*
X11136071Y-10046072D01*
X11136071Y-9960357D01*
X11150357Y-9931786D01*
X11164643Y-9917500D01*
X11193214Y-9903214D01*
X11236071Y-9903214D01*
X11264643Y-9917500D01*
X11278928Y-9931786D01*
X11293214Y-9960357D01*
X11293214Y-10046072D01*
X11278928Y-10074643D01*
X11264643Y-10088929D01*
X11236071Y-10103214D01*
X11193214Y-10103214D01*
X11464643Y-10103214D02*
X11436071Y-10088929D01*
X11421786Y-10060357D01*
X11421786Y-9803214D01*
X11693214Y-10088929D02*
X11664643Y-10103214D01*
X11607500Y-10103214D01*
X11578928Y-10088929D01*
X11564643Y-10060357D01*
X11564643Y-9946072D01*
X11578928Y-9917500D01*
X11607500Y-9903214D01*
X11664643Y-9903214D01*
X11693214Y-9917500D01*
X11707500Y-9946072D01*
X11707500Y-9974643D01*
X11564643Y-10003214D01*
X11821786Y-10088929D02*
X11850357Y-10103214D01*
X11907500Y-10103214D01*
X11936071Y-10088929D01*
X11950357Y-10060357D01*
X11950357Y-10046072D01*
X11936071Y-10017500D01*
X11907500Y-10003214D01*
X11864643Y-10003214D01*
X11836071Y-9988929D01*
X11821786Y-9960357D01*
X11821786Y-9946072D01*
X11836071Y-9917500D01*
X11864643Y-9903214D01*
X11907500Y-9903214D01*
X11936071Y-9917500D01*
X12050357Y-10217500D02*
X12064643Y-10203214D01*
X12093214Y-10160357D01*
X12107500Y-10131786D01*
X12121786Y-10088929D01*
X12136071Y-10017500D01*
X12136071Y-9960357D01*
X12121786Y-9888929D01*
X12107500Y-9846072D01*
X12093214Y-9817500D01*
X12064643Y-9774643D01*
X12050357Y-9760357D01*
X4992500Y-10363500D02*
G75*
G03X4992500Y-10363500I-50000J0D01*
G01*
X5436071Y-10499214D02*
X5264643Y-10499214D01*
X5350357Y-10499214D02*
X5350357Y-10199214D01*
X5321786Y-10242072D01*
X5293214Y-10270643D01*
X5264643Y-10284929D01*
X5564643Y-10470643D02*
X5578928Y-10484929D01*
X5564643Y-10499214D01*
X5550357Y-10484929D01*
X5564643Y-10470643D01*
X5564643Y-10499214D01*
X5764643Y-10199214D02*
X5793214Y-10199214D01*
X5821786Y-10213500D01*
X5836071Y-10227786D01*
X5850357Y-10256357D01*
X5864643Y-10313500D01*
X5864643Y-10384929D01*
X5850357Y-10442072D01*
X5836071Y-10470643D01*
X5821786Y-10484929D01*
X5793214Y-10499214D01*
X5764643Y-10499214D01*
X5736071Y-10484929D01*
X5721786Y-10470643D01*
X5707500Y-10442072D01*
X5693214Y-10384929D01*
X5693214Y-10313500D01*
X5707500Y-10256357D01*
X5721786Y-10227786D01*
X5736071Y-10213500D01*
X5764643Y-10199214D01*
X6050357Y-10199214D02*
X6078928Y-10199214D01*
X6107500Y-10213500D01*
X6121786Y-10227786D01*
X6136071Y-10256357D01*
X6150357Y-10313500D01*
X6150357Y-10384929D01*
X6136071Y-10442072D01*
X6121786Y-10470643D01*
X6107500Y-10484929D01*
X6078928Y-10499214D01*
X6050357Y-10499214D01*
X6021786Y-10484929D01*
X6007500Y-10470643D01*
X5993214Y-10442072D01*
X5978928Y-10384929D01*
X5978928Y-10313500D01*
X5993214Y-10256357D01*
X6007500Y-10227786D01*
X6021786Y-10213500D01*
X6050357Y-10199214D01*
X6278928Y-10499214D02*
X6278928Y-10299214D01*
X6278928Y-10327786D02*
X6293214Y-10313500D01*
X6321786Y-10299214D01*
X6364643Y-10299214D01*
X6393214Y-10313500D01*
X6407500Y-10342072D01*
X6407500Y-10499214D01*
X6407500Y-10342072D02*
X6421786Y-10313500D01*
X6450357Y-10299214D01*
X6493214Y-10299214D01*
X6521786Y-10313500D01*
X6536071Y-10342072D01*
X6536071Y-10499214D01*
X6678928Y-10499214D02*
X6678928Y-10299214D01*
X6678928Y-10327786D02*
X6693214Y-10313500D01*
X6721786Y-10299214D01*
X6764643Y-10299214D01*
X6793214Y-10313500D01*
X6807500Y-10342072D01*
X6807500Y-10499214D01*
X6807500Y-10342072D02*
X6821786Y-10313500D01*
X6850357Y-10299214D01*
X6893214Y-10299214D01*
X6921786Y-10313500D01*
X6936071Y-10342072D01*
X6936071Y-10499214D01*
X7521786Y-10184929D02*
X7264643Y-10570643D01*
X7907500Y-10199214D02*
X7936071Y-10199214D01*
X7964643Y-10213500D01*
X7978928Y-10227786D01*
X7993214Y-10256357D01*
X8007500Y-10313500D01*
X8007500Y-10384929D01*
X7993214Y-10442072D01*
X7978928Y-10470643D01*
X7964643Y-10484929D01*
X7936071Y-10499214D01*
X7907500Y-10499214D01*
X7878928Y-10484929D01*
X7864643Y-10470643D01*
X7850357Y-10442072D01*
X7836071Y-10384929D01*
X7836071Y-10313500D01*
X7850357Y-10256357D01*
X7864643Y-10227786D01*
X7878928Y-10213500D01*
X7907500Y-10199214D01*
X8136071Y-10470643D02*
X8150357Y-10484929D01*
X8136071Y-10499214D01*
X8121786Y-10484929D01*
X8136071Y-10470643D01*
X8136071Y-10499214D01*
X8336071Y-10199214D02*
X8364643Y-10199214D01*
X8393214Y-10213500D01*
X8407500Y-10227786D01*
X8421786Y-10256357D01*
X8436071Y-10313500D01*
X8436071Y-10384929D01*
X8421786Y-10442072D01*
X8407500Y-10470643D01*
X8393214Y-10484929D01*
X8364643Y-10499214D01*
X8336071Y-10499214D01*
X8307500Y-10484929D01*
X8293214Y-10470643D01*
X8278928Y-10442072D01*
X8264643Y-10384929D01*
X8264643Y-10313500D01*
X8278928Y-10256357D01*
X8293214Y-10227786D01*
X8307500Y-10213500D01*
X8336071Y-10199214D01*
X8536071Y-10199214D02*
X8721786Y-10199214D01*
X8621786Y-10313500D01*
X8664643Y-10313500D01*
X8693214Y-10327786D01*
X8707500Y-10342072D01*
X8721786Y-10370643D01*
X8721786Y-10442072D01*
X8707500Y-10470643D01*
X8693214Y-10484929D01*
X8664643Y-10499214D01*
X8578928Y-10499214D01*
X8550357Y-10484929D01*
X8536071Y-10470643D01*
X8864643Y-10499214D02*
X8921786Y-10499214D01*
X8950357Y-10484929D01*
X8964643Y-10470643D01*
X8993214Y-10427786D01*
X9007500Y-10370643D01*
X9007500Y-10256357D01*
X8993214Y-10227786D01*
X8978928Y-10213500D01*
X8950357Y-10199214D01*
X8893214Y-10199214D01*
X8864643Y-10213500D01*
X8850357Y-10227786D01*
X8836071Y-10256357D01*
X8836071Y-10327786D01*
X8850357Y-10356357D01*
X8864643Y-10370643D01*
X8893214Y-10384929D01*
X8950357Y-10384929D01*
X8978928Y-10370643D01*
X8993214Y-10356357D01*
X9007500Y-10327786D01*
X9121786Y-10199214D02*
X9121786Y-10256357D01*
X9236071Y-10199214D02*
X9236071Y-10256357D01*
X9678928Y-10613500D02*
X9664643Y-10599214D01*
X9636071Y-10556357D01*
X9621786Y-10527786D01*
X9607500Y-10484929D01*
X9593214Y-10413500D01*
X9593214Y-10356357D01*
X9607500Y-10284929D01*
X9621786Y-10242072D01*
X9636071Y-10213500D01*
X9664643Y-10170643D01*
X9678928Y-10156357D01*
X9950357Y-10499214D02*
X9778928Y-10499214D01*
X9864643Y-10499214D02*
X9864643Y-10199214D01*
X9836071Y-10242072D01*
X9807500Y-10270643D01*
X9778928Y-10284929D01*
X10064643Y-10227786D02*
X10078928Y-10213500D01*
X10107500Y-10199214D01*
X10178928Y-10199214D01*
X10207500Y-10213500D01*
X10221786Y-10227786D01*
X10236071Y-10256357D01*
X10236071Y-10284929D01*
X10221786Y-10327786D01*
X10050357Y-10499214D01*
X10236071Y-10499214D01*
X10593214Y-10499214D02*
X10593214Y-10199214D01*
X10721786Y-10499214D02*
X10721786Y-10342072D01*
X10707500Y-10313500D01*
X10678928Y-10299214D01*
X10636071Y-10299214D01*
X10607500Y-10313500D01*
X10593214Y-10327786D01*
X10907500Y-10499214D02*
X10878928Y-10484929D01*
X10864643Y-10470643D01*
X10850357Y-10442072D01*
X10850357Y-10356357D01*
X10864643Y-10327786D01*
X10878928Y-10313500D01*
X10907500Y-10299214D01*
X10950357Y-10299214D01*
X10978928Y-10313500D01*
X10993214Y-10327786D01*
X11007500Y-10356357D01*
X11007500Y-10442072D01*
X10993214Y-10470643D01*
X10978928Y-10484929D01*
X10950357Y-10499214D01*
X10907500Y-10499214D01*
X11178928Y-10499214D02*
X11150357Y-10484929D01*
X11136071Y-10456357D01*
X11136071Y-10199214D01*
X11407500Y-10484929D02*
X11378928Y-10499214D01*
X11321786Y-10499214D01*
X11293214Y-10484929D01*
X11278928Y-10456357D01*
X11278928Y-10342072D01*
X11293214Y-10313500D01*
X11321786Y-10299214D01*
X11378928Y-10299214D01*
X11407500Y-10313500D01*
X11421786Y-10342072D01*
X11421786Y-10370643D01*
X11278928Y-10399214D01*
X11536071Y-10484929D02*
X11564643Y-10499214D01*
X11621786Y-10499214D01*
X11650357Y-10484929D01*
X11664643Y-10456357D01*
X11664643Y-10442072D01*
X11650357Y-10413500D01*
X11621786Y-10399214D01*
X11578928Y-10399214D01*
X11550357Y-10384929D01*
X11536071Y-10356357D01*
X11536071Y-10342072D01*
X11550357Y-10313500D01*
X11578928Y-10299214D01*
X11621786Y-10299214D01*
X11650357Y-10313500D01*
X11764643Y-10613500D02*
X11778928Y-10599214D01*
X11807500Y-10556357D01*
X11821786Y-10527786D01*
X11836071Y-10484929D01*
X11850357Y-10413500D01*
X11850357Y-10356357D01*
X11836071Y-10284929D01*
X11821786Y-10242072D01*
X11807500Y-10213500D01*
X11778928Y-10170643D01*
X11764643Y-10156357D01*
X4832500Y-10599500D02*
X4832500Y-10919500D01*
X4672500Y-10759500D02*
X4992500Y-10759500D01*
X5250357Y-10595214D02*
X5436071Y-10595214D01*
X5336071Y-10709500D01*
X5378928Y-10709500D01*
X5407500Y-10723786D01*
X5421786Y-10738072D01*
X5436071Y-10766643D01*
X5436071Y-10838072D01*
X5421786Y-10866643D01*
X5407500Y-10880929D01*
X5378928Y-10895214D01*
X5293214Y-10895214D01*
X5264643Y-10880929D01*
X5250357Y-10866643D01*
X5564643Y-10866643D02*
X5578928Y-10880929D01*
X5564643Y-10895214D01*
X5550357Y-10880929D01*
X5564643Y-10866643D01*
X5564643Y-10895214D01*
X5693214Y-10623786D02*
X5707500Y-10609500D01*
X5736071Y-10595214D01*
X5807500Y-10595214D01*
X5836071Y-10609500D01*
X5850357Y-10623786D01*
X5864643Y-10652357D01*
X5864643Y-10680929D01*
X5850357Y-10723786D01*
X5678928Y-10895214D01*
X5864643Y-10895214D01*
X6050357Y-10595214D02*
X6078928Y-10595214D01*
X6107500Y-10609500D01*
X6121786Y-10623786D01*
X6136071Y-10652357D01*
X6150357Y-10709500D01*
X6150357Y-10780929D01*
X6136071Y-10838072D01*
X6121786Y-10866643D01*
X6107500Y-10880929D01*
X6078928Y-10895214D01*
X6050357Y-10895214D01*
X6021786Y-10880929D01*
X6007500Y-10866643D01*
X5993214Y-10838072D01*
X5978928Y-10780929D01*
X5978928Y-10709500D01*
X5993214Y-10652357D01*
X6007500Y-10623786D01*
X6021786Y-10609500D01*
X6050357Y-10595214D01*
X6278928Y-10895214D02*
X6278928Y-10695214D01*
X6278928Y-10723786D02*
X6293214Y-10709500D01*
X6321786Y-10695214D01*
X6364643Y-10695214D01*
X6393214Y-10709500D01*
X6407500Y-10738072D01*
X6407500Y-10895214D01*
X6407500Y-10738072D02*
X6421786Y-10709500D01*
X6450357Y-10695214D01*
X6493214Y-10695214D01*
X6521786Y-10709500D01*
X6536071Y-10738072D01*
X6536071Y-10895214D01*
X6678928Y-10895214D02*
X6678928Y-10695214D01*
X6678928Y-10723786D02*
X6693214Y-10709500D01*
X6721786Y-10695214D01*
X6764643Y-10695214D01*
X6793214Y-10709500D01*
X6807500Y-10738072D01*
X6807500Y-10895214D01*
X6807500Y-10738072D02*
X6821786Y-10709500D01*
X6850357Y-10695214D01*
X6893214Y-10695214D01*
X6921786Y-10709500D01*
X6936071Y-10738072D01*
X6936071Y-10895214D01*
X7521786Y-10580929D02*
X7264643Y-10966643D01*
X7907500Y-10595214D02*
X7936071Y-10595214D01*
X7964643Y-10609500D01*
X7978928Y-10623786D01*
X7993214Y-10652357D01*
X8007500Y-10709500D01*
X8007500Y-10780929D01*
X7993214Y-10838072D01*
X7978928Y-10866643D01*
X7964643Y-10880929D01*
X7936071Y-10895214D01*
X7907500Y-10895214D01*
X7878928Y-10880929D01*
X7864643Y-10866643D01*
X7850357Y-10838072D01*
X7836071Y-10780929D01*
X7836071Y-10709500D01*
X7850357Y-10652357D01*
X7864643Y-10623786D01*
X7878928Y-10609500D01*
X7907500Y-10595214D01*
X8136071Y-10866643D02*
X8150357Y-10880929D01*
X8136071Y-10895214D01*
X8121786Y-10880929D01*
X8136071Y-10866643D01*
X8136071Y-10895214D01*
X8436071Y-10895214D02*
X8264643Y-10895214D01*
X8350357Y-10895214D02*
X8350357Y-10595214D01*
X8321786Y-10638072D01*
X8293214Y-10666643D01*
X8264643Y-10680929D01*
X8550357Y-10623786D02*
X8564643Y-10609500D01*
X8593214Y-10595214D01*
X8664643Y-10595214D01*
X8693214Y-10609500D01*
X8707500Y-10623786D01*
X8721786Y-10652357D01*
X8721786Y-10680929D01*
X8707500Y-10723786D01*
X8536071Y-10895214D01*
X8721786Y-10895214D01*
X8978928Y-10595214D02*
X8921786Y-10595214D01*
X8893214Y-10609500D01*
X8878928Y-10623786D01*
X8850357Y-10666643D01*
X8836071Y-10723786D01*
X8836071Y-10838072D01*
X8850357Y-10866643D01*
X8864643Y-10880929D01*
X8893214Y-10895214D01*
X8950357Y-10895214D01*
X8978928Y-10880929D01*
X8993214Y-10866643D01*
X9007500Y-10838072D01*
X9007500Y-10766643D01*
X8993214Y-10738072D01*
X8978928Y-10723786D01*
X8950357Y-10709500D01*
X8893214Y-10709500D01*
X8864643Y-10723786D01*
X8850357Y-10738072D01*
X8836071Y-10766643D01*
X9121786Y-10595214D02*
X9121786Y-10652357D01*
X9236071Y-10595214D02*
X9236071Y-10652357D01*
X9678928Y-11009500D02*
X9664643Y-10995214D01*
X9636071Y-10952357D01*
X9621786Y-10923786D01*
X9607500Y-10880929D01*
X9593214Y-10809500D01*
X9593214Y-10752357D01*
X9607500Y-10680929D01*
X9621786Y-10638072D01*
X9636071Y-10609500D01*
X9664643Y-10566643D01*
X9678928Y-10552357D01*
X9778928Y-10623786D02*
X9793214Y-10609500D01*
X9821786Y-10595214D01*
X9893214Y-10595214D01*
X9921786Y-10609500D01*
X9936071Y-10623786D01*
X9950357Y-10652357D01*
X9950357Y-10680929D01*
X9936071Y-10723786D01*
X9764643Y-10895214D01*
X9950357Y-10895214D01*
X10307500Y-10895214D02*
X10307500Y-10595214D01*
X10436071Y-10895214D02*
X10436071Y-10738072D01*
X10421786Y-10709500D01*
X10393214Y-10695214D01*
X10350357Y-10695214D01*
X10321786Y-10709500D01*
X10307500Y-10723786D01*
X10621786Y-10895214D02*
X10593214Y-10880929D01*
X10578928Y-10866643D01*
X10564643Y-10838072D01*
X10564643Y-10752357D01*
X10578928Y-10723786D01*
X10593214Y-10709500D01*
X10621786Y-10695214D01*
X10664643Y-10695214D01*
X10693214Y-10709500D01*
X10707500Y-10723786D01*
X10721786Y-10752357D01*
X10721786Y-10838072D01*
X10707500Y-10866643D01*
X10693214Y-10880929D01*
X10664643Y-10895214D01*
X10621786Y-10895214D01*
X10893214Y-10895214D02*
X10864643Y-10880929D01*
X10850357Y-10852357D01*
X10850357Y-10595214D01*
X11121786Y-10880929D02*
X11093214Y-10895214D01*
X11036071Y-10895214D01*
X11007500Y-10880929D01*
X10993214Y-10852357D01*
X10993214Y-10738072D01*
X11007500Y-10709500D01*
X11036071Y-10695214D01*
X11093214Y-10695214D01*
X11121786Y-10709500D01*
X11136071Y-10738072D01*
X11136071Y-10766643D01*
X10993214Y-10795214D01*
X11250357Y-10880929D02*
X11278928Y-10895214D01*
X11336071Y-10895214D01*
X11364643Y-10880929D01*
X11378928Y-10852357D01*
X11378928Y-10838072D01*
X11364643Y-10809500D01*
X11336071Y-10795214D01*
X11293214Y-10795214D01*
X11264643Y-10780929D01*
X11250357Y-10752357D01*
X11250357Y-10738072D01*
X11264643Y-10709500D01*
X11293214Y-10695214D01*
X11336071Y-10695214D01*
X11364643Y-10709500D01*
X11478928Y-11009500D02*
X11493214Y-10995214D01*
X11521786Y-10952357D01*
X11536071Y-10923786D01*
X11550357Y-10880929D01*
X11564643Y-10809500D01*
X11564643Y-10752357D01*
X11550357Y-10680929D01*
X11536071Y-10638072D01*
X11521786Y-10609500D01*
X11493214Y-10566643D01*
X11478928Y-10552357D01*
M02*
