%TF.GenerationSoftware,KiCad,Pcbnew,5.99.0-unknown-652a59b78~104~ubuntu20.04.1*%
%TF.CreationDate,2020-09-21T15:47:38+02:00*%
%TF.ProjectId,LEDBoard_4x4_16bit,4c454442-6f61-4726-945f-3478345f3136,4.0.0*%
%TF.SameCoordinates,Original*%
%TF.FileFunction,Soldermask,Top*%
%TF.FilePolarity,Negative*%
%FSLAX46Y46*%
G04 Gerber Fmt 4.6, Leading zero omitted, Abs format (unit mm)*
G04 Created by KiCad (PCBNEW 5.99.0-unknown-652a59b78~104~ubuntu20.04.1) date 2020-09-21 15:47:38*
%MOMM*%
%LPD*%
G01*
G04 APERTURE LIST*
%ADD10O,1.850000X1.850000*%
%ADD11C,5.850000*%
G04 APERTURE END LIST*
%TO.C,D4.4*%
G36*
G01*
X86025000Y-82300000D02*
X86025000Y-81500000D01*
G75*
G02*
X86125000Y-81400000I100000J0D01*
G01*
X87225000Y-81400000D01*
G75*
G02*
X87325000Y-81500000I0J-100000D01*
G01*
X87325000Y-82300000D01*
G75*
G02*
X87225000Y-82400000I-100000J0D01*
G01*
X86125000Y-82400000D01*
G75*
G02*
X86025000Y-82300000I0J100000D01*
G01*
G37*
G36*
G01*
X86025000Y-83400000D02*
X86025000Y-82600000D01*
G75*
G02*
X86125000Y-82500000I100000J0D01*
G01*
X87225000Y-82500000D01*
G75*
G02*
X87325000Y-82600000I0J-100000D01*
G01*
X87325000Y-83400000D01*
G75*
G02*
X87225000Y-83500000I-100000J0D01*
G01*
X86125000Y-83500000D01*
G75*
G02*
X86025000Y-83400000I0J100000D01*
G01*
G37*
G36*
G01*
X86025000Y-84500000D02*
X86025000Y-83700000D01*
G75*
G02*
X86125000Y-83600000I100000J0D01*
G01*
X87225000Y-83600000D01*
G75*
G02*
X87325000Y-83700000I0J-100000D01*
G01*
X87325000Y-84500000D01*
G75*
G02*
X87225000Y-84600000I-100000J0D01*
G01*
X86125000Y-84600000D01*
G75*
G02*
X86025000Y-84500000I0J100000D01*
G01*
G37*
G36*
G01*
X82750000Y-82240000D02*
X82750000Y-81560000D01*
G75*
G02*
X82835000Y-81475000I85000J0D01*
G01*
X83815000Y-81475000D01*
G75*
G02*
X83900000Y-81560000I0J-85000D01*
G01*
X83900000Y-82240000D01*
G75*
G02*
X83815000Y-82325000I-85000J0D01*
G01*
X82835000Y-82325000D01*
G75*
G02*
X82750000Y-82240000I0J85000D01*
G01*
G37*
G36*
G01*
X82750000Y-84440000D02*
X82750000Y-83760000D01*
G75*
G02*
X82835000Y-83675000I85000J0D01*
G01*
X83815000Y-83675000D01*
G75*
G02*
X83900000Y-83760000I0J-85000D01*
G01*
X83900000Y-84440000D01*
G75*
G02*
X83815000Y-84525000I-85000J0D01*
G01*
X82835000Y-84525000D01*
G75*
G02*
X82750000Y-84440000I0J85000D01*
G01*
G37*
G36*
G01*
X82750000Y-83340000D02*
X82750000Y-82660000D01*
G75*
G02*
X82835000Y-82575000I85000J0D01*
G01*
X83815000Y-82575000D01*
G75*
G02*
X83900000Y-82660000I0J-85000D01*
G01*
X83900000Y-83340000D01*
G75*
G02*
X83815000Y-83425000I-85000J0D01*
G01*
X82835000Y-83425000D01*
G75*
G02*
X82750000Y-83340000I0J85000D01*
G01*
G37*
%TD*%
%TO.C,D4.3*%
G36*
G01*
X86025000Y-72300000D02*
X86025000Y-71500000D01*
G75*
G02*
X86125000Y-71400000I100000J0D01*
G01*
X87225000Y-71400000D01*
G75*
G02*
X87325000Y-71500000I0J-100000D01*
G01*
X87325000Y-72300000D01*
G75*
G02*
X87225000Y-72400000I-100000J0D01*
G01*
X86125000Y-72400000D01*
G75*
G02*
X86025000Y-72300000I0J100000D01*
G01*
G37*
G36*
G01*
X86025000Y-73400000D02*
X86025000Y-72600000D01*
G75*
G02*
X86125000Y-72500000I100000J0D01*
G01*
X87225000Y-72500000D01*
G75*
G02*
X87325000Y-72600000I0J-100000D01*
G01*
X87325000Y-73400000D01*
G75*
G02*
X87225000Y-73500000I-100000J0D01*
G01*
X86125000Y-73500000D01*
G75*
G02*
X86025000Y-73400000I0J100000D01*
G01*
G37*
G36*
G01*
X86025000Y-74500000D02*
X86025000Y-73700000D01*
G75*
G02*
X86125000Y-73600000I100000J0D01*
G01*
X87225000Y-73600000D01*
G75*
G02*
X87325000Y-73700000I0J-100000D01*
G01*
X87325000Y-74500000D01*
G75*
G02*
X87225000Y-74600000I-100000J0D01*
G01*
X86125000Y-74600000D01*
G75*
G02*
X86025000Y-74500000I0J100000D01*
G01*
G37*
G36*
G01*
X82750000Y-72240000D02*
X82750000Y-71560000D01*
G75*
G02*
X82835000Y-71475000I85000J0D01*
G01*
X83815000Y-71475000D01*
G75*
G02*
X83900000Y-71560000I0J-85000D01*
G01*
X83900000Y-72240000D01*
G75*
G02*
X83815000Y-72325000I-85000J0D01*
G01*
X82835000Y-72325000D01*
G75*
G02*
X82750000Y-72240000I0J85000D01*
G01*
G37*
G36*
G01*
X82750000Y-74440000D02*
X82750000Y-73760000D01*
G75*
G02*
X82835000Y-73675000I85000J0D01*
G01*
X83815000Y-73675000D01*
G75*
G02*
X83900000Y-73760000I0J-85000D01*
G01*
X83900000Y-74440000D01*
G75*
G02*
X83815000Y-74525000I-85000J0D01*
G01*
X82835000Y-74525000D01*
G75*
G02*
X82750000Y-74440000I0J85000D01*
G01*
G37*
G36*
G01*
X82750000Y-73340000D02*
X82750000Y-72660000D01*
G75*
G02*
X82835000Y-72575000I85000J0D01*
G01*
X83815000Y-72575000D01*
G75*
G02*
X83900000Y-72660000I0J-85000D01*
G01*
X83900000Y-73340000D01*
G75*
G02*
X83815000Y-73425000I-85000J0D01*
G01*
X82835000Y-73425000D01*
G75*
G02*
X82750000Y-73340000I0J85000D01*
G01*
G37*
%TD*%
%TO.C,D4.2*%
G36*
G01*
X86025000Y-62300000D02*
X86025000Y-61500000D01*
G75*
G02*
X86125000Y-61400000I100000J0D01*
G01*
X87225000Y-61400000D01*
G75*
G02*
X87325000Y-61500000I0J-100000D01*
G01*
X87325000Y-62300000D01*
G75*
G02*
X87225000Y-62400000I-100000J0D01*
G01*
X86125000Y-62400000D01*
G75*
G02*
X86025000Y-62300000I0J100000D01*
G01*
G37*
G36*
G01*
X86025000Y-63400000D02*
X86025000Y-62600000D01*
G75*
G02*
X86125000Y-62500000I100000J0D01*
G01*
X87225000Y-62500000D01*
G75*
G02*
X87325000Y-62600000I0J-100000D01*
G01*
X87325000Y-63400000D01*
G75*
G02*
X87225000Y-63500000I-100000J0D01*
G01*
X86125000Y-63500000D01*
G75*
G02*
X86025000Y-63400000I0J100000D01*
G01*
G37*
G36*
G01*
X86025000Y-64500000D02*
X86025000Y-63700000D01*
G75*
G02*
X86125000Y-63600000I100000J0D01*
G01*
X87225000Y-63600000D01*
G75*
G02*
X87325000Y-63700000I0J-100000D01*
G01*
X87325000Y-64500000D01*
G75*
G02*
X87225000Y-64600000I-100000J0D01*
G01*
X86125000Y-64600000D01*
G75*
G02*
X86025000Y-64500000I0J100000D01*
G01*
G37*
G36*
G01*
X82750000Y-62240000D02*
X82750000Y-61560000D01*
G75*
G02*
X82835000Y-61475000I85000J0D01*
G01*
X83815000Y-61475000D01*
G75*
G02*
X83900000Y-61560000I0J-85000D01*
G01*
X83900000Y-62240000D01*
G75*
G02*
X83815000Y-62325000I-85000J0D01*
G01*
X82835000Y-62325000D01*
G75*
G02*
X82750000Y-62240000I0J85000D01*
G01*
G37*
G36*
G01*
X82750000Y-64440000D02*
X82750000Y-63760000D01*
G75*
G02*
X82835000Y-63675000I85000J0D01*
G01*
X83815000Y-63675000D01*
G75*
G02*
X83900000Y-63760000I0J-85000D01*
G01*
X83900000Y-64440000D01*
G75*
G02*
X83815000Y-64525000I-85000J0D01*
G01*
X82835000Y-64525000D01*
G75*
G02*
X82750000Y-64440000I0J85000D01*
G01*
G37*
G36*
G01*
X82750000Y-63340000D02*
X82750000Y-62660000D01*
G75*
G02*
X82835000Y-62575000I85000J0D01*
G01*
X83815000Y-62575000D01*
G75*
G02*
X83900000Y-62660000I0J-85000D01*
G01*
X83900000Y-63340000D01*
G75*
G02*
X83815000Y-63425000I-85000J0D01*
G01*
X82835000Y-63425000D01*
G75*
G02*
X82750000Y-63340000I0J85000D01*
G01*
G37*
%TD*%
%TO.C,D4.1*%
G36*
G01*
X86025000Y-52300000D02*
X86025000Y-51500000D01*
G75*
G02*
X86125000Y-51400000I100000J0D01*
G01*
X87225000Y-51400000D01*
G75*
G02*
X87325000Y-51500000I0J-100000D01*
G01*
X87325000Y-52300000D01*
G75*
G02*
X87225000Y-52400000I-100000J0D01*
G01*
X86125000Y-52400000D01*
G75*
G02*
X86025000Y-52300000I0J100000D01*
G01*
G37*
G36*
G01*
X86025000Y-53400000D02*
X86025000Y-52600000D01*
G75*
G02*
X86125000Y-52500000I100000J0D01*
G01*
X87225000Y-52500000D01*
G75*
G02*
X87325000Y-52600000I0J-100000D01*
G01*
X87325000Y-53400000D01*
G75*
G02*
X87225000Y-53500000I-100000J0D01*
G01*
X86125000Y-53500000D01*
G75*
G02*
X86025000Y-53400000I0J100000D01*
G01*
G37*
G36*
G01*
X86025000Y-54500000D02*
X86025000Y-53700000D01*
G75*
G02*
X86125000Y-53600000I100000J0D01*
G01*
X87225000Y-53600000D01*
G75*
G02*
X87325000Y-53700000I0J-100000D01*
G01*
X87325000Y-54500000D01*
G75*
G02*
X87225000Y-54600000I-100000J0D01*
G01*
X86125000Y-54600000D01*
G75*
G02*
X86025000Y-54500000I0J100000D01*
G01*
G37*
G36*
G01*
X82750000Y-52240000D02*
X82750000Y-51560000D01*
G75*
G02*
X82835000Y-51475000I85000J0D01*
G01*
X83815000Y-51475000D01*
G75*
G02*
X83900000Y-51560000I0J-85000D01*
G01*
X83900000Y-52240000D01*
G75*
G02*
X83815000Y-52325000I-85000J0D01*
G01*
X82835000Y-52325000D01*
G75*
G02*
X82750000Y-52240000I0J85000D01*
G01*
G37*
G36*
G01*
X82750000Y-54440000D02*
X82750000Y-53760000D01*
G75*
G02*
X82835000Y-53675000I85000J0D01*
G01*
X83815000Y-53675000D01*
G75*
G02*
X83900000Y-53760000I0J-85000D01*
G01*
X83900000Y-54440000D01*
G75*
G02*
X83815000Y-54525000I-85000J0D01*
G01*
X82835000Y-54525000D01*
G75*
G02*
X82750000Y-54440000I0J85000D01*
G01*
G37*
G36*
G01*
X82750000Y-53340000D02*
X82750000Y-52660000D01*
G75*
G02*
X82835000Y-52575000I85000J0D01*
G01*
X83815000Y-52575000D01*
G75*
G02*
X83900000Y-52660000I0J-85000D01*
G01*
X83900000Y-53340000D01*
G75*
G02*
X83815000Y-53425000I-85000J0D01*
G01*
X82835000Y-53425000D01*
G75*
G02*
X82750000Y-53340000I0J85000D01*
G01*
G37*
%TD*%
%TO.C,D3.4*%
G36*
G01*
X76025000Y-82300000D02*
X76025000Y-81500000D01*
G75*
G02*
X76125000Y-81400000I100000J0D01*
G01*
X77225000Y-81400000D01*
G75*
G02*
X77325000Y-81500000I0J-100000D01*
G01*
X77325000Y-82300000D01*
G75*
G02*
X77225000Y-82400000I-100000J0D01*
G01*
X76125000Y-82400000D01*
G75*
G02*
X76025000Y-82300000I0J100000D01*
G01*
G37*
G36*
G01*
X76025000Y-83400000D02*
X76025000Y-82600000D01*
G75*
G02*
X76125000Y-82500000I100000J0D01*
G01*
X77225000Y-82500000D01*
G75*
G02*
X77325000Y-82600000I0J-100000D01*
G01*
X77325000Y-83400000D01*
G75*
G02*
X77225000Y-83500000I-100000J0D01*
G01*
X76125000Y-83500000D01*
G75*
G02*
X76025000Y-83400000I0J100000D01*
G01*
G37*
G36*
G01*
X76025000Y-84500000D02*
X76025000Y-83700000D01*
G75*
G02*
X76125000Y-83600000I100000J0D01*
G01*
X77225000Y-83600000D01*
G75*
G02*
X77325000Y-83700000I0J-100000D01*
G01*
X77325000Y-84500000D01*
G75*
G02*
X77225000Y-84600000I-100000J0D01*
G01*
X76125000Y-84600000D01*
G75*
G02*
X76025000Y-84500000I0J100000D01*
G01*
G37*
G36*
G01*
X72750000Y-82240000D02*
X72750000Y-81560000D01*
G75*
G02*
X72835000Y-81475000I85000J0D01*
G01*
X73815000Y-81475000D01*
G75*
G02*
X73900000Y-81560000I0J-85000D01*
G01*
X73900000Y-82240000D01*
G75*
G02*
X73815000Y-82325000I-85000J0D01*
G01*
X72835000Y-82325000D01*
G75*
G02*
X72750000Y-82240000I0J85000D01*
G01*
G37*
G36*
G01*
X72750000Y-84440000D02*
X72750000Y-83760000D01*
G75*
G02*
X72835000Y-83675000I85000J0D01*
G01*
X73815000Y-83675000D01*
G75*
G02*
X73900000Y-83760000I0J-85000D01*
G01*
X73900000Y-84440000D01*
G75*
G02*
X73815000Y-84525000I-85000J0D01*
G01*
X72835000Y-84525000D01*
G75*
G02*
X72750000Y-84440000I0J85000D01*
G01*
G37*
G36*
G01*
X72750000Y-83340000D02*
X72750000Y-82660000D01*
G75*
G02*
X72835000Y-82575000I85000J0D01*
G01*
X73815000Y-82575000D01*
G75*
G02*
X73900000Y-82660000I0J-85000D01*
G01*
X73900000Y-83340000D01*
G75*
G02*
X73815000Y-83425000I-85000J0D01*
G01*
X72835000Y-83425000D01*
G75*
G02*
X72750000Y-83340000I0J85000D01*
G01*
G37*
%TD*%
%TO.C,D3.3*%
G36*
G01*
X76025000Y-72300000D02*
X76025000Y-71500000D01*
G75*
G02*
X76125000Y-71400000I100000J0D01*
G01*
X77225000Y-71400000D01*
G75*
G02*
X77325000Y-71500000I0J-100000D01*
G01*
X77325000Y-72300000D01*
G75*
G02*
X77225000Y-72400000I-100000J0D01*
G01*
X76125000Y-72400000D01*
G75*
G02*
X76025000Y-72300000I0J100000D01*
G01*
G37*
G36*
G01*
X76025000Y-73400000D02*
X76025000Y-72600000D01*
G75*
G02*
X76125000Y-72500000I100000J0D01*
G01*
X77225000Y-72500000D01*
G75*
G02*
X77325000Y-72600000I0J-100000D01*
G01*
X77325000Y-73400000D01*
G75*
G02*
X77225000Y-73500000I-100000J0D01*
G01*
X76125000Y-73500000D01*
G75*
G02*
X76025000Y-73400000I0J100000D01*
G01*
G37*
G36*
G01*
X76025000Y-74500000D02*
X76025000Y-73700000D01*
G75*
G02*
X76125000Y-73600000I100000J0D01*
G01*
X77225000Y-73600000D01*
G75*
G02*
X77325000Y-73700000I0J-100000D01*
G01*
X77325000Y-74500000D01*
G75*
G02*
X77225000Y-74600000I-100000J0D01*
G01*
X76125000Y-74600000D01*
G75*
G02*
X76025000Y-74500000I0J100000D01*
G01*
G37*
G36*
G01*
X72750000Y-72240000D02*
X72750000Y-71560000D01*
G75*
G02*
X72835000Y-71475000I85000J0D01*
G01*
X73815000Y-71475000D01*
G75*
G02*
X73900000Y-71560000I0J-85000D01*
G01*
X73900000Y-72240000D01*
G75*
G02*
X73815000Y-72325000I-85000J0D01*
G01*
X72835000Y-72325000D01*
G75*
G02*
X72750000Y-72240000I0J85000D01*
G01*
G37*
G36*
G01*
X72750000Y-74440000D02*
X72750000Y-73760000D01*
G75*
G02*
X72835000Y-73675000I85000J0D01*
G01*
X73815000Y-73675000D01*
G75*
G02*
X73900000Y-73760000I0J-85000D01*
G01*
X73900000Y-74440000D01*
G75*
G02*
X73815000Y-74525000I-85000J0D01*
G01*
X72835000Y-74525000D01*
G75*
G02*
X72750000Y-74440000I0J85000D01*
G01*
G37*
G36*
G01*
X72750000Y-73340000D02*
X72750000Y-72660000D01*
G75*
G02*
X72835000Y-72575000I85000J0D01*
G01*
X73815000Y-72575000D01*
G75*
G02*
X73900000Y-72660000I0J-85000D01*
G01*
X73900000Y-73340000D01*
G75*
G02*
X73815000Y-73425000I-85000J0D01*
G01*
X72835000Y-73425000D01*
G75*
G02*
X72750000Y-73340000I0J85000D01*
G01*
G37*
%TD*%
%TO.C,D3.2*%
G36*
G01*
X76025000Y-62300000D02*
X76025000Y-61500000D01*
G75*
G02*
X76125000Y-61400000I100000J0D01*
G01*
X77225000Y-61400000D01*
G75*
G02*
X77325000Y-61500000I0J-100000D01*
G01*
X77325000Y-62300000D01*
G75*
G02*
X77225000Y-62400000I-100000J0D01*
G01*
X76125000Y-62400000D01*
G75*
G02*
X76025000Y-62300000I0J100000D01*
G01*
G37*
G36*
G01*
X76025000Y-63400000D02*
X76025000Y-62600000D01*
G75*
G02*
X76125000Y-62500000I100000J0D01*
G01*
X77225000Y-62500000D01*
G75*
G02*
X77325000Y-62600000I0J-100000D01*
G01*
X77325000Y-63400000D01*
G75*
G02*
X77225000Y-63500000I-100000J0D01*
G01*
X76125000Y-63500000D01*
G75*
G02*
X76025000Y-63400000I0J100000D01*
G01*
G37*
G36*
G01*
X76025000Y-64500000D02*
X76025000Y-63700000D01*
G75*
G02*
X76125000Y-63600000I100000J0D01*
G01*
X77225000Y-63600000D01*
G75*
G02*
X77325000Y-63700000I0J-100000D01*
G01*
X77325000Y-64500000D01*
G75*
G02*
X77225000Y-64600000I-100000J0D01*
G01*
X76125000Y-64600000D01*
G75*
G02*
X76025000Y-64500000I0J100000D01*
G01*
G37*
G36*
G01*
X72750000Y-62240000D02*
X72750000Y-61560000D01*
G75*
G02*
X72835000Y-61475000I85000J0D01*
G01*
X73815000Y-61475000D01*
G75*
G02*
X73900000Y-61560000I0J-85000D01*
G01*
X73900000Y-62240000D01*
G75*
G02*
X73815000Y-62325000I-85000J0D01*
G01*
X72835000Y-62325000D01*
G75*
G02*
X72750000Y-62240000I0J85000D01*
G01*
G37*
G36*
G01*
X72750000Y-64440000D02*
X72750000Y-63760000D01*
G75*
G02*
X72835000Y-63675000I85000J0D01*
G01*
X73815000Y-63675000D01*
G75*
G02*
X73900000Y-63760000I0J-85000D01*
G01*
X73900000Y-64440000D01*
G75*
G02*
X73815000Y-64525000I-85000J0D01*
G01*
X72835000Y-64525000D01*
G75*
G02*
X72750000Y-64440000I0J85000D01*
G01*
G37*
G36*
G01*
X72750000Y-63340000D02*
X72750000Y-62660000D01*
G75*
G02*
X72835000Y-62575000I85000J0D01*
G01*
X73815000Y-62575000D01*
G75*
G02*
X73900000Y-62660000I0J-85000D01*
G01*
X73900000Y-63340000D01*
G75*
G02*
X73815000Y-63425000I-85000J0D01*
G01*
X72835000Y-63425000D01*
G75*
G02*
X72750000Y-63340000I0J85000D01*
G01*
G37*
%TD*%
%TO.C,D3.1*%
G36*
G01*
X76025000Y-52300000D02*
X76025000Y-51500000D01*
G75*
G02*
X76125000Y-51400000I100000J0D01*
G01*
X77225000Y-51400000D01*
G75*
G02*
X77325000Y-51500000I0J-100000D01*
G01*
X77325000Y-52300000D01*
G75*
G02*
X77225000Y-52400000I-100000J0D01*
G01*
X76125000Y-52400000D01*
G75*
G02*
X76025000Y-52300000I0J100000D01*
G01*
G37*
G36*
G01*
X76025000Y-53400000D02*
X76025000Y-52600000D01*
G75*
G02*
X76125000Y-52500000I100000J0D01*
G01*
X77225000Y-52500000D01*
G75*
G02*
X77325000Y-52600000I0J-100000D01*
G01*
X77325000Y-53400000D01*
G75*
G02*
X77225000Y-53500000I-100000J0D01*
G01*
X76125000Y-53500000D01*
G75*
G02*
X76025000Y-53400000I0J100000D01*
G01*
G37*
G36*
G01*
X76025000Y-54500000D02*
X76025000Y-53700000D01*
G75*
G02*
X76125000Y-53600000I100000J0D01*
G01*
X77225000Y-53600000D01*
G75*
G02*
X77325000Y-53700000I0J-100000D01*
G01*
X77325000Y-54500000D01*
G75*
G02*
X77225000Y-54600000I-100000J0D01*
G01*
X76125000Y-54600000D01*
G75*
G02*
X76025000Y-54500000I0J100000D01*
G01*
G37*
G36*
G01*
X72750000Y-52240000D02*
X72750000Y-51560000D01*
G75*
G02*
X72835000Y-51475000I85000J0D01*
G01*
X73815000Y-51475000D01*
G75*
G02*
X73900000Y-51560000I0J-85000D01*
G01*
X73900000Y-52240000D01*
G75*
G02*
X73815000Y-52325000I-85000J0D01*
G01*
X72835000Y-52325000D01*
G75*
G02*
X72750000Y-52240000I0J85000D01*
G01*
G37*
G36*
G01*
X72750000Y-54440000D02*
X72750000Y-53760000D01*
G75*
G02*
X72835000Y-53675000I85000J0D01*
G01*
X73815000Y-53675000D01*
G75*
G02*
X73900000Y-53760000I0J-85000D01*
G01*
X73900000Y-54440000D01*
G75*
G02*
X73815000Y-54525000I-85000J0D01*
G01*
X72835000Y-54525000D01*
G75*
G02*
X72750000Y-54440000I0J85000D01*
G01*
G37*
G36*
G01*
X72750000Y-53340000D02*
X72750000Y-52660000D01*
G75*
G02*
X72835000Y-52575000I85000J0D01*
G01*
X73815000Y-52575000D01*
G75*
G02*
X73900000Y-52660000I0J-85000D01*
G01*
X73900000Y-53340000D01*
G75*
G02*
X73815000Y-53425000I-85000J0D01*
G01*
X72835000Y-53425000D01*
G75*
G02*
X72750000Y-53340000I0J85000D01*
G01*
G37*
%TD*%
%TO.C,D2.4*%
G36*
G01*
X66025000Y-82300000D02*
X66025000Y-81500000D01*
G75*
G02*
X66125000Y-81400000I100000J0D01*
G01*
X67225000Y-81400000D01*
G75*
G02*
X67325000Y-81500000I0J-100000D01*
G01*
X67325000Y-82300000D01*
G75*
G02*
X67225000Y-82400000I-100000J0D01*
G01*
X66125000Y-82400000D01*
G75*
G02*
X66025000Y-82300000I0J100000D01*
G01*
G37*
G36*
G01*
X66025000Y-83400000D02*
X66025000Y-82600000D01*
G75*
G02*
X66125000Y-82500000I100000J0D01*
G01*
X67225000Y-82500000D01*
G75*
G02*
X67325000Y-82600000I0J-100000D01*
G01*
X67325000Y-83400000D01*
G75*
G02*
X67225000Y-83500000I-100000J0D01*
G01*
X66125000Y-83500000D01*
G75*
G02*
X66025000Y-83400000I0J100000D01*
G01*
G37*
G36*
G01*
X66025000Y-84500000D02*
X66025000Y-83700000D01*
G75*
G02*
X66125000Y-83600000I100000J0D01*
G01*
X67225000Y-83600000D01*
G75*
G02*
X67325000Y-83700000I0J-100000D01*
G01*
X67325000Y-84500000D01*
G75*
G02*
X67225000Y-84600000I-100000J0D01*
G01*
X66125000Y-84600000D01*
G75*
G02*
X66025000Y-84500000I0J100000D01*
G01*
G37*
G36*
G01*
X62750000Y-82240000D02*
X62750000Y-81560000D01*
G75*
G02*
X62835000Y-81475000I85000J0D01*
G01*
X63815000Y-81475000D01*
G75*
G02*
X63900000Y-81560000I0J-85000D01*
G01*
X63900000Y-82240000D01*
G75*
G02*
X63815000Y-82325000I-85000J0D01*
G01*
X62835000Y-82325000D01*
G75*
G02*
X62750000Y-82240000I0J85000D01*
G01*
G37*
G36*
G01*
X62750000Y-84440000D02*
X62750000Y-83760000D01*
G75*
G02*
X62835000Y-83675000I85000J0D01*
G01*
X63815000Y-83675000D01*
G75*
G02*
X63900000Y-83760000I0J-85000D01*
G01*
X63900000Y-84440000D01*
G75*
G02*
X63815000Y-84525000I-85000J0D01*
G01*
X62835000Y-84525000D01*
G75*
G02*
X62750000Y-84440000I0J85000D01*
G01*
G37*
G36*
G01*
X62750000Y-83340000D02*
X62750000Y-82660000D01*
G75*
G02*
X62835000Y-82575000I85000J0D01*
G01*
X63815000Y-82575000D01*
G75*
G02*
X63900000Y-82660000I0J-85000D01*
G01*
X63900000Y-83340000D01*
G75*
G02*
X63815000Y-83425000I-85000J0D01*
G01*
X62835000Y-83425000D01*
G75*
G02*
X62750000Y-83340000I0J85000D01*
G01*
G37*
%TD*%
%TO.C,D2.3*%
G36*
G01*
X66025000Y-72300000D02*
X66025000Y-71500000D01*
G75*
G02*
X66125000Y-71400000I100000J0D01*
G01*
X67225000Y-71400000D01*
G75*
G02*
X67325000Y-71500000I0J-100000D01*
G01*
X67325000Y-72300000D01*
G75*
G02*
X67225000Y-72400000I-100000J0D01*
G01*
X66125000Y-72400000D01*
G75*
G02*
X66025000Y-72300000I0J100000D01*
G01*
G37*
G36*
G01*
X66025000Y-73400000D02*
X66025000Y-72600000D01*
G75*
G02*
X66125000Y-72500000I100000J0D01*
G01*
X67225000Y-72500000D01*
G75*
G02*
X67325000Y-72600000I0J-100000D01*
G01*
X67325000Y-73400000D01*
G75*
G02*
X67225000Y-73500000I-100000J0D01*
G01*
X66125000Y-73500000D01*
G75*
G02*
X66025000Y-73400000I0J100000D01*
G01*
G37*
G36*
G01*
X66025000Y-74500000D02*
X66025000Y-73700000D01*
G75*
G02*
X66125000Y-73600000I100000J0D01*
G01*
X67225000Y-73600000D01*
G75*
G02*
X67325000Y-73700000I0J-100000D01*
G01*
X67325000Y-74500000D01*
G75*
G02*
X67225000Y-74600000I-100000J0D01*
G01*
X66125000Y-74600000D01*
G75*
G02*
X66025000Y-74500000I0J100000D01*
G01*
G37*
G36*
G01*
X62750000Y-72240000D02*
X62750000Y-71560000D01*
G75*
G02*
X62835000Y-71475000I85000J0D01*
G01*
X63815000Y-71475000D01*
G75*
G02*
X63900000Y-71560000I0J-85000D01*
G01*
X63900000Y-72240000D01*
G75*
G02*
X63815000Y-72325000I-85000J0D01*
G01*
X62835000Y-72325000D01*
G75*
G02*
X62750000Y-72240000I0J85000D01*
G01*
G37*
G36*
G01*
X62750000Y-74440000D02*
X62750000Y-73760000D01*
G75*
G02*
X62835000Y-73675000I85000J0D01*
G01*
X63815000Y-73675000D01*
G75*
G02*
X63900000Y-73760000I0J-85000D01*
G01*
X63900000Y-74440000D01*
G75*
G02*
X63815000Y-74525000I-85000J0D01*
G01*
X62835000Y-74525000D01*
G75*
G02*
X62750000Y-74440000I0J85000D01*
G01*
G37*
G36*
G01*
X62750000Y-73340000D02*
X62750000Y-72660000D01*
G75*
G02*
X62835000Y-72575000I85000J0D01*
G01*
X63815000Y-72575000D01*
G75*
G02*
X63900000Y-72660000I0J-85000D01*
G01*
X63900000Y-73340000D01*
G75*
G02*
X63815000Y-73425000I-85000J0D01*
G01*
X62835000Y-73425000D01*
G75*
G02*
X62750000Y-73340000I0J85000D01*
G01*
G37*
%TD*%
%TO.C,D2.2*%
G36*
G01*
X66025000Y-62300000D02*
X66025000Y-61500000D01*
G75*
G02*
X66125000Y-61400000I100000J0D01*
G01*
X67225000Y-61400000D01*
G75*
G02*
X67325000Y-61500000I0J-100000D01*
G01*
X67325000Y-62300000D01*
G75*
G02*
X67225000Y-62400000I-100000J0D01*
G01*
X66125000Y-62400000D01*
G75*
G02*
X66025000Y-62300000I0J100000D01*
G01*
G37*
G36*
G01*
X66025000Y-63400000D02*
X66025000Y-62600000D01*
G75*
G02*
X66125000Y-62500000I100000J0D01*
G01*
X67225000Y-62500000D01*
G75*
G02*
X67325000Y-62600000I0J-100000D01*
G01*
X67325000Y-63400000D01*
G75*
G02*
X67225000Y-63500000I-100000J0D01*
G01*
X66125000Y-63500000D01*
G75*
G02*
X66025000Y-63400000I0J100000D01*
G01*
G37*
G36*
G01*
X66025000Y-64500000D02*
X66025000Y-63700000D01*
G75*
G02*
X66125000Y-63600000I100000J0D01*
G01*
X67225000Y-63600000D01*
G75*
G02*
X67325000Y-63700000I0J-100000D01*
G01*
X67325000Y-64500000D01*
G75*
G02*
X67225000Y-64600000I-100000J0D01*
G01*
X66125000Y-64600000D01*
G75*
G02*
X66025000Y-64500000I0J100000D01*
G01*
G37*
G36*
G01*
X62750000Y-62240000D02*
X62750000Y-61560000D01*
G75*
G02*
X62835000Y-61475000I85000J0D01*
G01*
X63815000Y-61475000D01*
G75*
G02*
X63900000Y-61560000I0J-85000D01*
G01*
X63900000Y-62240000D01*
G75*
G02*
X63815000Y-62325000I-85000J0D01*
G01*
X62835000Y-62325000D01*
G75*
G02*
X62750000Y-62240000I0J85000D01*
G01*
G37*
G36*
G01*
X62750000Y-64440000D02*
X62750000Y-63760000D01*
G75*
G02*
X62835000Y-63675000I85000J0D01*
G01*
X63815000Y-63675000D01*
G75*
G02*
X63900000Y-63760000I0J-85000D01*
G01*
X63900000Y-64440000D01*
G75*
G02*
X63815000Y-64525000I-85000J0D01*
G01*
X62835000Y-64525000D01*
G75*
G02*
X62750000Y-64440000I0J85000D01*
G01*
G37*
G36*
G01*
X62750000Y-63340000D02*
X62750000Y-62660000D01*
G75*
G02*
X62835000Y-62575000I85000J0D01*
G01*
X63815000Y-62575000D01*
G75*
G02*
X63900000Y-62660000I0J-85000D01*
G01*
X63900000Y-63340000D01*
G75*
G02*
X63815000Y-63425000I-85000J0D01*
G01*
X62835000Y-63425000D01*
G75*
G02*
X62750000Y-63340000I0J85000D01*
G01*
G37*
%TD*%
%TO.C,D2.1*%
G36*
G01*
X66025000Y-52300000D02*
X66025000Y-51500000D01*
G75*
G02*
X66125000Y-51400000I100000J0D01*
G01*
X67225000Y-51400000D01*
G75*
G02*
X67325000Y-51500000I0J-100000D01*
G01*
X67325000Y-52300000D01*
G75*
G02*
X67225000Y-52400000I-100000J0D01*
G01*
X66125000Y-52400000D01*
G75*
G02*
X66025000Y-52300000I0J100000D01*
G01*
G37*
G36*
G01*
X66025000Y-53400000D02*
X66025000Y-52600000D01*
G75*
G02*
X66125000Y-52500000I100000J0D01*
G01*
X67225000Y-52500000D01*
G75*
G02*
X67325000Y-52600000I0J-100000D01*
G01*
X67325000Y-53400000D01*
G75*
G02*
X67225000Y-53500000I-100000J0D01*
G01*
X66125000Y-53500000D01*
G75*
G02*
X66025000Y-53400000I0J100000D01*
G01*
G37*
G36*
G01*
X66025000Y-54500000D02*
X66025000Y-53700000D01*
G75*
G02*
X66125000Y-53600000I100000J0D01*
G01*
X67225000Y-53600000D01*
G75*
G02*
X67325000Y-53700000I0J-100000D01*
G01*
X67325000Y-54500000D01*
G75*
G02*
X67225000Y-54600000I-100000J0D01*
G01*
X66125000Y-54600000D01*
G75*
G02*
X66025000Y-54500000I0J100000D01*
G01*
G37*
G36*
G01*
X62750000Y-52240000D02*
X62750000Y-51560000D01*
G75*
G02*
X62835000Y-51475000I85000J0D01*
G01*
X63815000Y-51475000D01*
G75*
G02*
X63900000Y-51560000I0J-85000D01*
G01*
X63900000Y-52240000D01*
G75*
G02*
X63815000Y-52325000I-85000J0D01*
G01*
X62835000Y-52325000D01*
G75*
G02*
X62750000Y-52240000I0J85000D01*
G01*
G37*
G36*
G01*
X62750000Y-54440000D02*
X62750000Y-53760000D01*
G75*
G02*
X62835000Y-53675000I85000J0D01*
G01*
X63815000Y-53675000D01*
G75*
G02*
X63900000Y-53760000I0J-85000D01*
G01*
X63900000Y-54440000D01*
G75*
G02*
X63815000Y-54525000I-85000J0D01*
G01*
X62835000Y-54525000D01*
G75*
G02*
X62750000Y-54440000I0J85000D01*
G01*
G37*
G36*
G01*
X62750000Y-53340000D02*
X62750000Y-52660000D01*
G75*
G02*
X62835000Y-52575000I85000J0D01*
G01*
X63815000Y-52575000D01*
G75*
G02*
X63900000Y-52660000I0J-85000D01*
G01*
X63900000Y-53340000D01*
G75*
G02*
X63815000Y-53425000I-85000J0D01*
G01*
X62835000Y-53425000D01*
G75*
G02*
X62750000Y-53340000I0J85000D01*
G01*
G37*
%TD*%
%TO.C,D1.4*%
G36*
G01*
X56025000Y-82300000D02*
X56025000Y-81500000D01*
G75*
G02*
X56125000Y-81400000I100000J0D01*
G01*
X57225000Y-81400000D01*
G75*
G02*
X57325000Y-81500000I0J-100000D01*
G01*
X57325000Y-82300000D01*
G75*
G02*
X57225000Y-82400000I-100000J0D01*
G01*
X56125000Y-82400000D01*
G75*
G02*
X56025000Y-82300000I0J100000D01*
G01*
G37*
G36*
G01*
X56025000Y-83400000D02*
X56025000Y-82600000D01*
G75*
G02*
X56125000Y-82500000I100000J0D01*
G01*
X57225000Y-82500000D01*
G75*
G02*
X57325000Y-82600000I0J-100000D01*
G01*
X57325000Y-83400000D01*
G75*
G02*
X57225000Y-83500000I-100000J0D01*
G01*
X56125000Y-83500000D01*
G75*
G02*
X56025000Y-83400000I0J100000D01*
G01*
G37*
G36*
G01*
X56025000Y-84500000D02*
X56025000Y-83700000D01*
G75*
G02*
X56125000Y-83600000I100000J0D01*
G01*
X57225000Y-83600000D01*
G75*
G02*
X57325000Y-83700000I0J-100000D01*
G01*
X57325000Y-84500000D01*
G75*
G02*
X57225000Y-84600000I-100000J0D01*
G01*
X56125000Y-84600000D01*
G75*
G02*
X56025000Y-84500000I0J100000D01*
G01*
G37*
G36*
G01*
X52750000Y-82240000D02*
X52750000Y-81560000D01*
G75*
G02*
X52835000Y-81475000I85000J0D01*
G01*
X53815000Y-81475000D01*
G75*
G02*
X53900000Y-81560000I0J-85000D01*
G01*
X53900000Y-82240000D01*
G75*
G02*
X53815000Y-82325000I-85000J0D01*
G01*
X52835000Y-82325000D01*
G75*
G02*
X52750000Y-82240000I0J85000D01*
G01*
G37*
G36*
G01*
X52750000Y-84440000D02*
X52750000Y-83760000D01*
G75*
G02*
X52835000Y-83675000I85000J0D01*
G01*
X53815000Y-83675000D01*
G75*
G02*
X53900000Y-83760000I0J-85000D01*
G01*
X53900000Y-84440000D01*
G75*
G02*
X53815000Y-84525000I-85000J0D01*
G01*
X52835000Y-84525000D01*
G75*
G02*
X52750000Y-84440000I0J85000D01*
G01*
G37*
G36*
G01*
X52750000Y-83340000D02*
X52750000Y-82660000D01*
G75*
G02*
X52835000Y-82575000I85000J0D01*
G01*
X53815000Y-82575000D01*
G75*
G02*
X53900000Y-82660000I0J-85000D01*
G01*
X53900000Y-83340000D01*
G75*
G02*
X53815000Y-83425000I-85000J0D01*
G01*
X52835000Y-83425000D01*
G75*
G02*
X52750000Y-83340000I0J85000D01*
G01*
G37*
%TD*%
%TO.C,D1.3*%
G36*
G01*
X56025000Y-72300000D02*
X56025000Y-71500000D01*
G75*
G02*
X56125000Y-71400000I100000J0D01*
G01*
X57225000Y-71400000D01*
G75*
G02*
X57325000Y-71500000I0J-100000D01*
G01*
X57325000Y-72300000D01*
G75*
G02*
X57225000Y-72400000I-100000J0D01*
G01*
X56125000Y-72400000D01*
G75*
G02*
X56025000Y-72300000I0J100000D01*
G01*
G37*
G36*
G01*
X56025000Y-73400000D02*
X56025000Y-72600000D01*
G75*
G02*
X56125000Y-72500000I100000J0D01*
G01*
X57225000Y-72500000D01*
G75*
G02*
X57325000Y-72600000I0J-100000D01*
G01*
X57325000Y-73400000D01*
G75*
G02*
X57225000Y-73500000I-100000J0D01*
G01*
X56125000Y-73500000D01*
G75*
G02*
X56025000Y-73400000I0J100000D01*
G01*
G37*
G36*
G01*
X56025000Y-74500000D02*
X56025000Y-73700000D01*
G75*
G02*
X56125000Y-73600000I100000J0D01*
G01*
X57225000Y-73600000D01*
G75*
G02*
X57325000Y-73700000I0J-100000D01*
G01*
X57325000Y-74500000D01*
G75*
G02*
X57225000Y-74600000I-100000J0D01*
G01*
X56125000Y-74600000D01*
G75*
G02*
X56025000Y-74500000I0J100000D01*
G01*
G37*
G36*
G01*
X52750000Y-72240000D02*
X52750000Y-71560000D01*
G75*
G02*
X52835000Y-71475000I85000J0D01*
G01*
X53815000Y-71475000D01*
G75*
G02*
X53900000Y-71560000I0J-85000D01*
G01*
X53900000Y-72240000D01*
G75*
G02*
X53815000Y-72325000I-85000J0D01*
G01*
X52835000Y-72325000D01*
G75*
G02*
X52750000Y-72240000I0J85000D01*
G01*
G37*
G36*
G01*
X52750000Y-74440000D02*
X52750000Y-73760000D01*
G75*
G02*
X52835000Y-73675000I85000J0D01*
G01*
X53815000Y-73675000D01*
G75*
G02*
X53900000Y-73760000I0J-85000D01*
G01*
X53900000Y-74440000D01*
G75*
G02*
X53815000Y-74525000I-85000J0D01*
G01*
X52835000Y-74525000D01*
G75*
G02*
X52750000Y-74440000I0J85000D01*
G01*
G37*
G36*
G01*
X52750000Y-73340000D02*
X52750000Y-72660000D01*
G75*
G02*
X52835000Y-72575000I85000J0D01*
G01*
X53815000Y-72575000D01*
G75*
G02*
X53900000Y-72660000I0J-85000D01*
G01*
X53900000Y-73340000D01*
G75*
G02*
X53815000Y-73425000I-85000J0D01*
G01*
X52835000Y-73425000D01*
G75*
G02*
X52750000Y-73340000I0J85000D01*
G01*
G37*
%TD*%
%TO.C,D1.2*%
G36*
G01*
X56025000Y-62300000D02*
X56025000Y-61500000D01*
G75*
G02*
X56125000Y-61400000I100000J0D01*
G01*
X57225000Y-61400000D01*
G75*
G02*
X57325000Y-61500000I0J-100000D01*
G01*
X57325000Y-62300000D01*
G75*
G02*
X57225000Y-62400000I-100000J0D01*
G01*
X56125000Y-62400000D01*
G75*
G02*
X56025000Y-62300000I0J100000D01*
G01*
G37*
G36*
G01*
X56025000Y-63400000D02*
X56025000Y-62600000D01*
G75*
G02*
X56125000Y-62500000I100000J0D01*
G01*
X57225000Y-62500000D01*
G75*
G02*
X57325000Y-62600000I0J-100000D01*
G01*
X57325000Y-63400000D01*
G75*
G02*
X57225000Y-63500000I-100000J0D01*
G01*
X56125000Y-63500000D01*
G75*
G02*
X56025000Y-63400000I0J100000D01*
G01*
G37*
G36*
G01*
X56025000Y-64500000D02*
X56025000Y-63700000D01*
G75*
G02*
X56125000Y-63600000I100000J0D01*
G01*
X57225000Y-63600000D01*
G75*
G02*
X57325000Y-63700000I0J-100000D01*
G01*
X57325000Y-64500000D01*
G75*
G02*
X57225000Y-64600000I-100000J0D01*
G01*
X56125000Y-64600000D01*
G75*
G02*
X56025000Y-64500000I0J100000D01*
G01*
G37*
G36*
G01*
X52750000Y-62240000D02*
X52750000Y-61560000D01*
G75*
G02*
X52835000Y-61475000I85000J0D01*
G01*
X53815000Y-61475000D01*
G75*
G02*
X53900000Y-61560000I0J-85000D01*
G01*
X53900000Y-62240000D01*
G75*
G02*
X53815000Y-62325000I-85000J0D01*
G01*
X52835000Y-62325000D01*
G75*
G02*
X52750000Y-62240000I0J85000D01*
G01*
G37*
G36*
G01*
X52750000Y-64440000D02*
X52750000Y-63760000D01*
G75*
G02*
X52835000Y-63675000I85000J0D01*
G01*
X53815000Y-63675000D01*
G75*
G02*
X53900000Y-63760000I0J-85000D01*
G01*
X53900000Y-64440000D01*
G75*
G02*
X53815000Y-64525000I-85000J0D01*
G01*
X52835000Y-64525000D01*
G75*
G02*
X52750000Y-64440000I0J85000D01*
G01*
G37*
G36*
G01*
X52750000Y-63340000D02*
X52750000Y-62660000D01*
G75*
G02*
X52835000Y-62575000I85000J0D01*
G01*
X53815000Y-62575000D01*
G75*
G02*
X53900000Y-62660000I0J-85000D01*
G01*
X53900000Y-63340000D01*
G75*
G02*
X53815000Y-63425000I-85000J0D01*
G01*
X52835000Y-63425000D01*
G75*
G02*
X52750000Y-63340000I0J85000D01*
G01*
G37*
%TD*%
%TO.C,D1.1*%
G36*
G01*
X56025000Y-52300000D02*
X56025000Y-51500000D01*
G75*
G02*
X56125000Y-51400000I100000J0D01*
G01*
X57225000Y-51400000D01*
G75*
G02*
X57325000Y-51500000I0J-100000D01*
G01*
X57325000Y-52300000D01*
G75*
G02*
X57225000Y-52400000I-100000J0D01*
G01*
X56125000Y-52400000D01*
G75*
G02*
X56025000Y-52300000I0J100000D01*
G01*
G37*
G36*
G01*
X56025000Y-53400000D02*
X56025000Y-52600000D01*
G75*
G02*
X56125000Y-52500000I100000J0D01*
G01*
X57225000Y-52500000D01*
G75*
G02*
X57325000Y-52600000I0J-100000D01*
G01*
X57325000Y-53400000D01*
G75*
G02*
X57225000Y-53500000I-100000J0D01*
G01*
X56125000Y-53500000D01*
G75*
G02*
X56025000Y-53400000I0J100000D01*
G01*
G37*
G36*
G01*
X56025000Y-54500000D02*
X56025000Y-53700000D01*
G75*
G02*
X56125000Y-53600000I100000J0D01*
G01*
X57225000Y-53600000D01*
G75*
G02*
X57325000Y-53700000I0J-100000D01*
G01*
X57325000Y-54500000D01*
G75*
G02*
X57225000Y-54600000I-100000J0D01*
G01*
X56125000Y-54600000D01*
G75*
G02*
X56025000Y-54500000I0J100000D01*
G01*
G37*
G36*
G01*
X52750000Y-52240000D02*
X52750000Y-51560000D01*
G75*
G02*
X52835000Y-51475000I85000J0D01*
G01*
X53815000Y-51475000D01*
G75*
G02*
X53900000Y-51560000I0J-85000D01*
G01*
X53900000Y-52240000D01*
G75*
G02*
X53815000Y-52325000I-85000J0D01*
G01*
X52835000Y-52325000D01*
G75*
G02*
X52750000Y-52240000I0J85000D01*
G01*
G37*
G36*
G01*
X52750000Y-54440000D02*
X52750000Y-53760000D01*
G75*
G02*
X52835000Y-53675000I85000J0D01*
G01*
X53815000Y-53675000D01*
G75*
G02*
X53900000Y-53760000I0J-85000D01*
G01*
X53900000Y-54440000D01*
G75*
G02*
X53815000Y-54525000I-85000J0D01*
G01*
X52835000Y-54525000D01*
G75*
G02*
X52750000Y-54440000I0J85000D01*
G01*
G37*
G36*
G01*
X52750000Y-53340000D02*
X52750000Y-52660000D01*
G75*
G02*
X52835000Y-52575000I85000J0D01*
G01*
X53815000Y-52575000D01*
G75*
G02*
X53900000Y-52660000I0J-85000D01*
G01*
X53900000Y-53340000D01*
G75*
G02*
X53815000Y-53425000I-85000J0D01*
G01*
X52835000Y-53425000D01*
G75*
G02*
X52750000Y-53340000I0J85000D01*
G01*
G37*
%TD*%
D10*
%TO.C,J2*%
X76350000Y-88000000D03*
X73810000Y-88000000D03*
X71270000Y-88000000D03*
X68730000Y-88000000D03*
X66190000Y-88000000D03*
G36*
G01*
X62800000Y-87075000D02*
X64500000Y-87075000D01*
G75*
G02*
X64575000Y-87150000I0J-75000D01*
G01*
X64575000Y-88850000D01*
G75*
G02*
X64500000Y-88925000I-75000J0D01*
G01*
X62800000Y-88925000D01*
G75*
G02*
X62725000Y-88850000I0J75000D01*
G01*
X62725000Y-87150000D01*
G75*
G02*
X62800000Y-87075000I75000J0D01*
G01*
G37*
%TD*%
%TO.C,J1*%
X61110000Y-88000000D03*
X58570000Y-88000000D03*
G36*
G01*
X55180000Y-87075000D02*
X56880000Y-87075000D01*
G75*
G02*
X56955000Y-87150000I0J-75000D01*
G01*
X56955000Y-88850000D01*
G75*
G02*
X56880000Y-88925000I-75000J0D01*
G01*
X55180000Y-88925000D01*
G75*
G02*
X55105000Y-88850000I0J75000D01*
G01*
X55105000Y-87150000D01*
G75*
G02*
X55180000Y-87075000I75000J0D01*
G01*
G37*
%TD*%
%TO.C,J6*%
X83970000Y-88000000D03*
X81430000Y-88000000D03*
G36*
G01*
X78040000Y-87075000D02*
X79740000Y-87075000D01*
G75*
G02*
X79815000Y-87150000I0J-75000D01*
G01*
X79815000Y-88850000D01*
G75*
G02*
X79740000Y-88925000I-75000J0D01*
G01*
X78040000Y-88925000D01*
G75*
G02*
X77965000Y-88850000I0J75000D01*
G01*
X77965000Y-87150000D01*
G75*
G02*
X78040000Y-87075000I75000J0D01*
G01*
G37*
%TD*%
%TO.C,C1*%
G36*
G01*
X67275000Y-58725000D02*
X66725000Y-58725000D01*
G75*
G02*
X66450000Y-58450000I0J275000D01*
G01*
X66450000Y-57800000D01*
G75*
G02*
X66725000Y-57525000I275000J0D01*
G01*
X67275000Y-57525000D01*
G75*
G02*
X67550000Y-57800000I0J-275000D01*
G01*
X67550000Y-58450000D01*
G75*
G02*
X67275000Y-58725000I-275000J0D01*
G01*
G37*
G36*
G01*
X67275000Y-60475000D02*
X66725000Y-60475000D01*
G75*
G02*
X66450000Y-60200000I0J275000D01*
G01*
X66450000Y-59550000D01*
G75*
G02*
X66725000Y-59275000I275000J0D01*
G01*
X67275000Y-59275000D01*
G75*
G02*
X67550000Y-59550000I0J-275000D01*
G01*
X67550000Y-60200000D01*
G75*
G02*
X67275000Y-60475000I-275000J0D01*
G01*
G37*
%TD*%
%TO.C,C2*%
G36*
G01*
X87275000Y-58725000D02*
X86725000Y-58725000D01*
G75*
G02*
X86450000Y-58450000I0J275000D01*
G01*
X86450000Y-57800000D01*
G75*
G02*
X86725000Y-57525000I275000J0D01*
G01*
X87275000Y-57525000D01*
G75*
G02*
X87550000Y-57800000I0J-275000D01*
G01*
X87550000Y-58450000D01*
G75*
G02*
X87275000Y-58725000I-275000J0D01*
G01*
G37*
G36*
G01*
X87275000Y-60475000D02*
X86725000Y-60475000D01*
G75*
G02*
X86450000Y-60200000I0J275000D01*
G01*
X86450000Y-59550000D01*
G75*
G02*
X86725000Y-59275000I275000J0D01*
G01*
X87275000Y-59275000D01*
G75*
G02*
X87550000Y-59550000I0J-275000D01*
G01*
X87550000Y-60200000D01*
G75*
G02*
X87275000Y-60475000I-275000J0D01*
G01*
G37*
%TD*%
%TO.C,C3*%
G36*
G01*
X67275000Y-78725000D02*
X66725000Y-78725000D01*
G75*
G02*
X66450000Y-78450000I0J275000D01*
G01*
X66450000Y-77800000D01*
G75*
G02*
X66725000Y-77525000I275000J0D01*
G01*
X67275000Y-77525000D01*
G75*
G02*
X67550000Y-77800000I0J-275000D01*
G01*
X67550000Y-78450000D01*
G75*
G02*
X67275000Y-78725000I-275000J0D01*
G01*
G37*
G36*
G01*
X67275000Y-80475000D02*
X66725000Y-80475000D01*
G75*
G02*
X66450000Y-80200000I0J275000D01*
G01*
X66450000Y-79550000D01*
G75*
G02*
X66725000Y-79275000I275000J0D01*
G01*
X67275000Y-79275000D01*
G75*
G02*
X67550000Y-79550000I0J-275000D01*
G01*
X67550000Y-80200000D01*
G75*
G02*
X67275000Y-80475000I-275000J0D01*
G01*
G37*
%TD*%
%TO.C,C4*%
G36*
G01*
X87275000Y-78725000D02*
X86725000Y-78725000D01*
G75*
G02*
X86450000Y-78450000I0J275000D01*
G01*
X86450000Y-77800000D01*
G75*
G02*
X86725000Y-77525000I275000J0D01*
G01*
X87275000Y-77525000D01*
G75*
G02*
X87550000Y-77800000I0J-275000D01*
G01*
X87550000Y-78450000D01*
G75*
G02*
X87275000Y-78725000I-275000J0D01*
G01*
G37*
G36*
G01*
X87275000Y-80475000D02*
X86725000Y-80475000D01*
G75*
G02*
X86450000Y-80200000I0J275000D01*
G01*
X86450000Y-79550000D01*
G75*
G02*
X86725000Y-79275000I275000J0D01*
G01*
X87275000Y-79275000D01*
G75*
G02*
X87550000Y-79550000I0J-275000D01*
G01*
X87550000Y-80200000D01*
G75*
G02*
X87275000Y-80475000I-275000J0D01*
G01*
G37*
%TD*%
%TO.C,C5*%
G36*
G01*
X69725000Y-67725000D02*
X69725000Y-68275000D01*
G75*
G02*
X69450000Y-68550000I-275000J0D01*
G01*
X68800000Y-68550000D01*
G75*
G02*
X68525000Y-68275000I0J275000D01*
G01*
X68525000Y-67725000D01*
G75*
G02*
X68800000Y-67450000I275000J0D01*
G01*
X69450000Y-67450000D01*
G75*
G02*
X69725000Y-67725000I0J-275000D01*
G01*
G37*
G36*
G01*
X71475000Y-67725000D02*
X71475000Y-68275000D01*
G75*
G02*
X71200000Y-68550000I-275000J0D01*
G01*
X70550000Y-68550000D01*
G75*
G02*
X70275000Y-68275000I0J275000D01*
G01*
X70275000Y-67725000D01*
G75*
G02*
X70550000Y-67450000I275000J0D01*
G01*
X71200000Y-67450000D01*
G75*
G02*
X71475000Y-67725000I0J-275000D01*
G01*
G37*
%TD*%
%TO.C,R2*%
G36*
G01*
X86275000Y-56275000D02*
X86275000Y-55725000D01*
G75*
G02*
X86550000Y-55450000I275000J0D01*
G01*
X87200000Y-55450000D01*
G75*
G02*
X87475000Y-55725000I0J-275000D01*
G01*
X87475000Y-56275000D01*
G75*
G02*
X87200000Y-56550000I-275000J0D01*
G01*
X86550000Y-56550000D01*
G75*
G02*
X86275000Y-56275000I0J275000D01*
G01*
G37*
G36*
G01*
X84525000Y-56275000D02*
X84525000Y-55725000D01*
G75*
G02*
X84800000Y-55450000I275000J0D01*
G01*
X85450000Y-55450000D01*
G75*
G02*
X85725000Y-55725000I0J-275000D01*
G01*
X85725000Y-56275000D01*
G75*
G02*
X85450000Y-56550000I-275000J0D01*
G01*
X84800000Y-56550000D01*
G75*
G02*
X84525000Y-56275000I0J275000D01*
G01*
G37*
%TD*%
%TO.C,R3*%
G36*
G01*
X66275000Y-76275000D02*
X66275000Y-75725000D01*
G75*
G02*
X66550000Y-75450000I275000J0D01*
G01*
X67200000Y-75450000D01*
G75*
G02*
X67475000Y-75725000I0J-275000D01*
G01*
X67475000Y-76275000D01*
G75*
G02*
X67200000Y-76550000I-275000J0D01*
G01*
X66550000Y-76550000D01*
G75*
G02*
X66275000Y-76275000I0J275000D01*
G01*
G37*
G36*
G01*
X64525000Y-76275000D02*
X64525000Y-75725000D01*
G75*
G02*
X64800000Y-75450000I275000J0D01*
G01*
X65450000Y-75450000D01*
G75*
G02*
X65725000Y-75725000I0J-275000D01*
G01*
X65725000Y-76275000D01*
G75*
G02*
X65450000Y-76550000I-275000J0D01*
G01*
X64800000Y-76550000D01*
G75*
G02*
X64525000Y-76275000I0J275000D01*
G01*
G37*
%TD*%
%TO.C,R4*%
G36*
G01*
X86275000Y-76275000D02*
X86275000Y-75725000D01*
G75*
G02*
X86550000Y-75450000I275000J0D01*
G01*
X87200000Y-75450000D01*
G75*
G02*
X87475000Y-75725000I0J-275000D01*
G01*
X87475000Y-76275000D01*
G75*
G02*
X87200000Y-76550000I-275000J0D01*
G01*
X86550000Y-76550000D01*
G75*
G02*
X86275000Y-76275000I0J275000D01*
G01*
G37*
G36*
G01*
X84525000Y-76275000D02*
X84525000Y-75725000D01*
G75*
G02*
X84800000Y-75450000I275000J0D01*
G01*
X85450000Y-75450000D01*
G75*
G02*
X85725000Y-75725000I0J-275000D01*
G01*
X85725000Y-76275000D01*
G75*
G02*
X85450000Y-76550000I-275000J0D01*
G01*
X84800000Y-76550000D01*
G75*
G02*
X84525000Y-76275000I0J275000D01*
G01*
G37*
%TD*%
%TO.C,R1*%
G36*
G01*
X66275000Y-56275000D02*
X66275000Y-55725000D01*
G75*
G02*
X66550000Y-55450000I275000J0D01*
G01*
X67200000Y-55450000D01*
G75*
G02*
X67475000Y-55725000I0J-275000D01*
G01*
X67475000Y-56275000D01*
G75*
G02*
X67200000Y-56550000I-275000J0D01*
G01*
X66550000Y-56550000D01*
G75*
G02*
X66275000Y-56275000I0J275000D01*
G01*
G37*
G36*
G01*
X64525000Y-56275000D02*
X64525000Y-55725000D01*
G75*
G02*
X64800000Y-55450000I275000J0D01*
G01*
X65450000Y-55450000D01*
G75*
G02*
X65725000Y-55725000I0J-275000D01*
G01*
X65725000Y-56275000D01*
G75*
G02*
X65450000Y-56550000I-275000J0D01*
G01*
X64800000Y-56550000D01*
G75*
G02*
X64525000Y-56275000I0J275000D01*
G01*
G37*
%TD*%
D11*
%TO.C,MK1*%
X60000000Y-68000000D03*
%TD*%
%TO.C,MK2*%
X80000000Y-68000000D03*
%TD*%
%TO.C,U1*%
G36*
G01*
X58009495Y-58045962D02*
X60045962Y-56009495D01*
G75*
G02*
X60434870Y-56009495I194454J-194454D01*
G01*
X61990505Y-57565130D01*
G75*
G02*
X61990505Y-57954038I-194454J-194454D01*
G01*
X59954038Y-59990505D01*
G75*
G02*
X59565130Y-59990505I-194454J194454D01*
G01*
X58009495Y-58434870D01*
G75*
G02*
X58009495Y-58045962I194454J194454D01*
G01*
G37*
G36*
G01*
X59336026Y-53459668D02*
X59596242Y-53199452D01*
G75*
G02*
X59661296Y-53199452I32527J-32527D01*
G01*
X60840750Y-54378906D01*
G75*
G02*
X60840750Y-54443960I-32527J-32527D01*
G01*
X60580534Y-54704176D01*
G75*
G02*
X60515480Y-54704176I-32527J32527D01*
G01*
X59336026Y-53524722D01*
G75*
G02*
X59336026Y-53459668I32527J32527D01*
G01*
G37*
G36*
G01*
X58876407Y-53919287D02*
X59136623Y-53659071D01*
G75*
G02*
X59201677Y-53659071I32527J-32527D01*
G01*
X60381131Y-54838525D01*
G75*
G02*
X60381131Y-54903579I-32527J-32527D01*
G01*
X60120915Y-55163795D01*
G75*
G02*
X60055861Y-55163795I-32527J32527D01*
G01*
X58876407Y-53984341D01*
G75*
G02*
X58876407Y-53919287I32527J32527D01*
G01*
G37*
G36*
G01*
X58416788Y-54378906D02*
X58677004Y-54118690D01*
G75*
G02*
X58742058Y-54118690I32527J-32527D01*
G01*
X59921512Y-55298144D01*
G75*
G02*
X59921512Y-55363198I-32527J-32527D01*
G01*
X59661296Y-55623414D01*
G75*
G02*
X59596242Y-55623414I-32527J32527D01*
G01*
X58416788Y-54443960D01*
G75*
G02*
X58416788Y-54378906I32527J32527D01*
G01*
G37*
G36*
G01*
X57957168Y-54838526D02*
X58217384Y-54578310D01*
G75*
G02*
X58282438Y-54578310I32527J-32527D01*
G01*
X59461892Y-55757764D01*
G75*
G02*
X59461892Y-55822818I-32527J-32527D01*
G01*
X59201676Y-56083034D01*
G75*
G02*
X59136622Y-56083034I-32527J32527D01*
G01*
X57957168Y-54903580D01*
G75*
G02*
X57957168Y-54838526I32527J32527D01*
G01*
G37*
G36*
G01*
X57497549Y-55298145D02*
X57757765Y-55037929D01*
G75*
G02*
X57822819Y-55037929I32527J-32527D01*
G01*
X59002273Y-56217383D01*
G75*
G02*
X59002273Y-56282437I-32527J-32527D01*
G01*
X58742057Y-56542653D01*
G75*
G02*
X58677003Y-56542653I-32527J32527D01*
G01*
X57497549Y-55363199D01*
G75*
G02*
X57497549Y-55298145I32527J32527D01*
G01*
G37*
G36*
G01*
X57037929Y-55757765D02*
X57298145Y-55497549D01*
G75*
G02*
X57363199Y-55497549I32527J-32527D01*
G01*
X58542653Y-56677003D01*
G75*
G02*
X58542653Y-56742057I-32527J-32527D01*
G01*
X58282437Y-57002273D01*
G75*
G02*
X58217383Y-57002273I-32527J32527D01*
G01*
X57037929Y-55822819D01*
G75*
G02*
X57037929Y-55757765I32527J32527D01*
G01*
G37*
G36*
G01*
X56578310Y-56217384D02*
X56838526Y-55957168D01*
G75*
G02*
X56903580Y-55957168I32527J-32527D01*
G01*
X58083034Y-57136622D01*
G75*
G02*
X58083034Y-57201676I-32527J-32527D01*
G01*
X57822818Y-57461892D01*
G75*
G02*
X57757764Y-57461892I-32527J32527D01*
G01*
X56578310Y-56282438D01*
G75*
G02*
X56578310Y-56217384I32527J32527D01*
G01*
G37*
G36*
G01*
X56118690Y-56677004D02*
X56378906Y-56416788D01*
G75*
G02*
X56443960Y-56416788I32527J-32527D01*
G01*
X57623414Y-57596242D01*
G75*
G02*
X57623414Y-57661296I-32527J-32527D01*
G01*
X57363198Y-57921512D01*
G75*
G02*
X57298144Y-57921512I-32527J32527D01*
G01*
X56118690Y-56742058D01*
G75*
G02*
X56118690Y-56677004I32527J32527D01*
G01*
G37*
G36*
G01*
X55659071Y-57136623D02*
X55919287Y-56876407D01*
G75*
G02*
X55984341Y-56876407I32527J-32527D01*
G01*
X57163795Y-58055861D01*
G75*
G02*
X57163795Y-58120915I-32527J-32527D01*
G01*
X56903579Y-58381131D01*
G75*
G02*
X56838525Y-58381131I-32527J32527D01*
G01*
X55659071Y-57201677D01*
G75*
G02*
X55659071Y-57136623I32527J32527D01*
G01*
G37*
G36*
G01*
X55199452Y-57596242D02*
X55459668Y-57336026D01*
G75*
G02*
X55524722Y-57336026I32527J-32527D01*
G01*
X56704176Y-58515480D01*
G75*
G02*
X56704176Y-58580534I-32527J-32527D01*
G01*
X56443960Y-58840750D01*
G75*
G02*
X56378906Y-58840750I-32527J32527D01*
G01*
X55199452Y-57661296D01*
G75*
G02*
X55199452Y-57596242I32527J32527D01*
G01*
G37*
G36*
G01*
X59159250Y-61556040D02*
X59419466Y-61295824D01*
G75*
G02*
X59484520Y-61295824I32527J-32527D01*
G01*
X60663974Y-62475278D01*
G75*
G02*
X60663974Y-62540332I-32527J-32527D01*
G01*
X60403758Y-62800548D01*
G75*
G02*
X60338704Y-62800548I-32527J32527D01*
G01*
X59159250Y-61621094D01*
G75*
G02*
X59159250Y-61556040I32527J32527D01*
G01*
G37*
G36*
G01*
X59618869Y-61096421D02*
X59879085Y-60836205D01*
G75*
G02*
X59944139Y-60836205I32527J-32527D01*
G01*
X61123593Y-62015659D01*
G75*
G02*
X61123593Y-62080713I-32527J-32527D01*
G01*
X60863377Y-62340929D01*
G75*
G02*
X60798323Y-62340929I-32527J32527D01*
G01*
X59618869Y-61161475D01*
G75*
G02*
X59618869Y-61096421I32527J32527D01*
G01*
G37*
G36*
G01*
X60078488Y-60636802D02*
X60338704Y-60376586D01*
G75*
G02*
X60403758Y-60376586I32527J-32527D01*
G01*
X61583212Y-61556040D01*
G75*
G02*
X61583212Y-61621094I-32527J-32527D01*
G01*
X61322996Y-61881310D01*
G75*
G02*
X61257942Y-61881310I-32527J32527D01*
G01*
X60078488Y-60701856D01*
G75*
G02*
X60078488Y-60636802I32527J32527D01*
G01*
G37*
G36*
G01*
X60538108Y-60177182D02*
X60798324Y-59916966D01*
G75*
G02*
X60863378Y-59916966I32527J-32527D01*
G01*
X62042832Y-61096420D01*
G75*
G02*
X62042832Y-61161474I-32527J-32527D01*
G01*
X61782616Y-61421690D01*
G75*
G02*
X61717562Y-61421690I-32527J32527D01*
G01*
X60538108Y-60242236D01*
G75*
G02*
X60538108Y-60177182I32527J32527D01*
G01*
G37*
G36*
G01*
X60997727Y-59717563D02*
X61257943Y-59457347D01*
G75*
G02*
X61322997Y-59457347I32527J-32527D01*
G01*
X62502451Y-60636801D01*
G75*
G02*
X62502451Y-60701855I-32527J-32527D01*
G01*
X62242235Y-60962071D01*
G75*
G02*
X62177181Y-60962071I-32527J32527D01*
G01*
X60997727Y-59782617D01*
G75*
G02*
X60997727Y-59717563I32527J32527D01*
G01*
G37*
G36*
G01*
X61457347Y-59257943D02*
X61717563Y-58997727D01*
G75*
G02*
X61782617Y-58997727I32527J-32527D01*
G01*
X62962071Y-60177181D01*
G75*
G02*
X62962071Y-60242235I-32527J-32527D01*
G01*
X62701855Y-60502451D01*
G75*
G02*
X62636801Y-60502451I-32527J32527D01*
G01*
X61457347Y-59322997D01*
G75*
G02*
X61457347Y-59257943I32527J32527D01*
G01*
G37*
G36*
G01*
X61916966Y-58798324D02*
X62177182Y-58538108D01*
G75*
G02*
X62242236Y-58538108I32527J-32527D01*
G01*
X63421690Y-59717562D01*
G75*
G02*
X63421690Y-59782616I-32527J-32527D01*
G01*
X63161474Y-60042832D01*
G75*
G02*
X63096420Y-60042832I-32527J32527D01*
G01*
X61916966Y-58863378D01*
G75*
G02*
X61916966Y-58798324I32527J32527D01*
G01*
G37*
G36*
G01*
X62376586Y-58338704D02*
X62636802Y-58078488D01*
G75*
G02*
X62701856Y-58078488I32527J-32527D01*
G01*
X63881310Y-59257942D01*
G75*
G02*
X63881310Y-59322996I-32527J-32527D01*
G01*
X63621094Y-59583212D01*
G75*
G02*
X63556040Y-59583212I-32527J32527D01*
G01*
X62376586Y-58403758D01*
G75*
G02*
X62376586Y-58338704I32527J32527D01*
G01*
G37*
G36*
G01*
X62836205Y-57879085D02*
X63096421Y-57618869D01*
G75*
G02*
X63161475Y-57618869I32527J-32527D01*
G01*
X64340929Y-58798323D01*
G75*
G02*
X64340929Y-58863377I-32527J-32527D01*
G01*
X64080713Y-59123593D01*
G75*
G02*
X64015659Y-59123593I-32527J32527D01*
G01*
X62836205Y-57944139D01*
G75*
G02*
X62836205Y-57879085I32527J32527D01*
G01*
G37*
G36*
G01*
X63295824Y-57419466D02*
X63556040Y-57159250D01*
G75*
G02*
X63621094Y-57159250I32527J-32527D01*
G01*
X64800548Y-58338704D01*
G75*
G02*
X64800548Y-58403758I-32527J-32527D01*
G01*
X64540332Y-58663974D01*
G75*
G02*
X64475278Y-58663974I-32527J32527D01*
G01*
X63295824Y-57484520D01*
G75*
G02*
X63295824Y-57419466I32527J32527D01*
G01*
G37*
%TD*%
%TO.C,U2*%
G36*
G01*
X78009495Y-58045962D02*
X80045962Y-56009495D01*
G75*
G02*
X80434870Y-56009495I194454J-194454D01*
G01*
X81990505Y-57565130D01*
G75*
G02*
X81990505Y-57954038I-194454J-194454D01*
G01*
X79954038Y-59990505D01*
G75*
G02*
X79565130Y-59990505I-194454J194454D01*
G01*
X78009495Y-58434870D01*
G75*
G02*
X78009495Y-58045962I194454J194454D01*
G01*
G37*
G36*
G01*
X79336026Y-53459668D02*
X79596242Y-53199452D01*
G75*
G02*
X79661296Y-53199452I32527J-32527D01*
G01*
X80840750Y-54378906D01*
G75*
G02*
X80840750Y-54443960I-32527J-32527D01*
G01*
X80580534Y-54704176D01*
G75*
G02*
X80515480Y-54704176I-32527J32527D01*
G01*
X79336026Y-53524722D01*
G75*
G02*
X79336026Y-53459668I32527J32527D01*
G01*
G37*
G36*
G01*
X78876407Y-53919287D02*
X79136623Y-53659071D01*
G75*
G02*
X79201677Y-53659071I32527J-32527D01*
G01*
X80381131Y-54838525D01*
G75*
G02*
X80381131Y-54903579I-32527J-32527D01*
G01*
X80120915Y-55163795D01*
G75*
G02*
X80055861Y-55163795I-32527J32527D01*
G01*
X78876407Y-53984341D01*
G75*
G02*
X78876407Y-53919287I32527J32527D01*
G01*
G37*
G36*
G01*
X78416788Y-54378906D02*
X78677004Y-54118690D01*
G75*
G02*
X78742058Y-54118690I32527J-32527D01*
G01*
X79921512Y-55298144D01*
G75*
G02*
X79921512Y-55363198I-32527J-32527D01*
G01*
X79661296Y-55623414D01*
G75*
G02*
X79596242Y-55623414I-32527J32527D01*
G01*
X78416788Y-54443960D01*
G75*
G02*
X78416788Y-54378906I32527J32527D01*
G01*
G37*
G36*
G01*
X77957168Y-54838526D02*
X78217384Y-54578310D01*
G75*
G02*
X78282438Y-54578310I32527J-32527D01*
G01*
X79461892Y-55757764D01*
G75*
G02*
X79461892Y-55822818I-32527J-32527D01*
G01*
X79201676Y-56083034D01*
G75*
G02*
X79136622Y-56083034I-32527J32527D01*
G01*
X77957168Y-54903580D01*
G75*
G02*
X77957168Y-54838526I32527J32527D01*
G01*
G37*
G36*
G01*
X77497549Y-55298145D02*
X77757765Y-55037929D01*
G75*
G02*
X77822819Y-55037929I32527J-32527D01*
G01*
X79002273Y-56217383D01*
G75*
G02*
X79002273Y-56282437I-32527J-32527D01*
G01*
X78742057Y-56542653D01*
G75*
G02*
X78677003Y-56542653I-32527J32527D01*
G01*
X77497549Y-55363199D01*
G75*
G02*
X77497549Y-55298145I32527J32527D01*
G01*
G37*
G36*
G01*
X77037929Y-55757765D02*
X77298145Y-55497549D01*
G75*
G02*
X77363199Y-55497549I32527J-32527D01*
G01*
X78542653Y-56677003D01*
G75*
G02*
X78542653Y-56742057I-32527J-32527D01*
G01*
X78282437Y-57002273D01*
G75*
G02*
X78217383Y-57002273I-32527J32527D01*
G01*
X77037929Y-55822819D01*
G75*
G02*
X77037929Y-55757765I32527J32527D01*
G01*
G37*
G36*
G01*
X76578310Y-56217384D02*
X76838526Y-55957168D01*
G75*
G02*
X76903580Y-55957168I32527J-32527D01*
G01*
X78083034Y-57136622D01*
G75*
G02*
X78083034Y-57201676I-32527J-32527D01*
G01*
X77822818Y-57461892D01*
G75*
G02*
X77757764Y-57461892I-32527J32527D01*
G01*
X76578310Y-56282438D01*
G75*
G02*
X76578310Y-56217384I32527J32527D01*
G01*
G37*
G36*
G01*
X76118690Y-56677004D02*
X76378906Y-56416788D01*
G75*
G02*
X76443960Y-56416788I32527J-32527D01*
G01*
X77623414Y-57596242D01*
G75*
G02*
X77623414Y-57661296I-32527J-32527D01*
G01*
X77363198Y-57921512D01*
G75*
G02*
X77298144Y-57921512I-32527J32527D01*
G01*
X76118690Y-56742058D01*
G75*
G02*
X76118690Y-56677004I32527J32527D01*
G01*
G37*
G36*
G01*
X75659071Y-57136623D02*
X75919287Y-56876407D01*
G75*
G02*
X75984341Y-56876407I32527J-32527D01*
G01*
X77163795Y-58055861D01*
G75*
G02*
X77163795Y-58120915I-32527J-32527D01*
G01*
X76903579Y-58381131D01*
G75*
G02*
X76838525Y-58381131I-32527J32527D01*
G01*
X75659071Y-57201677D01*
G75*
G02*
X75659071Y-57136623I32527J32527D01*
G01*
G37*
G36*
G01*
X75199452Y-57596242D02*
X75459668Y-57336026D01*
G75*
G02*
X75524722Y-57336026I32527J-32527D01*
G01*
X76704176Y-58515480D01*
G75*
G02*
X76704176Y-58580534I-32527J-32527D01*
G01*
X76443960Y-58840750D01*
G75*
G02*
X76378906Y-58840750I-32527J32527D01*
G01*
X75199452Y-57661296D01*
G75*
G02*
X75199452Y-57596242I32527J32527D01*
G01*
G37*
G36*
G01*
X79159250Y-61556040D02*
X79419466Y-61295824D01*
G75*
G02*
X79484520Y-61295824I32527J-32527D01*
G01*
X80663974Y-62475278D01*
G75*
G02*
X80663974Y-62540332I-32527J-32527D01*
G01*
X80403758Y-62800548D01*
G75*
G02*
X80338704Y-62800548I-32527J32527D01*
G01*
X79159250Y-61621094D01*
G75*
G02*
X79159250Y-61556040I32527J32527D01*
G01*
G37*
G36*
G01*
X79618869Y-61096421D02*
X79879085Y-60836205D01*
G75*
G02*
X79944139Y-60836205I32527J-32527D01*
G01*
X81123593Y-62015659D01*
G75*
G02*
X81123593Y-62080713I-32527J-32527D01*
G01*
X80863377Y-62340929D01*
G75*
G02*
X80798323Y-62340929I-32527J32527D01*
G01*
X79618869Y-61161475D01*
G75*
G02*
X79618869Y-61096421I32527J32527D01*
G01*
G37*
G36*
G01*
X80078488Y-60636802D02*
X80338704Y-60376586D01*
G75*
G02*
X80403758Y-60376586I32527J-32527D01*
G01*
X81583212Y-61556040D01*
G75*
G02*
X81583212Y-61621094I-32527J-32527D01*
G01*
X81322996Y-61881310D01*
G75*
G02*
X81257942Y-61881310I-32527J32527D01*
G01*
X80078488Y-60701856D01*
G75*
G02*
X80078488Y-60636802I32527J32527D01*
G01*
G37*
G36*
G01*
X80538108Y-60177182D02*
X80798324Y-59916966D01*
G75*
G02*
X80863378Y-59916966I32527J-32527D01*
G01*
X82042832Y-61096420D01*
G75*
G02*
X82042832Y-61161474I-32527J-32527D01*
G01*
X81782616Y-61421690D01*
G75*
G02*
X81717562Y-61421690I-32527J32527D01*
G01*
X80538108Y-60242236D01*
G75*
G02*
X80538108Y-60177182I32527J32527D01*
G01*
G37*
G36*
G01*
X80997727Y-59717563D02*
X81257943Y-59457347D01*
G75*
G02*
X81322997Y-59457347I32527J-32527D01*
G01*
X82502451Y-60636801D01*
G75*
G02*
X82502451Y-60701855I-32527J-32527D01*
G01*
X82242235Y-60962071D01*
G75*
G02*
X82177181Y-60962071I-32527J32527D01*
G01*
X80997727Y-59782617D01*
G75*
G02*
X80997727Y-59717563I32527J32527D01*
G01*
G37*
G36*
G01*
X81457347Y-59257943D02*
X81717563Y-58997727D01*
G75*
G02*
X81782617Y-58997727I32527J-32527D01*
G01*
X82962071Y-60177181D01*
G75*
G02*
X82962071Y-60242235I-32527J-32527D01*
G01*
X82701855Y-60502451D01*
G75*
G02*
X82636801Y-60502451I-32527J32527D01*
G01*
X81457347Y-59322997D01*
G75*
G02*
X81457347Y-59257943I32527J32527D01*
G01*
G37*
G36*
G01*
X81916966Y-58798324D02*
X82177182Y-58538108D01*
G75*
G02*
X82242236Y-58538108I32527J-32527D01*
G01*
X83421690Y-59717562D01*
G75*
G02*
X83421690Y-59782616I-32527J-32527D01*
G01*
X83161474Y-60042832D01*
G75*
G02*
X83096420Y-60042832I-32527J32527D01*
G01*
X81916966Y-58863378D01*
G75*
G02*
X81916966Y-58798324I32527J32527D01*
G01*
G37*
G36*
G01*
X82376586Y-58338704D02*
X82636802Y-58078488D01*
G75*
G02*
X82701856Y-58078488I32527J-32527D01*
G01*
X83881310Y-59257942D01*
G75*
G02*
X83881310Y-59322996I-32527J-32527D01*
G01*
X83621094Y-59583212D01*
G75*
G02*
X83556040Y-59583212I-32527J32527D01*
G01*
X82376586Y-58403758D01*
G75*
G02*
X82376586Y-58338704I32527J32527D01*
G01*
G37*
G36*
G01*
X82836205Y-57879085D02*
X83096421Y-57618869D01*
G75*
G02*
X83161475Y-57618869I32527J-32527D01*
G01*
X84340929Y-58798323D01*
G75*
G02*
X84340929Y-58863377I-32527J-32527D01*
G01*
X84080713Y-59123593D01*
G75*
G02*
X84015659Y-59123593I-32527J32527D01*
G01*
X82836205Y-57944139D01*
G75*
G02*
X82836205Y-57879085I32527J32527D01*
G01*
G37*
G36*
G01*
X83295824Y-57419466D02*
X83556040Y-57159250D01*
G75*
G02*
X83621094Y-57159250I32527J-32527D01*
G01*
X84800548Y-58338704D01*
G75*
G02*
X84800548Y-58403758I-32527J-32527D01*
G01*
X84540332Y-58663974D01*
G75*
G02*
X84475278Y-58663974I-32527J32527D01*
G01*
X83295824Y-57484520D01*
G75*
G02*
X83295824Y-57419466I32527J32527D01*
G01*
G37*
%TD*%
%TO.C,U3*%
G36*
G01*
X58009495Y-78045962D02*
X60045962Y-76009495D01*
G75*
G02*
X60434870Y-76009495I194454J-194454D01*
G01*
X61990505Y-77565130D01*
G75*
G02*
X61990505Y-77954038I-194454J-194454D01*
G01*
X59954038Y-79990505D01*
G75*
G02*
X59565130Y-79990505I-194454J194454D01*
G01*
X58009495Y-78434870D01*
G75*
G02*
X58009495Y-78045962I194454J194454D01*
G01*
G37*
G36*
G01*
X59336026Y-73459668D02*
X59596242Y-73199452D01*
G75*
G02*
X59661296Y-73199452I32527J-32527D01*
G01*
X60840750Y-74378906D01*
G75*
G02*
X60840750Y-74443960I-32527J-32527D01*
G01*
X60580534Y-74704176D01*
G75*
G02*
X60515480Y-74704176I-32527J32527D01*
G01*
X59336026Y-73524722D01*
G75*
G02*
X59336026Y-73459668I32527J32527D01*
G01*
G37*
G36*
G01*
X58876407Y-73919287D02*
X59136623Y-73659071D01*
G75*
G02*
X59201677Y-73659071I32527J-32527D01*
G01*
X60381131Y-74838525D01*
G75*
G02*
X60381131Y-74903579I-32527J-32527D01*
G01*
X60120915Y-75163795D01*
G75*
G02*
X60055861Y-75163795I-32527J32527D01*
G01*
X58876407Y-73984341D01*
G75*
G02*
X58876407Y-73919287I32527J32527D01*
G01*
G37*
G36*
G01*
X58416788Y-74378906D02*
X58677004Y-74118690D01*
G75*
G02*
X58742058Y-74118690I32527J-32527D01*
G01*
X59921512Y-75298144D01*
G75*
G02*
X59921512Y-75363198I-32527J-32527D01*
G01*
X59661296Y-75623414D01*
G75*
G02*
X59596242Y-75623414I-32527J32527D01*
G01*
X58416788Y-74443960D01*
G75*
G02*
X58416788Y-74378906I32527J32527D01*
G01*
G37*
G36*
G01*
X57957168Y-74838526D02*
X58217384Y-74578310D01*
G75*
G02*
X58282438Y-74578310I32527J-32527D01*
G01*
X59461892Y-75757764D01*
G75*
G02*
X59461892Y-75822818I-32527J-32527D01*
G01*
X59201676Y-76083034D01*
G75*
G02*
X59136622Y-76083034I-32527J32527D01*
G01*
X57957168Y-74903580D01*
G75*
G02*
X57957168Y-74838526I32527J32527D01*
G01*
G37*
G36*
G01*
X57497549Y-75298145D02*
X57757765Y-75037929D01*
G75*
G02*
X57822819Y-75037929I32527J-32527D01*
G01*
X59002273Y-76217383D01*
G75*
G02*
X59002273Y-76282437I-32527J-32527D01*
G01*
X58742057Y-76542653D01*
G75*
G02*
X58677003Y-76542653I-32527J32527D01*
G01*
X57497549Y-75363199D01*
G75*
G02*
X57497549Y-75298145I32527J32527D01*
G01*
G37*
G36*
G01*
X57037929Y-75757765D02*
X57298145Y-75497549D01*
G75*
G02*
X57363199Y-75497549I32527J-32527D01*
G01*
X58542653Y-76677003D01*
G75*
G02*
X58542653Y-76742057I-32527J-32527D01*
G01*
X58282437Y-77002273D01*
G75*
G02*
X58217383Y-77002273I-32527J32527D01*
G01*
X57037929Y-75822819D01*
G75*
G02*
X57037929Y-75757765I32527J32527D01*
G01*
G37*
G36*
G01*
X56578310Y-76217384D02*
X56838526Y-75957168D01*
G75*
G02*
X56903580Y-75957168I32527J-32527D01*
G01*
X58083034Y-77136622D01*
G75*
G02*
X58083034Y-77201676I-32527J-32527D01*
G01*
X57822818Y-77461892D01*
G75*
G02*
X57757764Y-77461892I-32527J32527D01*
G01*
X56578310Y-76282438D01*
G75*
G02*
X56578310Y-76217384I32527J32527D01*
G01*
G37*
G36*
G01*
X56118690Y-76677004D02*
X56378906Y-76416788D01*
G75*
G02*
X56443960Y-76416788I32527J-32527D01*
G01*
X57623414Y-77596242D01*
G75*
G02*
X57623414Y-77661296I-32527J-32527D01*
G01*
X57363198Y-77921512D01*
G75*
G02*
X57298144Y-77921512I-32527J32527D01*
G01*
X56118690Y-76742058D01*
G75*
G02*
X56118690Y-76677004I32527J32527D01*
G01*
G37*
G36*
G01*
X55659071Y-77136623D02*
X55919287Y-76876407D01*
G75*
G02*
X55984341Y-76876407I32527J-32527D01*
G01*
X57163795Y-78055861D01*
G75*
G02*
X57163795Y-78120915I-32527J-32527D01*
G01*
X56903579Y-78381131D01*
G75*
G02*
X56838525Y-78381131I-32527J32527D01*
G01*
X55659071Y-77201677D01*
G75*
G02*
X55659071Y-77136623I32527J32527D01*
G01*
G37*
G36*
G01*
X55199452Y-77596242D02*
X55459668Y-77336026D01*
G75*
G02*
X55524722Y-77336026I32527J-32527D01*
G01*
X56704176Y-78515480D01*
G75*
G02*
X56704176Y-78580534I-32527J-32527D01*
G01*
X56443960Y-78840750D01*
G75*
G02*
X56378906Y-78840750I-32527J32527D01*
G01*
X55199452Y-77661296D01*
G75*
G02*
X55199452Y-77596242I32527J32527D01*
G01*
G37*
G36*
G01*
X59159250Y-81556040D02*
X59419466Y-81295824D01*
G75*
G02*
X59484520Y-81295824I32527J-32527D01*
G01*
X60663974Y-82475278D01*
G75*
G02*
X60663974Y-82540332I-32527J-32527D01*
G01*
X60403758Y-82800548D01*
G75*
G02*
X60338704Y-82800548I-32527J32527D01*
G01*
X59159250Y-81621094D01*
G75*
G02*
X59159250Y-81556040I32527J32527D01*
G01*
G37*
G36*
G01*
X59618869Y-81096421D02*
X59879085Y-80836205D01*
G75*
G02*
X59944139Y-80836205I32527J-32527D01*
G01*
X61123593Y-82015659D01*
G75*
G02*
X61123593Y-82080713I-32527J-32527D01*
G01*
X60863377Y-82340929D01*
G75*
G02*
X60798323Y-82340929I-32527J32527D01*
G01*
X59618869Y-81161475D01*
G75*
G02*
X59618869Y-81096421I32527J32527D01*
G01*
G37*
G36*
G01*
X60078488Y-80636802D02*
X60338704Y-80376586D01*
G75*
G02*
X60403758Y-80376586I32527J-32527D01*
G01*
X61583212Y-81556040D01*
G75*
G02*
X61583212Y-81621094I-32527J-32527D01*
G01*
X61322996Y-81881310D01*
G75*
G02*
X61257942Y-81881310I-32527J32527D01*
G01*
X60078488Y-80701856D01*
G75*
G02*
X60078488Y-80636802I32527J32527D01*
G01*
G37*
G36*
G01*
X60538108Y-80177182D02*
X60798324Y-79916966D01*
G75*
G02*
X60863378Y-79916966I32527J-32527D01*
G01*
X62042832Y-81096420D01*
G75*
G02*
X62042832Y-81161474I-32527J-32527D01*
G01*
X61782616Y-81421690D01*
G75*
G02*
X61717562Y-81421690I-32527J32527D01*
G01*
X60538108Y-80242236D01*
G75*
G02*
X60538108Y-80177182I32527J32527D01*
G01*
G37*
G36*
G01*
X60997727Y-79717563D02*
X61257943Y-79457347D01*
G75*
G02*
X61322997Y-79457347I32527J-32527D01*
G01*
X62502451Y-80636801D01*
G75*
G02*
X62502451Y-80701855I-32527J-32527D01*
G01*
X62242235Y-80962071D01*
G75*
G02*
X62177181Y-80962071I-32527J32527D01*
G01*
X60997727Y-79782617D01*
G75*
G02*
X60997727Y-79717563I32527J32527D01*
G01*
G37*
G36*
G01*
X61457347Y-79257943D02*
X61717563Y-78997727D01*
G75*
G02*
X61782617Y-78997727I32527J-32527D01*
G01*
X62962071Y-80177181D01*
G75*
G02*
X62962071Y-80242235I-32527J-32527D01*
G01*
X62701855Y-80502451D01*
G75*
G02*
X62636801Y-80502451I-32527J32527D01*
G01*
X61457347Y-79322997D01*
G75*
G02*
X61457347Y-79257943I32527J32527D01*
G01*
G37*
G36*
G01*
X61916966Y-78798324D02*
X62177182Y-78538108D01*
G75*
G02*
X62242236Y-78538108I32527J-32527D01*
G01*
X63421690Y-79717562D01*
G75*
G02*
X63421690Y-79782616I-32527J-32527D01*
G01*
X63161474Y-80042832D01*
G75*
G02*
X63096420Y-80042832I-32527J32527D01*
G01*
X61916966Y-78863378D01*
G75*
G02*
X61916966Y-78798324I32527J32527D01*
G01*
G37*
G36*
G01*
X62376586Y-78338704D02*
X62636802Y-78078488D01*
G75*
G02*
X62701856Y-78078488I32527J-32527D01*
G01*
X63881310Y-79257942D01*
G75*
G02*
X63881310Y-79322996I-32527J-32527D01*
G01*
X63621094Y-79583212D01*
G75*
G02*
X63556040Y-79583212I-32527J32527D01*
G01*
X62376586Y-78403758D01*
G75*
G02*
X62376586Y-78338704I32527J32527D01*
G01*
G37*
G36*
G01*
X62836205Y-77879085D02*
X63096421Y-77618869D01*
G75*
G02*
X63161475Y-77618869I32527J-32527D01*
G01*
X64340929Y-78798323D01*
G75*
G02*
X64340929Y-78863377I-32527J-32527D01*
G01*
X64080713Y-79123593D01*
G75*
G02*
X64015659Y-79123593I-32527J32527D01*
G01*
X62836205Y-77944139D01*
G75*
G02*
X62836205Y-77879085I32527J32527D01*
G01*
G37*
G36*
G01*
X63295824Y-77419466D02*
X63556040Y-77159250D01*
G75*
G02*
X63621094Y-77159250I32527J-32527D01*
G01*
X64800548Y-78338704D01*
G75*
G02*
X64800548Y-78403758I-32527J-32527D01*
G01*
X64540332Y-78663974D01*
G75*
G02*
X64475278Y-78663974I-32527J32527D01*
G01*
X63295824Y-77484520D01*
G75*
G02*
X63295824Y-77419466I32527J32527D01*
G01*
G37*
%TD*%
%TO.C,U4*%
G36*
G01*
X78009495Y-78045962D02*
X80045962Y-76009495D01*
G75*
G02*
X80434870Y-76009495I194454J-194454D01*
G01*
X81990505Y-77565130D01*
G75*
G02*
X81990505Y-77954038I-194454J-194454D01*
G01*
X79954038Y-79990505D01*
G75*
G02*
X79565130Y-79990505I-194454J194454D01*
G01*
X78009495Y-78434870D01*
G75*
G02*
X78009495Y-78045962I194454J194454D01*
G01*
G37*
G36*
G01*
X79336026Y-73459668D02*
X79596242Y-73199452D01*
G75*
G02*
X79661296Y-73199452I32527J-32527D01*
G01*
X80840750Y-74378906D01*
G75*
G02*
X80840750Y-74443960I-32527J-32527D01*
G01*
X80580534Y-74704176D01*
G75*
G02*
X80515480Y-74704176I-32527J32527D01*
G01*
X79336026Y-73524722D01*
G75*
G02*
X79336026Y-73459668I32527J32527D01*
G01*
G37*
G36*
G01*
X78876407Y-73919287D02*
X79136623Y-73659071D01*
G75*
G02*
X79201677Y-73659071I32527J-32527D01*
G01*
X80381131Y-74838525D01*
G75*
G02*
X80381131Y-74903579I-32527J-32527D01*
G01*
X80120915Y-75163795D01*
G75*
G02*
X80055861Y-75163795I-32527J32527D01*
G01*
X78876407Y-73984341D01*
G75*
G02*
X78876407Y-73919287I32527J32527D01*
G01*
G37*
G36*
G01*
X78416788Y-74378906D02*
X78677004Y-74118690D01*
G75*
G02*
X78742058Y-74118690I32527J-32527D01*
G01*
X79921512Y-75298144D01*
G75*
G02*
X79921512Y-75363198I-32527J-32527D01*
G01*
X79661296Y-75623414D01*
G75*
G02*
X79596242Y-75623414I-32527J32527D01*
G01*
X78416788Y-74443960D01*
G75*
G02*
X78416788Y-74378906I32527J32527D01*
G01*
G37*
G36*
G01*
X77957168Y-74838526D02*
X78217384Y-74578310D01*
G75*
G02*
X78282438Y-74578310I32527J-32527D01*
G01*
X79461892Y-75757764D01*
G75*
G02*
X79461892Y-75822818I-32527J-32527D01*
G01*
X79201676Y-76083034D01*
G75*
G02*
X79136622Y-76083034I-32527J32527D01*
G01*
X77957168Y-74903580D01*
G75*
G02*
X77957168Y-74838526I32527J32527D01*
G01*
G37*
G36*
G01*
X77497549Y-75298145D02*
X77757765Y-75037929D01*
G75*
G02*
X77822819Y-75037929I32527J-32527D01*
G01*
X79002273Y-76217383D01*
G75*
G02*
X79002273Y-76282437I-32527J-32527D01*
G01*
X78742057Y-76542653D01*
G75*
G02*
X78677003Y-76542653I-32527J32527D01*
G01*
X77497549Y-75363199D01*
G75*
G02*
X77497549Y-75298145I32527J32527D01*
G01*
G37*
G36*
G01*
X77037929Y-75757765D02*
X77298145Y-75497549D01*
G75*
G02*
X77363199Y-75497549I32527J-32527D01*
G01*
X78542653Y-76677003D01*
G75*
G02*
X78542653Y-76742057I-32527J-32527D01*
G01*
X78282437Y-77002273D01*
G75*
G02*
X78217383Y-77002273I-32527J32527D01*
G01*
X77037929Y-75822819D01*
G75*
G02*
X77037929Y-75757765I32527J32527D01*
G01*
G37*
G36*
G01*
X76578310Y-76217384D02*
X76838526Y-75957168D01*
G75*
G02*
X76903580Y-75957168I32527J-32527D01*
G01*
X78083034Y-77136622D01*
G75*
G02*
X78083034Y-77201676I-32527J-32527D01*
G01*
X77822818Y-77461892D01*
G75*
G02*
X77757764Y-77461892I-32527J32527D01*
G01*
X76578310Y-76282438D01*
G75*
G02*
X76578310Y-76217384I32527J32527D01*
G01*
G37*
G36*
G01*
X76118690Y-76677004D02*
X76378906Y-76416788D01*
G75*
G02*
X76443960Y-76416788I32527J-32527D01*
G01*
X77623414Y-77596242D01*
G75*
G02*
X77623414Y-77661296I-32527J-32527D01*
G01*
X77363198Y-77921512D01*
G75*
G02*
X77298144Y-77921512I-32527J32527D01*
G01*
X76118690Y-76742058D01*
G75*
G02*
X76118690Y-76677004I32527J32527D01*
G01*
G37*
G36*
G01*
X75659071Y-77136623D02*
X75919287Y-76876407D01*
G75*
G02*
X75984341Y-76876407I32527J-32527D01*
G01*
X77163795Y-78055861D01*
G75*
G02*
X77163795Y-78120915I-32527J-32527D01*
G01*
X76903579Y-78381131D01*
G75*
G02*
X76838525Y-78381131I-32527J32527D01*
G01*
X75659071Y-77201677D01*
G75*
G02*
X75659071Y-77136623I32527J32527D01*
G01*
G37*
G36*
G01*
X75199452Y-77596242D02*
X75459668Y-77336026D01*
G75*
G02*
X75524722Y-77336026I32527J-32527D01*
G01*
X76704176Y-78515480D01*
G75*
G02*
X76704176Y-78580534I-32527J-32527D01*
G01*
X76443960Y-78840750D01*
G75*
G02*
X76378906Y-78840750I-32527J32527D01*
G01*
X75199452Y-77661296D01*
G75*
G02*
X75199452Y-77596242I32527J32527D01*
G01*
G37*
G36*
G01*
X79159250Y-81556040D02*
X79419466Y-81295824D01*
G75*
G02*
X79484520Y-81295824I32527J-32527D01*
G01*
X80663974Y-82475278D01*
G75*
G02*
X80663974Y-82540332I-32527J-32527D01*
G01*
X80403758Y-82800548D01*
G75*
G02*
X80338704Y-82800548I-32527J32527D01*
G01*
X79159250Y-81621094D01*
G75*
G02*
X79159250Y-81556040I32527J32527D01*
G01*
G37*
G36*
G01*
X79618869Y-81096421D02*
X79879085Y-80836205D01*
G75*
G02*
X79944139Y-80836205I32527J-32527D01*
G01*
X81123593Y-82015659D01*
G75*
G02*
X81123593Y-82080713I-32527J-32527D01*
G01*
X80863377Y-82340929D01*
G75*
G02*
X80798323Y-82340929I-32527J32527D01*
G01*
X79618869Y-81161475D01*
G75*
G02*
X79618869Y-81096421I32527J32527D01*
G01*
G37*
G36*
G01*
X80078488Y-80636802D02*
X80338704Y-80376586D01*
G75*
G02*
X80403758Y-80376586I32527J-32527D01*
G01*
X81583212Y-81556040D01*
G75*
G02*
X81583212Y-81621094I-32527J-32527D01*
G01*
X81322996Y-81881310D01*
G75*
G02*
X81257942Y-81881310I-32527J32527D01*
G01*
X80078488Y-80701856D01*
G75*
G02*
X80078488Y-80636802I32527J32527D01*
G01*
G37*
G36*
G01*
X80538108Y-80177182D02*
X80798324Y-79916966D01*
G75*
G02*
X80863378Y-79916966I32527J-32527D01*
G01*
X82042832Y-81096420D01*
G75*
G02*
X82042832Y-81161474I-32527J-32527D01*
G01*
X81782616Y-81421690D01*
G75*
G02*
X81717562Y-81421690I-32527J32527D01*
G01*
X80538108Y-80242236D01*
G75*
G02*
X80538108Y-80177182I32527J32527D01*
G01*
G37*
G36*
G01*
X80997727Y-79717563D02*
X81257943Y-79457347D01*
G75*
G02*
X81322997Y-79457347I32527J-32527D01*
G01*
X82502451Y-80636801D01*
G75*
G02*
X82502451Y-80701855I-32527J-32527D01*
G01*
X82242235Y-80962071D01*
G75*
G02*
X82177181Y-80962071I-32527J32527D01*
G01*
X80997727Y-79782617D01*
G75*
G02*
X80997727Y-79717563I32527J32527D01*
G01*
G37*
G36*
G01*
X81457347Y-79257943D02*
X81717563Y-78997727D01*
G75*
G02*
X81782617Y-78997727I32527J-32527D01*
G01*
X82962071Y-80177181D01*
G75*
G02*
X82962071Y-80242235I-32527J-32527D01*
G01*
X82701855Y-80502451D01*
G75*
G02*
X82636801Y-80502451I-32527J32527D01*
G01*
X81457347Y-79322997D01*
G75*
G02*
X81457347Y-79257943I32527J32527D01*
G01*
G37*
G36*
G01*
X81916966Y-78798324D02*
X82177182Y-78538108D01*
G75*
G02*
X82242236Y-78538108I32527J-32527D01*
G01*
X83421690Y-79717562D01*
G75*
G02*
X83421690Y-79782616I-32527J-32527D01*
G01*
X83161474Y-80042832D01*
G75*
G02*
X83096420Y-80042832I-32527J32527D01*
G01*
X81916966Y-78863378D01*
G75*
G02*
X81916966Y-78798324I32527J32527D01*
G01*
G37*
G36*
G01*
X82376586Y-78338704D02*
X82636802Y-78078488D01*
G75*
G02*
X82701856Y-78078488I32527J-32527D01*
G01*
X83881310Y-79257942D01*
G75*
G02*
X83881310Y-79322996I-32527J-32527D01*
G01*
X83621094Y-79583212D01*
G75*
G02*
X83556040Y-79583212I-32527J32527D01*
G01*
X82376586Y-78403758D01*
G75*
G02*
X82376586Y-78338704I32527J32527D01*
G01*
G37*
G36*
G01*
X82836205Y-77879085D02*
X83096421Y-77618869D01*
G75*
G02*
X83161475Y-77618869I32527J-32527D01*
G01*
X84340929Y-78798323D01*
G75*
G02*
X84340929Y-78863377I-32527J-32527D01*
G01*
X84080713Y-79123593D01*
G75*
G02*
X84015659Y-79123593I-32527J32527D01*
G01*
X82836205Y-77944139D01*
G75*
G02*
X82836205Y-77879085I32527J32527D01*
G01*
G37*
G36*
G01*
X83295824Y-77419466D02*
X83556040Y-77159250D01*
G75*
G02*
X83621094Y-77159250I32527J-32527D01*
G01*
X84800548Y-78338704D01*
G75*
G02*
X84800548Y-78403758I-32527J-32527D01*
G01*
X84540332Y-78663974D01*
G75*
G02*
X84475278Y-78663974I-32527J32527D01*
G01*
X83295824Y-77484520D01*
G75*
G02*
X83295824Y-77419466I32527J32527D01*
G01*
G37*
%TD*%
M02*
