%TF.GenerationSoftware,KiCad,Pcbnew,no-vcs-found-d41af7d~59~ubuntu17.04.1*%
%TF.CreationDate,2017-07-30T10:48:24+02:00*%
%TF.ProjectId,LEDBoard_4x4_16bit,4C4544426F6172645F3478345F313662,1.0*%
%TF.SameCoordinates,Original*%
%TF.FileFunction,Soldermask,Top*%
%TF.FilePolarity,Negative*%
%FSLAX46Y46*%
G04 Gerber Fmt 4.6, Leading zero omitted, Abs format (unit mm)*
G04 Created by KiCad (PCBNEW no-vcs-found-d41af7d~59~ubuntu17.04.1) date Sun Jul 30 10:48:24 2017*
%MOMM*%
%LPD*%
G01*
G04 APERTURE LIST*
%ADD10C,0.100000*%
G04 APERTURE END LIST*
D10*
G36*
X68915949Y-87089409D02*
X68915963Y-87089413D01*
X68915997Y-87089417D01*
X69088452Y-87142801D01*
X69247253Y-87228664D01*
X69386353Y-87343737D01*
X69500452Y-87483637D01*
X69585205Y-87643034D01*
X69637384Y-87815857D01*
X69655000Y-87995524D01*
X69655000Y-88004476D01*
X69654910Y-88017391D01*
X69634787Y-88196794D01*
X69580200Y-88368872D01*
X69493230Y-88527070D01*
X69377189Y-88665363D01*
X69236496Y-88778483D01*
X69076511Y-88862121D01*
X68903328Y-88913092D01*
X68903294Y-88913095D01*
X68903281Y-88913099D01*
X68723544Y-88929456D01*
X68544051Y-88910591D01*
X68544037Y-88910587D01*
X68544003Y-88910583D01*
X68371548Y-88857199D01*
X68212747Y-88771336D01*
X68073647Y-88656263D01*
X67959548Y-88516363D01*
X67874795Y-88356966D01*
X67822616Y-88184143D01*
X67805000Y-88004476D01*
X67805000Y-87995524D01*
X67805090Y-87982609D01*
X67825213Y-87803206D01*
X67879800Y-87631128D01*
X67966770Y-87472930D01*
X68082811Y-87334637D01*
X68223504Y-87221517D01*
X68383489Y-87137879D01*
X68556672Y-87086908D01*
X68556706Y-87086905D01*
X68556719Y-87086901D01*
X68736456Y-87070544D01*
X68915949Y-87089409D01*
X68915949Y-87089409D01*
G37*
G36*
X71455949Y-87089409D02*
X71455963Y-87089413D01*
X71455997Y-87089417D01*
X71628452Y-87142801D01*
X71787253Y-87228664D01*
X71926353Y-87343737D01*
X72040452Y-87483637D01*
X72125205Y-87643034D01*
X72177384Y-87815857D01*
X72195000Y-87995524D01*
X72195000Y-88004476D01*
X72194910Y-88017391D01*
X72174787Y-88196794D01*
X72120200Y-88368872D01*
X72033230Y-88527070D01*
X71917189Y-88665363D01*
X71776496Y-88778483D01*
X71616511Y-88862121D01*
X71443328Y-88913092D01*
X71443294Y-88913095D01*
X71443281Y-88913099D01*
X71263544Y-88929456D01*
X71084051Y-88910591D01*
X71084037Y-88910587D01*
X71084003Y-88910583D01*
X70911548Y-88857199D01*
X70752747Y-88771336D01*
X70613647Y-88656263D01*
X70499548Y-88516363D01*
X70414795Y-88356966D01*
X70362616Y-88184143D01*
X70345000Y-88004476D01*
X70345000Y-87995524D01*
X70345090Y-87982609D01*
X70365213Y-87803206D01*
X70419800Y-87631128D01*
X70506770Y-87472930D01*
X70622811Y-87334637D01*
X70763504Y-87221517D01*
X70923489Y-87137879D01*
X71096672Y-87086908D01*
X71096706Y-87086905D01*
X71096719Y-87086901D01*
X71276456Y-87070544D01*
X71455949Y-87089409D01*
X71455949Y-87089409D01*
G37*
G36*
X73995949Y-87089409D02*
X73995963Y-87089413D01*
X73995997Y-87089417D01*
X74168452Y-87142801D01*
X74327253Y-87228664D01*
X74466353Y-87343737D01*
X74580452Y-87483637D01*
X74665205Y-87643034D01*
X74717384Y-87815857D01*
X74735000Y-87995524D01*
X74735000Y-88004476D01*
X74734910Y-88017391D01*
X74714787Y-88196794D01*
X74660200Y-88368872D01*
X74573230Y-88527070D01*
X74457189Y-88665363D01*
X74316496Y-88778483D01*
X74156511Y-88862121D01*
X73983328Y-88913092D01*
X73983294Y-88913095D01*
X73983281Y-88913099D01*
X73803544Y-88929456D01*
X73624051Y-88910591D01*
X73624037Y-88910587D01*
X73624003Y-88910583D01*
X73451548Y-88857199D01*
X73292747Y-88771336D01*
X73153647Y-88656263D01*
X73039548Y-88516363D01*
X72954795Y-88356966D01*
X72902616Y-88184143D01*
X72885000Y-88004476D01*
X72885000Y-87995524D01*
X72885090Y-87982609D01*
X72905213Y-87803206D01*
X72959800Y-87631128D01*
X73046770Y-87472930D01*
X73162811Y-87334637D01*
X73303504Y-87221517D01*
X73463489Y-87137879D01*
X73636672Y-87086908D01*
X73636706Y-87086905D01*
X73636719Y-87086901D01*
X73816456Y-87070544D01*
X73995949Y-87089409D01*
X73995949Y-87089409D01*
G37*
G36*
X76535949Y-87089409D02*
X76535963Y-87089413D01*
X76535997Y-87089417D01*
X76708452Y-87142801D01*
X76867253Y-87228664D01*
X77006353Y-87343737D01*
X77120452Y-87483637D01*
X77205205Y-87643034D01*
X77257384Y-87815857D01*
X77275000Y-87995524D01*
X77275000Y-88004476D01*
X77274910Y-88017391D01*
X77254787Y-88196794D01*
X77200200Y-88368872D01*
X77113230Y-88527070D01*
X76997189Y-88665363D01*
X76856496Y-88778483D01*
X76696511Y-88862121D01*
X76523328Y-88913092D01*
X76523294Y-88913095D01*
X76523281Y-88913099D01*
X76343544Y-88929456D01*
X76164051Y-88910591D01*
X76164037Y-88910587D01*
X76164003Y-88910583D01*
X75991548Y-88857199D01*
X75832747Y-88771336D01*
X75693647Y-88656263D01*
X75579548Y-88516363D01*
X75494795Y-88356966D01*
X75442616Y-88184143D01*
X75425000Y-88004476D01*
X75425000Y-87995524D01*
X75425090Y-87982609D01*
X75445213Y-87803206D01*
X75499800Y-87631128D01*
X75586770Y-87472930D01*
X75702811Y-87334637D01*
X75843504Y-87221517D01*
X76003489Y-87137879D01*
X76176672Y-87086908D01*
X76176706Y-87086905D01*
X76176719Y-87086901D01*
X76356456Y-87070544D01*
X76535949Y-87089409D01*
X76535949Y-87089409D01*
G37*
G36*
X86455949Y-87089409D02*
X86455963Y-87089413D01*
X86455997Y-87089417D01*
X86628452Y-87142801D01*
X86787253Y-87228664D01*
X86926353Y-87343737D01*
X87040452Y-87483637D01*
X87125205Y-87643034D01*
X87177384Y-87815857D01*
X87195000Y-87995524D01*
X87195000Y-88004476D01*
X87194910Y-88017391D01*
X87174787Y-88196794D01*
X87120200Y-88368872D01*
X87033230Y-88527070D01*
X86917189Y-88665363D01*
X86776496Y-88778483D01*
X86616511Y-88862121D01*
X86443328Y-88913092D01*
X86443294Y-88913095D01*
X86443281Y-88913099D01*
X86263544Y-88929456D01*
X86084051Y-88910591D01*
X86084037Y-88910587D01*
X86084003Y-88910583D01*
X85911548Y-88857199D01*
X85752747Y-88771336D01*
X85613647Y-88656263D01*
X85499548Y-88516363D01*
X85414795Y-88356966D01*
X85362616Y-88184143D01*
X85345000Y-88004476D01*
X85345000Y-87995524D01*
X85345090Y-87982609D01*
X85365213Y-87803206D01*
X85419800Y-87631128D01*
X85506770Y-87472930D01*
X85622811Y-87334637D01*
X85763504Y-87221517D01*
X85923489Y-87137879D01*
X86096672Y-87086908D01*
X86096706Y-87086905D01*
X86096719Y-87086901D01*
X86276456Y-87070544D01*
X86455949Y-87089409D01*
X86455949Y-87089409D01*
G37*
G36*
X56455949Y-87089409D02*
X56455963Y-87089413D01*
X56455997Y-87089417D01*
X56628452Y-87142801D01*
X56787253Y-87228664D01*
X56926353Y-87343737D01*
X57040452Y-87483637D01*
X57125205Y-87643034D01*
X57177384Y-87815857D01*
X57195000Y-87995524D01*
X57195000Y-88004476D01*
X57194910Y-88017391D01*
X57174787Y-88196794D01*
X57120200Y-88368872D01*
X57033230Y-88527070D01*
X56917189Y-88665363D01*
X56776496Y-88778483D01*
X56616511Y-88862121D01*
X56443328Y-88913092D01*
X56443294Y-88913095D01*
X56443281Y-88913099D01*
X56263544Y-88929456D01*
X56084051Y-88910591D01*
X56084037Y-88910587D01*
X56084003Y-88910583D01*
X55911548Y-88857199D01*
X55752747Y-88771336D01*
X55613647Y-88656263D01*
X55499548Y-88516363D01*
X55414795Y-88356966D01*
X55362616Y-88184143D01*
X55345000Y-88004476D01*
X55345000Y-87995524D01*
X55345090Y-87982609D01*
X55365213Y-87803206D01*
X55419800Y-87631128D01*
X55506770Y-87472930D01*
X55622811Y-87334637D01*
X55763504Y-87221517D01*
X55923489Y-87137879D01*
X56096672Y-87086908D01*
X56096706Y-87086905D01*
X56096719Y-87086901D01*
X56276456Y-87070544D01*
X56455949Y-87089409D01*
X56455949Y-87089409D01*
G37*
G36*
X66375949Y-87089409D02*
X66375963Y-87089413D01*
X66375997Y-87089417D01*
X66548452Y-87142801D01*
X66707253Y-87228664D01*
X66846353Y-87343737D01*
X66960452Y-87483637D01*
X67045205Y-87643034D01*
X67097384Y-87815857D01*
X67115000Y-87995524D01*
X67115000Y-88004476D01*
X67114910Y-88017391D01*
X67094787Y-88196794D01*
X67040200Y-88368872D01*
X66953230Y-88527070D01*
X66837189Y-88665363D01*
X66696496Y-88778483D01*
X66536511Y-88862121D01*
X66363328Y-88913092D01*
X66363294Y-88913095D01*
X66363281Y-88913099D01*
X66183544Y-88929456D01*
X66004051Y-88910591D01*
X66004037Y-88910587D01*
X66004003Y-88910583D01*
X65831548Y-88857199D01*
X65672747Y-88771336D01*
X65533647Y-88656263D01*
X65419548Y-88516363D01*
X65334795Y-88356966D01*
X65282616Y-88184143D01*
X65265000Y-88004476D01*
X65265000Y-87995524D01*
X65265090Y-87982609D01*
X65285213Y-87803206D01*
X65339800Y-87631128D01*
X65426770Y-87472930D01*
X65542811Y-87334637D01*
X65683504Y-87221517D01*
X65843489Y-87137879D01*
X66016672Y-87086908D01*
X66016706Y-87086905D01*
X66016719Y-87086901D01*
X66196456Y-87070544D01*
X66375949Y-87089409D01*
X66375949Y-87089409D01*
G37*
G36*
X84655000Y-88925000D02*
X82805000Y-88925000D01*
X82805000Y-87075000D01*
X84655000Y-87075000D01*
X84655000Y-88925000D01*
X84655000Y-88925000D01*
G37*
G36*
X54655000Y-88925000D02*
X52805000Y-88925000D01*
X52805000Y-87075000D01*
X54655000Y-87075000D01*
X54655000Y-88925000D01*
X54655000Y-88925000D01*
G37*
G36*
X64575000Y-88925000D02*
X62725000Y-88925000D01*
X62725000Y-87075000D01*
X64575000Y-87075000D01*
X64575000Y-88925000D01*
X64575000Y-88925000D01*
G37*
G36*
X87978481Y-83676950D02*
X88001060Y-83683799D01*
X88021871Y-83694923D01*
X88040109Y-83709891D01*
X88055077Y-83728129D01*
X88066201Y-83748940D01*
X88073050Y-83771519D01*
X88075604Y-83797454D01*
X88075604Y-84602546D01*
X88073050Y-84628481D01*
X88066201Y-84651060D01*
X88055077Y-84671871D01*
X88040109Y-84690109D01*
X88021871Y-84705077D01*
X88001060Y-84716201D01*
X87978481Y-84723050D01*
X87952546Y-84725604D01*
X86497454Y-84725604D01*
X86471519Y-84723050D01*
X86448940Y-84716201D01*
X86428129Y-84705077D01*
X86409891Y-84690109D01*
X86394923Y-84671871D01*
X86383799Y-84651060D01*
X86376950Y-84628481D01*
X86374396Y-84602546D01*
X86374396Y-83797454D01*
X86376950Y-83771519D01*
X86383799Y-83748940D01*
X86394923Y-83728129D01*
X86409891Y-83709891D01*
X86428129Y-83694923D01*
X86448940Y-83683799D01*
X86471519Y-83676950D01*
X86497454Y-83674396D01*
X87952546Y-83674396D01*
X87978481Y-83676950D01*
X87978481Y-83676950D01*
G37*
G36*
X57978481Y-83676950D02*
X58001060Y-83683799D01*
X58021871Y-83694923D01*
X58040109Y-83709891D01*
X58055077Y-83728129D01*
X58066201Y-83748940D01*
X58073050Y-83771519D01*
X58075604Y-83797454D01*
X58075604Y-84602546D01*
X58073050Y-84628481D01*
X58066201Y-84651060D01*
X58055077Y-84671871D01*
X58040109Y-84690109D01*
X58021871Y-84705077D01*
X58001060Y-84716201D01*
X57978481Y-84723050D01*
X57952546Y-84725604D01*
X56497454Y-84725604D01*
X56471519Y-84723050D01*
X56448940Y-84716201D01*
X56428129Y-84705077D01*
X56409891Y-84690109D01*
X56394923Y-84671871D01*
X56383799Y-84651060D01*
X56376950Y-84628481D01*
X56374396Y-84602546D01*
X56374396Y-83797454D01*
X56376950Y-83771519D01*
X56383799Y-83748940D01*
X56394923Y-83728129D01*
X56409891Y-83709891D01*
X56428129Y-83694923D01*
X56448940Y-83683799D01*
X56471519Y-83676950D01*
X56497454Y-83674396D01*
X57952546Y-83674396D01*
X57978481Y-83676950D01*
X57978481Y-83676950D01*
G37*
G36*
X53528481Y-83676950D02*
X53551060Y-83683799D01*
X53571871Y-83694923D01*
X53590109Y-83709891D01*
X53605077Y-83728129D01*
X53616201Y-83748940D01*
X53623050Y-83771519D01*
X53625604Y-83797454D01*
X53625604Y-84602546D01*
X53623050Y-84628481D01*
X53616201Y-84651060D01*
X53605077Y-84671871D01*
X53590109Y-84690109D01*
X53571871Y-84705077D01*
X53551060Y-84716201D01*
X53528481Y-84723050D01*
X53502546Y-84725604D01*
X52047454Y-84725604D01*
X52021519Y-84723050D01*
X51998940Y-84716201D01*
X51978129Y-84705077D01*
X51959891Y-84690109D01*
X51944923Y-84671871D01*
X51933799Y-84651060D01*
X51926950Y-84628481D01*
X51924396Y-84602546D01*
X51924396Y-83797454D01*
X51926950Y-83771519D01*
X51933799Y-83748940D01*
X51944923Y-83728129D01*
X51959891Y-83709891D01*
X51978129Y-83694923D01*
X51998940Y-83683799D01*
X52021519Y-83676950D01*
X52047454Y-83674396D01*
X53502546Y-83674396D01*
X53528481Y-83676950D01*
X53528481Y-83676950D01*
G37*
G36*
X83528481Y-83676950D02*
X83551060Y-83683799D01*
X83571871Y-83694923D01*
X83590109Y-83709891D01*
X83605077Y-83728129D01*
X83616201Y-83748940D01*
X83623050Y-83771519D01*
X83625604Y-83797454D01*
X83625604Y-84602546D01*
X83623050Y-84628481D01*
X83616201Y-84651060D01*
X83605077Y-84671871D01*
X83590109Y-84690109D01*
X83571871Y-84705077D01*
X83551060Y-84716201D01*
X83528481Y-84723050D01*
X83502546Y-84725604D01*
X82047454Y-84725604D01*
X82021519Y-84723050D01*
X81998940Y-84716201D01*
X81978129Y-84705077D01*
X81959891Y-84690109D01*
X81944923Y-84671871D01*
X81933799Y-84651060D01*
X81926950Y-84628481D01*
X81924396Y-84602546D01*
X81924396Y-83797454D01*
X81926950Y-83771519D01*
X81933799Y-83748940D01*
X81944923Y-83728129D01*
X81959891Y-83709891D01*
X81978129Y-83694923D01*
X81998940Y-83683799D01*
X82021519Y-83676950D01*
X82047454Y-83674396D01*
X83502546Y-83674396D01*
X83528481Y-83676950D01*
X83528481Y-83676950D01*
G37*
G36*
X77978481Y-83676950D02*
X78001060Y-83683799D01*
X78021871Y-83694923D01*
X78040109Y-83709891D01*
X78055077Y-83728129D01*
X78066201Y-83748940D01*
X78073050Y-83771519D01*
X78075604Y-83797454D01*
X78075604Y-84602546D01*
X78073050Y-84628481D01*
X78066201Y-84651060D01*
X78055077Y-84671871D01*
X78040109Y-84690109D01*
X78021871Y-84705077D01*
X78001060Y-84716201D01*
X77978481Y-84723050D01*
X77952546Y-84725604D01*
X76497454Y-84725604D01*
X76471519Y-84723050D01*
X76448940Y-84716201D01*
X76428129Y-84705077D01*
X76409891Y-84690109D01*
X76394923Y-84671871D01*
X76383799Y-84651060D01*
X76376950Y-84628481D01*
X76374396Y-84602546D01*
X76374396Y-83797454D01*
X76376950Y-83771519D01*
X76383799Y-83748940D01*
X76394923Y-83728129D01*
X76409891Y-83709891D01*
X76428129Y-83694923D01*
X76448940Y-83683799D01*
X76471519Y-83676950D01*
X76497454Y-83674396D01*
X77952546Y-83674396D01*
X77978481Y-83676950D01*
X77978481Y-83676950D01*
G37*
G36*
X73528481Y-83676950D02*
X73551060Y-83683799D01*
X73571871Y-83694923D01*
X73590109Y-83709891D01*
X73605077Y-83728129D01*
X73616201Y-83748940D01*
X73623050Y-83771519D01*
X73625604Y-83797454D01*
X73625604Y-84602546D01*
X73623050Y-84628481D01*
X73616201Y-84651060D01*
X73605077Y-84671871D01*
X73590109Y-84690109D01*
X73571871Y-84705077D01*
X73551060Y-84716201D01*
X73528481Y-84723050D01*
X73502546Y-84725604D01*
X72047454Y-84725604D01*
X72021519Y-84723050D01*
X71998940Y-84716201D01*
X71978129Y-84705077D01*
X71959891Y-84690109D01*
X71944923Y-84671871D01*
X71933799Y-84651060D01*
X71926950Y-84628481D01*
X71924396Y-84602546D01*
X71924396Y-83797454D01*
X71926950Y-83771519D01*
X71933799Y-83748940D01*
X71944923Y-83728129D01*
X71959891Y-83709891D01*
X71978129Y-83694923D01*
X71998940Y-83683799D01*
X72021519Y-83676950D01*
X72047454Y-83674396D01*
X73502546Y-83674396D01*
X73528481Y-83676950D01*
X73528481Y-83676950D01*
G37*
G36*
X67978481Y-83676950D02*
X68001060Y-83683799D01*
X68021871Y-83694923D01*
X68040109Y-83709891D01*
X68055077Y-83728129D01*
X68066201Y-83748940D01*
X68073050Y-83771519D01*
X68075604Y-83797454D01*
X68075604Y-84602546D01*
X68073050Y-84628481D01*
X68066201Y-84651060D01*
X68055077Y-84671871D01*
X68040109Y-84690109D01*
X68021871Y-84705077D01*
X68001060Y-84716201D01*
X67978481Y-84723050D01*
X67952546Y-84725604D01*
X66497454Y-84725604D01*
X66471519Y-84723050D01*
X66448940Y-84716201D01*
X66428129Y-84705077D01*
X66409891Y-84690109D01*
X66394923Y-84671871D01*
X66383799Y-84651060D01*
X66376950Y-84628481D01*
X66374396Y-84602546D01*
X66374396Y-83797454D01*
X66376950Y-83771519D01*
X66383799Y-83748940D01*
X66394923Y-83728129D01*
X66409891Y-83709891D01*
X66428129Y-83694923D01*
X66448940Y-83683799D01*
X66471519Y-83676950D01*
X66497454Y-83674396D01*
X67952546Y-83674396D01*
X67978481Y-83676950D01*
X67978481Y-83676950D01*
G37*
G36*
X63528481Y-83676950D02*
X63551060Y-83683799D01*
X63571871Y-83694923D01*
X63590109Y-83709891D01*
X63605077Y-83728129D01*
X63616201Y-83748940D01*
X63623050Y-83771519D01*
X63625604Y-83797454D01*
X63625604Y-84602546D01*
X63623050Y-84628481D01*
X63616201Y-84651060D01*
X63605077Y-84671871D01*
X63590109Y-84690109D01*
X63571871Y-84705077D01*
X63551060Y-84716201D01*
X63528481Y-84723050D01*
X63502546Y-84725604D01*
X62047454Y-84725604D01*
X62021519Y-84723050D01*
X61998940Y-84716201D01*
X61978129Y-84705077D01*
X61959891Y-84690109D01*
X61944923Y-84671871D01*
X61933799Y-84651060D01*
X61926950Y-84628481D01*
X61924396Y-84602546D01*
X61924396Y-83797454D01*
X61926950Y-83771519D01*
X61933799Y-83748940D01*
X61944923Y-83728129D01*
X61959891Y-83709891D01*
X61978129Y-83694923D01*
X61998940Y-83683799D01*
X62021519Y-83676950D01*
X62047454Y-83674396D01*
X63502546Y-83674396D01*
X63528481Y-83676950D01*
X63528481Y-83676950D01*
G37*
G36*
X53528481Y-82476950D02*
X53551060Y-82483799D01*
X53571871Y-82494923D01*
X53590109Y-82509891D01*
X53605077Y-82528129D01*
X53616201Y-82548940D01*
X53623050Y-82571519D01*
X53625604Y-82597454D01*
X53625604Y-83402546D01*
X53623050Y-83428481D01*
X53616201Y-83451060D01*
X53605077Y-83471871D01*
X53590109Y-83490109D01*
X53571871Y-83505077D01*
X53551060Y-83516201D01*
X53528481Y-83523050D01*
X53502546Y-83525604D01*
X52047454Y-83525604D01*
X52021519Y-83523050D01*
X51998940Y-83516201D01*
X51978129Y-83505077D01*
X51959891Y-83490109D01*
X51944923Y-83471871D01*
X51933799Y-83451060D01*
X51926950Y-83428481D01*
X51924396Y-83402546D01*
X51924396Y-82597454D01*
X51926950Y-82571519D01*
X51933799Y-82548940D01*
X51944923Y-82528129D01*
X51959891Y-82509891D01*
X51978129Y-82494923D01*
X51998940Y-82483799D01*
X52021519Y-82476950D01*
X52047454Y-82474396D01*
X53502546Y-82474396D01*
X53528481Y-82476950D01*
X53528481Y-82476950D01*
G37*
G36*
X87978481Y-82476950D02*
X88001060Y-82483799D01*
X88021871Y-82494923D01*
X88040109Y-82509891D01*
X88055077Y-82528129D01*
X88066201Y-82548940D01*
X88073050Y-82571519D01*
X88075604Y-82597454D01*
X88075604Y-83402546D01*
X88073050Y-83428481D01*
X88066201Y-83451060D01*
X88055077Y-83471871D01*
X88040109Y-83490109D01*
X88021871Y-83505077D01*
X88001060Y-83516201D01*
X87978481Y-83523050D01*
X87952546Y-83525604D01*
X86497454Y-83525604D01*
X86471519Y-83523050D01*
X86448940Y-83516201D01*
X86428129Y-83505077D01*
X86409891Y-83490109D01*
X86394923Y-83471871D01*
X86383799Y-83451060D01*
X86376950Y-83428481D01*
X86374396Y-83402546D01*
X86374396Y-82597454D01*
X86376950Y-82571519D01*
X86383799Y-82548940D01*
X86394923Y-82528129D01*
X86409891Y-82509891D01*
X86428129Y-82494923D01*
X86448940Y-82483799D01*
X86471519Y-82476950D01*
X86497454Y-82474396D01*
X87952546Y-82474396D01*
X87978481Y-82476950D01*
X87978481Y-82476950D01*
G37*
G36*
X83528481Y-82476950D02*
X83551060Y-82483799D01*
X83571871Y-82494923D01*
X83590109Y-82509891D01*
X83605077Y-82528129D01*
X83616201Y-82548940D01*
X83623050Y-82571519D01*
X83625604Y-82597454D01*
X83625604Y-83402546D01*
X83623050Y-83428481D01*
X83616201Y-83451060D01*
X83605077Y-83471871D01*
X83590109Y-83490109D01*
X83571871Y-83505077D01*
X83551060Y-83516201D01*
X83528481Y-83523050D01*
X83502546Y-83525604D01*
X82047454Y-83525604D01*
X82021519Y-83523050D01*
X81998940Y-83516201D01*
X81978129Y-83505077D01*
X81959891Y-83490109D01*
X81944923Y-83471871D01*
X81933799Y-83451060D01*
X81926950Y-83428481D01*
X81924396Y-83402546D01*
X81924396Y-82597454D01*
X81926950Y-82571519D01*
X81933799Y-82548940D01*
X81944923Y-82528129D01*
X81959891Y-82509891D01*
X81978129Y-82494923D01*
X81998940Y-82483799D01*
X82021519Y-82476950D01*
X82047454Y-82474396D01*
X83502546Y-82474396D01*
X83528481Y-82476950D01*
X83528481Y-82476950D01*
G37*
G36*
X77978481Y-82476950D02*
X78001060Y-82483799D01*
X78021871Y-82494923D01*
X78040109Y-82509891D01*
X78055077Y-82528129D01*
X78066201Y-82548940D01*
X78073050Y-82571519D01*
X78075604Y-82597454D01*
X78075604Y-83402546D01*
X78073050Y-83428481D01*
X78066201Y-83451060D01*
X78055077Y-83471871D01*
X78040109Y-83490109D01*
X78021871Y-83505077D01*
X78001060Y-83516201D01*
X77978481Y-83523050D01*
X77952546Y-83525604D01*
X76497454Y-83525604D01*
X76471519Y-83523050D01*
X76448940Y-83516201D01*
X76428129Y-83505077D01*
X76409891Y-83490109D01*
X76394923Y-83471871D01*
X76383799Y-83451060D01*
X76376950Y-83428481D01*
X76374396Y-83402546D01*
X76374396Y-82597454D01*
X76376950Y-82571519D01*
X76383799Y-82548940D01*
X76394923Y-82528129D01*
X76409891Y-82509891D01*
X76428129Y-82494923D01*
X76448940Y-82483799D01*
X76471519Y-82476950D01*
X76497454Y-82474396D01*
X77952546Y-82474396D01*
X77978481Y-82476950D01*
X77978481Y-82476950D01*
G37*
G36*
X73528481Y-82476950D02*
X73551060Y-82483799D01*
X73571871Y-82494923D01*
X73590109Y-82509891D01*
X73605077Y-82528129D01*
X73616201Y-82548940D01*
X73623050Y-82571519D01*
X73625604Y-82597454D01*
X73625604Y-83402546D01*
X73623050Y-83428481D01*
X73616201Y-83451060D01*
X73605077Y-83471871D01*
X73590109Y-83490109D01*
X73571871Y-83505077D01*
X73551060Y-83516201D01*
X73528481Y-83523050D01*
X73502546Y-83525604D01*
X72047454Y-83525604D01*
X72021519Y-83523050D01*
X71998940Y-83516201D01*
X71978129Y-83505077D01*
X71959891Y-83490109D01*
X71944923Y-83471871D01*
X71933799Y-83451060D01*
X71926950Y-83428481D01*
X71924396Y-83402546D01*
X71924396Y-82597454D01*
X71926950Y-82571519D01*
X71933799Y-82548940D01*
X71944923Y-82528129D01*
X71959891Y-82509891D01*
X71978129Y-82494923D01*
X71998940Y-82483799D01*
X72021519Y-82476950D01*
X72047454Y-82474396D01*
X73502546Y-82474396D01*
X73528481Y-82476950D01*
X73528481Y-82476950D01*
G37*
G36*
X67978481Y-82476950D02*
X68001060Y-82483799D01*
X68021871Y-82494923D01*
X68040109Y-82509891D01*
X68055077Y-82528129D01*
X68066201Y-82548940D01*
X68073050Y-82571519D01*
X68075604Y-82597454D01*
X68075604Y-83402546D01*
X68073050Y-83428481D01*
X68066201Y-83451060D01*
X68055077Y-83471871D01*
X68040109Y-83490109D01*
X68021871Y-83505077D01*
X68001060Y-83516201D01*
X67978481Y-83523050D01*
X67952546Y-83525604D01*
X66497454Y-83525604D01*
X66471519Y-83523050D01*
X66448940Y-83516201D01*
X66428129Y-83505077D01*
X66409891Y-83490109D01*
X66394923Y-83471871D01*
X66383799Y-83451060D01*
X66376950Y-83428481D01*
X66374396Y-83402546D01*
X66374396Y-82597454D01*
X66376950Y-82571519D01*
X66383799Y-82548940D01*
X66394923Y-82528129D01*
X66409891Y-82509891D01*
X66428129Y-82494923D01*
X66448940Y-82483799D01*
X66471519Y-82476950D01*
X66497454Y-82474396D01*
X67952546Y-82474396D01*
X67978481Y-82476950D01*
X67978481Y-82476950D01*
G37*
G36*
X63528481Y-82476950D02*
X63551060Y-82483799D01*
X63571871Y-82494923D01*
X63590109Y-82509891D01*
X63605077Y-82528129D01*
X63616201Y-82548940D01*
X63623050Y-82571519D01*
X63625604Y-82597454D01*
X63625604Y-83402546D01*
X63623050Y-83428481D01*
X63616201Y-83451060D01*
X63605077Y-83471871D01*
X63590109Y-83490109D01*
X63571871Y-83505077D01*
X63551060Y-83516201D01*
X63528481Y-83523050D01*
X63502546Y-83525604D01*
X62047454Y-83525604D01*
X62021519Y-83523050D01*
X61998940Y-83516201D01*
X61978129Y-83505077D01*
X61959891Y-83490109D01*
X61944923Y-83471871D01*
X61933799Y-83451060D01*
X61926950Y-83428481D01*
X61924396Y-83402546D01*
X61924396Y-82597454D01*
X61926950Y-82571519D01*
X61933799Y-82548940D01*
X61944923Y-82528129D01*
X61959891Y-82509891D01*
X61978129Y-82494923D01*
X61998940Y-82483799D01*
X62021519Y-82476950D01*
X62047454Y-82474396D01*
X63502546Y-82474396D01*
X63528481Y-82476950D01*
X63528481Y-82476950D01*
G37*
G36*
X57978481Y-82476950D02*
X58001060Y-82483799D01*
X58021871Y-82494923D01*
X58040109Y-82509891D01*
X58055077Y-82528129D01*
X58066201Y-82548940D01*
X58073050Y-82571519D01*
X58075604Y-82597454D01*
X58075604Y-83402546D01*
X58073050Y-83428481D01*
X58066201Y-83451060D01*
X58055077Y-83471871D01*
X58040109Y-83490109D01*
X58021871Y-83505077D01*
X58001060Y-83516201D01*
X57978481Y-83523050D01*
X57952546Y-83525604D01*
X56497454Y-83525604D01*
X56471519Y-83523050D01*
X56448940Y-83516201D01*
X56428129Y-83505077D01*
X56409891Y-83490109D01*
X56394923Y-83471871D01*
X56383799Y-83451060D01*
X56376950Y-83428481D01*
X56374396Y-83402546D01*
X56374396Y-82597454D01*
X56376950Y-82571519D01*
X56383799Y-82548940D01*
X56394923Y-82528129D01*
X56409891Y-82509891D01*
X56428129Y-82494923D01*
X56448940Y-82483799D01*
X56471519Y-82476950D01*
X56497454Y-82474396D01*
X57952546Y-82474396D01*
X57978481Y-82476950D01*
X57978481Y-82476950D01*
G37*
G36*
X63528481Y-81276950D02*
X63551060Y-81283799D01*
X63571871Y-81294923D01*
X63590109Y-81309891D01*
X63605077Y-81328129D01*
X63616201Y-81348940D01*
X63623050Y-81371519D01*
X63625604Y-81397454D01*
X63625604Y-82202546D01*
X63623050Y-82228481D01*
X63616201Y-82251060D01*
X63605077Y-82271871D01*
X63590109Y-82290109D01*
X63571871Y-82305077D01*
X63551060Y-82316201D01*
X63528481Y-82323050D01*
X63502546Y-82325604D01*
X62047454Y-82325604D01*
X62021519Y-82323050D01*
X61998940Y-82316201D01*
X61978129Y-82305077D01*
X61959891Y-82290109D01*
X61944923Y-82271871D01*
X61933799Y-82251060D01*
X61926950Y-82228481D01*
X61924396Y-82202546D01*
X61924396Y-81397454D01*
X61926950Y-81371519D01*
X61933799Y-81348940D01*
X61944923Y-81328129D01*
X61959891Y-81309891D01*
X61978129Y-81294923D01*
X61998940Y-81283799D01*
X62021519Y-81276950D01*
X62047454Y-81274396D01*
X63502546Y-81274396D01*
X63528481Y-81276950D01*
X63528481Y-81276950D01*
G37*
G36*
X83528481Y-81276950D02*
X83551060Y-81283799D01*
X83571871Y-81294923D01*
X83590109Y-81309891D01*
X83605077Y-81328129D01*
X83616201Y-81348940D01*
X83623050Y-81371519D01*
X83625604Y-81397454D01*
X83625604Y-82202546D01*
X83623050Y-82228481D01*
X83616201Y-82251060D01*
X83605077Y-82271871D01*
X83590109Y-82290109D01*
X83571871Y-82305077D01*
X83551060Y-82316201D01*
X83528481Y-82323050D01*
X83502546Y-82325604D01*
X82047454Y-82325604D01*
X82021519Y-82323050D01*
X81998940Y-82316201D01*
X81978129Y-82305077D01*
X81959891Y-82290109D01*
X81944923Y-82271871D01*
X81933799Y-82251060D01*
X81926950Y-82228481D01*
X81924396Y-82202546D01*
X81924396Y-81397454D01*
X81926950Y-81371519D01*
X81933799Y-81348940D01*
X81944923Y-81328129D01*
X81959891Y-81309891D01*
X81978129Y-81294923D01*
X81998940Y-81283799D01*
X82021519Y-81276950D01*
X82047454Y-81274396D01*
X83502546Y-81274396D01*
X83528481Y-81276950D01*
X83528481Y-81276950D01*
G37*
G36*
X77978481Y-81276950D02*
X78001060Y-81283799D01*
X78021871Y-81294923D01*
X78040109Y-81309891D01*
X78055077Y-81328129D01*
X78066201Y-81348940D01*
X78073050Y-81371519D01*
X78075604Y-81397454D01*
X78075604Y-82202546D01*
X78073050Y-82228481D01*
X78066201Y-82251060D01*
X78055077Y-82271871D01*
X78040109Y-82290109D01*
X78021871Y-82305077D01*
X78001060Y-82316201D01*
X77978481Y-82323050D01*
X77952546Y-82325604D01*
X76497454Y-82325604D01*
X76471519Y-82323050D01*
X76448940Y-82316201D01*
X76428129Y-82305077D01*
X76409891Y-82290109D01*
X76394923Y-82271871D01*
X76383799Y-82251060D01*
X76376950Y-82228481D01*
X76374396Y-82202546D01*
X76374396Y-81397454D01*
X76376950Y-81371519D01*
X76383799Y-81348940D01*
X76394923Y-81328129D01*
X76409891Y-81309891D01*
X76428129Y-81294923D01*
X76448940Y-81283799D01*
X76471519Y-81276950D01*
X76497454Y-81274396D01*
X77952546Y-81274396D01*
X77978481Y-81276950D01*
X77978481Y-81276950D01*
G37*
G36*
X73528481Y-81276950D02*
X73551060Y-81283799D01*
X73571871Y-81294923D01*
X73590109Y-81309891D01*
X73605077Y-81328129D01*
X73616201Y-81348940D01*
X73623050Y-81371519D01*
X73625604Y-81397454D01*
X73625604Y-82202546D01*
X73623050Y-82228481D01*
X73616201Y-82251060D01*
X73605077Y-82271871D01*
X73590109Y-82290109D01*
X73571871Y-82305077D01*
X73551060Y-82316201D01*
X73528481Y-82323050D01*
X73502546Y-82325604D01*
X72047454Y-82325604D01*
X72021519Y-82323050D01*
X71998940Y-82316201D01*
X71978129Y-82305077D01*
X71959891Y-82290109D01*
X71944923Y-82271871D01*
X71933799Y-82251060D01*
X71926950Y-82228481D01*
X71924396Y-82202546D01*
X71924396Y-81397454D01*
X71926950Y-81371519D01*
X71933799Y-81348940D01*
X71944923Y-81328129D01*
X71959891Y-81309891D01*
X71978129Y-81294923D01*
X71998940Y-81283799D01*
X72021519Y-81276950D01*
X72047454Y-81274396D01*
X73502546Y-81274396D01*
X73528481Y-81276950D01*
X73528481Y-81276950D01*
G37*
G36*
X57978481Y-81276950D02*
X58001060Y-81283799D01*
X58021871Y-81294923D01*
X58040109Y-81309891D01*
X58055077Y-81328129D01*
X58066201Y-81348940D01*
X58073050Y-81371519D01*
X58075604Y-81397454D01*
X58075604Y-82202546D01*
X58073050Y-82228481D01*
X58066201Y-82251060D01*
X58055077Y-82271871D01*
X58040109Y-82290109D01*
X58021871Y-82305077D01*
X58001060Y-82316201D01*
X57978481Y-82323050D01*
X57952546Y-82325604D01*
X56497454Y-82325604D01*
X56471519Y-82323050D01*
X56448940Y-82316201D01*
X56428129Y-82305077D01*
X56409891Y-82290109D01*
X56394923Y-82271871D01*
X56383799Y-82251060D01*
X56376950Y-82228481D01*
X56374396Y-82202546D01*
X56374396Y-81397454D01*
X56376950Y-81371519D01*
X56383799Y-81348940D01*
X56394923Y-81328129D01*
X56409891Y-81309891D01*
X56428129Y-81294923D01*
X56448940Y-81283799D01*
X56471519Y-81276950D01*
X56497454Y-81274396D01*
X57952546Y-81274396D01*
X57978481Y-81276950D01*
X57978481Y-81276950D01*
G37*
G36*
X53528481Y-81276950D02*
X53551060Y-81283799D01*
X53571871Y-81294923D01*
X53590109Y-81309891D01*
X53605077Y-81328129D01*
X53616201Y-81348940D01*
X53623050Y-81371519D01*
X53625604Y-81397454D01*
X53625604Y-82202546D01*
X53623050Y-82228481D01*
X53616201Y-82251060D01*
X53605077Y-82271871D01*
X53590109Y-82290109D01*
X53571871Y-82305077D01*
X53551060Y-82316201D01*
X53528481Y-82323050D01*
X53502546Y-82325604D01*
X52047454Y-82325604D01*
X52021519Y-82323050D01*
X51998940Y-82316201D01*
X51978129Y-82305077D01*
X51959891Y-82290109D01*
X51944923Y-82271871D01*
X51933799Y-82251060D01*
X51926950Y-82228481D01*
X51924396Y-82202546D01*
X51924396Y-81397454D01*
X51926950Y-81371519D01*
X51933799Y-81348940D01*
X51944923Y-81328129D01*
X51959891Y-81309891D01*
X51978129Y-81294923D01*
X51998940Y-81283799D01*
X52021519Y-81276950D01*
X52047454Y-81274396D01*
X53502546Y-81274396D01*
X53528481Y-81276950D01*
X53528481Y-81276950D01*
G37*
G36*
X87978481Y-81276950D02*
X88001060Y-81283799D01*
X88021871Y-81294923D01*
X88040109Y-81309891D01*
X88055077Y-81328129D01*
X88066201Y-81348940D01*
X88073050Y-81371519D01*
X88075604Y-81397454D01*
X88075604Y-82202546D01*
X88073050Y-82228481D01*
X88066201Y-82251060D01*
X88055077Y-82271871D01*
X88040109Y-82290109D01*
X88021871Y-82305077D01*
X88001060Y-82316201D01*
X87978481Y-82323050D01*
X87952546Y-82325604D01*
X86497454Y-82325604D01*
X86471519Y-82323050D01*
X86448940Y-82316201D01*
X86428129Y-82305077D01*
X86409891Y-82290109D01*
X86394923Y-82271871D01*
X86383799Y-82251060D01*
X86376950Y-82228481D01*
X86374396Y-82202546D01*
X86374396Y-81397454D01*
X86376950Y-81371519D01*
X86383799Y-81348940D01*
X86394923Y-81328129D01*
X86409891Y-81309891D01*
X86428129Y-81294923D01*
X86448940Y-81283799D01*
X86471519Y-81276950D01*
X86497454Y-81274396D01*
X87952546Y-81274396D01*
X87978481Y-81276950D01*
X87978481Y-81276950D01*
G37*
G36*
X67978481Y-81276950D02*
X68001060Y-81283799D01*
X68021871Y-81294923D01*
X68040109Y-81309891D01*
X68055077Y-81328129D01*
X68066201Y-81348940D01*
X68073050Y-81371519D01*
X68075604Y-81397454D01*
X68075604Y-82202546D01*
X68073050Y-82228481D01*
X68066201Y-82251060D01*
X68055077Y-82271871D01*
X68040109Y-82290109D01*
X68021871Y-82305077D01*
X68001060Y-82316201D01*
X67978481Y-82323050D01*
X67952546Y-82325604D01*
X66497454Y-82325604D01*
X66471519Y-82323050D01*
X66448940Y-82316201D01*
X66428129Y-82305077D01*
X66409891Y-82290109D01*
X66394923Y-82271871D01*
X66383799Y-82251060D01*
X66376950Y-82228481D01*
X66374396Y-82202546D01*
X66374396Y-81397454D01*
X66376950Y-81371519D01*
X66383799Y-81348940D01*
X66394923Y-81328129D01*
X66409891Y-81309891D01*
X66428129Y-81294923D01*
X66448940Y-81283799D01*
X66471519Y-81276950D01*
X66497454Y-81274396D01*
X67952546Y-81274396D01*
X67978481Y-81276950D01*
X67978481Y-81276950D01*
G37*
G36*
X81465000Y-76485000D02*
X81465961Y-76494755D01*
X81468806Y-76504134D01*
X81473427Y-76512779D01*
X81479645Y-76520355D01*
X81487221Y-76526573D01*
X81495866Y-76531194D01*
X81505245Y-76534039D01*
X81515000Y-76535000D01*
X82475000Y-76535000D01*
X82475000Y-79465000D01*
X81515000Y-79465000D01*
X81505245Y-79465961D01*
X81495866Y-79468806D01*
X81487221Y-79473427D01*
X81479645Y-79479645D01*
X81473427Y-79487221D01*
X81468806Y-79495866D01*
X81465961Y-79505245D01*
X81465000Y-79515000D01*
X81465000Y-80475000D01*
X78535000Y-80475000D01*
X78535000Y-79506319D01*
X78534039Y-79496564D01*
X78531194Y-79487185D01*
X78526573Y-79478540D01*
X78520355Y-79470964D01*
X78512779Y-79464746D01*
X78504134Y-79460125D01*
X78494755Y-79457280D01*
X78485000Y-79456319D01*
X78475245Y-79457280D01*
X78470484Y-79458472D01*
X78470201Y-79458558D01*
X78470197Y-79458560D01*
X78453434Y-79463645D01*
X78453431Y-79463645D01*
X78453429Y-79463646D01*
X78433547Y-79465604D01*
X77616453Y-79465604D01*
X77596570Y-79463646D01*
X77596567Y-79463645D01*
X77596566Y-79463645D01*
X77579803Y-79458560D01*
X77564353Y-79450302D01*
X77562243Y-79448570D01*
X77550811Y-79439189D01*
X77539699Y-79425648D01*
X77539546Y-79425362D01*
X77536733Y-79420098D01*
X78516560Y-79420098D01*
X78516560Y-79429899D01*
X78518472Y-79439513D01*
X78522222Y-79448569D01*
X78527668Y-79456719D01*
X78534598Y-79463650D01*
X78542748Y-79469095D01*
X78551803Y-79472847D01*
X78561417Y-79474759D01*
X78566319Y-79475000D01*
X78632071Y-79475000D01*
X78641826Y-79474039D01*
X78651205Y-79471194D01*
X78659850Y-79466573D01*
X78667426Y-79460355D01*
X78673644Y-79452779D01*
X78678265Y-79444134D01*
X78681110Y-79434755D01*
X78682071Y-79425000D01*
X78681589Y-79420099D01*
X81318170Y-79420099D01*
X81318170Y-79429901D01*
X81320082Y-79439514D01*
X81323833Y-79448570D01*
X81329278Y-79456720D01*
X81336209Y-79463651D01*
X81344359Y-79469096D01*
X81353415Y-79472847D01*
X81367929Y-79475000D01*
X81425000Y-79475000D01*
X81434755Y-79474039D01*
X81444134Y-79471194D01*
X81452779Y-79466573D01*
X81460355Y-79460355D01*
X81466573Y-79452779D01*
X81471194Y-79444134D01*
X81474039Y-79434755D01*
X81475000Y-79425000D01*
X81475000Y-79367929D01*
X81474039Y-79358174D01*
X81471194Y-79348795D01*
X81466573Y-79340150D01*
X81460355Y-79332574D01*
X81452779Y-79326356D01*
X81444134Y-79321735D01*
X81434755Y-79318890D01*
X81425000Y-79317929D01*
X81415245Y-79318890D01*
X81405866Y-79321735D01*
X81397221Y-79326356D01*
X81386352Y-79336206D01*
X81363748Y-79363748D01*
X81336205Y-79386353D01*
X81329278Y-79393280D01*
X81323833Y-79401430D01*
X81320082Y-79410486D01*
X81318170Y-79420099D01*
X78681589Y-79420099D01*
X78681110Y-79415245D01*
X78678265Y-79405866D01*
X78673644Y-79397221D01*
X78663794Y-79386352D01*
X78636252Y-79363748D01*
X78614251Y-79336941D01*
X78607324Y-79330014D01*
X78599174Y-79324569D01*
X78590118Y-79320818D01*
X78580505Y-79318906D01*
X78570703Y-79318906D01*
X78561090Y-79320818D01*
X78552034Y-79324569D01*
X78543884Y-79330014D01*
X78536953Y-79336945D01*
X78531508Y-79345095D01*
X78527757Y-79354151D01*
X78525604Y-79368665D01*
X78525604Y-79373547D01*
X78523646Y-79393429D01*
X78523645Y-79393431D01*
X78523645Y-79393434D01*
X78518560Y-79410197D01*
X78518559Y-79410198D01*
X78518472Y-79410484D01*
X78516560Y-79420098D01*
X77536733Y-79420098D01*
X77531440Y-79410197D01*
X77526355Y-79393434D01*
X77526355Y-79393433D01*
X77526354Y-79393430D01*
X77524396Y-79373547D01*
X77524396Y-79126453D01*
X77526354Y-79106570D01*
X77526355Y-79106566D01*
X77531440Y-79089803D01*
X77539698Y-79074353D01*
X77540695Y-79073139D01*
X77550811Y-79060811D01*
X77564352Y-79049699D01*
X77564351Y-79049699D01*
X77564353Y-79049698D01*
X77574840Y-79044093D01*
X77582984Y-79038651D01*
X77589915Y-79031720D01*
X77595361Y-79023570D01*
X77599112Y-79014515D01*
X77601024Y-79004901D01*
X77601024Y-78995099D01*
X78448976Y-78995099D01*
X78448976Y-79004901D01*
X78450888Y-79014514D01*
X78454639Y-79023570D01*
X78460084Y-79031719D01*
X78467015Y-79038650D01*
X78475160Y-79044093D01*
X78485647Y-79049698D01*
X78485649Y-79049699D01*
X78485648Y-79049699D01*
X78492676Y-79055467D01*
X78500826Y-79060913D01*
X78509881Y-79064664D01*
X78519495Y-79066576D01*
X78529297Y-79066576D01*
X78538910Y-79064664D01*
X78547966Y-79060913D01*
X78556115Y-79055468D01*
X78563046Y-79048537D01*
X78568492Y-79040387D01*
X78572243Y-79031332D01*
X78574155Y-79021718D01*
X78574396Y-79016817D01*
X78574396Y-78983183D01*
X78573435Y-78973428D01*
X78570590Y-78964049D01*
X78565969Y-78955404D01*
X78559751Y-78947828D01*
X78552175Y-78941610D01*
X78543530Y-78936989D01*
X78534151Y-78934144D01*
X78524396Y-78933183D01*
X78514641Y-78934144D01*
X78505262Y-78936989D01*
X78496617Y-78941610D01*
X78492676Y-78944533D01*
X78485647Y-78950302D01*
X78475160Y-78955907D01*
X78467016Y-78961349D01*
X78460085Y-78968280D01*
X78454639Y-78976430D01*
X78450888Y-78985485D01*
X78448976Y-78995099D01*
X77601024Y-78995099D01*
X77599112Y-78985486D01*
X77595361Y-78976430D01*
X77589916Y-78968281D01*
X77582985Y-78961350D01*
X77574840Y-78955907D01*
X77564353Y-78950302D01*
X77563138Y-78949305D01*
X77550811Y-78939189D01*
X77539699Y-78925648D01*
X77531441Y-78910198D01*
X77531440Y-78910197D01*
X77526355Y-78893434D01*
X77526355Y-78893433D01*
X77526354Y-78893430D01*
X77524396Y-78873547D01*
X77524396Y-78626453D01*
X77526354Y-78606570D01*
X77526355Y-78606566D01*
X77531440Y-78589803D01*
X77539698Y-78574353D01*
X77540695Y-78573138D01*
X77550811Y-78560811D01*
X77564352Y-78549699D01*
X77564351Y-78549699D01*
X77564353Y-78549698D01*
X77574840Y-78544093D01*
X77582984Y-78538651D01*
X77589915Y-78531720D01*
X77595361Y-78523570D01*
X77599112Y-78514515D01*
X77601024Y-78504901D01*
X77601024Y-78495099D01*
X78448976Y-78495099D01*
X78448976Y-78504901D01*
X78450888Y-78514514D01*
X78454639Y-78523570D01*
X78460084Y-78531719D01*
X78467015Y-78538650D01*
X78475160Y-78544093D01*
X78485647Y-78549698D01*
X78485649Y-78549699D01*
X78485648Y-78549699D01*
X78492676Y-78555467D01*
X78500826Y-78560913D01*
X78509881Y-78564664D01*
X78519495Y-78566576D01*
X78529297Y-78566576D01*
X78538910Y-78564664D01*
X78547966Y-78560913D01*
X78556115Y-78555468D01*
X78563046Y-78548537D01*
X78568492Y-78540387D01*
X78572243Y-78531332D01*
X78574155Y-78521718D01*
X78574396Y-78516817D01*
X78574396Y-78483183D01*
X78573435Y-78473428D01*
X78570590Y-78464049D01*
X78565969Y-78455404D01*
X78559751Y-78447828D01*
X78552175Y-78441610D01*
X78543530Y-78436989D01*
X78534151Y-78434144D01*
X78524396Y-78433183D01*
X78514641Y-78434144D01*
X78505262Y-78436989D01*
X78496617Y-78441610D01*
X78492676Y-78444533D01*
X78485647Y-78450302D01*
X78475160Y-78455907D01*
X78467016Y-78461349D01*
X78460085Y-78468280D01*
X78454639Y-78476430D01*
X78450888Y-78485485D01*
X78448976Y-78495099D01*
X77601024Y-78495099D01*
X77599112Y-78485486D01*
X77595361Y-78476430D01*
X77589916Y-78468281D01*
X77582985Y-78461350D01*
X77574840Y-78455907D01*
X77564353Y-78450302D01*
X77563138Y-78449305D01*
X77550811Y-78439189D01*
X77539699Y-78425648D01*
X77531441Y-78410198D01*
X77531440Y-78410197D01*
X77526355Y-78393434D01*
X77526355Y-78393433D01*
X77526354Y-78393430D01*
X77524396Y-78373547D01*
X77524396Y-78126453D01*
X77526354Y-78106570D01*
X77526355Y-78106566D01*
X77531440Y-78089803D01*
X77539698Y-78074353D01*
X77540695Y-78073139D01*
X77550811Y-78060811D01*
X77564352Y-78049699D01*
X77564351Y-78049699D01*
X77564353Y-78049698D01*
X77574840Y-78044093D01*
X77582984Y-78038651D01*
X77589915Y-78031720D01*
X77595361Y-78023570D01*
X77599112Y-78014515D01*
X77601024Y-78004901D01*
X77601024Y-77995099D01*
X78448976Y-77995099D01*
X78448976Y-78004901D01*
X78450888Y-78014514D01*
X78454639Y-78023570D01*
X78460084Y-78031719D01*
X78467015Y-78038650D01*
X78475160Y-78044093D01*
X78485647Y-78049698D01*
X78485649Y-78049699D01*
X78485648Y-78049699D01*
X78492676Y-78055467D01*
X78500826Y-78060913D01*
X78509881Y-78064664D01*
X78519495Y-78066576D01*
X78529297Y-78066576D01*
X78538910Y-78064664D01*
X78547966Y-78060913D01*
X78556115Y-78055468D01*
X78563046Y-78048537D01*
X78568492Y-78040387D01*
X78572243Y-78031332D01*
X78574155Y-78021718D01*
X78574396Y-78016817D01*
X78574396Y-77983183D01*
X78573435Y-77973428D01*
X78570590Y-77964049D01*
X78565969Y-77955404D01*
X78559751Y-77947828D01*
X78552175Y-77941610D01*
X78543530Y-77936989D01*
X78534151Y-77934144D01*
X78524396Y-77933183D01*
X78514641Y-77934144D01*
X78505262Y-77936989D01*
X78496617Y-77941610D01*
X78492676Y-77944533D01*
X78485647Y-77950302D01*
X78475160Y-77955907D01*
X78467016Y-77961349D01*
X78460085Y-77968280D01*
X78454639Y-77976430D01*
X78450888Y-77985485D01*
X78448976Y-77995099D01*
X77601024Y-77995099D01*
X77599112Y-77985486D01*
X77595361Y-77976430D01*
X77589916Y-77968281D01*
X77582985Y-77961350D01*
X77574840Y-77955907D01*
X77564353Y-77950302D01*
X77563139Y-77949305D01*
X77550811Y-77939189D01*
X77539699Y-77925648D01*
X77531441Y-77910198D01*
X77531440Y-77910197D01*
X77526355Y-77893434D01*
X77526355Y-77893433D01*
X77526354Y-77893430D01*
X77524396Y-77873547D01*
X77524396Y-77626453D01*
X77526354Y-77606570D01*
X77526355Y-77606566D01*
X77531440Y-77589803D01*
X77539698Y-77574353D01*
X77540695Y-77573138D01*
X77550811Y-77560811D01*
X77564352Y-77549699D01*
X77564351Y-77549699D01*
X77564353Y-77549698D01*
X77574840Y-77544093D01*
X77582984Y-77538651D01*
X77589915Y-77531720D01*
X77595361Y-77523570D01*
X77599112Y-77514515D01*
X77601024Y-77504901D01*
X77601024Y-77495099D01*
X78448976Y-77495099D01*
X78448976Y-77504901D01*
X78450888Y-77514514D01*
X78454639Y-77523570D01*
X78460084Y-77531719D01*
X78467015Y-77538650D01*
X78475160Y-77544093D01*
X78485647Y-77549698D01*
X78485649Y-77549699D01*
X78485648Y-77549699D01*
X78492676Y-77555467D01*
X78500826Y-77560913D01*
X78509881Y-77564664D01*
X78519495Y-77566576D01*
X78529297Y-77566576D01*
X78538910Y-77564664D01*
X78547966Y-77560913D01*
X78556115Y-77555468D01*
X78563046Y-77548537D01*
X78568492Y-77540387D01*
X78572243Y-77531332D01*
X78574155Y-77521718D01*
X78574396Y-77516817D01*
X78574396Y-77483183D01*
X78573435Y-77473428D01*
X78570590Y-77464049D01*
X78565969Y-77455404D01*
X78559751Y-77447828D01*
X78552175Y-77441610D01*
X78543530Y-77436989D01*
X78534151Y-77434144D01*
X78524396Y-77433183D01*
X78514641Y-77434144D01*
X78505262Y-77436989D01*
X78496617Y-77441610D01*
X78492676Y-77444533D01*
X78485647Y-77450302D01*
X78475160Y-77455907D01*
X78467016Y-77461349D01*
X78460085Y-77468280D01*
X78454639Y-77476430D01*
X78450888Y-77485485D01*
X78448976Y-77495099D01*
X77601024Y-77495099D01*
X77599112Y-77485486D01*
X77595361Y-77476430D01*
X77589916Y-77468281D01*
X77582985Y-77461350D01*
X77574840Y-77455907D01*
X77564353Y-77450302D01*
X77563138Y-77449305D01*
X77550811Y-77439189D01*
X77539699Y-77425648D01*
X77531441Y-77410198D01*
X77531440Y-77410197D01*
X77526355Y-77393434D01*
X77526355Y-77393433D01*
X77526354Y-77393430D01*
X77524396Y-77373547D01*
X77524396Y-77126453D01*
X77526354Y-77106570D01*
X77526355Y-77106566D01*
X77531440Y-77089803D01*
X77539698Y-77074353D01*
X77540695Y-77073139D01*
X77550811Y-77060811D01*
X77564352Y-77049699D01*
X77564351Y-77049699D01*
X77564353Y-77049698D01*
X77574840Y-77044093D01*
X77582984Y-77038651D01*
X77589915Y-77031720D01*
X77595361Y-77023570D01*
X77599112Y-77014515D01*
X77601024Y-77004901D01*
X77601024Y-76995099D01*
X78448976Y-76995099D01*
X78448976Y-77004901D01*
X78450888Y-77014514D01*
X78454639Y-77023570D01*
X78460084Y-77031719D01*
X78467015Y-77038650D01*
X78475160Y-77044093D01*
X78485647Y-77049698D01*
X78485649Y-77049699D01*
X78485648Y-77049699D01*
X78492676Y-77055467D01*
X78500826Y-77060913D01*
X78509881Y-77064664D01*
X78519495Y-77066576D01*
X78529297Y-77066576D01*
X78538910Y-77064664D01*
X78547966Y-77060913D01*
X78556115Y-77055468D01*
X78563046Y-77048537D01*
X78568492Y-77040387D01*
X78572243Y-77031332D01*
X78574155Y-77021718D01*
X78574396Y-77016817D01*
X78574396Y-76983183D01*
X78573435Y-76973428D01*
X78570590Y-76964049D01*
X78565969Y-76955404D01*
X78559751Y-76947828D01*
X78552175Y-76941610D01*
X78543530Y-76936989D01*
X78534151Y-76934144D01*
X78524396Y-76933183D01*
X78514641Y-76934144D01*
X78505262Y-76936989D01*
X78496617Y-76941610D01*
X78492676Y-76944533D01*
X78485647Y-76950302D01*
X78475160Y-76955907D01*
X78467016Y-76961349D01*
X78460085Y-76968280D01*
X78454639Y-76976430D01*
X78450888Y-76985485D01*
X78448976Y-76995099D01*
X77601024Y-76995099D01*
X77599112Y-76985486D01*
X77595361Y-76976430D01*
X77589916Y-76968281D01*
X77582985Y-76961350D01*
X77574840Y-76955907D01*
X77564353Y-76950302D01*
X77563138Y-76949305D01*
X77550811Y-76939189D01*
X77539699Y-76925648D01*
X77531441Y-76910198D01*
X77531440Y-76910197D01*
X77526355Y-76893434D01*
X77526355Y-76893433D01*
X77526354Y-76893430D01*
X77524396Y-76873547D01*
X77524396Y-76626453D01*
X77526354Y-76606570D01*
X77528781Y-76598570D01*
X77531440Y-76589803D01*
X77539352Y-76575000D01*
X78516319Y-76575000D01*
X78517280Y-76584755D01*
X78518472Y-76589516D01*
X78518558Y-76589799D01*
X78518560Y-76589803D01*
X78523645Y-76606566D01*
X78523645Y-76606569D01*
X78523646Y-76606571D01*
X78525604Y-76626453D01*
X78525604Y-76631335D01*
X78526565Y-76641090D01*
X78529410Y-76650469D01*
X78534031Y-76659114D01*
X78540249Y-76666690D01*
X78547825Y-76672908D01*
X78556470Y-76677529D01*
X78565849Y-76680374D01*
X78575604Y-76681335D01*
X78585359Y-76680374D01*
X78594738Y-76677529D01*
X78603383Y-76672908D01*
X78614252Y-76663057D01*
X78636252Y-76636252D01*
X78663795Y-76613647D01*
X78670722Y-76606720D01*
X78676167Y-76598570D01*
X78679918Y-76589514D01*
X78681830Y-76579901D01*
X78681830Y-76575000D01*
X81317929Y-76575000D01*
X81318890Y-76584755D01*
X81321735Y-76594134D01*
X81326356Y-76602779D01*
X81336206Y-76613648D01*
X81363748Y-76636252D01*
X81386353Y-76663795D01*
X81393280Y-76670722D01*
X81401430Y-76676167D01*
X81410486Y-76679918D01*
X81420099Y-76681830D01*
X81429901Y-76681830D01*
X81439514Y-76679918D01*
X81448570Y-76676167D01*
X81456720Y-76670722D01*
X81463651Y-76663791D01*
X81469096Y-76655641D01*
X81472847Y-76646585D01*
X81475000Y-76632071D01*
X81475000Y-76575000D01*
X81474039Y-76565245D01*
X81471194Y-76555866D01*
X81466573Y-76547221D01*
X81460355Y-76539645D01*
X81452779Y-76533427D01*
X81444134Y-76528806D01*
X81434755Y-76525961D01*
X81425000Y-76525000D01*
X81367929Y-76525000D01*
X81358174Y-76525961D01*
X81348795Y-76528806D01*
X81340150Y-76533427D01*
X81332574Y-76539645D01*
X81326356Y-76547221D01*
X81321735Y-76555866D01*
X81318890Y-76565245D01*
X81317929Y-76575000D01*
X78681830Y-76575000D01*
X78681830Y-76570099D01*
X78679918Y-76560486D01*
X78676167Y-76551430D01*
X78670722Y-76543280D01*
X78663791Y-76536349D01*
X78655641Y-76530904D01*
X78646585Y-76527153D01*
X78632071Y-76525000D01*
X78566319Y-76525000D01*
X78556564Y-76525961D01*
X78547185Y-76528806D01*
X78538540Y-76533427D01*
X78530964Y-76539645D01*
X78524746Y-76547221D01*
X78520125Y-76555866D01*
X78517280Y-76565245D01*
X78516319Y-76575000D01*
X77539352Y-76575000D01*
X77539698Y-76574353D01*
X77540695Y-76573138D01*
X77550811Y-76560811D01*
X77564352Y-76549699D01*
X77564351Y-76549699D01*
X77564353Y-76549698D01*
X77579803Y-76541440D01*
X77596566Y-76536355D01*
X77596567Y-76536355D01*
X77596570Y-76536354D01*
X77616453Y-76534396D01*
X78433547Y-76534396D01*
X78453429Y-76536354D01*
X78453431Y-76536355D01*
X78453434Y-76536355D01*
X78470197Y-76541440D01*
X78470201Y-76541442D01*
X78470484Y-76541528D01*
X78480098Y-76543440D01*
X78489899Y-76543440D01*
X78499513Y-76541528D01*
X78508569Y-76537778D01*
X78516719Y-76532332D01*
X78523650Y-76525402D01*
X78529095Y-76517252D01*
X78532847Y-76508197D01*
X78534759Y-76498583D01*
X78535000Y-76493681D01*
X78535000Y-75525000D01*
X81465000Y-75525000D01*
X81465000Y-76485000D01*
X81465000Y-76485000D01*
G37*
G36*
X61465000Y-76485000D02*
X61465961Y-76494755D01*
X61468806Y-76504134D01*
X61473427Y-76512779D01*
X61479645Y-76520355D01*
X61487221Y-76526573D01*
X61495866Y-76531194D01*
X61505245Y-76534039D01*
X61515000Y-76535000D01*
X62475000Y-76535000D01*
X62475000Y-79465000D01*
X61515000Y-79465000D01*
X61505245Y-79465961D01*
X61495866Y-79468806D01*
X61487221Y-79473427D01*
X61479645Y-79479645D01*
X61473427Y-79487221D01*
X61468806Y-79495866D01*
X61465961Y-79505245D01*
X61465000Y-79515000D01*
X61465000Y-80475000D01*
X58535000Y-80475000D01*
X58535000Y-79506319D01*
X58534039Y-79496564D01*
X58531194Y-79487185D01*
X58526573Y-79478540D01*
X58520355Y-79470964D01*
X58512779Y-79464746D01*
X58504134Y-79460125D01*
X58494755Y-79457280D01*
X58485000Y-79456319D01*
X58475245Y-79457280D01*
X58470484Y-79458472D01*
X58470201Y-79458558D01*
X58470197Y-79458560D01*
X58453434Y-79463645D01*
X58453431Y-79463645D01*
X58453429Y-79463646D01*
X58433547Y-79465604D01*
X57616453Y-79465604D01*
X57596570Y-79463646D01*
X57596567Y-79463645D01*
X57596566Y-79463645D01*
X57579803Y-79458560D01*
X57564353Y-79450302D01*
X57562243Y-79448570D01*
X57550811Y-79439189D01*
X57539699Y-79425648D01*
X57539546Y-79425362D01*
X57536733Y-79420098D01*
X58516560Y-79420098D01*
X58516560Y-79429899D01*
X58518472Y-79439513D01*
X58522222Y-79448569D01*
X58527668Y-79456719D01*
X58534598Y-79463650D01*
X58542748Y-79469095D01*
X58551803Y-79472847D01*
X58561417Y-79474759D01*
X58566319Y-79475000D01*
X58632071Y-79475000D01*
X58641826Y-79474039D01*
X58651205Y-79471194D01*
X58659850Y-79466573D01*
X58667426Y-79460355D01*
X58673644Y-79452779D01*
X58678265Y-79444134D01*
X58681110Y-79434755D01*
X58682071Y-79425000D01*
X58681589Y-79420099D01*
X61318170Y-79420099D01*
X61318170Y-79429901D01*
X61320082Y-79439514D01*
X61323833Y-79448570D01*
X61329278Y-79456720D01*
X61336209Y-79463651D01*
X61344359Y-79469096D01*
X61353415Y-79472847D01*
X61367929Y-79475000D01*
X61425000Y-79475000D01*
X61434755Y-79474039D01*
X61444134Y-79471194D01*
X61452779Y-79466573D01*
X61460355Y-79460355D01*
X61466573Y-79452779D01*
X61471194Y-79444134D01*
X61474039Y-79434755D01*
X61475000Y-79425000D01*
X61475000Y-79367929D01*
X61474039Y-79358174D01*
X61471194Y-79348795D01*
X61466573Y-79340150D01*
X61460355Y-79332574D01*
X61452779Y-79326356D01*
X61444134Y-79321735D01*
X61434755Y-79318890D01*
X61425000Y-79317929D01*
X61415245Y-79318890D01*
X61405866Y-79321735D01*
X61397221Y-79326356D01*
X61386352Y-79336206D01*
X61363748Y-79363748D01*
X61336205Y-79386353D01*
X61329278Y-79393280D01*
X61323833Y-79401430D01*
X61320082Y-79410486D01*
X61318170Y-79420099D01*
X58681589Y-79420099D01*
X58681110Y-79415245D01*
X58678265Y-79405866D01*
X58673644Y-79397221D01*
X58663794Y-79386352D01*
X58636252Y-79363748D01*
X58614251Y-79336941D01*
X58607324Y-79330014D01*
X58599174Y-79324569D01*
X58590118Y-79320818D01*
X58580505Y-79318906D01*
X58570703Y-79318906D01*
X58561090Y-79320818D01*
X58552034Y-79324569D01*
X58543884Y-79330014D01*
X58536953Y-79336945D01*
X58531508Y-79345095D01*
X58527757Y-79354151D01*
X58525604Y-79368665D01*
X58525604Y-79373547D01*
X58523646Y-79393429D01*
X58523645Y-79393431D01*
X58523645Y-79393434D01*
X58518560Y-79410197D01*
X58518559Y-79410198D01*
X58518472Y-79410484D01*
X58516560Y-79420098D01*
X57536733Y-79420098D01*
X57531440Y-79410197D01*
X57526355Y-79393434D01*
X57526355Y-79393433D01*
X57526354Y-79393430D01*
X57524396Y-79373547D01*
X57524396Y-79126453D01*
X57526354Y-79106570D01*
X57526355Y-79106566D01*
X57531440Y-79089803D01*
X57539698Y-79074353D01*
X57540695Y-79073139D01*
X57550811Y-79060811D01*
X57564352Y-79049699D01*
X57564351Y-79049699D01*
X57564353Y-79049698D01*
X57574840Y-79044093D01*
X57582984Y-79038651D01*
X57589915Y-79031720D01*
X57595361Y-79023570D01*
X57599112Y-79014515D01*
X57601024Y-79004901D01*
X57601024Y-78995099D01*
X58448976Y-78995099D01*
X58448976Y-79004901D01*
X58450888Y-79014514D01*
X58454639Y-79023570D01*
X58460084Y-79031719D01*
X58467015Y-79038650D01*
X58475160Y-79044093D01*
X58485647Y-79049698D01*
X58485649Y-79049699D01*
X58485648Y-79049699D01*
X58492676Y-79055467D01*
X58500826Y-79060913D01*
X58509881Y-79064664D01*
X58519495Y-79066576D01*
X58529297Y-79066576D01*
X58538910Y-79064664D01*
X58547966Y-79060913D01*
X58556115Y-79055468D01*
X58563046Y-79048537D01*
X58568492Y-79040387D01*
X58572243Y-79031332D01*
X58574155Y-79021718D01*
X58574396Y-79016817D01*
X58574396Y-78983183D01*
X58573435Y-78973428D01*
X58570590Y-78964049D01*
X58565969Y-78955404D01*
X58559751Y-78947828D01*
X58552175Y-78941610D01*
X58543530Y-78936989D01*
X58534151Y-78934144D01*
X58524396Y-78933183D01*
X58514641Y-78934144D01*
X58505262Y-78936989D01*
X58496617Y-78941610D01*
X58492676Y-78944533D01*
X58485647Y-78950302D01*
X58475160Y-78955907D01*
X58467016Y-78961349D01*
X58460085Y-78968280D01*
X58454639Y-78976430D01*
X58450888Y-78985485D01*
X58448976Y-78995099D01*
X57601024Y-78995099D01*
X57599112Y-78985486D01*
X57595361Y-78976430D01*
X57589916Y-78968281D01*
X57582985Y-78961350D01*
X57574840Y-78955907D01*
X57564353Y-78950302D01*
X57563138Y-78949305D01*
X57550811Y-78939189D01*
X57539699Y-78925648D01*
X57531441Y-78910198D01*
X57531440Y-78910197D01*
X57526355Y-78893434D01*
X57526355Y-78893433D01*
X57526354Y-78893430D01*
X57524396Y-78873547D01*
X57524396Y-78626453D01*
X57526354Y-78606570D01*
X57526355Y-78606566D01*
X57531440Y-78589803D01*
X57539698Y-78574353D01*
X57540695Y-78573138D01*
X57550811Y-78560811D01*
X57564352Y-78549699D01*
X57564351Y-78549699D01*
X57564353Y-78549698D01*
X57574840Y-78544093D01*
X57582984Y-78538651D01*
X57589915Y-78531720D01*
X57595361Y-78523570D01*
X57599112Y-78514515D01*
X57601024Y-78504901D01*
X57601024Y-78495099D01*
X58448976Y-78495099D01*
X58448976Y-78504901D01*
X58450888Y-78514514D01*
X58454639Y-78523570D01*
X58460084Y-78531719D01*
X58467015Y-78538650D01*
X58475160Y-78544093D01*
X58485647Y-78549698D01*
X58485649Y-78549699D01*
X58485648Y-78549699D01*
X58492676Y-78555467D01*
X58500826Y-78560913D01*
X58509881Y-78564664D01*
X58519495Y-78566576D01*
X58529297Y-78566576D01*
X58538910Y-78564664D01*
X58547966Y-78560913D01*
X58556115Y-78555468D01*
X58563046Y-78548537D01*
X58568492Y-78540387D01*
X58572243Y-78531332D01*
X58574155Y-78521718D01*
X58574396Y-78516817D01*
X58574396Y-78483183D01*
X58573435Y-78473428D01*
X58570590Y-78464049D01*
X58565969Y-78455404D01*
X58559751Y-78447828D01*
X58552175Y-78441610D01*
X58543530Y-78436989D01*
X58534151Y-78434144D01*
X58524396Y-78433183D01*
X58514641Y-78434144D01*
X58505262Y-78436989D01*
X58496617Y-78441610D01*
X58492676Y-78444533D01*
X58485647Y-78450302D01*
X58475160Y-78455907D01*
X58467016Y-78461349D01*
X58460085Y-78468280D01*
X58454639Y-78476430D01*
X58450888Y-78485485D01*
X58448976Y-78495099D01*
X57601024Y-78495099D01*
X57599112Y-78485486D01*
X57595361Y-78476430D01*
X57589916Y-78468281D01*
X57582985Y-78461350D01*
X57574840Y-78455907D01*
X57564353Y-78450302D01*
X57563138Y-78449305D01*
X57550811Y-78439189D01*
X57539699Y-78425648D01*
X57531441Y-78410198D01*
X57531440Y-78410197D01*
X57526355Y-78393434D01*
X57526355Y-78393433D01*
X57526354Y-78393430D01*
X57524396Y-78373547D01*
X57524396Y-78126453D01*
X57526354Y-78106570D01*
X57526355Y-78106566D01*
X57531440Y-78089803D01*
X57539698Y-78074353D01*
X57540695Y-78073139D01*
X57550811Y-78060811D01*
X57564352Y-78049699D01*
X57564351Y-78049699D01*
X57564353Y-78049698D01*
X57574840Y-78044093D01*
X57582984Y-78038651D01*
X57589915Y-78031720D01*
X57595361Y-78023570D01*
X57599112Y-78014515D01*
X57601024Y-78004901D01*
X57601024Y-77995099D01*
X58448976Y-77995099D01*
X58448976Y-78004901D01*
X58450888Y-78014514D01*
X58454639Y-78023570D01*
X58460084Y-78031719D01*
X58467015Y-78038650D01*
X58475160Y-78044093D01*
X58485647Y-78049698D01*
X58485649Y-78049699D01*
X58485648Y-78049699D01*
X58492676Y-78055467D01*
X58500826Y-78060913D01*
X58509881Y-78064664D01*
X58519495Y-78066576D01*
X58529297Y-78066576D01*
X58538910Y-78064664D01*
X58547966Y-78060913D01*
X58556115Y-78055468D01*
X58563046Y-78048537D01*
X58568492Y-78040387D01*
X58572243Y-78031332D01*
X58574155Y-78021718D01*
X58574396Y-78016817D01*
X58574396Y-77983183D01*
X58573435Y-77973428D01*
X58570590Y-77964049D01*
X58565969Y-77955404D01*
X58559751Y-77947828D01*
X58552175Y-77941610D01*
X58543530Y-77936989D01*
X58534151Y-77934144D01*
X58524396Y-77933183D01*
X58514641Y-77934144D01*
X58505262Y-77936989D01*
X58496617Y-77941610D01*
X58492676Y-77944533D01*
X58485647Y-77950302D01*
X58475160Y-77955907D01*
X58467016Y-77961349D01*
X58460085Y-77968280D01*
X58454639Y-77976430D01*
X58450888Y-77985485D01*
X58448976Y-77995099D01*
X57601024Y-77995099D01*
X57599112Y-77985486D01*
X57595361Y-77976430D01*
X57589916Y-77968281D01*
X57582985Y-77961350D01*
X57574840Y-77955907D01*
X57564353Y-77950302D01*
X57563139Y-77949305D01*
X57550811Y-77939189D01*
X57539699Y-77925648D01*
X57531441Y-77910198D01*
X57531440Y-77910197D01*
X57526355Y-77893434D01*
X57526355Y-77893433D01*
X57526354Y-77893430D01*
X57524396Y-77873547D01*
X57524396Y-77626453D01*
X57526354Y-77606570D01*
X57526355Y-77606566D01*
X57531440Y-77589803D01*
X57539698Y-77574353D01*
X57540695Y-77573138D01*
X57550811Y-77560811D01*
X57564352Y-77549699D01*
X57564351Y-77549699D01*
X57564353Y-77549698D01*
X57574840Y-77544093D01*
X57582984Y-77538651D01*
X57589915Y-77531720D01*
X57595361Y-77523570D01*
X57599112Y-77514515D01*
X57601024Y-77504901D01*
X57601024Y-77495099D01*
X58448976Y-77495099D01*
X58448976Y-77504901D01*
X58450888Y-77514514D01*
X58454639Y-77523570D01*
X58460084Y-77531719D01*
X58467015Y-77538650D01*
X58475160Y-77544093D01*
X58485647Y-77549698D01*
X58485649Y-77549699D01*
X58485648Y-77549699D01*
X58492676Y-77555467D01*
X58500826Y-77560913D01*
X58509881Y-77564664D01*
X58519495Y-77566576D01*
X58529297Y-77566576D01*
X58538910Y-77564664D01*
X58547966Y-77560913D01*
X58556115Y-77555468D01*
X58563046Y-77548537D01*
X58568492Y-77540387D01*
X58572243Y-77531332D01*
X58574155Y-77521718D01*
X58574396Y-77516817D01*
X58574396Y-77483183D01*
X58573435Y-77473428D01*
X58570590Y-77464049D01*
X58565969Y-77455404D01*
X58559751Y-77447828D01*
X58552175Y-77441610D01*
X58543530Y-77436989D01*
X58534151Y-77434144D01*
X58524396Y-77433183D01*
X58514641Y-77434144D01*
X58505262Y-77436989D01*
X58496617Y-77441610D01*
X58492676Y-77444533D01*
X58485647Y-77450302D01*
X58475160Y-77455907D01*
X58467016Y-77461349D01*
X58460085Y-77468280D01*
X58454639Y-77476430D01*
X58450888Y-77485485D01*
X58448976Y-77495099D01*
X57601024Y-77495099D01*
X57599112Y-77485486D01*
X57595361Y-77476430D01*
X57589916Y-77468281D01*
X57582985Y-77461350D01*
X57574840Y-77455907D01*
X57564353Y-77450302D01*
X57563138Y-77449305D01*
X57550811Y-77439189D01*
X57539699Y-77425648D01*
X57531441Y-77410198D01*
X57531440Y-77410197D01*
X57526355Y-77393434D01*
X57526355Y-77393433D01*
X57526354Y-77393430D01*
X57524396Y-77373547D01*
X57524396Y-77126453D01*
X57526354Y-77106570D01*
X57526355Y-77106566D01*
X57531440Y-77089803D01*
X57539698Y-77074353D01*
X57540695Y-77073139D01*
X57550811Y-77060811D01*
X57564352Y-77049699D01*
X57564351Y-77049699D01*
X57564353Y-77049698D01*
X57574840Y-77044093D01*
X57582984Y-77038651D01*
X57589915Y-77031720D01*
X57595361Y-77023570D01*
X57599112Y-77014515D01*
X57601024Y-77004901D01*
X57601024Y-76995099D01*
X58448976Y-76995099D01*
X58448976Y-77004901D01*
X58450888Y-77014514D01*
X58454639Y-77023570D01*
X58460084Y-77031719D01*
X58467015Y-77038650D01*
X58475160Y-77044093D01*
X58485647Y-77049698D01*
X58485649Y-77049699D01*
X58485648Y-77049699D01*
X58492676Y-77055467D01*
X58500826Y-77060913D01*
X58509881Y-77064664D01*
X58519495Y-77066576D01*
X58529297Y-77066576D01*
X58538910Y-77064664D01*
X58547966Y-77060913D01*
X58556115Y-77055468D01*
X58563046Y-77048537D01*
X58568492Y-77040387D01*
X58572243Y-77031332D01*
X58574155Y-77021718D01*
X58574396Y-77016817D01*
X58574396Y-76983183D01*
X58573435Y-76973428D01*
X58570590Y-76964049D01*
X58565969Y-76955404D01*
X58559751Y-76947828D01*
X58552175Y-76941610D01*
X58543530Y-76936989D01*
X58534151Y-76934144D01*
X58524396Y-76933183D01*
X58514641Y-76934144D01*
X58505262Y-76936989D01*
X58496617Y-76941610D01*
X58492676Y-76944533D01*
X58485647Y-76950302D01*
X58475160Y-76955907D01*
X58467016Y-76961349D01*
X58460085Y-76968280D01*
X58454639Y-76976430D01*
X58450888Y-76985485D01*
X58448976Y-76995099D01*
X57601024Y-76995099D01*
X57599112Y-76985486D01*
X57595361Y-76976430D01*
X57589916Y-76968281D01*
X57582985Y-76961350D01*
X57574840Y-76955907D01*
X57564353Y-76950302D01*
X57563138Y-76949305D01*
X57550811Y-76939189D01*
X57539699Y-76925648D01*
X57531441Y-76910198D01*
X57531440Y-76910197D01*
X57526355Y-76893434D01*
X57526355Y-76893433D01*
X57526354Y-76893430D01*
X57524396Y-76873547D01*
X57524396Y-76626453D01*
X57526354Y-76606570D01*
X57528781Y-76598570D01*
X57531440Y-76589803D01*
X57539352Y-76575000D01*
X58516319Y-76575000D01*
X58517280Y-76584755D01*
X58518472Y-76589516D01*
X58518558Y-76589799D01*
X58518560Y-76589803D01*
X58523645Y-76606566D01*
X58523645Y-76606569D01*
X58523646Y-76606571D01*
X58525604Y-76626453D01*
X58525604Y-76631335D01*
X58526565Y-76641090D01*
X58529410Y-76650469D01*
X58534031Y-76659114D01*
X58540249Y-76666690D01*
X58547825Y-76672908D01*
X58556470Y-76677529D01*
X58565849Y-76680374D01*
X58575604Y-76681335D01*
X58585359Y-76680374D01*
X58594738Y-76677529D01*
X58603383Y-76672908D01*
X58614252Y-76663057D01*
X58636252Y-76636252D01*
X58663795Y-76613647D01*
X58670722Y-76606720D01*
X58676167Y-76598570D01*
X58679918Y-76589514D01*
X58681830Y-76579901D01*
X58681830Y-76575000D01*
X61317929Y-76575000D01*
X61318890Y-76584755D01*
X61321735Y-76594134D01*
X61326356Y-76602779D01*
X61336206Y-76613648D01*
X61363748Y-76636252D01*
X61386353Y-76663795D01*
X61393280Y-76670722D01*
X61401430Y-76676167D01*
X61410486Y-76679918D01*
X61420099Y-76681830D01*
X61429901Y-76681830D01*
X61439514Y-76679918D01*
X61448570Y-76676167D01*
X61456720Y-76670722D01*
X61463651Y-76663791D01*
X61469096Y-76655641D01*
X61472847Y-76646585D01*
X61475000Y-76632071D01*
X61475000Y-76575000D01*
X61474039Y-76565245D01*
X61471194Y-76555866D01*
X61466573Y-76547221D01*
X61460355Y-76539645D01*
X61452779Y-76533427D01*
X61444134Y-76528806D01*
X61434755Y-76525961D01*
X61425000Y-76525000D01*
X61367929Y-76525000D01*
X61358174Y-76525961D01*
X61348795Y-76528806D01*
X61340150Y-76533427D01*
X61332574Y-76539645D01*
X61326356Y-76547221D01*
X61321735Y-76555866D01*
X61318890Y-76565245D01*
X61317929Y-76575000D01*
X58681830Y-76575000D01*
X58681830Y-76570099D01*
X58679918Y-76560486D01*
X58676167Y-76551430D01*
X58670722Y-76543280D01*
X58663791Y-76536349D01*
X58655641Y-76530904D01*
X58646585Y-76527153D01*
X58632071Y-76525000D01*
X58566319Y-76525000D01*
X58556564Y-76525961D01*
X58547185Y-76528806D01*
X58538540Y-76533427D01*
X58530964Y-76539645D01*
X58524746Y-76547221D01*
X58520125Y-76555866D01*
X58517280Y-76565245D01*
X58516319Y-76575000D01*
X57539352Y-76575000D01*
X57539698Y-76574353D01*
X57540695Y-76573138D01*
X57550811Y-76560811D01*
X57564352Y-76549699D01*
X57564351Y-76549699D01*
X57564353Y-76549698D01*
X57579803Y-76541440D01*
X57596566Y-76536355D01*
X57596567Y-76536355D01*
X57596570Y-76536354D01*
X57616453Y-76534396D01*
X58433547Y-76534396D01*
X58453429Y-76536354D01*
X58453431Y-76536355D01*
X58453434Y-76536355D01*
X58470197Y-76541440D01*
X58470201Y-76541442D01*
X58470484Y-76541528D01*
X58480098Y-76543440D01*
X58489899Y-76543440D01*
X58499513Y-76541528D01*
X58508569Y-76537778D01*
X58516719Y-76532332D01*
X58523650Y-76525402D01*
X58529095Y-76517252D01*
X58532847Y-76508197D01*
X58534759Y-76498583D01*
X58535000Y-76493681D01*
X58535000Y-75525000D01*
X61465000Y-75525000D01*
X61465000Y-76485000D01*
X61465000Y-76485000D01*
G37*
G36*
X64725000Y-79450000D02*
X63775000Y-79450000D01*
X63775000Y-78550000D01*
X64725000Y-78550000D01*
X64725000Y-79450000D01*
X64725000Y-79450000D01*
G37*
G36*
X66225000Y-79450000D02*
X65275000Y-79450000D01*
X65275000Y-78550000D01*
X66225000Y-78550000D01*
X66225000Y-79450000D01*
X66225000Y-79450000D01*
G37*
G36*
X84725000Y-79450000D02*
X83775000Y-79450000D01*
X83775000Y-78550000D01*
X84725000Y-78550000D01*
X84725000Y-79450000D01*
X84725000Y-79450000D01*
G37*
G36*
X86225000Y-79450000D02*
X85275000Y-79450000D01*
X85275000Y-78550000D01*
X86225000Y-78550000D01*
X86225000Y-79450000D01*
X86225000Y-79450000D01*
G37*
G36*
X66075000Y-77525000D02*
X65425000Y-77525000D01*
X65425000Y-76475000D01*
X66075000Y-76475000D01*
X66075000Y-77525000D01*
X66075000Y-77525000D01*
G37*
G36*
X84575000Y-77525000D02*
X83925000Y-77525000D01*
X83925000Y-76475000D01*
X84575000Y-76475000D01*
X84575000Y-77525000D01*
X84575000Y-77525000D01*
G37*
G36*
X64575000Y-77525000D02*
X63925000Y-77525000D01*
X63925000Y-76475000D01*
X64575000Y-76475000D01*
X64575000Y-77525000D01*
X64575000Y-77525000D01*
G37*
G36*
X86075000Y-77525000D02*
X85425000Y-77525000D01*
X85425000Y-76475000D01*
X86075000Y-76475000D01*
X86075000Y-77525000D01*
X86075000Y-77525000D01*
G37*
G36*
X57978481Y-73676950D02*
X58001060Y-73683799D01*
X58021871Y-73694923D01*
X58040109Y-73709891D01*
X58055077Y-73728129D01*
X58066201Y-73748940D01*
X58073050Y-73771519D01*
X58075604Y-73797454D01*
X58075604Y-74602546D01*
X58073050Y-74628481D01*
X58066201Y-74651060D01*
X58055077Y-74671871D01*
X58040109Y-74690109D01*
X58021871Y-74705077D01*
X58001060Y-74716201D01*
X57978481Y-74723050D01*
X57952546Y-74725604D01*
X56497454Y-74725604D01*
X56471519Y-74723050D01*
X56448940Y-74716201D01*
X56428129Y-74705077D01*
X56409891Y-74690109D01*
X56394923Y-74671871D01*
X56383799Y-74651060D01*
X56376950Y-74628481D01*
X56374396Y-74602546D01*
X56374396Y-73797454D01*
X56376950Y-73771519D01*
X56383799Y-73748940D01*
X56394923Y-73728129D01*
X56409891Y-73709891D01*
X56428129Y-73694923D01*
X56448940Y-73683799D01*
X56471519Y-73676950D01*
X56497454Y-73674396D01*
X57952546Y-73674396D01*
X57978481Y-73676950D01*
X57978481Y-73676950D01*
G37*
G36*
X53528481Y-73676950D02*
X53551060Y-73683799D01*
X53571871Y-73694923D01*
X53590109Y-73709891D01*
X53605077Y-73728129D01*
X53616201Y-73748940D01*
X53623050Y-73771519D01*
X53625604Y-73797454D01*
X53625604Y-74602546D01*
X53623050Y-74628481D01*
X53616201Y-74651060D01*
X53605077Y-74671871D01*
X53590109Y-74690109D01*
X53571871Y-74705077D01*
X53551060Y-74716201D01*
X53528481Y-74723050D01*
X53502546Y-74725604D01*
X52047454Y-74725604D01*
X52021519Y-74723050D01*
X51998940Y-74716201D01*
X51978129Y-74705077D01*
X51959891Y-74690109D01*
X51944923Y-74671871D01*
X51933799Y-74651060D01*
X51926950Y-74628481D01*
X51924396Y-74602546D01*
X51924396Y-73797454D01*
X51926950Y-73771519D01*
X51933799Y-73748940D01*
X51944923Y-73728129D01*
X51959891Y-73709891D01*
X51978129Y-73694923D01*
X51998940Y-73683799D01*
X52021519Y-73676950D01*
X52047454Y-73674396D01*
X53502546Y-73674396D01*
X53528481Y-73676950D01*
X53528481Y-73676950D01*
G37*
G36*
X63528481Y-73676950D02*
X63551060Y-73683799D01*
X63571871Y-73694923D01*
X63590109Y-73709891D01*
X63605077Y-73728129D01*
X63616201Y-73748940D01*
X63623050Y-73771519D01*
X63625604Y-73797454D01*
X63625604Y-74602546D01*
X63623050Y-74628481D01*
X63616201Y-74651060D01*
X63605077Y-74671871D01*
X63590109Y-74690109D01*
X63571871Y-74705077D01*
X63551060Y-74716201D01*
X63528481Y-74723050D01*
X63502546Y-74725604D01*
X62047454Y-74725604D01*
X62021519Y-74723050D01*
X61998940Y-74716201D01*
X61978129Y-74705077D01*
X61959891Y-74690109D01*
X61944923Y-74671871D01*
X61933799Y-74651060D01*
X61926950Y-74628481D01*
X61924396Y-74602546D01*
X61924396Y-73797454D01*
X61926950Y-73771519D01*
X61933799Y-73748940D01*
X61944923Y-73728129D01*
X61959891Y-73709891D01*
X61978129Y-73694923D01*
X61998940Y-73683799D01*
X62021519Y-73676950D01*
X62047454Y-73674396D01*
X63502546Y-73674396D01*
X63528481Y-73676950D01*
X63528481Y-73676950D01*
G37*
G36*
X67978481Y-73676950D02*
X68001060Y-73683799D01*
X68021871Y-73694923D01*
X68040109Y-73709891D01*
X68055077Y-73728129D01*
X68066201Y-73748940D01*
X68073050Y-73771519D01*
X68075604Y-73797454D01*
X68075604Y-74602546D01*
X68073050Y-74628481D01*
X68066201Y-74651060D01*
X68055077Y-74671871D01*
X68040109Y-74690109D01*
X68021871Y-74705077D01*
X68001060Y-74716201D01*
X67978481Y-74723050D01*
X67952546Y-74725604D01*
X66497454Y-74725604D01*
X66471519Y-74723050D01*
X66448940Y-74716201D01*
X66428129Y-74705077D01*
X66409891Y-74690109D01*
X66394923Y-74671871D01*
X66383799Y-74651060D01*
X66376950Y-74628481D01*
X66374396Y-74602546D01*
X66374396Y-73797454D01*
X66376950Y-73771519D01*
X66383799Y-73748940D01*
X66394923Y-73728129D01*
X66409891Y-73709891D01*
X66428129Y-73694923D01*
X66448940Y-73683799D01*
X66471519Y-73676950D01*
X66497454Y-73674396D01*
X67952546Y-73674396D01*
X67978481Y-73676950D01*
X67978481Y-73676950D01*
G37*
G36*
X73528481Y-73676950D02*
X73551060Y-73683799D01*
X73571871Y-73694923D01*
X73590109Y-73709891D01*
X73605077Y-73728129D01*
X73616201Y-73748940D01*
X73623050Y-73771519D01*
X73625604Y-73797454D01*
X73625604Y-74602546D01*
X73623050Y-74628481D01*
X73616201Y-74651060D01*
X73605077Y-74671871D01*
X73590109Y-74690109D01*
X73571871Y-74705077D01*
X73551060Y-74716201D01*
X73528481Y-74723050D01*
X73502546Y-74725604D01*
X72047454Y-74725604D01*
X72021519Y-74723050D01*
X71998940Y-74716201D01*
X71978129Y-74705077D01*
X71959891Y-74690109D01*
X71944923Y-74671871D01*
X71933799Y-74651060D01*
X71926950Y-74628481D01*
X71924396Y-74602546D01*
X71924396Y-73797454D01*
X71926950Y-73771519D01*
X71933799Y-73748940D01*
X71944923Y-73728129D01*
X71959891Y-73709891D01*
X71978129Y-73694923D01*
X71998940Y-73683799D01*
X72021519Y-73676950D01*
X72047454Y-73674396D01*
X73502546Y-73674396D01*
X73528481Y-73676950D01*
X73528481Y-73676950D01*
G37*
G36*
X77978481Y-73676950D02*
X78001060Y-73683799D01*
X78021871Y-73694923D01*
X78040109Y-73709891D01*
X78055077Y-73728129D01*
X78066201Y-73748940D01*
X78073050Y-73771519D01*
X78075604Y-73797454D01*
X78075604Y-74602546D01*
X78073050Y-74628481D01*
X78066201Y-74651060D01*
X78055077Y-74671871D01*
X78040109Y-74690109D01*
X78021871Y-74705077D01*
X78001060Y-74716201D01*
X77978481Y-74723050D01*
X77952546Y-74725604D01*
X76497454Y-74725604D01*
X76471519Y-74723050D01*
X76448940Y-74716201D01*
X76428129Y-74705077D01*
X76409891Y-74690109D01*
X76394923Y-74671871D01*
X76383799Y-74651060D01*
X76376950Y-74628481D01*
X76374396Y-74602546D01*
X76374396Y-73797454D01*
X76376950Y-73771519D01*
X76383799Y-73748940D01*
X76394923Y-73728129D01*
X76409891Y-73709891D01*
X76428129Y-73694923D01*
X76448940Y-73683799D01*
X76471519Y-73676950D01*
X76497454Y-73674396D01*
X77952546Y-73674396D01*
X77978481Y-73676950D01*
X77978481Y-73676950D01*
G37*
G36*
X87978481Y-73676950D02*
X88001060Y-73683799D01*
X88021871Y-73694923D01*
X88040109Y-73709891D01*
X88055077Y-73728129D01*
X88066201Y-73748940D01*
X88073050Y-73771519D01*
X88075604Y-73797454D01*
X88075604Y-74602546D01*
X88073050Y-74628481D01*
X88066201Y-74651060D01*
X88055077Y-74671871D01*
X88040109Y-74690109D01*
X88021871Y-74705077D01*
X88001060Y-74716201D01*
X87978481Y-74723050D01*
X87952546Y-74725604D01*
X86497454Y-74725604D01*
X86471519Y-74723050D01*
X86448940Y-74716201D01*
X86428129Y-74705077D01*
X86409891Y-74690109D01*
X86394923Y-74671871D01*
X86383799Y-74651060D01*
X86376950Y-74628481D01*
X86374396Y-74602546D01*
X86374396Y-73797454D01*
X86376950Y-73771519D01*
X86383799Y-73748940D01*
X86394923Y-73728129D01*
X86409891Y-73709891D01*
X86428129Y-73694923D01*
X86448940Y-73683799D01*
X86471519Y-73676950D01*
X86497454Y-73674396D01*
X87952546Y-73674396D01*
X87978481Y-73676950D01*
X87978481Y-73676950D01*
G37*
G36*
X83528481Y-73676950D02*
X83551060Y-73683799D01*
X83571871Y-73694923D01*
X83590109Y-73709891D01*
X83605077Y-73728129D01*
X83616201Y-73748940D01*
X83623050Y-73771519D01*
X83625604Y-73797454D01*
X83625604Y-74602546D01*
X83623050Y-74628481D01*
X83616201Y-74651060D01*
X83605077Y-74671871D01*
X83590109Y-74690109D01*
X83571871Y-74705077D01*
X83551060Y-74716201D01*
X83528481Y-74723050D01*
X83502546Y-74725604D01*
X82047454Y-74725604D01*
X82021519Y-74723050D01*
X81998940Y-74716201D01*
X81978129Y-74705077D01*
X81959891Y-74690109D01*
X81944923Y-74671871D01*
X81933799Y-74651060D01*
X81926950Y-74628481D01*
X81924396Y-74602546D01*
X81924396Y-73797454D01*
X81926950Y-73771519D01*
X81933799Y-73748940D01*
X81944923Y-73728129D01*
X81959891Y-73709891D01*
X81978129Y-73694923D01*
X81998940Y-73683799D01*
X82021519Y-73676950D01*
X82047454Y-73674396D01*
X83502546Y-73674396D01*
X83528481Y-73676950D01*
X83528481Y-73676950D01*
G37*
G36*
X83528481Y-72476950D02*
X83551060Y-72483799D01*
X83571871Y-72494923D01*
X83590109Y-72509891D01*
X83605077Y-72528129D01*
X83616201Y-72548940D01*
X83623050Y-72571519D01*
X83625604Y-72597454D01*
X83625604Y-73402546D01*
X83623050Y-73428481D01*
X83616201Y-73451060D01*
X83605077Y-73471871D01*
X83590109Y-73490109D01*
X83571871Y-73505077D01*
X83551060Y-73516201D01*
X83528481Y-73523050D01*
X83502546Y-73525604D01*
X82047454Y-73525604D01*
X82021519Y-73523050D01*
X81998940Y-73516201D01*
X81978129Y-73505077D01*
X81959891Y-73490109D01*
X81944923Y-73471871D01*
X81933799Y-73451060D01*
X81926950Y-73428481D01*
X81924396Y-73402546D01*
X81924396Y-72597454D01*
X81926950Y-72571519D01*
X81933799Y-72548940D01*
X81944923Y-72528129D01*
X81959891Y-72509891D01*
X81978129Y-72494923D01*
X81998940Y-72483799D01*
X82021519Y-72476950D01*
X82047454Y-72474396D01*
X83502546Y-72474396D01*
X83528481Y-72476950D01*
X83528481Y-72476950D01*
G37*
G36*
X77978481Y-72476950D02*
X78001060Y-72483799D01*
X78021871Y-72494923D01*
X78040109Y-72509891D01*
X78055077Y-72528129D01*
X78066201Y-72548940D01*
X78073050Y-72571519D01*
X78075604Y-72597454D01*
X78075604Y-73402546D01*
X78073050Y-73428481D01*
X78066201Y-73451060D01*
X78055077Y-73471871D01*
X78040109Y-73490109D01*
X78021871Y-73505077D01*
X78001060Y-73516201D01*
X77978481Y-73523050D01*
X77952546Y-73525604D01*
X76497454Y-73525604D01*
X76471519Y-73523050D01*
X76448940Y-73516201D01*
X76428129Y-73505077D01*
X76409891Y-73490109D01*
X76394923Y-73471871D01*
X76383799Y-73451060D01*
X76376950Y-73428481D01*
X76374396Y-73402546D01*
X76374396Y-72597454D01*
X76376950Y-72571519D01*
X76383799Y-72548940D01*
X76394923Y-72528129D01*
X76409891Y-72509891D01*
X76428129Y-72494923D01*
X76448940Y-72483799D01*
X76471519Y-72476950D01*
X76497454Y-72474396D01*
X77952546Y-72474396D01*
X77978481Y-72476950D01*
X77978481Y-72476950D01*
G37*
G36*
X73528481Y-72476950D02*
X73551060Y-72483799D01*
X73571871Y-72494923D01*
X73590109Y-72509891D01*
X73605077Y-72528129D01*
X73616201Y-72548940D01*
X73623050Y-72571519D01*
X73625604Y-72597454D01*
X73625604Y-73402546D01*
X73623050Y-73428481D01*
X73616201Y-73451060D01*
X73605077Y-73471871D01*
X73590109Y-73490109D01*
X73571871Y-73505077D01*
X73551060Y-73516201D01*
X73528481Y-73523050D01*
X73502546Y-73525604D01*
X72047454Y-73525604D01*
X72021519Y-73523050D01*
X71998940Y-73516201D01*
X71978129Y-73505077D01*
X71959891Y-73490109D01*
X71944923Y-73471871D01*
X71933799Y-73451060D01*
X71926950Y-73428481D01*
X71924396Y-73402546D01*
X71924396Y-72597454D01*
X71926950Y-72571519D01*
X71933799Y-72548940D01*
X71944923Y-72528129D01*
X71959891Y-72509891D01*
X71978129Y-72494923D01*
X71998940Y-72483799D01*
X72021519Y-72476950D01*
X72047454Y-72474396D01*
X73502546Y-72474396D01*
X73528481Y-72476950D01*
X73528481Y-72476950D01*
G37*
G36*
X67978481Y-72476950D02*
X68001060Y-72483799D01*
X68021871Y-72494923D01*
X68040109Y-72509891D01*
X68055077Y-72528129D01*
X68066201Y-72548940D01*
X68073050Y-72571519D01*
X68075604Y-72597454D01*
X68075604Y-73402546D01*
X68073050Y-73428481D01*
X68066201Y-73451060D01*
X68055077Y-73471871D01*
X68040109Y-73490109D01*
X68021871Y-73505077D01*
X68001060Y-73516201D01*
X67978481Y-73523050D01*
X67952546Y-73525604D01*
X66497454Y-73525604D01*
X66471519Y-73523050D01*
X66448940Y-73516201D01*
X66428129Y-73505077D01*
X66409891Y-73490109D01*
X66394923Y-73471871D01*
X66383799Y-73451060D01*
X66376950Y-73428481D01*
X66374396Y-73402546D01*
X66374396Y-72597454D01*
X66376950Y-72571519D01*
X66383799Y-72548940D01*
X66394923Y-72528129D01*
X66409891Y-72509891D01*
X66428129Y-72494923D01*
X66448940Y-72483799D01*
X66471519Y-72476950D01*
X66497454Y-72474396D01*
X67952546Y-72474396D01*
X67978481Y-72476950D01*
X67978481Y-72476950D01*
G37*
G36*
X63528481Y-72476950D02*
X63551060Y-72483799D01*
X63571871Y-72494923D01*
X63590109Y-72509891D01*
X63605077Y-72528129D01*
X63616201Y-72548940D01*
X63623050Y-72571519D01*
X63625604Y-72597454D01*
X63625604Y-73402546D01*
X63623050Y-73428481D01*
X63616201Y-73451060D01*
X63605077Y-73471871D01*
X63590109Y-73490109D01*
X63571871Y-73505077D01*
X63551060Y-73516201D01*
X63528481Y-73523050D01*
X63502546Y-73525604D01*
X62047454Y-73525604D01*
X62021519Y-73523050D01*
X61998940Y-73516201D01*
X61978129Y-73505077D01*
X61959891Y-73490109D01*
X61944923Y-73471871D01*
X61933799Y-73451060D01*
X61926950Y-73428481D01*
X61924396Y-73402546D01*
X61924396Y-72597454D01*
X61926950Y-72571519D01*
X61933799Y-72548940D01*
X61944923Y-72528129D01*
X61959891Y-72509891D01*
X61978129Y-72494923D01*
X61998940Y-72483799D01*
X62021519Y-72476950D01*
X62047454Y-72474396D01*
X63502546Y-72474396D01*
X63528481Y-72476950D01*
X63528481Y-72476950D01*
G37*
G36*
X57978481Y-72476950D02*
X58001060Y-72483799D01*
X58021871Y-72494923D01*
X58040109Y-72509891D01*
X58055077Y-72528129D01*
X58066201Y-72548940D01*
X58073050Y-72571519D01*
X58075604Y-72597454D01*
X58075604Y-73402546D01*
X58073050Y-73428481D01*
X58066201Y-73451060D01*
X58055077Y-73471871D01*
X58040109Y-73490109D01*
X58021871Y-73505077D01*
X58001060Y-73516201D01*
X57978481Y-73523050D01*
X57952546Y-73525604D01*
X56497454Y-73525604D01*
X56471519Y-73523050D01*
X56448940Y-73516201D01*
X56428129Y-73505077D01*
X56409891Y-73490109D01*
X56394923Y-73471871D01*
X56383799Y-73451060D01*
X56376950Y-73428481D01*
X56374396Y-73402546D01*
X56374396Y-72597454D01*
X56376950Y-72571519D01*
X56383799Y-72548940D01*
X56394923Y-72528129D01*
X56409891Y-72509891D01*
X56428129Y-72494923D01*
X56448940Y-72483799D01*
X56471519Y-72476950D01*
X56497454Y-72474396D01*
X57952546Y-72474396D01*
X57978481Y-72476950D01*
X57978481Y-72476950D01*
G37*
G36*
X53528481Y-72476950D02*
X53551060Y-72483799D01*
X53571871Y-72494923D01*
X53590109Y-72509891D01*
X53605077Y-72528129D01*
X53616201Y-72548940D01*
X53623050Y-72571519D01*
X53625604Y-72597454D01*
X53625604Y-73402546D01*
X53623050Y-73428481D01*
X53616201Y-73451060D01*
X53605077Y-73471871D01*
X53590109Y-73490109D01*
X53571871Y-73505077D01*
X53551060Y-73516201D01*
X53528481Y-73523050D01*
X53502546Y-73525604D01*
X52047454Y-73525604D01*
X52021519Y-73523050D01*
X51998940Y-73516201D01*
X51978129Y-73505077D01*
X51959891Y-73490109D01*
X51944923Y-73471871D01*
X51933799Y-73451060D01*
X51926950Y-73428481D01*
X51924396Y-73402546D01*
X51924396Y-72597454D01*
X51926950Y-72571519D01*
X51933799Y-72548940D01*
X51944923Y-72528129D01*
X51959891Y-72509891D01*
X51978129Y-72494923D01*
X51998940Y-72483799D01*
X52021519Y-72476950D01*
X52047454Y-72474396D01*
X53502546Y-72474396D01*
X53528481Y-72476950D01*
X53528481Y-72476950D01*
G37*
G36*
X87978481Y-72476950D02*
X88001060Y-72483799D01*
X88021871Y-72494923D01*
X88040109Y-72509891D01*
X88055077Y-72528129D01*
X88066201Y-72548940D01*
X88073050Y-72571519D01*
X88075604Y-72597454D01*
X88075604Y-73402546D01*
X88073050Y-73428481D01*
X88066201Y-73451060D01*
X88055077Y-73471871D01*
X88040109Y-73490109D01*
X88021871Y-73505077D01*
X88001060Y-73516201D01*
X87978481Y-73523050D01*
X87952546Y-73525604D01*
X86497454Y-73525604D01*
X86471519Y-73523050D01*
X86448940Y-73516201D01*
X86428129Y-73505077D01*
X86409891Y-73490109D01*
X86394923Y-73471871D01*
X86383799Y-73451060D01*
X86376950Y-73428481D01*
X86374396Y-73402546D01*
X86374396Y-72597454D01*
X86376950Y-72571519D01*
X86383799Y-72548940D01*
X86394923Y-72528129D01*
X86409891Y-72509891D01*
X86428129Y-72494923D01*
X86448940Y-72483799D01*
X86471519Y-72476950D01*
X86497454Y-72474396D01*
X87952546Y-72474396D01*
X87978481Y-72476950D01*
X87978481Y-72476950D01*
G37*
G36*
X53528481Y-71276950D02*
X53551060Y-71283799D01*
X53571871Y-71294923D01*
X53590109Y-71309891D01*
X53605077Y-71328129D01*
X53616201Y-71348940D01*
X53623050Y-71371519D01*
X53625604Y-71397454D01*
X53625604Y-72202546D01*
X53623050Y-72228481D01*
X53616201Y-72251060D01*
X53605077Y-72271871D01*
X53590109Y-72290109D01*
X53571871Y-72305077D01*
X53551060Y-72316201D01*
X53528481Y-72323050D01*
X53502546Y-72325604D01*
X52047454Y-72325604D01*
X52021519Y-72323050D01*
X51998940Y-72316201D01*
X51978129Y-72305077D01*
X51959891Y-72290109D01*
X51944923Y-72271871D01*
X51933799Y-72251060D01*
X51926950Y-72228481D01*
X51924396Y-72202546D01*
X51924396Y-71397454D01*
X51926950Y-71371519D01*
X51933799Y-71348940D01*
X51944923Y-71328129D01*
X51959891Y-71309891D01*
X51978129Y-71294923D01*
X51998940Y-71283799D01*
X52021519Y-71276950D01*
X52047454Y-71274396D01*
X53502546Y-71274396D01*
X53528481Y-71276950D01*
X53528481Y-71276950D01*
G37*
G36*
X57978481Y-71276950D02*
X58001060Y-71283799D01*
X58021871Y-71294923D01*
X58040109Y-71309891D01*
X58055077Y-71328129D01*
X58066201Y-71348940D01*
X58073050Y-71371519D01*
X58075604Y-71397454D01*
X58075604Y-72202546D01*
X58073050Y-72228481D01*
X58066201Y-72251060D01*
X58055077Y-72271871D01*
X58040109Y-72290109D01*
X58021871Y-72305077D01*
X58001060Y-72316201D01*
X57978481Y-72323050D01*
X57952546Y-72325604D01*
X56497454Y-72325604D01*
X56471519Y-72323050D01*
X56448940Y-72316201D01*
X56428129Y-72305077D01*
X56409891Y-72290109D01*
X56394923Y-72271871D01*
X56383799Y-72251060D01*
X56376950Y-72228481D01*
X56374396Y-72202546D01*
X56374396Y-71397454D01*
X56376950Y-71371519D01*
X56383799Y-71348940D01*
X56394923Y-71328129D01*
X56409891Y-71309891D01*
X56428129Y-71294923D01*
X56448940Y-71283799D01*
X56471519Y-71276950D01*
X56497454Y-71274396D01*
X57952546Y-71274396D01*
X57978481Y-71276950D01*
X57978481Y-71276950D01*
G37*
G36*
X63528481Y-71276950D02*
X63551060Y-71283799D01*
X63571871Y-71294923D01*
X63590109Y-71309891D01*
X63605077Y-71328129D01*
X63616201Y-71348940D01*
X63623050Y-71371519D01*
X63625604Y-71397454D01*
X63625604Y-72202546D01*
X63623050Y-72228481D01*
X63616201Y-72251060D01*
X63605077Y-72271871D01*
X63590109Y-72290109D01*
X63571871Y-72305077D01*
X63551060Y-72316201D01*
X63528481Y-72323050D01*
X63502546Y-72325604D01*
X62047454Y-72325604D01*
X62021519Y-72323050D01*
X61998940Y-72316201D01*
X61978129Y-72305077D01*
X61959891Y-72290109D01*
X61944923Y-72271871D01*
X61933799Y-72251060D01*
X61926950Y-72228481D01*
X61924396Y-72202546D01*
X61924396Y-71397454D01*
X61926950Y-71371519D01*
X61933799Y-71348940D01*
X61944923Y-71328129D01*
X61959891Y-71309891D01*
X61978129Y-71294923D01*
X61998940Y-71283799D01*
X62021519Y-71276950D01*
X62047454Y-71274396D01*
X63502546Y-71274396D01*
X63528481Y-71276950D01*
X63528481Y-71276950D01*
G37*
G36*
X67978481Y-71276950D02*
X68001060Y-71283799D01*
X68021871Y-71294923D01*
X68040109Y-71309891D01*
X68055077Y-71328129D01*
X68066201Y-71348940D01*
X68073050Y-71371519D01*
X68075604Y-71397454D01*
X68075604Y-72202546D01*
X68073050Y-72228481D01*
X68066201Y-72251060D01*
X68055077Y-72271871D01*
X68040109Y-72290109D01*
X68021871Y-72305077D01*
X68001060Y-72316201D01*
X67978481Y-72323050D01*
X67952546Y-72325604D01*
X66497454Y-72325604D01*
X66471519Y-72323050D01*
X66448940Y-72316201D01*
X66428129Y-72305077D01*
X66409891Y-72290109D01*
X66394923Y-72271871D01*
X66383799Y-72251060D01*
X66376950Y-72228481D01*
X66374396Y-72202546D01*
X66374396Y-71397454D01*
X66376950Y-71371519D01*
X66383799Y-71348940D01*
X66394923Y-71328129D01*
X66409891Y-71309891D01*
X66428129Y-71294923D01*
X66448940Y-71283799D01*
X66471519Y-71276950D01*
X66497454Y-71274396D01*
X67952546Y-71274396D01*
X67978481Y-71276950D01*
X67978481Y-71276950D01*
G37*
G36*
X77978481Y-71276950D02*
X78001060Y-71283799D01*
X78021871Y-71294923D01*
X78040109Y-71309891D01*
X78055077Y-71328129D01*
X78066201Y-71348940D01*
X78073050Y-71371519D01*
X78075604Y-71397454D01*
X78075604Y-72202546D01*
X78073050Y-72228481D01*
X78066201Y-72251060D01*
X78055077Y-72271871D01*
X78040109Y-72290109D01*
X78021871Y-72305077D01*
X78001060Y-72316201D01*
X77978481Y-72323050D01*
X77952546Y-72325604D01*
X76497454Y-72325604D01*
X76471519Y-72323050D01*
X76448940Y-72316201D01*
X76428129Y-72305077D01*
X76409891Y-72290109D01*
X76394923Y-72271871D01*
X76383799Y-72251060D01*
X76376950Y-72228481D01*
X76374396Y-72202546D01*
X76374396Y-71397454D01*
X76376950Y-71371519D01*
X76383799Y-71348940D01*
X76394923Y-71328129D01*
X76409891Y-71309891D01*
X76428129Y-71294923D01*
X76448940Y-71283799D01*
X76471519Y-71276950D01*
X76497454Y-71274396D01*
X77952546Y-71274396D01*
X77978481Y-71276950D01*
X77978481Y-71276950D01*
G37*
G36*
X73528481Y-71276950D02*
X73551060Y-71283799D01*
X73571871Y-71294923D01*
X73590109Y-71309891D01*
X73605077Y-71328129D01*
X73616201Y-71348940D01*
X73623050Y-71371519D01*
X73625604Y-71397454D01*
X73625604Y-72202546D01*
X73623050Y-72228481D01*
X73616201Y-72251060D01*
X73605077Y-72271871D01*
X73590109Y-72290109D01*
X73571871Y-72305077D01*
X73551060Y-72316201D01*
X73528481Y-72323050D01*
X73502546Y-72325604D01*
X72047454Y-72325604D01*
X72021519Y-72323050D01*
X71998940Y-72316201D01*
X71978129Y-72305077D01*
X71959891Y-72290109D01*
X71944923Y-72271871D01*
X71933799Y-72251060D01*
X71926950Y-72228481D01*
X71924396Y-72202546D01*
X71924396Y-71397454D01*
X71926950Y-71371519D01*
X71933799Y-71348940D01*
X71944923Y-71328129D01*
X71959891Y-71309891D01*
X71978129Y-71294923D01*
X71998940Y-71283799D01*
X72021519Y-71276950D01*
X72047454Y-71274396D01*
X73502546Y-71274396D01*
X73528481Y-71276950D01*
X73528481Y-71276950D01*
G37*
G36*
X87978481Y-71276950D02*
X88001060Y-71283799D01*
X88021871Y-71294923D01*
X88040109Y-71309891D01*
X88055077Y-71328129D01*
X88066201Y-71348940D01*
X88073050Y-71371519D01*
X88075604Y-71397454D01*
X88075604Y-72202546D01*
X88073050Y-72228481D01*
X88066201Y-72251060D01*
X88055077Y-72271871D01*
X88040109Y-72290109D01*
X88021871Y-72305077D01*
X88001060Y-72316201D01*
X87978481Y-72323050D01*
X87952546Y-72325604D01*
X86497454Y-72325604D01*
X86471519Y-72323050D01*
X86448940Y-72316201D01*
X86428129Y-72305077D01*
X86409891Y-72290109D01*
X86394923Y-72271871D01*
X86383799Y-72251060D01*
X86376950Y-72228481D01*
X86374396Y-72202546D01*
X86374396Y-71397454D01*
X86376950Y-71371519D01*
X86383799Y-71348940D01*
X86394923Y-71328129D01*
X86409891Y-71309891D01*
X86428129Y-71294923D01*
X86448940Y-71283799D01*
X86471519Y-71276950D01*
X86497454Y-71274396D01*
X87952546Y-71274396D01*
X87978481Y-71276950D01*
X87978481Y-71276950D01*
G37*
G36*
X83528481Y-71276950D02*
X83551060Y-71283799D01*
X83571871Y-71294923D01*
X83590109Y-71309891D01*
X83605077Y-71328129D01*
X83616201Y-71348940D01*
X83623050Y-71371519D01*
X83625604Y-71397454D01*
X83625604Y-72202546D01*
X83623050Y-72228481D01*
X83616201Y-72251060D01*
X83605077Y-72271871D01*
X83590109Y-72290109D01*
X83571871Y-72305077D01*
X83551060Y-72316201D01*
X83528481Y-72323050D01*
X83502546Y-72325604D01*
X82047454Y-72325604D01*
X82021519Y-72323050D01*
X81998940Y-72316201D01*
X81978129Y-72305077D01*
X81959891Y-72290109D01*
X81944923Y-72271871D01*
X81933799Y-72251060D01*
X81926950Y-72228481D01*
X81924396Y-72202546D01*
X81924396Y-71397454D01*
X81926950Y-71371519D01*
X81933799Y-71348940D01*
X81944923Y-71328129D01*
X81959891Y-71309891D01*
X81978129Y-71294923D01*
X81998940Y-71283799D01*
X82021519Y-71276950D01*
X82047454Y-71274396D01*
X83502546Y-71274396D01*
X83528481Y-71276950D01*
X83528481Y-71276950D01*
G37*
G36*
X60307225Y-65076946D02*
X60869133Y-65192290D01*
X61397932Y-65414576D01*
X61873487Y-65735342D01*
X62277683Y-66142370D01*
X62595121Y-66620151D01*
X62813710Y-67150489D01*
X62925060Y-67712845D01*
X62925060Y-67712855D01*
X62925126Y-67713189D01*
X62915977Y-68368374D01*
X62915901Y-68368708D01*
X62915901Y-68368720D01*
X62788895Y-68927740D01*
X62555581Y-69451771D01*
X62224927Y-69920503D01*
X61809521Y-70316088D01*
X61325200Y-70623448D01*
X60790397Y-70830885D01*
X60225491Y-70930493D01*
X59651995Y-70918480D01*
X59091747Y-70795302D01*
X58566105Y-70565654D01*
X58095076Y-70238280D01*
X57696602Y-69825648D01*
X57385868Y-69343484D01*
X57174703Y-68810143D01*
X57071152Y-68245939D01*
X57079162Y-67672374D01*
X57198424Y-67111290D01*
X57424399Y-66584051D01*
X57748477Y-66110748D01*
X58158316Y-65709403D01*
X58638301Y-65395309D01*
X59170155Y-65180427D01*
X59733613Y-65072941D01*
X60307225Y-65076946D01*
X60307225Y-65076946D01*
G37*
G36*
X80307225Y-65076946D02*
X80869133Y-65192290D01*
X81397932Y-65414576D01*
X81873487Y-65735342D01*
X82277683Y-66142370D01*
X82595121Y-66620151D01*
X82813710Y-67150489D01*
X82925060Y-67712845D01*
X82925060Y-67712855D01*
X82925126Y-67713189D01*
X82915977Y-68368374D01*
X82915901Y-68368708D01*
X82915901Y-68368720D01*
X82788895Y-68927740D01*
X82555581Y-69451771D01*
X82224927Y-69920503D01*
X81809521Y-70316088D01*
X81325200Y-70623448D01*
X80790397Y-70830885D01*
X80225491Y-70930493D01*
X79651995Y-70918480D01*
X79091747Y-70795302D01*
X78566105Y-70565654D01*
X78095076Y-70238280D01*
X77696602Y-69825648D01*
X77385868Y-69343484D01*
X77174703Y-68810143D01*
X77071152Y-68245939D01*
X77079162Y-67672374D01*
X77198424Y-67111290D01*
X77424399Y-66584051D01*
X77748477Y-66110748D01*
X78158316Y-65709403D01*
X78638301Y-65395309D01*
X79170155Y-65180427D01*
X79733613Y-65072941D01*
X80307225Y-65076946D01*
X80307225Y-65076946D01*
G37*
G36*
X71225000Y-68450000D02*
X70275000Y-68450000D01*
X70275000Y-67550000D01*
X71225000Y-67550000D01*
X71225000Y-68450000D01*
X71225000Y-68450000D01*
G37*
G36*
X69725000Y-68450000D02*
X68775000Y-68450000D01*
X68775000Y-67550000D01*
X69725000Y-67550000D01*
X69725000Y-68450000D01*
X69725000Y-68450000D01*
G37*
G36*
X63528481Y-63676950D02*
X63551060Y-63683799D01*
X63571871Y-63694923D01*
X63590109Y-63709891D01*
X63605077Y-63728129D01*
X63616201Y-63748940D01*
X63623050Y-63771519D01*
X63625604Y-63797454D01*
X63625604Y-64602546D01*
X63623050Y-64628481D01*
X63616201Y-64651060D01*
X63605077Y-64671871D01*
X63590109Y-64690109D01*
X63571871Y-64705077D01*
X63551060Y-64716201D01*
X63528481Y-64723050D01*
X63502546Y-64725604D01*
X62047454Y-64725604D01*
X62021519Y-64723050D01*
X61998940Y-64716201D01*
X61978129Y-64705077D01*
X61959891Y-64690109D01*
X61944923Y-64671871D01*
X61933799Y-64651060D01*
X61926950Y-64628481D01*
X61924396Y-64602546D01*
X61924396Y-63797454D01*
X61926950Y-63771519D01*
X61933799Y-63748940D01*
X61944923Y-63728129D01*
X61959891Y-63709891D01*
X61978129Y-63694923D01*
X61998940Y-63683799D01*
X62021519Y-63676950D01*
X62047454Y-63674396D01*
X63502546Y-63674396D01*
X63528481Y-63676950D01*
X63528481Y-63676950D01*
G37*
G36*
X83528481Y-63676950D02*
X83551060Y-63683799D01*
X83571871Y-63694923D01*
X83590109Y-63709891D01*
X83605077Y-63728129D01*
X83616201Y-63748940D01*
X83623050Y-63771519D01*
X83625604Y-63797454D01*
X83625604Y-64602546D01*
X83623050Y-64628481D01*
X83616201Y-64651060D01*
X83605077Y-64671871D01*
X83590109Y-64690109D01*
X83571871Y-64705077D01*
X83551060Y-64716201D01*
X83528481Y-64723050D01*
X83502546Y-64725604D01*
X82047454Y-64725604D01*
X82021519Y-64723050D01*
X81998940Y-64716201D01*
X81978129Y-64705077D01*
X81959891Y-64690109D01*
X81944923Y-64671871D01*
X81933799Y-64651060D01*
X81926950Y-64628481D01*
X81924396Y-64602546D01*
X81924396Y-63797454D01*
X81926950Y-63771519D01*
X81933799Y-63748940D01*
X81944923Y-63728129D01*
X81959891Y-63709891D01*
X81978129Y-63694923D01*
X81998940Y-63683799D01*
X82021519Y-63676950D01*
X82047454Y-63674396D01*
X83502546Y-63674396D01*
X83528481Y-63676950D01*
X83528481Y-63676950D01*
G37*
G36*
X77978481Y-63676950D02*
X78001060Y-63683799D01*
X78021871Y-63694923D01*
X78040109Y-63709891D01*
X78055077Y-63728129D01*
X78066201Y-63748940D01*
X78073050Y-63771519D01*
X78075604Y-63797454D01*
X78075604Y-64602546D01*
X78073050Y-64628481D01*
X78066201Y-64651060D01*
X78055077Y-64671871D01*
X78040109Y-64690109D01*
X78021871Y-64705077D01*
X78001060Y-64716201D01*
X77978481Y-64723050D01*
X77952546Y-64725604D01*
X76497454Y-64725604D01*
X76471519Y-64723050D01*
X76448940Y-64716201D01*
X76428129Y-64705077D01*
X76409891Y-64690109D01*
X76394923Y-64671871D01*
X76383799Y-64651060D01*
X76376950Y-64628481D01*
X76374396Y-64602546D01*
X76374396Y-63797454D01*
X76376950Y-63771519D01*
X76383799Y-63748940D01*
X76394923Y-63728129D01*
X76409891Y-63709891D01*
X76428129Y-63694923D01*
X76448940Y-63683799D01*
X76471519Y-63676950D01*
X76497454Y-63674396D01*
X77952546Y-63674396D01*
X77978481Y-63676950D01*
X77978481Y-63676950D01*
G37*
G36*
X73528481Y-63676950D02*
X73551060Y-63683799D01*
X73571871Y-63694923D01*
X73590109Y-63709891D01*
X73605077Y-63728129D01*
X73616201Y-63748940D01*
X73623050Y-63771519D01*
X73625604Y-63797454D01*
X73625604Y-64602546D01*
X73623050Y-64628481D01*
X73616201Y-64651060D01*
X73605077Y-64671871D01*
X73590109Y-64690109D01*
X73571871Y-64705077D01*
X73551060Y-64716201D01*
X73528481Y-64723050D01*
X73502546Y-64725604D01*
X72047454Y-64725604D01*
X72021519Y-64723050D01*
X71998940Y-64716201D01*
X71978129Y-64705077D01*
X71959891Y-64690109D01*
X71944923Y-64671871D01*
X71933799Y-64651060D01*
X71926950Y-64628481D01*
X71924396Y-64602546D01*
X71924396Y-63797454D01*
X71926950Y-63771519D01*
X71933799Y-63748940D01*
X71944923Y-63728129D01*
X71959891Y-63709891D01*
X71978129Y-63694923D01*
X71998940Y-63683799D01*
X72021519Y-63676950D01*
X72047454Y-63674396D01*
X73502546Y-63674396D01*
X73528481Y-63676950D01*
X73528481Y-63676950D01*
G37*
G36*
X67978481Y-63676950D02*
X68001060Y-63683799D01*
X68021871Y-63694923D01*
X68040109Y-63709891D01*
X68055077Y-63728129D01*
X68066201Y-63748940D01*
X68073050Y-63771519D01*
X68075604Y-63797454D01*
X68075604Y-64602546D01*
X68073050Y-64628481D01*
X68066201Y-64651060D01*
X68055077Y-64671871D01*
X68040109Y-64690109D01*
X68021871Y-64705077D01*
X68001060Y-64716201D01*
X67978481Y-64723050D01*
X67952546Y-64725604D01*
X66497454Y-64725604D01*
X66471519Y-64723050D01*
X66448940Y-64716201D01*
X66428129Y-64705077D01*
X66409891Y-64690109D01*
X66394923Y-64671871D01*
X66383799Y-64651060D01*
X66376950Y-64628481D01*
X66374396Y-64602546D01*
X66374396Y-63797454D01*
X66376950Y-63771519D01*
X66383799Y-63748940D01*
X66394923Y-63728129D01*
X66409891Y-63709891D01*
X66428129Y-63694923D01*
X66448940Y-63683799D01*
X66471519Y-63676950D01*
X66497454Y-63674396D01*
X67952546Y-63674396D01*
X67978481Y-63676950D01*
X67978481Y-63676950D01*
G37*
G36*
X57978481Y-63676950D02*
X58001060Y-63683799D01*
X58021871Y-63694923D01*
X58040109Y-63709891D01*
X58055077Y-63728129D01*
X58066201Y-63748940D01*
X58073050Y-63771519D01*
X58075604Y-63797454D01*
X58075604Y-64602546D01*
X58073050Y-64628481D01*
X58066201Y-64651060D01*
X58055077Y-64671871D01*
X58040109Y-64690109D01*
X58021871Y-64705077D01*
X58001060Y-64716201D01*
X57978481Y-64723050D01*
X57952546Y-64725604D01*
X56497454Y-64725604D01*
X56471519Y-64723050D01*
X56448940Y-64716201D01*
X56428129Y-64705077D01*
X56409891Y-64690109D01*
X56394923Y-64671871D01*
X56383799Y-64651060D01*
X56376950Y-64628481D01*
X56374396Y-64602546D01*
X56374396Y-63797454D01*
X56376950Y-63771519D01*
X56383799Y-63748940D01*
X56394923Y-63728129D01*
X56409891Y-63709891D01*
X56428129Y-63694923D01*
X56448940Y-63683799D01*
X56471519Y-63676950D01*
X56497454Y-63674396D01*
X57952546Y-63674396D01*
X57978481Y-63676950D01*
X57978481Y-63676950D01*
G37*
G36*
X53528481Y-63676950D02*
X53551060Y-63683799D01*
X53571871Y-63694923D01*
X53590109Y-63709891D01*
X53605077Y-63728129D01*
X53616201Y-63748940D01*
X53623050Y-63771519D01*
X53625604Y-63797454D01*
X53625604Y-64602546D01*
X53623050Y-64628481D01*
X53616201Y-64651060D01*
X53605077Y-64671871D01*
X53590109Y-64690109D01*
X53571871Y-64705077D01*
X53551060Y-64716201D01*
X53528481Y-64723050D01*
X53502546Y-64725604D01*
X52047454Y-64725604D01*
X52021519Y-64723050D01*
X51998940Y-64716201D01*
X51978129Y-64705077D01*
X51959891Y-64690109D01*
X51944923Y-64671871D01*
X51933799Y-64651060D01*
X51926950Y-64628481D01*
X51924396Y-64602546D01*
X51924396Y-63797454D01*
X51926950Y-63771519D01*
X51933799Y-63748940D01*
X51944923Y-63728129D01*
X51959891Y-63709891D01*
X51978129Y-63694923D01*
X51998940Y-63683799D01*
X52021519Y-63676950D01*
X52047454Y-63674396D01*
X53502546Y-63674396D01*
X53528481Y-63676950D01*
X53528481Y-63676950D01*
G37*
G36*
X87978481Y-63676950D02*
X88001060Y-63683799D01*
X88021871Y-63694923D01*
X88040109Y-63709891D01*
X88055077Y-63728129D01*
X88066201Y-63748940D01*
X88073050Y-63771519D01*
X88075604Y-63797454D01*
X88075604Y-64602546D01*
X88073050Y-64628481D01*
X88066201Y-64651060D01*
X88055077Y-64671871D01*
X88040109Y-64690109D01*
X88021871Y-64705077D01*
X88001060Y-64716201D01*
X87978481Y-64723050D01*
X87952546Y-64725604D01*
X86497454Y-64725604D01*
X86471519Y-64723050D01*
X86448940Y-64716201D01*
X86428129Y-64705077D01*
X86409891Y-64690109D01*
X86394923Y-64671871D01*
X86383799Y-64651060D01*
X86376950Y-64628481D01*
X86374396Y-64602546D01*
X86374396Y-63797454D01*
X86376950Y-63771519D01*
X86383799Y-63748940D01*
X86394923Y-63728129D01*
X86409891Y-63709891D01*
X86428129Y-63694923D01*
X86448940Y-63683799D01*
X86471519Y-63676950D01*
X86497454Y-63674396D01*
X87952546Y-63674396D01*
X87978481Y-63676950D01*
X87978481Y-63676950D01*
G37*
G36*
X57978481Y-62476950D02*
X58001060Y-62483799D01*
X58021871Y-62494923D01*
X58040109Y-62509891D01*
X58055077Y-62528129D01*
X58066201Y-62548940D01*
X58073050Y-62571519D01*
X58075604Y-62597454D01*
X58075604Y-63402546D01*
X58073050Y-63428481D01*
X58066201Y-63451060D01*
X58055077Y-63471871D01*
X58040109Y-63490109D01*
X58021871Y-63505077D01*
X58001060Y-63516201D01*
X57978481Y-63523050D01*
X57952546Y-63525604D01*
X56497454Y-63525604D01*
X56471519Y-63523050D01*
X56448940Y-63516201D01*
X56428129Y-63505077D01*
X56409891Y-63490109D01*
X56394923Y-63471871D01*
X56383799Y-63451060D01*
X56376950Y-63428481D01*
X56374396Y-63402546D01*
X56374396Y-62597454D01*
X56376950Y-62571519D01*
X56383799Y-62548940D01*
X56394923Y-62528129D01*
X56409891Y-62509891D01*
X56428129Y-62494923D01*
X56448940Y-62483799D01*
X56471519Y-62476950D01*
X56497454Y-62474396D01*
X57952546Y-62474396D01*
X57978481Y-62476950D01*
X57978481Y-62476950D01*
G37*
G36*
X83528481Y-62476950D02*
X83551060Y-62483799D01*
X83571871Y-62494923D01*
X83590109Y-62509891D01*
X83605077Y-62528129D01*
X83616201Y-62548940D01*
X83623050Y-62571519D01*
X83625604Y-62597454D01*
X83625604Y-63402546D01*
X83623050Y-63428481D01*
X83616201Y-63451060D01*
X83605077Y-63471871D01*
X83590109Y-63490109D01*
X83571871Y-63505077D01*
X83551060Y-63516201D01*
X83528481Y-63523050D01*
X83502546Y-63525604D01*
X82047454Y-63525604D01*
X82021519Y-63523050D01*
X81998940Y-63516201D01*
X81978129Y-63505077D01*
X81959891Y-63490109D01*
X81944923Y-63471871D01*
X81933799Y-63451060D01*
X81926950Y-63428481D01*
X81924396Y-63402546D01*
X81924396Y-62597454D01*
X81926950Y-62571519D01*
X81933799Y-62548940D01*
X81944923Y-62528129D01*
X81959891Y-62509891D01*
X81978129Y-62494923D01*
X81998940Y-62483799D01*
X82021519Y-62476950D01*
X82047454Y-62474396D01*
X83502546Y-62474396D01*
X83528481Y-62476950D01*
X83528481Y-62476950D01*
G37*
G36*
X77978481Y-62476950D02*
X78001060Y-62483799D01*
X78021871Y-62494923D01*
X78040109Y-62509891D01*
X78055077Y-62528129D01*
X78066201Y-62548940D01*
X78073050Y-62571519D01*
X78075604Y-62597454D01*
X78075604Y-63402546D01*
X78073050Y-63428481D01*
X78066201Y-63451060D01*
X78055077Y-63471871D01*
X78040109Y-63490109D01*
X78021871Y-63505077D01*
X78001060Y-63516201D01*
X77978481Y-63523050D01*
X77952546Y-63525604D01*
X76497454Y-63525604D01*
X76471519Y-63523050D01*
X76448940Y-63516201D01*
X76428129Y-63505077D01*
X76409891Y-63490109D01*
X76394923Y-63471871D01*
X76383799Y-63451060D01*
X76376950Y-63428481D01*
X76374396Y-63402546D01*
X76374396Y-62597454D01*
X76376950Y-62571519D01*
X76383799Y-62548940D01*
X76394923Y-62528129D01*
X76409891Y-62509891D01*
X76428129Y-62494923D01*
X76448940Y-62483799D01*
X76471519Y-62476950D01*
X76497454Y-62474396D01*
X77952546Y-62474396D01*
X77978481Y-62476950D01*
X77978481Y-62476950D01*
G37*
G36*
X73528481Y-62476950D02*
X73551060Y-62483799D01*
X73571871Y-62494923D01*
X73590109Y-62509891D01*
X73605077Y-62528129D01*
X73616201Y-62548940D01*
X73623050Y-62571519D01*
X73625604Y-62597454D01*
X73625604Y-63402546D01*
X73623050Y-63428481D01*
X73616201Y-63451060D01*
X73605077Y-63471871D01*
X73590109Y-63490109D01*
X73571871Y-63505077D01*
X73551060Y-63516201D01*
X73528481Y-63523050D01*
X73502546Y-63525604D01*
X72047454Y-63525604D01*
X72021519Y-63523050D01*
X71998940Y-63516201D01*
X71978129Y-63505077D01*
X71959891Y-63490109D01*
X71944923Y-63471871D01*
X71933799Y-63451060D01*
X71926950Y-63428481D01*
X71924396Y-63402546D01*
X71924396Y-62597454D01*
X71926950Y-62571519D01*
X71933799Y-62548940D01*
X71944923Y-62528129D01*
X71959891Y-62509891D01*
X71978129Y-62494923D01*
X71998940Y-62483799D01*
X72021519Y-62476950D01*
X72047454Y-62474396D01*
X73502546Y-62474396D01*
X73528481Y-62476950D01*
X73528481Y-62476950D01*
G37*
G36*
X67978481Y-62476950D02*
X68001060Y-62483799D01*
X68021871Y-62494923D01*
X68040109Y-62509891D01*
X68055077Y-62528129D01*
X68066201Y-62548940D01*
X68073050Y-62571519D01*
X68075604Y-62597454D01*
X68075604Y-63402546D01*
X68073050Y-63428481D01*
X68066201Y-63451060D01*
X68055077Y-63471871D01*
X68040109Y-63490109D01*
X68021871Y-63505077D01*
X68001060Y-63516201D01*
X67978481Y-63523050D01*
X67952546Y-63525604D01*
X66497454Y-63525604D01*
X66471519Y-63523050D01*
X66448940Y-63516201D01*
X66428129Y-63505077D01*
X66409891Y-63490109D01*
X66394923Y-63471871D01*
X66383799Y-63451060D01*
X66376950Y-63428481D01*
X66374396Y-63402546D01*
X66374396Y-62597454D01*
X66376950Y-62571519D01*
X66383799Y-62548940D01*
X66394923Y-62528129D01*
X66409891Y-62509891D01*
X66428129Y-62494923D01*
X66448940Y-62483799D01*
X66471519Y-62476950D01*
X66497454Y-62474396D01*
X67952546Y-62474396D01*
X67978481Y-62476950D01*
X67978481Y-62476950D01*
G37*
G36*
X63528481Y-62476950D02*
X63551060Y-62483799D01*
X63571871Y-62494923D01*
X63590109Y-62509891D01*
X63605077Y-62528129D01*
X63616201Y-62548940D01*
X63623050Y-62571519D01*
X63625604Y-62597454D01*
X63625604Y-63402546D01*
X63623050Y-63428481D01*
X63616201Y-63451060D01*
X63605077Y-63471871D01*
X63590109Y-63490109D01*
X63571871Y-63505077D01*
X63551060Y-63516201D01*
X63528481Y-63523050D01*
X63502546Y-63525604D01*
X62047454Y-63525604D01*
X62021519Y-63523050D01*
X61998940Y-63516201D01*
X61978129Y-63505077D01*
X61959891Y-63490109D01*
X61944923Y-63471871D01*
X61933799Y-63451060D01*
X61926950Y-63428481D01*
X61924396Y-63402546D01*
X61924396Y-62597454D01*
X61926950Y-62571519D01*
X61933799Y-62548940D01*
X61944923Y-62528129D01*
X61959891Y-62509891D01*
X61978129Y-62494923D01*
X61998940Y-62483799D01*
X62021519Y-62476950D01*
X62047454Y-62474396D01*
X63502546Y-62474396D01*
X63528481Y-62476950D01*
X63528481Y-62476950D01*
G37*
G36*
X53528481Y-62476950D02*
X53551060Y-62483799D01*
X53571871Y-62494923D01*
X53590109Y-62509891D01*
X53605077Y-62528129D01*
X53616201Y-62548940D01*
X53623050Y-62571519D01*
X53625604Y-62597454D01*
X53625604Y-63402546D01*
X53623050Y-63428481D01*
X53616201Y-63451060D01*
X53605077Y-63471871D01*
X53590109Y-63490109D01*
X53571871Y-63505077D01*
X53551060Y-63516201D01*
X53528481Y-63523050D01*
X53502546Y-63525604D01*
X52047454Y-63525604D01*
X52021519Y-63523050D01*
X51998940Y-63516201D01*
X51978129Y-63505077D01*
X51959891Y-63490109D01*
X51944923Y-63471871D01*
X51933799Y-63451060D01*
X51926950Y-63428481D01*
X51924396Y-63402546D01*
X51924396Y-62597454D01*
X51926950Y-62571519D01*
X51933799Y-62548940D01*
X51944923Y-62528129D01*
X51959891Y-62509891D01*
X51978129Y-62494923D01*
X51998940Y-62483799D01*
X52021519Y-62476950D01*
X52047454Y-62474396D01*
X53502546Y-62474396D01*
X53528481Y-62476950D01*
X53528481Y-62476950D01*
G37*
G36*
X87978481Y-62476950D02*
X88001060Y-62483799D01*
X88021871Y-62494923D01*
X88040109Y-62509891D01*
X88055077Y-62528129D01*
X88066201Y-62548940D01*
X88073050Y-62571519D01*
X88075604Y-62597454D01*
X88075604Y-63402546D01*
X88073050Y-63428481D01*
X88066201Y-63451060D01*
X88055077Y-63471871D01*
X88040109Y-63490109D01*
X88021871Y-63505077D01*
X88001060Y-63516201D01*
X87978481Y-63523050D01*
X87952546Y-63525604D01*
X86497454Y-63525604D01*
X86471519Y-63523050D01*
X86448940Y-63516201D01*
X86428129Y-63505077D01*
X86409891Y-63490109D01*
X86394923Y-63471871D01*
X86383799Y-63451060D01*
X86376950Y-63428481D01*
X86374396Y-63402546D01*
X86374396Y-62597454D01*
X86376950Y-62571519D01*
X86383799Y-62548940D01*
X86394923Y-62528129D01*
X86409891Y-62509891D01*
X86428129Y-62494923D01*
X86448940Y-62483799D01*
X86471519Y-62476950D01*
X86497454Y-62474396D01*
X87952546Y-62474396D01*
X87978481Y-62476950D01*
X87978481Y-62476950D01*
G37*
G36*
X53528481Y-61276950D02*
X53551060Y-61283799D01*
X53571871Y-61294923D01*
X53590109Y-61309891D01*
X53605077Y-61328129D01*
X53616201Y-61348940D01*
X53623050Y-61371519D01*
X53625604Y-61397454D01*
X53625604Y-62202546D01*
X53623050Y-62228481D01*
X53616201Y-62251060D01*
X53605077Y-62271871D01*
X53590109Y-62290109D01*
X53571871Y-62305077D01*
X53551060Y-62316201D01*
X53528481Y-62323050D01*
X53502546Y-62325604D01*
X52047454Y-62325604D01*
X52021519Y-62323050D01*
X51998940Y-62316201D01*
X51978129Y-62305077D01*
X51959891Y-62290109D01*
X51944923Y-62271871D01*
X51933799Y-62251060D01*
X51926950Y-62228481D01*
X51924396Y-62202546D01*
X51924396Y-61397454D01*
X51926950Y-61371519D01*
X51933799Y-61348940D01*
X51944923Y-61328129D01*
X51959891Y-61309891D01*
X51978129Y-61294923D01*
X51998940Y-61283799D01*
X52021519Y-61276950D01*
X52047454Y-61274396D01*
X53502546Y-61274396D01*
X53528481Y-61276950D01*
X53528481Y-61276950D01*
G37*
G36*
X87978481Y-61276950D02*
X88001060Y-61283799D01*
X88021871Y-61294923D01*
X88040109Y-61309891D01*
X88055077Y-61328129D01*
X88066201Y-61348940D01*
X88073050Y-61371519D01*
X88075604Y-61397454D01*
X88075604Y-62202546D01*
X88073050Y-62228481D01*
X88066201Y-62251060D01*
X88055077Y-62271871D01*
X88040109Y-62290109D01*
X88021871Y-62305077D01*
X88001060Y-62316201D01*
X87978481Y-62323050D01*
X87952546Y-62325604D01*
X86497454Y-62325604D01*
X86471519Y-62323050D01*
X86448940Y-62316201D01*
X86428129Y-62305077D01*
X86409891Y-62290109D01*
X86394923Y-62271871D01*
X86383799Y-62251060D01*
X86376950Y-62228481D01*
X86374396Y-62202546D01*
X86374396Y-61397454D01*
X86376950Y-61371519D01*
X86383799Y-61348940D01*
X86394923Y-61328129D01*
X86409891Y-61309891D01*
X86428129Y-61294923D01*
X86448940Y-61283799D01*
X86471519Y-61276950D01*
X86497454Y-61274396D01*
X87952546Y-61274396D01*
X87978481Y-61276950D01*
X87978481Y-61276950D01*
G37*
G36*
X83528481Y-61276950D02*
X83551060Y-61283799D01*
X83571871Y-61294923D01*
X83590109Y-61309891D01*
X83605077Y-61328129D01*
X83616201Y-61348940D01*
X83623050Y-61371519D01*
X83625604Y-61397454D01*
X83625604Y-62202546D01*
X83623050Y-62228481D01*
X83616201Y-62251060D01*
X83605077Y-62271871D01*
X83590109Y-62290109D01*
X83571871Y-62305077D01*
X83551060Y-62316201D01*
X83528481Y-62323050D01*
X83502546Y-62325604D01*
X82047454Y-62325604D01*
X82021519Y-62323050D01*
X81998940Y-62316201D01*
X81978129Y-62305077D01*
X81959891Y-62290109D01*
X81944923Y-62271871D01*
X81933799Y-62251060D01*
X81926950Y-62228481D01*
X81924396Y-62202546D01*
X81924396Y-61397454D01*
X81926950Y-61371519D01*
X81933799Y-61348940D01*
X81944923Y-61328129D01*
X81959891Y-61309891D01*
X81978129Y-61294923D01*
X81998940Y-61283799D01*
X82021519Y-61276950D01*
X82047454Y-61274396D01*
X83502546Y-61274396D01*
X83528481Y-61276950D01*
X83528481Y-61276950D01*
G37*
G36*
X77978481Y-61276950D02*
X78001060Y-61283799D01*
X78021871Y-61294923D01*
X78040109Y-61309891D01*
X78055077Y-61328129D01*
X78066201Y-61348940D01*
X78073050Y-61371519D01*
X78075604Y-61397454D01*
X78075604Y-62202546D01*
X78073050Y-62228481D01*
X78066201Y-62251060D01*
X78055077Y-62271871D01*
X78040109Y-62290109D01*
X78021871Y-62305077D01*
X78001060Y-62316201D01*
X77978481Y-62323050D01*
X77952546Y-62325604D01*
X76497454Y-62325604D01*
X76471519Y-62323050D01*
X76448940Y-62316201D01*
X76428129Y-62305077D01*
X76409891Y-62290109D01*
X76394923Y-62271871D01*
X76383799Y-62251060D01*
X76376950Y-62228481D01*
X76374396Y-62202546D01*
X76374396Y-61397454D01*
X76376950Y-61371519D01*
X76383799Y-61348940D01*
X76394923Y-61328129D01*
X76409891Y-61309891D01*
X76428129Y-61294923D01*
X76448940Y-61283799D01*
X76471519Y-61276950D01*
X76497454Y-61274396D01*
X77952546Y-61274396D01*
X77978481Y-61276950D01*
X77978481Y-61276950D01*
G37*
G36*
X73528481Y-61276950D02*
X73551060Y-61283799D01*
X73571871Y-61294923D01*
X73590109Y-61309891D01*
X73605077Y-61328129D01*
X73616201Y-61348940D01*
X73623050Y-61371519D01*
X73625604Y-61397454D01*
X73625604Y-62202546D01*
X73623050Y-62228481D01*
X73616201Y-62251060D01*
X73605077Y-62271871D01*
X73590109Y-62290109D01*
X73571871Y-62305077D01*
X73551060Y-62316201D01*
X73528481Y-62323050D01*
X73502546Y-62325604D01*
X72047454Y-62325604D01*
X72021519Y-62323050D01*
X71998940Y-62316201D01*
X71978129Y-62305077D01*
X71959891Y-62290109D01*
X71944923Y-62271871D01*
X71933799Y-62251060D01*
X71926950Y-62228481D01*
X71924396Y-62202546D01*
X71924396Y-61397454D01*
X71926950Y-61371519D01*
X71933799Y-61348940D01*
X71944923Y-61328129D01*
X71959891Y-61309891D01*
X71978129Y-61294923D01*
X71998940Y-61283799D01*
X72021519Y-61276950D01*
X72047454Y-61274396D01*
X73502546Y-61274396D01*
X73528481Y-61276950D01*
X73528481Y-61276950D01*
G37*
G36*
X67978481Y-61276950D02*
X68001060Y-61283799D01*
X68021871Y-61294923D01*
X68040109Y-61309891D01*
X68055077Y-61328129D01*
X68066201Y-61348940D01*
X68073050Y-61371519D01*
X68075604Y-61397454D01*
X68075604Y-62202546D01*
X68073050Y-62228481D01*
X68066201Y-62251060D01*
X68055077Y-62271871D01*
X68040109Y-62290109D01*
X68021871Y-62305077D01*
X68001060Y-62316201D01*
X67978481Y-62323050D01*
X67952546Y-62325604D01*
X66497454Y-62325604D01*
X66471519Y-62323050D01*
X66448940Y-62316201D01*
X66428129Y-62305077D01*
X66409891Y-62290109D01*
X66394923Y-62271871D01*
X66383799Y-62251060D01*
X66376950Y-62228481D01*
X66374396Y-62202546D01*
X66374396Y-61397454D01*
X66376950Y-61371519D01*
X66383799Y-61348940D01*
X66394923Y-61328129D01*
X66409891Y-61309891D01*
X66428129Y-61294923D01*
X66448940Y-61283799D01*
X66471519Y-61276950D01*
X66497454Y-61274396D01*
X67952546Y-61274396D01*
X67978481Y-61276950D01*
X67978481Y-61276950D01*
G37*
G36*
X63528481Y-61276950D02*
X63551060Y-61283799D01*
X63571871Y-61294923D01*
X63590109Y-61309891D01*
X63605077Y-61328129D01*
X63616201Y-61348940D01*
X63623050Y-61371519D01*
X63625604Y-61397454D01*
X63625604Y-62202546D01*
X63623050Y-62228481D01*
X63616201Y-62251060D01*
X63605077Y-62271871D01*
X63590109Y-62290109D01*
X63571871Y-62305077D01*
X63551060Y-62316201D01*
X63528481Y-62323050D01*
X63502546Y-62325604D01*
X62047454Y-62325604D01*
X62021519Y-62323050D01*
X61998940Y-62316201D01*
X61978129Y-62305077D01*
X61959891Y-62290109D01*
X61944923Y-62271871D01*
X61933799Y-62251060D01*
X61926950Y-62228481D01*
X61924396Y-62202546D01*
X61924396Y-61397454D01*
X61926950Y-61371519D01*
X61933799Y-61348940D01*
X61944923Y-61328129D01*
X61959891Y-61309891D01*
X61978129Y-61294923D01*
X61998940Y-61283799D01*
X62021519Y-61276950D01*
X62047454Y-61274396D01*
X63502546Y-61274396D01*
X63528481Y-61276950D01*
X63528481Y-61276950D01*
G37*
G36*
X57978481Y-61276950D02*
X58001060Y-61283799D01*
X58021871Y-61294923D01*
X58040109Y-61309891D01*
X58055077Y-61328129D01*
X58066201Y-61348940D01*
X58073050Y-61371519D01*
X58075604Y-61397454D01*
X58075604Y-62202546D01*
X58073050Y-62228481D01*
X58066201Y-62251060D01*
X58055077Y-62271871D01*
X58040109Y-62290109D01*
X58021871Y-62305077D01*
X58001060Y-62316201D01*
X57978481Y-62323050D01*
X57952546Y-62325604D01*
X56497454Y-62325604D01*
X56471519Y-62323050D01*
X56448940Y-62316201D01*
X56428129Y-62305077D01*
X56409891Y-62290109D01*
X56394923Y-62271871D01*
X56383799Y-62251060D01*
X56376950Y-62228481D01*
X56374396Y-62202546D01*
X56374396Y-61397454D01*
X56376950Y-61371519D01*
X56383799Y-61348940D01*
X56394923Y-61328129D01*
X56409891Y-61309891D01*
X56428129Y-61294923D01*
X56448940Y-61283799D01*
X56471519Y-61276950D01*
X56497454Y-61274396D01*
X57952546Y-61274396D01*
X57978481Y-61276950D01*
X57978481Y-61276950D01*
G37*
G36*
X81465000Y-56485000D02*
X81465961Y-56494755D01*
X81468806Y-56504134D01*
X81473427Y-56512779D01*
X81479645Y-56520355D01*
X81487221Y-56526573D01*
X81495866Y-56531194D01*
X81505245Y-56534039D01*
X81515000Y-56535000D01*
X82475000Y-56535000D01*
X82475000Y-59465000D01*
X81515000Y-59465000D01*
X81505245Y-59465961D01*
X81495866Y-59468806D01*
X81487221Y-59473427D01*
X81479645Y-59479645D01*
X81473427Y-59487221D01*
X81468806Y-59495866D01*
X81465961Y-59505245D01*
X81465000Y-59515000D01*
X81465000Y-60475000D01*
X78535000Y-60475000D01*
X78535000Y-59506319D01*
X78534039Y-59496564D01*
X78531194Y-59487185D01*
X78526573Y-59478540D01*
X78520355Y-59470964D01*
X78512779Y-59464746D01*
X78504134Y-59460125D01*
X78494755Y-59457280D01*
X78485000Y-59456319D01*
X78475245Y-59457280D01*
X78470484Y-59458472D01*
X78470201Y-59458558D01*
X78470197Y-59458560D01*
X78453434Y-59463645D01*
X78453431Y-59463645D01*
X78453429Y-59463646D01*
X78433547Y-59465604D01*
X77616453Y-59465604D01*
X77596570Y-59463646D01*
X77596567Y-59463645D01*
X77596566Y-59463645D01*
X77579803Y-59458560D01*
X77564353Y-59450302D01*
X77562243Y-59448570D01*
X77550811Y-59439189D01*
X77539699Y-59425648D01*
X77539546Y-59425362D01*
X77536733Y-59420098D01*
X78516560Y-59420098D01*
X78516560Y-59429899D01*
X78518472Y-59439513D01*
X78522222Y-59448569D01*
X78527668Y-59456719D01*
X78534598Y-59463650D01*
X78542748Y-59469095D01*
X78551803Y-59472847D01*
X78561417Y-59474759D01*
X78566319Y-59475000D01*
X78632071Y-59475000D01*
X78641826Y-59474039D01*
X78651205Y-59471194D01*
X78659850Y-59466573D01*
X78667426Y-59460355D01*
X78673644Y-59452779D01*
X78678265Y-59444134D01*
X78681110Y-59434755D01*
X78682071Y-59425000D01*
X78681589Y-59420099D01*
X81318170Y-59420099D01*
X81318170Y-59429901D01*
X81320082Y-59439514D01*
X81323833Y-59448570D01*
X81329278Y-59456720D01*
X81336209Y-59463651D01*
X81344359Y-59469096D01*
X81353415Y-59472847D01*
X81367929Y-59475000D01*
X81425000Y-59475000D01*
X81434755Y-59474039D01*
X81444134Y-59471194D01*
X81452779Y-59466573D01*
X81460355Y-59460355D01*
X81466573Y-59452779D01*
X81471194Y-59444134D01*
X81474039Y-59434755D01*
X81475000Y-59425000D01*
X81475000Y-59367929D01*
X81474039Y-59358174D01*
X81471194Y-59348795D01*
X81466573Y-59340150D01*
X81460355Y-59332574D01*
X81452779Y-59326356D01*
X81444134Y-59321735D01*
X81434755Y-59318890D01*
X81425000Y-59317929D01*
X81415245Y-59318890D01*
X81405866Y-59321735D01*
X81397221Y-59326356D01*
X81386352Y-59336206D01*
X81363748Y-59363748D01*
X81336205Y-59386353D01*
X81329278Y-59393280D01*
X81323833Y-59401430D01*
X81320082Y-59410486D01*
X81318170Y-59420099D01*
X78681589Y-59420099D01*
X78681110Y-59415245D01*
X78678265Y-59405866D01*
X78673644Y-59397221D01*
X78663794Y-59386352D01*
X78636252Y-59363748D01*
X78614251Y-59336941D01*
X78607324Y-59330014D01*
X78599174Y-59324569D01*
X78590118Y-59320818D01*
X78580505Y-59318906D01*
X78570703Y-59318906D01*
X78561090Y-59320818D01*
X78552034Y-59324569D01*
X78543884Y-59330014D01*
X78536953Y-59336945D01*
X78531508Y-59345095D01*
X78527757Y-59354151D01*
X78525604Y-59368665D01*
X78525604Y-59373547D01*
X78523646Y-59393429D01*
X78523645Y-59393431D01*
X78523645Y-59393434D01*
X78518560Y-59410197D01*
X78518559Y-59410198D01*
X78518472Y-59410484D01*
X78516560Y-59420098D01*
X77536733Y-59420098D01*
X77531440Y-59410197D01*
X77526355Y-59393434D01*
X77526355Y-59393433D01*
X77526354Y-59393430D01*
X77524396Y-59373547D01*
X77524396Y-59126453D01*
X77526354Y-59106570D01*
X77526355Y-59106566D01*
X77531440Y-59089803D01*
X77539698Y-59074353D01*
X77540695Y-59073139D01*
X77550811Y-59060811D01*
X77564352Y-59049699D01*
X77564351Y-59049699D01*
X77564353Y-59049698D01*
X77574840Y-59044093D01*
X77582984Y-59038651D01*
X77589915Y-59031720D01*
X77595361Y-59023570D01*
X77599112Y-59014515D01*
X77601024Y-59004901D01*
X77601024Y-58995099D01*
X78448976Y-58995099D01*
X78448976Y-59004901D01*
X78450888Y-59014514D01*
X78454639Y-59023570D01*
X78460084Y-59031719D01*
X78467015Y-59038650D01*
X78475160Y-59044093D01*
X78485647Y-59049698D01*
X78485649Y-59049699D01*
X78485648Y-59049699D01*
X78492676Y-59055467D01*
X78500826Y-59060913D01*
X78509881Y-59064664D01*
X78519495Y-59066576D01*
X78529297Y-59066576D01*
X78538910Y-59064664D01*
X78547966Y-59060913D01*
X78556115Y-59055468D01*
X78563046Y-59048537D01*
X78568492Y-59040387D01*
X78572243Y-59031332D01*
X78574155Y-59021718D01*
X78574396Y-59016817D01*
X78574396Y-58983183D01*
X78573435Y-58973428D01*
X78570590Y-58964049D01*
X78565969Y-58955404D01*
X78559751Y-58947828D01*
X78552175Y-58941610D01*
X78543530Y-58936989D01*
X78534151Y-58934144D01*
X78524396Y-58933183D01*
X78514641Y-58934144D01*
X78505262Y-58936989D01*
X78496617Y-58941610D01*
X78492676Y-58944533D01*
X78485647Y-58950302D01*
X78475160Y-58955907D01*
X78467016Y-58961349D01*
X78460085Y-58968280D01*
X78454639Y-58976430D01*
X78450888Y-58985485D01*
X78448976Y-58995099D01*
X77601024Y-58995099D01*
X77599112Y-58985486D01*
X77595361Y-58976430D01*
X77589916Y-58968281D01*
X77582985Y-58961350D01*
X77574840Y-58955907D01*
X77564353Y-58950302D01*
X77563138Y-58949305D01*
X77550811Y-58939189D01*
X77539699Y-58925648D01*
X77531441Y-58910198D01*
X77531440Y-58910197D01*
X77526355Y-58893434D01*
X77526355Y-58893433D01*
X77526354Y-58893430D01*
X77524396Y-58873547D01*
X77524396Y-58626453D01*
X77526354Y-58606570D01*
X77526355Y-58606566D01*
X77531440Y-58589803D01*
X77539698Y-58574353D01*
X77540695Y-58573138D01*
X77550811Y-58560811D01*
X77564352Y-58549699D01*
X77564351Y-58549699D01*
X77564353Y-58549698D01*
X77574840Y-58544093D01*
X77582984Y-58538651D01*
X77589915Y-58531720D01*
X77595361Y-58523570D01*
X77599112Y-58514515D01*
X77601024Y-58504901D01*
X77601024Y-58495099D01*
X78448976Y-58495099D01*
X78448976Y-58504901D01*
X78450888Y-58514514D01*
X78454639Y-58523570D01*
X78460084Y-58531719D01*
X78467015Y-58538650D01*
X78475160Y-58544093D01*
X78485647Y-58549698D01*
X78485649Y-58549699D01*
X78485648Y-58549699D01*
X78492676Y-58555467D01*
X78500826Y-58560913D01*
X78509881Y-58564664D01*
X78519495Y-58566576D01*
X78529297Y-58566576D01*
X78538910Y-58564664D01*
X78547966Y-58560913D01*
X78556115Y-58555468D01*
X78563046Y-58548537D01*
X78568492Y-58540387D01*
X78572243Y-58531332D01*
X78574155Y-58521718D01*
X78574396Y-58516817D01*
X78574396Y-58483183D01*
X78573435Y-58473428D01*
X78570590Y-58464049D01*
X78565969Y-58455404D01*
X78559751Y-58447828D01*
X78552175Y-58441610D01*
X78543530Y-58436989D01*
X78534151Y-58434144D01*
X78524396Y-58433183D01*
X78514641Y-58434144D01*
X78505262Y-58436989D01*
X78496617Y-58441610D01*
X78492676Y-58444533D01*
X78485647Y-58450302D01*
X78475160Y-58455907D01*
X78467016Y-58461349D01*
X78460085Y-58468280D01*
X78454639Y-58476430D01*
X78450888Y-58485485D01*
X78448976Y-58495099D01*
X77601024Y-58495099D01*
X77599112Y-58485486D01*
X77595361Y-58476430D01*
X77589916Y-58468281D01*
X77582985Y-58461350D01*
X77574840Y-58455907D01*
X77564353Y-58450302D01*
X77563138Y-58449305D01*
X77550811Y-58439189D01*
X77539699Y-58425648D01*
X77531441Y-58410198D01*
X77531440Y-58410197D01*
X77526355Y-58393434D01*
X77526355Y-58393433D01*
X77526354Y-58393430D01*
X77524396Y-58373547D01*
X77524396Y-58126453D01*
X77526354Y-58106570D01*
X77526355Y-58106566D01*
X77531440Y-58089803D01*
X77539698Y-58074353D01*
X77540695Y-58073139D01*
X77550811Y-58060811D01*
X77564352Y-58049699D01*
X77564351Y-58049699D01*
X77564353Y-58049698D01*
X77574840Y-58044093D01*
X77582984Y-58038651D01*
X77589915Y-58031720D01*
X77595361Y-58023570D01*
X77599112Y-58014515D01*
X77601024Y-58004901D01*
X77601024Y-57995099D01*
X78448976Y-57995099D01*
X78448976Y-58004901D01*
X78450888Y-58014514D01*
X78454639Y-58023570D01*
X78460084Y-58031719D01*
X78467015Y-58038650D01*
X78475160Y-58044093D01*
X78485647Y-58049698D01*
X78485649Y-58049699D01*
X78485648Y-58049699D01*
X78492676Y-58055467D01*
X78500826Y-58060913D01*
X78509881Y-58064664D01*
X78519495Y-58066576D01*
X78529297Y-58066576D01*
X78538910Y-58064664D01*
X78547966Y-58060913D01*
X78556115Y-58055468D01*
X78563046Y-58048537D01*
X78568492Y-58040387D01*
X78572243Y-58031332D01*
X78574155Y-58021718D01*
X78574396Y-58016817D01*
X78574396Y-57983183D01*
X78573435Y-57973428D01*
X78570590Y-57964049D01*
X78565969Y-57955404D01*
X78559751Y-57947828D01*
X78552175Y-57941610D01*
X78543530Y-57936989D01*
X78534151Y-57934144D01*
X78524396Y-57933183D01*
X78514641Y-57934144D01*
X78505262Y-57936989D01*
X78496617Y-57941610D01*
X78492676Y-57944533D01*
X78485647Y-57950302D01*
X78475160Y-57955907D01*
X78467016Y-57961349D01*
X78460085Y-57968280D01*
X78454639Y-57976430D01*
X78450888Y-57985485D01*
X78448976Y-57995099D01*
X77601024Y-57995099D01*
X77599112Y-57985486D01*
X77595361Y-57976430D01*
X77589916Y-57968281D01*
X77582985Y-57961350D01*
X77574840Y-57955907D01*
X77564353Y-57950302D01*
X77563139Y-57949305D01*
X77550811Y-57939189D01*
X77539699Y-57925648D01*
X77531441Y-57910198D01*
X77531440Y-57910197D01*
X77526355Y-57893434D01*
X77526355Y-57893433D01*
X77526354Y-57893430D01*
X77524396Y-57873547D01*
X77524396Y-57626453D01*
X77526354Y-57606570D01*
X77526355Y-57606566D01*
X77531440Y-57589803D01*
X77539698Y-57574353D01*
X77540695Y-57573138D01*
X77550811Y-57560811D01*
X77564352Y-57549699D01*
X77564351Y-57549699D01*
X77564353Y-57549698D01*
X77574840Y-57544093D01*
X77582984Y-57538651D01*
X77589915Y-57531720D01*
X77595361Y-57523570D01*
X77599112Y-57514515D01*
X77601024Y-57504901D01*
X77601024Y-57495099D01*
X78448976Y-57495099D01*
X78448976Y-57504901D01*
X78450888Y-57514514D01*
X78454639Y-57523570D01*
X78460084Y-57531719D01*
X78467015Y-57538650D01*
X78475160Y-57544093D01*
X78485647Y-57549698D01*
X78485649Y-57549699D01*
X78485648Y-57549699D01*
X78492676Y-57555467D01*
X78500826Y-57560913D01*
X78509881Y-57564664D01*
X78519495Y-57566576D01*
X78529297Y-57566576D01*
X78538910Y-57564664D01*
X78547966Y-57560913D01*
X78556115Y-57555468D01*
X78563046Y-57548537D01*
X78568492Y-57540387D01*
X78572243Y-57531332D01*
X78574155Y-57521718D01*
X78574396Y-57516817D01*
X78574396Y-57483183D01*
X78573435Y-57473428D01*
X78570590Y-57464049D01*
X78565969Y-57455404D01*
X78559751Y-57447828D01*
X78552175Y-57441610D01*
X78543530Y-57436989D01*
X78534151Y-57434144D01*
X78524396Y-57433183D01*
X78514641Y-57434144D01*
X78505262Y-57436989D01*
X78496617Y-57441610D01*
X78492676Y-57444533D01*
X78485647Y-57450302D01*
X78475160Y-57455907D01*
X78467016Y-57461349D01*
X78460085Y-57468280D01*
X78454639Y-57476430D01*
X78450888Y-57485485D01*
X78448976Y-57495099D01*
X77601024Y-57495099D01*
X77599112Y-57485486D01*
X77595361Y-57476430D01*
X77589916Y-57468281D01*
X77582985Y-57461350D01*
X77574840Y-57455907D01*
X77564353Y-57450302D01*
X77563138Y-57449305D01*
X77550811Y-57439189D01*
X77539699Y-57425648D01*
X77531441Y-57410198D01*
X77531440Y-57410197D01*
X77526355Y-57393434D01*
X77526355Y-57393433D01*
X77526354Y-57393430D01*
X77524396Y-57373547D01*
X77524396Y-57126453D01*
X77526354Y-57106570D01*
X77526355Y-57106566D01*
X77531440Y-57089803D01*
X77539698Y-57074353D01*
X77540695Y-57073139D01*
X77550811Y-57060811D01*
X77564352Y-57049699D01*
X77564351Y-57049699D01*
X77564353Y-57049698D01*
X77574840Y-57044093D01*
X77582984Y-57038651D01*
X77589915Y-57031720D01*
X77595361Y-57023570D01*
X77599112Y-57014515D01*
X77601024Y-57004901D01*
X77601024Y-56995099D01*
X78448976Y-56995099D01*
X78448976Y-57004901D01*
X78450888Y-57014514D01*
X78454639Y-57023570D01*
X78460084Y-57031719D01*
X78467015Y-57038650D01*
X78475160Y-57044093D01*
X78485647Y-57049698D01*
X78485649Y-57049699D01*
X78485648Y-57049699D01*
X78492676Y-57055467D01*
X78500826Y-57060913D01*
X78509881Y-57064664D01*
X78519495Y-57066576D01*
X78529297Y-57066576D01*
X78538910Y-57064664D01*
X78547966Y-57060913D01*
X78556115Y-57055468D01*
X78563046Y-57048537D01*
X78568492Y-57040387D01*
X78572243Y-57031332D01*
X78574155Y-57021718D01*
X78574396Y-57016817D01*
X78574396Y-56983183D01*
X78573435Y-56973428D01*
X78570590Y-56964049D01*
X78565969Y-56955404D01*
X78559751Y-56947828D01*
X78552175Y-56941610D01*
X78543530Y-56936989D01*
X78534151Y-56934144D01*
X78524396Y-56933183D01*
X78514641Y-56934144D01*
X78505262Y-56936989D01*
X78496617Y-56941610D01*
X78492676Y-56944533D01*
X78485647Y-56950302D01*
X78475160Y-56955907D01*
X78467016Y-56961349D01*
X78460085Y-56968280D01*
X78454639Y-56976430D01*
X78450888Y-56985485D01*
X78448976Y-56995099D01*
X77601024Y-56995099D01*
X77599112Y-56985486D01*
X77595361Y-56976430D01*
X77589916Y-56968281D01*
X77582985Y-56961350D01*
X77574840Y-56955907D01*
X77564353Y-56950302D01*
X77563138Y-56949305D01*
X77550811Y-56939189D01*
X77539699Y-56925648D01*
X77531441Y-56910198D01*
X77531440Y-56910197D01*
X77526355Y-56893434D01*
X77526355Y-56893433D01*
X77526354Y-56893430D01*
X77524396Y-56873547D01*
X77524396Y-56626453D01*
X77526354Y-56606570D01*
X77528781Y-56598570D01*
X77531440Y-56589803D01*
X77539352Y-56575000D01*
X78516319Y-56575000D01*
X78517280Y-56584755D01*
X78518472Y-56589516D01*
X78518558Y-56589799D01*
X78518560Y-56589803D01*
X78523645Y-56606566D01*
X78523645Y-56606569D01*
X78523646Y-56606571D01*
X78525604Y-56626453D01*
X78525604Y-56631335D01*
X78526565Y-56641090D01*
X78529410Y-56650469D01*
X78534031Y-56659114D01*
X78540249Y-56666690D01*
X78547825Y-56672908D01*
X78556470Y-56677529D01*
X78565849Y-56680374D01*
X78575604Y-56681335D01*
X78585359Y-56680374D01*
X78594738Y-56677529D01*
X78603383Y-56672908D01*
X78614252Y-56663057D01*
X78636252Y-56636252D01*
X78663795Y-56613647D01*
X78670722Y-56606720D01*
X78676167Y-56598570D01*
X78679918Y-56589514D01*
X78681830Y-56579901D01*
X78681830Y-56575000D01*
X81317929Y-56575000D01*
X81318890Y-56584755D01*
X81321735Y-56594134D01*
X81326356Y-56602779D01*
X81336206Y-56613648D01*
X81363748Y-56636252D01*
X81386353Y-56663795D01*
X81393280Y-56670722D01*
X81401430Y-56676167D01*
X81410486Y-56679918D01*
X81420099Y-56681830D01*
X81429901Y-56681830D01*
X81439514Y-56679918D01*
X81448570Y-56676167D01*
X81456720Y-56670722D01*
X81463651Y-56663791D01*
X81469096Y-56655641D01*
X81472847Y-56646585D01*
X81475000Y-56632071D01*
X81475000Y-56575000D01*
X81474039Y-56565245D01*
X81471194Y-56555866D01*
X81466573Y-56547221D01*
X81460355Y-56539645D01*
X81452779Y-56533427D01*
X81444134Y-56528806D01*
X81434755Y-56525961D01*
X81425000Y-56525000D01*
X81367929Y-56525000D01*
X81358174Y-56525961D01*
X81348795Y-56528806D01*
X81340150Y-56533427D01*
X81332574Y-56539645D01*
X81326356Y-56547221D01*
X81321735Y-56555866D01*
X81318890Y-56565245D01*
X81317929Y-56575000D01*
X78681830Y-56575000D01*
X78681830Y-56570099D01*
X78679918Y-56560486D01*
X78676167Y-56551430D01*
X78670722Y-56543280D01*
X78663791Y-56536349D01*
X78655641Y-56530904D01*
X78646585Y-56527153D01*
X78632071Y-56525000D01*
X78566319Y-56525000D01*
X78556564Y-56525961D01*
X78547185Y-56528806D01*
X78538540Y-56533427D01*
X78530964Y-56539645D01*
X78524746Y-56547221D01*
X78520125Y-56555866D01*
X78517280Y-56565245D01*
X78516319Y-56575000D01*
X77539352Y-56575000D01*
X77539698Y-56574353D01*
X77540695Y-56573138D01*
X77550811Y-56560811D01*
X77564352Y-56549699D01*
X77564351Y-56549699D01*
X77564353Y-56549698D01*
X77579803Y-56541440D01*
X77596566Y-56536355D01*
X77596567Y-56536355D01*
X77596570Y-56536354D01*
X77616453Y-56534396D01*
X78433547Y-56534396D01*
X78453429Y-56536354D01*
X78453431Y-56536355D01*
X78453434Y-56536355D01*
X78470197Y-56541440D01*
X78470201Y-56541442D01*
X78470484Y-56541528D01*
X78480098Y-56543440D01*
X78489899Y-56543440D01*
X78499513Y-56541528D01*
X78508569Y-56537778D01*
X78516719Y-56532332D01*
X78523650Y-56525402D01*
X78529095Y-56517252D01*
X78532847Y-56508197D01*
X78534759Y-56498583D01*
X78535000Y-56493681D01*
X78535000Y-55525000D01*
X81465000Y-55525000D01*
X81465000Y-56485000D01*
X81465000Y-56485000D01*
G37*
G36*
X61465000Y-56485000D02*
X61465961Y-56494755D01*
X61468806Y-56504134D01*
X61473427Y-56512779D01*
X61479645Y-56520355D01*
X61487221Y-56526573D01*
X61495866Y-56531194D01*
X61505245Y-56534039D01*
X61515000Y-56535000D01*
X62475000Y-56535000D01*
X62475000Y-59465000D01*
X61515000Y-59465000D01*
X61505245Y-59465961D01*
X61495866Y-59468806D01*
X61487221Y-59473427D01*
X61479645Y-59479645D01*
X61473427Y-59487221D01*
X61468806Y-59495866D01*
X61465961Y-59505245D01*
X61465000Y-59515000D01*
X61465000Y-60475000D01*
X58535000Y-60475000D01*
X58535000Y-59506319D01*
X58534039Y-59496564D01*
X58531194Y-59487185D01*
X58526573Y-59478540D01*
X58520355Y-59470964D01*
X58512779Y-59464746D01*
X58504134Y-59460125D01*
X58494755Y-59457280D01*
X58485000Y-59456319D01*
X58475245Y-59457280D01*
X58470484Y-59458472D01*
X58470201Y-59458558D01*
X58470197Y-59458560D01*
X58453434Y-59463645D01*
X58453431Y-59463645D01*
X58453429Y-59463646D01*
X58433547Y-59465604D01*
X57616453Y-59465604D01*
X57596570Y-59463646D01*
X57596567Y-59463645D01*
X57596566Y-59463645D01*
X57579803Y-59458560D01*
X57564353Y-59450302D01*
X57562243Y-59448570D01*
X57550811Y-59439189D01*
X57539699Y-59425648D01*
X57539546Y-59425362D01*
X57536733Y-59420098D01*
X58516560Y-59420098D01*
X58516560Y-59429899D01*
X58518472Y-59439513D01*
X58522222Y-59448569D01*
X58527668Y-59456719D01*
X58534598Y-59463650D01*
X58542748Y-59469095D01*
X58551803Y-59472847D01*
X58561417Y-59474759D01*
X58566319Y-59475000D01*
X58632071Y-59475000D01*
X58641826Y-59474039D01*
X58651205Y-59471194D01*
X58659850Y-59466573D01*
X58667426Y-59460355D01*
X58673644Y-59452779D01*
X58678265Y-59444134D01*
X58681110Y-59434755D01*
X58682071Y-59425000D01*
X58681589Y-59420099D01*
X61318170Y-59420099D01*
X61318170Y-59429901D01*
X61320082Y-59439514D01*
X61323833Y-59448570D01*
X61329278Y-59456720D01*
X61336209Y-59463651D01*
X61344359Y-59469096D01*
X61353415Y-59472847D01*
X61367929Y-59475000D01*
X61425000Y-59475000D01*
X61434755Y-59474039D01*
X61444134Y-59471194D01*
X61452779Y-59466573D01*
X61460355Y-59460355D01*
X61466573Y-59452779D01*
X61471194Y-59444134D01*
X61474039Y-59434755D01*
X61475000Y-59425000D01*
X61475000Y-59367929D01*
X61474039Y-59358174D01*
X61471194Y-59348795D01*
X61466573Y-59340150D01*
X61460355Y-59332574D01*
X61452779Y-59326356D01*
X61444134Y-59321735D01*
X61434755Y-59318890D01*
X61425000Y-59317929D01*
X61415245Y-59318890D01*
X61405866Y-59321735D01*
X61397221Y-59326356D01*
X61386352Y-59336206D01*
X61363748Y-59363748D01*
X61336205Y-59386353D01*
X61329278Y-59393280D01*
X61323833Y-59401430D01*
X61320082Y-59410486D01*
X61318170Y-59420099D01*
X58681589Y-59420099D01*
X58681110Y-59415245D01*
X58678265Y-59405866D01*
X58673644Y-59397221D01*
X58663794Y-59386352D01*
X58636252Y-59363748D01*
X58614251Y-59336941D01*
X58607324Y-59330014D01*
X58599174Y-59324569D01*
X58590118Y-59320818D01*
X58580505Y-59318906D01*
X58570703Y-59318906D01*
X58561090Y-59320818D01*
X58552034Y-59324569D01*
X58543884Y-59330014D01*
X58536953Y-59336945D01*
X58531508Y-59345095D01*
X58527757Y-59354151D01*
X58525604Y-59368665D01*
X58525604Y-59373547D01*
X58523646Y-59393429D01*
X58523645Y-59393431D01*
X58523645Y-59393434D01*
X58518560Y-59410197D01*
X58518559Y-59410198D01*
X58518472Y-59410484D01*
X58516560Y-59420098D01*
X57536733Y-59420098D01*
X57531440Y-59410197D01*
X57526355Y-59393434D01*
X57526355Y-59393433D01*
X57526354Y-59393430D01*
X57524396Y-59373547D01*
X57524396Y-59126453D01*
X57526354Y-59106570D01*
X57526355Y-59106566D01*
X57531440Y-59089803D01*
X57539698Y-59074353D01*
X57540695Y-59073139D01*
X57550811Y-59060811D01*
X57564352Y-59049699D01*
X57564351Y-59049699D01*
X57564353Y-59049698D01*
X57574840Y-59044093D01*
X57582984Y-59038651D01*
X57589915Y-59031720D01*
X57595361Y-59023570D01*
X57599112Y-59014515D01*
X57601024Y-59004901D01*
X57601024Y-58995099D01*
X58448976Y-58995099D01*
X58448976Y-59004901D01*
X58450888Y-59014514D01*
X58454639Y-59023570D01*
X58460084Y-59031719D01*
X58467015Y-59038650D01*
X58475160Y-59044093D01*
X58485647Y-59049698D01*
X58485649Y-59049699D01*
X58485648Y-59049699D01*
X58492676Y-59055467D01*
X58500826Y-59060913D01*
X58509881Y-59064664D01*
X58519495Y-59066576D01*
X58529297Y-59066576D01*
X58538910Y-59064664D01*
X58547966Y-59060913D01*
X58556115Y-59055468D01*
X58563046Y-59048537D01*
X58568492Y-59040387D01*
X58572243Y-59031332D01*
X58574155Y-59021718D01*
X58574396Y-59016817D01*
X58574396Y-58983183D01*
X58573435Y-58973428D01*
X58570590Y-58964049D01*
X58565969Y-58955404D01*
X58559751Y-58947828D01*
X58552175Y-58941610D01*
X58543530Y-58936989D01*
X58534151Y-58934144D01*
X58524396Y-58933183D01*
X58514641Y-58934144D01*
X58505262Y-58936989D01*
X58496617Y-58941610D01*
X58492676Y-58944533D01*
X58485647Y-58950302D01*
X58475160Y-58955907D01*
X58467016Y-58961349D01*
X58460085Y-58968280D01*
X58454639Y-58976430D01*
X58450888Y-58985485D01*
X58448976Y-58995099D01*
X57601024Y-58995099D01*
X57599112Y-58985486D01*
X57595361Y-58976430D01*
X57589916Y-58968281D01*
X57582985Y-58961350D01*
X57574840Y-58955907D01*
X57564353Y-58950302D01*
X57563138Y-58949305D01*
X57550811Y-58939189D01*
X57539699Y-58925648D01*
X57531441Y-58910198D01*
X57531440Y-58910197D01*
X57526355Y-58893434D01*
X57526355Y-58893433D01*
X57526354Y-58893430D01*
X57524396Y-58873547D01*
X57524396Y-58626453D01*
X57526354Y-58606570D01*
X57526355Y-58606566D01*
X57531440Y-58589803D01*
X57539698Y-58574353D01*
X57540695Y-58573138D01*
X57550811Y-58560811D01*
X57564352Y-58549699D01*
X57564351Y-58549699D01*
X57564353Y-58549698D01*
X57574840Y-58544093D01*
X57582984Y-58538651D01*
X57589915Y-58531720D01*
X57595361Y-58523570D01*
X57599112Y-58514515D01*
X57601024Y-58504901D01*
X57601024Y-58495099D01*
X58448976Y-58495099D01*
X58448976Y-58504901D01*
X58450888Y-58514514D01*
X58454639Y-58523570D01*
X58460084Y-58531719D01*
X58467015Y-58538650D01*
X58475160Y-58544093D01*
X58485647Y-58549698D01*
X58485649Y-58549699D01*
X58485648Y-58549699D01*
X58492676Y-58555467D01*
X58500826Y-58560913D01*
X58509881Y-58564664D01*
X58519495Y-58566576D01*
X58529297Y-58566576D01*
X58538910Y-58564664D01*
X58547966Y-58560913D01*
X58556115Y-58555468D01*
X58563046Y-58548537D01*
X58568492Y-58540387D01*
X58572243Y-58531332D01*
X58574155Y-58521718D01*
X58574396Y-58516817D01*
X58574396Y-58483183D01*
X58573435Y-58473428D01*
X58570590Y-58464049D01*
X58565969Y-58455404D01*
X58559751Y-58447828D01*
X58552175Y-58441610D01*
X58543530Y-58436989D01*
X58534151Y-58434144D01*
X58524396Y-58433183D01*
X58514641Y-58434144D01*
X58505262Y-58436989D01*
X58496617Y-58441610D01*
X58492676Y-58444533D01*
X58485647Y-58450302D01*
X58475160Y-58455907D01*
X58467016Y-58461349D01*
X58460085Y-58468280D01*
X58454639Y-58476430D01*
X58450888Y-58485485D01*
X58448976Y-58495099D01*
X57601024Y-58495099D01*
X57599112Y-58485486D01*
X57595361Y-58476430D01*
X57589916Y-58468281D01*
X57582985Y-58461350D01*
X57574840Y-58455907D01*
X57564353Y-58450302D01*
X57563138Y-58449305D01*
X57550811Y-58439189D01*
X57539699Y-58425648D01*
X57531441Y-58410198D01*
X57531440Y-58410197D01*
X57526355Y-58393434D01*
X57526355Y-58393433D01*
X57526354Y-58393430D01*
X57524396Y-58373547D01*
X57524396Y-58126453D01*
X57526354Y-58106570D01*
X57526355Y-58106566D01*
X57531440Y-58089803D01*
X57539698Y-58074353D01*
X57540695Y-58073139D01*
X57550811Y-58060811D01*
X57564352Y-58049699D01*
X57564351Y-58049699D01*
X57564353Y-58049698D01*
X57574840Y-58044093D01*
X57582984Y-58038651D01*
X57589915Y-58031720D01*
X57595361Y-58023570D01*
X57599112Y-58014515D01*
X57601024Y-58004901D01*
X57601024Y-57995099D01*
X58448976Y-57995099D01*
X58448976Y-58004901D01*
X58450888Y-58014514D01*
X58454639Y-58023570D01*
X58460084Y-58031719D01*
X58467015Y-58038650D01*
X58475160Y-58044093D01*
X58485647Y-58049698D01*
X58485649Y-58049699D01*
X58485648Y-58049699D01*
X58492676Y-58055467D01*
X58500826Y-58060913D01*
X58509881Y-58064664D01*
X58519495Y-58066576D01*
X58529297Y-58066576D01*
X58538910Y-58064664D01*
X58547966Y-58060913D01*
X58556115Y-58055468D01*
X58563046Y-58048537D01*
X58568492Y-58040387D01*
X58572243Y-58031332D01*
X58574155Y-58021718D01*
X58574396Y-58016817D01*
X58574396Y-57983183D01*
X58573435Y-57973428D01*
X58570590Y-57964049D01*
X58565969Y-57955404D01*
X58559751Y-57947828D01*
X58552175Y-57941610D01*
X58543530Y-57936989D01*
X58534151Y-57934144D01*
X58524396Y-57933183D01*
X58514641Y-57934144D01*
X58505262Y-57936989D01*
X58496617Y-57941610D01*
X58492676Y-57944533D01*
X58485647Y-57950302D01*
X58475160Y-57955907D01*
X58467016Y-57961349D01*
X58460085Y-57968280D01*
X58454639Y-57976430D01*
X58450888Y-57985485D01*
X58448976Y-57995099D01*
X57601024Y-57995099D01*
X57599112Y-57985486D01*
X57595361Y-57976430D01*
X57589916Y-57968281D01*
X57582985Y-57961350D01*
X57574840Y-57955907D01*
X57564353Y-57950302D01*
X57563139Y-57949305D01*
X57550811Y-57939189D01*
X57539699Y-57925648D01*
X57531441Y-57910198D01*
X57531440Y-57910197D01*
X57526355Y-57893434D01*
X57526355Y-57893433D01*
X57526354Y-57893430D01*
X57524396Y-57873547D01*
X57524396Y-57626453D01*
X57526354Y-57606570D01*
X57526355Y-57606566D01*
X57531440Y-57589803D01*
X57539698Y-57574353D01*
X57540695Y-57573138D01*
X57550811Y-57560811D01*
X57564352Y-57549699D01*
X57564351Y-57549699D01*
X57564353Y-57549698D01*
X57574840Y-57544093D01*
X57582984Y-57538651D01*
X57589915Y-57531720D01*
X57595361Y-57523570D01*
X57599112Y-57514515D01*
X57601024Y-57504901D01*
X57601024Y-57495099D01*
X58448976Y-57495099D01*
X58448976Y-57504901D01*
X58450888Y-57514514D01*
X58454639Y-57523570D01*
X58460084Y-57531719D01*
X58467015Y-57538650D01*
X58475160Y-57544093D01*
X58485647Y-57549698D01*
X58485649Y-57549699D01*
X58485648Y-57549699D01*
X58492676Y-57555467D01*
X58500826Y-57560913D01*
X58509881Y-57564664D01*
X58519495Y-57566576D01*
X58529297Y-57566576D01*
X58538910Y-57564664D01*
X58547966Y-57560913D01*
X58556115Y-57555468D01*
X58563046Y-57548537D01*
X58568492Y-57540387D01*
X58572243Y-57531332D01*
X58574155Y-57521718D01*
X58574396Y-57516817D01*
X58574396Y-57483183D01*
X58573435Y-57473428D01*
X58570590Y-57464049D01*
X58565969Y-57455404D01*
X58559751Y-57447828D01*
X58552175Y-57441610D01*
X58543530Y-57436989D01*
X58534151Y-57434144D01*
X58524396Y-57433183D01*
X58514641Y-57434144D01*
X58505262Y-57436989D01*
X58496617Y-57441610D01*
X58492676Y-57444533D01*
X58485647Y-57450302D01*
X58475160Y-57455907D01*
X58467016Y-57461349D01*
X58460085Y-57468280D01*
X58454639Y-57476430D01*
X58450888Y-57485485D01*
X58448976Y-57495099D01*
X57601024Y-57495099D01*
X57599112Y-57485486D01*
X57595361Y-57476430D01*
X57589916Y-57468281D01*
X57582985Y-57461350D01*
X57574840Y-57455907D01*
X57564353Y-57450302D01*
X57563138Y-57449305D01*
X57550811Y-57439189D01*
X57539699Y-57425648D01*
X57531441Y-57410198D01*
X57531440Y-57410197D01*
X57526355Y-57393434D01*
X57526355Y-57393433D01*
X57526354Y-57393430D01*
X57524396Y-57373547D01*
X57524396Y-57126453D01*
X57526354Y-57106570D01*
X57526355Y-57106566D01*
X57531440Y-57089803D01*
X57539698Y-57074353D01*
X57540695Y-57073139D01*
X57550811Y-57060811D01*
X57564352Y-57049699D01*
X57564351Y-57049699D01*
X57564353Y-57049698D01*
X57574840Y-57044093D01*
X57582984Y-57038651D01*
X57589915Y-57031720D01*
X57595361Y-57023570D01*
X57599112Y-57014515D01*
X57601024Y-57004901D01*
X57601024Y-56995099D01*
X58448976Y-56995099D01*
X58448976Y-57004901D01*
X58450888Y-57014514D01*
X58454639Y-57023570D01*
X58460084Y-57031719D01*
X58467015Y-57038650D01*
X58475160Y-57044093D01*
X58485647Y-57049698D01*
X58485649Y-57049699D01*
X58485648Y-57049699D01*
X58492676Y-57055467D01*
X58500826Y-57060913D01*
X58509881Y-57064664D01*
X58519495Y-57066576D01*
X58529297Y-57066576D01*
X58538910Y-57064664D01*
X58547966Y-57060913D01*
X58556115Y-57055468D01*
X58563046Y-57048537D01*
X58568492Y-57040387D01*
X58572243Y-57031332D01*
X58574155Y-57021718D01*
X58574396Y-57016817D01*
X58574396Y-56983183D01*
X58573435Y-56973428D01*
X58570590Y-56964049D01*
X58565969Y-56955404D01*
X58559751Y-56947828D01*
X58552175Y-56941610D01*
X58543530Y-56936989D01*
X58534151Y-56934144D01*
X58524396Y-56933183D01*
X58514641Y-56934144D01*
X58505262Y-56936989D01*
X58496617Y-56941610D01*
X58492676Y-56944533D01*
X58485647Y-56950302D01*
X58475160Y-56955907D01*
X58467016Y-56961349D01*
X58460085Y-56968280D01*
X58454639Y-56976430D01*
X58450888Y-56985485D01*
X58448976Y-56995099D01*
X57601024Y-56995099D01*
X57599112Y-56985486D01*
X57595361Y-56976430D01*
X57589916Y-56968281D01*
X57582985Y-56961350D01*
X57574840Y-56955907D01*
X57564353Y-56950302D01*
X57563138Y-56949305D01*
X57550811Y-56939189D01*
X57539699Y-56925648D01*
X57531441Y-56910198D01*
X57531440Y-56910197D01*
X57526355Y-56893434D01*
X57526355Y-56893433D01*
X57526354Y-56893430D01*
X57524396Y-56873547D01*
X57524396Y-56626453D01*
X57526354Y-56606570D01*
X57528781Y-56598570D01*
X57531440Y-56589803D01*
X57539352Y-56575000D01*
X58516319Y-56575000D01*
X58517280Y-56584755D01*
X58518472Y-56589516D01*
X58518558Y-56589799D01*
X58518560Y-56589803D01*
X58523645Y-56606566D01*
X58523645Y-56606569D01*
X58523646Y-56606571D01*
X58525604Y-56626453D01*
X58525604Y-56631335D01*
X58526565Y-56641090D01*
X58529410Y-56650469D01*
X58534031Y-56659114D01*
X58540249Y-56666690D01*
X58547825Y-56672908D01*
X58556470Y-56677529D01*
X58565849Y-56680374D01*
X58575604Y-56681335D01*
X58585359Y-56680374D01*
X58594738Y-56677529D01*
X58603383Y-56672908D01*
X58614252Y-56663057D01*
X58636252Y-56636252D01*
X58663795Y-56613647D01*
X58670722Y-56606720D01*
X58676167Y-56598570D01*
X58679918Y-56589514D01*
X58681830Y-56579901D01*
X58681830Y-56575000D01*
X61317929Y-56575000D01*
X61318890Y-56584755D01*
X61321735Y-56594134D01*
X61326356Y-56602779D01*
X61336206Y-56613648D01*
X61363748Y-56636252D01*
X61386353Y-56663795D01*
X61393280Y-56670722D01*
X61401430Y-56676167D01*
X61410486Y-56679918D01*
X61420099Y-56681830D01*
X61429901Y-56681830D01*
X61439514Y-56679918D01*
X61448570Y-56676167D01*
X61456720Y-56670722D01*
X61463651Y-56663791D01*
X61469096Y-56655641D01*
X61472847Y-56646585D01*
X61475000Y-56632071D01*
X61475000Y-56575000D01*
X61474039Y-56565245D01*
X61471194Y-56555866D01*
X61466573Y-56547221D01*
X61460355Y-56539645D01*
X61452779Y-56533427D01*
X61444134Y-56528806D01*
X61434755Y-56525961D01*
X61425000Y-56525000D01*
X61367929Y-56525000D01*
X61358174Y-56525961D01*
X61348795Y-56528806D01*
X61340150Y-56533427D01*
X61332574Y-56539645D01*
X61326356Y-56547221D01*
X61321735Y-56555866D01*
X61318890Y-56565245D01*
X61317929Y-56575000D01*
X58681830Y-56575000D01*
X58681830Y-56570099D01*
X58679918Y-56560486D01*
X58676167Y-56551430D01*
X58670722Y-56543280D01*
X58663791Y-56536349D01*
X58655641Y-56530904D01*
X58646585Y-56527153D01*
X58632071Y-56525000D01*
X58566319Y-56525000D01*
X58556564Y-56525961D01*
X58547185Y-56528806D01*
X58538540Y-56533427D01*
X58530964Y-56539645D01*
X58524746Y-56547221D01*
X58520125Y-56555866D01*
X58517280Y-56565245D01*
X58516319Y-56575000D01*
X57539352Y-56575000D01*
X57539698Y-56574353D01*
X57540695Y-56573138D01*
X57550811Y-56560811D01*
X57564352Y-56549699D01*
X57564351Y-56549699D01*
X57564353Y-56549698D01*
X57579803Y-56541440D01*
X57596566Y-56536355D01*
X57596567Y-56536355D01*
X57596570Y-56536354D01*
X57616453Y-56534396D01*
X58433547Y-56534396D01*
X58453429Y-56536354D01*
X58453431Y-56536355D01*
X58453434Y-56536355D01*
X58470197Y-56541440D01*
X58470201Y-56541442D01*
X58470484Y-56541528D01*
X58480098Y-56543440D01*
X58489899Y-56543440D01*
X58499513Y-56541528D01*
X58508569Y-56537778D01*
X58516719Y-56532332D01*
X58523650Y-56525402D01*
X58529095Y-56517252D01*
X58532847Y-56508197D01*
X58534759Y-56498583D01*
X58535000Y-56493681D01*
X58535000Y-55525000D01*
X61465000Y-55525000D01*
X61465000Y-56485000D01*
X61465000Y-56485000D01*
G37*
G36*
X64725000Y-59450000D02*
X63775000Y-59450000D01*
X63775000Y-58550000D01*
X64725000Y-58550000D01*
X64725000Y-59450000D01*
X64725000Y-59450000D01*
G37*
G36*
X66225000Y-59450000D02*
X65275000Y-59450000D01*
X65275000Y-58550000D01*
X66225000Y-58550000D01*
X66225000Y-59450000D01*
X66225000Y-59450000D01*
G37*
G36*
X86225000Y-59450000D02*
X85275000Y-59450000D01*
X85275000Y-58550000D01*
X86225000Y-58550000D01*
X86225000Y-59450000D01*
X86225000Y-59450000D01*
G37*
G36*
X84725000Y-59450000D02*
X83775000Y-59450000D01*
X83775000Y-58550000D01*
X84725000Y-58550000D01*
X84725000Y-59450000D01*
X84725000Y-59450000D01*
G37*
G36*
X86075000Y-57525000D02*
X85425000Y-57525000D01*
X85425000Y-56475000D01*
X86075000Y-56475000D01*
X86075000Y-57525000D01*
X86075000Y-57525000D01*
G37*
G36*
X66075000Y-57525000D02*
X65425000Y-57525000D01*
X65425000Y-56475000D01*
X66075000Y-56475000D01*
X66075000Y-57525000D01*
X66075000Y-57525000D01*
G37*
G36*
X64575000Y-57525000D02*
X63925000Y-57525000D01*
X63925000Y-56475000D01*
X64575000Y-56475000D01*
X64575000Y-57525000D01*
X64575000Y-57525000D01*
G37*
G36*
X84575000Y-57525000D02*
X83925000Y-57525000D01*
X83925000Y-56475000D01*
X84575000Y-56475000D01*
X84575000Y-57525000D01*
X84575000Y-57525000D01*
G37*
G36*
X57978481Y-53676950D02*
X58001060Y-53683799D01*
X58021871Y-53694923D01*
X58040109Y-53709891D01*
X58055077Y-53728129D01*
X58066201Y-53748940D01*
X58073050Y-53771519D01*
X58075604Y-53797454D01*
X58075604Y-54602546D01*
X58073050Y-54628481D01*
X58066201Y-54651060D01*
X58055077Y-54671871D01*
X58040109Y-54690109D01*
X58021871Y-54705077D01*
X58001060Y-54716201D01*
X57978481Y-54723050D01*
X57952546Y-54725604D01*
X56497454Y-54725604D01*
X56471519Y-54723050D01*
X56448940Y-54716201D01*
X56428129Y-54705077D01*
X56409891Y-54690109D01*
X56394923Y-54671871D01*
X56383799Y-54651060D01*
X56376950Y-54628481D01*
X56374396Y-54602546D01*
X56374396Y-53797454D01*
X56376950Y-53771519D01*
X56383799Y-53748940D01*
X56394923Y-53728129D01*
X56409891Y-53709891D01*
X56428129Y-53694923D01*
X56448940Y-53683799D01*
X56471519Y-53676950D01*
X56497454Y-53674396D01*
X57952546Y-53674396D01*
X57978481Y-53676950D01*
X57978481Y-53676950D01*
G37*
G36*
X53528481Y-53676950D02*
X53551060Y-53683799D01*
X53571871Y-53694923D01*
X53590109Y-53709891D01*
X53605077Y-53728129D01*
X53616201Y-53748940D01*
X53623050Y-53771519D01*
X53625604Y-53797454D01*
X53625604Y-54602546D01*
X53623050Y-54628481D01*
X53616201Y-54651060D01*
X53605077Y-54671871D01*
X53590109Y-54690109D01*
X53571871Y-54705077D01*
X53551060Y-54716201D01*
X53528481Y-54723050D01*
X53502546Y-54725604D01*
X52047454Y-54725604D01*
X52021519Y-54723050D01*
X51998940Y-54716201D01*
X51978129Y-54705077D01*
X51959891Y-54690109D01*
X51944923Y-54671871D01*
X51933799Y-54651060D01*
X51926950Y-54628481D01*
X51924396Y-54602546D01*
X51924396Y-53797454D01*
X51926950Y-53771519D01*
X51933799Y-53748940D01*
X51944923Y-53728129D01*
X51959891Y-53709891D01*
X51978129Y-53694923D01*
X51998940Y-53683799D01*
X52021519Y-53676950D01*
X52047454Y-53674396D01*
X53502546Y-53674396D01*
X53528481Y-53676950D01*
X53528481Y-53676950D01*
G37*
G36*
X87978481Y-53676950D02*
X88001060Y-53683799D01*
X88021871Y-53694923D01*
X88040109Y-53709891D01*
X88055077Y-53728129D01*
X88066201Y-53748940D01*
X88073050Y-53771519D01*
X88075604Y-53797454D01*
X88075604Y-54602546D01*
X88073050Y-54628481D01*
X88066201Y-54651060D01*
X88055077Y-54671871D01*
X88040109Y-54690109D01*
X88021871Y-54705077D01*
X88001060Y-54716201D01*
X87978481Y-54723050D01*
X87952546Y-54725604D01*
X86497454Y-54725604D01*
X86471519Y-54723050D01*
X86448940Y-54716201D01*
X86428129Y-54705077D01*
X86409891Y-54690109D01*
X86394923Y-54671871D01*
X86383799Y-54651060D01*
X86376950Y-54628481D01*
X86374396Y-54602546D01*
X86374396Y-53797454D01*
X86376950Y-53771519D01*
X86383799Y-53748940D01*
X86394923Y-53728129D01*
X86409891Y-53709891D01*
X86428129Y-53694923D01*
X86448940Y-53683799D01*
X86471519Y-53676950D01*
X86497454Y-53674396D01*
X87952546Y-53674396D01*
X87978481Y-53676950D01*
X87978481Y-53676950D01*
G37*
G36*
X83528481Y-53676950D02*
X83551060Y-53683799D01*
X83571871Y-53694923D01*
X83590109Y-53709891D01*
X83605077Y-53728129D01*
X83616201Y-53748940D01*
X83623050Y-53771519D01*
X83625604Y-53797454D01*
X83625604Y-54602546D01*
X83623050Y-54628481D01*
X83616201Y-54651060D01*
X83605077Y-54671871D01*
X83590109Y-54690109D01*
X83571871Y-54705077D01*
X83551060Y-54716201D01*
X83528481Y-54723050D01*
X83502546Y-54725604D01*
X82047454Y-54725604D01*
X82021519Y-54723050D01*
X81998940Y-54716201D01*
X81978129Y-54705077D01*
X81959891Y-54690109D01*
X81944923Y-54671871D01*
X81933799Y-54651060D01*
X81926950Y-54628481D01*
X81924396Y-54602546D01*
X81924396Y-53797454D01*
X81926950Y-53771519D01*
X81933799Y-53748940D01*
X81944923Y-53728129D01*
X81959891Y-53709891D01*
X81978129Y-53694923D01*
X81998940Y-53683799D01*
X82021519Y-53676950D01*
X82047454Y-53674396D01*
X83502546Y-53674396D01*
X83528481Y-53676950D01*
X83528481Y-53676950D01*
G37*
G36*
X77978481Y-53676950D02*
X78001060Y-53683799D01*
X78021871Y-53694923D01*
X78040109Y-53709891D01*
X78055077Y-53728129D01*
X78066201Y-53748940D01*
X78073050Y-53771519D01*
X78075604Y-53797454D01*
X78075604Y-54602546D01*
X78073050Y-54628481D01*
X78066201Y-54651060D01*
X78055077Y-54671871D01*
X78040109Y-54690109D01*
X78021871Y-54705077D01*
X78001060Y-54716201D01*
X77978481Y-54723050D01*
X77952546Y-54725604D01*
X76497454Y-54725604D01*
X76471519Y-54723050D01*
X76448940Y-54716201D01*
X76428129Y-54705077D01*
X76409891Y-54690109D01*
X76394923Y-54671871D01*
X76383799Y-54651060D01*
X76376950Y-54628481D01*
X76374396Y-54602546D01*
X76374396Y-53797454D01*
X76376950Y-53771519D01*
X76383799Y-53748940D01*
X76394923Y-53728129D01*
X76409891Y-53709891D01*
X76428129Y-53694923D01*
X76448940Y-53683799D01*
X76471519Y-53676950D01*
X76497454Y-53674396D01*
X77952546Y-53674396D01*
X77978481Y-53676950D01*
X77978481Y-53676950D01*
G37*
G36*
X73528481Y-53676950D02*
X73551060Y-53683799D01*
X73571871Y-53694923D01*
X73590109Y-53709891D01*
X73605077Y-53728129D01*
X73616201Y-53748940D01*
X73623050Y-53771519D01*
X73625604Y-53797454D01*
X73625604Y-54602546D01*
X73623050Y-54628481D01*
X73616201Y-54651060D01*
X73605077Y-54671871D01*
X73590109Y-54690109D01*
X73571871Y-54705077D01*
X73551060Y-54716201D01*
X73528481Y-54723050D01*
X73502546Y-54725604D01*
X72047454Y-54725604D01*
X72021519Y-54723050D01*
X71998940Y-54716201D01*
X71978129Y-54705077D01*
X71959891Y-54690109D01*
X71944923Y-54671871D01*
X71933799Y-54651060D01*
X71926950Y-54628481D01*
X71924396Y-54602546D01*
X71924396Y-53797454D01*
X71926950Y-53771519D01*
X71933799Y-53748940D01*
X71944923Y-53728129D01*
X71959891Y-53709891D01*
X71978129Y-53694923D01*
X71998940Y-53683799D01*
X72021519Y-53676950D01*
X72047454Y-53674396D01*
X73502546Y-53674396D01*
X73528481Y-53676950D01*
X73528481Y-53676950D01*
G37*
G36*
X67978481Y-53676950D02*
X68001060Y-53683799D01*
X68021871Y-53694923D01*
X68040109Y-53709891D01*
X68055077Y-53728129D01*
X68066201Y-53748940D01*
X68073050Y-53771519D01*
X68075604Y-53797454D01*
X68075604Y-54602546D01*
X68073050Y-54628481D01*
X68066201Y-54651060D01*
X68055077Y-54671871D01*
X68040109Y-54690109D01*
X68021871Y-54705077D01*
X68001060Y-54716201D01*
X67978481Y-54723050D01*
X67952546Y-54725604D01*
X66497454Y-54725604D01*
X66471519Y-54723050D01*
X66448940Y-54716201D01*
X66428129Y-54705077D01*
X66409891Y-54690109D01*
X66394923Y-54671871D01*
X66383799Y-54651060D01*
X66376950Y-54628481D01*
X66374396Y-54602546D01*
X66374396Y-53797454D01*
X66376950Y-53771519D01*
X66383799Y-53748940D01*
X66394923Y-53728129D01*
X66409891Y-53709891D01*
X66428129Y-53694923D01*
X66448940Y-53683799D01*
X66471519Y-53676950D01*
X66497454Y-53674396D01*
X67952546Y-53674396D01*
X67978481Y-53676950D01*
X67978481Y-53676950D01*
G37*
G36*
X63528481Y-53676950D02*
X63551060Y-53683799D01*
X63571871Y-53694923D01*
X63590109Y-53709891D01*
X63605077Y-53728129D01*
X63616201Y-53748940D01*
X63623050Y-53771519D01*
X63625604Y-53797454D01*
X63625604Y-54602546D01*
X63623050Y-54628481D01*
X63616201Y-54651060D01*
X63605077Y-54671871D01*
X63590109Y-54690109D01*
X63571871Y-54705077D01*
X63551060Y-54716201D01*
X63528481Y-54723050D01*
X63502546Y-54725604D01*
X62047454Y-54725604D01*
X62021519Y-54723050D01*
X61998940Y-54716201D01*
X61978129Y-54705077D01*
X61959891Y-54690109D01*
X61944923Y-54671871D01*
X61933799Y-54651060D01*
X61926950Y-54628481D01*
X61924396Y-54602546D01*
X61924396Y-53797454D01*
X61926950Y-53771519D01*
X61933799Y-53748940D01*
X61944923Y-53728129D01*
X61959891Y-53709891D01*
X61978129Y-53694923D01*
X61998940Y-53683799D01*
X62021519Y-53676950D01*
X62047454Y-53674396D01*
X63502546Y-53674396D01*
X63528481Y-53676950D01*
X63528481Y-53676950D01*
G37*
G36*
X57978481Y-52476950D02*
X58001060Y-52483799D01*
X58021871Y-52494923D01*
X58040109Y-52509891D01*
X58055077Y-52528129D01*
X58066201Y-52548940D01*
X58073050Y-52571519D01*
X58075604Y-52597454D01*
X58075604Y-53402546D01*
X58073050Y-53428481D01*
X58066201Y-53451060D01*
X58055077Y-53471871D01*
X58040109Y-53490109D01*
X58021871Y-53505077D01*
X58001060Y-53516201D01*
X57978481Y-53523050D01*
X57952546Y-53525604D01*
X56497454Y-53525604D01*
X56471519Y-53523050D01*
X56448940Y-53516201D01*
X56428129Y-53505077D01*
X56409891Y-53490109D01*
X56394923Y-53471871D01*
X56383799Y-53451060D01*
X56376950Y-53428481D01*
X56374396Y-53402546D01*
X56374396Y-52597454D01*
X56376950Y-52571519D01*
X56383799Y-52548940D01*
X56394923Y-52528129D01*
X56409891Y-52509891D01*
X56428129Y-52494923D01*
X56448940Y-52483799D01*
X56471519Y-52476950D01*
X56497454Y-52474396D01*
X57952546Y-52474396D01*
X57978481Y-52476950D01*
X57978481Y-52476950D01*
G37*
G36*
X77978481Y-52476950D02*
X78001060Y-52483799D01*
X78021871Y-52494923D01*
X78040109Y-52509891D01*
X78055077Y-52528129D01*
X78066201Y-52548940D01*
X78073050Y-52571519D01*
X78075604Y-52597454D01*
X78075604Y-53402546D01*
X78073050Y-53428481D01*
X78066201Y-53451060D01*
X78055077Y-53471871D01*
X78040109Y-53490109D01*
X78021871Y-53505077D01*
X78001060Y-53516201D01*
X77978481Y-53523050D01*
X77952546Y-53525604D01*
X76497454Y-53525604D01*
X76471519Y-53523050D01*
X76448940Y-53516201D01*
X76428129Y-53505077D01*
X76409891Y-53490109D01*
X76394923Y-53471871D01*
X76383799Y-53451060D01*
X76376950Y-53428481D01*
X76374396Y-53402546D01*
X76374396Y-52597454D01*
X76376950Y-52571519D01*
X76383799Y-52548940D01*
X76394923Y-52528129D01*
X76409891Y-52509891D01*
X76428129Y-52494923D01*
X76448940Y-52483799D01*
X76471519Y-52476950D01*
X76497454Y-52474396D01*
X77952546Y-52474396D01*
X77978481Y-52476950D01*
X77978481Y-52476950D01*
G37*
G36*
X73528481Y-52476950D02*
X73551060Y-52483799D01*
X73571871Y-52494923D01*
X73590109Y-52509891D01*
X73605077Y-52528129D01*
X73616201Y-52548940D01*
X73623050Y-52571519D01*
X73625604Y-52597454D01*
X73625604Y-53402546D01*
X73623050Y-53428481D01*
X73616201Y-53451060D01*
X73605077Y-53471871D01*
X73590109Y-53490109D01*
X73571871Y-53505077D01*
X73551060Y-53516201D01*
X73528481Y-53523050D01*
X73502546Y-53525604D01*
X72047454Y-53525604D01*
X72021519Y-53523050D01*
X71998940Y-53516201D01*
X71978129Y-53505077D01*
X71959891Y-53490109D01*
X71944923Y-53471871D01*
X71933799Y-53451060D01*
X71926950Y-53428481D01*
X71924396Y-53402546D01*
X71924396Y-52597454D01*
X71926950Y-52571519D01*
X71933799Y-52548940D01*
X71944923Y-52528129D01*
X71959891Y-52509891D01*
X71978129Y-52494923D01*
X71998940Y-52483799D01*
X72021519Y-52476950D01*
X72047454Y-52474396D01*
X73502546Y-52474396D01*
X73528481Y-52476950D01*
X73528481Y-52476950D01*
G37*
G36*
X67978481Y-52476950D02*
X68001060Y-52483799D01*
X68021871Y-52494923D01*
X68040109Y-52509891D01*
X68055077Y-52528129D01*
X68066201Y-52548940D01*
X68073050Y-52571519D01*
X68075604Y-52597454D01*
X68075604Y-53402546D01*
X68073050Y-53428481D01*
X68066201Y-53451060D01*
X68055077Y-53471871D01*
X68040109Y-53490109D01*
X68021871Y-53505077D01*
X68001060Y-53516201D01*
X67978481Y-53523050D01*
X67952546Y-53525604D01*
X66497454Y-53525604D01*
X66471519Y-53523050D01*
X66448940Y-53516201D01*
X66428129Y-53505077D01*
X66409891Y-53490109D01*
X66394923Y-53471871D01*
X66383799Y-53451060D01*
X66376950Y-53428481D01*
X66374396Y-53402546D01*
X66374396Y-52597454D01*
X66376950Y-52571519D01*
X66383799Y-52548940D01*
X66394923Y-52528129D01*
X66409891Y-52509891D01*
X66428129Y-52494923D01*
X66448940Y-52483799D01*
X66471519Y-52476950D01*
X66497454Y-52474396D01*
X67952546Y-52474396D01*
X67978481Y-52476950D01*
X67978481Y-52476950D01*
G37*
G36*
X63528481Y-52476950D02*
X63551060Y-52483799D01*
X63571871Y-52494923D01*
X63590109Y-52509891D01*
X63605077Y-52528129D01*
X63616201Y-52548940D01*
X63623050Y-52571519D01*
X63625604Y-52597454D01*
X63625604Y-53402546D01*
X63623050Y-53428481D01*
X63616201Y-53451060D01*
X63605077Y-53471871D01*
X63590109Y-53490109D01*
X63571871Y-53505077D01*
X63551060Y-53516201D01*
X63528481Y-53523050D01*
X63502546Y-53525604D01*
X62047454Y-53525604D01*
X62021519Y-53523050D01*
X61998940Y-53516201D01*
X61978129Y-53505077D01*
X61959891Y-53490109D01*
X61944923Y-53471871D01*
X61933799Y-53451060D01*
X61926950Y-53428481D01*
X61924396Y-53402546D01*
X61924396Y-52597454D01*
X61926950Y-52571519D01*
X61933799Y-52548940D01*
X61944923Y-52528129D01*
X61959891Y-52509891D01*
X61978129Y-52494923D01*
X61998940Y-52483799D01*
X62021519Y-52476950D01*
X62047454Y-52474396D01*
X63502546Y-52474396D01*
X63528481Y-52476950D01*
X63528481Y-52476950D01*
G37*
G36*
X53528481Y-52476950D02*
X53551060Y-52483799D01*
X53571871Y-52494923D01*
X53590109Y-52509891D01*
X53605077Y-52528129D01*
X53616201Y-52548940D01*
X53623050Y-52571519D01*
X53625604Y-52597454D01*
X53625604Y-53402546D01*
X53623050Y-53428481D01*
X53616201Y-53451060D01*
X53605077Y-53471871D01*
X53590109Y-53490109D01*
X53571871Y-53505077D01*
X53551060Y-53516201D01*
X53528481Y-53523050D01*
X53502546Y-53525604D01*
X52047454Y-53525604D01*
X52021519Y-53523050D01*
X51998940Y-53516201D01*
X51978129Y-53505077D01*
X51959891Y-53490109D01*
X51944923Y-53471871D01*
X51933799Y-53451060D01*
X51926950Y-53428481D01*
X51924396Y-53402546D01*
X51924396Y-52597454D01*
X51926950Y-52571519D01*
X51933799Y-52548940D01*
X51944923Y-52528129D01*
X51959891Y-52509891D01*
X51978129Y-52494923D01*
X51998940Y-52483799D01*
X52021519Y-52476950D01*
X52047454Y-52474396D01*
X53502546Y-52474396D01*
X53528481Y-52476950D01*
X53528481Y-52476950D01*
G37*
G36*
X87978481Y-52476950D02*
X88001060Y-52483799D01*
X88021871Y-52494923D01*
X88040109Y-52509891D01*
X88055077Y-52528129D01*
X88066201Y-52548940D01*
X88073050Y-52571519D01*
X88075604Y-52597454D01*
X88075604Y-53402546D01*
X88073050Y-53428481D01*
X88066201Y-53451060D01*
X88055077Y-53471871D01*
X88040109Y-53490109D01*
X88021871Y-53505077D01*
X88001060Y-53516201D01*
X87978481Y-53523050D01*
X87952546Y-53525604D01*
X86497454Y-53525604D01*
X86471519Y-53523050D01*
X86448940Y-53516201D01*
X86428129Y-53505077D01*
X86409891Y-53490109D01*
X86394923Y-53471871D01*
X86383799Y-53451060D01*
X86376950Y-53428481D01*
X86374396Y-53402546D01*
X86374396Y-52597454D01*
X86376950Y-52571519D01*
X86383799Y-52548940D01*
X86394923Y-52528129D01*
X86409891Y-52509891D01*
X86428129Y-52494923D01*
X86448940Y-52483799D01*
X86471519Y-52476950D01*
X86497454Y-52474396D01*
X87952546Y-52474396D01*
X87978481Y-52476950D01*
X87978481Y-52476950D01*
G37*
G36*
X83528481Y-52476950D02*
X83551060Y-52483799D01*
X83571871Y-52494923D01*
X83590109Y-52509891D01*
X83605077Y-52528129D01*
X83616201Y-52548940D01*
X83623050Y-52571519D01*
X83625604Y-52597454D01*
X83625604Y-53402546D01*
X83623050Y-53428481D01*
X83616201Y-53451060D01*
X83605077Y-53471871D01*
X83590109Y-53490109D01*
X83571871Y-53505077D01*
X83551060Y-53516201D01*
X83528481Y-53523050D01*
X83502546Y-53525604D01*
X82047454Y-53525604D01*
X82021519Y-53523050D01*
X81998940Y-53516201D01*
X81978129Y-53505077D01*
X81959891Y-53490109D01*
X81944923Y-53471871D01*
X81933799Y-53451060D01*
X81926950Y-53428481D01*
X81924396Y-53402546D01*
X81924396Y-52597454D01*
X81926950Y-52571519D01*
X81933799Y-52548940D01*
X81944923Y-52528129D01*
X81959891Y-52509891D01*
X81978129Y-52494923D01*
X81998940Y-52483799D01*
X82021519Y-52476950D01*
X82047454Y-52474396D01*
X83502546Y-52474396D01*
X83528481Y-52476950D01*
X83528481Y-52476950D01*
G37*
G36*
X87978481Y-51276950D02*
X88001060Y-51283799D01*
X88021871Y-51294923D01*
X88040109Y-51309891D01*
X88055077Y-51328129D01*
X88066201Y-51348940D01*
X88073050Y-51371519D01*
X88075604Y-51397454D01*
X88075604Y-52202546D01*
X88073050Y-52228481D01*
X88066201Y-52251060D01*
X88055077Y-52271871D01*
X88040109Y-52290109D01*
X88021871Y-52305077D01*
X88001060Y-52316201D01*
X87978481Y-52323050D01*
X87952546Y-52325604D01*
X86497454Y-52325604D01*
X86471519Y-52323050D01*
X86448940Y-52316201D01*
X86428129Y-52305077D01*
X86409891Y-52290109D01*
X86394923Y-52271871D01*
X86383799Y-52251060D01*
X86376950Y-52228481D01*
X86374396Y-52202546D01*
X86374396Y-51397454D01*
X86376950Y-51371519D01*
X86383799Y-51348940D01*
X86394923Y-51328129D01*
X86409891Y-51309891D01*
X86428129Y-51294923D01*
X86448940Y-51283799D01*
X86471519Y-51276950D01*
X86497454Y-51274396D01*
X87952546Y-51274396D01*
X87978481Y-51276950D01*
X87978481Y-51276950D01*
G37*
G36*
X83528481Y-51276950D02*
X83551060Y-51283799D01*
X83571871Y-51294923D01*
X83590109Y-51309891D01*
X83605077Y-51328129D01*
X83616201Y-51348940D01*
X83623050Y-51371519D01*
X83625604Y-51397454D01*
X83625604Y-52202546D01*
X83623050Y-52228481D01*
X83616201Y-52251060D01*
X83605077Y-52271871D01*
X83590109Y-52290109D01*
X83571871Y-52305077D01*
X83551060Y-52316201D01*
X83528481Y-52323050D01*
X83502546Y-52325604D01*
X82047454Y-52325604D01*
X82021519Y-52323050D01*
X81998940Y-52316201D01*
X81978129Y-52305077D01*
X81959891Y-52290109D01*
X81944923Y-52271871D01*
X81933799Y-52251060D01*
X81926950Y-52228481D01*
X81924396Y-52202546D01*
X81924396Y-51397454D01*
X81926950Y-51371519D01*
X81933799Y-51348940D01*
X81944923Y-51328129D01*
X81959891Y-51309891D01*
X81978129Y-51294923D01*
X81998940Y-51283799D01*
X82021519Y-51276950D01*
X82047454Y-51274396D01*
X83502546Y-51274396D01*
X83528481Y-51276950D01*
X83528481Y-51276950D01*
G37*
G36*
X53528481Y-51276950D02*
X53551060Y-51283799D01*
X53571871Y-51294923D01*
X53590109Y-51309891D01*
X53605077Y-51328129D01*
X53616201Y-51348940D01*
X53623050Y-51371519D01*
X53625604Y-51397454D01*
X53625604Y-52202546D01*
X53623050Y-52228481D01*
X53616201Y-52251060D01*
X53605077Y-52271871D01*
X53590109Y-52290109D01*
X53571871Y-52305077D01*
X53551060Y-52316201D01*
X53528481Y-52323050D01*
X53502546Y-52325604D01*
X52047454Y-52325604D01*
X52021519Y-52323050D01*
X51998940Y-52316201D01*
X51978129Y-52305077D01*
X51959891Y-52290109D01*
X51944923Y-52271871D01*
X51933799Y-52251060D01*
X51926950Y-52228481D01*
X51924396Y-52202546D01*
X51924396Y-51397454D01*
X51926950Y-51371519D01*
X51933799Y-51348940D01*
X51944923Y-51328129D01*
X51959891Y-51309891D01*
X51978129Y-51294923D01*
X51998940Y-51283799D01*
X52021519Y-51276950D01*
X52047454Y-51274396D01*
X53502546Y-51274396D01*
X53528481Y-51276950D01*
X53528481Y-51276950D01*
G37*
G36*
X57978481Y-51276950D02*
X58001060Y-51283799D01*
X58021871Y-51294923D01*
X58040109Y-51309891D01*
X58055077Y-51328129D01*
X58066201Y-51348940D01*
X58073050Y-51371519D01*
X58075604Y-51397454D01*
X58075604Y-52202546D01*
X58073050Y-52228481D01*
X58066201Y-52251060D01*
X58055077Y-52271871D01*
X58040109Y-52290109D01*
X58021871Y-52305077D01*
X58001060Y-52316201D01*
X57978481Y-52323050D01*
X57952546Y-52325604D01*
X56497454Y-52325604D01*
X56471519Y-52323050D01*
X56448940Y-52316201D01*
X56428129Y-52305077D01*
X56409891Y-52290109D01*
X56394923Y-52271871D01*
X56383799Y-52251060D01*
X56376950Y-52228481D01*
X56374396Y-52202546D01*
X56374396Y-51397454D01*
X56376950Y-51371519D01*
X56383799Y-51348940D01*
X56394923Y-51328129D01*
X56409891Y-51309891D01*
X56428129Y-51294923D01*
X56448940Y-51283799D01*
X56471519Y-51276950D01*
X56497454Y-51274396D01*
X57952546Y-51274396D01*
X57978481Y-51276950D01*
X57978481Y-51276950D01*
G37*
G36*
X63528481Y-51276950D02*
X63551060Y-51283799D01*
X63571871Y-51294923D01*
X63590109Y-51309891D01*
X63605077Y-51328129D01*
X63616201Y-51348940D01*
X63623050Y-51371519D01*
X63625604Y-51397454D01*
X63625604Y-52202546D01*
X63623050Y-52228481D01*
X63616201Y-52251060D01*
X63605077Y-52271871D01*
X63590109Y-52290109D01*
X63571871Y-52305077D01*
X63551060Y-52316201D01*
X63528481Y-52323050D01*
X63502546Y-52325604D01*
X62047454Y-52325604D01*
X62021519Y-52323050D01*
X61998940Y-52316201D01*
X61978129Y-52305077D01*
X61959891Y-52290109D01*
X61944923Y-52271871D01*
X61933799Y-52251060D01*
X61926950Y-52228481D01*
X61924396Y-52202546D01*
X61924396Y-51397454D01*
X61926950Y-51371519D01*
X61933799Y-51348940D01*
X61944923Y-51328129D01*
X61959891Y-51309891D01*
X61978129Y-51294923D01*
X61998940Y-51283799D01*
X62021519Y-51276950D01*
X62047454Y-51274396D01*
X63502546Y-51274396D01*
X63528481Y-51276950D01*
X63528481Y-51276950D01*
G37*
G36*
X77978481Y-51276950D02*
X78001060Y-51283799D01*
X78021871Y-51294923D01*
X78040109Y-51309891D01*
X78055077Y-51328129D01*
X78066201Y-51348940D01*
X78073050Y-51371519D01*
X78075604Y-51397454D01*
X78075604Y-52202546D01*
X78073050Y-52228481D01*
X78066201Y-52251060D01*
X78055077Y-52271871D01*
X78040109Y-52290109D01*
X78021871Y-52305077D01*
X78001060Y-52316201D01*
X77978481Y-52323050D01*
X77952546Y-52325604D01*
X76497454Y-52325604D01*
X76471519Y-52323050D01*
X76448940Y-52316201D01*
X76428129Y-52305077D01*
X76409891Y-52290109D01*
X76394923Y-52271871D01*
X76383799Y-52251060D01*
X76376950Y-52228481D01*
X76374396Y-52202546D01*
X76374396Y-51397454D01*
X76376950Y-51371519D01*
X76383799Y-51348940D01*
X76394923Y-51328129D01*
X76409891Y-51309891D01*
X76428129Y-51294923D01*
X76448940Y-51283799D01*
X76471519Y-51276950D01*
X76497454Y-51274396D01*
X77952546Y-51274396D01*
X77978481Y-51276950D01*
X77978481Y-51276950D01*
G37*
G36*
X67978481Y-51276950D02*
X68001060Y-51283799D01*
X68021871Y-51294923D01*
X68040109Y-51309891D01*
X68055077Y-51328129D01*
X68066201Y-51348940D01*
X68073050Y-51371519D01*
X68075604Y-51397454D01*
X68075604Y-52202546D01*
X68073050Y-52228481D01*
X68066201Y-52251060D01*
X68055077Y-52271871D01*
X68040109Y-52290109D01*
X68021871Y-52305077D01*
X68001060Y-52316201D01*
X67978481Y-52323050D01*
X67952546Y-52325604D01*
X66497454Y-52325604D01*
X66471519Y-52323050D01*
X66448940Y-52316201D01*
X66428129Y-52305077D01*
X66409891Y-52290109D01*
X66394923Y-52271871D01*
X66383799Y-52251060D01*
X66376950Y-52228481D01*
X66374396Y-52202546D01*
X66374396Y-51397454D01*
X66376950Y-51371519D01*
X66383799Y-51348940D01*
X66394923Y-51328129D01*
X66409891Y-51309891D01*
X66428129Y-51294923D01*
X66448940Y-51283799D01*
X66471519Y-51276950D01*
X66497454Y-51274396D01*
X67952546Y-51274396D01*
X67978481Y-51276950D01*
X67978481Y-51276950D01*
G37*
G36*
X73528481Y-51276950D02*
X73551060Y-51283799D01*
X73571871Y-51294923D01*
X73590109Y-51309891D01*
X73605077Y-51328129D01*
X73616201Y-51348940D01*
X73623050Y-51371519D01*
X73625604Y-51397454D01*
X73625604Y-52202546D01*
X73623050Y-52228481D01*
X73616201Y-52251060D01*
X73605077Y-52271871D01*
X73590109Y-52290109D01*
X73571871Y-52305077D01*
X73551060Y-52316201D01*
X73528481Y-52323050D01*
X73502546Y-52325604D01*
X72047454Y-52325604D01*
X72021519Y-52323050D01*
X71998940Y-52316201D01*
X71978129Y-52305077D01*
X71959891Y-52290109D01*
X71944923Y-52271871D01*
X71933799Y-52251060D01*
X71926950Y-52228481D01*
X71924396Y-52202546D01*
X71924396Y-51397454D01*
X71926950Y-51371519D01*
X71933799Y-51348940D01*
X71944923Y-51328129D01*
X71959891Y-51309891D01*
X71978129Y-51294923D01*
X71998940Y-51283799D01*
X72021519Y-51276950D01*
X72047454Y-51274396D01*
X73502546Y-51274396D01*
X73528481Y-51276950D01*
X73528481Y-51276950D01*
G37*
M02*
