%TF.GenerationSoftware,KiCad,Pcbnew,no-vcs-found-e797af3~59~ubuntu17.04.1*%
%TF.CreationDate,2017-07-18T09:18:03+02:00*%
%TF.ProjectId,LEDBoard_4x4_16bit,4C4544426F6172645F3478345F313662,0.1*%
%TF.SameCoordinates,Original%
%TF.FileFunction,Soldermask,Bot*%
%TF.FilePolarity,Negative*%
%FSLAX46Y46*%
G04 Gerber Fmt 4.6, Leading zero omitted, Abs format (unit mm)*
G04 Created by KiCad (PCBNEW no-vcs-found-e797af3~59~ubuntu17.04.1) date Tue Jul 18 09:18:03 2017*
%MOMM*%
%LPD*%
G01*
G04 APERTURE LIST*
%ADD10C,0.100000*%
G04 APERTURE END LIST*
D10*
G36*
X66375949Y-87089409D02*
X66375963Y-87089413D01*
X66375997Y-87089417D01*
X66548452Y-87142801D01*
X66707253Y-87228664D01*
X66846353Y-87343737D01*
X66960452Y-87483637D01*
X67045205Y-87643034D01*
X67097384Y-87815857D01*
X67115000Y-87995524D01*
X67115000Y-88004476D01*
X67114910Y-88017391D01*
X67094787Y-88196794D01*
X67040200Y-88368872D01*
X66953230Y-88527070D01*
X66837189Y-88665363D01*
X66696496Y-88778483D01*
X66536511Y-88862121D01*
X66363328Y-88913092D01*
X66363294Y-88913095D01*
X66363281Y-88913099D01*
X66183544Y-88929456D01*
X66004051Y-88910591D01*
X66004037Y-88910587D01*
X66004003Y-88910583D01*
X65831548Y-88857199D01*
X65672747Y-88771336D01*
X65533647Y-88656263D01*
X65419548Y-88516363D01*
X65334795Y-88356966D01*
X65282616Y-88184143D01*
X65265000Y-88004476D01*
X65265000Y-87995524D01*
X65265090Y-87982609D01*
X65285213Y-87803206D01*
X65339800Y-87631128D01*
X65426770Y-87472930D01*
X65542811Y-87334637D01*
X65683504Y-87221517D01*
X65843489Y-87137879D01*
X66016672Y-87086908D01*
X66016706Y-87086905D01*
X66016719Y-87086901D01*
X66196456Y-87070544D01*
X66375949Y-87089409D01*
X66375949Y-87089409D01*
G37*
G36*
X68915949Y-87089409D02*
X68915963Y-87089413D01*
X68915997Y-87089417D01*
X69088452Y-87142801D01*
X69247253Y-87228664D01*
X69386353Y-87343737D01*
X69500452Y-87483637D01*
X69585205Y-87643034D01*
X69637384Y-87815857D01*
X69655000Y-87995524D01*
X69655000Y-88004476D01*
X69654910Y-88017391D01*
X69634787Y-88196794D01*
X69580200Y-88368872D01*
X69493230Y-88527070D01*
X69377189Y-88665363D01*
X69236496Y-88778483D01*
X69076511Y-88862121D01*
X68903328Y-88913092D01*
X68903294Y-88913095D01*
X68903281Y-88913099D01*
X68723544Y-88929456D01*
X68544051Y-88910591D01*
X68544037Y-88910587D01*
X68544003Y-88910583D01*
X68371548Y-88857199D01*
X68212747Y-88771336D01*
X68073647Y-88656263D01*
X67959548Y-88516363D01*
X67874795Y-88356966D01*
X67822616Y-88184143D01*
X67805000Y-88004476D01*
X67805000Y-87995524D01*
X67805090Y-87982609D01*
X67825213Y-87803206D01*
X67879800Y-87631128D01*
X67966770Y-87472930D01*
X68082811Y-87334637D01*
X68223504Y-87221517D01*
X68383489Y-87137879D01*
X68556672Y-87086908D01*
X68556706Y-87086905D01*
X68556719Y-87086901D01*
X68736456Y-87070544D01*
X68915949Y-87089409D01*
X68915949Y-87089409D01*
G37*
G36*
X71455949Y-87089409D02*
X71455963Y-87089413D01*
X71455997Y-87089417D01*
X71628452Y-87142801D01*
X71787253Y-87228664D01*
X71926353Y-87343737D01*
X72040452Y-87483637D01*
X72125205Y-87643034D01*
X72177384Y-87815857D01*
X72195000Y-87995524D01*
X72195000Y-88004476D01*
X72194910Y-88017391D01*
X72174787Y-88196794D01*
X72120200Y-88368872D01*
X72033230Y-88527070D01*
X71917189Y-88665363D01*
X71776496Y-88778483D01*
X71616511Y-88862121D01*
X71443328Y-88913092D01*
X71443294Y-88913095D01*
X71443281Y-88913099D01*
X71263544Y-88929456D01*
X71084051Y-88910591D01*
X71084037Y-88910587D01*
X71084003Y-88910583D01*
X70911548Y-88857199D01*
X70752747Y-88771336D01*
X70613647Y-88656263D01*
X70499548Y-88516363D01*
X70414795Y-88356966D01*
X70362616Y-88184143D01*
X70345000Y-88004476D01*
X70345000Y-87995524D01*
X70345090Y-87982609D01*
X70365213Y-87803206D01*
X70419800Y-87631128D01*
X70506770Y-87472930D01*
X70622811Y-87334637D01*
X70763504Y-87221517D01*
X70923489Y-87137879D01*
X71096672Y-87086908D01*
X71096706Y-87086905D01*
X71096719Y-87086901D01*
X71276456Y-87070544D01*
X71455949Y-87089409D01*
X71455949Y-87089409D01*
G37*
G36*
X73995949Y-87089409D02*
X73995963Y-87089413D01*
X73995997Y-87089417D01*
X74168452Y-87142801D01*
X74327253Y-87228664D01*
X74466353Y-87343737D01*
X74580452Y-87483637D01*
X74665205Y-87643034D01*
X74717384Y-87815857D01*
X74735000Y-87995524D01*
X74735000Y-88004476D01*
X74734910Y-88017391D01*
X74714787Y-88196794D01*
X74660200Y-88368872D01*
X74573230Y-88527070D01*
X74457189Y-88665363D01*
X74316496Y-88778483D01*
X74156511Y-88862121D01*
X73983328Y-88913092D01*
X73983294Y-88913095D01*
X73983281Y-88913099D01*
X73803544Y-88929456D01*
X73624051Y-88910591D01*
X73624037Y-88910587D01*
X73624003Y-88910583D01*
X73451548Y-88857199D01*
X73292747Y-88771336D01*
X73153647Y-88656263D01*
X73039548Y-88516363D01*
X72954795Y-88356966D01*
X72902616Y-88184143D01*
X72885000Y-88004476D01*
X72885000Y-87995524D01*
X72885090Y-87982609D01*
X72905213Y-87803206D01*
X72959800Y-87631128D01*
X73046770Y-87472930D01*
X73162811Y-87334637D01*
X73303504Y-87221517D01*
X73463489Y-87137879D01*
X73636672Y-87086908D01*
X73636706Y-87086905D01*
X73636719Y-87086901D01*
X73816456Y-87070544D01*
X73995949Y-87089409D01*
X73995949Y-87089409D01*
G37*
G36*
X76535949Y-87089409D02*
X76535963Y-87089413D01*
X76535997Y-87089417D01*
X76708452Y-87142801D01*
X76867253Y-87228664D01*
X77006353Y-87343737D01*
X77120452Y-87483637D01*
X77205205Y-87643034D01*
X77257384Y-87815857D01*
X77275000Y-87995524D01*
X77275000Y-88004476D01*
X77274910Y-88017391D01*
X77254787Y-88196794D01*
X77200200Y-88368872D01*
X77113230Y-88527070D01*
X76997189Y-88665363D01*
X76856496Y-88778483D01*
X76696511Y-88862121D01*
X76523328Y-88913092D01*
X76523294Y-88913095D01*
X76523281Y-88913099D01*
X76343544Y-88929456D01*
X76164051Y-88910591D01*
X76164037Y-88910587D01*
X76164003Y-88910583D01*
X75991548Y-88857199D01*
X75832747Y-88771336D01*
X75693647Y-88656263D01*
X75579548Y-88516363D01*
X75494795Y-88356966D01*
X75442616Y-88184143D01*
X75425000Y-88004476D01*
X75425000Y-87995524D01*
X75425090Y-87982609D01*
X75445213Y-87803206D01*
X75499800Y-87631128D01*
X75586770Y-87472930D01*
X75702811Y-87334637D01*
X75843504Y-87221517D01*
X76003489Y-87137879D01*
X76176672Y-87086908D01*
X76176706Y-87086905D01*
X76176719Y-87086901D01*
X76356456Y-87070544D01*
X76535949Y-87089409D01*
X76535949Y-87089409D01*
G37*
G36*
X86455949Y-87089409D02*
X86455963Y-87089413D01*
X86455997Y-87089417D01*
X86628452Y-87142801D01*
X86787253Y-87228664D01*
X86926353Y-87343737D01*
X87040452Y-87483637D01*
X87125205Y-87643034D01*
X87177384Y-87815857D01*
X87195000Y-87995524D01*
X87195000Y-88004476D01*
X87194910Y-88017391D01*
X87174787Y-88196794D01*
X87120200Y-88368872D01*
X87033230Y-88527070D01*
X86917189Y-88665363D01*
X86776496Y-88778483D01*
X86616511Y-88862121D01*
X86443328Y-88913092D01*
X86443294Y-88913095D01*
X86443281Y-88913099D01*
X86263544Y-88929456D01*
X86084051Y-88910591D01*
X86084037Y-88910587D01*
X86084003Y-88910583D01*
X85911548Y-88857199D01*
X85752747Y-88771336D01*
X85613647Y-88656263D01*
X85499548Y-88516363D01*
X85414795Y-88356966D01*
X85362616Y-88184143D01*
X85345000Y-88004476D01*
X85345000Y-87995524D01*
X85345090Y-87982609D01*
X85365213Y-87803206D01*
X85419800Y-87631128D01*
X85506770Y-87472930D01*
X85622811Y-87334637D01*
X85763504Y-87221517D01*
X85923489Y-87137879D01*
X86096672Y-87086908D01*
X86096706Y-87086905D01*
X86096719Y-87086901D01*
X86276456Y-87070544D01*
X86455949Y-87089409D01*
X86455949Y-87089409D01*
G37*
G36*
X56455949Y-87089409D02*
X56455963Y-87089413D01*
X56455997Y-87089417D01*
X56628452Y-87142801D01*
X56787253Y-87228664D01*
X56926353Y-87343737D01*
X57040452Y-87483637D01*
X57125205Y-87643034D01*
X57177384Y-87815857D01*
X57195000Y-87995524D01*
X57195000Y-88004476D01*
X57194910Y-88017391D01*
X57174787Y-88196794D01*
X57120200Y-88368872D01*
X57033230Y-88527070D01*
X56917189Y-88665363D01*
X56776496Y-88778483D01*
X56616511Y-88862121D01*
X56443328Y-88913092D01*
X56443294Y-88913095D01*
X56443281Y-88913099D01*
X56263544Y-88929456D01*
X56084051Y-88910591D01*
X56084037Y-88910587D01*
X56084003Y-88910583D01*
X55911548Y-88857199D01*
X55752747Y-88771336D01*
X55613647Y-88656263D01*
X55499548Y-88516363D01*
X55414795Y-88356966D01*
X55362616Y-88184143D01*
X55345000Y-88004476D01*
X55345000Y-87995524D01*
X55345090Y-87982609D01*
X55365213Y-87803206D01*
X55419800Y-87631128D01*
X55506770Y-87472930D01*
X55622811Y-87334637D01*
X55763504Y-87221517D01*
X55923489Y-87137879D01*
X56096672Y-87086908D01*
X56096706Y-87086905D01*
X56096719Y-87086901D01*
X56276456Y-87070544D01*
X56455949Y-87089409D01*
X56455949Y-87089409D01*
G37*
G36*
X64575000Y-88925000D02*
X62725000Y-88925000D01*
X62725000Y-87075000D01*
X64575000Y-87075000D01*
X64575000Y-88925000D01*
X64575000Y-88925000D01*
G37*
G36*
X54655000Y-88925000D02*
X52805000Y-88925000D01*
X52805000Y-87075000D01*
X54655000Y-87075000D01*
X54655000Y-88925000D01*
X54655000Y-88925000D01*
G37*
G36*
X84655000Y-88925000D02*
X82805000Y-88925000D01*
X82805000Y-87075000D01*
X84655000Y-87075000D01*
X84655000Y-88925000D01*
X84655000Y-88925000D01*
G37*
G36*
X80307225Y-65076946D02*
X80869133Y-65192290D01*
X81397932Y-65414576D01*
X81873487Y-65735342D01*
X82277683Y-66142370D01*
X82595121Y-66620151D01*
X82813710Y-67150489D01*
X82925060Y-67712845D01*
X82925060Y-67712855D01*
X82925126Y-67713189D01*
X82915977Y-68368374D01*
X82915901Y-68368708D01*
X82915901Y-68368720D01*
X82788895Y-68927740D01*
X82555581Y-69451771D01*
X82224927Y-69920503D01*
X81809521Y-70316088D01*
X81325200Y-70623448D01*
X80790397Y-70830885D01*
X80225491Y-70930493D01*
X79651995Y-70918480D01*
X79091747Y-70795302D01*
X78566105Y-70565654D01*
X78095076Y-70238280D01*
X77696602Y-69825648D01*
X77385868Y-69343484D01*
X77174703Y-68810143D01*
X77071152Y-68245939D01*
X77079162Y-67672374D01*
X77198424Y-67111290D01*
X77424399Y-66584051D01*
X77748477Y-66110748D01*
X78158316Y-65709403D01*
X78638301Y-65395309D01*
X79170155Y-65180427D01*
X79733613Y-65072941D01*
X80307225Y-65076946D01*
X80307225Y-65076946D01*
G37*
G36*
X60307225Y-65076946D02*
X60869133Y-65192290D01*
X61397932Y-65414576D01*
X61873487Y-65735342D01*
X62277683Y-66142370D01*
X62595121Y-66620151D01*
X62813710Y-67150489D01*
X62925060Y-67712845D01*
X62925060Y-67712855D01*
X62925126Y-67713189D01*
X62915977Y-68368374D01*
X62915901Y-68368708D01*
X62915901Y-68368720D01*
X62788895Y-68927740D01*
X62555581Y-69451771D01*
X62224927Y-69920503D01*
X61809521Y-70316088D01*
X61325200Y-70623448D01*
X60790397Y-70830885D01*
X60225491Y-70930493D01*
X59651995Y-70918480D01*
X59091747Y-70795302D01*
X58566105Y-70565654D01*
X58095076Y-70238280D01*
X57696602Y-69825648D01*
X57385868Y-69343484D01*
X57174703Y-68810143D01*
X57071152Y-68245939D01*
X57079162Y-67672374D01*
X57198424Y-67111290D01*
X57424399Y-66584051D01*
X57748477Y-66110748D01*
X58158316Y-65709403D01*
X58638301Y-65395309D01*
X59170155Y-65180427D01*
X59733613Y-65072941D01*
X60307225Y-65076946D01*
X60307225Y-65076946D01*
G37*
M02*
