%FSLAX45Y45*%
G04 Gerber Fmt 4.5, Leading zero omitted, Abs format (unit mm)*
G04 Created by KiCad (PCBNEW no-vcs-found-2c23c4c~60~ubuntu17.04.1) date Wed Sep 27 11:51:05 2017*
%MOMM*%
%LPD*%
G01*
G04 APERTURE LIST*
%ADD10C,0.150000*%
%ADD11C,0.200000*%
%ADD12C,0.300000*%
G04 APERTURE END LIST*
D10*
X8975000Y-8900000D02*
G75*
G02X8925000Y-8950000I-50000J0D01*
G01*
X8925000Y-5000000D02*
G75*
G02X8975000Y-5050000I0J-50000D01*
G01*
X5025000Y-5050000D02*
G75*
G02X5075000Y-5000000I50000J0D01*
G01*
X5075000Y-8950000D02*
G75*
G02X5025000Y-8900000I0J50000D01*
G01*
X5025000Y-8900000D02*
X5025000Y-5050000D01*
X8925000Y-8950000D02*
X5075000Y-8950000D01*
X8975000Y-5050000D02*
X8975000Y-8900000D01*
X5075000Y-5000000D02*
X8925000Y-5000000D01*
D11*
X5435000Y-5785002D02*
X5465000Y-5815002D01*
X5465000Y-5785002D02*
X5435000Y-5815002D01*
X5460000Y-5610000D02*
X5490000Y-5640000D01*
X5490000Y-5610000D02*
X5460000Y-5640000D01*
X5460000Y-7610000D02*
X5490000Y-7640000D01*
X5490000Y-7610000D02*
X5460000Y-7640000D01*
X5510005Y-5885000D02*
X5540005Y-5915000D01*
X5540005Y-5885000D02*
X5510005Y-5915000D01*
X5535000Y-5585000D02*
X5565000Y-5615000D01*
X5565000Y-5585000D02*
X5535000Y-5615000D01*
X5535000Y-7585000D02*
X5565000Y-7615000D01*
X5565000Y-7585000D02*
X5535000Y-7615000D01*
X5610000Y-5565001D02*
X5640000Y-5595001D01*
X5640000Y-5565001D02*
X5610000Y-5595001D01*
X5610000Y-7565001D02*
X5640000Y-7595001D01*
X5640000Y-7565001D02*
X5610000Y-7595001D01*
X5760000Y-5160000D02*
X5790000Y-5190000D01*
X5790000Y-5160000D02*
X5760000Y-5190000D01*
X5760000Y-7160000D02*
X5790000Y-7190000D01*
X5790000Y-7160000D02*
X5760000Y-7190000D01*
X5785000Y-6410000D02*
X5815000Y-6440000D01*
X5815000Y-6410000D02*
X5785000Y-6440000D01*
X5785000Y-8485000D02*
X5815000Y-8515000D01*
X5815000Y-8485000D02*
X5785000Y-8515000D01*
X5835000Y-5160000D02*
X5865000Y-5190000D01*
X5865000Y-5160000D02*
X5835000Y-5190000D01*
X5835000Y-7160000D02*
X5865000Y-7190000D01*
X5865000Y-7160000D02*
X5835000Y-7190000D01*
X5860000Y-8210000D02*
X5890000Y-8240000D01*
X5890000Y-8210000D02*
X5860000Y-8240000D01*
X5860000Y-8540001D02*
X5890000Y-8570001D01*
X5890000Y-8540001D02*
X5860000Y-8570001D01*
X5881966Y-6206966D02*
X5911966Y-6236966D01*
X5911966Y-6206966D02*
X5881966Y-6236966D01*
X5883609Y-6420001D02*
X5913609Y-6450001D01*
X5913609Y-6420001D02*
X5883609Y-6450001D01*
X5910001Y-5160000D02*
X5940001Y-5190000D01*
X5940001Y-5160000D02*
X5910001Y-5190000D01*
X5910001Y-7160000D02*
X5940001Y-7190000D01*
X5940001Y-7160000D02*
X5910001Y-7190000D01*
X5935000Y-8575002D02*
X5965000Y-8605002D01*
X5965000Y-8575002D02*
X5935000Y-8605002D01*
X5949999Y-8285310D02*
X5979999Y-8315310D01*
X5979999Y-8285310D02*
X5949999Y-8315310D01*
X6010000Y-6310000D02*
X6040000Y-6340000D01*
X6040000Y-6310000D02*
X6010000Y-6340000D01*
X6010000Y-8410000D02*
X6040000Y-8440000D01*
X6040000Y-8410000D02*
X6010000Y-8440000D01*
X6060000Y-8310000D02*
X6090000Y-8340000D01*
X6090000Y-8310000D02*
X6060000Y-8340000D01*
X6160000Y-6435000D02*
X6190000Y-6465000D01*
X6190000Y-6435000D02*
X6160000Y-6465000D01*
X6333289Y-6029999D02*
X6363289Y-6059999D01*
X6363289Y-6029999D02*
X6333289Y-6059999D01*
X6333289Y-8029999D02*
X6363289Y-8059999D01*
X6363289Y-8029999D02*
X6333289Y-8059999D01*
X6410000Y-6035000D02*
X6440000Y-6065000D01*
X6440000Y-6035000D02*
X6410000Y-6065000D01*
X6410000Y-8035000D02*
X6440000Y-8065000D01*
X6440000Y-8035000D02*
X6410000Y-8065000D01*
X6585000Y-5685000D02*
X6615000Y-5715000D01*
X6615000Y-5685000D02*
X6585000Y-5715000D01*
X6585000Y-7685000D02*
X6615000Y-7715000D01*
X6615000Y-7685000D02*
X6585000Y-7715000D01*
X6805000Y-6885000D02*
X6835000Y-6915000D01*
X6835000Y-6885000D02*
X6805000Y-6915000D01*
X6805000Y-6945000D02*
X6835000Y-6975000D01*
X6835000Y-6945000D02*
X6805000Y-6975000D01*
X6805000Y-7005000D02*
X6835000Y-7035000D01*
X6835000Y-7005000D02*
X6805000Y-7035000D01*
X6810000Y-8060000D02*
X6840000Y-8090000D01*
X6840000Y-8060000D02*
X6810000Y-8090000D01*
X6835000Y-5585000D02*
X6865000Y-5615000D01*
X6865000Y-5585000D02*
X6835000Y-5615000D01*
X6835000Y-5735000D02*
X6865000Y-5765000D01*
X6865000Y-5735000D02*
X6835000Y-5765000D01*
X6835000Y-5934996D02*
X6865000Y-5964996D01*
X6865000Y-5934996D02*
X6835000Y-5964996D01*
X6935000Y-6010000D02*
X6965000Y-6040000D01*
X6965000Y-6010000D02*
X6935000Y-6040000D01*
X6935000Y-8135000D02*
X6965000Y-8165000D01*
X6965000Y-8135000D02*
X6935000Y-8165000D01*
X6990001Y-6885000D02*
X7020001Y-6915000D01*
X7020001Y-6885000D02*
X6990001Y-6915000D01*
X6990001Y-6945000D02*
X7020001Y-6975000D01*
X7020001Y-6945000D02*
X6990001Y-6975000D01*
X6990001Y-7005000D02*
X7020001Y-7035000D01*
X7020001Y-7005000D02*
X6990001Y-7035000D01*
X7060000Y-5585000D02*
X7090000Y-5615000D01*
X7090000Y-5585000D02*
X7060000Y-5615000D01*
X7085000Y-7735000D02*
X7115000Y-7765000D01*
X7115000Y-7735000D02*
X7085000Y-7765000D01*
X7085000Y-7910003D02*
X7115000Y-7940003D01*
X7115000Y-7910003D02*
X7085000Y-7940003D01*
X7085002Y-5710000D02*
X7115002Y-5740000D01*
X7115002Y-5710000D02*
X7085002Y-5740000D01*
X7110000Y-5985002D02*
X7140000Y-6015002D01*
X7140000Y-5985002D02*
X7110000Y-6015002D01*
X7110001Y-5860000D02*
X7140001Y-5890000D01*
X7140001Y-5860000D02*
X7110001Y-5890000D01*
X7285000Y-5710000D02*
X7315000Y-5740000D01*
X7315000Y-5710000D02*
X7285000Y-5740000D01*
X7385000Y-5760000D02*
X7415000Y-5790000D01*
X7415000Y-5760000D02*
X7385000Y-5790000D01*
X7435000Y-5860000D02*
X7465000Y-5890000D01*
X7465000Y-5860000D02*
X7435000Y-5890000D01*
X7435000Y-5985000D02*
X7465000Y-6015000D01*
X7465000Y-5985000D02*
X7435000Y-6015000D01*
X7435000Y-7735000D02*
X7465000Y-7765000D01*
X7465000Y-7735000D02*
X7435000Y-7765000D01*
X7435000Y-7860000D02*
X7465000Y-7890000D01*
X7465000Y-7860000D02*
X7435000Y-7890000D01*
X7460000Y-5610000D02*
X7490000Y-5640000D01*
X7490000Y-5610000D02*
X7460000Y-5640000D01*
X7460000Y-7610000D02*
X7490000Y-7640000D01*
X7490000Y-7610000D02*
X7460000Y-7640000D01*
X7535000Y-5585000D02*
X7565000Y-5615000D01*
X7565000Y-5585000D02*
X7535000Y-5615000D01*
X7535000Y-7585000D02*
X7565000Y-7615000D01*
X7565000Y-7585000D02*
X7535000Y-7615000D01*
X7610000Y-5565001D02*
X7640000Y-5595001D01*
X7640000Y-5565001D02*
X7610000Y-5595001D01*
X7610000Y-7565001D02*
X7640000Y-7595001D01*
X7640000Y-7565001D02*
X7610000Y-7595001D01*
X7760000Y-5160000D02*
X7790000Y-5190000D01*
X7790000Y-5160000D02*
X7760000Y-5190000D01*
X7760000Y-7160000D02*
X7790000Y-7190000D01*
X7790000Y-7160000D02*
X7760000Y-7190000D01*
X7785000Y-6410000D02*
X7815000Y-6440000D01*
X7815000Y-6410000D02*
X7785000Y-6440000D01*
X7785000Y-8460000D02*
X7815000Y-8490000D01*
X7815000Y-8460000D02*
X7785000Y-8490000D01*
X7835000Y-5160000D02*
X7865000Y-5190000D01*
X7865000Y-5160000D02*
X7835000Y-5190000D01*
X7835000Y-7160000D02*
X7865000Y-7190000D01*
X7865000Y-7160000D02*
X7835000Y-7190000D01*
X7860000Y-8510000D02*
X7890000Y-8540000D01*
X7890000Y-8510000D02*
X7860000Y-8540000D01*
X7884996Y-6410000D02*
X7914996Y-6440000D01*
X7914996Y-6410000D02*
X7884996Y-6440000D01*
X7910000Y-8235000D02*
X7940000Y-8265000D01*
X7940000Y-8235000D02*
X7910000Y-8265000D01*
X7910001Y-5160000D02*
X7940001Y-5190000D01*
X7940001Y-5160000D02*
X7910001Y-5190000D01*
X7910001Y-7160000D02*
X7940001Y-7190000D01*
X7940001Y-7160000D02*
X7910001Y-7190000D01*
X7960000Y-8330000D02*
X7990000Y-8360000D01*
X7990000Y-8330000D02*
X7960000Y-8360000D01*
X7960000Y-8485000D02*
X7990000Y-8515000D01*
X7990000Y-8485000D02*
X7960000Y-8515000D01*
X8134999Y-6410000D02*
X8164999Y-6440000D01*
X8164999Y-6410000D02*
X8134999Y-6440000D01*
X8333289Y-6029999D02*
X8363289Y-6059999D01*
X8363289Y-6029999D02*
X8333289Y-6059999D01*
X8333289Y-8029999D02*
X8363289Y-8059999D01*
X8363289Y-8029999D02*
X8333289Y-8059999D01*
X8410000Y-6035000D02*
X8440000Y-6065000D01*
X8440000Y-6035000D02*
X8410000Y-6065000D01*
X8410000Y-8035000D02*
X8440000Y-8065000D01*
X8440000Y-8035000D02*
X8410000Y-8065000D01*
X8585000Y-5685000D02*
X8615000Y-5715000D01*
X8615000Y-5685000D02*
X8585000Y-5715000D01*
X8585000Y-7685000D02*
X8615000Y-7715000D01*
X8615000Y-7685000D02*
X8585000Y-7715000D01*
X8295000Y-6175000D02*
X8325000Y-6205000D01*
X8325000Y-6175000D02*
X8295000Y-6205000D01*
X8295000Y-6285000D02*
X8325000Y-6315000D01*
X8325000Y-6285000D02*
X8295000Y-6315000D01*
X8295000Y-6395000D02*
X8325000Y-6425000D01*
X8325000Y-6395000D02*
X8295000Y-6425000D01*
X8410000Y-6175000D02*
X8440000Y-6205000D01*
X8440000Y-6175000D02*
X8410000Y-6205000D01*
X8410000Y-6285000D02*
X8440000Y-6315000D01*
X8440000Y-6285000D02*
X8410000Y-6315000D01*
X8410000Y-6395000D02*
X8440000Y-6425000D01*
X8440000Y-6395000D02*
X8410000Y-6425000D01*
X8525000Y-6175000D02*
X8555000Y-6205000D01*
X8555000Y-6175000D02*
X8525000Y-6205000D01*
X8525000Y-6285000D02*
X8555000Y-6315000D01*
X8555000Y-6285000D02*
X8525000Y-6315000D01*
X8525000Y-6395000D02*
X8555000Y-6425000D01*
X8555000Y-6395000D02*
X8525000Y-6425000D01*
X6295000Y-5175000D02*
X6325000Y-5205000D01*
X6325000Y-5175000D02*
X6295000Y-5205000D01*
X6295000Y-5285000D02*
X6325000Y-5315000D01*
X6325000Y-5285000D02*
X6295000Y-5315000D01*
X6295000Y-5395000D02*
X6325000Y-5425000D01*
X6325000Y-5395000D02*
X6295000Y-5425000D01*
X6410000Y-5175000D02*
X6440000Y-5205000D01*
X6440000Y-5175000D02*
X6410000Y-5205000D01*
X6410000Y-5285000D02*
X6440000Y-5315000D01*
X6440000Y-5285000D02*
X6410000Y-5315000D01*
X6410000Y-5395000D02*
X6440000Y-5425000D01*
X6440000Y-5395000D02*
X6410000Y-5425000D01*
X6525000Y-5175000D02*
X6555000Y-5205000D01*
X6555000Y-5175000D02*
X6525000Y-5205000D01*
X6525000Y-5285000D02*
X6555000Y-5315000D01*
X6555000Y-5285000D02*
X6525000Y-5315000D01*
X6525000Y-5395000D02*
X6555000Y-5425000D01*
X6555000Y-5395000D02*
X6525000Y-5425000D01*
X5295000Y-7175000D02*
X5325000Y-7205000D01*
X5325000Y-7175000D02*
X5295000Y-7205000D01*
X5295000Y-7285000D02*
X5325000Y-7315000D01*
X5325000Y-7285000D02*
X5295000Y-7315000D01*
X5295000Y-7395000D02*
X5325000Y-7425000D01*
X5325000Y-7395000D02*
X5295000Y-7425000D01*
X5410000Y-7175000D02*
X5440000Y-7205000D01*
X5440000Y-7175000D02*
X5410000Y-7205000D01*
X5410000Y-7285000D02*
X5440000Y-7315000D01*
X5440000Y-7285000D02*
X5410000Y-7315000D01*
X5410000Y-7395000D02*
X5440000Y-7425000D01*
X5440000Y-7395000D02*
X5410000Y-7425000D01*
X5525000Y-7175000D02*
X5555000Y-7205000D01*
X5555000Y-7175000D02*
X5525000Y-7205000D01*
X5525000Y-7285000D02*
X5555000Y-7315000D01*
X5555000Y-7285000D02*
X5525000Y-7315000D01*
X5525000Y-7395000D02*
X5555000Y-7425000D01*
X5555000Y-7395000D02*
X5525000Y-7425000D01*
X7295000Y-6175000D02*
X7325000Y-6205000D01*
X7325000Y-6175000D02*
X7295000Y-6205000D01*
X7295000Y-6285000D02*
X7325000Y-6315000D01*
X7325000Y-6285000D02*
X7295000Y-6315000D01*
X7295000Y-6395000D02*
X7325000Y-6425000D01*
X7325000Y-6395000D02*
X7295000Y-6425000D01*
X7410000Y-6175000D02*
X7440000Y-6205000D01*
X7440000Y-6175000D02*
X7410000Y-6205000D01*
X7410000Y-6285000D02*
X7440000Y-6315000D01*
X7440000Y-6285000D02*
X7410000Y-6315000D01*
X7410000Y-6395000D02*
X7440000Y-6425000D01*
X7440000Y-6395000D02*
X7410000Y-6425000D01*
X7525000Y-6175000D02*
X7555000Y-6205000D01*
X7555000Y-6175000D02*
X7525000Y-6205000D01*
X7525000Y-6285000D02*
X7555000Y-6315000D01*
X7555000Y-6285000D02*
X7525000Y-6315000D01*
X7525000Y-6395000D02*
X7555000Y-6425000D01*
X7555000Y-6395000D02*
X7525000Y-6425000D01*
X5295000Y-6175000D02*
X5325000Y-6205000D01*
X5325000Y-6175000D02*
X5295000Y-6205000D01*
X5295000Y-6285000D02*
X5325000Y-6315000D01*
X5325000Y-6285000D02*
X5295000Y-6315000D01*
X5295000Y-6395000D02*
X5325000Y-6425000D01*
X5325000Y-6395000D02*
X5295000Y-6425000D01*
X5410000Y-6175000D02*
X5440000Y-6205000D01*
X5440000Y-6175000D02*
X5410000Y-6205000D01*
X5410000Y-6285000D02*
X5440000Y-6315000D01*
X5440000Y-6285000D02*
X5410000Y-6315000D01*
X5410000Y-6395000D02*
X5440000Y-6425000D01*
X5440000Y-6395000D02*
X5410000Y-6425000D01*
X5525000Y-6175000D02*
X5555000Y-6205000D01*
X5555000Y-6175000D02*
X5525000Y-6205000D01*
X5525000Y-6285000D02*
X5555000Y-6315000D01*
X5555000Y-6285000D02*
X5525000Y-6315000D01*
X5525000Y-6395000D02*
X5555000Y-6425000D01*
X5555000Y-6395000D02*
X5525000Y-6425000D01*
X7295000Y-7175000D02*
X7325000Y-7205000D01*
X7325000Y-7175000D02*
X7295000Y-7205000D01*
X7295000Y-7285000D02*
X7325000Y-7315000D01*
X7325000Y-7285000D02*
X7295000Y-7315000D01*
X7295000Y-7395000D02*
X7325000Y-7425000D01*
X7325000Y-7395000D02*
X7295000Y-7425000D01*
X7410000Y-7175000D02*
X7440000Y-7205000D01*
X7440000Y-7175000D02*
X7410000Y-7205000D01*
X7410000Y-7285000D02*
X7440000Y-7315000D01*
X7440000Y-7285000D02*
X7410000Y-7315000D01*
X7410000Y-7395000D02*
X7440000Y-7425000D01*
X7440000Y-7395000D02*
X7410000Y-7425000D01*
X7525000Y-7175000D02*
X7555000Y-7205000D01*
X7555000Y-7175000D02*
X7525000Y-7205000D01*
X7525000Y-7285000D02*
X7555000Y-7315000D01*
X7555000Y-7285000D02*
X7525000Y-7315000D01*
X7525000Y-7395000D02*
X7555000Y-7425000D01*
X7555000Y-7395000D02*
X7525000Y-7425000D01*
X5709228Y-5876924D02*
X5739228Y-5906924D01*
X5739228Y-5876924D02*
X5709228Y-5906924D01*
X5801152Y-5785000D02*
X5831152Y-5815000D01*
X5831152Y-5785000D02*
X5801152Y-5815000D01*
X5801152Y-5968848D02*
X5831152Y-5998848D01*
X5831152Y-5968848D02*
X5801152Y-5998848D01*
X5893076Y-5693076D02*
X5923076Y-5723076D01*
X5923076Y-5693076D02*
X5893076Y-5723076D01*
X5893076Y-5876924D02*
X5923076Y-5906924D01*
X5923076Y-5876924D02*
X5893076Y-5906924D01*
X5893076Y-6060772D02*
X5923076Y-6090772D01*
X5923076Y-6060772D02*
X5893076Y-6090772D01*
X5985000Y-5601152D02*
X6015000Y-5631152D01*
X6015000Y-5601152D02*
X5985000Y-5631152D01*
X5985000Y-5785000D02*
X6015000Y-5815000D01*
X6015000Y-5785000D02*
X5985000Y-5815000D01*
X5985000Y-5968848D02*
X6015000Y-5998848D01*
X6015000Y-5968848D02*
X5985000Y-5998848D01*
X6076924Y-5509228D02*
X6106924Y-5539228D01*
X6106924Y-5509228D02*
X6076924Y-5539228D01*
X6076924Y-5693076D02*
X6106924Y-5723076D01*
X6106924Y-5693076D02*
X6076924Y-5723076D01*
X6076924Y-5876924D02*
X6106924Y-5906924D01*
X6106924Y-5876924D02*
X6076924Y-5906924D01*
X6168848Y-5601152D02*
X6198848Y-5631152D01*
X6198848Y-5601152D02*
X6168848Y-5631152D01*
X6168848Y-5785000D02*
X6198848Y-5815000D01*
X6198848Y-5785000D02*
X6168848Y-5815000D01*
X6260772Y-5693076D02*
X6290772Y-5723076D01*
X6290772Y-5693076D02*
X6260772Y-5723076D01*
X7295000Y-8175000D02*
X7325000Y-8205000D01*
X7325000Y-8175000D02*
X7295000Y-8205000D01*
X7295000Y-8285000D02*
X7325000Y-8315000D01*
X7325000Y-8285000D02*
X7295000Y-8315000D01*
X7295000Y-8395000D02*
X7325000Y-8425000D01*
X7325000Y-8395000D02*
X7295000Y-8425000D01*
X7410000Y-8175000D02*
X7440000Y-8205000D01*
X7440000Y-8175000D02*
X7410000Y-8205000D01*
X7410000Y-8285000D02*
X7440000Y-8315000D01*
X7440000Y-8285000D02*
X7410000Y-8315000D01*
X7410000Y-8395000D02*
X7440000Y-8425000D01*
X7440000Y-8395000D02*
X7410000Y-8425000D01*
X7525000Y-8175000D02*
X7555000Y-8205000D01*
X7555000Y-8175000D02*
X7525000Y-8205000D01*
X7525000Y-8285000D02*
X7555000Y-8315000D01*
X7555000Y-8285000D02*
X7525000Y-8315000D01*
X7525000Y-8395000D02*
X7555000Y-8425000D01*
X7555000Y-8395000D02*
X7525000Y-8425000D01*
X7709228Y-7876924D02*
X7739228Y-7906924D01*
X7739228Y-7876924D02*
X7709228Y-7906924D01*
X7801152Y-7785000D02*
X7831152Y-7815000D01*
X7831152Y-7785000D02*
X7801152Y-7815000D01*
X7801152Y-7968848D02*
X7831152Y-7998848D01*
X7831152Y-7968848D02*
X7801152Y-7998848D01*
X7893076Y-7693076D02*
X7923076Y-7723076D01*
X7923076Y-7693076D02*
X7893076Y-7723076D01*
X7893076Y-7876924D02*
X7923076Y-7906924D01*
X7923076Y-7876924D02*
X7893076Y-7906924D01*
X7893076Y-8060772D02*
X7923076Y-8090772D01*
X7923076Y-8060772D02*
X7893076Y-8090772D01*
X7985000Y-7601152D02*
X8015000Y-7631152D01*
X8015000Y-7601152D02*
X7985000Y-7631152D01*
X7985000Y-7785000D02*
X8015000Y-7815000D01*
X8015000Y-7785000D02*
X7985000Y-7815000D01*
X7985000Y-7968848D02*
X8015000Y-7998848D01*
X8015000Y-7968848D02*
X7985000Y-7998848D01*
X8076924Y-7509228D02*
X8106924Y-7539228D01*
X8106924Y-7509228D02*
X8076924Y-7539228D01*
X8076924Y-7693076D02*
X8106924Y-7723076D01*
X8106924Y-7693076D02*
X8076924Y-7723076D01*
X8076924Y-7876924D02*
X8106924Y-7906924D01*
X8106924Y-7876924D02*
X8076924Y-7906924D01*
X8168848Y-7601152D02*
X8198848Y-7631152D01*
X8198848Y-7601152D02*
X8168848Y-7631152D01*
X8168848Y-7785000D02*
X8198848Y-7815000D01*
X8198848Y-7785000D02*
X8168848Y-7815000D01*
X8260772Y-7693076D02*
X8290772Y-7723076D01*
X8290772Y-7693076D02*
X8260772Y-7723076D01*
X5709228Y-7876924D02*
X5739228Y-7906924D01*
X5739228Y-7876924D02*
X5709228Y-7906924D01*
X5801152Y-7785000D02*
X5831152Y-7815000D01*
X5831152Y-7785000D02*
X5801152Y-7815000D01*
X5801152Y-7968848D02*
X5831152Y-7998848D01*
X5831152Y-7968848D02*
X5801152Y-7998848D01*
X5893076Y-7693076D02*
X5923076Y-7723076D01*
X5923076Y-7693076D02*
X5893076Y-7723076D01*
X5893076Y-7876924D02*
X5923076Y-7906924D01*
X5923076Y-7876924D02*
X5893076Y-7906924D01*
X5893076Y-8060772D02*
X5923076Y-8090772D01*
X5923076Y-8060772D02*
X5893076Y-8090772D01*
X5985000Y-7601152D02*
X6015000Y-7631152D01*
X6015000Y-7601152D02*
X5985000Y-7631152D01*
X5985000Y-7785000D02*
X6015000Y-7815000D01*
X6015000Y-7785000D02*
X5985000Y-7815000D01*
X5985000Y-7968848D02*
X6015000Y-7998848D01*
X6015000Y-7968848D02*
X5985000Y-7998848D01*
X6076924Y-7509228D02*
X6106924Y-7539228D01*
X6106924Y-7509228D02*
X6076924Y-7539228D01*
X6076924Y-7693076D02*
X6106924Y-7723076D01*
X6106924Y-7693076D02*
X6076924Y-7723076D01*
X6076924Y-7876924D02*
X6106924Y-7906924D01*
X6106924Y-7876924D02*
X6076924Y-7906924D01*
X6168848Y-7601152D02*
X6198848Y-7631152D01*
X6198848Y-7601152D02*
X6168848Y-7631152D01*
X6168848Y-7785000D02*
X6198848Y-7815000D01*
X6198848Y-7785000D02*
X6168848Y-7815000D01*
X6260772Y-7693076D02*
X6290772Y-7723076D01*
X6290772Y-7693076D02*
X6260772Y-7723076D01*
X8295000Y-8175000D02*
X8325000Y-8205000D01*
X8325000Y-8175000D02*
X8295000Y-8205000D01*
X8295000Y-8285000D02*
X8325000Y-8315000D01*
X8325000Y-8285000D02*
X8295000Y-8315000D01*
X8295000Y-8395000D02*
X8325000Y-8425000D01*
X8325000Y-8395000D02*
X8295000Y-8425000D01*
X8410000Y-8175000D02*
X8440000Y-8205000D01*
X8440000Y-8175000D02*
X8410000Y-8205000D01*
X8410000Y-8285000D02*
X8440000Y-8315000D01*
X8440000Y-8285000D02*
X8410000Y-8315000D01*
X8410000Y-8395000D02*
X8440000Y-8425000D01*
X8440000Y-8395000D02*
X8410000Y-8425000D01*
X8525000Y-8175000D02*
X8555000Y-8205000D01*
X8555000Y-8175000D02*
X8525000Y-8205000D01*
X8525000Y-8285000D02*
X8555000Y-8315000D01*
X8555000Y-8285000D02*
X8525000Y-8315000D01*
X8525000Y-8395000D02*
X8555000Y-8425000D01*
X8555000Y-8395000D02*
X8525000Y-8425000D01*
X8295000Y-7175000D02*
X8325000Y-7205000D01*
X8325000Y-7175000D02*
X8295000Y-7205000D01*
X8295000Y-7285000D02*
X8325000Y-7315000D01*
X8325000Y-7285000D02*
X8295000Y-7315000D01*
X8295000Y-7395000D02*
X8325000Y-7425000D01*
X8325000Y-7395000D02*
X8295000Y-7425000D01*
X8410000Y-7175000D02*
X8440000Y-7205000D01*
X8440000Y-7175000D02*
X8410000Y-7205000D01*
X8410000Y-7285000D02*
X8440000Y-7315000D01*
X8440000Y-7285000D02*
X8410000Y-7315000D01*
X8410000Y-7395000D02*
X8440000Y-7425000D01*
X8440000Y-7395000D02*
X8410000Y-7425000D01*
X8525000Y-7175000D02*
X8555000Y-7205000D01*
X8555000Y-7175000D02*
X8525000Y-7205000D01*
X8525000Y-7285000D02*
X8555000Y-7315000D01*
X8555000Y-7285000D02*
X8525000Y-7315000D01*
X8525000Y-7395000D02*
X8555000Y-7425000D01*
X8555000Y-7395000D02*
X8525000Y-7425000D01*
X8295000Y-5175000D02*
X8325000Y-5205000D01*
X8325000Y-5175000D02*
X8295000Y-5205000D01*
X8295000Y-5285000D02*
X8325000Y-5315000D01*
X8325000Y-5285000D02*
X8295000Y-5315000D01*
X8295000Y-5395000D02*
X8325000Y-5425000D01*
X8325000Y-5395000D02*
X8295000Y-5425000D01*
X8410000Y-5175000D02*
X8440000Y-5205000D01*
X8440000Y-5175000D02*
X8410000Y-5205000D01*
X8410000Y-5285000D02*
X8440000Y-5315000D01*
X8440000Y-5285000D02*
X8410000Y-5315000D01*
X8410000Y-5395000D02*
X8440000Y-5425000D01*
X8440000Y-5395000D02*
X8410000Y-5425000D01*
X8525000Y-5175000D02*
X8555000Y-5205000D01*
X8555000Y-5175000D02*
X8525000Y-5205000D01*
X8525000Y-5285000D02*
X8555000Y-5315000D01*
X8555000Y-5285000D02*
X8525000Y-5315000D01*
X8525000Y-5395000D02*
X8555000Y-5425000D01*
X8555000Y-5395000D02*
X8525000Y-5425000D01*
X7709228Y-5876924D02*
X7739228Y-5906924D01*
X7739228Y-5876924D02*
X7709228Y-5906924D01*
X7801152Y-5785000D02*
X7831152Y-5815000D01*
X7831152Y-5785000D02*
X7801152Y-5815000D01*
X7801152Y-5968848D02*
X7831152Y-5998848D01*
X7831152Y-5968848D02*
X7801152Y-5998848D01*
X7893076Y-5693076D02*
X7923076Y-5723076D01*
X7923076Y-5693076D02*
X7893076Y-5723076D01*
X7893076Y-5876924D02*
X7923076Y-5906924D01*
X7923076Y-5876924D02*
X7893076Y-5906924D01*
X7893076Y-6060772D02*
X7923076Y-6090772D01*
X7923076Y-6060772D02*
X7893076Y-6090772D01*
X7985000Y-5601152D02*
X8015000Y-5631152D01*
X8015000Y-5601152D02*
X7985000Y-5631152D01*
X7985000Y-5785000D02*
X8015000Y-5815000D01*
X8015000Y-5785000D02*
X7985000Y-5815000D01*
X7985000Y-5968848D02*
X8015000Y-5998848D01*
X8015000Y-5968848D02*
X7985000Y-5998848D01*
X8076924Y-5509228D02*
X8106924Y-5539228D01*
X8106924Y-5509228D02*
X8076924Y-5539228D01*
X8076924Y-5693076D02*
X8106924Y-5723076D01*
X8106924Y-5693076D02*
X8076924Y-5723076D01*
X8076924Y-5876924D02*
X8106924Y-5906924D01*
X8106924Y-5876924D02*
X8076924Y-5906924D01*
X8168848Y-5601152D02*
X8198848Y-5631152D01*
X8198848Y-5601152D02*
X8168848Y-5631152D01*
X8168848Y-5785000D02*
X8198848Y-5815000D01*
X8198848Y-5785000D02*
X8168848Y-5815000D01*
X8260772Y-5693076D02*
X8290772Y-5723076D01*
X8290772Y-5693076D02*
X8260772Y-5723076D01*
X5295000Y-8175000D02*
X5325000Y-8205000D01*
X5325000Y-8175000D02*
X5295000Y-8205000D01*
X5295000Y-8285000D02*
X5325000Y-8315000D01*
X5325000Y-8285000D02*
X5295000Y-8315000D01*
X5295000Y-8395000D02*
X5325000Y-8425000D01*
X5325000Y-8395000D02*
X5295000Y-8425000D01*
X5410000Y-8175000D02*
X5440000Y-8205000D01*
X5440000Y-8175000D02*
X5410000Y-8205000D01*
X5410000Y-8285000D02*
X5440000Y-8315000D01*
X5440000Y-8285000D02*
X5410000Y-8315000D01*
X5410000Y-8395000D02*
X5440000Y-8425000D01*
X5440000Y-8395000D02*
X5410000Y-8425000D01*
X5525000Y-8175000D02*
X5555000Y-8205000D01*
X5555000Y-8175000D02*
X5525000Y-8205000D01*
X5525000Y-8285000D02*
X5555000Y-8315000D01*
X5555000Y-8285000D02*
X5525000Y-8315000D01*
X5525000Y-8395000D02*
X5555000Y-8425000D01*
X5555000Y-8395000D02*
X5525000Y-8425000D01*
X5295000Y-5175000D02*
X5325000Y-5205000D01*
X5325000Y-5175000D02*
X5295000Y-5205000D01*
X5295000Y-5285000D02*
X5325000Y-5315000D01*
X5325000Y-5285000D02*
X5295000Y-5315000D01*
X5295000Y-5395000D02*
X5325000Y-5425000D01*
X5325000Y-5395000D02*
X5295000Y-5425000D01*
X5410000Y-5175000D02*
X5440000Y-5205000D01*
X5440000Y-5175000D02*
X5410000Y-5205000D01*
X5410000Y-5285000D02*
X5440000Y-5315000D01*
X5440000Y-5285000D02*
X5410000Y-5315000D01*
X5410000Y-5395000D02*
X5440000Y-5425000D01*
X5440000Y-5395000D02*
X5410000Y-5425000D01*
X5525000Y-5175000D02*
X5555000Y-5205000D01*
X5555000Y-5175000D02*
X5525000Y-5205000D01*
X5525000Y-5285000D02*
X5555000Y-5315000D01*
X5555000Y-5285000D02*
X5525000Y-5315000D01*
X5525000Y-5395000D02*
X5555000Y-5425000D01*
X5555000Y-5395000D02*
X5525000Y-5425000D01*
X6295000Y-7175000D02*
X6325000Y-7205000D01*
X6325000Y-7175000D02*
X6295000Y-7205000D01*
X6295000Y-7285000D02*
X6325000Y-7315000D01*
X6325000Y-7285000D02*
X6295000Y-7315000D01*
X6295000Y-7395000D02*
X6325000Y-7425000D01*
X6325000Y-7395000D02*
X6295000Y-7425000D01*
X6410000Y-7175000D02*
X6440000Y-7205000D01*
X6440000Y-7175000D02*
X6410000Y-7205000D01*
X6410000Y-7285000D02*
X6440000Y-7315000D01*
X6440000Y-7285000D02*
X6410000Y-7315000D01*
X6410000Y-7395000D02*
X6440000Y-7425000D01*
X6440000Y-7395000D02*
X6410000Y-7425000D01*
X6525000Y-7175000D02*
X6555000Y-7205000D01*
X6555000Y-7175000D02*
X6525000Y-7205000D01*
X6525000Y-7285000D02*
X6555000Y-7315000D01*
X6555000Y-7285000D02*
X6525000Y-7315000D01*
X6525000Y-7395000D02*
X6555000Y-7425000D01*
X6555000Y-7395000D02*
X6525000Y-7425000D01*
X6295000Y-8175000D02*
X6325000Y-8205000D01*
X6325000Y-8175000D02*
X6295000Y-8205000D01*
X6295000Y-8285000D02*
X6325000Y-8315000D01*
X6325000Y-8285000D02*
X6295000Y-8315000D01*
X6295000Y-8395000D02*
X6325000Y-8425000D01*
X6325000Y-8395000D02*
X6295000Y-8425000D01*
X6410000Y-8175000D02*
X6440000Y-8205000D01*
X6440000Y-8175000D02*
X6410000Y-8205000D01*
X6410000Y-8285000D02*
X6440000Y-8315000D01*
X6440000Y-8285000D02*
X6410000Y-8315000D01*
X6410000Y-8395000D02*
X6440000Y-8425000D01*
X6440000Y-8395000D02*
X6410000Y-8425000D01*
X6525000Y-8175000D02*
X6555000Y-8205000D01*
X6555000Y-8175000D02*
X6525000Y-8205000D01*
X6525000Y-8285000D02*
X6555000Y-8315000D01*
X6555000Y-8285000D02*
X6525000Y-8315000D01*
X6525000Y-8395000D02*
X6555000Y-8425000D01*
X6555000Y-8395000D02*
X6525000Y-8425000D01*
X7295000Y-5175000D02*
X7325000Y-5205000D01*
X7325000Y-5175000D02*
X7295000Y-5205000D01*
X7295000Y-5285000D02*
X7325000Y-5315000D01*
X7325000Y-5285000D02*
X7295000Y-5315000D01*
X7295000Y-5395000D02*
X7325000Y-5425000D01*
X7325000Y-5395000D02*
X7295000Y-5425000D01*
X7410000Y-5175000D02*
X7440000Y-5205000D01*
X7440000Y-5175000D02*
X7410000Y-5205000D01*
X7410000Y-5285000D02*
X7440000Y-5315000D01*
X7440000Y-5285000D02*
X7410000Y-5315000D01*
X7410000Y-5395000D02*
X7440000Y-5425000D01*
X7440000Y-5395000D02*
X7410000Y-5425000D01*
X7525000Y-5175000D02*
X7555000Y-5205000D01*
X7555000Y-5175000D02*
X7525000Y-5205000D01*
X7525000Y-5285000D02*
X7555000Y-5315000D01*
X7555000Y-5285000D02*
X7525000Y-5315000D01*
X7525000Y-5395000D02*
X7555000Y-5425000D01*
X7555000Y-5395000D02*
X7525000Y-5425000D01*
X6295000Y-6175000D02*
X6325000Y-6205000D01*
X6325000Y-6175000D02*
X6295000Y-6205000D01*
X6295000Y-6285000D02*
X6325000Y-6315000D01*
X6325000Y-6285000D02*
X6295000Y-6315000D01*
X6295000Y-6395000D02*
X6325000Y-6425000D01*
X6325000Y-6395000D02*
X6295000Y-6425000D01*
X6410000Y-6175000D02*
X6440000Y-6205000D01*
X6440000Y-6175000D02*
X6410000Y-6205000D01*
X6410000Y-6285000D02*
X6440000Y-6315000D01*
X6440000Y-6285000D02*
X6410000Y-6315000D01*
X6410000Y-6395000D02*
X6440000Y-6425000D01*
X6440000Y-6395000D02*
X6410000Y-6425000D01*
X6525000Y-6175000D02*
X6555000Y-6205000D01*
X6555000Y-6175000D02*
X6525000Y-6205000D01*
X6525000Y-6285000D02*
X6555000Y-6315000D01*
X6555000Y-6285000D02*
X6525000Y-6315000D01*
X6525000Y-6395000D02*
X6555000Y-6425000D01*
X6555000Y-6395000D02*
X6525000Y-6425000D01*
X7939000Y-8800000D02*
G75*
G03X7939000Y-8800000I-50000J0D01*
G01*
X8193000Y-8800000D02*
G75*
G03X8193000Y-8800000I-50000J0D01*
G01*
X8447000Y-8800000D02*
G75*
G03X8447000Y-8800000I-50000J0D01*
G01*
X5653000Y-8800000D02*
G75*
G03X5653000Y-8800000I-50000J0D01*
G01*
X5907000Y-8800000D02*
G75*
G03X5907000Y-8800000I-50000J0D01*
G01*
X6161000Y-8800000D02*
G75*
G03X6161000Y-8800000I-50000J0D01*
G01*
X6415000Y-8800000D02*
G75*
G03X6415000Y-8800000I-50000J0D01*
G01*
X6669000Y-8800000D02*
G75*
G03X6669000Y-8800000I-50000J0D01*
G01*
X6923000Y-8800000D02*
G75*
G03X6923000Y-8800000I-50000J0D01*
G01*
X7177000Y-8800000D02*
G75*
G03X7177000Y-8800000I-50000J0D01*
G01*
X7431000Y-8800000D02*
G75*
G03X7431000Y-8800000I-50000J0D01*
G01*
X7685000Y-8800000D02*
G75*
G03X7685000Y-8800000I-50000J0D01*
G01*
X8000000Y-6640000D02*
X8000000Y-6960000D01*
X7840000Y-6800000D02*
X8160000Y-6800000D01*
X6000000Y-6640000D02*
X6000000Y-6960000D01*
X5840000Y-6800000D02*
X6160000Y-6800000D01*
D12*
X5303928Y-9423214D02*
X5303928Y-9123214D01*
X5375357Y-9123214D01*
X5418214Y-9137500D01*
X5446786Y-9166072D01*
X5461071Y-9194643D01*
X5475357Y-9251786D01*
X5475357Y-9294643D01*
X5461071Y-9351786D01*
X5446786Y-9380357D01*
X5418214Y-9408929D01*
X5375357Y-9423214D01*
X5303928Y-9423214D01*
X5603928Y-9423214D02*
X5603928Y-9223214D01*
X5603928Y-9280357D02*
X5618214Y-9251786D01*
X5632500Y-9237500D01*
X5661071Y-9223214D01*
X5689643Y-9223214D01*
X5789643Y-9423214D02*
X5789643Y-9223214D01*
X5789643Y-9123214D02*
X5775357Y-9137500D01*
X5789643Y-9151786D01*
X5803928Y-9137500D01*
X5789643Y-9123214D01*
X5789643Y-9151786D01*
X5975357Y-9423214D02*
X5946786Y-9408929D01*
X5932500Y-9380357D01*
X5932500Y-9123214D01*
X6132500Y-9423214D02*
X6103928Y-9408929D01*
X6089643Y-9380357D01*
X6089643Y-9123214D01*
X6475357Y-9423214D02*
X6475357Y-9123214D01*
X6575357Y-9337500D01*
X6675357Y-9123214D01*
X6675357Y-9423214D01*
X6946786Y-9423214D02*
X6946786Y-9266072D01*
X6932500Y-9237500D01*
X6903928Y-9223214D01*
X6846786Y-9223214D01*
X6818214Y-9237500D01*
X6946786Y-9408929D02*
X6918214Y-9423214D01*
X6846786Y-9423214D01*
X6818214Y-9408929D01*
X6803928Y-9380357D01*
X6803928Y-9351786D01*
X6818214Y-9323214D01*
X6846786Y-9308929D01*
X6918214Y-9308929D01*
X6946786Y-9294643D01*
X7089643Y-9223214D02*
X7089643Y-9523214D01*
X7089643Y-9237500D02*
X7118214Y-9223214D01*
X7175357Y-9223214D01*
X7203928Y-9237500D01*
X7218214Y-9251786D01*
X7232500Y-9280357D01*
X7232500Y-9366072D01*
X7218214Y-9394643D01*
X7203928Y-9408929D01*
X7175357Y-9423214D01*
X7118214Y-9423214D01*
X7089643Y-9408929D01*
X7361071Y-9394643D02*
X7375357Y-9408929D01*
X7361071Y-9423214D01*
X7346786Y-9408929D01*
X7361071Y-9394643D01*
X7361071Y-9423214D01*
X7361071Y-9237500D02*
X7375357Y-9251786D01*
X7361071Y-9266072D01*
X7346786Y-9251786D01*
X7361071Y-9237500D01*
X7361071Y-9266072D01*
X4987500Y-9902500D02*
X5017500Y-9932500D01*
X5017500Y-9902500D02*
X4987500Y-9932500D01*
X5361071Y-9753214D02*
X5389643Y-9753214D01*
X5418214Y-9767500D01*
X5432500Y-9781786D01*
X5446786Y-9810357D01*
X5461071Y-9867500D01*
X5461071Y-9938929D01*
X5446786Y-9996072D01*
X5432500Y-10024643D01*
X5418214Y-10038929D01*
X5389643Y-10053214D01*
X5361071Y-10053214D01*
X5332500Y-10038929D01*
X5318214Y-10024643D01*
X5303928Y-9996072D01*
X5289643Y-9938929D01*
X5289643Y-9867500D01*
X5303928Y-9810357D01*
X5318214Y-9781786D01*
X5332500Y-9767500D01*
X5361071Y-9753214D01*
X5589643Y-10024643D02*
X5603928Y-10038929D01*
X5589643Y-10053214D01*
X5575357Y-10038929D01*
X5589643Y-10024643D01*
X5589643Y-10053214D01*
X5703928Y-9753214D02*
X5889643Y-9753214D01*
X5789643Y-9867500D01*
X5832500Y-9867500D01*
X5861071Y-9881786D01*
X5875357Y-9896072D01*
X5889643Y-9924643D01*
X5889643Y-9996072D01*
X5875357Y-10024643D01*
X5861071Y-10038929D01*
X5832500Y-10053214D01*
X5746786Y-10053214D01*
X5718214Y-10038929D01*
X5703928Y-10024643D01*
X6075357Y-9753214D02*
X6103928Y-9753214D01*
X6132500Y-9767500D01*
X6146786Y-9781786D01*
X6161071Y-9810357D01*
X6175357Y-9867500D01*
X6175357Y-9938929D01*
X6161071Y-9996072D01*
X6146786Y-10024643D01*
X6132500Y-10038929D01*
X6103928Y-10053214D01*
X6075357Y-10053214D01*
X6046786Y-10038929D01*
X6032500Y-10024643D01*
X6018214Y-9996072D01*
X6003928Y-9938929D01*
X6003928Y-9867500D01*
X6018214Y-9810357D01*
X6032500Y-9781786D01*
X6046786Y-9767500D01*
X6075357Y-9753214D01*
X6303928Y-10053214D02*
X6303928Y-9853214D01*
X6303928Y-9881786D02*
X6318214Y-9867500D01*
X6346786Y-9853214D01*
X6389643Y-9853214D01*
X6418214Y-9867500D01*
X6432500Y-9896072D01*
X6432500Y-10053214D01*
X6432500Y-9896072D02*
X6446786Y-9867500D01*
X6475357Y-9853214D01*
X6518214Y-9853214D01*
X6546786Y-9867500D01*
X6561071Y-9896072D01*
X6561071Y-10053214D01*
X6703928Y-10053214D02*
X6703928Y-9853214D01*
X6703928Y-9881786D02*
X6718214Y-9867500D01*
X6746786Y-9853214D01*
X6789643Y-9853214D01*
X6818214Y-9867500D01*
X6832500Y-9896072D01*
X6832500Y-10053214D01*
X6832500Y-9896072D02*
X6846786Y-9867500D01*
X6875357Y-9853214D01*
X6918214Y-9853214D01*
X6946786Y-9867500D01*
X6961071Y-9896072D01*
X6961071Y-10053214D01*
X7546786Y-9738929D02*
X7289643Y-10124643D01*
X7932500Y-9753214D02*
X7961071Y-9753214D01*
X7989643Y-9767500D01*
X8003928Y-9781786D01*
X8018214Y-9810357D01*
X8032500Y-9867500D01*
X8032500Y-9938929D01*
X8018214Y-9996072D01*
X8003928Y-10024643D01*
X7989643Y-10038929D01*
X7961071Y-10053214D01*
X7932500Y-10053214D01*
X7903928Y-10038929D01*
X7889643Y-10024643D01*
X7875357Y-9996072D01*
X7861071Y-9938929D01*
X7861071Y-9867500D01*
X7875357Y-9810357D01*
X7889643Y-9781786D01*
X7903928Y-9767500D01*
X7932500Y-9753214D01*
X8161071Y-10024643D02*
X8175357Y-10038929D01*
X8161071Y-10053214D01*
X8146786Y-10038929D01*
X8161071Y-10024643D01*
X8161071Y-10053214D01*
X8361071Y-9753214D02*
X8389643Y-9753214D01*
X8418214Y-9767500D01*
X8432500Y-9781786D01*
X8446786Y-9810357D01*
X8461071Y-9867500D01*
X8461071Y-9938929D01*
X8446786Y-9996072D01*
X8432500Y-10024643D01*
X8418214Y-10038929D01*
X8389643Y-10053214D01*
X8361071Y-10053214D01*
X8332500Y-10038929D01*
X8318214Y-10024643D01*
X8303928Y-9996072D01*
X8289643Y-9938929D01*
X8289643Y-9867500D01*
X8303928Y-9810357D01*
X8318214Y-9781786D01*
X8332500Y-9767500D01*
X8361071Y-9753214D01*
X8746786Y-10053214D02*
X8575357Y-10053214D01*
X8661071Y-10053214D02*
X8661071Y-9753214D01*
X8632500Y-9796072D01*
X8603928Y-9824643D01*
X8575357Y-9838929D01*
X8861071Y-9781786D02*
X8875357Y-9767500D01*
X8903928Y-9753214D01*
X8975357Y-9753214D01*
X9003928Y-9767500D01*
X9018214Y-9781786D01*
X9032500Y-9810357D01*
X9032500Y-9838929D01*
X9018214Y-9881786D01*
X8846786Y-10053214D01*
X9032500Y-10053214D01*
X9146786Y-9753214D02*
X9146786Y-9810357D01*
X9261071Y-9753214D02*
X9261071Y-9810357D01*
X9703928Y-10167500D02*
X9689643Y-10153214D01*
X9661071Y-10110357D01*
X9646786Y-10081786D01*
X9632500Y-10038929D01*
X9618214Y-9967500D01*
X9618214Y-9910357D01*
X9632500Y-9838929D01*
X9646786Y-9796072D01*
X9661071Y-9767500D01*
X9689643Y-9724643D01*
X9703928Y-9710357D01*
X9803928Y-9781786D02*
X9818214Y-9767500D01*
X9846786Y-9753214D01*
X9918214Y-9753214D01*
X9946786Y-9767500D01*
X9961071Y-9781786D01*
X9975357Y-9810357D01*
X9975357Y-9838929D01*
X9961071Y-9881786D01*
X9789643Y-10053214D01*
X9975357Y-10053214D01*
X10146786Y-9881786D02*
X10118214Y-9867500D01*
X10103928Y-9853214D01*
X10089643Y-9824643D01*
X10089643Y-9810357D01*
X10103928Y-9781786D01*
X10118214Y-9767500D01*
X10146786Y-9753214D01*
X10203928Y-9753214D01*
X10232500Y-9767500D01*
X10246786Y-9781786D01*
X10261071Y-9810357D01*
X10261071Y-9824643D01*
X10246786Y-9853214D01*
X10232500Y-9867500D01*
X10203928Y-9881786D01*
X10146786Y-9881786D01*
X10118214Y-9896072D01*
X10103928Y-9910357D01*
X10089643Y-9938929D01*
X10089643Y-9996072D01*
X10103928Y-10024643D01*
X10118214Y-10038929D01*
X10146786Y-10053214D01*
X10203928Y-10053214D01*
X10232500Y-10038929D01*
X10246786Y-10024643D01*
X10261071Y-9996072D01*
X10261071Y-9938929D01*
X10246786Y-9910357D01*
X10232500Y-9896072D01*
X10203928Y-9881786D01*
X10518214Y-9753214D02*
X10461071Y-9753214D01*
X10432500Y-9767500D01*
X10418214Y-9781786D01*
X10389643Y-9824643D01*
X10375357Y-9881786D01*
X10375357Y-9996072D01*
X10389643Y-10024643D01*
X10403928Y-10038929D01*
X10432500Y-10053214D01*
X10489643Y-10053214D01*
X10518214Y-10038929D01*
X10532500Y-10024643D01*
X10546786Y-9996072D01*
X10546786Y-9924643D01*
X10532500Y-9896072D01*
X10518214Y-9881786D01*
X10489643Y-9867500D01*
X10432500Y-9867500D01*
X10403928Y-9881786D01*
X10389643Y-9896072D01*
X10375357Y-9924643D01*
X10903928Y-10053214D02*
X10903928Y-9753214D01*
X11032500Y-10053214D02*
X11032500Y-9896072D01*
X11018214Y-9867500D01*
X10989643Y-9853214D01*
X10946786Y-9853214D01*
X10918214Y-9867500D01*
X10903928Y-9881786D01*
X11218214Y-10053214D02*
X11189643Y-10038929D01*
X11175357Y-10024643D01*
X11161071Y-9996072D01*
X11161071Y-9910357D01*
X11175357Y-9881786D01*
X11189643Y-9867500D01*
X11218214Y-9853214D01*
X11261071Y-9853214D01*
X11289643Y-9867500D01*
X11303928Y-9881786D01*
X11318214Y-9910357D01*
X11318214Y-9996072D01*
X11303928Y-10024643D01*
X11289643Y-10038929D01*
X11261071Y-10053214D01*
X11218214Y-10053214D01*
X11489643Y-10053214D02*
X11461071Y-10038929D01*
X11446786Y-10010357D01*
X11446786Y-9753214D01*
X11718214Y-10038929D02*
X11689643Y-10053214D01*
X11632500Y-10053214D01*
X11603928Y-10038929D01*
X11589643Y-10010357D01*
X11589643Y-9896072D01*
X11603928Y-9867500D01*
X11632500Y-9853214D01*
X11689643Y-9853214D01*
X11718214Y-9867500D01*
X11732500Y-9896072D01*
X11732500Y-9924643D01*
X11589643Y-9953214D01*
X11846786Y-10038929D02*
X11875357Y-10053214D01*
X11932500Y-10053214D01*
X11961071Y-10038929D01*
X11975357Y-10010357D01*
X11975357Y-9996072D01*
X11961071Y-9967500D01*
X11932500Y-9953214D01*
X11889643Y-9953214D01*
X11861071Y-9938929D01*
X11846786Y-9910357D01*
X11846786Y-9896072D01*
X11861071Y-9867500D01*
X11889643Y-9853214D01*
X11932500Y-9853214D01*
X11961071Y-9867500D01*
X12075357Y-10167500D02*
X12089643Y-10153214D01*
X12118214Y-10110357D01*
X12132500Y-10081786D01*
X12146786Y-10038929D01*
X12161071Y-9967500D01*
X12161071Y-9910357D01*
X12146786Y-9838929D01*
X12132500Y-9796072D01*
X12118214Y-9767500D01*
X12089643Y-9724643D01*
X12075357Y-9710357D01*
X5017500Y-10313500D02*
G75*
G03X5017500Y-10313500I-50000J0D01*
G01*
X5461071Y-10449214D02*
X5289643Y-10449214D01*
X5375357Y-10449214D02*
X5375357Y-10149214D01*
X5346786Y-10192072D01*
X5318214Y-10220643D01*
X5289643Y-10234929D01*
X5589643Y-10420643D02*
X5603928Y-10434929D01*
X5589643Y-10449214D01*
X5575357Y-10434929D01*
X5589643Y-10420643D01*
X5589643Y-10449214D01*
X5789643Y-10149214D02*
X5818214Y-10149214D01*
X5846786Y-10163500D01*
X5861071Y-10177786D01*
X5875357Y-10206357D01*
X5889643Y-10263500D01*
X5889643Y-10334929D01*
X5875357Y-10392072D01*
X5861071Y-10420643D01*
X5846786Y-10434929D01*
X5818214Y-10449214D01*
X5789643Y-10449214D01*
X5761071Y-10434929D01*
X5746786Y-10420643D01*
X5732500Y-10392072D01*
X5718214Y-10334929D01*
X5718214Y-10263500D01*
X5732500Y-10206357D01*
X5746786Y-10177786D01*
X5761071Y-10163500D01*
X5789643Y-10149214D01*
X6075357Y-10149214D02*
X6103928Y-10149214D01*
X6132500Y-10163500D01*
X6146786Y-10177786D01*
X6161071Y-10206357D01*
X6175357Y-10263500D01*
X6175357Y-10334929D01*
X6161071Y-10392072D01*
X6146786Y-10420643D01*
X6132500Y-10434929D01*
X6103928Y-10449214D01*
X6075357Y-10449214D01*
X6046786Y-10434929D01*
X6032500Y-10420643D01*
X6018214Y-10392072D01*
X6003928Y-10334929D01*
X6003928Y-10263500D01*
X6018214Y-10206357D01*
X6032500Y-10177786D01*
X6046786Y-10163500D01*
X6075357Y-10149214D01*
X6303928Y-10449214D02*
X6303928Y-10249214D01*
X6303928Y-10277786D02*
X6318214Y-10263500D01*
X6346786Y-10249214D01*
X6389643Y-10249214D01*
X6418214Y-10263500D01*
X6432500Y-10292072D01*
X6432500Y-10449214D01*
X6432500Y-10292072D02*
X6446786Y-10263500D01*
X6475357Y-10249214D01*
X6518214Y-10249214D01*
X6546786Y-10263500D01*
X6561071Y-10292072D01*
X6561071Y-10449214D01*
X6703928Y-10449214D02*
X6703928Y-10249214D01*
X6703928Y-10277786D02*
X6718214Y-10263500D01*
X6746786Y-10249214D01*
X6789643Y-10249214D01*
X6818214Y-10263500D01*
X6832500Y-10292072D01*
X6832500Y-10449214D01*
X6832500Y-10292072D02*
X6846786Y-10263500D01*
X6875357Y-10249214D01*
X6918214Y-10249214D01*
X6946786Y-10263500D01*
X6961071Y-10292072D01*
X6961071Y-10449214D01*
X7546786Y-10134929D02*
X7289643Y-10520643D01*
X7932500Y-10149214D02*
X7961071Y-10149214D01*
X7989643Y-10163500D01*
X8003928Y-10177786D01*
X8018214Y-10206357D01*
X8032500Y-10263500D01*
X8032500Y-10334929D01*
X8018214Y-10392072D01*
X8003928Y-10420643D01*
X7989643Y-10434929D01*
X7961071Y-10449214D01*
X7932500Y-10449214D01*
X7903928Y-10434929D01*
X7889643Y-10420643D01*
X7875357Y-10392072D01*
X7861071Y-10334929D01*
X7861071Y-10263500D01*
X7875357Y-10206357D01*
X7889643Y-10177786D01*
X7903928Y-10163500D01*
X7932500Y-10149214D01*
X8161071Y-10420643D02*
X8175357Y-10434929D01*
X8161071Y-10449214D01*
X8146786Y-10434929D01*
X8161071Y-10420643D01*
X8161071Y-10449214D01*
X8361071Y-10149214D02*
X8389643Y-10149214D01*
X8418214Y-10163500D01*
X8432500Y-10177786D01*
X8446786Y-10206357D01*
X8461071Y-10263500D01*
X8461071Y-10334929D01*
X8446786Y-10392072D01*
X8432500Y-10420643D01*
X8418214Y-10434929D01*
X8389643Y-10449214D01*
X8361071Y-10449214D01*
X8332500Y-10434929D01*
X8318214Y-10420643D01*
X8303928Y-10392072D01*
X8289643Y-10334929D01*
X8289643Y-10263500D01*
X8303928Y-10206357D01*
X8318214Y-10177786D01*
X8332500Y-10163500D01*
X8361071Y-10149214D01*
X8561071Y-10149214D02*
X8746786Y-10149214D01*
X8646786Y-10263500D01*
X8689643Y-10263500D01*
X8718214Y-10277786D01*
X8732500Y-10292072D01*
X8746786Y-10320643D01*
X8746786Y-10392072D01*
X8732500Y-10420643D01*
X8718214Y-10434929D01*
X8689643Y-10449214D01*
X8603928Y-10449214D01*
X8575357Y-10434929D01*
X8561071Y-10420643D01*
X8889643Y-10449214D02*
X8946786Y-10449214D01*
X8975357Y-10434929D01*
X8989643Y-10420643D01*
X9018214Y-10377786D01*
X9032500Y-10320643D01*
X9032500Y-10206357D01*
X9018214Y-10177786D01*
X9003928Y-10163500D01*
X8975357Y-10149214D01*
X8918214Y-10149214D01*
X8889643Y-10163500D01*
X8875357Y-10177786D01*
X8861071Y-10206357D01*
X8861071Y-10277786D01*
X8875357Y-10306357D01*
X8889643Y-10320643D01*
X8918214Y-10334929D01*
X8975357Y-10334929D01*
X9003928Y-10320643D01*
X9018214Y-10306357D01*
X9032500Y-10277786D01*
X9146786Y-10149214D02*
X9146786Y-10206357D01*
X9261071Y-10149214D02*
X9261071Y-10206357D01*
X9703928Y-10563500D02*
X9689643Y-10549214D01*
X9661071Y-10506357D01*
X9646786Y-10477786D01*
X9632500Y-10434929D01*
X9618214Y-10363500D01*
X9618214Y-10306357D01*
X9632500Y-10234929D01*
X9646786Y-10192072D01*
X9661071Y-10163500D01*
X9689643Y-10120643D01*
X9703928Y-10106357D01*
X9975357Y-10449214D02*
X9803928Y-10449214D01*
X9889643Y-10449214D02*
X9889643Y-10149214D01*
X9861071Y-10192072D01*
X9832500Y-10220643D01*
X9803928Y-10234929D01*
X10089643Y-10177786D02*
X10103928Y-10163500D01*
X10132500Y-10149214D01*
X10203928Y-10149214D01*
X10232500Y-10163500D01*
X10246786Y-10177786D01*
X10261071Y-10206357D01*
X10261071Y-10234929D01*
X10246786Y-10277786D01*
X10075357Y-10449214D01*
X10261071Y-10449214D01*
X10618214Y-10449214D02*
X10618214Y-10149214D01*
X10746786Y-10449214D02*
X10746786Y-10292072D01*
X10732500Y-10263500D01*
X10703928Y-10249214D01*
X10661071Y-10249214D01*
X10632500Y-10263500D01*
X10618214Y-10277786D01*
X10932500Y-10449214D02*
X10903928Y-10434929D01*
X10889643Y-10420643D01*
X10875357Y-10392072D01*
X10875357Y-10306357D01*
X10889643Y-10277786D01*
X10903928Y-10263500D01*
X10932500Y-10249214D01*
X10975357Y-10249214D01*
X11003928Y-10263500D01*
X11018214Y-10277786D01*
X11032500Y-10306357D01*
X11032500Y-10392072D01*
X11018214Y-10420643D01*
X11003928Y-10434929D01*
X10975357Y-10449214D01*
X10932500Y-10449214D01*
X11203928Y-10449214D02*
X11175357Y-10434929D01*
X11161071Y-10406357D01*
X11161071Y-10149214D01*
X11432500Y-10434929D02*
X11403928Y-10449214D01*
X11346786Y-10449214D01*
X11318214Y-10434929D01*
X11303928Y-10406357D01*
X11303928Y-10292072D01*
X11318214Y-10263500D01*
X11346786Y-10249214D01*
X11403928Y-10249214D01*
X11432500Y-10263500D01*
X11446786Y-10292072D01*
X11446786Y-10320643D01*
X11303928Y-10349214D01*
X11561071Y-10434929D02*
X11589643Y-10449214D01*
X11646786Y-10449214D01*
X11675357Y-10434929D01*
X11689643Y-10406357D01*
X11689643Y-10392072D01*
X11675357Y-10363500D01*
X11646786Y-10349214D01*
X11603928Y-10349214D01*
X11575357Y-10334929D01*
X11561071Y-10306357D01*
X11561071Y-10292072D01*
X11575357Y-10263500D01*
X11603928Y-10249214D01*
X11646786Y-10249214D01*
X11675357Y-10263500D01*
X11789643Y-10563500D02*
X11803928Y-10549214D01*
X11832500Y-10506357D01*
X11846786Y-10477786D01*
X11861071Y-10434929D01*
X11875357Y-10363500D01*
X11875357Y-10306357D01*
X11861071Y-10234929D01*
X11846786Y-10192072D01*
X11832500Y-10163500D01*
X11803928Y-10120643D01*
X11789643Y-10106357D01*
X4857500Y-10549500D02*
X4857500Y-10869500D01*
X4697500Y-10709500D02*
X5017500Y-10709500D01*
X5275357Y-10545214D02*
X5461071Y-10545214D01*
X5361071Y-10659500D01*
X5403928Y-10659500D01*
X5432500Y-10673786D01*
X5446786Y-10688072D01*
X5461071Y-10716643D01*
X5461071Y-10788072D01*
X5446786Y-10816643D01*
X5432500Y-10830929D01*
X5403928Y-10845214D01*
X5318214Y-10845214D01*
X5289643Y-10830929D01*
X5275357Y-10816643D01*
X5589643Y-10816643D02*
X5603928Y-10830929D01*
X5589643Y-10845214D01*
X5575357Y-10830929D01*
X5589643Y-10816643D01*
X5589643Y-10845214D01*
X5718214Y-10573786D02*
X5732500Y-10559500D01*
X5761071Y-10545214D01*
X5832500Y-10545214D01*
X5861071Y-10559500D01*
X5875357Y-10573786D01*
X5889643Y-10602357D01*
X5889643Y-10630929D01*
X5875357Y-10673786D01*
X5703928Y-10845214D01*
X5889643Y-10845214D01*
X6075357Y-10545214D02*
X6103928Y-10545214D01*
X6132500Y-10559500D01*
X6146786Y-10573786D01*
X6161071Y-10602357D01*
X6175357Y-10659500D01*
X6175357Y-10730929D01*
X6161071Y-10788072D01*
X6146786Y-10816643D01*
X6132500Y-10830929D01*
X6103928Y-10845214D01*
X6075357Y-10845214D01*
X6046786Y-10830929D01*
X6032500Y-10816643D01*
X6018214Y-10788072D01*
X6003928Y-10730929D01*
X6003928Y-10659500D01*
X6018214Y-10602357D01*
X6032500Y-10573786D01*
X6046786Y-10559500D01*
X6075357Y-10545214D01*
X6303928Y-10845214D02*
X6303928Y-10645214D01*
X6303928Y-10673786D02*
X6318214Y-10659500D01*
X6346786Y-10645214D01*
X6389643Y-10645214D01*
X6418214Y-10659500D01*
X6432500Y-10688072D01*
X6432500Y-10845214D01*
X6432500Y-10688072D02*
X6446786Y-10659500D01*
X6475357Y-10645214D01*
X6518214Y-10645214D01*
X6546786Y-10659500D01*
X6561071Y-10688072D01*
X6561071Y-10845214D01*
X6703928Y-10845214D02*
X6703928Y-10645214D01*
X6703928Y-10673786D02*
X6718214Y-10659500D01*
X6746786Y-10645214D01*
X6789643Y-10645214D01*
X6818214Y-10659500D01*
X6832500Y-10688072D01*
X6832500Y-10845214D01*
X6832500Y-10688072D02*
X6846786Y-10659500D01*
X6875357Y-10645214D01*
X6918214Y-10645214D01*
X6946786Y-10659500D01*
X6961071Y-10688072D01*
X6961071Y-10845214D01*
X7546786Y-10530929D02*
X7289643Y-10916643D01*
X7932500Y-10545214D02*
X7961071Y-10545214D01*
X7989643Y-10559500D01*
X8003928Y-10573786D01*
X8018214Y-10602357D01*
X8032500Y-10659500D01*
X8032500Y-10730929D01*
X8018214Y-10788072D01*
X8003928Y-10816643D01*
X7989643Y-10830929D01*
X7961071Y-10845214D01*
X7932500Y-10845214D01*
X7903928Y-10830929D01*
X7889643Y-10816643D01*
X7875357Y-10788072D01*
X7861071Y-10730929D01*
X7861071Y-10659500D01*
X7875357Y-10602357D01*
X7889643Y-10573786D01*
X7903928Y-10559500D01*
X7932500Y-10545214D01*
X8161071Y-10816643D02*
X8175357Y-10830929D01*
X8161071Y-10845214D01*
X8146786Y-10830929D01*
X8161071Y-10816643D01*
X8161071Y-10845214D01*
X8461071Y-10845214D02*
X8289643Y-10845214D01*
X8375357Y-10845214D02*
X8375357Y-10545214D01*
X8346786Y-10588072D01*
X8318214Y-10616643D01*
X8289643Y-10630929D01*
X8575357Y-10573786D02*
X8589643Y-10559500D01*
X8618214Y-10545214D01*
X8689643Y-10545214D01*
X8718214Y-10559500D01*
X8732500Y-10573786D01*
X8746786Y-10602357D01*
X8746786Y-10630929D01*
X8732500Y-10673786D01*
X8561071Y-10845214D01*
X8746786Y-10845214D01*
X9003928Y-10545214D02*
X8946786Y-10545214D01*
X8918214Y-10559500D01*
X8903928Y-10573786D01*
X8875357Y-10616643D01*
X8861071Y-10673786D01*
X8861071Y-10788072D01*
X8875357Y-10816643D01*
X8889643Y-10830929D01*
X8918214Y-10845214D01*
X8975357Y-10845214D01*
X9003928Y-10830929D01*
X9018214Y-10816643D01*
X9032500Y-10788072D01*
X9032500Y-10716643D01*
X9018214Y-10688072D01*
X9003928Y-10673786D01*
X8975357Y-10659500D01*
X8918214Y-10659500D01*
X8889643Y-10673786D01*
X8875357Y-10688072D01*
X8861071Y-10716643D01*
X9146786Y-10545214D02*
X9146786Y-10602357D01*
X9261071Y-10545214D02*
X9261071Y-10602357D01*
X9703928Y-10959500D02*
X9689643Y-10945214D01*
X9661071Y-10902357D01*
X9646786Y-10873786D01*
X9632500Y-10830929D01*
X9618214Y-10759500D01*
X9618214Y-10702357D01*
X9632500Y-10630929D01*
X9646786Y-10588072D01*
X9661071Y-10559500D01*
X9689643Y-10516643D01*
X9703928Y-10502357D01*
X9803928Y-10573786D02*
X9818214Y-10559500D01*
X9846786Y-10545214D01*
X9918214Y-10545214D01*
X9946786Y-10559500D01*
X9961071Y-10573786D01*
X9975357Y-10602357D01*
X9975357Y-10630929D01*
X9961071Y-10673786D01*
X9789643Y-10845214D01*
X9975357Y-10845214D01*
X10332500Y-10845214D02*
X10332500Y-10545214D01*
X10461071Y-10845214D02*
X10461071Y-10688072D01*
X10446786Y-10659500D01*
X10418214Y-10645214D01*
X10375357Y-10645214D01*
X10346786Y-10659500D01*
X10332500Y-10673786D01*
X10646786Y-10845214D02*
X10618214Y-10830929D01*
X10603928Y-10816643D01*
X10589643Y-10788072D01*
X10589643Y-10702357D01*
X10603928Y-10673786D01*
X10618214Y-10659500D01*
X10646786Y-10645214D01*
X10689643Y-10645214D01*
X10718214Y-10659500D01*
X10732500Y-10673786D01*
X10746786Y-10702357D01*
X10746786Y-10788072D01*
X10732500Y-10816643D01*
X10718214Y-10830929D01*
X10689643Y-10845214D01*
X10646786Y-10845214D01*
X10918214Y-10845214D02*
X10889643Y-10830929D01*
X10875357Y-10802357D01*
X10875357Y-10545214D01*
X11146786Y-10830929D02*
X11118214Y-10845214D01*
X11061071Y-10845214D01*
X11032500Y-10830929D01*
X11018214Y-10802357D01*
X11018214Y-10688072D01*
X11032500Y-10659500D01*
X11061071Y-10645214D01*
X11118214Y-10645214D01*
X11146786Y-10659500D01*
X11161071Y-10688072D01*
X11161071Y-10716643D01*
X11018214Y-10745214D01*
X11275357Y-10830929D02*
X11303928Y-10845214D01*
X11361071Y-10845214D01*
X11389643Y-10830929D01*
X11403928Y-10802357D01*
X11403928Y-10788072D01*
X11389643Y-10759500D01*
X11361071Y-10745214D01*
X11318214Y-10745214D01*
X11289643Y-10730929D01*
X11275357Y-10702357D01*
X11275357Y-10688072D01*
X11289643Y-10659500D01*
X11318214Y-10645214D01*
X11361071Y-10645214D01*
X11389643Y-10659500D01*
X11503928Y-10959500D02*
X11518214Y-10945214D01*
X11546786Y-10902357D01*
X11561071Y-10873786D01*
X11575357Y-10830929D01*
X11589643Y-10759500D01*
X11589643Y-10702357D01*
X11575357Y-10630929D01*
X11561071Y-10588072D01*
X11546786Y-10559500D01*
X11518214Y-10516643D01*
X11503928Y-10502357D01*
M02*
