%TF.GenerationSoftware,KiCad,Pcbnew,no-vcs-found-3ac87f6~59~ubuntu17.04.1*%
%TF.CreationDate,2017-08-31T22:06:13+02:00*%
%TF.ProjectId,LEDBoard_4x4_16bit,4C4544426F6172645F3478345F313662,3.0.0*%
%TF.SameCoordinates,Original*%
%TF.FileFunction,Other,Comment*%
%FSLAX46Y46*%
G04 Gerber Fmt 4.6, Leading zero omitted, Abs format (unit mm)*
G04 Created by KiCad (PCBNEW no-vcs-found-3ac87f6~59~ubuntu17.04.1) date Thu Aug 31 22:06:13 2017*
%MOMM*%
%LPD*%
G01*
G04 APERTURE LIST*
%ADD10C,0.150000*%
%ADD11C,0.125000*%
G04 APERTURE END LIST*
D10*
X40628571Y-76035714D02*
X40628571Y-75107142D01*
X41200000Y-75607142D01*
X41200000Y-75392857D01*
X41271428Y-75250000D01*
X41342857Y-75178571D01*
X41485714Y-75107142D01*
X41842857Y-75107142D01*
X41985714Y-75178571D01*
X42057142Y-75250000D01*
X42128571Y-75392857D01*
X42128571Y-75821428D01*
X42057142Y-75964285D01*
X41985714Y-76035714D01*
X42128571Y-74392857D02*
X42128571Y-74107142D01*
X42057142Y-73964285D01*
X41985714Y-73892857D01*
X41771428Y-73750000D01*
X41485714Y-73678571D01*
X40914285Y-73678571D01*
X40771428Y-73750000D01*
X40700000Y-73821428D01*
X40628571Y-73964285D01*
X40628571Y-74250000D01*
X40700000Y-74392857D01*
X40771428Y-74464285D01*
X40914285Y-74535714D01*
X41271428Y-74535714D01*
X41414285Y-74464285D01*
X41485714Y-74392857D01*
X41557142Y-74250000D01*
X41557142Y-73964285D01*
X41485714Y-73821428D01*
X41414285Y-73750000D01*
X41271428Y-73678571D01*
X42057142Y-72964285D02*
X42128571Y-72964285D01*
X42271428Y-73035714D01*
X42342857Y-73107142D01*
X40628571Y-71607142D02*
X40628571Y-72321428D01*
X41342857Y-72392857D01*
X41271428Y-72321428D01*
X41200000Y-72178571D01*
X41200000Y-71821428D01*
X41271428Y-71678571D01*
X41342857Y-71607142D01*
X41485714Y-71535714D01*
X41842857Y-71535714D01*
X41985714Y-71607142D01*
X42057142Y-71678571D01*
X42128571Y-71821428D01*
X42128571Y-72178571D01*
X42057142Y-72321428D01*
X41985714Y-72392857D01*
X40628571Y-70607142D02*
X40628571Y-70464285D01*
X40700000Y-70321428D01*
X40771428Y-70250000D01*
X40914285Y-70178571D01*
X41200000Y-70107142D01*
X41557142Y-70107142D01*
X41842857Y-70178571D01*
X41985714Y-70250000D01*
X42057142Y-70321428D01*
X42128571Y-70464285D01*
X42128571Y-70607142D01*
X42057142Y-70750000D01*
X41985714Y-70821428D01*
X41842857Y-70892857D01*
X41557142Y-70964285D01*
X41200000Y-70964285D01*
X40914285Y-70892857D01*
X40771428Y-70821428D01*
X40700000Y-70750000D01*
X40628571Y-70607142D01*
X40628571Y-69178571D02*
X40628571Y-69035714D01*
X40700000Y-68892857D01*
X40771428Y-68821428D01*
X40914285Y-68750000D01*
X41200000Y-68678571D01*
X41557142Y-68678571D01*
X41842857Y-68750000D01*
X41985714Y-68821428D01*
X42057142Y-68892857D01*
X42128571Y-69035714D01*
X42128571Y-69178571D01*
X42057142Y-69321428D01*
X41985714Y-69392857D01*
X41842857Y-69464285D01*
X41557142Y-69535714D01*
X41200000Y-69535714D01*
X40914285Y-69464285D01*
X40771428Y-69392857D01*
X40700000Y-69321428D01*
X40628571Y-69178571D01*
X42128571Y-66892857D02*
X41128571Y-66892857D01*
X41271428Y-66892857D02*
X41200000Y-66821428D01*
X41128571Y-66678571D01*
X41128571Y-66464285D01*
X41200000Y-66321428D01*
X41342857Y-66250000D01*
X42128571Y-66250000D01*
X41342857Y-66250000D02*
X41200000Y-66178571D01*
X41128571Y-66035714D01*
X41128571Y-65821428D01*
X41200000Y-65678571D01*
X41342857Y-65607142D01*
X42128571Y-65607142D01*
X42128571Y-64892857D02*
X41128571Y-64892857D01*
X41271428Y-64892857D02*
X41200000Y-64821428D01*
X41128571Y-64678571D01*
X41128571Y-64464285D01*
X41200000Y-64321428D01*
X41342857Y-64250000D01*
X42128571Y-64250000D01*
X41342857Y-64250000D02*
X41200000Y-64178571D01*
X41128571Y-64035714D01*
X41128571Y-63821428D01*
X41200000Y-63678571D01*
X41342857Y-63607142D01*
X42128571Y-63607142D01*
X42500000Y-89500000D02*
X42500000Y-50000000D01*
X50250000Y-89500000D02*
X40400000Y-89500000D01*
X50250000Y-50000000D02*
X40400000Y-50000000D01*
X42500000Y-50000000D02*
X43086421Y-51126504D01*
X42500000Y-50000000D02*
X41913579Y-51126504D01*
X42500000Y-89500000D02*
X43086421Y-88373496D01*
X42500000Y-89500000D02*
X41913579Y-88373496D01*
X63714285Y-43128571D02*
X64642857Y-43128571D01*
X64142857Y-43700000D01*
X64357142Y-43700000D01*
X64500000Y-43771428D01*
X64571428Y-43842857D01*
X64642857Y-43985714D01*
X64642857Y-44342857D01*
X64571428Y-44485714D01*
X64500000Y-44557142D01*
X64357142Y-44628571D01*
X63928571Y-44628571D01*
X63785714Y-44557142D01*
X63714285Y-44485714D01*
X65357142Y-44628571D02*
X65642857Y-44628571D01*
X65785714Y-44557142D01*
X65857142Y-44485714D01*
X66000000Y-44271428D01*
X66071428Y-43985714D01*
X66071428Y-43414285D01*
X66000000Y-43271428D01*
X65928571Y-43200000D01*
X65785714Y-43128571D01*
X65500000Y-43128571D01*
X65357142Y-43200000D01*
X65285714Y-43271428D01*
X65214285Y-43414285D01*
X65214285Y-43771428D01*
X65285714Y-43914285D01*
X65357142Y-43985714D01*
X65500000Y-44057142D01*
X65785714Y-44057142D01*
X65928571Y-43985714D01*
X66000000Y-43914285D01*
X66071428Y-43771428D01*
X66785714Y-44557142D02*
X66785714Y-44628571D01*
X66714285Y-44771428D01*
X66642857Y-44842857D01*
X68142857Y-43128571D02*
X67428571Y-43128571D01*
X67357142Y-43842857D01*
X67428571Y-43771428D01*
X67571428Y-43700000D01*
X67928571Y-43700000D01*
X68071428Y-43771428D01*
X68142857Y-43842857D01*
X68214285Y-43985714D01*
X68214285Y-44342857D01*
X68142857Y-44485714D01*
X68071428Y-44557142D01*
X67928571Y-44628571D01*
X67571428Y-44628571D01*
X67428571Y-44557142D01*
X67357142Y-44485714D01*
X69142857Y-43128571D02*
X69285714Y-43128571D01*
X69428571Y-43200000D01*
X69500000Y-43271428D01*
X69571428Y-43414285D01*
X69642857Y-43700000D01*
X69642857Y-44057142D01*
X69571428Y-44342857D01*
X69500000Y-44485714D01*
X69428571Y-44557142D01*
X69285714Y-44628571D01*
X69142857Y-44628571D01*
X69000000Y-44557142D01*
X68928571Y-44485714D01*
X68857142Y-44342857D01*
X68785714Y-44057142D01*
X68785714Y-43700000D01*
X68857142Y-43414285D01*
X68928571Y-43271428D01*
X69000000Y-43200000D01*
X69142857Y-43128571D01*
X70571428Y-43128571D02*
X70714285Y-43128571D01*
X70857142Y-43200000D01*
X70928571Y-43271428D01*
X71000000Y-43414285D01*
X71071428Y-43700000D01*
X71071428Y-44057142D01*
X71000000Y-44342857D01*
X70928571Y-44485714D01*
X70857142Y-44557142D01*
X70714285Y-44628571D01*
X70571428Y-44628571D01*
X70428571Y-44557142D01*
X70357142Y-44485714D01*
X70285714Y-44342857D01*
X70214285Y-44057142D01*
X70214285Y-43700000D01*
X70285714Y-43414285D01*
X70357142Y-43271428D01*
X70428571Y-43200000D01*
X70571428Y-43128571D01*
X72857142Y-44628571D02*
X72857142Y-43628571D01*
X72857142Y-43771428D02*
X72928571Y-43700000D01*
X73071428Y-43628571D01*
X73285714Y-43628571D01*
X73428571Y-43700000D01*
X73500000Y-43842857D01*
X73500000Y-44628571D01*
X73500000Y-43842857D02*
X73571428Y-43700000D01*
X73714285Y-43628571D01*
X73928571Y-43628571D01*
X74071428Y-43700000D01*
X74142857Y-43842857D01*
X74142857Y-44628571D01*
X74857142Y-44628571D02*
X74857142Y-43628571D01*
X74857142Y-43771428D02*
X74928571Y-43700000D01*
X75071428Y-43628571D01*
X75285714Y-43628571D01*
X75428571Y-43700000D01*
X75500000Y-43842857D01*
X75500000Y-44628571D01*
X75500000Y-43842857D02*
X75571428Y-43700000D01*
X75714285Y-43628571D01*
X75928571Y-43628571D01*
X76071428Y-43700000D01*
X76142857Y-43842857D01*
X76142857Y-44628571D01*
X50250000Y-45000000D02*
X89750000Y-45000000D01*
X50250000Y-50000000D02*
X50250000Y-42900000D01*
X89750000Y-50000000D02*
X89750000Y-42900000D01*
X89750000Y-45000000D02*
X88623496Y-45586421D01*
X89750000Y-45000000D02*
X88623496Y-44413579D01*
X50250000Y-45000000D02*
X51376504Y-45586421D01*
X50250000Y-45000000D02*
X51376504Y-44413579D01*
X79642857Y-47128571D02*
X78785714Y-47128571D01*
X79214285Y-47128571D02*
X79214285Y-45628571D01*
X79071428Y-45842857D01*
X78928571Y-45985714D01*
X78785714Y-46057142D01*
X80571428Y-45628571D02*
X80714285Y-45628571D01*
X80857142Y-45700000D01*
X80928571Y-45771428D01*
X81000000Y-45914285D01*
X81071428Y-46200000D01*
X81071428Y-46557142D01*
X81000000Y-46842857D01*
X80928571Y-46985714D01*
X80857142Y-47057142D01*
X80714285Y-47128571D01*
X80571428Y-47128571D01*
X80428571Y-47057142D01*
X80357142Y-46985714D01*
X80285714Y-46842857D01*
X80214285Y-46557142D01*
X80214285Y-46200000D01*
X80285714Y-45914285D01*
X80357142Y-45771428D01*
X80428571Y-45700000D01*
X80571428Y-45628571D01*
X81785714Y-47057142D02*
X81785714Y-47128571D01*
X81714285Y-47271428D01*
X81642857Y-47342857D01*
X82714285Y-45628571D02*
X82857142Y-45628571D01*
X83000000Y-45700000D01*
X83071428Y-45771428D01*
X83142857Y-45914285D01*
X83214285Y-46200000D01*
X83214285Y-46557142D01*
X83142857Y-46842857D01*
X83071428Y-46985714D01*
X83000000Y-47057142D01*
X82857142Y-47128571D01*
X82714285Y-47128571D01*
X82571428Y-47057142D01*
X82500000Y-46985714D01*
X82428571Y-46842857D01*
X82357142Y-46557142D01*
X82357142Y-46200000D01*
X82428571Y-45914285D01*
X82500000Y-45771428D01*
X82571428Y-45700000D01*
X82714285Y-45628571D01*
X84142857Y-45628571D02*
X84285714Y-45628571D01*
X84428571Y-45700000D01*
X84500000Y-45771428D01*
X84571428Y-45914285D01*
X84642857Y-46200000D01*
X84642857Y-46557142D01*
X84571428Y-46842857D01*
X84500000Y-46985714D01*
X84428571Y-47057142D01*
X84285714Y-47128571D01*
X84142857Y-47128571D01*
X84000000Y-47057142D01*
X83928571Y-46985714D01*
X83857142Y-46842857D01*
X83785714Y-46557142D01*
X83785714Y-46200000D01*
X83857142Y-45914285D01*
X83928571Y-45771428D01*
X84000000Y-45700000D01*
X84142857Y-45628571D01*
X85571428Y-45628571D02*
X85714285Y-45628571D01*
X85857142Y-45700000D01*
X85928571Y-45771428D01*
X86000000Y-45914285D01*
X86071428Y-46200000D01*
X86071428Y-46557142D01*
X86000000Y-46842857D01*
X85928571Y-46985714D01*
X85857142Y-47057142D01*
X85714285Y-47128571D01*
X85571428Y-47128571D01*
X85428571Y-47057142D01*
X85357142Y-46985714D01*
X85285714Y-46842857D01*
X85214285Y-46557142D01*
X85214285Y-46200000D01*
X85285714Y-45914285D01*
X85357142Y-45771428D01*
X85428571Y-45700000D01*
X85571428Y-45628571D01*
X87857142Y-47128571D02*
X87857142Y-46128571D01*
X87857142Y-46271428D02*
X87928571Y-46200000D01*
X88071428Y-46128571D01*
X88285714Y-46128571D01*
X88428571Y-46200000D01*
X88500000Y-46342857D01*
X88500000Y-47128571D01*
X88500000Y-46342857D02*
X88571428Y-46200000D01*
X88714285Y-46128571D01*
X88928571Y-46128571D01*
X89071428Y-46200000D01*
X89142857Y-46342857D01*
X89142857Y-47128571D01*
X89857142Y-47128571D02*
X89857142Y-46128571D01*
X89857142Y-46271428D02*
X89928571Y-46200000D01*
X90071428Y-46128571D01*
X90285714Y-46128571D01*
X90428571Y-46200000D01*
X90500000Y-46342857D01*
X90500000Y-47128571D01*
X90500000Y-46342857D02*
X90571428Y-46200000D01*
X90714285Y-46128571D01*
X90928571Y-46128571D01*
X91071428Y-46200000D01*
X91142857Y-46342857D01*
X91142857Y-47128571D01*
X80000000Y-47500000D02*
X90000000Y-47500000D01*
X80000000Y-50000000D02*
X80000000Y-45400000D01*
X90000000Y-50000000D02*
X90000000Y-45400000D01*
X90000000Y-47500000D02*
X88873496Y-48086421D01*
X90000000Y-47500000D02*
X88873496Y-46913579D01*
X80000000Y-47500000D02*
X81126504Y-48086421D01*
X80000000Y-47500000D02*
X81126504Y-46913579D01*
X43271428Y-84964285D02*
X43200000Y-84892857D01*
X43128571Y-84750000D01*
X43128571Y-84392857D01*
X43200000Y-84250000D01*
X43271428Y-84178571D01*
X43414285Y-84107142D01*
X43557142Y-84107142D01*
X43771428Y-84178571D01*
X44628571Y-85035714D01*
X44628571Y-84107142D01*
X44628571Y-82678571D02*
X44628571Y-83535714D01*
X44628571Y-83107142D02*
X43128571Y-83107142D01*
X43342857Y-83250000D01*
X43485714Y-83392857D01*
X43557142Y-83535714D01*
X44557142Y-81964285D02*
X44628571Y-81964285D01*
X44771428Y-82035714D01*
X44842857Y-82107142D01*
X43128571Y-80607142D02*
X43128571Y-81321428D01*
X43842857Y-81392857D01*
X43771428Y-81321428D01*
X43700000Y-81178571D01*
X43700000Y-80821428D01*
X43771428Y-80678571D01*
X43842857Y-80607142D01*
X43985714Y-80535714D01*
X44342857Y-80535714D01*
X44485714Y-80607142D01*
X44557142Y-80678571D01*
X44628571Y-80821428D01*
X44628571Y-81178571D01*
X44557142Y-81321428D01*
X44485714Y-81392857D01*
X43128571Y-79607142D02*
X43128571Y-79464285D01*
X43200000Y-79321428D01*
X43271428Y-79250000D01*
X43414285Y-79178571D01*
X43700000Y-79107142D01*
X44057142Y-79107142D01*
X44342857Y-79178571D01*
X44485714Y-79250000D01*
X44557142Y-79321428D01*
X44628571Y-79464285D01*
X44628571Y-79607142D01*
X44557142Y-79750000D01*
X44485714Y-79821428D01*
X44342857Y-79892857D01*
X44057142Y-79964285D01*
X43700000Y-79964285D01*
X43414285Y-79892857D01*
X43271428Y-79821428D01*
X43200000Y-79750000D01*
X43128571Y-79607142D01*
X43128571Y-78178571D02*
X43128571Y-78035714D01*
X43200000Y-77892857D01*
X43271428Y-77821428D01*
X43414285Y-77750000D01*
X43700000Y-77678571D01*
X44057142Y-77678571D01*
X44342857Y-77750000D01*
X44485714Y-77821428D01*
X44557142Y-77892857D01*
X44628571Y-78035714D01*
X44628571Y-78178571D01*
X44557142Y-78321428D01*
X44485714Y-78392857D01*
X44342857Y-78464285D01*
X44057142Y-78535714D01*
X43700000Y-78535714D01*
X43414285Y-78464285D01*
X43271428Y-78392857D01*
X43200000Y-78321428D01*
X43128571Y-78178571D01*
X44628571Y-75892857D02*
X43628571Y-75892857D01*
X43771428Y-75892857D02*
X43700000Y-75821428D01*
X43628571Y-75678571D01*
X43628571Y-75464285D01*
X43700000Y-75321428D01*
X43842857Y-75250000D01*
X44628571Y-75250000D01*
X43842857Y-75250000D02*
X43700000Y-75178571D01*
X43628571Y-75035714D01*
X43628571Y-74821428D01*
X43700000Y-74678571D01*
X43842857Y-74607142D01*
X44628571Y-74607142D01*
X44628571Y-73892857D02*
X43628571Y-73892857D01*
X43771428Y-73892857D02*
X43700000Y-73821428D01*
X43628571Y-73678571D01*
X43628571Y-73464285D01*
X43700000Y-73321428D01*
X43842857Y-73250000D01*
X44628571Y-73250000D01*
X43842857Y-73250000D02*
X43700000Y-73178571D01*
X43628571Y-73035714D01*
X43628571Y-72821428D01*
X43700000Y-72678571D01*
X43842857Y-72607142D01*
X44628571Y-72607142D01*
X45000000Y-89500000D02*
X45000000Y-68000000D01*
X50000000Y-89500000D02*
X42900000Y-89500000D01*
X50000000Y-68000000D02*
X42900000Y-68000000D01*
X45000000Y-68000000D02*
X45586421Y-69126504D01*
X45000000Y-68000000D02*
X44413579Y-69126504D01*
X45000000Y-89500000D02*
X45586421Y-88373496D01*
X45000000Y-89500000D02*
X44413579Y-88373496D01*
X53785714Y-95371428D02*
X53857142Y-95300000D01*
X54000000Y-95228571D01*
X54357142Y-95228571D01*
X54500000Y-95300000D01*
X54571428Y-95371428D01*
X54642857Y-95514285D01*
X54642857Y-95657142D01*
X54571428Y-95871428D01*
X53714285Y-96728571D01*
X54642857Y-96728571D01*
X55571428Y-95228571D02*
X55714285Y-95228571D01*
X55857142Y-95300000D01*
X55928571Y-95371428D01*
X56000000Y-95514285D01*
X56071428Y-95800000D01*
X56071428Y-96157142D01*
X56000000Y-96442857D01*
X55928571Y-96585714D01*
X55857142Y-96657142D01*
X55714285Y-96728571D01*
X55571428Y-96728571D01*
X55428571Y-96657142D01*
X55357142Y-96585714D01*
X55285714Y-96442857D01*
X55214285Y-96157142D01*
X55214285Y-95800000D01*
X55285714Y-95514285D01*
X55357142Y-95371428D01*
X55428571Y-95300000D01*
X55571428Y-95228571D01*
X56785714Y-96657142D02*
X56785714Y-96728571D01*
X56714285Y-96871428D01*
X56642857Y-96942857D01*
X57714285Y-95228571D02*
X57857142Y-95228571D01*
X58000000Y-95300000D01*
X58071428Y-95371428D01*
X58142857Y-95514285D01*
X58214285Y-95800000D01*
X58214285Y-96157142D01*
X58142857Y-96442857D01*
X58071428Y-96585714D01*
X58000000Y-96657142D01*
X57857142Y-96728571D01*
X57714285Y-96728571D01*
X57571428Y-96657142D01*
X57500000Y-96585714D01*
X57428571Y-96442857D01*
X57357142Y-96157142D01*
X57357142Y-95800000D01*
X57428571Y-95514285D01*
X57500000Y-95371428D01*
X57571428Y-95300000D01*
X57714285Y-95228571D01*
X59142857Y-95228571D02*
X59285714Y-95228571D01*
X59428571Y-95300000D01*
X59500000Y-95371428D01*
X59571428Y-95514285D01*
X59642857Y-95800000D01*
X59642857Y-96157142D01*
X59571428Y-96442857D01*
X59500000Y-96585714D01*
X59428571Y-96657142D01*
X59285714Y-96728571D01*
X59142857Y-96728571D01*
X59000000Y-96657142D01*
X58928571Y-96585714D01*
X58857142Y-96442857D01*
X58785714Y-96157142D01*
X58785714Y-95800000D01*
X58857142Y-95514285D01*
X58928571Y-95371428D01*
X59000000Y-95300000D01*
X59142857Y-95228571D01*
X60571428Y-95228571D02*
X60714285Y-95228571D01*
X60857142Y-95300000D01*
X60928571Y-95371428D01*
X61000000Y-95514285D01*
X61071428Y-95800000D01*
X61071428Y-96157142D01*
X61000000Y-96442857D01*
X60928571Y-96585714D01*
X60857142Y-96657142D01*
X60714285Y-96728571D01*
X60571428Y-96728571D01*
X60428571Y-96657142D01*
X60357142Y-96585714D01*
X60285714Y-96442857D01*
X60214285Y-96157142D01*
X60214285Y-95800000D01*
X60285714Y-95514285D01*
X60357142Y-95371428D01*
X60428571Y-95300000D01*
X60571428Y-95228571D01*
X62857142Y-96728571D02*
X62857142Y-95728571D01*
X62857142Y-95871428D02*
X62928571Y-95800000D01*
X63071428Y-95728571D01*
X63285714Y-95728571D01*
X63428571Y-95800000D01*
X63500000Y-95942857D01*
X63500000Y-96728571D01*
X63500000Y-95942857D02*
X63571428Y-95800000D01*
X63714285Y-95728571D01*
X63928571Y-95728571D01*
X64071428Y-95800000D01*
X64142857Y-95942857D01*
X64142857Y-96728571D01*
X64857142Y-96728571D02*
X64857142Y-95728571D01*
X64857142Y-95871428D02*
X64928571Y-95800000D01*
X65071428Y-95728571D01*
X65285714Y-95728571D01*
X65428571Y-95800000D01*
X65500000Y-95942857D01*
X65500000Y-96728571D01*
X65500000Y-95942857D02*
X65571428Y-95800000D01*
X65714285Y-95728571D01*
X65928571Y-95728571D01*
X66071428Y-95800000D01*
X66142857Y-95942857D01*
X66142857Y-96728571D01*
X50000000Y-95000000D02*
X70000000Y-95000000D01*
X50000000Y-90000000D02*
X50000000Y-97100000D01*
X70000000Y-90000000D02*
X70000000Y-97100000D01*
X70000000Y-95000000D02*
X68873496Y-95586421D01*
X70000000Y-95000000D02*
X68873496Y-94413579D01*
X50000000Y-95000000D02*
X51126504Y-95586421D01*
X50000000Y-95000000D02*
X51126504Y-94413579D01*
X82214285Y-95228571D02*
X81928571Y-95228571D01*
X81785714Y-95300000D01*
X81714285Y-95371428D01*
X81571428Y-95585714D01*
X81500000Y-95871428D01*
X81500000Y-96442857D01*
X81571428Y-96585714D01*
X81642857Y-96657142D01*
X81785714Y-96728571D01*
X82071428Y-96728571D01*
X82214285Y-96657142D01*
X82285714Y-96585714D01*
X82357142Y-96442857D01*
X82357142Y-96085714D01*
X82285714Y-95942857D01*
X82214285Y-95871428D01*
X82071428Y-95800000D01*
X81785714Y-95800000D01*
X81642857Y-95871428D01*
X81571428Y-95942857D01*
X81500000Y-96085714D01*
X83071428Y-96657142D02*
X83071428Y-96728571D01*
X83000000Y-96871428D01*
X82928571Y-96942857D01*
X84000000Y-95228571D02*
X84142857Y-95228571D01*
X84285714Y-95300000D01*
X84357142Y-95371428D01*
X84428571Y-95514285D01*
X84500000Y-95800000D01*
X84500000Y-96157142D01*
X84428571Y-96442857D01*
X84357142Y-96585714D01*
X84285714Y-96657142D01*
X84142857Y-96728571D01*
X84000000Y-96728571D01*
X83857142Y-96657142D01*
X83785714Y-96585714D01*
X83714285Y-96442857D01*
X83642857Y-96157142D01*
X83642857Y-95800000D01*
X83714285Y-95514285D01*
X83785714Y-95371428D01*
X83857142Y-95300000D01*
X84000000Y-95228571D01*
X85428571Y-95228571D02*
X85571428Y-95228571D01*
X85714285Y-95300000D01*
X85785714Y-95371428D01*
X85857142Y-95514285D01*
X85928571Y-95800000D01*
X85928571Y-96157142D01*
X85857142Y-96442857D01*
X85785714Y-96585714D01*
X85714285Y-96657142D01*
X85571428Y-96728571D01*
X85428571Y-96728571D01*
X85285714Y-96657142D01*
X85214285Y-96585714D01*
X85142857Y-96442857D01*
X85071428Y-96157142D01*
X85071428Y-95800000D01*
X85142857Y-95514285D01*
X85214285Y-95371428D01*
X85285714Y-95300000D01*
X85428571Y-95228571D01*
X86857142Y-95228571D02*
X87000000Y-95228571D01*
X87142857Y-95300000D01*
X87214285Y-95371428D01*
X87285714Y-95514285D01*
X87357142Y-95800000D01*
X87357142Y-96157142D01*
X87285714Y-96442857D01*
X87214285Y-96585714D01*
X87142857Y-96657142D01*
X87000000Y-96728571D01*
X86857142Y-96728571D01*
X86714285Y-96657142D01*
X86642857Y-96585714D01*
X86571428Y-96442857D01*
X86500000Y-96157142D01*
X86500000Y-95800000D01*
X86571428Y-95514285D01*
X86642857Y-95371428D01*
X86714285Y-95300000D01*
X86857142Y-95228571D01*
X89142857Y-96728571D02*
X89142857Y-95728571D01*
X89142857Y-95871428D02*
X89214285Y-95800000D01*
X89357142Y-95728571D01*
X89571428Y-95728571D01*
X89714285Y-95800000D01*
X89785714Y-95942857D01*
X89785714Y-96728571D01*
X89785714Y-95942857D02*
X89857142Y-95800000D01*
X90000000Y-95728571D01*
X90214285Y-95728571D01*
X90357142Y-95800000D01*
X90428571Y-95942857D01*
X90428571Y-96728571D01*
X91142857Y-96728571D02*
X91142857Y-95728571D01*
X91142857Y-95871428D02*
X91214285Y-95800000D01*
X91357142Y-95728571D01*
X91571428Y-95728571D01*
X91714285Y-95800000D01*
X91785714Y-95942857D01*
X91785714Y-96728571D01*
X91785714Y-95942857D02*
X91857142Y-95800000D01*
X92000000Y-95728571D01*
X92214285Y-95728571D01*
X92357142Y-95800000D01*
X92428571Y-95942857D01*
X92428571Y-96728571D01*
X84000000Y-95000000D02*
X90000000Y-95000000D01*
X84000000Y-90000000D02*
X84000000Y-97100000D01*
X90000000Y-90000000D02*
X90000000Y-97100000D01*
X90000000Y-95000000D02*
X88873496Y-95586421D01*
X90000000Y-95000000D02*
X88873496Y-94413579D01*
X84000000Y-95000000D02*
X85126504Y-95586421D01*
X84000000Y-95000000D02*
X85126504Y-94413579D01*
X48214285Y-91728571D02*
X47928571Y-91728571D01*
X47785714Y-91800000D01*
X47714285Y-91871428D01*
X47571428Y-92085714D01*
X47500000Y-92371428D01*
X47500000Y-92942857D01*
X47571428Y-93085714D01*
X47642857Y-93157142D01*
X47785714Y-93228571D01*
X48071428Y-93228571D01*
X48214285Y-93157142D01*
X48285714Y-93085714D01*
X48357142Y-92942857D01*
X48357142Y-92585714D01*
X48285714Y-92442857D01*
X48214285Y-92371428D01*
X48071428Y-92300000D01*
X47785714Y-92300000D01*
X47642857Y-92371428D01*
X47571428Y-92442857D01*
X47500000Y-92585714D01*
X49071428Y-93157142D02*
X49071428Y-93228571D01*
X49000000Y-93371428D01*
X48928571Y-93442857D01*
X50000000Y-91728571D02*
X50142857Y-91728571D01*
X50285714Y-91800000D01*
X50357142Y-91871428D01*
X50428571Y-92014285D01*
X50500000Y-92300000D01*
X50500000Y-92657142D01*
X50428571Y-92942857D01*
X50357142Y-93085714D01*
X50285714Y-93157142D01*
X50142857Y-93228571D01*
X50000000Y-93228571D01*
X49857142Y-93157142D01*
X49785714Y-93085714D01*
X49714285Y-92942857D01*
X49642857Y-92657142D01*
X49642857Y-92300000D01*
X49714285Y-92014285D01*
X49785714Y-91871428D01*
X49857142Y-91800000D01*
X50000000Y-91728571D01*
X51428571Y-91728571D02*
X51571428Y-91728571D01*
X51714285Y-91800000D01*
X51785714Y-91871428D01*
X51857142Y-92014285D01*
X51928571Y-92300000D01*
X51928571Y-92657142D01*
X51857142Y-92942857D01*
X51785714Y-93085714D01*
X51714285Y-93157142D01*
X51571428Y-93228571D01*
X51428571Y-93228571D01*
X51285714Y-93157142D01*
X51214285Y-93085714D01*
X51142857Y-92942857D01*
X51071428Y-92657142D01*
X51071428Y-92300000D01*
X51142857Y-92014285D01*
X51214285Y-91871428D01*
X51285714Y-91800000D01*
X51428571Y-91728571D01*
X52857142Y-91728571D02*
X53000000Y-91728571D01*
X53142857Y-91800000D01*
X53214285Y-91871428D01*
X53285714Y-92014285D01*
X53357142Y-92300000D01*
X53357142Y-92657142D01*
X53285714Y-92942857D01*
X53214285Y-93085714D01*
X53142857Y-93157142D01*
X53000000Y-93228571D01*
X52857142Y-93228571D01*
X52714285Y-93157142D01*
X52642857Y-93085714D01*
X52571428Y-92942857D01*
X52500000Y-92657142D01*
X52500000Y-92300000D01*
X52571428Y-92014285D01*
X52642857Y-91871428D01*
X52714285Y-91800000D01*
X52857142Y-91728571D01*
X55142857Y-93228571D02*
X55142857Y-92228571D01*
X55142857Y-92371428D02*
X55214285Y-92300000D01*
X55357142Y-92228571D01*
X55571428Y-92228571D01*
X55714285Y-92300000D01*
X55785714Y-92442857D01*
X55785714Y-93228571D01*
X55785714Y-92442857D02*
X55857142Y-92300000D01*
X56000000Y-92228571D01*
X56214285Y-92228571D01*
X56357142Y-92300000D01*
X56428571Y-92442857D01*
X56428571Y-93228571D01*
X57142857Y-93228571D02*
X57142857Y-92228571D01*
X57142857Y-92371428D02*
X57214285Y-92300000D01*
X57357142Y-92228571D01*
X57571428Y-92228571D01*
X57714285Y-92300000D01*
X57785714Y-92442857D01*
X57785714Y-93228571D01*
X57785714Y-92442857D02*
X57857142Y-92300000D01*
X58000000Y-92228571D01*
X58214285Y-92228571D01*
X58357142Y-92300000D01*
X58428571Y-92442857D01*
X58428571Y-93228571D01*
X50000000Y-91500000D02*
X56000000Y-91500000D01*
X50000000Y-90000000D02*
X50000000Y-93600000D01*
X56000000Y-90000000D02*
X56000000Y-93600000D01*
X56000000Y-91500000D02*
X54873496Y-92086421D01*
X56000000Y-91500000D02*
X54873496Y-90913579D01*
X50000000Y-91500000D02*
X51126504Y-92086421D01*
X50000000Y-91500000D02*
X51126504Y-90913579D01*
D11*
X46676190Y-90297619D02*
X46676190Y-90583333D01*
X46676190Y-90440476D02*
X46176190Y-90440476D01*
X46247619Y-90488095D01*
X46295238Y-90535714D01*
X46319047Y-90583333D01*
X46652380Y-90059523D02*
X46676190Y-90059523D01*
X46723809Y-90083333D01*
X46747619Y-90107142D01*
X46176190Y-89607142D02*
X46176190Y-89845238D01*
X46414285Y-89869047D01*
X46390476Y-89845238D01*
X46366666Y-89797619D01*
X46366666Y-89678571D01*
X46390476Y-89630952D01*
X46414285Y-89607142D01*
X46461904Y-89583333D01*
X46580952Y-89583333D01*
X46628571Y-89607142D01*
X46652380Y-89630952D01*
X46676190Y-89678571D01*
X46676190Y-89797619D01*
X46652380Y-89845238D01*
X46628571Y-89869047D01*
X46176190Y-89273809D02*
X46176190Y-89226190D01*
X46200000Y-89178571D01*
X46223809Y-89154761D01*
X46271428Y-89130952D01*
X46366666Y-89107142D01*
X46485714Y-89107142D01*
X46580952Y-89130952D01*
X46628571Y-89154761D01*
X46652380Y-89178571D01*
X46676190Y-89226190D01*
X46676190Y-89273809D01*
X46652380Y-89321428D01*
X46628571Y-89345238D01*
X46580952Y-89369047D01*
X46485714Y-89392857D01*
X46366666Y-89392857D01*
X46271428Y-89369047D01*
X46223809Y-89345238D01*
X46200000Y-89321428D01*
X46176190Y-89273809D01*
X46176190Y-88797619D02*
X46176190Y-88750000D01*
X46200000Y-88702380D01*
X46223809Y-88678571D01*
X46271428Y-88654761D01*
X46366666Y-88630952D01*
X46485714Y-88630952D01*
X46580952Y-88654761D01*
X46628571Y-88678571D01*
X46652380Y-88702380D01*
X46676190Y-88750000D01*
X46676190Y-88797619D01*
X46652380Y-88845238D01*
X46628571Y-88869047D01*
X46580952Y-88892857D01*
X46485714Y-88916666D01*
X46366666Y-88916666D01*
X46271428Y-88892857D01*
X46223809Y-88869047D01*
X46200000Y-88845238D01*
X46176190Y-88797619D01*
X46676190Y-88035714D02*
X46342857Y-88035714D01*
X46390476Y-88035714D02*
X46366666Y-88011904D01*
X46342857Y-87964285D01*
X46342857Y-87892857D01*
X46366666Y-87845238D01*
X46414285Y-87821428D01*
X46676190Y-87821428D01*
X46414285Y-87821428D02*
X46366666Y-87797619D01*
X46342857Y-87750000D01*
X46342857Y-87678571D01*
X46366666Y-87630952D01*
X46414285Y-87607142D01*
X46676190Y-87607142D01*
X46676190Y-87369047D02*
X46342857Y-87369047D01*
X46390476Y-87369047D02*
X46366666Y-87345238D01*
X46342857Y-87297619D01*
X46342857Y-87226190D01*
X46366666Y-87178571D01*
X46414285Y-87154761D01*
X46676190Y-87154761D01*
X46414285Y-87154761D02*
X46366666Y-87130952D01*
X46342857Y-87083333D01*
X46342857Y-87011904D01*
X46366666Y-86964285D01*
X46414285Y-86940476D01*
X46676190Y-86940476D01*
X47500000Y-89500000D02*
X47500000Y-88000000D01*
X50000000Y-89500000D02*
X45400000Y-89500000D01*
X50000000Y-88000000D02*
X45400000Y-88000000D01*
X47500000Y-88000000D02*
X48086421Y-89126504D01*
X47500000Y-88000000D02*
X46913579Y-89126504D01*
X47500000Y-89500000D02*
X48086421Y-88373496D01*
X47500000Y-89500000D02*
X46913579Y-88373496D01*
D10*
X47128571Y-64357142D02*
X47128571Y-65214285D01*
X47128571Y-64785714D02*
X45628571Y-64785714D01*
X45842857Y-64928571D01*
X45985714Y-65071428D01*
X46057142Y-65214285D01*
X46271428Y-63500000D02*
X46200000Y-63642857D01*
X46128571Y-63714285D01*
X45985714Y-63785714D01*
X45914285Y-63785714D01*
X45771428Y-63714285D01*
X45700000Y-63642857D01*
X45628571Y-63500000D01*
X45628571Y-63214285D01*
X45700000Y-63071428D01*
X45771428Y-63000000D01*
X45914285Y-62928571D01*
X45985714Y-62928571D01*
X46128571Y-63000000D01*
X46200000Y-63071428D01*
X46271428Y-63214285D01*
X46271428Y-63500000D01*
X46342857Y-63642857D01*
X46414285Y-63714285D01*
X46557142Y-63785714D01*
X46842857Y-63785714D01*
X46985714Y-63714285D01*
X47057142Y-63642857D01*
X47128571Y-63500000D01*
X47128571Y-63214285D01*
X47057142Y-63071428D01*
X46985714Y-63000000D01*
X46842857Y-62928571D01*
X46557142Y-62928571D01*
X46414285Y-63000000D01*
X46342857Y-63071428D01*
X46271428Y-63214285D01*
X47057142Y-62214285D02*
X47128571Y-62214285D01*
X47271428Y-62285714D01*
X47342857Y-62357142D01*
X45628571Y-61285714D02*
X45628571Y-61142857D01*
X45700000Y-61000000D01*
X45771428Y-60928571D01*
X45914285Y-60857142D01*
X46200000Y-60785714D01*
X46557142Y-60785714D01*
X46842857Y-60857142D01*
X46985714Y-60928571D01*
X47057142Y-61000000D01*
X47128571Y-61142857D01*
X47128571Y-61285714D01*
X47057142Y-61428571D01*
X46985714Y-61500000D01*
X46842857Y-61571428D01*
X46557142Y-61642857D01*
X46200000Y-61642857D01*
X45914285Y-61571428D01*
X45771428Y-61500000D01*
X45700000Y-61428571D01*
X45628571Y-61285714D01*
X45628571Y-59857142D02*
X45628571Y-59714285D01*
X45700000Y-59571428D01*
X45771428Y-59500000D01*
X45914285Y-59428571D01*
X46200000Y-59357142D01*
X46557142Y-59357142D01*
X46842857Y-59428571D01*
X46985714Y-59500000D01*
X47057142Y-59571428D01*
X47128571Y-59714285D01*
X47128571Y-59857142D01*
X47057142Y-60000000D01*
X46985714Y-60071428D01*
X46842857Y-60142857D01*
X46557142Y-60214285D01*
X46200000Y-60214285D01*
X45914285Y-60142857D01*
X45771428Y-60071428D01*
X45700000Y-60000000D01*
X45628571Y-59857142D01*
X45628571Y-58428571D02*
X45628571Y-58285714D01*
X45700000Y-58142857D01*
X45771428Y-58071428D01*
X45914285Y-58000000D01*
X46200000Y-57928571D01*
X46557142Y-57928571D01*
X46842857Y-58000000D01*
X46985714Y-58071428D01*
X47057142Y-58142857D01*
X47128571Y-58285714D01*
X47128571Y-58428571D01*
X47057142Y-58571428D01*
X46985714Y-58642857D01*
X46842857Y-58714285D01*
X46557142Y-58785714D01*
X46200000Y-58785714D01*
X45914285Y-58714285D01*
X45771428Y-58642857D01*
X45700000Y-58571428D01*
X45628571Y-58428571D01*
X47128571Y-56142857D02*
X46128571Y-56142857D01*
X46271428Y-56142857D02*
X46200000Y-56071428D01*
X46128571Y-55928571D01*
X46128571Y-55714285D01*
X46200000Y-55571428D01*
X46342857Y-55500000D01*
X47128571Y-55500000D01*
X46342857Y-55500000D02*
X46200000Y-55428571D01*
X46128571Y-55285714D01*
X46128571Y-55071428D01*
X46200000Y-54928571D01*
X46342857Y-54857142D01*
X47128571Y-54857142D01*
X47128571Y-54142857D02*
X46128571Y-54142857D01*
X46271428Y-54142857D02*
X46200000Y-54071428D01*
X46128571Y-53928571D01*
X46128571Y-53714285D01*
X46200000Y-53571428D01*
X46342857Y-53500000D01*
X47128571Y-53500000D01*
X46342857Y-53500000D02*
X46200000Y-53428571D01*
X46128571Y-53285714D01*
X46128571Y-53071428D01*
X46200000Y-52928571D01*
X46342857Y-52857142D01*
X47128571Y-52857142D01*
X47500000Y-68000000D02*
X47500000Y-50000000D01*
X50000000Y-68000000D02*
X45400000Y-68000000D01*
X50000000Y-50000000D02*
X45400000Y-50000000D01*
X47500000Y-50000000D02*
X48086421Y-51126504D01*
X47500000Y-50000000D02*
X46913579Y-51126504D01*
X47500000Y-68000000D02*
X48086421Y-66873496D01*
X47500000Y-68000000D02*
X46913579Y-66873496D01*
X49642857Y-47128571D02*
X48785714Y-47128571D01*
X49214285Y-47128571D02*
X49214285Y-45628571D01*
X49071428Y-45842857D01*
X48928571Y-45985714D01*
X48785714Y-46057142D01*
X50571428Y-45628571D02*
X50714285Y-45628571D01*
X50857142Y-45700000D01*
X50928571Y-45771428D01*
X51000000Y-45914285D01*
X51071428Y-46200000D01*
X51071428Y-46557142D01*
X51000000Y-46842857D01*
X50928571Y-46985714D01*
X50857142Y-47057142D01*
X50714285Y-47128571D01*
X50571428Y-47128571D01*
X50428571Y-47057142D01*
X50357142Y-46985714D01*
X50285714Y-46842857D01*
X50214285Y-46557142D01*
X50214285Y-46200000D01*
X50285714Y-45914285D01*
X50357142Y-45771428D01*
X50428571Y-45700000D01*
X50571428Y-45628571D01*
X51785714Y-47057142D02*
X51785714Y-47128571D01*
X51714285Y-47271428D01*
X51642857Y-47342857D01*
X52714285Y-45628571D02*
X52857142Y-45628571D01*
X53000000Y-45700000D01*
X53071428Y-45771428D01*
X53142857Y-45914285D01*
X53214285Y-46200000D01*
X53214285Y-46557142D01*
X53142857Y-46842857D01*
X53071428Y-46985714D01*
X53000000Y-47057142D01*
X52857142Y-47128571D01*
X52714285Y-47128571D01*
X52571428Y-47057142D01*
X52500000Y-46985714D01*
X52428571Y-46842857D01*
X52357142Y-46557142D01*
X52357142Y-46200000D01*
X52428571Y-45914285D01*
X52500000Y-45771428D01*
X52571428Y-45700000D01*
X52714285Y-45628571D01*
X54142857Y-45628571D02*
X54285714Y-45628571D01*
X54428571Y-45700000D01*
X54500000Y-45771428D01*
X54571428Y-45914285D01*
X54642857Y-46200000D01*
X54642857Y-46557142D01*
X54571428Y-46842857D01*
X54500000Y-46985714D01*
X54428571Y-47057142D01*
X54285714Y-47128571D01*
X54142857Y-47128571D01*
X54000000Y-47057142D01*
X53928571Y-46985714D01*
X53857142Y-46842857D01*
X53785714Y-46557142D01*
X53785714Y-46200000D01*
X53857142Y-45914285D01*
X53928571Y-45771428D01*
X54000000Y-45700000D01*
X54142857Y-45628571D01*
X55571428Y-45628571D02*
X55714285Y-45628571D01*
X55857142Y-45700000D01*
X55928571Y-45771428D01*
X56000000Y-45914285D01*
X56071428Y-46200000D01*
X56071428Y-46557142D01*
X56000000Y-46842857D01*
X55928571Y-46985714D01*
X55857142Y-47057142D01*
X55714285Y-47128571D01*
X55571428Y-47128571D01*
X55428571Y-47057142D01*
X55357142Y-46985714D01*
X55285714Y-46842857D01*
X55214285Y-46557142D01*
X55214285Y-46200000D01*
X55285714Y-45914285D01*
X55357142Y-45771428D01*
X55428571Y-45700000D01*
X55571428Y-45628571D01*
X57857142Y-47128571D02*
X57857142Y-46128571D01*
X57857142Y-46271428D02*
X57928571Y-46200000D01*
X58071428Y-46128571D01*
X58285714Y-46128571D01*
X58428571Y-46200000D01*
X58500000Y-46342857D01*
X58500000Y-47128571D01*
X58500000Y-46342857D02*
X58571428Y-46200000D01*
X58714285Y-46128571D01*
X58928571Y-46128571D01*
X59071428Y-46200000D01*
X59142857Y-46342857D01*
X59142857Y-47128571D01*
X59857142Y-47128571D02*
X59857142Y-46128571D01*
X59857142Y-46271428D02*
X59928571Y-46200000D01*
X60071428Y-46128571D01*
X60285714Y-46128571D01*
X60428571Y-46200000D01*
X60500000Y-46342857D01*
X60500000Y-47128571D01*
X60500000Y-46342857D02*
X60571428Y-46200000D01*
X60714285Y-46128571D01*
X60928571Y-46128571D01*
X61071428Y-46200000D01*
X61142857Y-46342857D01*
X61142857Y-47128571D01*
X50000000Y-47500000D02*
X60000000Y-47500000D01*
X50000000Y-50000000D02*
X50000000Y-45400000D01*
X60000000Y-50000000D02*
X60000000Y-45400000D01*
X60000000Y-47500000D02*
X58873496Y-48086421D01*
X60000000Y-47500000D02*
X58873496Y-46913579D01*
X50000000Y-47500000D02*
X51126504Y-48086421D01*
X50000000Y-47500000D02*
X51126504Y-46913579D01*
X63785714Y-45771428D02*
X63857142Y-45700000D01*
X64000000Y-45628571D01*
X64357142Y-45628571D01*
X64500000Y-45700000D01*
X64571428Y-45771428D01*
X64642857Y-45914285D01*
X64642857Y-46057142D01*
X64571428Y-46271428D01*
X63714285Y-47128571D01*
X64642857Y-47128571D01*
X65571428Y-45628571D02*
X65714285Y-45628571D01*
X65857142Y-45700000D01*
X65928571Y-45771428D01*
X66000000Y-45914285D01*
X66071428Y-46200000D01*
X66071428Y-46557142D01*
X66000000Y-46842857D01*
X65928571Y-46985714D01*
X65857142Y-47057142D01*
X65714285Y-47128571D01*
X65571428Y-47128571D01*
X65428571Y-47057142D01*
X65357142Y-46985714D01*
X65285714Y-46842857D01*
X65214285Y-46557142D01*
X65214285Y-46200000D01*
X65285714Y-45914285D01*
X65357142Y-45771428D01*
X65428571Y-45700000D01*
X65571428Y-45628571D01*
X66785714Y-47057142D02*
X66785714Y-47128571D01*
X66714285Y-47271428D01*
X66642857Y-47342857D01*
X67714285Y-45628571D02*
X67857142Y-45628571D01*
X68000000Y-45700000D01*
X68071428Y-45771428D01*
X68142857Y-45914285D01*
X68214285Y-46200000D01*
X68214285Y-46557142D01*
X68142857Y-46842857D01*
X68071428Y-46985714D01*
X68000000Y-47057142D01*
X67857142Y-47128571D01*
X67714285Y-47128571D01*
X67571428Y-47057142D01*
X67500000Y-46985714D01*
X67428571Y-46842857D01*
X67357142Y-46557142D01*
X67357142Y-46200000D01*
X67428571Y-45914285D01*
X67500000Y-45771428D01*
X67571428Y-45700000D01*
X67714285Y-45628571D01*
X69142857Y-45628571D02*
X69285714Y-45628571D01*
X69428571Y-45700000D01*
X69500000Y-45771428D01*
X69571428Y-45914285D01*
X69642857Y-46200000D01*
X69642857Y-46557142D01*
X69571428Y-46842857D01*
X69500000Y-46985714D01*
X69428571Y-47057142D01*
X69285714Y-47128571D01*
X69142857Y-47128571D01*
X69000000Y-47057142D01*
X68928571Y-46985714D01*
X68857142Y-46842857D01*
X68785714Y-46557142D01*
X68785714Y-46200000D01*
X68857142Y-45914285D01*
X68928571Y-45771428D01*
X69000000Y-45700000D01*
X69142857Y-45628571D01*
X70571428Y-45628571D02*
X70714285Y-45628571D01*
X70857142Y-45700000D01*
X70928571Y-45771428D01*
X71000000Y-45914285D01*
X71071428Y-46200000D01*
X71071428Y-46557142D01*
X71000000Y-46842857D01*
X70928571Y-46985714D01*
X70857142Y-47057142D01*
X70714285Y-47128571D01*
X70571428Y-47128571D01*
X70428571Y-47057142D01*
X70357142Y-46985714D01*
X70285714Y-46842857D01*
X70214285Y-46557142D01*
X70214285Y-46200000D01*
X70285714Y-45914285D01*
X70357142Y-45771428D01*
X70428571Y-45700000D01*
X70571428Y-45628571D01*
X72857142Y-47128571D02*
X72857142Y-46128571D01*
X72857142Y-46271428D02*
X72928571Y-46200000D01*
X73071428Y-46128571D01*
X73285714Y-46128571D01*
X73428571Y-46200000D01*
X73500000Y-46342857D01*
X73500000Y-47128571D01*
X73500000Y-46342857D02*
X73571428Y-46200000D01*
X73714285Y-46128571D01*
X73928571Y-46128571D01*
X74071428Y-46200000D01*
X74142857Y-46342857D01*
X74142857Y-47128571D01*
X74857142Y-47128571D02*
X74857142Y-46128571D01*
X74857142Y-46271428D02*
X74928571Y-46200000D01*
X75071428Y-46128571D01*
X75285714Y-46128571D01*
X75428571Y-46200000D01*
X75500000Y-46342857D01*
X75500000Y-47128571D01*
X75500000Y-46342857D02*
X75571428Y-46200000D01*
X75714285Y-46128571D01*
X75928571Y-46128571D01*
X76071428Y-46200000D01*
X76142857Y-46342857D01*
X76142857Y-47128571D01*
X60000000Y-47500000D02*
X80000000Y-47500000D01*
X60000000Y-50000000D02*
X60000000Y-45400000D01*
X80000000Y-50000000D02*
X80000000Y-45400000D01*
X80000000Y-47500000D02*
X78873496Y-48086421D01*
X80000000Y-47500000D02*
X78873496Y-46913579D01*
X60000000Y-47500000D02*
X61126504Y-48086421D01*
X60000000Y-47500000D02*
X61126504Y-46913579D01*
X38628571Y-75500000D02*
X39628571Y-75500000D01*
X38057142Y-75857142D02*
X39128571Y-76214285D01*
X39128571Y-75285714D01*
X38128571Y-74428571D02*
X38128571Y-74285714D01*
X38200000Y-74142857D01*
X38271428Y-74071428D01*
X38414285Y-74000000D01*
X38700000Y-73928571D01*
X39057142Y-73928571D01*
X39342857Y-74000000D01*
X39485714Y-74071428D01*
X39557142Y-74142857D01*
X39628571Y-74285714D01*
X39628571Y-74428571D01*
X39557142Y-74571428D01*
X39485714Y-74642857D01*
X39342857Y-74714285D01*
X39057142Y-74785714D01*
X38700000Y-74785714D01*
X38414285Y-74714285D01*
X38271428Y-74642857D01*
X38200000Y-74571428D01*
X38128571Y-74428571D01*
X39557142Y-73214285D02*
X39628571Y-73214285D01*
X39771428Y-73285714D01*
X39842857Y-73357142D01*
X38128571Y-72285714D02*
X38128571Y-72142857D01*
X38200000Y-72000000D01*
X38271428Y-71928571D01*
X38414285Y-71857142D01*
X38700000Y-71785714D01*
X39057142Y-71785714D01*
X39342857Y-71857142D01*
X39485714Y-71928571D01*
X39557142Y-72000000D01*
X39628571Y-72142857D01*
X39628571Y-72285714D01*
X39557142Y-72428571D01*
X39485714Y-72500000D01*
X39342857Y-72571428D01*
X39057142Y-72642857D01*
X38700000Y-72642857D01*
X38414285Y-72571428D01*
X38271428Y-72500000D01*
X38200000Y-72428571D01*
X38128571Y-72285714D01*
X38128571Y-70857142D02*
X38128571Y-70714285D01*
X38200000Y-70571428D01*
X38271428Y-70500000D01*
X38414285Y-70428571D01*
X38700000Y-70357142D01*
X39057142Y-70357142D01*
X39342857Y-70428571D01*
X39485714Y-70500000D01*
X39557142Y-70571428D01*
X39628571Y-70714285D01*
X39628571Y-70857142D01*
X39557142Y-71000000D01*
X39485714Y-71071428D01*
X39342857Y-71142857D01*
X39057142Y-71214285D01*
X38700000Y-71214285D01*
X38414285Y-71142857D01*
X38271428Y-71071428D01*
X38200000Y-71000000D01*
X38128571Y-70857142D01*
X38128571Y-69428571D02*
X38128571Y-69285714D01*
X38200000Y-69142857D01*
X38271428Y-69071428D01*
X38414285Y-69000000D01*
X38700000Y-68928571D01*
X39057142Y-68928571D01*
X39342857Y-69000000D01*
X39485714Y-69071428D01*
X39557142Y-69142857D01*
X39628571Y-69285714D01*
X39628571Y-69428571D01*
X39557142Y-69571428D01*
X39485714Y-69642857D01*
X39342857Y-69714285D01*
X39057142Y-69785714D01*
X38700000Y-69785714D01*
X38414285Y-69714285D01*
X38271428Y-69642857D01*
X38200000Y-69571428D01*
X38128571Y-69428571D01*
X39628571Y-67142857D02*
X38628571Y-67142857D01*
X38771428Y-67142857D02*
X38700000Y-67071428D01*
X38628571Y-66928571D01*
X38628571Y-66714285D01*
X38700000Y-66571428D01*
X38842857Y-66500000D01*
X39628571Y-66500000D01*
X38842857Y-66500000D02*
X38700000Y-66428571D01*
X38628571Y-66285714D01*
X38628571Y-66071428D01*
X38700000Y-65928571D01*
X38842857Y-65857142D01*
X39628571Y-65857142D01*
X39628571Y-65142857D02*
X38628571Y-65142857D01*
X38771428Y-65142857D02*
X38700000Y-65071428D01*
X38628571Y-64928571D01*
X38628571Y-64714285D01*
X38700000Y-64571428D01*
X38842857Y-64500000D01*
X39628571Y-64500000D01*
X38842857Y-64500000D02*
X38700000Y-64428571D01*
X38628571Y-64285714D01*
X38628571Y-64071428D01*
X38700000Y-63928571D01*
X38842857Y-63857142D01*
X39628571Y-63857142D01*
X40000000Y-90000000D02*
X40000000Y-50000000D01*
X50000000Y-90000000D02*
X37900000Y-90000000D01*
X50000000Y-50000000D02*
X37900000Y-50000000D01*
X40000000Y-50000000D02*
X40586421Y-51126504D01*
X40000000Y-50000000D02*
X39413579Y-51126504D01*
X40000000Y-90000000D02*
X40586421Y-88873496D01*
X40000000Y-90000000D02*
X39413579Y-88873496D01*
X64500000Y-41128571D02*
X64500000Y-42128571D01*
X64142857Y-40557142D02*
X63785714Y-41628571D01*
X64714285Y-41628571D01*
X65571428Y-40628571D02*
X65714285Y-40628571D01*
X65857142Y-40700000D01*
X65928571Y-40771428D01*
X66000000Y-40914285D01*
X66071428Y-41200000D01*
X66071428Y-41557142D01*
X66000000Y-41842857D01*
X65928571Y-41985714D01*
X65857142Y-42057142D01*
X65714285Y-42128571D01*
X65571428Y-42128571D01*
X65428571Y-42057142D01*
X65357142Y-41985714D01*
X65285714Y-41842857D01*
X65214285Y-41557142D01*
X65214285Y-41200000D01*
X65285714Y-40914285D01*
X65357142Y-40771428D01*
X65428571Y-40700000D01*
X65571428Y-40628571D01*
X66785714Y-42057142D02*
X66785714Y-42128571D01*
X66714285Y-42271428D01*
X66642857Y-42342857D01*
X67714285Y-40628571D02*
X67857142Y-40628571D01*
X68000000Y-40700000D01*
X68071428Y-40771428D01*
X68142857Y-40914285D01*
X68214285Y-41200000D01*
X68214285Y-41557142D01*
X68142857Y-41842857D01*
X68071428Y-41985714D01*
X68000000Y-42057142D01*
X67857142Y-42128571D01*
X67714285Y-42128571D01*
X67571428Y-42057142D01*
X67500000Y-41985714D01*
X67428571Y-41842857D01*
X67357142Y-41557142D01*
X67357142Y-41200000D01*
X67428571Y-40914285D01*
X67500000Y-40771428D01*
X67571428Y-40700000D01*
X67714285Y-40628571D01*
X69142857Y-40628571D02*
X69285714Y-40628571D01*
X69428571Y-40700000D01*
X69500000Y-40771428D01*
X69571428Y-40914285D01*
X69642857Y-41200000D01*
X69642857Y-41557142D01*
X69571428Y-41842857D01*
X69500000Y-41985714D01*
X69428571Y-42057142D01*
X69285714Y-42128571D01*
X69142857Y-42128571D01*
X69000000Y-42057142D01*
X68928571Y-41985714D01*
X68857142Y-41842857D01*
X68785714Y-41557142D01*
X68785714Y-41200000D01*
X68857142Y-40914285D01*
X68928571Y-40771428D01*
X69000000Y-40700000D01*
X69142857Y-40628571D01*
X70571428Y-40628571D02*
X70714285Y-40628571D01*
X70857142Y-40700000D01*
X70928571Y-40771428D01*
X71000000Y-40914285D01*
X71071428Y-41200000D01*
X71071428Y-41557142D01*
X71000000Y-41842857D01*
X70928571Y-41985714D01*
X70857142Y-42057142D01*
X70714285Y-42128571D01*
X70571428Y-42128571D01*
X70428571Y-42057142D01*
X70357142Y-41985714D01*
X70285714Y-41842857D01*
X70214285Y-41557142D01*
X70214285Y-41200000D01*
X70285714Y-40914285D01*
X70357142Y-40771428D01*
X70428571Y-40700000D01*
X70571428Y-40628571D01*
X72857142Y-42128571D02*
X72857142Y-41128571D01*
X72857142Y-41271428D02*
X72928571Y-41200000D01*
X73071428Y-41128571D01*
X73285714Y-41128571D01*
X73428571Y-41200000D01*
X73500000Y-41342857D01*
X73500000Y-42128571D01*
X73500000Y-41342857D02*
X73571428Y-41200000D01*
X73714285Y-41128571D01*
X73928571Y-41128571D01*
X74071428Y-41200000D01*
X74142857Y-41342857D01*
X74142857Y-42128571D01*
X74857142Y-42128571D02*
X74857142Y-41128571D01*
X74857142Y-41271428D02*
X74928571Y-41200000D01*
X75071428Y-41128571D01*
X75285714Y-41128571D01*
X75428571Y-41200000D01*
X75500000Y-41342857D01*
X75500000Y-42128571D01*
X75500000Y-41342857D02*
X75571428Y-41200000D01*
X75714285Y-41128571D01*
X75928571Y-41128571D01*
X76071428Y-41200000D01*
X76142857Y-41342857D01*
X76142857Y-42128571D01*
X50000000Y-42500000D02*
X90000000Y-42500000D01*
X50000000Y-50000000D02*
X50000000Y-40400000D01*
X90000000Y-50000000D02*
X90000000Y-40400000D01*
X90000000Y-42500000D02*
X88873496Y-43086421D01*
X90000000Y-42500000D02*
X88873496Y-41913579D01*
X50000000Y-42500000D02*
X51126504Y-43086421D01*
X50000000Y-42500000D02*
X51126504Y-41913579D01*
%TO.C,MK1*%
X62850000Y-68000000D02*
G75*
G03X62850000Y-68000000I-2850000J0D01*
G01*
%TO.C,MK2*%
X82850000Y-68000000D02*
G75*
G03X82850000Y-68000000I-2850000J0D01*
G01*
%TD*%
M02*
