%TF.GenerationSoftware,KiCad,Pcbnew,no-vcs-found-2c23c4c~60~ubuntu17.04.1*%
%TF.CreationDate,2017-09-27T12:04:39+02:00*%
%TF.ProjectId,LEDBoard_4x4_16bit,4C4544426F6172645F3478345F313662,3.0.1*%
%TF.SameCoordinates,Original*%
%TF.FileFunction,Soldermask,Bot*%
%TF.FilePolarity,Negative*%
%FSLAX46Y46*%
G04 Gerber Fmt 4.6, Leading zero omitted, Abs format (unit mm)*
G04 Created by KiCad (PCBNEW no-vcs-found-2c23c4c~60~ubuntu17.04.1) date Wed Sep 27 12:04:39 2017*
%MOMM*%
%LPD*%
G01*
G04 APERTURE LIST*
%ADD10C,0.100000*%
G04 APERTURE END LIST*
D10*
G36*
X66375949Y-87089409D02*
X66375963Y-87089413D01*
X66375997Y-87089417D01*
X66548452Y-87142801D01*
X66707253Y-87228664D01*
X66846353Y-87343737D01*
X66960452Y-87483637D01*
X67045205Y-87643034D01*
X67097384Y-87815857D01*
X67115000Y-87995524D01*
X67115000Y-88004476D01*
X67114910Y-88017391D01*
X67094787Y-88196794D01*
X67040200Y-88368872D01*
X66953230Y-88527070D01*
X66837189Y-88665363D01*
X66696496Y-88778483D01*
X66536511Y-88862121D01*
X66363328Y-88913092D01*
X66363294Y-88913095D01*
X66363281Y-88913099D01*
X66183544Y-88929456D01*
X66004051Y-88910591D01*
X66004037Y-88910587D01*
X66004003Y-88910583D01*
X65831548Y-88857199D01*
X65672747Y-88771336D01*
X65533647Y-88656263D01*
X65419548Y-88516363D01*
X65334795Y-88356966D01*
X65282616Y-88184143D01*
X65265000Y-88004476D01*
X65265000Y-87995524D01*
X65265090Y-87982609D01*
X65285213Y-87803206D01*
X65339800Y-87631128D01*
X65426770Y-87472930D01*
X65542811Y-87334637D01*
X65683504Y-87221517D01*
X65843489Y-87137879D01*
X66016672Y-87086908D01*
X66016706Y-87086905D01*
X66016719Y-87086901D01*
X66196456Y-87070544D01*
X66375949Y-87089409D01*
X66375949Y-87089409D01*
G37*
G36*
X68915949Y-87089409D02*
X68915963Y-87089413D01*
X68915997Y-87089417D01*
X69088452Y-87142801D01*
X69247253Y-87228664D01*
X69386353Y-87343737D01*
X69500452Y-87483637D01*
X69585205Y-87643034D01*
X69637384Y-87815857D01*
X69655000Y-87995524D01*
X69655000Y-88004476D01*
X69654910Y-88017391D01*
X69634787Y-88196794D01*
X69580200Y-88368872D01*
X69493230Y-88527070D01*
X69377189Y-88665363D01*
X69236496Y-88778483D01*
X69076511Y-88862121D01*
X68903328Y-88913092D01*
X68903294Y-88913095D01*
X68903281Y-88913099D01*
X68723544Y-88929456D01*
X68544051Y-88910591D01*
X68544037Y-88910587D01*
X68544003Y-88910583D01*
X68371548Y-88857199D01*
X68212747Y-88771336D01*
X68073647Y-88656263D01*
X67959548Y-88516363D01*
X67874795Y-88356966D01*
X67822616Y-88184143D01*
X67805000Y-88004476D01*
X67805000Y-87995524D01*
X67805090Y-87982609D01*
X67825213Y-87803206D01*
X67879800Y-87631128D01*
X67966770Y-87472930D01*
X68082811Y-87334637D01*
X68223504Y-87221517D01*
X68383489Y-87137879D01*
X68556672Y-87086908D01*
X68556706Y-87086905D01*
X68556719Y-87086901D01*
X68736456Y-87070544D01*
X68915949Y-87089409D01*
X68915949Y-87089409D01*
G37*
G36*
X71455949Y-87089409D02*
X71455963Y-87089413D01*
X71455997Y-87089417D01*
X71628452Y-87142801D01*
X71787253Y-87228664D01*
X71926353Y-87343737D01*
X72040452Y-87483637D01*
X72125205Y-87643034D01*
X72177384Y-87815857D01*
X72195000Y-87995524D01*
X72195000Y-88004476D01*
X72194910Y-88017391D01*
X72174787Y-88196794D01*
X72120200Y-88368872D01*
X72033230Y-88527070D01*
X71917189Y-88665363D01*
X71776496Y-88778483D01*
X71616511Y-88862121D01*
X71443328Y-88913092D01*
X71443294Y-88913095D01*
X71443281Y-88913099D01*
X71263544Y-88929456D01*
X71084051Y-88910591D01*
X71084037Y-88910587D01*
X71084003Y-88910583D01*
X70911548Y-88857199D01*
X70752747Y-88771336D01*
X70613647Y-88656263D01*
X70499548Y-88516363D01*
X70414795Y-88356966D01*
X70362616Y-88184143D01*
X70345000Y-88004476D01*
X70345000Y-87995524D01*
X70345090Y-87982609D01*
X70365213Y-87803206D01*
X70419800Y-87631128D01*
X70506770Y-87472930D01*
X70622811Y-87334637D01*
X70763504Y-87221517D01*
X70923489Y-87137879D01*
X71096672Y-87086908D01*
X71096706Y-87086905D01*
X71096719Y-87086901D01*
X71276456Y-87070544D01*
X71455949Y-87089409D01*
X71455949Y-87089409D01*
G37*
G36*
X73995949Y-87089409D02*
X73995963Y-87089413D01*
X73995997Y-87089417D01*
X74168452Y-87142801D01*
X74327253Y-87228664D01*
X74466353Y-87343737D01*
X74580452Y-87483637D01*
X74665205Y-87643034D01*
X74717384Y-87815857D01*
X74735000Y-87995524D01*
X74735000Y-88004476D01*
X74734910Y-88017391D01*
X74714787Y-88196794D01*
X74660200Y-88368872D01*
X74573230Y-88527070D01*
X74457189Y-88665363D01*
X74316496Y-88778483D01*
X74156511Y-88862121D01*
X73983328Y-88913092D01*
X73983294Y-88913095D01*
X73983281Y-88913099D01*
X73803544Y-88929456D01*
X73624051Y-88910591D01*
X73624037Y-88910587D01*
X73624003Y-88910583D01*
X73451548Y-88857199D01*
X73292747Y-88771336D01*
X73153647Y-88656263D01*
X73039548Y-88516363D01*
X72954795Y-88356966D01*
X72902616Y-88184143D01*
X72885000Y-88004476D01*
X72885000Y-87995524D01*
X72885090Y-87982609D01*
X72905213Y-87803206D01*
X72959800Y-87631128D01*
X73046770Y-87472930D01*
X73162811Y-87334637D01*
X73303504Y-87221517D01*
X73463489Y-87137879D01*
X73636672Y-87086908D01*
X73636706Y-87086905D01*
X73636719Y-87086901D01*
X73816456Y-87070544D01*
X73995949Y-87089409D01*
X73995949Y-87089409D01*
G37*
G36*
X76535949Y-87089409D02*
X76535963Y-87089413D01*
X76535997Y-87089417D01*
X76708452Y-87142801D01*
X76867253Y-87228664D01*
X77006353Y-87343737D01*
X77120452Y-87483637D01*
X77205205Y-87643034D01*
X77257384Y-87815857D01*
X77275000Y-87995524D01*
X77275000Y-88004476D01*
X77274910Y-88017391D01*
X77254787Y-88196794D01*
X77200200Y-88368872D01*
X77113230Y-88527070D01*
X76997189Y-88665363D01*
X76856496Y-88778483D01*
X76696511Y-88862121D01*
X76523328Y-88913092D01*
X76523294Y-88913095D01*
X76523281Y-88913099D01*
X76343544Y-88929456D01*
X76164051Y-88910591D01*
X76164037Y-88910587D01*
X76164003Y-88910583D01*
X75991548Y-88857199D01*
X75832747Y-88771336D01*
X75693647Y-88656263D01*
X75579548Y-88516363D01*
X75494795Y-88356966D01*
X75442616Y-88184143D01*
X75425000Y-88004476D01*
X75425000Y-87995524D01*
X75425090Y-87982609D01*
X75445213Y-87803206D01*
X75499800Y-87631128D01*
X75586770Y-87472930D01*
X75702811Y-87334637D01*
X75843504Y-87221517D01*
X76003489Y-87137879D01*
X76176672Y-87086908D01*
X76176706Y-87086905D01*
X76176719Y-87086901D01*
X76356456Y-87070544D01*
X76535949Y-87089409D01*
X76535949Y-87089409D01*
G37*
G36*
X81615949Y-87089409D02*
X81615963Y-87089413D01*
X81615997Y-87089417D01*
X81788452Y-87142801D01*
X81947253Y-87228664D01*
X82086353Y-87343737D01*
X82200452Y-87483637D01*
X82285205Y-87643034D01*
X82337384Y-87815857D01*
X82355000Y-87995524D01*
X82355000Y-88004476D01*
X82354910Y-88017391D01*
X82334787Y-88196794D01*
X82280200Y-88368872D01*
X82193230Y-88527070D01*
X82077189Y-88665363D01*
X81936496Y-88778483D01*
X81776511Y-88862121D01*
X81603328Y-88913092D01*
X81603294Y-88913095D01*
X81603281Y-88913099D01*
X81423544Y-88929456D01*
X81244051Y-88910591D01*
X81244037Y-88910587D01*
X81244003Y-88910583D01*
X81071548Y-88857199D01*
X80912747Y-88771336D01*
X80773647Y-88656263D01*
X80659548Y-88516363D01*
X80574795Y-88356966D01*
X80522616Y-88184143D01*
X80505000Y-88004476D01*
X80505000Y-87995524D01*
X80505090Y-87982609D01*
X80525213Y-87803206D01*
X80579800Y-87631128D01*
X80666770Y-87472930D01*
X80782811Y-87334637D01*
X80923504Y-87221517D01*
X81083489Y-87137879D01*
X81256672Y-87086908D01*
X81256706Y-87086905D01*
X81256719Y-87086901D01*
X81436456Y-87070544D01*
X81615949Y-87089409D01*
X81615949Y-87089409D01*
G37*
G36*
X84155949Y-87089409D02*
X84155963Y-87089413D01*
X84155997Y-87089417D01*
X84328452Y-87142801D01*
X84487253Y-87228664D01*
X84626353Y-87343737D01*
X84740452Y-87483637D01*
X84825205Y-87643034D01*
X84877384Y-87815857D01*
X84895000Y-87995524D01*
X84895000Y-88004476D01*
X84894910Y-88017391D01*
X84874787Y-88196794D01*
X84820200Y-88368872D01*
X84733230Y-88527070D01*
X84617189Y-88665363D01*
X84476496Y-88778483D01*
X84316511Y-88862121D01*
X84143328Y-88913092D01*
X84143294Y-88913095D01*
X84143281Y-88913099D01*
X83963544Y-88929456D01*
X83784051Y-88910591D01*
X83784037Y-88910587D01*
X83784003Y-88910583D01*
X83611548Y-88857199D01*
X83452747Y-88771336D01*
X83313647Y-88656263D01*
X83199548Y-88516363D01*
X83114795Y-88356966D01*
X83062616Y-88184143D01*
X83045000Y-88004476D01*
X83045000Y-87995524D01*
X83045090Y-87982609D01*
X83065213Y-87803206D01*
X83119800Y-87631128D01*
X83206770Y-87472930D01*
X83322811Y-87334637D01*
X83463504Y-87221517D01*
X83623489Y-87137879D01*
X83796672Y-87086908D01*
X83796706Y-87086905D01*
X83796719Y-87086901D01*
X83976456Y-87070544D01*
X84155949Y-87089409D01*
X84155949Y-87089409D01*
G37*
G36*
X58755949Y-87089409D02*
X58755963Y-87089413D01*
X58755997Y-87089417D01*
X58928452Y-87142801D01*
X59087253Y-87228664D01*
X59226353Y-87343737D01*
X59340452Y-87483637D01*
X59425205Y-87643034D01*
X59477384Y-87815857D01*
X59495000Y-87995524D01*
X59495000Y-88004476D01*
X59494910Y-88017391D01*
X59474787Y-88196794D01*
X59420200Y-88368872D01*
X59333230Y-88527070D01*
X59217189Y-88665363D01*
X59076496Y-88778483D01*
X58916511Y-88862121D01*
X58743328Y-88913092D01*
X58743294Y-88913095D01*
X58743281Y-88913099D01*
X58563544Y-88929456D01*
X58384051Y-88910591D01*
X58384037Y-88910587D01*
X58384003Y-88910583D01*
X58211548Y-88857199D01*
X58052747Y-88771336D01*
X57913647Y-88656263D01*
X57799548Y-88516363D01*
X57714795Y-88356966D01*
X57662616Y-88184143D01*
X57645000Y-88004476D01*
X57645000Y-87995524D01*
X57645090Y-87982609D01*
X57665213Y-87803206D01*
X57719800Y-87631128D01*
X57806770Y-87472930D01*
X57922811Y-87334637D01*
X58063504Y-87221517D01*
X58223489Y-87137879D01*
X58396672Y-87086908D01*
X58396706Y-87086905D01*
X58396719Y-87086901D01*
X58576456Y-87070544D01*
X58755949Y-87089409D01*
X58755949Y-87089409D01*
G37*
G36*
X61295949Y-87089409D02*
X61295963Y-87089413D01*
X61295997Y-87089417D01*
X61468452Y-87142801D01*
X61627253Y-87228664D01*
X61766353Y-87343737D01*
X61880452Y-87483637D01*
X61965205Y-87643034D01*
X62017384Y-87815857D01*
X62035000Y-87995524D01*
X62035000Y-88004476D01*
X62034910Y-88017391D01*
X62014787Y-88196794D01*
X61960200Y-88368872D01*
X61873230Y-88527070D01*
X61757189Y-88665363D01*
X61616496Y-88778483D01*
X61456511Y-88862121D01*
X61283328Y-88913092D01*
X61283294Y-88913095D01*
X61283281Y-88913099D01*
X61103544Y-88929456D01*
X60924051Y-88910591D01*
X60924037Y-88910587D01*
X60924003Y-88910583D01*
X60751548Y-88857199D01*
X60592747Y-88771336D01*
X60453647Y-88656263D01*
X60339548Y-88516363D01*
X60254795Y-88356966D01*
X60202616Y-88184143D01*
X60185000Y-88004476D01*
X60185000Y-87995524D01*
X60185090Y-87982609D01*
X60205213Y-87803206D01*
X60259800Y-87631128D01*
X60346770Y-87472930D01*
X60462811Y-87334637D01*
X60603504Y-87221517D01*
X60763489Y-87137879D01*
X60936672Y-87086908D01*
X60936706Y-87086905D01*
X60936719Y-87086901D01*
X61116456Y-87070544D01*
X61295949Y-87089409D01*
X61295949Y-87089409D01*
G37*
G36*
X64575000Y-88925000D02*
X62725000Y-88925000D01*
X62725000Y-87075000D01*
X64575000Y-87075000D01*
X64575000Y-88925000D01*
X64575000Y-88925000D01*
G37*
G36*
X79815000Y-88925000D02*
X77965000Y-88925000D01*
X77965000Y-87075000D01*
X79815000Y-87075000D01*
X79815000Y-88925000D01*
X79815000Y-88925000D01*
G37*
G36*
X56955000Y-88925000D02*
X55105000Y-88925000D01*
X55105000Y-87075000D01*
X56955000Y-87075000D01*
X56955000Y-88925000D01*
X56955000Y-88925000D01*
G37*
G36*
X60309748Y-75855390D02*
X60356193Y-75869479D01*
X60376417Y-75875614D01*
X60437859Y-75908456D01*
X60467152Y-75932496D01*
X60491713Y-75952652D01*
X60491717Y-75952656D01*
X60493624Y-75954221D01*
X62045779Y-77506376D01*
X62047344Y-77508283D01*
X62047348Y-77508287D01*
X62067504Y-77532848D01*
X62091544Y-77562141D01*
X62107965Y-77592863D01*
X62124386Y-77623583D01*
X62124386Y-77623584D01*
X62144610Y-77690252D01*
X62151438Y-77759584D01*
X62144610Y-77828916D01*
X62130521Y-77875361D01*
X62124386Y-77895585D01*
X62107965Y-77926305D01*
X62091544Y-77957027D01*
X62067504Y-77986320D01*
X62047348Y-78010881D01*
X62047344Y-78010885D01*
X62045779Y-78012792D01*
X60012792Y-80045779D01*
X60010885Y-80047344D01*
X60010881Y-80047348D01*
X59986320Y-80067504D01*
X59957027Y-80091544D01*
X59895585Y-80124386D01*
X59875361Y-80130521D01*
X59828916Y-80144610D01*
X59759584Y-80151438D01*
X59690252Y-80144610D01*
X59643807Y-80130521D01*
X59623583Y-80124386D01*
X59562141Y-80091544D01*
X59532848Y-80067504D01*
X59508287Y-80047348D01*
X59508283Y-80047344D01*
X59506376Y-80045779D01*
X57954221Y-78493624D01*
X57952656Y-78491717D01*
X57952652Y-78491713D01*
X57932496Y-78467152D01*
X57908456Y-78437859D01*
X57875614Y-78376417D01*
X57869479Y-78356193D01*
X57855390Y-78309748D01*
X57848562Y-78240416D01*
X57855390Y-78171084D01*
X57875614Y-78104416D01*
X57875614Y-78104415D01*
X57908456Y-78042973D01*
X57934793Y-78010881D01*
X57952652Y-77989119D01*
X57952656Y-77989115D01*
X57954221Y-77987208D01*
X59987208Y-75954221D01*
X59989115Y-75952656D01*
X59989119Y-75952652D01*
X60013680Y-75932496D01*
X60042973Y-75908456D01*
X60104415Y-75875614D01*
X60124639Y-75869479D01*
X60171084Y-75855390D01*
X60240416Y-75848562D01*
X60309748Y-75855390D01*
X60309748Y-75855390D01*
G37*
G36*
X80309748Y-75855390D02*
X80356193Y-75869479D01*
X80376417Y-75875614D01*
X80437859Y-75908456D01*
X80467152Y-75932496D01*
X80491713Y-75952652D01*
X80491717Y-75952656D01*
X80493624Y-75954221D01*
X82045779Y-77506376D01*
X82047344Y-77508283D01*
X82047348Y-77508287D01*
X82067504Y-77532848D01*
X82091544Y-77562141D01*
X82107965Y-77592863D01*
X82124386Y-77623583D01*
X82124386Y-77623584D01*
X82144610Y-77690252D01*
X82151438Y-77759584D01*
X82144610Y-77828916D01*
X82130521Y-77875361D01*
X82124386Y-77895585D01*
X82107965Y-77926305D01*
X82091544Y-77957027D01*
X82067504Y-77986320D01*
X82047348Y-78010881D01*
X82047344Y-78010885D01*
X82045779Y-78012792D01*
X80012792Y-80045779D01*
X80010885Y-80047344D01*
X80010881Y-80047348D01*
X79986320Y-80067504D01*
X79957027Y-80091544D01*
X79895585Y-80124386D01*
X79875361Y-80130521D01*
X79828916Y-80144610D01*
X79759584Y-80151438D01*
X79690252Y-80144610D01*
X79643807Y-80130521D01*
X79623583Y-80124386D01*
X79562141Y-80091544D01*
X79532848Y-80067504D01*
X79508287Y-80047348D01*
X79508283Y-80047344D01*
X79506376Y-80045779D01*
X77954221Y-78493624D01*
X77952656Y-78491717D01*
X77952652Y-78491713D01*
X77932496Y-78467152D01*
X77908456Y-78437859D01*
X77875614Y-78376417D01*
X77869479Y-78356193D01*
X77855390Y-78309748D01*
X77848562Y-78240416D01*
X77855390Y-78171084D01*
X77875614Y-78104416D01*
X77875614Y-78104415D01*
X77908456Y-78042973D01*
X77934793Y-78010881D01*
X77952652Y-77989119D01*
X77952656Y-77989115D01*
X77954221Y-77987208D01*
X79987208Y-75954221D01*
X79989115Y-75952656D01*
X79989119Y-75952652D01*
X80013680Y-75932496D01*
X80042973Y-75908456D01*
X80104415Y-75875614D01*
X80124639Y-75869479D01*
X80171084Y-75855390D01*
X80240416Y-75848562D01*
X80309748Y-75855390D01*
X80309748Y-75855390D01*
G37*
G36*
X80307225Y-65076946D02*
X80869133Y-65192290D01*
X81397932Y-65414576D01*
X81873487Y-65735342D01*
X82277683Y-66142370D01*
X82595121Y-66620151D01*
X82813710Y-67150489D01*
X82925060Y-67712845D01*
X82925060Y-67712855D01*
X82925126Y-67713189D01*
X82915977Y-68368374D01*
X82915901Y-68368708D01*
X82915901Y-68368720D01*
X82788895Y-68927740D01*
X82555581Y-69451771D01*
X82224927Y-69920503D01*
X81809521Y-70316088D01*
X81325200Y-70623448D01*
X80790397Y-70830885D01*
X80225491Y-70930493D01*
X79651995Y-70918480D01*
X79091747Y-70795302D01*
X78566105Y-70565654D01*
X78095076Y-70238280D01*
X77696602Y-69825648D01*
X77385868Y-69343484D01*
X77174703Y-68810143D01*
X77071152Y-68245939D01*
X77079162Y-67672374D01*
X77198424Y-67111290D01*
X77424399Y-66584051D01*
X77748477Y-66110748D01*
X78158316Y-65709403D01*
X78638301Y-65395309D01*
X79170155Y-65180427D01*
X79733613Y-65072941D01*
X80307225Y-65076946D01*
X80307225Y-65076946D01*
G37*
G36*
X60307225Y-65076946D02*
X60869133Y-65192290D01*
X61397932Y-65414576D01*
X61873487Y-65735342D01*
X62277683Y-66142370D01*
X62595121Y-66620151D01*
X62813710Y-67150489D01*
X62925060Y-67712845D01*
X62925060Y-67712855D01*
X62925126Y-67713189D01*
X62915977Y-68368374D01*
X62915901Y-68368708D01*
X62915901Y-68368720D01*
X62788895Y-68927740D01*
X62555581Y-69451771D01*
X62224927Y-69920503D01*
X61809521Y-70316088D01*
X61325200Y-70623448D01*
X60790397Y-70830885D01*
X60225491Y-70930493D01*
X59651995Y-70918480D01*
X59091747Y-70795302D01*
X58566105Y-70565654D01*
X58095076Y-70238280D01*
X57696602Y-69825648D01*
X57385868Y-69343484D01*
X57174703Y-68810143D01*
X57071152Y-68245939D01*
X57079162Y-67672374D01*
X57198424Y-67111290D01*
X57424399Y-66584051D01*
X57748477Y-66110748D01*
X58158316Y-65709403D01*
X58638301Y-65395309D01*
X59170155Y-65180427D01*
X59733613Y-65072941D01*
X60307225Y-65076946D01*
X60307225Y-65076946D01*
G37*
G36*
X80309748Y-55855390D02*
X80356193Y-55869479D01*
X80376417Y-55875614D01*
X80407137Y-55892035D01*
X80437859Y-55908456D01*
X80467152Y-55932496D01*
X80491713Y-55952652D01*
X80491717Y-55952656D01*
X80493624Y-55954221D01*
X82045779Y-57506376D01*
X82047344Y-57508283D01*
X82047348Y-57508287D01*
X82067504Y-57532848D01*
X82091544Y-57562141D01*
X82107965Y-57592863D01*
X82124386Y-57623583D01*
X82124386Y-57623584D01*
X82144610Y-57690252D01*
X82151438Y-57759584D01*
X82144610Y-57828916D01*
X82130521Y-57875361D01*
X82124386Y-57895585D01*
X82091544Y-57957027D01*
X82067504Y-57986320D01*
X82047348Y-58010881D01*
X82047344Y-58010885D01*
X82045779Y-58012792D01*
X80012792Y-60045779D01*
X80010885Y-60047344D01*
X80010881Y-60047348D01*
X79986320Y-60067504D01*
X79957027Y-60091544D01*
X79895585Y-60124386D01*
X79875361Y-60130521D01*
X79828916Y-60144610D01*
X79759584Y-60151438D01*
X79690252Y-60144610D01*
X79643807Y-60130521D01*
X79623583Y-60124386D01*
X79562141Y-60091544D01*
X79532848Y-60067504D01*
X79508287Y-60047348D01*
X79508283Y-60047344D01*
X79506376Y-60045779D01*
X77954221Y-58493624D01*
X77952656Y-58491717D01*
X77952652Y-58491713D01*
X77932496Y-58467152D01*
X77908456Y-58437859D01*
X77892035Y-58407137D01*
X77875614Y-58376417D01*
X77869479Y-58356193D01*
X77855390Y-58309748D01*
X77848562Y-58240416D01*
X77855390Y-58171084D01*
X77875614Y-58104416D01*
X77875614Y-58104415D01*
X77908456Y-58042973D01*
X77934793Y-58010881D01*
X77952652Y-57989119D01*
X77952656Y-57989115D01*
X77954221Y-57987208D01*
X79987208Y-55954221D01*
X79989115Y-55952656D01*
X79989119Y-55952652D01*
X80013680Y-55932496D01*
X80042973Y-55908456D01*
X80104415Y-55875614D01*
X80124639Y-55869479D01*
X80171084Y-55855390D01*
X80240416Y-55848562D01*
X80309748Y-55855390D01*
X80309748Y-55855390D01*
G37*
G36*
X60309748Y-55855390D02*
X60356193Y-55869479D01*
X60376417Y-55875614D01*
X60407137Y-55892035D01*
X60437859Y-55908456D01*
X60467152Y-55932496D01*
X60491713Y-55952652D01*
X60491717Y-55952656D01*
X60493624Y-55954221D01*
X62045779Y-57506376D01*
X62047344Y-57508283D01*
X62047348Y-57508287D01*
X62067504Y-57532848D01*
X62091544Y-57562141D01*
X62107965Y-57592863D01*
X62124386Y-57623583D01*
X62124386Y-57623584D01*
X62144610Y-57690252D01*
X62151438Y-57759584D01*
X62144610Y-57828916D01*
X62130521Y-57875361D01*
X62124386Y-57895585D01*
X62091544Y-57957027D01*
X62067504Y-57986320D01*
X62047348Y-58010881D01*
X62047344Y-58010885D01*
X62045779Y-58012792D01*
X60012792Y-60045779D01*
X60010885Y-60047344D01*
X60010881Y-60047348D01*
X59986320Y-60067504D01*
X59957027Y-60091544D01*
X59895585Y-60124386D01*
X59875361Y-60130521D01*
X59828916Y-60144610D01*
X59759584Y-60151438D01*
X59690252Y-60144610D01*
X59643807Y-60130521D01*
X59623583Y-60124386D01*
X59562141Y-60091544D01*
X59532848Y-60067504D01*
X59508287Y-60047348D01*
X59508283Y-60047344D01*
X59506376Y-60045779D01*
X57954221Y-58493624D01*
X57952656Y-58491717D01*
X57952652Y-58491713D01*
X57932496Y-58467152D01*
X57908456Y-58437859D01*
X57892035Y-58407137D01*
X57875614Y-58376417D01*
X57869479Y-58356193D01*
X57855390Y-58309748D01*
X57848562Y-58240416D01*
X57855390Y-58171084D01*
X57875614Y-58104416D01*
X57875614Y-58104415D01*
X57908456Y-58042973D01*
X57934793Y-58010881D01*
X57952652Y-57989119D01*
X57952656Y-57989115D01*
X57954221Y-57987208D01*
X59987208Y-55954221D01*
X59989115Y-55952656D01*
X59989119Y-55952652D01*
X60013680Y-55932496D01*
X60042973Y-55908456D01*
X60104415Y-55875614D01*
X60124639Y-55869479D01*
X60171084Y-55855390D01*
X60240416Y-55848562D01*
X60309748Y-55855390D01*
X60309748Y-55855390D01*
G37*
M02*
