%TF.GenerationSoftware,KiCad,Pcbnew,5.99.0-unknown-652a59b78~104~ubuntu20.04.1*%
%TF.CreationDate,2020-09-21T15:47:38+02:00*%
%TF.ProjectId,LEDBoard_4x4_16bit,4c454442-6f61-4726-945f-3478345f3136,4.0.0*%
%TF.SameCoordinates,Original*%
%TF.FileFunction,Legend,Top*%
%TF.FilePolarity,Positive*%
%FSLAX46Y46*%
G04 Gerber Fmt 4.6, Leading zero omitted, Abs format (unit mm)*
G04 Created by KiCad (PCBNEW 5.99.0-unknown-652a59b78~104~ubuntu20.04.1) date 2020-09-21 15:47:38*
%MOMM*%
%LPD*%
G01*
G04 APERTURE LIST*
%ADD10C,0.100000*%
%ADD11C,0.125000*%
%ADD12C,0.150000*%
%ADD13C,0.200000*%
%ADD14C,0.120000*%
G04 APERTURE END LIST*
D10*
X68000000Y-85926190D02*
X68166666Y-86426190D01*
X68333333Y-85926190D01*
X68785714Y-86378571D02*
X68761904Y-86402380D01*
X68690476Y-86426190D01*
X68642857Y-86426190D01*
X68571428Y-86402380D01*
X68523809Y-86354761D01*
X68500000Y-86307142D01*
X68476190Y-86211904D01*
X68476190Y-86140476D01*
X68500000Y-86045238D01*
X68523809Y-85997619D01*
X68571428Y-85950000D01*
X68642857Y-85926190D01*
X68690476Y-85926190D01*
X68761904Y-85950000D01*
X68785714Y-85973809D01*
X69285714Y-86378571D02*
X69261904Y-86402380D01*
X69190476Y-86426190D01*
X69142857Y-86426190D01*
X69071428Y-86402380D01*
X69023809Y-86354761D01*
X69000000Y-86307142D01*
X68976190Y-86211904D01*
X68976190Y-86140476D01*
X69000000Y-86045238D01*
X69023809Y-85997619D01*
X69071428Y-85950000D01*
X69142857Y-85926190D01*
X69190476Y-85926190D01*
X69261904Y-85950000D01*
X69285714Y-85973809D01*
X70904761Y-85950000D02*
X70857142Y-85926190D01*
X70785714Y-85926190D01*
X70714285Y-85950000D01*
X70666666Y-85997619D01*
X70642857Y-86045238D01*
X70619047Y-86140476D01*
X70619047Y-86211904D01*
X70642857Y-86307142D01*
X70666666Y-86354761D01*
X70714285Y-86402380D01*
X70785714Y-86426190D01*
X70833333Y-86426190D01*
X70904761Y-86402380D01*
X70928571Y-86378571D01*
X70928571Y-86211904D01*
X70833333Y-86211904D01*
X71142857Y-86426190D02*
X71142857Y-85926190D01*
X71428571Y-86426190D01*
X71428571Y-85926190D01*
X71666666Y-86426190D02*
X71666666Y-85926190D01*
X71785714Y-85926190D01*
X71857142Y-85950000D01*
X71904761Y-85997619D01*
X71928571Y-86045238D01*
X71952380Y-86140476D01*
X71952380Y-86211904D01*
X71928571Y-86307142D01*
X71904761Y-86354761D01*
X71857142Y-86402380D01*
X71785714Y-86426190D01*
X71666666Y-86426190D01*
X73000000Y-85926190D02*
X73166666Y-86426190D01*
X73333333Y-85926190D01*
X73785714Y-86378571D02*
X73761904Y-86402380D01*
X73690476Y-86426190D01*
X73642857Y-86426190D01*
X73571428Y-86402380D01*
X73523809Y-86354761D01*
X73500000Y-86307142D01*
X73476190Y-86211904D01*
X73476190Y-86140476D01*
X73500000Y-86045238D01*
X73523809Y-85997619D01*
X73571428Y-85950000D01*
X73642857Y-85926190D01*
X73690476Y-85926190D01*
X73761904Y-85950000D01*
X73785714Y-85973809D01*
X74285714Y-86378571D02*
X74261904Y-86402380D01*
X74190476Y-86426190D01*
X74142857Y-86426190D01*
X74071428Y-86402380D01*
X74023809Y-86354761D01*
X74000000Y-86307142D01*
X73976190Y-86211904D01*
X73976190Y-86140476D01*
X74000000Y-86045238D01*
X74023809Y-85997619D01*
X74071428Y-85950000D01*
X74142857Y-85926190D01*
X74190476Y-85926190D01*
X74261904Y-85950000D01*
X74285714Y-85973809D01*
X75904761Y-85950000D02*
X75857142Y-85926190D01*
X75785714Y-85926190D01*
X75714285Y-85950000D01*
X75666666Y-85997619D01*
X75642857Y-86045238D01*
X75619047Y-86140476D01*
X75619047Y-86211904D01*
X75642857Y-86307142D01*
X75666666Y-86354761D01*
X75714285Y-86402380D01*
X75785714Y-86426190D01*
X75833333Y-86426190D01*
X75904761Y-86402380D01*
X75928571Y-86378571D01*
X75928571Y-86211904D01*
X75833333Y-86211904D01*
X76142857Y-86426190D02*
X76142857Y-85926190D01*
X76428571Y-86426190D01*
X76428571Y-85926190D01*
X76666666Y-86426190D02*
X76666666Y-85926190D01*
X76785714Y-85926190D01*
X76857142Y-85950000D01*
X76904761Y-85997619D01*
X76928571Y-86045238D01*
X76952380Y-86140476D01*
X76952380Y-86211904D01*
X76928571Y-86307142D01*
X76904761Y-86354761D01*
X76857142Y-86402380D01*
X76785714Y-86426190D01*
X76666666Y-86426190D01*
X79695238Y-85623690D02*
X79647619Y-85599880D01*
X79623809Y-85576071D01*
X79600000Y-85528452D01*
X79600000Y-85385595D01*
X79623809Y-85337976D01*
X79647619Y-85314166D01*
X79695238Y-85290357D01*
X79766666Y-85290357D01*
X79814285Y-85314166D01*
X79838095Y-85337976D01*
X79861904Y-85385595D01*
X79861904Y-85528452D01*
X79838095Y-85576071D01*
X79814285Y-85599880D01*
X79766666Y-85623690D01*
X79695238Y-85623690D01*
X80290476Y-85290357D02*
X80290476Y-85623690D01*
X80076190Y-85290357D02*
X80076190Y-85552261D01*
X80100000Y-85599880D01*
X80147619Y-85623690D01*
X80219047Y-85623690D01*
X80266666Y-85599880D01*
X80290476Y-85576071D01*
X80457142Y-85290357D02*
X80647619Y-85290357D01*
X80528571Y-85123690D02*
X80528571Y-85552261D01*
X80552380Y-85599880D01*
X80600000Y-85623690D01*
X80647619Y-85623690D01*
X78433333Y-86428690D02*
X78433333Y-85928690D01*
X78433333Y-86404880D02*
X78385714Y-86428690D01*
X78290476Y-86428690D01*
X78242857Y-86404880D01*
X78219047Y-86381071D01*
X78195238Y-86333452D01*
X78195238Y-86190595D01*
X78219047Y-86142976D01*
X78242857Y-86119166D01*
X78290476Y-86095357D01*
X78385714Y-86095357D01*
X78433333Y-86119166D01*
X78885714Y-86428690D02*
X78885714Y-86166785D01*
X78861904Y-86119166D01*
X78814285Y-86095357D01*
X78719047Y-86095357D01*
X78671428Y-86119166D01*
X78885714Y-86404880D02*
X78838095Y-86428690D01*
X78719047Y-86428690D01*
X78671428Y-86404880D01*
X78647619Y-86357261D01*
X78647619Y-86309642D01*
X78671428Y-86262023D01*
X78719047Y-86238214D01*
X78838095Y-86238214D01*
X78885714Y-86214404D01*
X79052380Y-86095357D02*
X79242857Y-86095357D01*
X79123809Y-85928690D02*
X79123809Y-86357261D01*
X79147619Y-86404880D01*
X79195238Y-86428690D01*
X79242857Y-86428690D01*
X79623809Y-86428690D02*
X79623809Y-86166785D01*
X79600000Y-86119166D01*
X79552380Y-86095357D01*
X79457142Y-86095357D01*
X79409523Y-86119166D01*
X79623809Y-86404880D02*
X79576190Y-86428690D01*
X79457142Y-86428690D01*
X79409523Y-86404880D01*
X79385714Y-86357261D01*
X79385714Y-86309642D01*
X79409523Y-86262023D01*
X79457142Y-86238214D01*
X79576190Y-86238214D01*
X79623809Y-86214404D01*
X80457142Y-86404880D02*
X80409523Y-86428690D01*
X80314285Y-86428690D01*
X80266666Y-86404880D01*
X80242857Y-86381071D01*
X80219047Y-86333452D01*
X80219047Y-86190595D01*
X80242857Y-86142976D01*
X80266666Y-86119166D01*
X80314285Y-86095357D01*
X80409523Y-86095357D01*
X80457142Y-86119166D01*
X80742857Y-86428690D02*
X80695238Y-86404880D01*
X80671428Y-86357261D01*
X80671428Y-85928690D01*
X81004761Y-86428690D02*
X80957142Y-86404880D01*
X80933333Y-86381071D01*
X80909523Y-86333452D01*
X80909523Y-86190595D01*
X80933333Y-86142976D01*
X80957142Y-86119166D01*
X81004761Y-86095357D01*
X81076190Y-86095357D01*
X81123809Y-86119166D01*
X81147619Y-86142976D01*
X81171428Y-86190595D01*
X81171428Y-86333452D01*
X81147619Y-86381071D01*
X81123809Y-86404880D01*
X81076190Y-86428690D01*
X81004761Y-86428690D01*
X81600000Y-86404880D02*
X81552380Y-86428690D01*
X81457142Y-86428690D01*
X81409523Y-86404880D01*
X81385714Y-86381071D01*
X81361904Y-86333452D01*
X81361904Y-86190595D01*
X81385714Y-86142976D01*
X81409523Y-86119166D01*
X81457142Y-86095357D01*
X81552380Y-86095357D01*
X81600000Y-86119166D01*
X81814285Y-86428690D02*
X81814285Y-85928690D01*
X81861904Y-86238214D02*
X82004761Y-86428690D01*
X82004761Y-86095357D02*
X81814285Y-86285833D01*
X56973809Y-85923690D02*
X56973809Y-85590357D01*
X56973809Y-85423690D02*
X56950000Y-85447500D01*
X56973809Y-85471309D01*
X56997619Y-85447500D01*
X56973809Y-85423690D01*
X56973809Y-85471309D01*
X57211904Y-85590357D02*
X57211904Y-85923690D01*
X57211904Y-85637976D02*
X57235714Y-85614166D01*
X57283333Y-85590357D01*
X57354761Y-85590357D01*
X57402380Y-85614166D01*
X57426190Y-85661785D01*
X57426190Y-85923690D01*
X55533333Y-86728690D02*
X55533333Y-86228690D01*
X55533333Y-86704880D02*
X55485714Y-86728690D01*
X55390476Y-86728690D01*
X55342857Y-86704880D01*
X55319047Y-86681071D01*
X55295238Y-86633452D01*
X55295238Y-86490595D01*
X55319047Y-86442976D01*
X55342857Y-86419166D01*
X55390476Y-86395357D01*
X55485714Y-86395357D01*
X55533333Y-86419166D01*
X55985714Y-86728690D02*
X55985714Y-86466785D01*
X55961904Y-86419166D01*
X55914285Y-86395357D01*
X55819047Y-86395357D01*
X55771428Y-86419166D01*
X55985714Y-86704880D02*
X55938095Y-86728690D01*
X55819047Y-86728690D01*
X55771428Y-86704880D01*
X55747619Y-86657261D01*
X55747619Y-86609642D01*
X55771428Y-86562023D01*
X55819047Y-86538214D01*
X55938095Y-86538214D01*
X55985714Y-86514404D01*
X56152380Y-86395357D02*
X56342857Y-86395357D01*
X56223809Y-86228690D02*
X56223809Y-86657261D01*
X56247619Y-86704880D01*
X56295238Y-86728690D01*
X56342857Y-86728690D01*
X56723809Y-86728690D02*
X56723809Y-86466785D01*
X56700000Y-86419166D01*
X56652380Y-86395357D01*
X56557142Y-86395357D01*
X56509523Y-86419166D01*
X56723809Y-86704880D02*
X56676190Y-86728690D01*
X56557142Y-86728690D01*
X56509523Y-86704880D01*
X56485714Y-86657261D01*
X56485714Y-86609642D01*
X56509523Y-86562023D01*
X56557142Y-86538214D01*
X56676190Y-86538214D01*
X56723809Y-86514404D01*
X57557142Y-86704880D02*
X57509523Y-86728690D01*
X57414285Y-86728690D01*
X57366666Y-86704880D01*
X57342857Y-86681071D01*
X57319047Y-86633452D01*
X57319047Y-86490595D01*
X57342857Y-86442976D01*
X57366666Y-86419166D01*
X57414285Y-86395357D01*
X57509523Y-86395357D01*
X57557142Y-86419166D01*
X57842857Y-86728690D02*
X57795238Y-86704880D01*
X57771428Y-86657261D01*
X57771428Y-86228690D01*
X58104761Y-86728690D02*
X58057142Y-86704880D01*
X58033333Y-86681071D01*
X58009523Y-86633452D01*
X58009523Y-86490595D01*
X58033333Y-86442976D01*
X58057142Y-86419166D01*
X58104761Y-86395357D01*
X58176190Y-86395357D01*
X58223809Y-86419166D01*
X58247619Y-86442976D01*
X58271428Y-86490595D01*
X58271428Y-86633452D01*
X58247619Y-86681071D01*
X58223809Y-86704880D01*
X58176190Y-86728690D01*
X58104761Y-86728690D01*
X58700000Y-86704880D02*
X58652380Y-86728690D01*
X58557142Y-86728690D01*
X58509523Y-86704880D01*
X58485714Y-86681071D01*
X58461904Y-86633452D01*
X58461904Y-86490595D01*
X58485714Y-86442976D01*
X58509523Y-86419166D01*
X58557142Y-86395357D01*
X58652380Y-86395357D01*
X58700000Y-86419166D01*
X58914285Y-86728690D02*
X58914285Y-86228690D01*
X58961904Y-86538214D02*
X59104761Y-86728690D01*
X59104761Y-86395357D02*
X58914285Y-86585833D01*
X64797619Y-66223690D02*
X64559523Y-66223690D01*
X64559523Y-65723690D01*
X64964285Y-65961785D02*
X65130952Y-65961785D01*
X65202380Y-66223690D02*
X64964285Y-66223690D01*
X64964285Y-65723690D01*
X65202380Y-65723690D01*
X65416666Y-66223690D02*
X65416666Y-65723690D01*
X65535714Y-65723690D01*
X65607142Y-65747500D01*
X65654761Y-65795119D01*
X65678571Y-65842738D01*
X65702380Y-65937976D01*
X65702380Y-66009404D01*
X65678571Y-66104642D01*
X65654761Y-66152261D01*
X65607142Y-66199880D01*
X65535714Y-66223690D01*
X65416666Y-66223690D01*
X66083333Y-65961785D02*
X66154761Y-65985595D01*
X66178571Y-66009404D01*
X66202380Y-66057023D01*
X66202380Y-66128452D01*
X66178571Y-66176071D01*
X66154761Y-66199880D01*
X66107142Y-66223690D01*
X65916666Y-66223690D01*
X65916666Y-65723690D01*
X66083333Y-65723690D01*
X66130952Y-65747500D01*
X66154761Y-65771309D01*
X66178571Y-65818928D01*
X66178571Y-65866547D01*
X66154761Y-65914166D01*
X66130952Y-65937976D01*
X66083333Y-65961785D01*
X65916666Y-65961785D01*
X66488095Y-66223690D02*
X66440476Y-66199880D01*
X66416666Y-66176071D01*
X66392857Y-66128452D01*
X66392857Y-65985595D01*
X66416666Y-65937976D01*
X66440476Y-65914166D01*
X66488095Y-65890357D01*
X66559523Y-65890357D01*
X66607142Y-65914166D01*
X66630952Y-65937976D01*
X66654761Y-65985595D01*
X66654761Y-66128452D01*
X66630952Y-66176071D01*
X66607142Y-66199880D01*
X66559523Y-66223690D01*
X66488095Y-66223690D01*
X67083333Y-66223690D02*
X67083333Y-65961785D01*
X67059523Y-65914166D01*
X67011904Y-65890357D01*
X66916666Y-65890357D01*
X66869047Y-65914166D01*
X67083333Y-66199880D02*
X67035714Y-66223690D01*
X66916666Y-66223690D01*
X66869047Y-66199880D01*
X66845238Y-66152261D01*
X66845238Y-66104642D01*
X66869047Y-66057023D01*
X66916666Y-66033214D01*
X67035714Y-66033214D01*
X67083333Y-66009404D01*
X67321428Y-66223690D02*
X67321428Y-65890357D01*
X67321428Y-65985595D02*
X67345238Y-65937976D01*
X67369047Y-65914166D01*
X67416666Y-65890357D01*
X67464285Y-65890357D01*
X67845238Y-66223690D02*
X67845238Y-65723690D01*
X67845238Y-66199880D02*
X67797619Y-66223690D01*
X67702380Y-66223690D01*
X67654761Y-66199880D01*
X67630952Y-66176071D01*
X67607142Y-66128452D01*
X67607142Y-65985595D01*
X67630952Y-65937976D01*
X67654761Y-65914166D01*
X67702380Y-65890357D01*
X67797619Y-65890357D01*
X67845238Y-65914166D01*
X67964285Y-66271309D02*
X68345238Y-66271309D01*
X68678571Y-65890357D02*
X68678571Y-66223690D01*
X68559523Y-65699880D02*
X68440476Y-66057023D01*
X68750000Y-66057023D01*
X68892857Y-66223690D02*
X69154761Y-65890357D01*
X68892857Y-65890357D02*
X69154761Y-66223690D01*
X69559523Y-65890357D02*
X69559523Y-66223690D01*
X69440476Y-65699880D02*
X69321428Y-66057023D01*
X69630952Y-66057023D01*
X69702380Y-66271309D02*
X70083333Y-66271309D01*
X70202380Y-65890357D02*
X70202380Y-66390357D01*
X70202380Y-65914166D02*
X70250000Y-65890357D01*
X70345238Y-65890357D01*
X70392857Y-65914166D01*
X70416666Y-65937976D01*
X70440476Y-65985595D01*
X70440476Y-66128452D01*
X70416666Y-66176071D01*
X70392857Y-66199880D01*
X70345238Y-66223690D01*
X70250000Y-66223690D01*
X70202380Y-66199880D01*
X70916666Y-66223690D02*
X70630952Y-66223690D01*
X70773809Y-66223690D02*
X70773809Y-65723690D01*
X70726190Y-65795119D01*
X70678571Y-65842738D01*
X70630952Y-65866547D01*
X71226190Y-65723690D02*
X71273809Y-65723690D01*
X71321428Y-65747500D01*
X71345238Y-65771309D01*
X71369047Y-65818928D01*
X71392857Y-65914166D01*
X71392857Y-66033214D01*
X71369047Y-66128452D01*
X71345238Y-66176071D01*
X71321428Y-66199880D01*
X71273809Y-66223690D01*
X71226190Y-66223690D01*
X71178571Y-66199880D01*
X71154761Y-66176071D01*
X71130952Y-66128452D01*
X71107142Y-66033214D01*
X71107142Y-65914166D01*
X71130952Y-65818928D01*
X71154761Y-65771309D01*
X71178571Y-65747500D01*
X71226190Y-65723690D01*
X71559523Y-66223690D02*
X71821428Y-65890357D01*
X71559523Y-65890357D02*
X71821428Y-66223690D01*
X72273809Y-66223690D02*
X71988095Y-66223690D01*
X72130952Y-66223690D02*
X72130952Y-65723690D01*
X72083333Y-65795119D01*
X72035714Y-65842738D01*
X71988095Y-65866547D01*
X72583333Y-65723690D02*
X72630952Y-65723690D01*
X72678571Y-65747500D01*
X72702380Y-65771309D01*
X72726190Y-65818928D01*
X72750000Y-65914166D01*
X72750000Y-66033214D01*
X72726190Y-66128452D01*
X72702380Y-66176071D01*
X72678571Y-66199880D01*
X72630952Y-66223690D01*
X72583333Y-66223690D01*
X72535714Y-66199880D01*
X72511904Y-66176071D01*
X72488095Y-66128452D01*
X72464285Y-66033214D01*
X72464285Y-65914166D01*
X72488095Y-65818928D01*
X72511904Y-65771309D01*
X72535714Y-65747500D01*
X72583333Y-65723690D01*
X73273809Y-65723690D02*
X73440476Y-66223690D01*
X73607142Y-65723690D01*
X73988095Y-65890357D02*
X73988095Y-66223690D01*
X73869047Y-65699880D02*
X73750000Y-66057023D01*
X74059523Y-66057023D01*
X74250000Y-66176071D02*
X74273809Y-66199880D01*
X74250000Y-66223690D01*
X74226190Y-66199880D01*
X74250000Y-66176071D01*
X74250000Y-66223690D01*
X74583333Y-65723690D02*
X74630952Y-65723690D01*
X74678571Y-65747500D01*
X74702380Y-65771309D01*
X74726190Y-65818928D01*
X74750000Y-65914166D01*
X74750000Y-66033214D01*
X74726190Y-66128452D01*
X74702380Y-66176071D01*
X74678571Y-66199880D01*
X74630952Y-66223690D01*
X74583333Y-66223690D01*
X74535714Y-66199880D01*
X74511904Y-66176071D01*
X74488095Y-66128452D01*
X74464285Y-66033214D01*
X74464285Y-65914166D01*
X74488095Y-65818928D01*
X74511904Y-65771309D01*
X74535714Y-65747500D01*
X74583333Y-65723690D01*
X74964285Y-66176071D02*
X74988095Y-66199880D01*
X74964285Y-66223690D01*
X74940476Y-66199880D01*
X74964285Y-66176071D01*
X74964285Y-66223690D01*
X75297619Y-65723690D02*
X75345238Y-65723690D01*
X75392857Y-65747500D01*
X75416666Y-65771309D01*
X75440476Y-65818928D01*
X75464285Y-65914166D01*
X75464285Y-66033214D01*
X75440476Y-66128452D01*
X75416666Y-66176071D01*
X75392857Y-66199880D01*
X75345238Y-66223690D01*
X75297619Y-66223690D01*
X75250000Y-66199880D01*
X75226190Y-66176071D01*
X75202380Y-66128452D01*
X75178571Y-66033214D01*
X75178571Y-65914166D01*
X75202380Y-65818928D01*
X75226190Y-65771309D01*
X75250000Y-65747500D01*
X75297619Y-65723690D01*
X64857142Y-67004880D02*
X64809523Y-67028690D01*
X64714285Y-67028690D01*
X64666666Y-67004880D01*
X64642857Y-66981071D01*
X64619047Y-66933452D01*
X64619047Y-66790595D01*
X64642857Y-66742976D01*
X64666666Y-66719166D01*
X64714285Y-66695357D01*
X64809523Y-66695357D01*
X64857142Y-66719166D01*
X65285714Y-67004880D02*
X65238095Y-67028690D01*
X65142857Y-67028690D01*
X65095238Y-67004880D01*
X65071428Y-66981071D01*
X65047619Y-66933452D01*
X65047619Y-66790595D01*
X65071428Y-66742976D01*
X65095238Y-66719166D01*
X65142857Y-66695357D01*
X65238095Y-66695357D01*
X65285714Y-66719166D01*
X65880952Y-67028690D02*
X65880952Y-66528690D01*
X65880952Y-66719166D02*
X65928571Y-66695357D01*
X66023809Y-66695357D01*
X66071428Y-66719166D01*
X66095238Y-66742976D01*
X66119047Y-66790595D01*
X66119047Y-66933452D01*
X66095238Y-66981071D01*
X66071428Y-67004880D01*
X66023809Y-67028690D01*
X65928571Y-67028690D01*
X65880952Y-67004880D01*
X66285714Y-66695357D02*
X66404761Y-67028690D01*
X66523809Y-66695357D02*
X66404761Y-67028690D01*
X66357142Y-67147738D01*
X66333333Y-67171547D01*
X66285714Y-67195357D01*
X67071428Y-67004880D02*
X67119047Y-67028690D01*
X67214285Y-67028690D01*
X67261904Y-67004880D01*
X67285714Y-66957261D01*
X67285714Y-66933452D01*
X67261904Y-66885833D01*
X67214285Y-66862023D01*
X67142857Y-66862023D01*
X67095238Y-66838214D01*
X67071428Y-66790595D01*
X67071428Y-66766785D01*
X67095238Y-66719166D01*
X67142857Y-66695357D01*
X67214285Y-66695357D01*
X67261904Y-66719166D01*
X67500000Y-66838214D02*
X67880952Y-66838214D01*
X68190476Y-67028690D02*
X68142857Y-67004880D01*
X68119047Y-66957261D01*
X68119047Y-66528690D01*
X68380952Y-67028690D02*
X68380952Y-66695357D01*
X68380952Y-66528690D02*
X68357142Y-66552500D01*
X68380952Y-66576309D01*
X68404761Y-66552500D01*
X68380952Y-66528690D01*
X68380952Y-66576309D01*
X68833333Y-66695357D02*
X68833333Y-67100119D01*
X68809523Y-67147738D01*
X68785714Y-67171547D01*
X68738095Y-67195357D01*
X68666666Y-67195357D01*
X68619047Y-67171547D01*
X68833333Y-67004880D02*
X68785714Y-67028690D01*
X68690476Y-67028690D01*
X68642857Y-67004880D01*
X68619047Y-66981071D01*
X68595238Y-66933452D01*
X68595238Y-66790595D01*
X68619047Y-66742976D01*
X68642857Y-66719166D01*
X68690476Y-66695357D01*
X68785714Y-66695357D01*
X68833333Y-66719166D01*
X69071428Y-67028690D02*
X69071428Y-66528690D01*
X69285714Y-67028690D02*
X69285714Y-66766785D01*
X69261904Y-66719166D01*
X69214285Y-66695357D01*
X69142857Y-66695357D01*
X69095238Y-66719166D01*
X69071428Y-66742976D01*
X69452380Y-66695357D02*
X69642857Y-66695357D01*
X69523809Y-66528690D02*
X69523809Y-66957261D01*
X69547619Y-67004880D01*
X69595238Y-67028690D01*
X69642857Y-67028690D01*
X69809523Y-66981071D02*
X69833333Y-67004880D01*
X69809523Y-67028690D01*
X69785714Y-67004880D01*
X69809523Y-66981071D01*
X69809523Y-67028690D01*
X70238095Y-67004880D02*
X70190476Y-67028690D01*
X70095238Y-67028690D01*
X70047619Y-67004880D01*
X70023809Y-66957261D01*
X70023809Y-66766785D01*
X70047619Y-66719166D01*
X70095238Y-66695357D01*
X70190476Y-66695357D01*
X70238095Y-66719166D01*
X70261904Y-66766785D01*
X70261904Y-66814404D01*
X70023809Y-66862023D01*
X70690476Y-66695357D02*
X70690476Y-67028690D01*
X70476190Y-66695357D02*
X70476190Y-66957261D01*
X70500000Y-67004880D01*
X70547619Y-67028690D01*
X70619047Y-67028690D01*
X70666666Y-67004880D01*
X70690476Y-66981071D01*
X71285714Y-66576309D02*
X71309523Y-66552500D01*
X71357142Y-66528690D01*
X71476190Y-66528690D01*
X71523809Y-66552500D01*
X71547619Y-66576309D01*
X71571428Y-66623928D01*
X71571428Y-66671547D01*
X71547619Y-66742976D01*
X71261904Y-67028690D01*
X71571428Y-67028690D01*
X72047619Y-67028690D02*
X71761904Y-67028690D01*
X71904761Y-67028690D02*
X71904761Y-66528690D01*
X71857142Y-66600119D01*
X71809523Y-66647738D01*
X71761904Y-66671547D01*
X72261904Y-66981071D02*
X72285714Y-67004880D01*
X72261904Y-67028690D01*
X72238095Y-67004880D01*
X72261904Y-66981071D01*
X72261904Y-67028690D01*
X72595238Y-66528690D02*
X72642857Y-66528690D01*
X72690476Y-66552500D01*
X72714285Y-66576309D01*
X72738095Y-66623928D01*
X72761904Y-66719166D01*
X72761904Y-66838214D01*
X72738095Y-66933452D01*
X72714285Y-66981071D01*
X72690476Y-67004880D01*
X72642857Y-67028690D01*
X72595238Y-67028690D01*
X72547619Y-67004880D01*
X72523809Y-66981071D01*
X72500000Y-66933452D01*
X72476190Y-66838214D01*
X72476190Y-66719166D01*
X72500000Y-66623928D01*
X72523809Y-66576309D01*
X72547619Y-66552500D01*
X72595238Y-66528690D01*
X73000000Y-67028690D02*
X73095238Y-67028690D01*
X73142857Y-67004880D01*
X73166666Y-66981071D01*
X73214285Y-66909642D01*
X73238095Y-66814404D01*
X73238095Y-66623928D01*
X73214285Y-66576309D01*
X73190476Y-66552500D01*
X73142857Y-66528690D01*
X73047619Y-66528690D01*
X73000000Y-66552500D01*
X72976190Y-66576309D01*
X72952380Y-66623928D01*
X72952380Y-66742976D01*
X72976190Y-66790595D01*
X73000000Y-66814404D01*
X73047619Y-66838214D01*
X73142857Y-66838214D01*
X73190476Y-66814404D01*
X73214285Y-66790595D01*
X73238095Y-66742976D01*
X73452380Y-66981071D02*
X73476190Y-67004880D01*
X73452380Y-67028690D01*
X73428571Y-67004880D01*
X73452380Y-66981071D01*
X73452380Y-67028690D01*
X73666666Y-66576309D02*
X73690476Y-66552500D01*
X73738095Y-66528690D01*
X73857142Y-66528690D01*
X73904761Y-66552500D01*
X73928571Y-66576309D01*
X73952380Y-66623928D01*
X73952380Y-66671547D01*
X73928571Y-66742976D01*
X73642857Y-67028690D01*
X73952380Y-67028690D01*
X74261904Y-66528690D02*
X74309523Y-66528690D01*
X74357142Y-66552500D01*
X74380952Y-66576309D01*
X74404761Y-66623928D01*
X74428571Y-66719166D01*
X74428571Y-66838214D01*
X74404761Y-66933452D01*
X74380952Y-66981071D01*
X74357142Y-67004880D01*
X74309523Y-67028690D01*
X74261904Y-67028690D01*
X74214285Y-67004880D01*
X74190476Y-66981071D01*
X74166666Y-66933452D01*
X74142857Y-66838214D01*
X74142857Y-66719166D01*
X74166666Y-66623928D01*
X74190476Y-66576309D01*
X74214285Y-66552500D01*
X74261904Y-66528690D01*
X74619047Y-66576309D02*
X74642857Y-66552500D01*
X74690476Y-66528690D01*
X74809523Y-66528690D01*
X74857142Y-66552500D01*
X74880952Y-66576309D01*
X74904761Y-66623928D01*
X74904761Y-66671547D01*
X74880952Y-66742976D01*
X74595238Y-67028690D01*
X74904761Y-67028690D01*
X75214285Y-66528690D02*
X75261904Y-66528690D01*
X75309523Y-66552500D01*
X75333333Y-66576309D01*
X75357142Y-66623928D01*
X75380952Y-66719166D01*
X75380952Y-66838214D01*
X75357142Y-66933452D01*
X75333333Y-66981071D01*
X75309523Y-67004880D01*
X75261904Y-67028690D01*
X75214285Y-67028690D01*
X75166666Y-67004880D01*
X75142857Y-66981071D01*
X75119047Y-66933452D01*
X75095238Y-66838214D01*
X75095238Y-66719166D01*
X75119047Y-66623928D01*
X75142857Y-66576309D01*
X75166666Y-66552500D01*
X75214285Y-66528690D01*
X83619047Y-85950000D02*
X83571428Y-85926190D01*
X83500000Y-85926190D01*
X83428571Y-85950000D01*
X83380952Y-85997619D01*
X83357142Y-86045238D01*
X83333333Y-86140476D01*
X83333333Y-86211904D01*
X83357142Y-86307142D01*
X83380952Y-86354761D01*
X83428571Y-86402380D01*
X83500000Y-86426190D01*
X83547619Y-86426190D01*
X83619047Y-86402380D01*
X83642857Y-86378571D01*
X83642857Y-86211904D01*
X83547619Y-86211904D01*
X83857142Y-86426190D02*
X83857142Y-85926190D01*
X84142857Y-86426190D01*
X84142857Y-85926190D01*
X84380952Y-86426190D02*
X84380952Y-85926190D01*
X84500000Y-85926190D01*
X84571428Y-85950000D01*
X84619047Y-85997619D01*
X84642857Y-86045238D01*
X84666666Y-86140476D01*
X84666666Y-86211904D01*
X84642857Y-86307142D01*
X84619047Y-86354761D01*
X84571428Y-86402380D01*
X84500000Y-86426190D01*
X84380952Y-86426190D01*
X60719047Y-85950000D02*
X60671428Y-85926190D01*
X60600000Y-85926190D01*
X60528571Y-85950000D01*
X60480952Y-85997619D01*
X60457142Y-86045238D01*
X60433333Y-86140476D01*
X60433333Y-86211904D01*
X60457142Y-86307142D01*
X60480952Y-86354761D01*
X60528571Y-86402380D01*
X60600000Y-86426190D01*
X60647619Y-86426190D01*
X60719047Y-86402380D01*
X60742857Y-86378571D01*
X60742857Y-86211904D01*
X60647619Y-86211904D01*
X60957142Y-86426190D02*
X60957142Y-85926190D01*
X61242857Y-86426190D01*
X61242857Y-85926190D01*
X61480952Y-86426190D02*
X61480952Y-85926190D01*
X61600000Y-85926190D01*
X61671428Y-85950000D01*
X61719047Y-85997619D01*
X61742857Y-86045238D01*
X61766666Y-86140476D01*
X61766666Y-86211904D01*
X61742857Y-86307142D01*
X61719047Y-86354761D01*
X61671428Y-86402380D01*
X61600000Y-86426190D01*
X61480952Y-86426190D01*
X62800000Y-85926190D02*
X62966666Y-86426190D01*
X63133333Y-85926190D01*
X63585714Y-86378571D02*
X63561904Y-86402380D01*
X63490476Y-86426190D01*
X63442857Y-86426190D01*
X63371428Y-86402380D01*
X63323809Y-86354761D01*
X63300000Y-86307142D01*
X63276190Y-86211904D01*
X63276190Y-86140476D01*
X63300000Y-86045238D01*
X63323809Y-85997619D01*
X63371428Y-85950000D01*
X63442857Y-85926190D01*
X63490476Y-85926190D01*
X63561904Y-85950000D01*
X63585714Y-85973809D01*
X64085714Y-86378571D02*
X64061904Y-86402380D01*
X63990476Y-86426190D01*
X63942857Y-86426190D01*
X63871428Y-86402380D01*
X63823809Y-86354761D01*
X63800000Y-86307142D01*
X63776190Y-86211904D01*
X63776190Y-86140476D01*
X63800000Y-86045238D01*
X63823809Y-85997619D01*
X63871428Y-85950000D01*
X63942857Y-85926190D01*
X63990476Y-85926190D01*
X64061904Y-85950000D01*
X64085714Y-85973809D01*
X65704761Y-85950000D02*
X65657142Y-85926190D01*
X65585714Y-85926190D01*
X65514285Y-85950000D01*
X65466666Y-85997619D01*
X65442857Y-86045238D01*
X65419047Y-86140476D01*
X65419047Y-86211904D01*
X65442857Y-86307142D01*
X65466666Y-86354761D01*
X65514285Y-86402380D01*
X65585714Y-86426190D01*
X65633333Y-86426190D01*
X65704761Y-86402380D01*
X65728571Y-86378571D01*
X65728571Y-86211904D01*
X65633333Y-86211904D01*
X65942857Y-86426190D02*
X65942857Y-85926190D01*
X66228571Y-86426190D01*
X66228571Y-85926190D01*
X66466666Y-86426190D02*
X66466666Y-85926190D01*
X66585714Y-85926190D01*
X66657142Y-85950000D01*
X66704761Y-85997619D01*
X66728571Y-86045238D01*
X66752380Y-86140476D01*
X66752380Y-86211904D01*
X66728571Y-86307142D01*
X66704761Y-86354761D01*
X66657142Y-86402380D01*
X66585714Y-86426190D01*
X66466666Y-86426190D01*
X89111904Y-86542857D02*
X88311904Y-86542857D01*
X89111904Y-86157142D02*
X88692857Y-86157142D01*
X88616666Y-86200000D01*
X88578571Y-86285714D01*
X88578571Y-86414285D01*
X88616666Y-86500000D01*
X88654761Y-86542857D01*
X88578571Y-85857142D02*
X88578571Y-85514285D01*
X88311904Y-85728571D02*
X88997619Y-85728571D01*
X89073809Y-85685714D01*
X89111904Y-85600000D01*
X89111904Y-85514285D01*
X88578571Y-85342857D02*
X88578571Y-85000000D01*
X88311904Y-85214285D02*
X88997619Y-85214285D01*
X89073809Y-85171428D01*
X89111904Y-85085714D01*
X89111904Y-85000000D01*
X88578571Y-84700000D02*
X89378571Y-84700000D01*
X88616666Y-84700000D02*
X88578571Y-84614285D01*
X88578571Y-84442857D01*
X88616666Y-84357142D01*
X88654761Y-84314285D01*
X88730952Y-84271428D01*
X88959523Y-84271428D01*
X89035714Y-84314285D01*
X89073809Y-84357142D01*
X89111904Y-84442857D01*
X89111904Y-84614285D01*
X89073809Y-84700000D01*
X89073809Y-83928571D02*
X89111904Y-83842857D01*
X89111904Y-83671428D01*
X89073809Y-83585714D01*
X88997619Y-83542857D01*
X88959523Y-83542857D01*
X88883333Y-83585714D01*
X88845238Y-83671428D01*
X88845238Y-83800000D01*
X88807142Y-83885714D01*
X88730952Y-83928571D01*
X88692857Y-83928571D01*
X88616666Y-83885714D01*
X88578571Y-83800000D01*
X88578571Y-83671428D01*
X88616666Y-83585714D01*
X89035714Y-83157142D02*
X89073809Y-83114285D01*
X89111904Y-83157142D01*
X89073809Y-83200000D01*
X89035714Y-83157142D01*
X89111904Y-83157142D01*
X88616666Y-83157142D02*
X88654761Y-83114285D01*
X88692857Y-83157142D01*
X88654761Y-83200000D01*
X88616666Y-83157142D01*
X88692857Y-83157142D01*
X88273809Y-82085714D02*
X89302380Y-82857142D01*
X88273809Y-81142857D02*
X89302380Y-81914285D01*
X88578571Y-80457142D02*
X89226190Y-80457142D01*
X89302380Y-80500000D01*
X89340476Y-80542857D01*
X89378571Y-80628571D01*
X89378571Y-80757142D01*
X89340476Y-80842857D01*
X89073809Y-80457142D02*
X89111904Y-80542857D01*
X89111904Y-80714285D01*
X89073809Y-80800000D01*
X89035714Y-80842857D01*
X88959523Y-80885714D01*
X88730952Y-80885714D01*
X88654761Y-80842857D01*
X88616666Y-80800000D01*
X88578571Y-80714285D01*
X88578571Y-80542857D01*
X88616666Y-80457142D01*
X89111904Y-80028571D02*
X88578571Y-80028571D01*
X88311904Y-80028571D02*
X88350000Y-80071428D01*
X88388095Y-80028571D01*
X88350000Y-79985714D01*
X88311904Y-80028571D01*
X88388095Y-80028571D01*
X88578571Y-79728571D02*
X88578571Y-79385714D01*
X88311904Y-79600000D02*
X88997619Y-79600000D01*
X89073809Y-79557142D01*
X89111904Y-79471428D01*
X89111904Y-79385714D01*
X89111904Y-79085714D02*
X88311904Y-79085714D01*
X89111904Y-78700000D02*
X88692857Y-78700000D01*
X88616666Y-78742857D01*
X88578571Y-78828571D01*
X88578571Y-78957142D01*
X88616666Y-79042857D01*
X88654761Y-79085714D01*
X88578571Y-77885714D02*
X89111904Y-77885714D01*
X88578571Y-78271428D02*
X88997619Y-78271428D01*
X89073809Y-78228571D01*
X89111904Y-78142857D01*
X89111904Y-78014285D01*
X89073809Y-77928571D01*
X89035714Y-77885714D01*
X89111904Y-77457142D02*
X88311904Y-77457142D01*
X88616666Y-77457142D02*
X88578571Y-77371428D01*
X88578571Y-77200000D01*
X88616666Y-77114285D01*
X88654761Y-77071428D01*
X88730952Y-77028571D01*
X88959523Y-77028571D01*
X89035714Y-77071428D01*
X89073809Y-77114285D01*
X89111904Y-77200000D01*
X89111904Y-77371428D01*
X89073809Y-77457142D01*
X89035714Y-76642857D02*
X89073809Y-76600000D01*
X89111904Y-76642857D01*
X89073809Y-76685714D01*
X89035714Y-76642857D01*
X89111904Y-76642857D01*
X89073809Y-75828571D02*
X89111904Y-75914285D01*
X89111904Y-76085714D01*
X89073809Y-76171428D01*
X89035714Y-76214285D01*
X88959523Y-76257142D01*
X88730952Y-76257142D01*
X88654761Y-76214285D01*
X88616666Y-76171428D01*
X88578571Y-76085714D01*
X88578571Y-75914285D01*
X88616666Y-75828571D01*
X89111904Y-75314285D02*
X89073809Y-75400000D01*
X89035714Y-75442857D01*
X88959523Y-75485714D01*
X88730952Y-75485714D01*
X88654761Y-75442857D01*
X88616666Y-75400000D01*
X88578571Y-75314285D01*
X88578571Y-75185714D01*
X88616666Y-75100000D01*
X88654761Y-75057142D01*
X88730952Y-75014285D01*
X88959523Y-75014285D01*
X89035714Y-75057142D01*
X89073809Y-75100000D01*
X89111904Y-75185714D01*
X89111904Y-75314285D01*
X89111904Y-74628571D02*
X88578571Y-74628571D01*
X88654761Y-74628571D02*
X88616666Y-74585714D01*
X88578571Y-74500000D01*
X88578571Y-74371428D01*
X88616666Y-74285714D01*
X88692857Y-74242857D01*
X89111904Y-74242857D01*
X88692857Y-74242857D02*
X88616666Y-74200000D01*
X88578571Y-74114285D01*
X88578571Y-73985714D01*
X88616666Y-73900000D01*
X88692857Y-73857142D01*
X89111904Y-73857142D01*
X88273809Y-72785714D02*
X89302380Y-73557142D01*
X89073809Y-72528571D02*
X89111904Y-72442857D01*
X89111904Y-72271428D01*
X89073809Y-72185714D01*
X88997619Y-72142857D01*
X88959523Y-72142857D01*
X88883333Y-72185714D01*
X88845238Y-72271428D01*
X88845238Y-72400000D01*
X88807142Y-72485714D01*
X88730952Y-72528571D01*
X88692857Y-72528571D01*
X88616666Y-72485714D01*
X88578571Y-72400000D01*
X88578571Y-72271428D01*
X88616666Y-72185714D01*
X88807142Y-71757142D02*
X88807142Y-71071428D01*
X89111904Y-70514285D02*
X89073809Y-70600000D01*
X88997619Y-70642857D01*
X88311904Y-70642857D01*
X89111904Y-70171428D02*
X88578571Y-70171428D01*
X88311904Y-70171428D02*
X88350000Y-70214285D01*
X88388095Y-70171428D01*
X88350000Y-70128571D01*
X88311904Y-70171428D01*
X88388095Y-70171428D01*
X88578571Y-69357142D02*
X89226190Y-69357142D01*
X89302380Y-69400000D01*
X89340476Y-69442857D01*
X89378571Y-69528571D01*
X89378571Y-69657142D01*
X89340476Y-69742857D01*
X89073809Y-69357142D02*
X89111904Y-69442857D01*
X89111904Y-69614285D01*
X89073809Y-69700000D01*
X89035714Y-69742857D01*
X88959523Y-69785714D01*
X88730952Y-69785714D01*
X88654761Y-69742857D01*
X88616666Y-69700000D01*
X88578571Y-69614285D01*
X88578571Y-69442857D01*
X88616666Y-69357142D01*
X89111904Y-68928571D02*
X88311904Y-68928571D01*
X89111904Y-68542857D02*
X88692857Y-68542857D01*
X88616666Y-68585714D01*
X88578571Y-68671428D01*
X88578571Y-68800000D01*
X88616666Y-68885714D01*
X88654761Y-68928571D01*
X88578571Y-68242857D02*
X88578571Y-67900000D01*
X88311904Y-68114285D02*
X88997619Y-68114285D01*
X89073809Y-68071428D01*
X89111904Y-67985714D01*
X89111904Y-67900000D01*
X88273809Y-66957142D02*
X89302380Y-67728571D01*
X89111904Y-66228571D02*
X89111904Y-66657142D01*
X88311904Y-66657142D01*
X88692857Y-65928571D02*
X88692857Y-65628571D01*
X89111904Y-65500000D02*
X89111904Y-65928571D01*
X88311904Y-65928571D01*
X88311904Y-65500000D01*
X89111904Y-65114285D02*
X88311904Y-65114285D01*
X88311904Y-64900000D01*
X88350000Y-64771428D01*
X88426190Y-64685714D01*
X88502380Y-64642857D01*
X88654761Y-64600000D01*
X88769047Y-64600000D01*
X88921428Y-64642857D01*
X88997619Y-64685714D01*
X89073809Y-64771428D01*
X89111904Y-64900000D01*
X89111904Y-65114285D01*
X88692857Y-63914285D02*
X88730952Y-63785714D01*
X88769047Y-63742857D01*
X88845238Y-63700000D01*
X88959523Y-63700000D01*
X89035714Y-63742857D01*
X89073809Y-63785714D01*
X89111904Y-63871428D01*
X89111904Y-64214285D01*
X88311904Y-64214285D01*
X88311904Y-63914285D01*
X88350000Y-63828571D01*
X88388095Y-63785714D01*
X88464285Y-63742857D01*
X88540476Y-63742857D01*
X88616666Y-63785714D01*
X88654761Y-63828571D01*
X88692857Y-63914285D01*
X88692857Y-64214285D01*
X89111904Y-63185714D02*
X89073809Y-63271428D01*
X89035714Y-63314285D01*
X88959523Y-63357142D01*
X88730952Y-63357142D01*
X88654761Y-63314285D01*
X88616666Y-63271428D01*
X88578571Y-63185714D01*
X88578571Y-63057142D01*
X88616666Y-62971428D01*
X88654761Y-62928571D01*
X88730952Y-62885714D01*
X88959523Y-62885714D01*
X89035714Y-62928571D01*
X89073809Y-62971428D01*
X89111904Y-63057142D01*
X89111904Y-63185714D01*
X89111904Y-62114285D02*
X88692857Y-62114285D01*
X88616666Y-62157142D01*
X88578571Y-62242857D01*
X88578571Y-62414285D01*
X88616666Y-62500000D01*
X89073809Y-62114285D02*
X89111904Y-62200000D01*
X89111904Y-62414285D01*
X89073809Y-62500000D01*
X88997619Y-62542857D01*
X88921428Y-62542857D01*
X88845238Y-62500000D01*
X88807142Y-62414285D01*
X88807142Y-62200000D01*
X88769047Y-62114285D01*
X89111904Y-61685714D02*
X88578571Y-61685714D01*
X88730952Y-61685714D02*
X88654761Y-61642857D01*
X88616666Y-61600000D01*
X88578571Y-61514285D01*
X88578571Y-61428571D01*
X89111904Y-60742857D02*
X88311904Y-60742857D01*
X89073809Y-60742857D02*
X89111904Y-60828571D01*
X89111904Y-61000000D01*
X89073809Y-61085714D01*
X89035714Y-61128571D01*
X88959523Y-61171428D01*
X88730952Y-61171428D01*
X88654761Y-61128571D01*
X88616666Y-61085714D01*
X88578571Y-61000000D01*
X88578571Y-60828571D01*
X88616666Y-60742857D01*
X89188095Y-60528571D02*
X89188095Y-59842857D01*
X88578571Y-59242857D02*
X89111904Y-59242857D01*
X88273809Y-59457142D02*
X88845238Y-59671428D01*
X88845238Y-59114285D01*
X89111904Y-58857142D02*
X88578571Y-58385714D01*
X88578571Y-58857142D02*
X89111904Y-58385714D01*
X88578571Y-57657142D02*
X89111904Y-57657142D01*
X88273809Y-57871428D02*
X88845238Y-58085714D01*
X88845238Y-57528571D01*
X89188095Y-57400000D02*
X89188095Y-56714285D01*
X89111904Y-56028571D02*
X89111904Y-56542857D01*
X89111904Y-56285714D02*
X88311904Y-56285714D01*
X88426190Y-56371428D01*
X88502380Y-56457142D01*
X88540476Y-56542857D01*
X88311904Y-55257142D02*
X88311904Y-55428571D01*
X88350000Y-55514285D01*
X88388095Y-55557142D01*
X88502380Y-55642857D01*
X88654761Y-55685714D01*
X88959523Y-55685714D01*
X89035714Y-55642857D01*
X89073809Y-55600000D01*
X89111904Y-55514285D01*
X89111904Y-55342857D01*
X89073809Y-55257142D01*
X89035714Y-55214285D01*
X88959523Y-55171428D01*
X88769047Y-55171428D01*
X88692857Y-55214285D01*
X88654761Y-55257142D01*
X88616666Y-55342857D01*
X88616666Y-55514285D01*
X88654761Y-55600000D01*
X88692857Y-55642857D01*
X88769047Y-55685714D01*
X89111904Y-54785714D02*
X88311904Y-54785714D01*
X88616666Y-54785714D02*
X88578571Y-54700000D01*
X88578571Y-54528571D01*
X88616666Y-54442857D01*
X88654761Y-54400000D01*
X88730952Y-54357142D01*
X88959523Y-54357142D01*
X89035714Y-54400000D01*
X89073809Y-54442857D01*
X89111904Y-54528571D01*
X89111904Y-54700000D01*
X89073809Y-54785714D01*
X89111904Y-53971428D02*
X88578571Y-53971428D01*
X88311904Y-53971428D02*
X88350000Y-54014285D01*
X88388095Y-53971428D01*
X88350000Y-53928571D01*
X88311904Y-53971428D01*
X88388095Y-53971428D01*
X88578571Y-53671428D02*
X88578571Y-53328571D01*
X88311904Y-53542857D02*
X88997619Y-53542857D01*
X89073809Y-53500000D01*
X89111904Y-53414285D01*
X89111904Y-53328571D01*
D11*
%TO.C,D4.4*%
X83773809Y-80726190D02*
X83773809Y-80226190D01*
X83892857Y-80226190D01*
X83964285Y-80250000D01*
X84011904Y-80297619D01*
X84035714Y-80345238D01*
X84059523Y-80440476D01*
X84059523Y-80511904D01*
X84035714Y-80607142D01*
X84011904Y-80654761D01*
X83964285Y-80702380D01*
X83892857Y-80726190D01*
X83773809Y-80726190D01*
X84488095Y-80392857D02*
X84488095Y-80726190D01*
X84369047Y-80202380D02*
X84250000Y-80559523D01*
X84559523Y-80559523D01*
X84750000Y-80678571D02*
X84773809Y-80702380D01*
X84750000Y-80726190D01*
X84726190Y-80702380D01*
X84750000Y-80678571D01*
X84750000Y-80726190D01*
X85202380Y-80392857D02*
X85202380Y-80726190D01*
X85083333Y-80202380D02*
X84964285Y-80559523D01*
X85273809Y-80559523D01*
D12*
%TO.C,D4.3*%
X83547619Y-70752380D02*
X83547619Y-69752380D01*
X83785714Y-69752380D01*
X83928571Y-69800000D01*
X84023809Y-69895238D01*
X84071428Y-69990476D01*
X84119047Y-70180952D01*
X84119047Y-70323809D01*
X84071428Y-70514285D01*
X84023809Y-70609523D01*
X83928571Y-70704761D01*
X83785714Y-70752380D01*
X83547619Y-70752380D01*
X84976190Y-70085714D02*
X84976190Y-70752380D01*
X84738095Y-69704761D02*
X84500000Y-70419047D01*
X85119047Y-70419047D01*
X85500000Y-70657142D02*
X85547619Y-70704761D01*
X85500000Y-70752380D01*
X85452380Y-70704761D01*
X85500000Y-70657142D01*
X85500000Y-70752380D01*
X85880952Y-69752380D02*
X86500000Y-69752380D01*
X86166666Y-70133333D01*
X86309523Y-70133333D01*
X86404761Y-70180952D01*
X86452380Y-70228571D01*
X86500000Y-70323809D01*
X86500000Y-70561904D01*
X86452380Y-70657142D01*
X86404761Y-70704761D01*
X86309523Y-70752380D01*
X86023809Y-70752380D01*
X85928571Y-70704761D01*
X85880952Y-70657142D01*
D11*
%TO.C,D4.2*%
X84273809Y-60726190D02*
X84273809Y-60226190D01*
X84392857Y-60226190D01*
X84464285Y-60250000D01*
X84511904Y-60297619D01*
X84535714Y-60345238D01*
X84559523Y-60440476D01*
X84559523Y-60511904D01*
X84535714Y-60607142D01*
X84511904Y-60654761D01*
X84464285Y-60702380D01*
X84392857Y-60726190D01*
X84273809Y-60726190D01*
X84988095Y-60392857D02*
X84988095Y-60726190D01*
X84869047Y-60202380D02*
X84750000Y-60559523D01*
X85059523Y-60559523D01*
X85250000Y-60678571D02*
X85273809Y-60702380D01*
X85250000Y-60726190D01*
X85226190Y-60702380D01*
X85250000Y-60678571D01*
X85250000Y-60726190D01*
X85464285Y-60273809D02*
X85488095Y-60250000D01*
X85535714Y-60226190D01*
X85654761Y-60226190D01*
X85702380Y-60250000D01*
X85726190Y-60273809D01*
X85750000Y-60321428D01*
X85750000Y-60369047D01*
X85726190Y-60440476D01*
X85440476Y-60726190D01*
X85750000Y-60726190D01*
D12*
%TO.C,D4.1*%
X81952380Y-53952380D02*
X80952380Y-53952380D01*
X80952380Y-53714285D01*
X81000000Y-53571428D01*
X81095238Y-53476190D01*
X81190476Y-53428571D01*
X81380952Y-53380952D01*
X81523809Y-53380952D01*
X81714285Y-53428571D01*
X81809523Y-53476190D01*
X81904761Y-53571428D01*
X81952380Y-53714285D01*
X81952380Y-53952380D01*
X81285714Y-52523809D02*
X81952380Y-52523809D01*
X80904761Y-52761904D02*
X81619047Y-53000000D01*
X81619047Y-52380952D01*
X81857142Y-52000000D02*
X81904761Y-51952380D01*
X81952380Y-52000000D01*
X81904761Y-52047619D01*
X81857142Y-52000000D01*
X81952380Y-52000000D01*
X81952380Y-51000000D02*
X81952380Y-51571428D01*
X81952380Y-51285714D02*
X80952380Y-51285714D01*
X81095238Y-51380952D01*
X81190476Y-51476190D01*
X81238095Y-51571428D01*
%TO.C,D3.4*%
X73547619Y-80752380D02*
X73547619Y-79752380D01*
X73785714Y-79752380D01*
X73928571Y-79800000D01*
X74023809Y-79895238D01*
X74071428Y-79990476D01*
X74119047Y-80180952D01*
X74119047Y-80323809D01*
X74071428Y-80514285D01*
X74023809Y-80609523D01*
X73928571Y-80704761D01*
X73785714Y-80752380D01*
X73547619Y-80752380D01*
X74452380Y-79752380D02*
X75071428Y-79752380D01*
X74738095Y-80133333D01*
X74880952Y-80133333D01*
X74976190Y-80180952D01*
X75023809Y-80228571D01*
X75071428Y-80323809D01*
X75071428Y-80561904D01*
X75023809Y-80657142D01*
X74976190Y-80704761D01*
X74880952Y-80752380D01*
X74595238Y-80752380D01*
X74500000Y-80704761D01*
X74452380Y-80657142D01*
X75500000Y-80657142D02*
X75547619Y-80704761D01*
X75500000Y-80752380D01*
X75452380Y-80704761D01*
X75500000Y-80657142D01*
X75500000Y-80752380D01*
X76404761Y-80085714D02*
X76404761Y-80752380D01*
X76166666Y-79704761D02*
X75928571Y-80419047D01*
X76547619Y-80419047D01*
%TO.C,D3.3*%
X73547619Y-70752380D02*
X73547619Y-69752380D01*
X73785714Y-69752380D01*
X73928571Y-69800000D01*
X74023809Y-69895238D01*
X74071428Y-69990476D01*
X74119047Y-70180952D01*
X74119047Y-70323809D01*
X74071428Y-70514285D01*
X74023809Y-70609523D01*
X73928571Y-70704761D01*
X73785714Y-70752380D01*
X73547619Y-70752380D01*
X74452380Y-69752380D02*
X75071428Y-69752380D01*
X74738095Y-70133333D01*
X74880952Y-70133333D01*
X74976190Y-70180952D01*
X75023809Y-70228571D01*
X75071428Y-70323809D01*
X75071428Y-70561904D01*
X75023809Y-70657142D01*
X74976190Y-70704761D01*
X74880952Y-70752380D01*
X74595238Y-70752380D01*
X74500000Y-70704761D01*
X74452380Y-70657142D01*
X75500000Y-70657142D02*
X75547619Y-70704761D01*
X75500000Y-70752380D01*
X75452380Y-70704761D01*
X75500000Y-70657142D01*
X75500000Y-70752380D01*
X75880952Y-69752380D02*
X76500000Y-69752380D01*
X76166666Y-70133333D01*
X76309523Y-70133333D01*
X76404761Y-70180952D01*
X76452380Y-70228571D01*
X76500000Y-70323809D01*
X76500000Y-70561904D01*
X76452380Y-70657142D01*
X76404761Y-70704761D01*
X76309523Y-70752380D01*
X76023809Y-70752380D01*
X75928571Y-70704761D01*
X75880952Y-70657142D01*
%TO.C,D3.2*%
X73547619Y-60752380D02*
X73547619Y-59752380D01*
X73785714Y-59752380D01*
X73928571Y-59800000D01*
X74023809Y-59895238D01*
X74071428Y-59990476D01*
X74119047Y-60180952D01*
X74119047Y-60323809D01*
X74071428Y-60514285D01*
X74023809Y-60609523D01*
X73928571Y-60704761D01*
X73785714Y-60752380D01*
X73547619Y-60752380D01*
X74452380Y-59752380D02*
X75071428Y-59752380D01*
X74738095Y-60133333D01*
X74880952Y-60133333D01*
X74976190Y-60180952D01*
X75023809Y-60228571D01*
X75071428Y-60323809D01*
X75071428Y-60561904D01*
X75023809Y-60657142D01*
X74976190Y-60704761D01*
X74880952Y-60752380D01*
X74595238Y-60752380D01*
X74500000Y-60704761D01*
X74452380Y-60657142D01*
X75500000Y-60657142D02*
X75547619Y-60704761D01*
X75500000Y-60752380D01*
X75452380Y-60704761D01*
X75500000Y-60657142D01*
X75500000Y-60752380D01*
X75928571Y-59847619D02*
X75976190Y-59800000D01*
X76071428Y-59752380D01*
X76309523Y-59752380D01*
X76404761Y-59800000D01*
X76452380Y-59847619D01*
X76500000Y-59942857D01*
X76500000Y-60038095D01*
X76452380Y-60180952D01*
X75880952Y-60752380D01*
X76500000Y-60752380D01*
%TO.C,D3.1*%
X71952380Y-53952380D02*
X70952380Y-53952380D01*
X70952380Y-53714285D01*
X71000000Y-53571428D01*
X71095238Y-53476190D01*
X71190476Y-53428571D01*
X71380952Y-53380952D01*
X71523809Y-53380952D01*
X71714285Y-53428571D01*
X71809523Y-53476190D01*
X71904761Y-53571428D01*
X71952380Y-53714285D01*
X71952380Y-53952380D01*
X70952380Y-53047619D02*
X70952380Y-52428571D01*
X71333333Y-52761904D01*
X71333333Y-52619047D01*
X71380952Y-52523809D01*
X71428571Y-52476190D01*
X71523809Y-52428571D01*
X71761904Y-52428571D01*
X71857142Y-52476190D01*
X71904761Y-52523809D01*
X71952380Y-52619047D01*
X71952380Y-52904761D01*
X71904761Y-53000000D01*
X71857142Y-53047619D01*
X71857142Y-52000000D02*
X71904761Y-51952380D01*
X71952380Y-52000000D01*
X71904761Y-52047619D01*
X71857142Y-52000000D01*
X71952380Y-52000000D01*
X71952380Y-51000000D02*
X71952380Y-51571428D01*
X71952380Y-51285714D02*
X70952380Y-51285714D01*
X71095238Y-51380952D01*
X71190476Y-51476190D01*
X71238095Y-51571428D01*
D11*
%TO.C,D2.4*%
X64273809Y-80526190D02*
X64273809Y-80026190D01*
X64392857Y-80026190D01*
X64464285Y-80050000D01*
X64511904Y-80097619D01*
X64535714Y-80145238D01*
X64559523Y-80240476D01*
X64559523Y-80311904D01*
X64535714Y-80407142D01*
X64511904Y-80454761D01*
X64464285Y-80502380D01*
X64392857Y-80526190D01*
X64273809Y-80526190D01*
X64750000Y-80073809D02*
X64773809Y-80050000D01*
X64821428Y-80026190D01*
X64940476Y-80026190D01*
X64988095Y-80050000D01*
X65011904Y-80073809D01*
X65035714Y-80121428D01*
X65035714Y-80169047D01*
X65011904Y-80240476D01*
X64726190Y-80526190D01*
X65035714Y-80526190D01*
X65250000Y-80478571D02*
X65273809Y-80502380D01*
X65250000Y-80526190D01*
X65226190Y-80502380D01*
X65250000Y-80478571D01*
X65250000Y-80526190D01*
X65702380Y-80192857D02*
X65702380Y-80526190D01*
X65583333Y-80002380D02*
X65464285Y-80359523D01*
X65773809Y-80359523D01*
D12*
%TO.C,D2.3*%
X63547619Y-70752380D02*
X63547619Y-69752380D01*
X63785714Y-69752380D01*
X63928571Y-69800000D01*
X64023809Y-69895238D01*
X64071428Y-69990476D01*
X64119047Y-70180952D01*
X64119047Y-70323809D01*
X64071428Y-70514285D01*
X64023809Y-70609523D01*
X63928571Y-70704761D01*
X63785714Y-70752380D01*
X63547619Y-70752380D01*
X64500000Y-69847619D02*
X64547619Y-69800000D01*
X64642857Y-69752380D01*
X64880952Y-69752380D01*
X64976190Y-69800000D01*
X65023809Y-69847619D01*
X65071428Y-69942857D01*
X65071428Y-70038095D01*
X65023809Y-70180952D01*
X64452380Y-70752380D01*
X65071428Y-70752380D01*
X65500000Y-70657142D02*
X65547619Y-70704761D01*
X65500000Y-70752380D01*
X65452380Y-70704761D01*
X65500000Y-70657142D01*
X65500000Y-70752380D01*
X65880952Y-69752380D02*
X66500000Y-69752380D01*
X66166666Y-70133333D01*
X66309523Y-70133333D01*
X66404761Y-70180952D01*
X66452380Y-70228571D01*
X66500000Y-70323809D01*
X66500000Y-70561904D01*
X66452380Y-70657142D01*
X66404761Y-70704761D01*
X66309523Y-70752380D01*
X66023809Y-70752380D01*
X65928571Y-70704761D01*
X65880952Y-70657142D01*
D11*
%TO.C,D2.2*%
X64273809Y-60726190D02*
X64273809Y-60226190D01*
X64392857Y-60226190D01*
X64464285Y-60250000D01*
X64511904Y-60297619D01*
X64535714Y-60345238D01*
X64559523Y-60440476D01*
X64559523Y-60511904D01*
X64535714Y-60607142D01*
X64511904Y-60654761D01*
X64464285Y-60702380D01*
X64392857Y-60726190D01*
X64273809Y-60726190D01*
X64750000Y-60273809D02*
X64773809Y-60250000D01*
X64821428Y-60226190D01*
X64940476Y-60226190D01*
X64988095Y-60250000D01*
X65011904Y-60273809D01*
X65035714Y-60321428D01*
X65035714Y-60369047D01*
X65011904Y-60440476D01*
X64726190Y-60726190D01*
X65035714Y-60726190D01*
X65250000Y-60678571D02*
X65273809Y-60702380D01*
X65250000Y-60726190D01*
X65226190Y-60702380D01*
X65250000Y-60678571D01*
X65250000Y-60726190D01*
X65464285Y-60273809D02*
X65488095Y-60250000D01*
X65535714Y-60226190D01*
X65654761Y-60226190D01*
X65702380Y-60250000D01*
X65726190Y-60273809D01*
X65750000Y-60321428D01*
X65750000Y-60369047D01*
X65726190Y-60440476D01*
X65440476Y-60726190D01*
X65750000Y-60726190D01*
D12*
%TO.C,D2.1*%
X61952380Y-53452380D02*
X60952380Y-53452380D01*
X60952380Y-53214285D01*
X61000000Y-53071428D01*
X61095238Y-52976190D01*
X61190476Y-52928571D01*
X61380952Y-52880952D01*
X61523809Y-52880952D01*
X61714285Y-52928571D01*
X61809523Y-52976190D01*
X61904761Y-53071428D01*
X61952380Y-53214285D01*
X61952380Y-53452380D01*
X61047619Y-52500000D02*
X61000000Y-52452380D01*
X60952380Y-52357142D01*
X60952380Y-52119047D01*
X61000000Y-52023809D01*
X61047619Y-51976190D01*
X61142857Y-51928571D01*
X61238095Y-51928571D01*
X61380952Y-51976190D01*
X61952380Y-52547619D01*
X61952380Y-51928571D01*
X61857142Y-51500000D02*
X61904761Y-51452380D01*
X61952380Y-51500000D01*
X61904761Y-51547619D01*
X61857142Y-51500000D01*
X61952380Y-51500000D01*
X61952380Y-50500000D02*
X61952380Y-51071428D01*
X61952380Y-50785714D02*
X60952380Y-50785714D01*
X61095238Y-50880952D01*
X61190476Y-50976190D01*
X61238095Y-51071428D01*
%TO.C,D1.4*%
X53547619Y-80752380D02*
X53547619Y-79752380D01*
X53785714Y-79752380D01*
X53928571Y-79800000D01*
X54023809Y-79895238D01*
X54071428Y-79990476D01*
X54119047Y-80180952D01*
X54119047Y-80323809D01*
X54071428Y-80514285D01*
X54023809Y-80609523D01*
X53928571Y-80704761D01*
X53785714Y-80752380D01*
X53547619Y-80752380D01*
X55071428Y-80752380D02*
X54500000Y-80752380D01*
X54785714Y-80752380D02*
X54785714Y-79752380D01*
X54690476Y-79895238D01*
X54595238Y-79990476D01*
X54500000Y-80038095D01*
X55500000Y-80657142D02*
X55547619Y-80704761D01*
X55500000Y-80752380D01*
X55452380Y-80704761D01*
X55500000Y-80657142D01*
X55500000Y-80752380D01*
X56404761Y-80085714D02*
X56404761Y-80752380D01*
X56166666Y-79704761D02*
X55928571Y-80419047D01*
X56547619Y-80419047D01*
%TO.C,D1.3*%
X53547619Y-70752380D02*
X53547619Y-69752380D01*
X53785714Y-69752380D01*
X53928571Y-69800000D01*
X54023809Y-69895238D01*
X54071428Y-69990476D01*
X54119047Y-70180952D01*
X54119047Y-70323809D01*
X54071428Y-70514285D01*
X54023809Y-70609523D01*
X53928571Y-70704761D01*
X53785714Y-70752380D01*
X53547619Y-70752380D01*
X55071428Y-70752380D02*
X54500000Y-70752380D01*
X54785714Y-70752380D02*
X54785714Y-69752380D01*
X54690476Y-69895238D01*
X54595238Y-69990476D01*
X54500000Y-70038095D01*
X55500000Y-70657142D02*
X55547619Y-70704761D01*
X55500000Y-70752380D01*
X55452380Y-70704761D01*
X55500000Y-70657142D01*
X55500000Y-70752380D01*
X55880952Y-69752380D02*
X56500000Y-69752380D01*
X56166666Y-70133333D01*
X56309523Y-70133333D01*
X56404761Y-70180952D01*
X56452380Y-70228571D01*
X56500000Y-70323809D01*
X56500000Y-70561904D01*
X56452380Y-70657142D01*
X56404761Y-70704761D01*
X56309523Y-70752380D01*
X56023809Y-70752380D01*
X55928571Y-70704761D01*
X55880952Y-70657142D01*
%TO.C,D1.2*%
X53547619Y-60752380D02*
X53547619Y-59752380D01*
X53785714Y-59752380D01*
X53928571Y-59800000D01*
X54023809Y-59895238D01*
X54071428Y-59990476D01*
X54119047Y-60180952D01*
X54119047Y-60323809D01*
X54071428Y-60514285D01*
X54023809Y-60609523D01*
X53928571Y-60704761D01*
X53785714Y-60752380D01*
X53547619Y-60752380D01*
X55071428Y-60752380D02*
X54500000Y-60752380D01*
X54785714Y-60752380D02*
X54785714Y-59752380D01*
X54690476Y-59895238D01*
X54595238Y-59990476D01*
X54500000Y-60038095D01*
X55500000Y-60657142D02*
X55547619Y-60704761D01*
X55500000Y-60752380D01*
X55452380Y-60704761D01*
X55500000Y-60657142D01*
X55500000Y-60752380D01*
X55928571Y-59847619D02*
X55976190Y-59800000D01*
X56071428Y-59752380D01*
X56309523Y-59752380D01*
X56404761Y-59800000D01*
X56452380Y-59847619D01*
X56500000Y-59942857D01*
X56500000Y-60038095D01*
X56452380Y-60180952D01*
X55880952Y-60752380D01*
X56500000Y-60752380D01*
%TO.C,D1.1*%
X51952380Y-53952380D02*
X50952380Y-53952380D01*
X50952380Y-53714285D01*
X51000000Y-53571428D01*
X51095238Y-53476190D01*
X51190476Y-53428571D01*
X51380952Y-53380952D01*
X51523809Y-53380952D01*
X51714285Y-53428571D01*
X51809523Y-53476190D01*
X51904761Y-53571428D01*
X51952380Y-53714285D01*
X51952380Y-53952380D01*
X51952380Y-52428571D02*
X51952380Y-53000000D01*
X51952380Y-52714285D02*
X50952380Y-52714285D01*
X51095238Y-52809523D01*
X51190476Y-52904761D01*
X51238095Y-53000000D01*
X51857142Y-52000000D02*
X51904761Y-51952380D01*
X51952380Y-52000000D01*
X51904761Y-52047619D01*
X51857142Y-52000000D01*
X51952380Y-52000000D01*
X51952380Y-51000000D02*
X51952380Y-51571428D01*
X51952380Y-51285714D02*
X50952380Y-51285714D01*
X51095238Y-51380952D01*
X51190476Y-51476190D01*
X51238095Y-51571428D01*
%TO.C,C1*%
X65927142Y-59166666D02*
X65974761Y-59214285D01*
X66022380Y-59357142D01*
X66022380Y-59452380D01*
X65974761Y-59595238D01*
X65879523Y-59690476D01*
X65784285Y-59738095D01*
X65593809Y-59785714D01*
X65450952Y-59785714D01*
X65260476Y-59738095D01*
X65165238Y-59690476D01*
X65070000Y-59595238D01*
X65022380Y-59452380D01*
X65022380Y-59357142D01*
X65070000Y-59214285D01*
X65117619Y-59166666D01*
X66022380Y-58214285D02*
X66022380Y-58785714D01*
X66022380Y-58500000D02*
X65022380Y-58500000D01*
X65165238Y-58595238D01*
X65260476Y-58690476D01*
X65308095Y-58785714D01*
%TO.C,C2*%
X85927142Y-59166666D02*
X85974761Y-59214285D01*
X86022380Y-59357142D01*
X86022380Y-59452380D01*
X85974761Y-59595238D01*
X85879523Y-59690476D01*
X85784285Y-59738095D01*
X85593809Y-59785714D01*
X85450952Y-59785714D01*
X85260476Y-59738095D01*
X85165238Y-59690476D01*
X85070000Y-59595238D01*
X85022380Y-59452380D01*
X85022380Y-59357142D01*
X85070000Y-59214285D01*
X85117619Y-59166666D01*
X85117619Y-58785714D02*
X85070000Y-58738095D01*
X85022380Y-58642857D01*
X85022380Y-58404761D01*
X85070000Y-58309523D01*
X85117619Y-58261904D01*
X85212857Y-58214285D01*
X85308095Y-58214285D01*
X85450952Y-58261904D01*
X86022380Y-58833333D01*
X86022380Y-58214285D01*
%TO.C,C3*%
X65927142Y-79166666D02*
X65974761Y-79214285D01*
X66022380Y-79357142D01*
X66022380Y-79452380D01*
X65974761Y-79595238D01*
X65879523Y-79690476D01*
X65784285Y-79738095D01*
X65593809Y-79785714D01*
X65450952Y-79785714D01*
X65260476Y-79738095D01*
X65165238Y-79690476D01*
X65070000Y-79595238D01*
X65022380Y-79452380D01*
X65022380Y-79357142D01*
X65070000Y-79214285D01*
X65117619Y-79166666D01*
X65022380Y-78833333D02*
X65022380Y-78214285D01*
X65403333Y-78547619D01*
X65403333Y-78404761D01*
X65450952Y-78309523D01*
X65498571Y-78261904D01*
X65593809Y-78214285D01*
X65831904Y-78214285D01*
X65927142Y-78261904D01*
X65974761Y-78309523D01*
X66022380Y-78404761D01*
X66022380Y-78690476D01*
X65974761Y-78785714D01*
X65927142Y-78833333D01*
%TO.C,C4*%
X85927142Y-79166666D02*
X85974761Y-79214285D01*
X86022380Y-79357142D01*
X86022380Y-79452380D01*
X85974761Y-79595238D01*
X85879523Y-79690476D01*
X85784285Y-79738095D01*
X85593809Y-79785714D01*
X85450952Y-79785714D01*
X85260476Y-79738095D01*
X85165238Y-79690476D01*
X85070000Y-79595238D01*
X85022380Y-79452380D01*
X85022380Y-79357142D01*
X85070000Y-79214285D01*
X85117619Y-79166666D01*
X85355714Y-78309523D02*
X86022380Y-78309523D01*
X84974761Y-78547619D02*
X85689047Y-78785714D01*
X85689047Y-78166666D01*
%TO.C,C5*%
X69833333Y-69787142D02*
X69785714Y-69834761D01*
X69642857Y-69882380D01*
X69547619Y-69882380D01*
X69404761Y-69834761D01*
X69309523Y-69739523D01*
X69261904Y-69644285D01*
X69214285Y-69453809D01*
X69214285Y-69310952D01*
X69261904Y-69120476D01*
X69309523Y-69025238D01*
X69404761Y-68930000D01*
X69547619Y-68882380D01*
X69642857Y-68882380D01*
X69785714Y-68930000D01*
X69833333Y-68977619D01*
X70738095Y-68882380D02*
X70261904Y-68882380D01*
X70214285Y-69358571D01*
X70261904Y-69310952D01*
X70357142Y-69263333D01*
X70595238Y-69263333D01*
X70690476Y-69310952D01*
X70738095Y-69358571D01*
X70785714Y-69453809D01*
X70785714Y-69691904D01*
X70738095Y-69787142D01*
X70690476Y-69834761D01*
X70595238Y-69882380D01*
X70357142Y-69882380D01*
X70261904Y-69834761D01*
X70214285Y-69787142D01*
%TO.C,R2*%
X86833333Y-55052380D02*
X86500000Y-54576190D01*
X86261904Y-55052380D02*
X86261904Y-54052380D01*
X86642857Y-54052380D01*
X86738095Y-54100000D01*
X86785714Y-54147619D01*
X86833333Y-54242857D01*
X86833333Y-54385714D01*
X86785714Y-54480952D01*
X86738095Y-54528571D01*
X86642857Y-54576190D01*
X86261904Y-54576190D01*
X87214285Y-54147619D02*
X87261904Y-54100000D01*
X87357142Y-54052380D01*
X87595238Y-54052380D01*
X87690476Y-54100000D01*
X87738095Y-54147619D01*
X87785714Y-54242857D01*
X87785714Y-54338095D01*
X87738095Y-54480952D01*
X87166666Y-55052380D01*
X87785714Y-55052380D01*
%TO.C,R3*%
X67333333Y-75152380D02*
X67000000Y-74676190D01*
X66761904Y-75152380D02*
X66761904Y-74152380D01*
X67142857Y-74152380D01*
X67238095Y-74200000D01*
X67285714Y-74247619D01*
X67333333Y-74342857D01*
X67333333Y-74485714D01*
X67285714Y-74580952D01*
X67238095Y-74628571D01*
X67142857Y-74676190D01*
X66761904Y-74676190D01*
X67666666Y-74152380D02*
X68285714Y-74152380D01*
X67952380Y-74533333D01*
X68095238Y-74533333D01*
X68190476Y-74580952D01*
X68238095Y-74628571D01*
X68285714Y-74723809D01*
X68285714Y-74961904D01*
X68238095Y-75057142D01*
X68190476Y-75104761D01*
X68095238Y-75152380D01*
X67809523Y-75152380D01*
X67714285Y-75104761D01*
X67666666Y-75057142D01*
%TO.C,R4*%
X86933333Y-75052380D02*
X86600000Y-74576190D01*
X86361904Y-75052380D02*
X86361904Y-74052380D01*
X86742857Y-74052380D01*
X86838095Y-74100000D01*
X86885714Y-74147619D01*
X86933333Y-74242857D01*
X86933333Y-74385714D01*
X86885714Y-74480952D01*
X86838095Y-74528571D01*
X86742857Y-74576190D01*
X86361904Y-74576190D01*
X87790476Y-74385714D02*
X87790476Y-75052380D01*
X87552380Y-74004761D02*
X87314285Y-74719047D01*
X87933333Y-74719047D01*
%TO.C,R1*%
X67933333Y-55152380D02*
X67600000Y-54676190D01*
X67361904Y-55152380D02*
X67361904Y-54152380D01*
X67742857Y-54152380D01*
X67838095Y-54200000D01*
X67885714Y-54247619D01*
X67933333Y-54342857D01*
X67933333Y-54485714D01*
X67885714Y-54580952D01*
X67838095Y-54628571D01*
X67742857Y-54676190D01*
X67361904Y-54676190D01*
X68885714Y-55152380D02*
X68314285Y-55152380D01*
X68600000Y-55152380D02*
X68600000Y-54152380D01*
X68504761Y-54295238D01*
X68409523Y-54390476D01*
X68314285Y-54438095D01*
D11*
%TO.C,MK1*%
X56726190Y-68654761D02*
X56226190Y-68654761D01*
X56583333Y-68488095D01*
X56226190Y-68321428D01*
X56726190Y-68321428D01*
X56726190Y-68083333D02*
X56226190Y-68083333D01*
X56726190Y-67797619D02*
X56440476Y-68011904D01*
X56226190Y-67797619D02*
X56511904Y-68083333D01*
X56726190Y-67321428D02*
X56726190Y-67607142D01*
X56726190Y-67464285D02*
X56226190Y-67464285D01*
X56297619Y-67511904D01*
X56345238Y-67559523D01*
X56369047Y-67607142D01*
%TO.C,MK2*%
X76726190Y-68654761D02*
X76226190Y-68654761D01*
X76583333Y-68488095D01*
X76226190Y-68321428D01*
X76726190Y-68321428D01*
X76726190Y-68083333D02*
X76226190Y-68083333D01*
X76726190Y-67797619D02*
X76440476Y-68011904D01*
X76226190Y-67797619D02*
X76511904Y-68083333D01*
X76273809Y-67607142D02*
X76250000Y-67583333D01*
X76226190Y-67535714D01*
X76226190Y-67416666D01*
X76250000Y-67369047D01*
X76273809Y-67345238D01*
X76321428Y-67321428D01*
X76369047Y-67321428D01*
X76440476Y-67345238D01*
X76726190Y-67630952D01*
X76726190Y-67321428D01*
D13*
%TO.C,U1*%
X53318172Y-56888832D02*
X52631268Y-57575735D01*
X52590862Y-57696954D01*
X52590862Y-57777766D01*
X52631268Y-57898984D01*
X52792893Y-58060609D01*
X52914111Y-58101015D01*
X52994923Y-58101015D01*
X53116142Y-58060609D01*
X53803045Y-57373705D01*
X53803045Y-59070761D02*
X53318172Y-58585888D01*
X53560609Y-58828325D02*
X54409137Y-57979796D01*
X54207106Y-58020203D01*
X54045482Y-58020203D01*
X53924264Y-57979796D01*
%TO.C,U2*%
X73318172Y-56888832D02*
X72631268Y-57575735D01*
X72590862Y-57696954D01*
X72590862Y-57777766D01*
X72631268Y-57898984D01*
X72792893Y-58060609D01*
X72914111Y-58101015D01*
X72994923Y-58101015D01*
X73116142Y-58060609D01*
X73803045Y-57373705D01*
X74085888Y-57818172D02*
X74166700Y-57818172D01*
X74287918Y-57858578D01*
X74489949Y-58060609D01*
X74530355Y-58181827D01*
X74530355Y-58262639D01*
X74489949Y-58383857D01*
X74409137Y-58464670D01*
X74247512Y-58545482D01*
X73277766Y-58545482D01*
X73803045Y-59070761D01*
%TO.C,U3*%
X53318172Y-77388831D02*
X52631268Y-78075734D01*
X52590862Y-78196953D01*
X52590862Y-78277765D01*
X52631268Y-78398983D01*
X52792893Y-78560608D01*
X52914111Y-78601014D01*
X52994923Y-78601014D01*
X53116142Y-78560608D01*
X53803045Y-77873704D01*
X54126294Y-78196953D02*
X54651573Y-78722232D01*
X54045482Y-78762638D01*
X54166700Y-78883856D01*
X54207106Y-79005075D01*
X54207106Y-79085887D01*
X54166700Y-79207105D01*
X53964670Y-79409136D01*
X53843451Y-79449542D01*
X53762639Y-79449542D01*
X53641421Y-79409136D01*
X53398984Y-79166699D01*
X53358578Y-79045481D01*
X53358578Y-78964669D01*
%TO.C,U4*%
X73318172Y-77388831D02*
X72631268Y-78075734D01*
X72590862Y-78196953D01*
X72590862Y-78277765D01*
X72631268Y-78398983D01*
X72792893Y-78560608D01*
X72914111Y-78601014D01*
X72994923Y-78601014D01*
X73116142Y-78560608D01*
X73803045Y-77873704D01*
X74287918Y-78924263D02*
X73722233Y-79489948D01*
X74409137Y-78398983D02*
X73601015Y-78803044D01*
X74126294Y-79328324D01*
D10*
%TO.C,HS1*%
X71880952Y-69126190D02*
X71880952Y-68626190D01*
X71880952Y-68864285D02*
X72166666Y-68864285D01*
X72166666Y-69126190D02*
X72166666Y-68626190D01*
X72380952Y-69102380D02*
X72452380Y-69126190D01*
X72571428Y-69126190D01*
X72619047Y-69102380D01*
X72642857Y-69078571D01*
X72666666Y-69030952D01*
X72666666Y-68983333D01*
X72642857Y-68935714D01*
X72619047Y-68911904D01*
X72571428Y-68888095D01*
X72476190Y-68864285D01*
X72428571Y-68840476D01*
X72404761Y-68816666D01*
X72380952Y-68769047D01*
X72380952Y-68721428D01*
X72404761Y-68673809D01*
X72428571Y-68650000D01*
X72476190Y-68626190D01*
X72595238Y-68626190D01*
X72666666Y-68650000D01*
X73142857Y-69126190D02*
X72857142Y-69126190D01*
X73000000Y-69126190D02*
X73000000Y-68626190D01*
X72952380Y-68697619D01*
X72904761Y-68745238D01*
X72857142Y-68769047D01*
D14*
%TO.C,D4.4*%
X86400000Y-84900000D02*
X83600000Y-84900000D01*
X86400000Y-81100000D02*
X82600000Y-81100000D01*
%TO.C,D4.3*%
X86400000Y-74900000D02*
X83600000Y-74900000D01*
X86400000Y-71100000D02*
X82600000Y-71100000D01*
%TO.C,D4.2*%
X86400000Y-64900000D02*
X83600000Y-64900000D01*
X86400000Y-61100000D02*
X82600000Y-61100000D01*
%TO.C,D4.1*%
X86400000Y-54900000D02*
X83600000Y-54900000D01*
X86400000Y-51100000D02*
X82600000Y-51100000D01*
%TO.C,D3.4*%
X76400000Y-84900000D02*
X73600000Y-84900000D01*
X76400000Y-81100000D02*
X72600000Y-81100000D01*
%TO.C,D3.3*%
X76400000Y-74900000D02*
X73600000Y-74900000D01*
X76400000Y-71100000D02*
X72600000Y-71100000D01*
%TO.C,D3.2*%
X76400000Y-64900000D02*
X73600000Y-64900000D01*
X76400000Y-61100000D02*
X72600000Y-61100000D01*
%TO.C,D3.1*%
X76400000Y-54900000D02*
X73600000Y-54900000D01*
X76400000Y-51100000D02*
X72600000Y-51100000D01*
%TO.C,D2.4*%
X66400000Y-84900000D02*
X63600000Y-84900000D01*
X66400000Y-81100000D02*
X62600000Y-81100000D01*
%TO.C,D2.3*%
X66400000Y-74900000D02*
X63600000Y-74900000D01*
X66400000Y-71100000D02*
X62600000Y-71100000D01*
%TO.C,D2.2*%
X66400000Y-64900000D02*
X63600000Y-64900000D01*
X66400000Y-61100000D02*
X62600000Y-61100000D01*
%TO.C,D2.1*%
X66400000Y-54900000D02*
X63600000Y-54900000D01*
X66400000Y-51100000D02*
X62600000Y-51100000D01*
%TO.C,D1.4*%
X56400000Y-84900000D02*
X53600000Y-84900000D01*
X56400000Y-81100000D02*
X52600000Y-81100000D01*
%TO.C,D1.3*%
X56400000Y-74900000D02*
X53600000Y-74900000D01*
X56400000Y-71100000D02*
X52600000Y-71100000D01*
%TO.C,D1.2*%
X56400000Y-64900000D02*
X53600000Y-64900000D01*
X56400000Y-61100000D02*
X52600000Y-61100000D01*
%TO.C,D1.1*%
X56400000Y-54900000D02*
X53600000Y-54900000D01*
X56400000Y-51100000D02*
X52600000Y-51100000D01*
%TO.C,C1*%
X67510000Y-59171267D02*
X67510000Y-58828733D01*
X66490000Y-59171267D02*
X66490000Y-58828733D01*
%TO.C,C2*%
X87510000Y-59171267D02*
X87510000Y-58828733D01*
X86490000Y-59171267D02*
X86490000Y-58828733D01*
%TO.C,C3*%
X67510000Y-79171267D02*
X67510000Y-78828733D01*
X66490000Y-79171267D02*
X66490000Y-78828733D01*
%TO.C,C4*%
X87510000Y-79171267D02*
X87510000Y-78828733D01*
X86490000Y-79171267D02*
X86490000Y-78828733D01*
%TO.C,C5*%
X70171267Y-67490000D02*
X69828733Y-67490000D01*
X70171267Y-68510000D02*
X69828733Y-68510000D01*
%TO.C,R2*%
X85828733Y-56510000D02*
X86171267Y-56510000D01*
X85828733Y-55490000D02*
X86171267Y-55490000D01*
%TO.C,R3*%
X65828733Y-76510000D02*
X66171267Y-76510000D01*
X65828733Y-75490000D02*
X66171267Y-75490000D01*
%TO.C,R4*%
X85828733Y-76510000D02*
X86171267Y-76510000D01*
X85828733Y-75490000D02*
X86171267Y-75490000D01*
%TO.C,R1*%
X65828733Y-56510000D02*
X66171267Y-56510000D01*
X65828733Y-55490000D02*
X66171267Y-55490000D01*
D12*
%TO.C,U1*%
X60742462Y-54075557D02*
X63924443Y-57257538D01*
X60742462Y-54075557D02*
X60671751Y-54146268D01*
X59257538Y-61924443D02*
X59328249Y-61853732D01*
X63924443Y-57257538D02*
X63853732Y-57328249D01*
X56075557Y-58742462D02*
X56146268Y-58671751D01*
X56075557Y-58742462D02*
X59257538Y-61924443D01*
X60680330Y-53792715D02*
G75*
G03*
X60680330Y-53792715I-150000J0D01*
G01*
%TO.C,U2*%
X76075557Y-58742462D02*
X79257538Y-61924443D01*
X79257538Y-61924443D02*
X79328249Y-61853732D01*
X76075557Y-58742462D02*
X76146268Y-58671751D01*
X80742462Y-54075557D02*
X83924443Y-57257538D01*
X83924443Y-57257538D02*
X83853732Y-57328249D01*
X80742462Y-54075557D02*
X80671751Y-54146268D01*
X80680330Y-53792715D02*
G75*
G03*
X80680330Y-53792715I-150000J0D01*
G01*
%TO.C,U3*%
X63924443Y-77257538D02*
X63853732Y-77328249D01*
X60742462Y-74075557D02*
X63924443Y-77257538D01*
X56075557Y-78742462D02*
X56146268Y-78671751D01*
X60742462Y-74075557D02*
X60671751Y-74146268D01*
X56075557Y-78742462D02*
X59257538Y-81924443D01*
X59257538Y-81924443D02*
X59328249Y-81853732D01*
X60680330Y-73792715D02*
G75*
G03*
X60680330Y-73792715I-150000J0D01*
G01*
%TO.C,U4*%
X79257538Y-81924443D02*
X79328249Y-81853732D01*
X76075557Y-78742462D02*
X79257538Y-81924443D01*
X80742462Y-74075557D02*
X80671751Y-74146268D01*
X83924443Y-77257538D02*
X83853732Y-77328249D01*
X76075557Y-78742462D02*
X76146268Y-78671751D01*
X80742462Y-74075557D02*
X83924443Y-77257538D01*
X80680330Y-73792715D02*
G75*
G03*
X80680330Y-73792715I-150000J0D01*
G01*
%TD*%
M02*
