%TF.GenerationSoftware,KiCad,Pcbnew,5.99.0-unknown-652a59b78~104~ubuntu20.04.1*%
%TF.CreationDate,2020-09-21T15:47:38+02:00*%
%TF.ProjectId,LEDBoard_4x4_16bit,4c454442-6f61-4726-945f-3478345f3136,4.0.0*%
%TF.SameCoordinates,Original*%
%TF.FileFunction,Paste,Top*%
%TF.FilePolarity,Positive*%
%FSLAX46Y46*%
G04 Gerber Fmt 4.6, Leading zero omitted, Abs format (unit mm)*
G04 Created by KiCad (PCBNEW 5.99.0-unknown-652a59b78~104~ubuntu20.04.1) date 2020-09-21 15:47:38*
%MOMM*%
%LPD*%
G01*
G04 APERTURE LIST*
G04 APERTURE END LIST*
%TO.C,D4.4*%
G36*
G01*
X86100000Y-82240000D02*
X86100000Y-81560000D01*
G75*
G02*
X86185000Y-81475000I85000J0D01*
G01*
X87165000Y-81475000D01*
G75*
G02*
X87250000Y-81560000I0J-85000D01*
G01*
X87250000Y-82240000D01*
G75*
G02*
X87165000Y-82325000I-85000J0D01*
G01*
X86185000Y-82325000D01*
G75*
G02*
X86100000Y-82240000I0J85000D01*
G01*
G37*
G36*
G01*
X86100000Y-83340000D02*
X86100000Y-82660000D01*
G75*
G02*
X86185000Y-82575000I85000J0D01*
G01*
X87165000Y-82575000D01*
G75*
G02*
X87250000Y-82660000I0J-85000D01*
G01*
X87250000Y-83340000D01*
G75*
G02*
X87165000Y-83425000I-85000J0D01*
G01*
X86185000Y-83425000D01*
G75*
G02*
X86100000Y-83340000I0J85000D01*
G01*
G37*
G36*
G01*
X86100000Y-84440000D02*
X86100000Y-83760000D01*
G75*
G02*
X86185000Y-83675000I85000J0D01*
G01*
X87165000Y-83675000D01*
G75*
G02*
X87250000Y-83760000I0J-85000D01*
G01*
X87250000Y-84440000D01*
G75*
G02*
X87165000Y-84525000I-85000J0D01*
G01*
X86185000Y-84525000D01*
G75*
G02*
X86100000Y-84440000I0J85000D01*
G01*
G37*
G36*
G01*
X82750000Y-82240000D02*
X82750000Y-81560000D01*
G75*
G02*
X82835000Y-81475000I85000J0D01*
G01*
X83815000Y-81475000D01*
G75*
G02*
X83900000Y-81560000I0J-85000D01*
G01*
X83900000Y-82240000D01*
G75*
G02*
X83815000Y-82325000I-85000J0D01*
G01*
X82835000Y-82325000D01*
G75*
G02*
X82750000Y-82240000I0J85000D01*
G01*
G37*
G36*
G01*
X82750000Y-84440000D02*
X82750000Y-83760000D01*
G75*
G02*
X82835000Y-83675000I85000J0D01*
G01*
X83815000Y-83675000D01*
G75*
G02*
X83900000Y-83760000I0J-85000D01*
G01*
X83900000Y-84440000D01*
G75*
G02*
X83815000Y-84525000I-85000J0D01*
G01*
X82835000Y-84525000D01*
G75*
G02*
X82750000Y-84440000I0J85000D01*
G01*
G37*
G36*
G01*
X82750000Y-83340000D02*
X82750000Y-82660000D01*
G75*
G02*
X82835000Y-82575000I85000J0D01*
G01*
X83815000Y-82575000D01*
G75*
G02*
X83900000Y-82660000I0J-85000D01*
G01*
X83900000Y-83340000D01*
G75*
G02*
X83815000Y-83425000I-85000J0D01*
G01*
X82835000Y-83425000D01*
G75*
G02*
X82750000Y-83340000I0J85000D01*
G01*
G37*
%TD*%
%TO.C,D4.3*%
G36*
G01*
X86100000Y-72240000D02*
X86100000Y-71560000D01*
G75*
G02*
X86185000Y-71475000I85000J0D01*
G01*
X87165000Y-71475000D01*
G75*
G02*
X87250000Y-71560000I0J-85000D01*
G01*
X87250000Y-72240000D01*
G75*
G02*
X87165000Y-72325000I-85000J0D01*
G01*
X86185000Y-72325000D01*
G75*
G02*
X86100000Y-72240000I0J85000D01*
G01*
G37*
G36*
G01*
X86100000Y-73340000D02*
X86100000Y-72660000D01*
G75*
G02*
X86185000Y-72575000I85000J0D01*
G01*
X87165000Y-72575000D01*
G75*
G02*
X87250000Y-72660000I0J-85000D01*
G01*
X87250000Y-73340000D01*
G75*
G02*
X87165000Y-73425000I-85000J0D01*
G01*
X86185000Y-73425000D01*
G75*
G02*
X86100000Y-73340000I0J85000D01*
G01*
G37*
G36*
G01*
X86100000Y-74440000D02*
X86100000Y-73760000D01*
G75*
G02*
X86185000Y-73675000I85000J0D01*
G01*
X87165000Y-73675000D01*
G75*
G02*
X87250000Y-73760000I0J-85000D01*
G01*
X87250000Y-74440000D01*
G75*
G02*
X87165000Y-74525000I-85000J0D01*
G01*
X86185000Y-74525000D01*
G75*
G02*
X86100000Y-74440000I0J85000D01*
G01*
G37*
G36*
G01*
X82750000Y-72240000D02*
X82750000Y-71560000D01*
G75*
G02*
X82835000Y-71475000I85000J0D01*
G01*
X83815000Y-71475000D01*
G75*
G02*
X83900000Y-71560000I0J-85000D01*
G01*
X83900000Y-72240000D01*
G75*
G02*
X83815000Y-72325000I-85000J0D01*
G01*
X82835000Y-72325000D01*
G75*
G02*
X82750000Y-72240000I0J85000D01*
G01*
G37*
G36*
G01*
X82750000Y-74440000D02*
X82750000Y-73760000D01*
G75*
G02*
X82835000Y-73675000I85000J0D01*
G01*
X83815000Y-73675000D01*
G75*
G02*
X83900000Y-73760000I0J-85000D01*
G01*
X83900000Y-74440000D01*
G75*
G02*
X83815000Y-74525000I-85000J0D01*
G01*
X82835000Y-74525000D01*
G75*
G02*
X82750000Y-74440000I0J85000D01*
G01*
G37*
G36*
G01*
X82750000Y-73340000D02*
X82750000Y-72660000D01*
G75*
G02*
X82835000Y-72575000I85000J0D01*
G01*
X83815000Y-72575000D01*
G75*
G02*
X83900000Y-72660000I0J-85000D01*
G01*
X83900000Y-73340000D01*
G75*
G02*
X83815000Y-73425000I-85000J0D01*
G01*
X82835000Y-73425000D01*
G75*
G02*
X82750000Y-73340000I0J85000D01*
G01*
G37*
%TD*%
%TO.C,D4.2*%
G36*
G01*
X86100000Y-62240000D02*
X86100000Y-61560000D01*
G75*
G02*
X86185000Y-61475000I85000J0D01*
G01*
X87165000Y-61475000D01*
G75*
G02*
X87250000Y-61560000I0J-85000D01*
G01*
X87250000Y-62240000D01*
G75*
G02*
X87165000Y-62325000I-85000J0D01*
G01*
X86185000Y-62325000D01*
G75*
G02*
X86100000Y-62240000I0J85000D01*
G01*
G37*
G36*
G01*
X86100000Y-63340000D02*
X86100000Y-62660000D01*
G75*
G02*
X86185000Y-62575000I85000J0D01*
G01*
X87165000Y-62575000D01*
G75*
G02*
X87250000Y-62660000I0J-85000D01*
G01*
X87250000Y-63340000D01*
G75*
G02*
X87165000Y-63425000I-85000J0D01*
G01*
X86185000Y-63425000D01*
G75*
G02*
X86100000Y-63340000I0J85000D01*
G01*
G37*
G36*
G01*
X86100000Y-64440000D02*
X86100000Y-63760000D01*
G75*
G02*
X86185000Y-63675000I85000J0D01*
G01*
X87165000Y-63675000D01*
G75*
G02*
X87250000Y-63760000I0J-85000D01*
G01*
X87250000Y-64440000D01*
G75*
G02*
X87165000Y-64525000I-85000J0D01*
G01*
X86185000Y-64525000D01*
G75*
G02*
X86100000Y-64440000I0J85000D01*
G01*
G37*
G36*
G01*
X82750000Y-62240000D02*
X82750000Y-61560000D01*
G75*
G02*
X82835000Y-61475000I85000J0D01*
G01*
X83815000Y-61475000D01*
G75*
G02*
X83900000Y-61560000I0J-85000D01*
G01*
X83900000Y-62240000D01*
G75*
G02*
X83815000Y-62325000I-85000J0D01*
G01*
X82835000Y-62325000D01*
G75*
G02*
X82750000Y-62240000I0J85000D01*
G01*
G37*
G36*
G01*
X82750000Y-64440000D02*
X82750000Y-63760000D01*
G75*
G02*
X82835000Y-63675000I85000J0D01*
G01*
X83815000Y-63675000D01*
G75*
G02*
X83900000Y-63760000I0J-85000D01*
G01*
X83900000Y-64440000D01*
G75*
G02*
X83815000Y-64525000I-85000J0D01*
G01*
X82835000Y-64525000D01*
G75*
G02*
X82750000Y-64440000I0J85000D01*
G01*
G37*
G36*
G01*
X82750000Y-63340000D02*
X82750000Y-62660000D01*
G75*
G02*
X82835000Y-62575000I85000J0D01*
G01*
X83815000Y-62575000D01*
G75*
G02*
X83900000Y-62660000I0J-85000D01*
G01*
X83900000Y-63340000D01*
G75*
G02*
X83815000Y-63425000I-85000J0D01*
G01*
X82835000Y-63425000D01*
G75*
G02*
X82750000Y-63340000I0J85000D01*
G01*
G37*
%TD*%
%TO.C,D4.1*%
G36*
G01*
X86100000Y-52240000D02*
X86100000Y-51560000D01*
G75*
G02*
X86185000Y-51475000I85000J0D01*
G01*
X87165000Y-51475000D01*
G75*
G02*
X87250000Y-51560000I0J-85000D01*
G01*
X87250000Y-52240000D01*
G75*
G02*
X87165000Y-52325000I-85000J0D01*
G01*
X86185000Y-52325000D01*
G75*
G02*
X86100000Y-52240000I0J85000D01*
G01*
G37*
G36*
G01*
X86100000Y-53340000D02*
X86100000Y-52660000D01*
G75*
G02*
X86185000Y-52575000I85000J0D01*
G01*
X87165000Y-52575000D01*
G75*
G02*
X87250000Y-52660000I0J-85000D01*
G01*
X87250000Y-53340000D01*
G75*
G02*
X87165000Y-53425000I-85000J0D01*
G01*
X86185000Y-53425000D01*
G75*
G02*
X86100000Y-53340000I0J85000D01*
G01*
G37*
G36*
G01*
X86100000Y-54440000D02*
X86100000Y-53760000D01*
G75*
G02*
X86185000Y-53675000I85000J0D01*
G01*
X87165000Y-53675000D01*
G75*
G02*
X87250000Y-53760000I0J-85000D01*
G01*
X87250000Y-54440000D01*
G75*
G02*
X87165000Y-54525000I-85000J0D01*
G01*
X86185000Y-54525000D01*
G75*
G02*
X86100000Y-54440000I0J85000D01*
G01*
G37*
G36*
G01*
X82750000Y-52240000D02*
X82750000Y-51560000D01*
G75*
G02*
X82835000Y-51475000I85000J0D01*
G01*
X83815000Y-51475000D01*
G75*
G02*
X83900000Y-51560000I0J-85000D01*
G01*
X83900000Y-52240000D01*
G75*
G02*
X83815000Y-52325000I-85000J0D01*
G01*
X82835000Y-52325000D01*
G75*
G02*
X82750000Y-52240000I0J85000D01*
G01*
G37*
G36*
G01*
X82750000Y-54440000D02*
X82750000Y-53760000D01*
G75*
G02*
X82835000Y-53675000I85000J0D01*
G01*
X83815000Y-53675000D01*
G75*
G02*
X83900000Y-53760000I0J-85000D01*
G01*
X83900000Y-54440000D01*
G75*
G02*
X83815000Y-54525000I-85000J0D01*
G01*
X82835000Y-54525000D01*
G75*
G02*
X82750000Y-54440000I0J85000D01*
G01*
G37*
G36*
G01*
X82750000Y-53340000D02*
X82750000Y-52660000D01*
G75*
G02*
X82835000Y-52575000I85000J0D01*
G01*
X83815000Y-52575000D01*
G75*
G02*
X83900000Y-52660000I0J-85000D01*
G01*
X83900000Y-53340000D01*
G75*
G02*
X83815000Y-53425000I-85000J0D01*
G01*
X82835000Y-53425000D01*
G75*
G02*
X82750000Y-53340000I0J85000D01*
G01*
G37*
%TD*%
%TO.C,D3.4*%
G36*
G01*
X76100000Y-82240000D02*
X76100000Y-81560000D01*
G75*
G02*
X76185000Y-81475000I85000J0D01*
G01*
X77165000Y-81475000D01*
G75*
G02*
X77250000Y-81560000I0J-85000D01*
G01*
X77250000Y-82240000D01*
G75*
G02*
X77165000Y-82325000I-85000J0D01*
G01*
X76185000Y-82325000D01*
G75*
G02*
X76100000Y-82240000I0J85000D01*
G01*
G37*
G36*
G01*
X76100000Y-83340000D02*
X76100000Y-82660000D01*
G75*
G02*
X76185000Y-82575000I85000J0D01*
G01*
X77165000Y-82575000D01*
G75*
G02*
X77250000Y-82660000I0J-85000D01*
G01*
X77250000Y-83340000D01*
G75*
G02*
X77165000Y-83425000I-85000J0D01*
G01*
X76185000Y-83425000D01*
G75*
G02*
X76100000Y-83340000I0J85000D01*
G01*
G37*
G36*
G01*
X76100000Y-84440000D02*
X76100000Y-83760000D01*
G75*
G02*
X76185000Y-83675000I85000J0D01*
G01*
X77165000Y-83675000D01*
G75*
G02*
X77250000Y-83760000I0J-85000D01*
G01*
X77250000Y-84440000D01*
G75*
G02*
X77165000Y-84525000I-85000J0D01*
G01*
X76185000Y-84525000D01*
G75*
G02*
X76100000Y-84440000I0J85000D01*
G01*
G37*
G36*
G01*
X72750000Y-82240000D02*
X72750000Y-81560000D01*
G75*
G02*
X72835000Y-81475000I85000J0D01*
G01*
X73815000Y-81475000D01*
G75*
G02*
X73900000Y-81560000I0J-85000D01*
G01*
X73900000Y-82240000D01*
G75*
G02*
X73815000Y-82325000I-85000J0D01*
G01*
X72835000Y-82325000D01*
G75*
G02*
X72750000Y-82240000I0J85000D01*
G01*
G37*
G36*
G01*
X72750000Y-84440000D02*
X72750000Y-83760000D01*
G75*
G02*
X72835000Y-83675000I85000J0D01*
G01*
X73815000Y-83675000D01*
G75*
G02*
X73900000Y-83760000I0J-85000D01*
G01*
X73900000Y-84440000D01*
G75*
G02*
X73815000Y-84525000I-85000J0D01*
G01*
X72835000Y-84525000D01*
G75*
G02*
X72750000Y-84440000I0J85000D01*
G01*
G37*
G36*
G01*
X72750000Y-83340000D02*
X72750000Y-82660000D01*
G75*
G02*
X72835000Y-82575000I85000J0D01*
G01*
X73815000Y-82575000D01*
G75*
G02*
X73900000Y-82660000I0J-85000D01*
G01*
X73900000Y-83340000D01*
G75*
G02*
X73815000Y-83425000I-85000J0D01*
G01*
X72835000Y-83425000D01*
G75*
G02*
X72750000Y-83340000I0J85000D01*
G01*
G37*
%TD*%
%TO.C,D3.3*%
G36*
G01*
X76100000Y-72240000D02*
X76100000Y-71560000D01*
G75*
G02*
X76185000Y-71475000I85000J0D01*
G01*
X77165000Y-71475000D01*
G75*
G02*
X77250000Y-71560000I0J-85000D01*
G01*
X77250000Y-72240000D01*
G75*
G02*
X77165000Y-72325000I-85000J0D01*
G01*
X76185000Y-72325000D01*
G75*
G02*
X76100000Y-72240000I0J85000D01*
G01*
G37*
G36*
G01*
X76100000Y-73340000D02*
X76100000Y-72660000D01*
G75*
G02*
X76185000Y-72575000I85000J0D01*
G01*
X77165000Y-72575000D01*
G75*
G02*
X77250000Y-72660000I0J-85000D01*
G01*
X77250000Y-73340000D01*
G75*
G02*
X77165000Y-73425000I-85000J0D01*
G01*
X76185000Y-73425000D01*
G75*
G02*
X76100000Y-73340000I0J85000D01*
G01*
G37*
G36*
G01*
X76100000Y-74440000D02*
X76100000Y-73760000D01*
G75*
G02*
X76185000Y-73675000I85000J0D01*
G01*
X77165000Y-73675000D01*
G75*
G02*
X77250000Y-73760000I0J-85000D01*
G01*
X77250000Y-74440000D01*
G75*
G02*
X77165000Y-74525000I-85000J0D01*
G01*
X76185000Y-74525000D01*
G75*
G02*
X76100000Y-74440000I0J85000D01*
G01*
G37*
G36*
G01*
X72750000Y-72240000D02*
X72750000Y-71560000D01*
G75*
G02*
X72835000Y-71475000I85000J0D01*
G01*
X73815000Y-71475000D01*
G75*
G02*
X73900000Y-71560000I0J-85000D01*
G01*
X73900000Y-72240000D01*
G75*
G02*
X73815000Y-72325000I-85000J0D01*
G01*
X72835000Y-72325000D01*
G75*
G02*
X72750000Y-72240000I0J85000D01*
G01*
G37*
G36*
G01*
X72750000Y-74440000D02*
X72750000Y-73760000D01*
G75*
G02*
X72835000Y-73675000I85000J0D01*
G01*
X73815000Y-73675000D01*
G75*
G02*
X73900000Y-73760000I0J-85000D01*
G01*
X73900000Y-74440000D01*
G75*
G02*
X73815000Y-74525000I-85000J0D01*
G01*
X72835000Y-74525000D01*
G75*
G02*
X72750000Y-74440000I0J85000D01*
G01*
G37*
G36*
G01*
X72750000Y-73340000D02*
X72750000Y-72660000D01*
G75*
G02*
X72835000Y-72575000I85000J0D01*
G01*
X73815000Y-72575000D01*
G75*
G02*
X73900000Y-72660000I0J-85000D01*
G01*
X73900000Y-73340000D01*
G75*
G02*
X73815000Y-73425000I-85000J0D01*
G01*
X72835000Y-73425000D01*
G75*
G02*
X72750000Y-73340000I0J85000D01*
G01*
G37*
%TD*%
%TO.C,D3.2*%
G36*
G01*
X76100000Y-62240000D02*
X76100000Y-61560000D01*
G75*
G02*
X76185000Y-61475000I85000J0D01*
G01*
X77165000Y-61475000D01*
G75*
G02*
X77250000Y-61560000I0J-85000D01*
G01*
X77250000Y-62240000D01*
G75*
G02*
X77165000Y-62325000I-85000J0D01*
G01*
X76185000Y-62325000D01*
G75*
G02*
X76100000Y-62240000I0J85000D01*
G01*
G37*
G36*
G01*
X76100000Y-63340000D02*
X76100000Y-62660000D01*
G75*
G02*
X76185000Y-62575000I85000J0D01*
G01*
X77165000Y-62575000D01*
G75*
G02*
X77250000Y-62660000I0J-85000D01*
G01*
X77250000Y-63340000D01*
G75*
G02*
X77165000Y-63425000I-85000J0D01*
G01*
X76185000Y-63425000D01*
G75*
G02*
X76100000Y-63340000I0J85000D01*
G01*
G37*
G36*
G01*
X76100000Y-64440000D02*
X76100000Y-63760000D01*
G75*
G02*
X76185000Y-63675000I85000J0D01*
G01*
X77165000Y-63675000D01*
G75*
G02*
X77250000Y-63760000I0J-85000D01*
G01*
X77250000Y-64440000D01*
G75*
G02*
X77165000Y-64525000I-85000J0D01*
G01*
X76185000Y-64525000D01*
G75*
G02*
X76100000Y-64440000I0J85000D01*
G01*
G37*
G36*
G01*
X72750000Y-62240000D02*
X72750000Y-61560000D01*
G75*
G02*
X72835000Y-61475000I85000J0D01*
G01*
X73815000Y-61475000D01*
G75*
G02*
X73900000Y-61560000I0J-85000D01*
G01*
X73900000Y-62240000D01*
G75*
G02*
X73815000Y-62325000I-85000J0D01*
G01*
X72835000Y-62325000D01*
G75*
G02*
X72750000Y-62240000I0J85000D01*
G01*
G37*
G36*
G01*
X72750000Y-64440000D02*
X72750000Y-63760000D01*
G75*
G02*
X72835000Y-63675000I85000J0D01*
G01*
X73815000Y-63675000D01*
G75*
G02*
X73900000Y-63760000I0J-85000D01*
G01*
X73900000Y-64440000D01*
G75*
G02*
X73815000Y-64525000I-85000J0D01*
G01*
X72835000Y-64525000D01*
G75*
G02*
X72750000Y-64440000I0J85000D01*
G01*
G37*
G36*
G01*
X72750000Y-63340000D02*
X72750000Y-62660000D01*
G75*
G02*
X72835000Y-62575000I85000J0D01*
G01*
X73815000Y-62575000D01*
G75*
G02*
X73900000Y-62660000I0J-85000D01*
G01*
X73900000Y-63340000D01*
G75*
G02*
X73815000Y-63425000I-85000J0D01*
G01*
X72835000Y-63425000D01*
G75*
G02*
X72750000Y-63340000I0J85000D01*
G01*
G37*
%TD*%
%TO.C,D3.1*%
G36*
G01*
X76100000Y-52240000D02*
X76100000Y-51560000D01*
G75*
G02*
X76185000Y-51475000I85000J0D01*
G01*
X77165000Y-51475000D01*
G75*
G02*
X77250000Y-51560000I0J-85000D01*
G01*
X77250000Y-52240000D01*
G75*
G02*
X77165000Y-52325000I-85000J0D01*
G01*
X76185000Y-52325000D01*
G75*
G02*
X76100000Y-52240000I0J85000D01*
G01*
G37*
G36*
G01*
X76100000Y-53340000D02*
X76100000Y-52660000D01*
G75*
G02*
X76185000Y-52575000I85000J0D01*
G01*
X77165000Y-52575000D01*
G75*
G02*
X77250000Y-52660000I0J-85000D01*
G01*
X77250000Y-53340000D01*
G75*
G02*
X77165000Y-53425000I-85000J0D01*
G01*
X76185000Y-53425000D01*
G75*
G02*
X76100000Y-53340000I0J85000D01*
G01*
G37*
G36*
G01*
X76100000Y-54440000D02*
X76100000Y-53760000D01*
G75*
G02*
X76185000Y-53675000I85000J0D01*
G01*
X77165000Y-53675000D01*
G75*
G02*
X77250000Y-53760000I0J-85000D01*
G01*
X77250000Y-54440000D01*
G75*
G02*
X77165000Y-54525000I-85000J0D01*
G01*
X76185000Y-54525000D01*
G75*
G02*
X76100000Y-54440000I0J85000D01*
G01*
G37*
G36*
G01*
X72750000Y-52240000D02*
X72750000Y-51560000D01*
G75*
G02*
X72835000Y-51475000I85000J0D01*
G01*
X73815000Y-51475000D01*
G75*
G02*
X73900000Y-51560000I0J-85000D01*
G01*
X73900000Y-52240000D01*
G75*
G02*
X73815000Y-52325000I-85000J0D01*
G01*
X72835000Y-52325000D01*
G75*
G02*
X72750000Y-52240000I0J85000D01*
G01*
G37*
G36*
G01*
X72750000Y-54440000D02*
X72750000Y-53760000D01*
G75*
G02*
X72835000Y-53675000I85000J0D01*
G01*
X73815000Y-53675000D01*
G75*
G02*
X73900000Y-53760000I0J-85000D01*
G01*
X73900000Y-54440000D01*
G75*
G02*
X73815000Y-54525000I-85000J0D01*
G01*
X72835000Y-54525000D01*
G75*
G02*
X72750000Y-54440000I0J85000D01*
G01*
G37*
G36*
G01*
X72750000Y-53340000D02*
X72750000Y-52660000D01*
G75*
G02*
X72835000Y-52575000I85000J0D01*
G01*
X73815000Y-52575000D01*
G75*
G02*
X73900000Y-52660000I0J-85000D01*
G01*
X73900000Y-53340000D01*
G75*
G02*
X73815000Y-53425000I-85000J0D01*
G01*
X72835000Y-53425000D01*
G75*
G02*
X72750000Y-53340000I0J85000D01*
G01*
G37*
%TD*%
%TO.C,D2.4*%
G36*
G01*
X66100000Y-82240000D02*
X66100000Y-81560000D01*
G75*
G02*
X66185000Y-81475000I85000J0D01*
G01*
X67165000Y-81475000D01*
G75*
G02*
X67250000Y-81560000I0J-85000D01*
G01*
X67250000Y-82240000D01*
G75*
G02*
X67165000Y-82325000I-85000J0D01*
G01*
X66185000Y-82325000D01*
G75*
G02*
X66100000Y-82240000I0J85000D01*
G01*
G37*
G36*
G01*
X66100000Y-83340000D02*
X66100000Y-82660000D01*
G75*
G02*
X66185000Y-82575000I85000J0D01*
G01*
X67165000Y-82575000D01*
G75*
G02*
X67250000Y-82660000I0J-85000D01*
G01*
X67250000Y-83340000D01*
G75*
G02*
X67165000Y-83425000I-85000J0D01*
G01*
X66185000Y-83425000D01*
G75*
G02*
X66100000Y-83340000I0J85000D01*
G01*
G37*
G36*
G01*
X66100000Y-84440000D02*
X66100000Y-83760000D01*
G75*
G02*
X66185000Y-83675000I85000J0D01*
G01*
X67165000Y-83675000D01*
G75*
G02*
X67250000Y-83760000I0J-85000D01*
G01*
X67250000Y-84440000D01*
G75*
G02*
X67165000Y-84525000I-85000J0D01*
G01*
X66185000Y-84525000D01*
G75*
G02*
X66100000Y-84440000I0J85000D01*
G01*
G37*
G36*
G01*
X62750000Y-82240000D02*
X62750000Y-81560000D01*
G75*
G02*
X62835000Y-81475000I85000J0D01*
G01*
X63815000Y-81475000D01*
G75*
G02*
X63900000Y-81560000I0J-85000D01*
G01*
X63900000Y-82240000D01*
G75*
G02*
X63815000Y-82325000I-85000J0D01*
G01*
X62835000Y-82325000D01*
G75*
G02*
X62750000Y-82240000I0J85000D01*
G01*
G37*
G36*
G01*
X62750000Y-84440000D02*
X62750000Y-83760000D01*
G75*
G02*
X62835000Y-83675000I85000J0D01*
G01*
X63815000Y-83675000D01*
G75*
G02*
X63900000Y-83760000I0J-85000D01*
G01*
X63900000Y-84440000D01*
G75*
G02*
X63815000Y-84525000I-85000J0D01*
G01*
X62835000Y-84525000D01*
G75*
G02*
X62750000Y-84440000I0J85000D01*
G01*
G37*
G36*
G01*
X62750000Y-83340000D02*
X62750000Y-82660000D01*
G75*
G02*
X62835000Y-82575000I85000J0D01*
G01*
X63815000Y-82575000D01*
G75*
G02*
X63900000Y-82660000I0J-85000D01*
G01*
X63900000Y-83340000D01*
G75*
G02*
X63815000Y-83425000I-85000J0D01*
G01*
X62835000Y-83425000D01*
G75*
G02*
X62750000Y-83340000I0J85000D01*
G01*
G37*
%TD*%
%TO.C,D2.3*%
G36*
G01*
X66100000Y-72240000D02*
X66100000Y-71560000D01*
G75*
G02*
X66185000Y-71475000I85000J0D01*
G01*
X67165000Y-71475000D01*
G75*
G02*
X67250000Y-71560000I0J-85000D01*
G01*
X67250000Y-72240000D01*
G75*
G02*
X67165000Y-72325000I-85000J0D01*
G01*
X66185000Y-72325000D01*
G75*
G02*
X66100000Y-72240000I0J85000D01*
G01*
G37*
G36*
G01*
X66100000Y-73340000D02*
X66100000Y-72660000D01*
G75*
G02*
X66185000Y-72575000I85000J0D01*
G01*
X67165000Y-72575000D01*
G75*
G02*
X67250000Y-72660000I0J-85000D01*
G01*
X67250000Y-73340000D01*
G75*
G02*
X67165000Y-73425000I-85000J0D01*
G01*
X66185000Y-73425000D01*
G75*
G02*
X66100000Y-73340000I0J85000D01*
G01*
G37*
G36*
G01*
X66100000Y-74440000D02*
X66100000Y-73760000D01*
G75*
G02*
X66185000Y-73675000I85000J0D01*
G01*
X67165000Y-73675000D01*
G75*
G02*
X67250000Y-73760000I0J-85000D01*
G01*
X67250000Y-74440000D01*
G75*
G02*
X67165000Y-74525000I-85000J0D01*
G01*
X66185000Y-74525000D01*
G75*
G02*
X66100000Y-74440000I0J85000D01*
G01*
G37*
G36*
G01*
X62750000Y-72240000D02*
X62750000Y-71560000D01*
G75*
G02*
X62835000Y-71475000I85000J0D01*
G01*
X63815000Y-71475000D01*
G75*
G02*
X63900000Y-71560000I0J-85000D01*
G01*
X63900000Y-72240000D01*
G75*
G02*
X63815000Y-72325000I-85000J0D01*
G01*
X62835000Y-72325000D01*
G75*
G02*
X62750000Y-72240000I0J85000D01*
G01*
G37*
G36*
G01*
X62750000Y-74440000D02*
X62750000Y-73760000D01*
G75*
G02*
X62835000Y-73675000I85000J0D01*
G01*
X63815000Y-73675000D01*
G75*
G02*
X63900000Y-73760000I0J-85000D01*
G01*
X63900000Y-74440000D01*
G75*
G02*
X63815000Y-74525000I-85000J0D01*
G01*
X62835000Y-74525000D01*
G75*
G02*
X62750000Y-74440000I0J85000D01*
G01*
G37*
G36*
G01*
X62750000Y-73340000D02*
X62750000Y-72660000D01*
G75*
G02*
X62835000Y-72575000I85000J0D01*
G01*
X63815000Y-72575000D01*
G75*
G02*
X63900000Y-72660000I0J-85000D01*
G01*
X63900000Y-73340000D01*
G75*
G02*
X63815000Y-73425000I-85000J0D01*
G01*
X62835000Y-73425000D01*
G75*
G02*
X62750000Y-73340000I0J85000D01*
G01*
G37*
%TD*%
%TO.C,D2.2*%
G36*
G01*
X66100000Y-62240000D02*
X66100000Y-61560000D01*
G75*
G02*
X66185000Y-61475000I85000J0D01*
G01*
X67165000Y-61475000D01*
G75*
G02*
X67250000Y-61560000I0J-85000D01*
G01*
X67250000Y-62240000D01*
G75*
G02*
X67165000Y-62325000I-85000J0D01*
G01*
X66185000Y-62325000D01*
G75*
G02*
X66100000Y-62240000I0J85000D01*
G01*
G37*
G36*
G01*
X66100000Y-63340000D02*
X66100000Y-62660000D01*
G75*
G02*
X66185000Y-62575000I85000J0D01*
G01*
X67165000Y-62575000D01*
G75*
G02*
X67250000Y-62660000I0J-85000D01*
G01*
X67250000Y-63340000D01*
G75*
G02*
X67165000Y-63425000I-85000J0D01*
G01*
X66185000Y-63425000D01*
G75*
G02*
X66100000Y-63340000I0J85000D01*
G01*
G37*
G36*
G01*
X66100000Y-64440000D02*
X66100000Y-63760000D01*
G75*
G02*
X66185000Y-63675000I85000J0D01*
G01*
X67165000Y-63675000D01*
G75*
G02*
X67250000Y-63760000I0J-85000D01*
G01*
X67250000Y-64440000D01*
G75*
G02*
X67165000Y-64525000I-85000J0D01*
G01*
X66185000Y-64525000D01*
G75*
G02*
X66100000Y-64440000I0J85000D01*
G01*
G37*
G36*
G01*
X62750000Y-62240000D02*
X62750000Y-61560000D01*
G75*
G02*
X62835000Y-61475000I85000J0D01*
G01*
X63815000Y-61475000D01*
G75*
G02*
X63900000Y-61560000I0J-85000D01*
G01*
X63900000Y-62240000D01*
G75*
G02*
X63815000Y-62325000I-85000J0D01*
G01*
X62835000Y-62325000D01*
G75*
G02*
X62750000Y-62240000I0J85000D01*
G01*
G37*
G36*
G01*
X62750000Y-64440000D02*
X62750000Y-63760000D01*
G75*
G02*
X62835000Y-63675000I85000J0D01*
G01*
X63815000Y-63675000D01*
G75*
G02*
X63900000Y-63760000I0J-85000D01*
G01*
X63900000Y-64440000D01*
G75*
G02*
X63815000Y-64525000I-85000J0D01*
G01*
X62835000Y-64525000D01*
G75*
G02*
X62750000Y-64440000I0J85000D01*
G01*
G37*
G36*
G01*
X62750000Y-63340000D02*
X62750000Y-62660000D01*
G75*
G02*
X62835000Y-62575000I85000J0D01*
G01*
X63815000Y-62575000D01*
G75*
G02*
X63900000Y-62660000I0J-85000D01*
G01*
X63900000Y-63340000D01*
G75*
G02*
X63815000Y-63425000I-85000J0D01*
G01*
X62835000Y-63425000D01*
G75*
G02*
X62750000Y-63340000I0J85000D01*
G01*
G37*
%TD*%
%TO.C,D2.1*%
G36*
G01*
X66100000Y-52240000D02*
X66100000Y-51560000D01*
G75*
G02*
X66185000Y-51475000I85000J0D01*
G01*
X67165000Y-51475000D01*
G75*
G02*
X67250000Y-51560000I0J-85000D01*
G01*
X67250000Y-52240000D01*
G75*
G02*
X67165000Y-52325000I-85000J0D01*
G01*
X66185000Y-52325000D01*
G75*
G02*
X66100000Y-52240000I0J85000D01*
G01*
G37*
G36*
G01*
X66100000Y-53340000D02*
X66100000Y-52660000D01*
G75*
G02*
X66185000Y-52575000I85000J0D01*
G01*
X67165000Y-52575000D01*
G75*
G02*
X67250000Y-52660000I0J-85000D01*
G01*
X67250000Y-53340000D01*
G75*
G02*
X67165000Y-53425000I-85000J0D01*
G01*
X66185000Y-53425000D01*
G75*
G02*
X66100000Y-53340000I0J85000D01*
G01*
G37*
G36*
G01*
X66100000Y-54440000D02*
X66100000Y-53760000D01*
G75*
G02*
X66185000Y-53675000I85000J0D01*
G01*
X67165000Y-53675000D01*
G75*
G02*
X67250000Y-53760000I0J-85000D01*
G01*
X67250000Y-54440000D01*
G75*
G02*
X67165000Y-54525000I-85000J0D01*
G01*
X66185000Y-54525000D01*
G75*
G02*
X66100000Y-54440000I0J85000D01*
G01*
G37*
G36*
G01*
X62750000Y-52240000D02*
X62750000Y-51560000D01*
G75*
G02*
X62835000Y-51475000I85000J0D01*
G01*
X63815000Y-51475000D01*
G75*
G02*
X63900000Y-51560000I0J-85000D01*
G01*
X63900000Y-52240000D01*
G75*
G02*
X63815000Y-52325000I-85000J0D01*
G01*
X62835000Y-52325000D01*
G75*
G02*
X62750000Y-52240000I0J85000D01*
G01*
G37*
G36*
G01*
X62750000Y-54440000D02*
X62750000Y-53760000D01*
G75*
G02*
X62835000Y-53675000I85000J0D01*
G01*
X63815000Y-53675000D01*
G75*
G02*
X63900000Y-53760000I0J-85000D01*
G01*
X63900000Y-54440000D01*
G75*
G02*
X63815000Y-54525000I-85000J0D01*
G01*
X62835000Y-54525000D01*
G75*
G02*
X62750000Y-54440000I0J85000D01*
G01*
G37*
G36*
G01*
X62750000Y-53340000D02*
X62750000Y-52660000D01*
G75*
G02*
X62835000Y-52575000I85000J0D01*
G01*
X63815000Y-52575000D01*
G75*
G02*
X63900000Y-52660000I0J-85000D01*
G01*
X63900000Y-53340000D01*
G75*
G02*
X63815000Y-53425000I-85000J0D01*
G01*
X62835000Y-53425000D01*
G75*
G02*
X62750000Y-53340000I0J85000D01*
G01*
G37*
%TD*%
%TO.C,D1.4*%
G36*
G01*
X56100000Y-82240000D02*
X56100000Y-81560000D01*
G75*
G02*
X56185000Y-81475000I85000J0D01*
G01*
X57165000Y-81475000D01*
G75*
G02*
X57250000Y-81560000I0J-85000D01*
G01*
X57250000Y-82240000D01*
G75*
G02*
X57165000Y-82325000I-85000J0D01*
G01*
X56185000Y-82325000D01*
G75*
G02*
X56100000Y-82240000I0J85000D01*
G01*
G37*
G36*
G01*
X56100000Y-83340000D02*
X56100000Y-82660000D01*
G75*
G02*
X56185000Y-82575000I85000J0D01*
G01*
X57165000Y-82575000D01*
G75*
G02*
X57250000Y-82660000I0J-85000D01*
G01*
X57250000Y-83340000D01*
G75*
G02*
X57165000Y-83425000I-85000J0D01*
G01*
X56185000Y-83425000D01*
G75*
G02*
X56100000Y-83340000I0J85000D01*
G01*
G37*
G36*
G01*
X56100000Y-84440000D02*
X56100000Y-83760000D01*
G75*
G02*
X56185000Y-83675000I85000J0D01*
G01*
X57165000Y-83675000D01*
G75*
G02*
X57250000Y-83760000I0J-85000D01*
G01*
X57250000Y-84440000D01*
G75*
G02*
X57165000Y-84525000I-85000J0D01*
G01*
X56185000Y-84525000D01*
G75*
G02*
X56100000Y-84440000I0J85000D01*
G01*
G37*
G36*
G01*
X52750000Y-82240000D02*
X52750000Y-81560000D01*
G75*
G02*
X52835000Y-81475000I85000J0D01*
G01*
X53815000Y-81475000D01*
G75*
G02*
X53900000Y-81560000I0J-85000D01*
G01*
X53900000Y-82240000D01*
G75*
G02*
X53815000Y-82325000I-85000J0D01*
G01*
X52835000Y-82325000D01*
G75*
G02*
X52750000Y-82240000I0J85000D01*
G01*
G37*
G36*
G01*
X52750000Y-84440000D02*
X52750000Y-83760000D01*
G75*
G02*
X52835000Y-83675000I85000J0D01*
G01*
X53815000Y-83675000D01*
G75*
G02*
X53900000Y-83760000I0J-85000D01*
G01*
X53900000Y-84440000D01*
G75*
G02*
X53815000Y-84525000I-85000J0D01*
G01*
X52835000Y-84525000D01*
G75*
G02*
X52750000Y-84440000I0J85000D01*
G01*
G37*
G36*
G01*
X52750000Y-83340000D02*
X52750000Y-82660000D01*
G75*
G02*
X52835000Y-82575000I85000J0D01*
G01*
X53815000Y-82575000D01*
G75*
G02*
X53900000Y-82660000I0J-85000D01*
G01*
X53900000Y-83340000D01*
G75*
G02*
X53815000Y-83425000I-85000J0D01*
G01*
X52835000Y-83425000D01*
G75*
G02*
X52750000Y-83340000I0J85000D01*
G01*
G37*
%TD*%
%TO.C,D1.3*%
G36*
G01*
X56100000Y-72240000D02*
X56100000Y-71560000D01*
G75*
G02*
X56185000Y-71475000I85000J0D01*
G01*
X57165000Y-71475000D01*
G75*
G02*
X57250000Y-71560000I0J-85000D01*
G01*
X57250000Y-72240000D01*
G75*
G02*
X57165000Y-72325000I-85000J0D01*
G01*
X56185000Y-72325000D01*
G75*
G02*
X56100000Y-72240000I0J85000D01*
G01*
G37*
G36*
G01*
X56100000Y-73340000D02*
X56100000Y-72660000D01*
G75*
G02*
X56185000Y-72575000I85000J0D01*
G01*
X57165000Y-72575000D01*
G75*
G02*
X57250000Y-72660000I0J-85000D01*
G01*
X57250000Y-73340000D01*
G75*
G02*
X57165000Y-73425000I-85000J0D01*
G01*
X56185000Y-73425000D01*
G75*
G02*
X56100000Y-73340000I0J85000D01*
G01*
G37*
G36*
G01*
X56100000Y-74440000D02*
X56100000Y-73760000D01*
G75*
G02*
X56185000Y-73675000I85000J0D01*
G01*
X57165000Y-73675000D01*
G75*
G02*
X57250000Y-73760000I0J-85000D01*
G01*
X57250000Y-74440000D01*
G75*
G02*
X57165000Y-74525000I-85000J0D01*
G01*
X56185000Y-74525000D01*
G75*
G02*
X56100000Y-74440000I0J85000D01*
G01*
G37*
G36*
G01*
X52750000Y-72240000D02*
X52750000Y-71560000D01*
G75*
G02*
X52835000Y-71475000I85000J0D01*
G01*
X53815000Y-71475000D01*
G75*
G02*
X53900000Y-71560000I0J-85000D01*
G01*
X53900000Y-72240000D01*
G75*
G02*
X53815000Y-72325000I-85000J0D01*
G01*
X52835000Y-72325000D01*
G75*
G02*
X52750000Y-72240000I0J85000D01*
G01*
G37*
G36*
G01*
X52750000Y-74440000D02*
X52750000Y-73760000D01*
G75*
G02*
X52835000Y-73675000I85000J0D01*
G01*
X53815000Y-73675000D01*
G75*
G02*
X53900000Y-73760000I0J-85000D01*
G01*
X53900000Y-74440000D01*
G75*
G02*
X53815000Y-74525000I-85000J0D01*
G01*
X52835000Y-74525000D01*
G75*
G02*
X52750000Y-74440000I0J85000D01*
G01*
G37*
G36*
G01*
X52750000Y-73340000D02*
X52750000Y-72660000D01*
G75*
G02*
X52835000Y-72575000I85000J0D01*
G01*
X53815000Y-72575000D01*
G75*
G02*
X53900000Y-72660000I0J-85000D01*
G01*
X53900000Y-73340000D01*
G75*
G02*
X53815000Y-73425000I-85000J0D01*
G01*
X52835000Y-73425000D01*
G75*
G02*
X52750000Y-73340000I0J85000D01*
G01*
G37*
%TD*%
%TO.C,D1.2*%
G36*
G01*
X56100000Y-62240000D02*
X56100000Y-61560000D01*
G75*
G02*
X56185000Y-61475000I85000J0D01*
G01*
X57165000Y-61475000D01*
G75*
G02*
X57250000Y-61560000I0J-85000D01*
G01*
X57250000Y-62240000D01*
G75*
G02*
X57165000Y-62325000I-85000J0D01*
G01*
X56185000Y-62325000D01*
G75*
G02*
X56100000Y-62240000I0J85000D01*
G01*
G37*
G36*
G01*
X56100000Y-63340000D02*
X56100000Y-62660000D01*
G75*
G02*
X56185000Y-62575000I85000J0D01*
G01*
X57165000Y-62575000D01*
G75*
G02*
X57250000Y-62660000I0J-85000D01*
G01*
X57250000Y-63340000D01*
G75*
G02*
X57165000Y-63425000I-85000J0D01*
G01*
X56185000Y-63425000D01*
G75*
G02*
X56100000Y-63340000I0J85000D01*
G01*
G37*
G36*
G01*
X56100000Y-64440000D02*
X56100000Y-63760000D01*
G75*
G02*
X56185000Y-63675000I85000J0D01*
G01*
X57165000Y-63675000D01*
G75*
G02*
X57250000Y-63760000I0J-85000D01*
G01*
X57250000Y-64440000D01*
G75*
G02*
X57165000Y-64525000I-85000J0D01*
G01*
X56185000Y-64525000D01*
G75*
G02*
X56100000Y-64440000I0J85000D01*
G01*
G37*
G36*
G01*
X52750000Y-62240000D02*
X52750000Y-61560000D01*
G75*
G02*
X52835000Y-61475000I85000J0D01*
G01*
X53815000Y-61475000D01*
G75*
G02*
X53900000Y-61560000I0J-85000D01*
G01*
X53900000Y-62240000D01*
G75*
G02*
X53815000Y-62325000I-85000J0D01*
G01*
X52835000Y-62325000D01*
G75*
G02*
X52750000Y-62240000I0J85000D01*
G01*
G37*
G36*
G01*
X52750000Y-64440000D02*
X52750000Y-63760000D01*
G75*
G02*
X52835000Y-63675000I85000J0D01*
G01*
X53815000Y-63675000D01*
G75*
G02*
X53900000Y-63760000I0J-85000D01*
G01*
X53900000Y-64440000D01*
G75*
G02*
X53815000Y-64525000I-85000J0D01*
G01*
X52835000Y-64525000D01*
G75*
G02*
X52750000Y-64440000I0J85000D01*
G01*
G37*
G36*
G01*
X52750000Y-63340000D02*
X52750000Y-62660000D01*
G75*
G02*
X52835000Y-62575000I85000J0D01*
G01*
X53815000Y-62575000D01*
G75*
G02*
X53900000Y-62660000I0J-85000D01*
G01*
X53900000Y-63340000D01*
G75*
G02*
X53815000Y-63425000I-85000J0D01*
G01*
X52835000Y-63425000D01*
G75*
G02*
X52750000Y-63340000I0J85000D01*
G01*
G37*
%TD*%
%TO.C,D1.1*%
G36*
G01*
X56100000Y-52240000D02*
X56100000Y-51560000D01*
G75*
G02*
X56185000Y-51475000I85000J0D01*
G01*
X57165000Y-51475000D01*
G75*
G02*
X57250000Y-51560000I0J-85000D01*
G01*
X57250000Y-52240000D01*
G75*
G02*
X57165000Y-52325000I-85000J0D01*
G01*
X56185000Y-52325000D01*
G75*
G02*
X56100000Y-52240000I0J85000D01*
G01*
G37*
G36*
G01*
X56100000Y-53340000D02*
X56100000Y-52660000D01*
G75*
G02*
X56185000Y-52575000I85000J0D01*
G01*
X57165000Y-52575000D01*
G75*
G02*
X57250000Y-52660000I0J-85000D01*
G01*
X57250000Y-53340000D01*
G75*
G02*
X57165000Y-53425000I-85000J0D01*
G01*
X56185000Y-53425000D01*
G75*
G02*
X56100000Y-53340000I0J85000D01*
G01*
G37*
G36*
G01*
X56100000Y-54440000D02*
X56100000Y-53760000D01*
G75*
G02*
X56185000Y-53675000I85000J0D01*
G01*
X57165000Y-53675000D01*
G75*
G02*
X57250000Y-53760000I0J-85000D01*
G01*
X57250000Y-54440000D01*
G75*
G02*
X57165000Y-54525000I-85000J0D01*
G01*
X56185000Y-54525000D01*
G75*
G02*
X56100000Y-54440000I0J85000D01*
G01*
G37*
G36*
G01*
X52750000Y-52240000D02*
X52750000Y-51560000D01*
G75*
G02*
X52835000Y-51475000I85000J0D01*
G01*
X53815000Y-51475000D01*
G75*
G02*
X53900000Y-51560000I0J-85000D01*
G01*
X53900000Y-52240000D01*
G75*
G02*
X53815000Y-52325000I-85000J0D01*
G01*
X52835000Y-52325000D01*
G75*
G02*
X52750000Y-52240000I0J85000D01*
G01*
G37*
G36*
G01*
X52750000Y-54440000D02*
X52750000Y-53760000D01*
G75*
G02*
X52835000Y-53675000I85000J0D01*
G01*
X53815000Y-53675000D01*
G75*
G02*
X53900000Y-53760000I0J-85000D01*
G01*
X53900000Y-54440000D01*
G75*
G02*
X53815000Y-54525000I-85000J0D01*
G01*
X52835000Y-54525000D01*
G75*
G02*
X52750000Y-54440000I0J85000D01*
G01*
G37*
G36*
G01*
X52750000Y-53340000D02*
X52750000Y-52660000D01*
G75*
G02*
X52835000Y-52575000I85000J0D01*
G01*
X53815000Y-52575000D01*
G75*
G02*
X53900000Y-52660000I0J-85000D01*
G01*
X53900000Y-53340000D01*
G75*
G02*
X53815000Y-53425000I-85000J0D01*
G01*
X52835000Y-53425000D01*
G75*
G02*
X52750000Y-53340000I0J85000D01*
G01*
G37*
%TD*%
%TO.C,C1*%
G36*
G01*
X67237500Y-58650000D02*
X66762500Y-58650000D01*
G75*
G02*
X66525000Y-58412500I0J237500D01*
G01*
X66525000Y-57837500D01*
G75*
G02*
X66762500Y-57600000I237500J0D01*
G01*
X67237500Y-57600000D01*
G75*
G02*
X67475000Y-57837500I0J-237500D01*
G01*
X67475000Y-58412500D01*
G75*
G02*
X67237500Y-58650000I-237500J0D01*
G01*
G37*
G36*
G01*
X67237500Y-60400000D02*
X66762500Y-60400000D01*
G75*
G02*
X66525000Y-60162500I0J237500D01*
G01*
X66525000Y-59587500D01*
G75*
G02*
X66762500Y-59350000I237500J0D01*
G01*
X67237500Y-59350000D01*
G75*
G02*
X67475000Y-59587500I0J-237500D01*
G01*
X67475000Y-60162500D01*
G75*
G02*
X67237500Y-60400000I-237500J0D01*
G01*
G37*
%TD*%
%TO.C,C2*%
G36*
G01*
X87237500Y-58650000D02*
X86762500Y-58650000D01*
G75*
G02*
X86525000Y-58412500I0J237500D01*
G01*
X86525000Y-57837500D01*
G75*
G02*
X86762500Y-57600000I237500J0D01*
G01*
X87237500Y-57600000D01*
G75*
G02*
X87475000Y-57837500I0J-237500D01*
G01*
X87475000Y-58412500D01*
G75*
G02*
X87237500Y-58650000I-237500J0D01*
G01*
G37*
G36*
G01*
X87237500Y-60400000D02*
X86762500Y-60400000D01*
G75*
G02*
X86525000Y-60162500I0J237500D01*
G01*
X86525000Y-59587500D01*
G75*
G02*
X86762500Y-59350000I237500J0D01*
G01*
X87237500Y-59350000D01*
G75*
G02*
X87475000Y-59587500I0J-237500D01*
G01*
X87475000Y-60162500D01*
G75*
G02*
X87237500Y-60400000I-237500J0D01*
G01*
G37*
%TD*%
%TO.C,C3*%
G36*
G01*
X67237500Y-78650000D02*
X66762500Y-78650000D01*
G75*
G02*
X66525000Y-78412500I0J237500D01*
G01*
X66525000Y-77837500D01*
G75*
G02*
X66762500Y-77600000I237500J0D01*
G01*
X67237500Y-77600000D01*
G75*
G02*
X67475000Y-77837500I0J-237500D01*
G01*
X67475000Y-78412500D01*
G75*
G02*
X67237500Y-78650000I-237500J0D01*
G01*
G37*
G36*
G01*
X67237500Y-80400000D02*
X66762500Y-80400000D01*
G75*
G02*
X66525000Y-80162500I0J237500D01*
G01*
X66525000Y-79587500D01*
G75*
G02*
X66762500Y-79350000I237500J0D01*
G01*
X67237500Y-79350000D01*
G75*
G02*
X67475000Y-79587500I0J-237500D01*
G01*
X67475000Y-80162500D01*
G75*
G02*
X67237500Y-80400000I-237500J0D01*
G01*
G37*
%TD*%
%TO.C,C4*%
G36*
G01*
X87237500Y-78650000D02*
X86762500Y-78650000D01*
G75*
G02*
X86525000Y-78412500I0J237500D01*
G01*
X86525000Y-77837500D01*
G75*
G02*
X86762500Y-77600000I237500J0D01*
G01*
X87237500Y-77600000D01*
G75*
G02*
X87475000Y-77837500I0J-237500D01*
G01*
X87475000Y-78412500D01*
G75*
G02*
X87237500Y-78650000I-237500J0D01*
G01*
G37*
G36*
G01*
X87237500Y-80400000D02*
X86762500Y-80400000D01*
G75*
G02*
X86525000Y-80162500I0J237500D01*
G01*
X86525000Y-79587500D01*
G75*
G02*
X86762500Y-79350000I237500J0D01*
G01*
X87237500Y-79350000D01*
G75*
G02*
X87475000Y-79587500I0J-237500D01*
G01*
X87475000Y-80162500D01*
G75*
G02*
X87237500Y-80400000I-237500J0D01*
G01*
G37*
%TD*%
%TO.C,C5*%
G36*
G01*
X69650000Y-67762500D02*
X69650000Y-68237500D01*
G75*
G02*
X69412500Y-68475000I-237500J0D01*
G01*
X68837500Y-68475000D01*
G75*
G02*
X68600000Y-68237500I0J237500D01*
G01*
X68600000Y-67762500D01*
G75*
G02*
X68837500Y-67525000I237500J0D01*
G01*
X69412500Y-67525000D01*
G75*
G02*
X69650000Y-67762500I0J-237500D01*
G01*
G37*
G36*
G01*
X71400000Y-67762500D02*
X71400000Y-68237500D01*
G75*
G02*
X71162500Y-68475000I-237500J0D01*
G01*
X70587500Y-68475000D01*
G75*
G02*
X70350000Y-68237500I0J237500D01*
G01*
X70350000Y-67762500D01*
G75*
G02*
X70587500Y-67525000I237500J0D01*
G01*
X71162500Y-67525000D01*
G75*
G02*
X71400000Y-67762500I0J-237500D01*
G01*
G37*
%TD*%
%TO.C,R2*%
G36*
G01*
X86350000Y-56237500D02*
X86350000Y-55762500D01*
G75*
G02*
X86587500Y-55525000I237500J0D01*
G01*
X87162500Y-55525000D01*
G75*
G02*
X87400000Y-55762500I0J-237500D01*
G01*
X87400000Y-56237500D01*
G75*
G02*
X87162500Y-56475000I-237500J0D01*
G01*
X86587500Y-56475000D01*
G75*
G02*
X86350000Y-56237500I0J237500D01*
G01*
G37*
G36*
G01*
X84600000Y-56237500D02*
X84600000Y-55762500D01*
G75*
G02*
X84837500Y-55525000I237500J0D01*
G01*
X85412500Y-55525000D01*
G75*
G02*
X85650000Y-55762500I0J-237500D01*
G01*
X85650000Y-56237500D01*
G75*
G02*
X85412500Y-56475000I-237500J0D01*
G01*
X84837500Y-56475000D01*
G75*
G02*
X84600000Y-56237500I0J237500D01*
G01*
G37*
%TD*%
%TO.C,R3*%
G36*
G01*
X66350000Y-76237500D02*
X66350000Y-75762500D01*
G75*
G02*
X66587500Y-75525000I237500J0D01*
G01*
X67162500Y-75525000D01*
G75*
G02*
X67400000Y-75762500I0J-237500D01*
G01*
X67400000Y-76237500D01*
G75*
G02*
X67162500Y-76475000I-237500J0D01*
G01*
X66587500Y-76475000D01*
G75*
G02*
X66350000Y-76237500I0J237500D01*
G01*
G37*
G36*
G01*
X64600000Y-76237500D02*
X64600000Y-75762500D01*
G75*
G02*
X64837500Y-75525000I237500J0D01*
G01*
X65412500Y-75525000D01*
G75*
G02*
X65650000Y-75762500I0J-237500D01*
G01*
X65650000Y-76237500D01*
G75*
G02*
X65412500Y-76475000I-237500J0D01*
G01*
X64837500Y-76475000D01*
G75*
G02*
X64600000Y-76237500I0J237500D01*
G01*
G37*
%TD*%
%TO.C,R4*%
G36*
G01*
X86350000Y-76237500D02*
X86350000Y-75762500D01*
G75*
G02*
X86587500Y-75525000I237500J0D01*
G01*
X87162500Y-75525000D01*
G75*
G02*
X87400000Y-75762500I0J-237500D01*
G01*
X87400000Y-76237500D01*
G75*
G02*
X87162500Y-76475000I-237500J0D01*
G01*
X86587500Y-76475000D01*
G75*
G02*
X86350000Y-76237500I0J237500D01*
G01*
G37*
G36*
G01*
X84600000Y-76237500D02*
X84600000Y-75762500D01*
G75*
G02*
X84837500Y-75525000I237500J0D01*
G01*
X85412500Y-75525000D01*
G75*
G02*
X85650000Y-75762500I0J-237500D01*
G01*
X85650000Y-76237500D01*
G75*
G02*
X85412500Y-76475000I-237500J0D01*
G01*
X84837500Y-76475000D01*
G75*
G02*
X84600000Y-76237500I0J237500D01*
G01*
G37*
%TD*%
%TO.C,R1*%
G36*
G01*
X66350000Y-56237500D02*
X66350000Y-55762500D01*
G75*
G02*
X66587500Y-55525000I237500J0D01*
G01*
X67162500Y-55525000D01*
G75*
G02*
X67400000Y-55762500I0J-237500D01*
G01*
X67400000Y-56237500D01*
G75*
G02*
X67162500Y-56475000I-237500J0D01*
G01*
X66587500Y-56475000D01*
G75*
G02*
X66350000Y-56237500I0J237500D01*
G01*
G37*
G36*
G01*
X64600000Y-56237500D02*
X64600000Y-55762500D01*
G75*
G02*
X64837500Y-55525000I237500J0D01*
G01*
X65412500Y-55525000D01*
G75*
G02*
X65650000Y-55762500I0J-237500D01*
G01*
X65650000Y-56237500D01*
G75*
G02*
X65412500Y-56475000I-237500J0D01*
G01*
X64837500Y-56475000D01*
G75*
G02*
X64600000Y-56237500I0J237500D01*
G01*
G37*
%TD*%
%TO.C,U1*%
G36*
G01*
X58009495Y-58045962D02*
X60045962Y-56009495D01*
G75*
G02*
X60434870Y-56009495I194454J-194454D01*
G01*
X61990505Y-57565130D01*
G75*
G02*
X61990505Y-57954038I-194454J-194454D01*
G01*
X59954038Y-59990505D01*
G75*
G02*
X59565130Y-59990505I-194454J194454D01*
G01*
X58009495Y-58434870D01*
G75*
G02*
X58009495Y-58045962I194454J194454D01*
G01*
G37*
G36*
G01*
X59437850Y-53470982D02*
X59607556Y-53301276D01*
G75*
G02*
X59649982Y-53301276I21213J-21213D01*
G01*
X60738926Y-54390220D01*
G75*
G02*
X60738926Y-54432646I-21213J-21213D01*
G01*
X60569220Y-54602352D01*
G75*
G02*
X60526794Y-54602352I-21213J21213D01*
G01*
X59437850Y-53513408D01*
G75*
G02*
X59437850Y-53470982I21213J21213D01*
G01*
G37*
G36*
G01*
X58978231Y-53930601D02*
X59147937Y-53760895D01*
G75*
G02*
X59190363Y-53760895I21213J-21213D01*
G01*
X60279307Y-54849839D01*
G75*
G02*
X60279307Y-54892265I-21213J-21213D01*
G01*
X60109601Y-55061971D01*
G75*
G02*
X60067175Y-55061971I-21213J21213D01*
G01*
X58978231Y-53973027D01*
G75*
G02*
X58978231Y-53930601I21213J21213D01*
G01*
G37*
G36*
G01*
X58518612Y-54390220D02*
X58688318Y-54220514D01*
G75*
G02*
X58730744Y-54220514I21213J-21213D01*
G01*
X59819688Y-55309458D01*
G75*
G02*
X59819688Y-55351884I-21213J-21213D01*
G01*
X59649982Y-55521590D01*
G75*
G02*
X59607556Y-55521590I-21213J21213D01*
G01*
X58518612Y-54432646D01*
G75*
G02*
X58518612Y-54390220I21213J21213D01*
G01*
G37*
G36*
G01*
X58058992Y-54849840D02*
X58228698Y-54680134D01*
G75*
G02*
X58271124Y-54680134I21213J-21213D01*
G01*
X59360068Y-55769078D01*
G75*
G02*
X59360068Y-55811504I-21213J-21213D01*
G01*
X59190362Y-55981210D01*
G75*
G02*
X59147936Y-55981210I-21213J21213D01*
G01*
X58058992Y-54892266D01*
G75*
G02*
X58058992Y-54849840I21213J21213D01*
G01*
G37*
G36*
G01*
X57599373Y-55309459D02*
X57769079Y-55139753D01*
G75*
G02*
X57811505Y-55139753I21213J-21213D01*
G01*
X58900449Y-56228697D01*
G75*
G02*
X58900449Y-56271123I-21213J-21213D01*
G01*
X58730743Y-56440829D01*
G75*
G02*
X58688317Y-56440829I-21213J21213D01*
G01*
X57599373Y-55351885D01*
G75*
G02*
X57599373Y-55309459I21213J21213D01*
G01*
G37*
G36*
G01*
X57139753Y-55769079D02*
X57309459Y-55599373D01*
G75*
G02*
X57351885Y-55599373I21213J-21213D01*
G01*
X58440829Y-56688317D01*
G75*
G02*
X58440829Y-56730743I-21213J-21213D01*
G01*
X58271123Y-56900449D01*
G75*
G02*
X58228697Y-56900449I-21213J21213D01*
G01*
X57139753Y-55811505D01*
G75*
G02*
X57139753Y-55769079I21213J21213D01*
G01*
G37*
G36*
G01*
X56680134Y-56228698D02*
X56849840Y-56058992D01*
G75*
G02*
X56892266Y-56058992I21213J-21213D01*
G01*
X57981210Y-57147936D01*
G75*
G02*
X57981210Y-57190362I-21213J-21213D01*
G01*
X57811504Y-57360068D01*
G75*
G02*
X57769078Y-57360068I-21213J21213D01*
G01*
X56680134Y-56271124D01*
G75*
G02*
X56680134Y-56228698I21213J21213D01*
G01*
G37*
G36*
G01*
X56220514Y-56688318D02*
X56390220Y-56518612D01*
G75*
G02*
X56432646Y-56518612I21213J-21213D01*
G01*
X57521590Y-57607556D01*
G75*
G02*
X57521590Y-57649982I-21213J-21213D01*
G01*
X57351884Y-57819688D01*
G75*
G02*
X57309458Y-57819688I-21213J21213D01*
G01*
X56220514Y-56730744D01*
G75*
G02*
X56220514Y-56688318I21213J21213D01*
G01*
G37*
G36*
G01*
X55760895Y-57147937D02*
X55930601Y-56978231D01*
G75*
G02*
X55973027Y-56978231I21213J-21213D01*
G01*
X57061971Y-58067175D01*
G75*
G02*
X57061971Y-58109601I-21213J-21213D01*
G01*
X56892265Y-58279307D01*
G75*
G02*
X56849839Y-58279307I-21213J21213D01*
G01*
X55760895Y-57190363D01*
G75*
G02*
X55760895Y-57147937I21213J21213D01*
G01*
G37*
G36*
G01*
X55301276Y-57607556D02*
X55470982Y-57437850D01*
G75*
G02*
X55513408Y-57437850I21213J-21213D01*
G01*
X56602352Y-58526794D01*
G75*
G02*
X56602352Y-58569220I-21213J-21213D01*
G01*
X56432646Y-58738926D01*
G75*
G02*
X56390220Y-58738926I-21213J21213D01*
G01*
X55301276Y-57649982D01*
G75*
G02*
X55301276Y-57607556I21213J21213D01*
G01*
G37*
G36*
G01*
X59261074Y-61567354D02*
X59430780Y-61397648D01*
G75*
G02*
X59473206Y-61397648I21213J-21213D01*
G01*
X60562150Y-62486592D01*
G75*
G02*
X60562150Y-62529018I-21213J-21213D01*
G01*
X60392444Y-62698724D01*
G75*
G02*
X60350018Y-62698724I-21213J21213D01*
G01*
X59261074Y-61609780D01*
G75*
G02*
X59261074Y-61567354I21213J21213D01*
G01*
G37*
G36*
G01*
X59720693Y-61107735D02*
X59890399Y-60938029D01*
G75*
G02*
X59932825Y-60938029I21213J-21213D01*
G01*
X61021769Y-62026973D01*
G75*
G02*
X61021769Y-62069399I-21213J-21213D01*
G01*
X60852063Y-62239105D01*
G75*
G02*
X60809637Y-62239105I-21213J21213D01*
G01*
X59720693Y-61150161D01*
G75*
G02*
X59720693Y-61107735I21213J21213D01*
G01*
G37*
G36*
G01*
X60180312Y-60648116D02*
X60350018Y-60478410D01*
G75*
G02*
X60392444Y-60478410I21213J-21213D01*
G01*
X61481388Y-61567354D01*
G75*
G02*
X61481388Y-61609780I-21213J-21213D01*
G01*
X61311682Y-61779486D01*
G75*
G02*
X61269256Y-61779486I-21213J21213D01*
G01*
X60180312Y-60690542D01*
G75*
G02*
X60180312Y-60648116I21213J21213D01*
G01*
G37*
G36*
G01*
X60639932Y-60188496D02*
X60809638Y-60018790D01*
G75*
G02*
X60852064Y-60018790I21213J-21213D01*
G01*
X61941008Y-61107734D01*
G75*
G02*
X61941008Y-61150160I-21213J-21213D01*
G01*
X61771302Y-61319866D01*
G75*
G02*
X61728876Y-61319866I-21213J21213D01*
G01*
X60639932Y-60230922D01*
G75*
G02*
X60639932Y-60188496I21213J21213D01*
G01*
G37*
G36*
G01*
X61099551Y-59728877D02*
X61269257Y-59559171D01*
G75*
G02*
X61311683Y-59559171I21213J-21213D01*
G01*
X62400627Y-60648115D01*
G75*
G02*
X62400627Y-60690541I-21213J-21213D01*
G01*
X62230921Y-60860247D01*
G75*
G02*
X62188495Y-60860247I-21213J21213D01*
G01*
X61099551Y-59771303D01*
G75*
G02*
X61099551Y-59728877I21213J21213D01*
G01*
G37*
G36*
G01*
X61559171Y-59269257D02*
X61728877Y-59099551D01*
G75*
G02*
X61771303Y-59099551I21213J-21213D01*
G01*
X62860247Y-60188495D01*
G75*
G02*
X62860247Y-60230921I-21213J-21213D01*
G01*
X62690541Y-60400627D01*
G75*
G02*
X62648115Y-60400627I-21213J21213D01*
G01*
X61559171Y-59311683D01*
G75*
G02*
X61559171Y-59269257I21213J21213D01*
G01*
G37*
G36*
G01*
X62018790Y-58809638D02*
X62188496Y-58639932D01*
G75*
G02*
X62230922Y-58639932I21213J-21213D01*
G01*
X63319866Y-59728876D01*
G75*
G02*
X63319866Y-59771302I-21213J-21213D01*
G01*
X63150160Y-59941008D01*
G75*
G02*
X63107734Y-59941008I-21213J21213D01*
G01*
X62018790Y-58852064D01*
G75*
G02*
X62018790Y-58809638I21213J21213D01*
G01*
G37*
G36*
G01*
X62478410Y-58350018D02*
X62648116Y-58180312D01*
G75*
G02*
X62690542Y-58180312I21213J-21213D01*
G01*
X63779486Y-59269256D01*
G75*
G02*
X63779486Y-59311682I-21213J-21213D01*
G01*
X63609780Y-59481388D01*
G75*
G02*
X63567354Y-59481388I-21213J21213D01*
G01*
X62478410Y-58392444D01*
G75*
G02*
X62478410Y-58350018I21213J21213D01*
G01*
G37*
G36*
G01*
X62938029Y-57890399D02*
X63107735Y-57720693D01*
G75*
G02*
X63150161Y-57720693I21213J-21213D01*
G01*
X64239105Y-58809637D01*
G75*
G02*
X64239105Y-58852063I-21213J-21213D01*
G01*
X64069399Y-59021769D01*
G75*
G02*
X64026973Y-59021769I-21213J21213D01*
G01*
X62938029Y-57932825D01*
G75*
G02*
X62938029Y-57890399I21213J21213D01*
G01*
G37*
G36*
G01*
X63397648Y-57430780D02*
X63567354Y-57261074D01*
G75*
G02*
X63609780Y-57261074I21213J-21213D01*
G01*
X64698724Y-58350018D01*
G75*
G02*
X64698724Y-58392444I-21213J-21213D01*
G01*
X64529018Y-58562150D01*
G75*
G02*
X64486592Y-58562150I-21213J21213D01*
G01*
X63397648Y-57473206D01*
G75*
G02*
X63397648Y-57430780I21213J21213D01*
G01*
G37*
%TD*%
%TO.C,U2*%
G36*
G01*
X78009495Y-58045962D02*
X80045962Y-56009495D01*
G75*
G02*
X80434870Y-56009495I194454J-194454D01*
G01*
X81990505Y-57565130D01*
G75*
G02*
X81990505Y-57954038I-194454J-194454D01*
G01*
X79954038Y-59990505D01*
G75*
G02*
X79565130Y-59990505I-194454J194454D01*
G01*
X78009495Y-58434870D01*
G75*
G02*
X78009495Y-58045962I194454J194454D01*
G01*
G37*
G36*
G01*
X79437850Y-53470982D02*
X79607556Y-53301276D01*
G75*
G02*
X79649982Y-53301276I21213J-21213D01*
G01*
X80738926Y-54390220D01*
G75*
G02*
X80738926Y-54432646I-21213J-21213D01*
G01*
X80569220Y-54602352D01*
G75*
G02*
X80526794Y-54602352I-21213J21213D01*
G01*
X79437850Y-53513408D01*
G75*
G02*
X79437850Y-53470982I21213J21213D01*
G01*
G37*
G36*
G01*
X78978231Y-53930601D02*
X79147937Y-53760895D01*
G75*
G02*
X79190363Y-53760895I21213J-21213D01*
G01*
X80279307Y-54849839D01*
G75*
G02*
X80279307Y-54892265I-21213J-21213D01*
G01*
X80109601Y-55061971D01*
G75*
G02*
X80067175Y-55061971I-21213J21213D01*
G01*
X78978231Y-53973027D01*
G75*
G02*
X78978231Y-53930601I21213J21213D01*
G01*
G37*
G36*
G01*
X78518612Y-54390220D02*
X78688318Y-54220514D01*
G75*
G02*
X78730744Y-54220514I21213J-21213D01*
G01*
X79819688Y-55309458D01*
G75*
G02*
X79819688Y-55351884I-21213J-21213D01*
G01*
X79649982Y-55521590D01*
G75*
G02*
X79607556Y-55521590I-21213J21213D01*
G01*
X78518612Y-54432646D01*
G75*
G02*
X78518612Y-54390220I21213J21213D01*
G01*
G37*
G36*
G01*
X78058992Y-54849840D02*
X78228698Y-54680134D01*
G75*
G02*
X78271124Y-54680134I21213J-21213D01*
G01*
X79360068Y-55769078D01*
G75*
G02*
X79360068Y-55811504I-21213J-21213D01*
G01*
X79190362Y-55981210D01*
G75*
G02*
X79147936Y-55981210I-21213J21213D01*
G01*
X78058992Y-54892266D01*
G75*
G02*
X78058992Y-54849840I21213J21213D01*
G01*
G37*
G36*
G01*
X77599373Y-55309459D02*
X77769079Y-55139753D01*
G75*
G02*
X77811505Y-55139753I21213J-21213D01*
G01*
X78900449Y-56228697D01*
G75*
G02*
X78900449Y-56271123I-21213J-21213D01*
G01*
X78730743Y-56440829D01*
G75*
G02*
X78688317Y-56440829I-21213J21213D01*
G01*
X77599373Y-55351885D01*
G75*
G02*
X77599373Y-55309459I21213J21213D01*
G01*
G37*
G36*
G01*
X77139753Y-55769079D02*
X77309459Y-55599373D01*
G75*
G02*
X77351885Y-55599373I21213J-21213D01*
G01*
X78440829Y-56688317D01*
G75*
G02*
X78440829Y-56730743I-21213J-21213D01*
G01*
X78271123Y-56900449D01*
G75*
G02*
X78228697Y-56900449I-21213J21213D01*
G01*
X77139753Y-55811505D01*
G75*
G02*
X77139753Y-55769079I21213J21213D01*
G01*
G37*
G36*
G01*
X76680134Y-56228698D02*
X76849840Y-56058992D01*
G75*
G02*
X76892266Y-56058992I21213J-21213D01*
G01*
X77981210Y-57147936D01*
G75*
G02*
X77981210Y-57190362I-21213J-21213D01*
G01*
X77811504Y-57360068D01*
G75*
G02*
X77769078Y-57360068I-21213J21213D01*
G01*
X76680134Y-56271124D01*
G75*
G02*
X76680134Y-56228698I21213J21213D01*
G01*
G37*
G36*
G01*
X76220514Y-56688318D02*
X76390220Y-56518612D01*
G75*
G02*
X76432646Y-56518612I21213J-21213D01*
G01*
X77521590Y-57607556D01*
G75*
G02*
X77521590Y-57649982I-21213J-21213D01*
G01*
X77351884Y-57819688D01*
G75*
G02*
X77309458Y-57819688I-21213J21213D01*
G01*
X76220514Y-56730744D01*
G75*
G02*
X76220514Y-56688318I21213J21213D01*
G01*
G37*
G36*
G01*
X75760895Y-57147937D02*
X75930601Y-56978231D01*
G75*
G02*
X75973027Y-56978231I21213J-21213D01*
G01*
X77061971Y-58067175D01*
G75*
G02*
X77061971Y-58109601I-21213J-21213D01*
G01*
X76892265Y-58279307D01*
G75*
G02*
X76849839Y-58279307I-21213J21213D01*
G01*
X75760895Y-57190363D01*
G75*
G02*
X75760895Y-57147937I21213J21213D01*
G01*
G37*
G36*
G01*
X75301276Y-57607556D02*
X75470982Y-57437850D01*
G75*
G02*
X75513408Y-57437850I21213J-21213D01*
G01*
X76602352Y-58526794D01*
G75*
G02*
X76602352Y-58569220I-21213J-21213D01*
G01*
X76432646Y-58738926D01*
G75*
G02*
X76390220Y-58738926I-21213J21213D01*
G01*
X75301276Y-57649982D01*
G75*
G02*
X75301276Y-57607556I21213J21213D01*
G01*
G37*
G36*
G01*
X79261074Y-61567354D02*
X79430780Y-61397648D01*
G75*
G02*
X79473206Y-61397648I21213J-21213D01*
G01*
X80562150Y-62486592D01*
G75*
G02*
X80562150Y-62529018I-21213J-21213D01*
G01*
X80392444Y-62698724D01*
G75*
G02*
X80350018Y-62698724I-21213J21213D01*
G01*
X79261074Y-61609780D01*
G75*
G02*
X79261074Y-61567354I21213J21213D01*
G01*
G37*
G36*
G01*
X79720693Y-61107735D02*
X79890399Y-60938029D01*
G75*
G02*
X79932825Y-60938029I21213J-21213D01*
G01*
X81021769Y-62026973D01*
G75*
G02*
X81021769Y-62069399I-21213J-21213D01*
G01*
X80852063Y-62239105D01*
G75*
G02*
X80809637Y-62239105I-21213J21213D01*
G01*
X79720693Y-61150161D01*
G75*
G02*
X79720693Y-61107735I21213J21213D01*
G01*
G37*
G36*
G01*
X80180312Y-60648116D02*
X80350018Y-60478410D01*
G75*
G02*
X80392444Y-60478410I21213J-21213D01*
G01*
X81481388Y-61567354D01*
G75*
G02*
X81481388Y-61609780I-21213J-21213D01*
G01*
X81311682Y-61779486D01*
G75*
G02*
X81269256Y-61779486I-21213J21213D01*
G01*
X80180312Y-60690542D01*
G75*
G02*
X80180312Y-60648116I21213J21213D01*
G01*
G37*
G36*
G01*
X80639932Y-60188496D02*
X80809638Y-60018790D01*
G75*
G02*
X80852064Y-60018790I21213J-21213D01*
G01*
X81941008Y-61107734D01*
G75*
G02*
X81941008Y-61150160I-21213J-21213D01*
G01*
X81771302Y-61319866D01*
G75*
G02*
X81728876Y-61319866I-21213J21213D01*
G01*
X80639932Y-60230922D01*
G75*
G02*
X80639932Y-60188496I21213J21213D01*
G01*
G37*
G36*
G01*
X81099551Y-59728877D02*
X81269257Y-59559171D01*
G75*
G02*
X81311683Y-59559171I21213J-21213D01*
G01*
X82400627Y-60648115D01*
G75*
G02*
X82400627Y-60690541I-21213J-21213D01*
G01*
X82230921Y-60860247D01*
G75*
G02*
X82188495Y-60860247I-21213J21213D01*
G01*
X81099551Y-59771303D01*
G75*
G02*
X81099551Y-59728877I21213J21213D01*
G01*
G37*
G36*
G01*
X81559171Y-59269257D02*
X81728877Y-59099551D01*
G75*
G02*
X81771303Y-59099551I21213J-21213D01*
G01*
X82860247Y-60188495D01*
G75*
G02*
X82860247Y-60230921I-21213J-21213D01*
G01*
X82690541Y-60400627D01*
G75*
G02*
X82648115Y-60400627I-21213J21213D01*
G01*
X81559171Y-59311683D01*
G75*
G02*
X81559171Y-59269257I21213J21213D01*
G01*
G37*
G36*
G01*
X82018790Y-58809638D02*
X82188496Y-58639932D01*
G75*
G02*
X82230922Y-58639932I21213J-21213D01*
G01*
X83319866Y-59728876D01*
G75*
G02*
X83319866Y-59771302I-21213J-21213D01*
G01*
X83150160Y-59941008D01*
G75*
G02*
X83107734Y-59941008I-21213J21213D01*
G01*
X82018790Y-58852064D01*
G75*
G02*
X82018790Y-58809638I21213J21213D01*
G01*
G37*
G36*
G01*
X82478410Y-58350018D02*
X82648116Y-58180312D01*
G75*
G02*
X82690542Y-58180312I21213J-21213D01*
G01*
X83779486Y-59269256D01*
G75*
G02*
X83779486Y-59311682I-21213J-21213D01*
G01*
X83609780Y-59481388D01*
G75*
G02*
X83567354Y-59481388I-21213J21213D01*
G01*
X82478410Y-58392444D01*
G75*
G02*
X82478410Y-58350018I21213J21213D01*
G01*
G37*
G36*
G01*
X82938029Y-57890399D02*
X83107735Y-57720693D01*
G75*
G02*
X83150161Y-57720693I21213J-21213D01*
G01*
X84239105Y-58809637D01*
G75*
G02*
X84239105Y-58852063I-21213J-21213D01*
G01*
X84069399Y-59021769D01*
G75*
G02*
X84026973Y-59021769I-21213J21213D01*
G01*
X82938029Y-57932825D01*
G75*
G02*
X82938029Y-57890399I21213J21213D01*
G01*
G37*
G36*
G01*
X83397648Y-57430780D02*
X83567354Y-57261074D01*
G75*
G02*
X83609780Y-57261074I21213J-21213D01*
G01*
X84698724Y-58350018D01*
G75*
G02*
X84698724Y-58392444I-21213J-21213D01*
G01*
X84529018Y-58562150D01*
G75*
G02*
X84486592Y-58562150I-21213J21213D01*
G01*
X83397648Y-57473206D01*
G75*
G02*
X83397648Y-57430780I21213J21213D01*
G01*
G37*
%TD*%
%TO.C,U3*%
G36*
G01*
X58009495Y-78045962D02*
X60045962Y-76009495D01*
G75*
G02*
X60434870Y-76009495I194454J-194454D01*
G01*
X61990505Y-77565130D01*
G75*
G02*
X61990505Y-77954038I-194454J-194454D01*
G01*
X59954038Y-79990505D01*
G75*
G02*
X59565130Y-79990505I-194454J194454D01*
G01*
X58009495Y-78434870D01*
G75*
G02*
X58009495Y-78045962I194454J194454D01*
G01*
G37*
G36*
G01*
X59437850Y-73470982D02*
X59607556Y-73301276D01*
G75*
G02*
X59649982Y-73301276I21213J-21213D01*
G01*
X60738926Y-74390220D01*
G75*
G02*
X60738926Y-74432646I-21213J-21213D01*
G01*
X60569220Y-74602352D01*
G75*
G02*
X60526794Y-74602352I-21213J21213D01*
G01*
X59437850Y-73513408D01*
G75*
G02*
X59437850Y-73470982I21213J21213D01*
G01*
G37*
G36*
G01*
X58978231Y-73930601D02*
X59147937Y-73760895D01*
G75*
G02*
X59190363Y-73760895I21213J-21213D01*
G01*
X60279307Y-74849839D01*
G75*
G02*
X60279307Y-74892265I-21213J-21213D01*
G01*
X60109601Y-75061971D01*
G75*
G02*
X60067175Y-75061971I-21213J21213D01*
G01*
X58978231Y-73973027D01*
G75*
G02*
X58978231Y-73930601I21213J21213D01*
G01*
G37*
G36*
G01*
X58518612Y-74390220D02*
X58688318Y-74220514D01*
G75*
G02*
X58730744Y-74220514I21213J-21213D01*
G01*
X59819688Y-75309458D01*
G75*
G02*
X59819688Y-75351884I-21213J-21213D01*
G01*
X59649982Y-75521590D01*
G75*
G02*
X59607556Y-75521590I-21213J21213D01*
G01*
X58518612Y-74432646D01*
G75*
G02*
X58518612Y-74390220I21213J21213D01*
G01*
G37*
G36*
G01*
X58058992Y-74849840D02*
X58228698Y-74680134D01*
G75*
G02*
X58271124Y-74680134I21213J-21213D01*
G01*
X59360068Y-75769078D01*
G75*
G02*
X59360068Y-75811504I-21213J-21213D01*
G01*
X59190362Y-75981210D01*
G75*
G02*
X59147936Y-75981210I-21213J21213D01*
G01*
X58058992Y-74892266D01*
G75*
G02*
X58058992Y-74849840I21213J21213D01*
G01*
G37*
G36*
G01*
X57599373Y-75309459D02*
X57769079Y-75139753D01*
G75*
G02*
X57811505Y-75139753I21213J-21213D01*
G01*
X58900449Y-76228697D01*
G75*
G02*
X58900449Y-76271123I-21213J-21213D01*
G01*
X58730743Y-76440829D01*
G75*
G02*
X58688317Y-76440829I-21213J21213D01*
G01*
X57599373Y-75351885D01*
G75*
G02*
X57599373Y-75309459I21213J21213D01*
G01*
G37*
G36*
G01*
X57139753Y-75769079D02*
X57309459Y-75599373D01*
G75*
G02*
X57351885Y-75599373I21213J-21213D01*
G01*
X58440829Y-76688317D01*
G75*
G02*
X58440829Y-76730743I-21213J-21213D01*
G01*
X58271123Y-76900449D01*
G75*
G02*
X58228697Y-76900449I-21213J21213D01*
G01*
X57139753Y-75811505D01*
G75*
G02*
X57139753Y-75769079I21213J21213D01*
G01*
G37*
G36*
G01*
X56680134Y-76228698D02*
X56849840Y-76058992D01*
G75*
G02*
X56892266Y-76058992I21213J-21213D01*
G01*
X57981210Y-77147936D01*
G75*
G02*
X57981210Y-77190362I-21213J-21213D01*
G01*
X57811504Y-77360068D01*
G75*
G02*
X57769078Y-77360068I-21213J21213D01*
G01*
X56680134Y-76271124D01*
G75*
G02*
X56680134Y-76228698I21213J21213D01*
G01*
G37*
G36*
G01*
X56220514Y-76688318D02*
X56390220Y-76518612D01*
G75*
G02*
X56432646Y-76518612I21213J-21213D01*
G01*
X57521590Y-77607556D01*
G75*
G02*
X57521590Y-77649982I-21213J-21213D01*
G01*
X57351884Y-77819688D01*
G75*
G02*
X57309458Y-77819688I-21213J21213D01*
G01*
X56220514Y-76730744D01*
G75*
G02*
X56220514Y-76688318I21213J21213D01*
G01*
G37*
G36*
G01*
X55760895Y-77147937D02*
X55930601Y-76978231D01*
G75*
G02*
X55973027Y-76978231I21213J-21213D01*
G01*
X57061971Y-78067175D01*
G75*
G02*
X57061971Y-78109601I-21213J-21213D01*
G01*
X56892265Y-78279307D01*
G75*
G02*
X56849839Y-78279307I-21213J21213D01*
G01*
X55760895Y-77190363D01*
G75*
G02*
X55760895Y-77147937I21213J21213D01*
G01*
G37*
G36*
G01*
X55301276Y-77607556D02*
X55470982Y-77437850D01*
G75*
G02*
X55513408Y-77437850I21213J-21213D01*
G01*
X56602352Y-78526794D01*
G75*
G02*
X56602352Y-78569220I-21213J-21213D01*
G01*
X56432646Y-78738926D01*
G75*
G02*
X56390220Y-78738926I-21213J21213D01*
G01*
X55301276Y-77649982D01*
G75*
G02*
X55301276Y-77607556I21213J21213D01*
G01*
G37*
G36*
G01*
X59261074Y-81567354D02*
X59430780Y-81397648D01*
G75*
G02*
X59473206Y-81397648I21213J-21213D01*
G01*
X60562150Y-82486592D01*
G75*
G02*
X60562150Y-82529018I-21213J-21213D01*
G01*
X60392444Y-82698724D01*
G75*
G02*
X60350018Y-82698724I-21213J21213D01*
G01*
X59261074Y-81609780D01*
G75*
G02*
X59261074Y-81567354I21213J21213D01*
G01*
G37*
G36*
G01*
X59720693Y-81107735D02*
X59890399Y-80938029D01*
G75*
G02*
X59932825Y-80938029I21213J-21213D01*
G01*
X61021769Y-82026973D01*
G75*
G02*
X61021769Y-82069399I-21213J-21213D01*
G01*
X60852063Y-82239105D01*
G75*
G02*
X60809637Y-82239105I-21213J21213D01*
G01*
X59720693Y-81150161D01*
G75*
G02*
X59720693Y-81107735I21213J21213D01*
G01*
G37*
G36*
G01*
X60180312Y-80648116D02*
X60350018Y-80478410D01*
G75*
G02*
X60392444Y-80478410I21213J-21213D01*
G01*
X61481388Y-81567354D01*
G75*
G02*
X61481388Y-81609780I-21213J-21213D01*
G01*
X61311682Y-81779486D01*
G75*
G02*
X61269256Y-81779486I-21213J21213D01*
G01*
X60180312Y-80690542D01*
G75*
G02*
X60180312Y-80648116I21213J21213D01*
G01*
G37*
G36*
G01*
X60639932Y-80188496D02*
X60809638Y-80018790D01*
G75*
G02*
X60852064Y-80018790I21213J-21213D01*
G01*
X61941008Y-81107734D01*
G75*
G02*
X61941008Y-81150160I-21213J-21213D01*
G01*
X61771302Y-81319866D01*
G75*
G02*
X61728876Y-81319866I-21213J21213D01*
G01*
X60639932Y-80230922D01*
G75*
G02*
X60639932Y-80188496I21213J21213D01*
G01*
G37*
G36*
G01*
X61099551Y-79728877D02*
X61269257Y-79559171D01*
G75*
G02*
X61311683Y-79559171I21213J-21213D01*
G01*
X62400627Y-80648115D01*
G75*
G02*
X62400627Y-80690541I-21213J-21213D01*
G01*
X62230921Y-80860247D01*
G75*
G02*
X62188495Y-80860247I-21213J21213D01*
G01*
X61099551Y-79771303D01*
G75*
G02*
X61099551Y-79728877I21213J21213D01*
G01*
G37*
G36*
G01*
X61559171Y-79269257D02*
X61728877Y-79099551D01*
G75*
G02*
X61771303Y-79099551I21213J-21213D01*
G01*
X62860247Y-80188495D01*
G75*
G02*
X62860247Y-80230921I-21213J-21213D01*
G01*
X62690541Y-80400627D01*
G75*
G02*
X62648115Y-80400627I-21213J21213D01*
G01*
X61559171Y-79311683D01*
G75*
G02*
X61559171Y-79269257I21213J21213D01*
G01*
G37*
G36*
G01*
X62018790Y-78809638D02*
X62188496Y-78639932D01*
G75*
G02*
X62230922Y-78639932I21213J-21213D01*
G01*
X63319866Y-79728876D01*
G75*
G02*
X63319866Y-79771302I-21213J-21213D01*
G01*
X63150160Y-79941008D01*
G75*
G02*
X63107734Y-79941008I-21213J21213D01*
G01*
X62018790Y-78852064D01*
G75*
G02*
X62018790Y-78809638I21213J21213D01*
G01*
G37*
G36*
G01*
X62478410Y-78350018D02*
X62648116Y-78180312D01*
G75*
G02*
X62690542Y-78180312I21213J-21213D01*
G01*
X63779486Y-79269256D01*
G75*
G02*
X63779486Y-79311682I-21213J-21213D01*
G01*
X63609780Y-79481388D01*
G75*
G02*
X63567354Y-79481388I-21213J21213D01*
G01*
X62478410Y-78392444D01*
G75*
G02*
X62478410Y-78350018I21213J21213D01*
G01*
G37*
G36*
G01*
X62938029Y-77890399D02*
X63107735Y-77720693D01*
G75*
G02*
X63150161Y-77720693I21213J-21213D01*
G01*
X64239105Y-78809637D01*
G75*
G02*
X64239105Y-78852063I-21213J-21213D01*
G01*
X64069399Y-79021769D01*
G75*
G02*
X64026973Y-79021769I-21213J21213D01*
G01*
X62938029Y-77932825D01*
G75*
G02*
X62938029Y-77890399I21213J21213D01*
G01*
G37*
G36*
G01*
X63397648Y-77430780D02*
X63567354Y-77261074D01*
G75*
G02*
X63609780Y-77261074I21213J-21213D01*
G01*
X64698724Y-78350018D01*
G75*
G02*
X64698724Y-78392444I-21213J-21213D01*
G01*
X64529018Y-78562150D01*
G75*
G02*
X64486592Y-78562150I-21213J21213D01*
G01*
X63397648Y-77473206D01*
G75*
G02*
X63397648Y-77430780I21213J21213D01*
G01*
G37*
%TD*%
%TO.C,U4*%
G36*
G01*
X78009495Y-78045962D02*
X80045962Y-76009495D01*
G75*
G02*
X80434870Y-76009495I194454J-194454D01*
G01*
X81990505Y-77565130D01*
G75*
G02*
X81990505Y-77954038I-194454J-194454D01*
G01*
X79954038Y-79990505D01*
G75*
G02*
X79565130Y-79990505I-194454J194454D01*
G01*
X78009495Y-78434870D01*
G75*
G02*
X78009495Y-78045962I194454J194454D01*
G01*
G37*
G36*
G01*
X79437850Y-73470982D02*
X79607556Y-73301276D01*
G75*
G02*
X79649982Y-73301276I21213J-21213D01*
G01*
X80738926Y-74390220D01*
G75*
G02*
X80738926Y-74432646I-21213J-21213D01*
G01*
X80569220Y-74602352D01*
G75*
G02*
X80526794Y-74602352I-21213J21213D01*
G01*
X79437850Y-73513408D01*
G75*
G02*
X79437850Y-73470982I21213J21213D01*
G01*
G37*
G36*
G01*
X78978231Y-73930601D02*
X79147937Y-73760895D01*
G75*
G02*
X79190363Y-73760895I21213J-21213D01*
G01*
X80279307Y-74849839D01*
G75*
G02*
X80279307Y-74892265I-21213J-21213D01*
G01*
X80109601Y-75061971D01*
G75*
G02*
X80067175Y-75061971I-21213J21213D01*
G01*
X78978231Y-73973027D01*
G75*
G02*
X78978231Y-73930601I21213J21213D01*
G01*
G37*
G36*
G01*
X78518612Y-74390220D02*
X78688318Y-74220514D01*
G75*
G02*
X78730744Y-74220514I21213J-21213D01*
G01*
X79819688Y-75309458D01*
G75*
G02*
X79819688Y-75351884I-21213J-21213D01*
G01*
X79649982Y-75521590D01*
G75*
G02*
X79607556Y-75521590I-21213J21213D01*
G01*
X78518612Y-74432646D01*
G75*
G02*
X78518612Y-74390220I21213J21213D01*
G01*
G37*
G36*
G01*
X78058992Y-74849840D02*
X78228698Y-74680134D01*
G75*
G02*
X78271124Y-74680134I21213J-21213D01*
G01*
X79360068Y-75769078D01*
G75*
G02*
X79360068Y-75811504I-21213J-21213D01*
G01*
X79190362Y-75981210D01*
G75*
G02*
X79147936Y-75981210I-21213J21213D01*
G01*
X78058992Y-74892266D01*
G75*
G02*
X78058992Y-74849840I21213J21213D01*
G01*
G37*
G36*
G01*
X77599373Y-75309459D02*
X77769079Y-75139753D01*
G75*
G02*
X77811505Y-75139753I21213J-21213D01*
G01*
X78900449Y-76228697D01*
G75*
G02*
X78900449Y-76271123I-21213J-21213D01*
G01*
X78730743Y-76440829D01*
G75*
G02*
X78688317Y-76440829I-21213J21213D01*
G01*
X77599373Y-75351885D01*
G75*
G02*
X77599373Y-75309459I21213J21213D01*
G01*
G37*
G36*
G01*
X77139753Y-75769079D02*
X77309459Y-75599373D01*
G75*
G02*
X77351885Y-75599373I21213J-21213D01*
G01*
X78440829Y-76688317D01*
G75*
G02*
X78440829Y-76730743I-21213J-21213D01*
G01*
X78271123Y-76900449D01*
G75*
G02*
X78228697Y-76900449I-21213J21213D01*
G01*
X77139753Y-75811505D01*
G75*
G02*
X77139753Y-75769079I21213J21213D01*
G01*
G37*
G36*
G01*
X76680134Y-76228698D02*
X76849840Y-76058992D01*
G75*
G02*
X76892266Y-76058992I21213J-21213D01*
G01*
X77981210Y-77147936D01*
G75*
G02*
X77981210Y-77190362I-21213J-21213D01*
G01*
X77811504Y-77360068D01*
G75*
G02*
X77769078Y-77360068I-21213J21213D01*
G01*
X76680134Y-76271124D01*
G75*
G02*
X76680134Y-76228698I21213J21213D01*
G01*
G37*
G36*
G01*
X76220514Y-76688318D02*
X76390220Y-76518612D01*
G75*
G02*
X76432646Y-76518612I21213J-21213D01*
G01*
X77521590Y-77607556D01*
G75*
G02*
X77521590Y-77649982I-21213J-21213D01*
G01*
X77351884Y-77819688D01*
G75*
G02*
X77309458Y-77819688I-21213J21213D01*
G01*
X76220514Y-76730744D01*
G75*
G02*
X76220514Y-76688318I21213J21213D01*
G01*
G37*
G36*
G01*
X75760895Y-77147937D02*
X75930601Y-76978231D01*
G75*
G02*
X75973027Y-76978231I21213J-21213D01*
G01*
X77061971Y-78067175D01*
G75*
G02*
X77061971Y-78109601I-21213J-21213D01*
G01*
X76892265Y-78279307D01*
G75*
G02*
X76849839Y-78279307I-21213J21213D01*
G01*
X75760895Y-77190363D01*
G75*
G02*
X75760895Y-77147937I21213J21213D01*
G01*
G37*
G36*
G01*
X75301276Y-77607556D02*
X75470982Y-77437850D01*
G75*
G02*
X75513408Y-77437850I21213J-21213D01*
G01*
X76602352Y-78526794D01*
G75*
G02*
X76602352Y-78569220I-21213J-21213D01*
G01*
X76432646Y-78738926D01*
G75*
G02*
X76390220Y-78738926I-21213J21213D01*
G01*
X75301276Y-77649982D01*
G75*
G02*
X75301276Y-77607556I21213J21213D01*
G01*
G37*
G36*
G01*
X79261074Y-81567354D02*
X79430780Y-81397648D01*
G75*
G02*
X79473206Y-81397648I21213J-21213D01*
G01*
X80562150Y-82486592D01*
G75*
G02*
X80562150Y-82529018I-21213J-21213D01*
G01*
X80392444Y-82698724D01*
G75*
G02*
X80350018Y-82698724I-21213J21213D01*
G01*
X79261074Y-81609780D01*
G75*
G02*
X79261074Y-81567354I21213J21213D01*
G01*
G37*
G36*
G01*
X79720693Y-81107735D02*
X79890399Y-80938029D01*
G75*
G02*
X79932825Y-80938029I21213J-21213D01*
G01*
X81021769Y-82026973D01*
G75*
G02*
X81021769Y-82069399I-21213J-21213D01*
G01*
X80852063Y-82239105D01*
G75*
G02*
X80809637Y-82239105I-21213J21213D01*
G01*
X79720693Y-81150161D01*
G75*
G02*
X79720693Y-81107735I21213J21213D01*
G01*
G37*
G36*
G01*
X80180312Y-80648116D02*
X80350018Y-80478410D01*
G75*
G02*
X80392444Y-80478410I21213J-21213D01*
G01*
X81481388Y-81567354D01*
G75*
G02*
X81481388Y-81609780I-21213J-21213D01*
G01*
X81311682Y-81779486D01*
G75*
G02*
X81269256Y-81779486I-21213J21213D01*
G01*
X80180312Y-80690542D01*
G75*
G02*
X80180312Y-80648116I21213J21213D01*
G01*
G37*
G36*
G01*
X80639932Y-80188496D02*
X80809638Y-80018790D01*
G75*
G02*
X80852064Y-80018790I21213J-21213D01*
G01*
X81941008Y-81107734D01*
G75*
G02*
X81941008Y-81150160I-21213J-21213D01*
G01*
X81771302Y-81319866D01*
G75*
G02*
X81728876Y-81319866I-21213J21213D01*
G01*
X80639932Y-80230922D01*
G75*
G02*
X80639932Y-80188496I21213J21213D01*
G01*
G37*
G36*
G01*
X81099551Y-79728877D02*
X81269257Y-79559171D01*
G75*
G02*
X81311683Y-79559171I21213J-21213D01*
G01*
X82400627Y-80648115D01*
G75*
G02*
X82400627Y-80690541I-21213J-21213D01*
G01*
X82230921Y-80860247D01*
G75*
G02*
X82188495Y-80860247I-21213J21213D01*
G01*
X81099551Y-79771303D01*
G75*
G02*
X81099551Y-79728877I21213J21213D01*
G01*
G37*
G36*
G01*
X81559171Y-79269257D02*
X81728877Y-79099551D01*
G75*
G02*
X81771303Y-79099551I21213J-21213D01*
G01*
X82860247Y-80188495D01*
G75*
G02*
X82860247Y-80230921I-21213J-21213D01*
G01*
X82690541Y-80400627D01*
G75*
G02*
X82648115Y-80400627I-21213J21213D01*
G01*
X81559171Y-79311683D01*
G75*
G02*
X81559171Y-79269257I21213J21213D01*
G01*
G37*
G36*
G01*
X82018790Y-78809638D02*
X82188496Y-78639932D01*
G75*
G02*
X82230922Y-78639932I21213J-21213D01*
G01*
X83319866Y-79728876D01*
G75*
G02*
X83319866Y-79771302I-21213J-21213D01*
G01*
X83150160Y-79941008D01*
G75*
G02*
X83107734Y-79941008I-21213J21213D01*
G01*
X82018790Y-78852064D01*
G75*
G02*
X82018790Y-78809638I21213J21213D01*
G01*
G37*
G36*
G01*
X82478410Y-78350018D02*
X82648116Y-78180312D01*
G75*
G02*
X82690542Y-78180312I21213J-21213D01*
G01*
X83779486Y-79269256D01*
G75*
G02*
X83779486Y-79311682I-21213J-21213D01*
G01*
X83609780Y-79481388D01*
G75*
G02*
X83567354Y-79481388I-21213J21213D01*
G01*
X82478410Y-78392444D01*
G75*
G02*
X82478410Y-78350018I21213J21213D01*
G01*
G37*
G36*
G01*
X82938029Y-77890399D02*
X83107735Y-77720693D01*
G75*
G02*
X83150161Y-77720693I21213J-21213D01*
G01*
X84239105Y-78809637D01*
G75*
G02*
X84239105Y-78852063I-21213J-21213D01*
G01*
X84069399Y-79021769D01*
G75*
G02*
X84026973Y-79021769I-21213J21213D01*
G01*
X82938029Y-77932825D01*
G75*
G02*
X82938029Y-77890399I21213J21213D01*
G01*
G37*
G36*
G01*
X83397648Y-77430780D02*
X83567354Y-77261074D01*
G75*
G02*
X83609780Y-77261074I21213J-21213D01*
G01*
X84698724Y-78350018D01*
G75*
G02*
X84698724Y-78392444I-21213J-21213D01*
G01*
X84529018Y-78562150D01*
G75*
G02*
X84486592Y-78562150I-21213J21213D01*
G01*
X83397648Y-77473206D01*
G75*
G02*
X83397648Y-77430780I21213J21213D01*
G01*
G37*
%TD*%
M02*
