%TF.GenerationSoftware,KiCad,Pcbnew,no-vcs-found-3ac87f6~59~ubuntu17.04.1*%
%TF.CreationDate,2017-08-31T22:06:13+02:00*%
%TF.ProjectId,LEDBoard_4x4_16bit,4C4544426F6172645F3478345F313662,3.0.0*%
%TF.SameCoordinates,Original*%
%TF.FileFunction,Legend,Bot*%
%TF.FilePolarity,Positive*%
%FSLAX46Y46*%
G04 Gerber Fmt 4.6, Leading zero omitted, Abs format (unit mm)*
G04 Created by KiCad (PCBNEW no-vcs-found-3ac87f6~59~ubuntu17.04.1) date Thu Aug 31 22:06:13 2017*
%MOMM*%
%LPD*%
G01*
G04 APERTURE LIST*
%ADD10C,0.200000*%
%ADD11C,0.100000*%
%ADD12C,0.120000*%
%ADD13C,0.150000*%
G04 APERTURE END LIST*
D10*
X88000000Y-86000000D02*
X52000000Y-86000000D01*
X88000000Y-50000000D02*
X88000000Y-86000000D01*
X52000000Y-86000000D02*
X52000000Y-50000000D01*
X52000000Y-50000000D02*
X88000000Y-50000000D01*
D11*
X84380952Y-85950000D02*
X84428571Y-85926190D01*
X84500000Y-85926190D01*
X84571428Y-85950000D01*
X84619047Y-85997619D01*
X84642857Y-86045238D01*
X84666666Y-86140476D01*
X84666666Y-86211904D01*
X84642857Y-86307142D01*
X84619047Y-86354761D01*
X84571428Y-86402380D01*
X84500000Y-86426190D01*
X84452380Y-86426190D01*
X84380952Y-86402380D01*
X84357142Y-86378571D01*
X84357142Y-86211904D01*
X84452380Y-86211904D01*
X84142857Y-86426190D02*
X84142857Y-85926190D01*
X83857142Y-86426190D01*
X83857142Y-85926190D01*
X83619047Y-86426190D02*
X83619047Y-85926190D01*
X83500000Y-85926190D01*
X83428571Y-85950000D01*
X83380952Y-85997619D01*
X83357142Y-86045238D01*
X83333333Y-86140476D01*
X83333333Y-86211904D01*
X83357142Y-86307142D01*
X83380952Y-86354761D01*
X83428571Y-86402380D01*
X83500000Y-86426190D01*
X83619047Y-86426190D01*
X61480952Y-85950000D02*
X61528571Y-85926190D01*
X61600000Y-85926190D01*
X61671428Y-85950000D01*
X61719047Y-85997619D01*
X61742857Y-86045238D01*
X61766666Y-86140476D01*
X61766666Y-86211904D01*
X61742857Y-86307142D01*
X61719047Y-86354761D01*
X61671428Y-86402380D01*
X61600000Y-86426190D01*
X61552380Y-86426190D01*
X61480952Y-86402380D01*
X61457142Y-86378571D01*
X61457142Y-86211904D01*
X61552380Y-86211904D01*
X61242857Y-86426190D02*
X61242857Y-85926190D01*
X60957142Y-86426190D01*
X60957142Y-85926190D01*
X60719047Y-86426190D02*
X60719047Y-85926190D01*
X60600000Y-85926190D01*
X60528571Y-85950000D01*
X60480952Y-85997619D01*
X60457142Y-86045238D01*
X60433333Y-86140476D01*
X60433333Y-86211904D01*
X60457142Y-86307142D01*
X60480952Y-86354761D01*
X60528571Y-86402380D01*
X60600000Y-86426190D01*
X60719047Y-86426190D01*
X66466666Y-85950000D02*
X66514285Y-85926190D01*
X66585714Y-85926190D01*
X66657142Y-85950000D01*
X66704761Y-85997619D01*
X66728571Y-86045238D01*
X66752380Y-86140476D01*
X66752380Y-86211904D01*
X66728571Y-86307142D01*
X66704761Y-86354761D01*
X66657142Y-86402380D01*
X66585714Y-86426190D01*
X66538095Y-86426190D01*
X66466666Y-86402380D01*
X66442857Y-86378571D01*
X66442857Y-86211904D01*
X66538095Y-86211904D01*
X66228571Y-86426190D02*
X66228571Y-85926190D01*
X65942857Y-86426190D01*
X65942857Y-85926190D01*
X65704761Y-86426190D02*
X65704761Y-85926190D01*
X65585714Y-85926190D01*
X65514285Y-85950000D01*
X65466666Y-85997619D01*
X65442857Y-86045238D01*
X65419047Y-86140476D01*
X65419047Y-86211904D01*
X65442857Y-86307142D01*
X65466666Y-86354761D01*
X65514285Y-86402380D01*
X65585714Y-86426190D01*
X65704761Y-86426190D01*
X64133333Y-85926190D02*
X63966666Y-86426190D01*
X63800000Y-85926190D01*
X63347619Y-86378571D02*
X63371428Y-86402380D01*
X63442857Y-86426190D01*
X63490476Y-86426190D01*
X63561904Y-86402380D01*
X63609523Y-86354761D01*
X63633333Y-86307142D01*
X63657142Y-86211904D01*
X63657142Y-86140476D01*
X63633333Y-86045238D01*
X63609523Y-85997619D01*
X63561904Y-85950000D01*
X63490476Y-85926190D01*
X63442857Y-85926190D01*
X63371428Y-85950000D01*
X63347619Y-85973809D01*
X62847619Y-86378571D02*
X62871428Y-86402380D01*
X62942857Y-86426190D01*
X62990476Y-86426190D01*
X63061904Y-86402380D01*
X63109523Y-86354761D01*
X63133333Y-86307142D01*
X63157142Y-86211904D01*
X63157142Y-86140476D01*
X63133333Y-86045238D01*
X63109523Y-85997619D01*
X63061904Y-85950000D01*
X62990476Y-85926190D01*
X62942857Y-85926190D01*
X62871428Y-85950000D01*
X62847619Y-85973809D01*
X71666666Y-85950000D02*
X71714285Y-85926190D01*
X71785714Y-85926190D01*
X71857142Y-85950000D01*
X71904761Y-85997619D01*
X71928571Y-86045238D01*
X71952380Y-86140476D01*
X71952380Y-86211904D01*
X71928571Y-86307142D01*
X71904761Y-86354761D01*
X71857142Y-86402380D01*
X71785714Y-86426190D01*
X71738095Y-86426190D01*
X71666666Y-86402380D01*
X71642857Y-86378571D01*
X71642857Y-86211904D01*
X71738095Y-86211904D01*
X71428571Y-86426190D02*
X71428571Y-85926190D01*
X71142857Y-86426190D01*
X71142857Y-85926190D01*
X70904761Y-86426190D02*
X70904761Y-85926190D01*
X70785714Y-85926190D01*
X70714285Y-85950000D01*
X70666666Y-85997619D01*
X70642857Y-86045238D01*
X70619047Y-86140476D01*
X70619047Y-86211904D01*
X70642857Y-86307142D01*
X70666666Y-86354761D01*
X70714285Y-86402380D01*
X70785714Y-86426190D01*
X70904761Y-86426190D01*
X69333333Y-85926190D02*
X69166666Y-86426190D01*
X69000000Y-85926190D01*
X68547619Y-86378571D02*
X68571428Y-86402380D01*
X68642857Y-86426190D01*
X68690476Y-86426190D01*
X68761904Y-86402380D01*
X68809523Y-86354761D01*
X68833333Y-86307142D01*
X68857142Y-86211904D01*
X68857142Y-86140476D01*
X68833333Y-86045238D01*
X68809523Y-85997619D01*
X68761904Y-85950000D01*
X68690476Y-85926190D01*
X68642857Y-85926190D01*
X68571428Y-85950000D01*
X68547619Y-85973809D01*
X68047619Y-86378571D02*
X68071428Y-86402380D01*
X68142857Y-86426190D01*
X68190476Y-86426190D01*
X68261904Y-86402380D01*
X68309523Y-86354761D01*
X68333333Y-86307142D01*
X68357142Y-86211904D01*
X68357142Y-86140476D01*
X68333333Y-86045238D01*
X68309523Y-85997619D01*
X68261904Y-85950000D01*
X68190476Y-85926190D01*
X68142857Y-85926190D01*
X68071428Y-85950000D01*
X68047619Y-85973809D01*
X76666666Y-85950000D02*
X76714285Y-85926190D01*
X76785714Y-85926190D01*
X76857142Y-85950000D01*
X76904761Y-85997619D01*
X76928571Y-86045238D01*
X76952380Y-86140476D01*
X76952380Y-86211904D01*
X76928571Y-86307142D01*
X76904761Y-86354761D01*
X76857142Y-86402380D01*
X76785714Y-86426190D01*
X76738095Y-86426190D01*
X76666666Y-86402380D01*
X76642857Y-86378571D01*
X76642857Y-86211904D01*
X76738095Y-86211904D01*
X76428571Y-86426190D02*
X76428571Y-85926190D01*
X76142857Y-86426190D01*
X76142857Y-85926190D01*
X75904761Y-86426190D02*
X75904761Y-85926190D01*
X75785714Y-85926190D01*
X75714285Y-85950000D01*
X75666666Y-85997619D01*
X75642857Y-86045238D01*
X75619047Y-86140476D01*
X75619047Y-86211904D01*
X75642857Y-86307142D01*
X75666666Y-86354761D01*
X75714285Y-86402380D01*
X75785714Y-86426190D01*
X75904761Y-86426190D01*
X74333333Y-85926190D02*
X74166666Y-86426190D01*
X74000000Y-85926190D01*
X73547619Y-86378571D02*
X73571428Y-86402380D01*
X73642857Y-86426190D01*
X73690476Y-86426190D01*
X73761904Y-86402380D01*
X73809523Y-86354761D01*
X73833333Y-86307142D01*
X73857142Y-86211904D01*
X73857142Y-86140476D01*
X73833333Y-86045238D01*
X73809523Y-85997619D01*
X73761904Y-85950000D01*
X73690476Y-85926190D01*
X73642857Y-85926190D01*
X73571428Y-85950000D01*
X73547619Y-85973809D01*
X73047619Y-86378571D02*
X73071428Y-86402380D01*
X73142857Y-86426190D01*
X73190476Y-86426190D01*
X73261904Y-86402380D01*
X73309523Y-86354761D01*
X73333333Y-86307142D01*
X73357142Y-86211904D01*
X73357142Y-86140476D01*
X73333333Y-86045238D01*
X73309523Y-85997619D01*
X73261904Y-85950000D01*
X73190476Y-85926190D01*
X73142857Y-85926190D01*
X73071428Y-85950000D01*
X73047619Y-85973809D01*
X57426190Y-85801190D02*
X57426190Y-85467857D01*
X57426190Y-85301190D02*
X57450000Y-85325000D01*
X57426190Y-85348809D01*
X57402380Y-85325000D01*
X57426190Y-85301190D01*
X57426190Y-85348809D01*
X57188095Y-85467857D02*
X57188095Y-85801190D01*
X57188095Y-85515476D02*
X57164285Y-85491666D01*
X57116666Y-85467857D01*
X57045238Y-85467857D01*
X56997619Y-85491666D01*
X56973809Y-85539285D01*
X56973809Y-85801190D01*
X58866666Y-86627380D02*
X58914285Y-86651190D01*
X59009523Y-86651190D01*
X59057142Y-86627380D01*
X59080952Y-86603571D01*
X59104761Y-86555952D01*
X59104761Y-86413095D01*
X59080952Y-86365476D01*
X59057142Y-86341666D01*
X59009523Y-86317857D01*
X58914285Y-86317857D01*
X58866666Y-86341666D01*
X58580952Y-86651190D02*
X58628571Y-86627380D01*
X58652380Y-86579761D01*
X58652380Y-86151190D01*
X58319047Y-86651190D02*
X58366666Y-86627380D01*
X58390476Y-86603571D01*
X58414285Y-86555952D01*
X58414285Y-86413095D01*
X58390476Y-86365476D01*
X58366666Y-86341666D01*
X58319047Y-86317857D01*
X58247619Y-86317857D01*
X58200000Y-86341666D01*
X58176190Y-86365476D01*
X58152380Y-86413095D01*
X58152380Y-86555952D01*
X58176190Y-86603571D01*
X58200000Y-86627380D01*
X58247619Y-86651190D01*
X58319047Y-86651190D01*
X57723809Y-86627380D02*
X57771428Y-86651190D01*
X57866666Y-86651190D01*
X57914285Y-86627380D01*
X57938095Y-86603571D01*
X57961904Y-86555952D01*
X57961904Y-86413095D01*
X57938095Y-86365476D01*
X57914285Y-86341666D01*
X57866666Y-86317857D01*
X57771428Y-86317857D01*
X57723809Y-86341666D01*
X57509523Y-86651190D02*
X57509523Y-86151190D01*
X57461904Y-86460714D02*
X57319047Y-86651190D01*
X57319047Y-86317857D02*
X57509523Y-86508333D01*
X56509523Y-86651190D02*
X56509523Y-86151190D01*
X56509523Y-86627380D02*
X56557142Y-86651190D01*
X56652380Y-86651190D01*
X56700000Y-86627380D01*
X56723809Y-86603571D01*
X56747619Y-86555952D01*
X56747619Y-86413095D01*
X56723809Y-86365476D01*
X56700000Y-86341666D01*
X56652380Y-86317857D01*
X56557142Y-86317857D01*
X56509523Y-86341666D01*
X56057142Y-86651190D02*
X56057142Y-86389285D01*
X56080952Y-86341666D01*
X56128571Y-86317857D01*
X56223809Y-86317857D01*
X56271428Y-86341666D01*
X56057142Y-86627380D02*
X56104761Y-86651190D01*
X56223809Y-86651190D01*
X56271428Y-86627380D01*
X56295238Y-86579761D01*
X56295238Y-86532142D01*
X56271428Y-86484523D01*
X56223809Y-86460714D01*
X56104761Y-86460714D01*
X56057142Y-86436904D01*
X55890476Y-86317857D02*
X55700000Y-86317857D01*
X55819047Y-86151190D02*
X55819047Y-86579761D01*
X55795238Y-86627380D01*
X55747619Y-86651190D01*
X55700000Y-86651190D01*
X55319047Y-86651190D02*
X55319047Y-86389285D01*
X55342857Y-86341666D01*
X55390476Y-86317857D01*
X55485714Y-86317857D01*
X55533333Y-86341666D01*
X55319047Y-86627380D02*
X55366666Y-86651190D01*
X55485714Y-86651190D01*
X55533333Y-86627380D01*
X55557142Y-86579761D01*
X55557142Y-86532142D01*
X55533333Y-86484523D01*
X55485714Y-86460714D01*
X55366666Y-86460714D01*
X55319047Y-86436904D01*
X80504761Y-85601190D02*
X80552380Y-85577380D01*
X80576190Y-85553571D01*
X80600000Y-85505952D01*
X80600000Y-85363095D01*
X80576190Y-85315476D01*
X80552380Y-85291666D01*
X80504761Y-85267857D01*
X80433333Y-85267857D01*
X80385714Y-85291666D01*
X80361904Y-85315476D01*
X80338095Y-85363095D01*
X80338095Y-85505952D01*
X80361904Y-85553571D01*
X80385714Y-85577380D01*
X80433333Y-85601190D01*
X80504761Y-85601190D01*
X79909523Y-85267857D02*
X79909523Y-85601190D01*
X80123809Y-85267857D02*
X80123809Y-85529761D01*
X80100000Y-85577380D01*
X80052380Y-85601190D01*
X79980952Y-85601190D01*
X79933333Y-85577380D01*
X79909523Y-85553571D01*
X79742857Y-85267857D02*
X79552380Y-85267857D01*
X79671428Y-85101190D02*
X79671428Y-85529761D01*
X79647619Y-85577380D01*
X79600000Y-85601190D01*
X79552380Y-85601190D01*
X81766666Y-86427380D02*
X81814285Y-86451190D01*
X81909523Y-86451190D01*
X81957142Y-86427380D01*
X81980952Y-86403571D01*
X82004761Y-86355952D01*
X82004761Y-86213095D01*
X81980952Y-86165476D01*
X81957142Y-86141666D01*
X81909523Y-86117857D01*
X81814285Y-86117857D01*
X81766666Y-86141666D01*
X81480952Y-86451190D02*
X81528571Y-86427380D01*
X81552380Y-86379761D01*
X81552380Y-85951190D01*
X81219047Y-86451190D02*
X81266666Y-86427380D01*
X81290476Y-86403571D01*
X81314285Y-86355952D01*
X81314285Y-86213095D01*
X81290476Y-86165476D01*
X81266666Y-86141666D01*
X81219047Y-86117857D01*
X81147619Y-86117857D01*
X81100000Y-86141666D01*
X81076190Y-86165476D01*
X81052380Y-86213095D01*
X81052380Y-86355952D01*
X81076190Y-86403571D01*
X81100000Y-86427380D01*
X81147619Y-86451190D01*
X81219047Y-86451190D01*
X80623809Y-86427380D02*
X80671428Y-86451190D01*
X80766666Y-86451190D01*
X80814285Y-86427380D01*
X80838095Y-86403571D01*
X80861904Y-86355952D01*
X80861904Y-86213095D01*
X80838095Y-86165476D01*
X80814285Y-86141666D01*
X80766666Y-86117857D01*
X80671428Y-86117857D01*
X80623809Y-86141666D01*
X80409523Y-86451190D02*
X80409523Y-85951190D01*
X80361904Y-86260714D02*
X80219047Y-86451190D01*
X80219047Y-86117857D02*
X80409523Y-86308333D01*
X79409523Y-86451190D02*
X79409523Y-85951190D01*
X79409523Y-86427380D02*
X79457142Y-86451190D01*
X79552380Y-86451190D01*
X79600000Y-86427380D01*
X79623809Y-86403571D01*
X79647619Y-86355952D01*
X79647619Y-86213095D01*
X79623809Y-86165476D01*
X79600000Y-86141666D01*
X79552380Y-86117857D01*
X79457142Y-86117857D01*
X79409523Y-86141666D01*
X78957142Y-86451190D02*
X78957142Y-86189285D01*
X78980952Y-86141666D01*
X79028571Y-86117857D01*
X79123809Y-86117857D01*
X79171428Y-86141666D01*
X78957142Y-86427380D02*
X79004761Y-86451190D01*
X79123809Y-86451190D01*
X79171428Y-86427380D01*
X79195238Y-86379761D01*
X79195238Y-86332142D01*
X79171428Y-86284523D01*
X79123809Y-86260714D01*
X79004761Y-86260714D01*
X78957142Y-86236904D01*
X78790476Y-86117857D02*
X78600000Y-86117857D01*
X78719047Y-85951190D02*
X78719047Y-86379761D01*
X78695238Y-86427380D01*
X78647619Y-86451190D01*
X78600000Y-86451190D01*
X78219047Y-86451190D02*
X78219047Y-86189285D01*
X78242857Y-86141666D01*
X78290476Y-86117857D01*
X78385714Y-86117857D01*
X78433333Y-86141666D01*
X78219047Y-86427380D02*
X78266666Y-86451190D01*
X78385714Y-86451190D01*
X78433333Y-86427380D01*
X78457142Y-86379761D01*
X78457142Y-86332142D01*
X78433333Y-86284523D01*
X78385714Y-86260714D01*
X78266666Y-86260714D01*
X78219047Y-86236904D01*
D12*
%TO.C,J2*%
X62320000Y-86670000D02*
X62320000Y-88000000D01*
X63650000Y-86670000D02*
X62320000Y-86670000D01*
X64920000Y-89330000D02*
X64920000Y-86670000D01*
X77680000Y-89330000D02*
X64920000Y-89330000D01*
X77680000Y-86670000D02*
X77680000Y-89330000D01*
X64920000Y-86670000D02*
X77680000Y-86670000D01*
%TO.C,J1*%
X57300000Y-86670000D02*
X62440000Y-86670000D01*
X62440000Y-86670000D02*
X62440000Y-89330000D01*
X62440000Y-89330000D02*
X57300000Y-89330000D01*
X57300000Y-89330000D02*
X57300000Y-86670000D01*
X56030000Y-86670000D02*
X54700000Y-86670000D01*
X54700000Y-86670000D02*
X54700000Y-88000000D01*
%TO.C,J6*%
X77560000Y-86670000D02*
X77560000Y-88000000D01*
X78890000Y-86670000D02*
X77560000Y-86670000D01*
X80160000Y-89330000D02*
X80160000Y-86670000D01*
X85300000Y-89330000D02*
X80160000Y-89330000D01*
X85300000Y-86670000D02*
X85300000Y-89330000D01*
X80160000Y-86670000D02*
X85300000Y-86670000D01*
%TO.C,J2*%
D13*
X64033333Y-89452380D02*
X64033333Y-90166666D01*
X64080952Y-90309523D01*
X64176190Y-90404761D01*
X64319047Y-90452380D01*
X64414285Y-90452380D01*
X63604761Y-89547619D02*
X63557142Y-89500000D01*
X63461904Y-89452380D01*
X63223809Y-89452380D01*
X63128571Y-89500000D01*
X63080952Y-89547619D01*
X63033333Y-89642857D01*
X63033333Y-89738095D01*
X63080952Y-89880952D01*
X63652380Y-90452380D01*
X63033333Y-90452380D01*
%TO.C,J1*%
X56333333Y-89452380D02*
X56333333Y-90166666D01*
X56380952Y-90309523D01*
X56476190Y-90404761D01*
X56619047Y-90452380D01*
X56714285Y-90452380D01*
X55333333Y-90452380D02*
X55904761Y-90452380D01*
X55619047Y-90452380D02*
X55619047Y-89452380D01*
X55714285Y-89595238D01*
X55809523Y-89690476D01*
X55904761Y-89738095D01*
%TO.C,J6*%
X79233333Y-89452380D02*
X79233333Y-90166666D01*
X79280952Y-90309523D01*
X79376190Y-90404761D01*
X79519047Y-90452380D01*
X79614285Y-90452380D01*
X78328571Y-89452380D02*
X78519047Y-89452380D01*
X78614285Y-89500000D01*
X78661904Y-89547619D01*
X78757142Y-89690476D01*
X78804761Y-89880952D01*
X78804761Y-90261904D01*
X78757142Y-90357142D01*
X78709523Y-90404761D01*
X78614285Y-90452380D01*
X78423809Y-90452380D01*
X78328571Y-90404761D01*
X78280952Y-90357142D01*
X78233333Y-90261904D01*
X78233333Y-90023809D01*
X78280952Y-89928571D01*
X78328571Y-89880952D01*
X78423809Y-89833333D01*
X78614285Y-89833333D01*
X78709523Y-89880952D01*
X78757142Y-89928571D01*
X78804761Y-90023809D01*
%TD*%
M02*
