%TF.GenerationSoftware,KiCad,Pcbnew,no-vcs-found-d41af7d~59~ubuntu17.04.1*%
%TF.CreationDate,2017-07-30T10:48:24+02:00*%
%TF.ProjectId,LEDBoard_4x4_16bit,4C4544426F6172645F3478345F313662,1.0*%
%TF.SameCoordinates,Original*%
%TF.FileFunction,Copper,L2,Bot,Signal*%
%TF.FilePolarity,Positive*%
%FSLAX46Y46*%
G04 Gerber Fmt 4.6, Leading zero omitted, Abs format (unit mm)*
G04 Created by KiCad (PCBNEW no-vcs-found-d41af7d~59~ubuntu17.04.1) date Sun Jul 30 10:48:24 2017*
%MOMM*%
%LPD*%
G01*
G04 APERTURE LIST*
%TA.AperFunction,NonConductor*%
%ADD10C,0.150000*%
%TD*%
%TA.AperFunction,ViaPad*%
%ADD11C,0.300000*%
%TD*%
%TA.AperFunction,Conductor*%
%ADD12C,0.100000*%
%TD*%
%TA.AperFunction,Conductor*%
%ADD13C,1.400000*%
%TD*%
%TA.AperFunction,Conductor*%
%ADD14C,1.200000*%
%TD*%
%TA.AperFunction,Conductor*%
%ADD15C,2.700000*%
%TD*%
%TA.AperFunction,ComponentPad*%
%ADD16C,5.700000*%
%TD*%
%TA.AperFunction,ComponentPad*%
%ADD17R,1.700000X1.700000*%
%TD*%
%TA.AperFunction,ComponentPad*%
%ADD18O,1.700000X1.700000*%
%TD*%
%TA.AperFunction,ViaPad*%
%ADD19C,0.600000*%
%TD*%
%TA.AperFunction,Conductor*%
%ADD20C,0.300000*%
%TD*%
%TA.AperFunction,Conductor*%
%ADD21C,1.000000*%
%TD*%
%TA.AperFunction,Conductor*%
%ADD22C,0.200000*%
%TD*%
%TA.AperFunction,Conductor*%
%ADD23C,0.150000*%
%TD*%
G04 APERTURE END LIST*
D10*
X86464285Y-91892857D02*
X86250000Y-91964285D01*
X86178571Y-92035714D01*
X86107142Y-92178571D01*
X86107142Y-92392857D01*
X86178571Y-92535714D01*
X86250000Y-92607142D01*
X86392857Y-92678571D01*
X86964285Y-92678571D01*
X86964285Y-91178571D01*
X86464285Y-91178571D01*
X86321428Y-91250000D01*
X86250000Y-91321428D01*
X86178571Y-91464285D01*
X86178571Y-91607142D01*
X86250000Y-91750000D01*
X86321428Y-91821428D01*
X86464285Y-91892857D01*
X86964285Y-91892857D01*
X85178571Y-91178571D02*
X84892857Y-91178571D01*
X84750000Y-91250000D01*
X84607142Y-91392857D01*
X84535714Y-91678571D01*
X84535714Y-92178571D01*
X84607142Y-92464285D01*
X84750000Y-92607142D01*
X84892857Y-92678571D01*
X85178571Y-92678571D01*
X85321428Y-92607142D01*
X85464285Y-92464285D01*
X85535714Y-92178571D01*
X85535714Y-91678571D01*
X85464285Y-91392857D01*
X85321428Y-91250000D01*
X85178571Y-91178571D01*
X84107142Y-91178571D02*
X83250000Y-91178571D01*
X83678571Y-92678571D02*
X83678571Y-91178571D01*
X82964285Y-91178571D02*
X82107142Y-91178571D01*
X82535714Y-92678571D02*
X82535714Y-91178571D01*
X81321428Y-91178571D02*
X81035714Y-91178571D01*
X80892857Y-91250000D01*
X80750000Y-91392857D01*
X80678571Y-91678571D01*
X80678571Y-92178571D01*
X80750000Y-92464285D01*
X80892857Y-92607142D01*
X81035714Y-92678571D01*
X81321428Y-92678571D01*
X81464285Y-92607142D01*
X81607142Y-92464285D01*
X81678571Y-92178571D01*
X81678571Y-91678571D01*
X81607142Y-91392857D01*
X81464285Y-91250000D01*
X81321428Y-91178571D01*
X80035714Y-92678571D02*
X80035714Y-91178571D01*
X79535714Y-92250000D01*
X79035714Y-91178571D01*
X79035714Y-92678571D01*
D11*
%TO.N,/LED_1.1_G*%
%TO.C,D1.1*%
X53600000Y-53000000D03*
%TO.N,/LED_1.1_B*%
X53600000Y-51800000D03*
%TO.N,/LED_1.1_R*%
X53600000Y-54200000D03*
%TO.N,/LED_1.1_G*%
X55000000Y-53000000D03*
%TO.N,/LED_1.1_R*%
X55000000Y-54200000D03*
%TO.N,/LED_1.1_B*%
X55000000Y-51800000D03*
%TO.N,/LED_1.1_R*%
X55700000Y-54200000D03*
X54300000Y-54200000D03*
X52900000Y-54200000D03*
%TO.N,/LED_1.1_G*%
X54300000Y-53000000D03*
X55700000Y-53000000D03*
X52900000Y-53000000D03*
%TO.N,/LED_1.1_B*%
X54300000Y-51800000D03*
X55700000Y-51800000D03*
D12*
%TO.N,/LED_1.1_R*%
G36*
X57936861Y-53800337D02*
X57943656Y-53801345D01*
X57950320Y-53803014D01*
X57956788Y-53805328D01*
X57962998Y-53808266D01*
X57968890Y-53811797D01*
X57974408Y-53815889D01*
X57979497Y-53820503D01*
X57984111Y-53825592D01*
X57988203Y-53831110D01*
X57991734Y-53837002D01*
X57994672Y-53843212D01*
X57996986Y-53849680D01*
X57998655Y-53856344D01*
X57999663Y-53863139D01*
X58000000Y-53870000D01*
X58000000Y-55130000D01*
X57999663Y-55136861D01*
X57998655Y-55143656D01*
X57996986Y-55150320D01*
X57994672Y-55156788D01*
X57991734Y-55162998D01*
X57988203Y-55168890D01*
X57984111Y-55174408D01*
X57979497Y-55179497D01*
X57974408Y-55184111D01*
X57968890Y-55188203D01*
X57962998Y-55191734D01*
X57956788Y-55194672D01*
X57950320Y-55196986D01*
X57943656Y-55198655D01*
X57936861Y-55199663D01*
X57930000Y-55200000D01*
X52070000Y-55200000D01*
X52063139Y-55199663D01*
X52056344Y-55198655D01*
X52049680Y-55196986D01*
X52043212Y-55194672D01*
X52037002Y-55191734D01*
X52031110Y-55188203D01*
X52025592Y-55184111D01*
X52020503Y-55179497D01*
X52015889Y-55174408D01*
X52011797Y-55168890D01*
X52008266Y-55162998D01*
X52005328Y-55156788D01*
X52003014Y-55150320D01*
X52001345Y-55143656D01*
X52000337Y-55136861D01*
X52000000Y-55130000D01*
X52000000Y-53870000D01*
X52000337Y-53863139D01*
X52001345Y-53856344D01*
X52003014Y-53849680D01*
X52005328Y-53843212D01*
X52008266Y-53837002D01*
X52011797Y-53831110D01*
X52015889Y-53825592D01*
X52020503Y-53820503D01*
X52025592Y-53815889D01*
X52031110Y-53811797D01*
X52037002Y-53808266D01*
X52043212Y-53805328D01*
X52049680Y-53803014D01*
X52056344Y-53801345D01*
X52063139Y-53800337D01*
X52070000Y-53800000D01*
X57930000Y-53800000D01*
X57936861Y-53800337D01*
X57936861Y-53800337D01*
G37*
D13*
X55000000Y-54500000D03*
D12*
%TO.N,/LED_1.1_B*%
G36*
X57936861Y-50800337D02*
X57943656Y-50801345D01*
X57950320Y-50803014D01*
X57956788Y-50805328D01*
X57962998Y-50808266D01*
X57968890Y-50811797D01*
X57974408Y-50815889D01*
X57979497Y-50820503D01*
X57984111Y-50825592D01*
X57988203Y-50831110D01*
X57991734Y-50837002D01*
X57994672Y-50843212D01*
X57996986Y-50849680D01*
X57998655Y-50856344D01*
X57999663Y-50863139D01*
X58000000Y-50870000D01*
X58000000Y-52130000D01*
X57999663Y-52136861D01*
X57998655Y-52143656D01*
X57996986Y-52150320D01*
X57994672Y-52156788D01*
X57991734Y-52162998D01*
X57988203Y-52168890D01*
X57984111Y-52174408D01*
X57979497Y-52179497D01*
X57974408Y-52184111D01*
X57968890Y-52188203D01*
X57962998Y-52191734D01*
X57956788Y-52194672D01*
X57950320Y-52196986D01*
X57943656Y-52198655D01*
X57936861Y-52199663D01*
X57930000Y-52200000D01*
X52070000Y-52200000D01*
X52063139Y-52199663D01*
X52056344Y-52198655D01*
X52049680Y-52196986D01*
X52043212Y-52194672D01*
X52037002Y-52191734D01*
X52031110Y-52188203D01*
X52025592Y-52184111D01*
X52020503Y-52179497D01*
X52015889Y-52174408D01*
X52011797Y-52168890D01*
X52008266Y-52162998D01*
X52005328Y-52156788D01*
X52003014Y-52150320D01*
X52001345Y-52143656D01*
X52000337Y-52136861D01*
X52000000Y-52130000D01*
X52000000Y-50870000D01*
X52000337Y-50863139D01*
X52001345Y-50856344D01*
X52003014Y-50849680D01*
X52005328Y-50843212D01*
X52008266Y-50837002D01*
X52011797Y-50831110D01*
X52015889Y-50825592D01*
X52020503Y-50820503D01*
X52025592Y-50815889D01*
X52031110Y-50811797D01*
X52037002Y-50808266D01*
X52043212Y-50805328D01*
X52049680Y-50803014D01*
X52056344Y-50801345D01*
X52063139Y-50800337D01*
X52070000Y-50800000D01*
X57930000Y-50800000D01*
X57936861Y-50800337D01*
X57936861Y-50800337D01*
G37*
D13*
X55000000Y-51500000D03*
D12*
%TO.N,/LED_1.1_G*%
G36*
X57945881Y-52400289D02*
X57951705Y-52401153D01*
X57957417Y-52402584D01*
X57962961Y-52404567D01*
X57968284Y-52407085D01*
X57973334Y-52410112D01*
X57978064Y-52413619D01*
X57982426Y-52417574D01*
X57986381Y-52421936D01*
X57989888Y-52426666D01*
X57992915Y-52431716D01*
X57995433Y-52437039D01*
X57997416Y-52442583D01*
X57998847Y-52448295D01*
X57999711Y-52454119D01*
X58000000Y-52460000D01*
X58000000Y-53540000D01*
X57999711Y-53545881D01*
X57998847Y-53551705D01*
X57997416Y-53557417D01*
X57995433Y-53562961D01*
X57992915Y-53568284D01*
X57989888Y-53573334D01*
X57986381Y-53578064D01*
X57982426Y-53582426D01*
X57978064Y-53586381D01*
X57973334Y-53589888D01*
X57968284Y-53592915D01*
X57962961Y-53595433D01*
X57957417Y-53597416D01*
X57951705Y-53598847D01*
X57945881Y-53599711D01*
X57940000Y-53600000D01*
X52060000Y-53600000D01*
X52054119Y-53599711D01*
X52048295Y-53598847D01*
X52042583Y-53597416D01*
X52037039Y-53595433D01*
X52031716Y-53592915D01*
X52026666Y-53589888D01*
X52021936Y-53586381D01*
X52017574Y-53582426D01*
X52013619Y-53578064D01*
X52010112Y-53573334D01*
X52007085Y-53568284D01*
X52004567Y-53562961D01*
X52002584Y-53557417D01*
X52001153Y-53551705D01*
X52000289Y-53545881D01*
X52000000Y-53540000D01*
X52000000Y-52460000D01*
X52000289Y-52454119D01*
X52001153Y-52448295D01*
X52002584Y-52442583D01*
X52004567Y-52437039D01*
X52007085Y-52431716D01*
X52010112Y-52426666D01*
X52013619Y-52421936D01*
X52017574Y-52417574D01*
X52021936Y-52413619D01*
X52026666Y-52410112D01*
X52031716Y-52407085D01*
X52037039Y-52404567D01*
X52042583Y-52402584D01*
X52048295Y-52401153D01*
X52054119Y-52400289D01*
X52060000Y-52400000D01*
X57940000Y-52400000D01*
X57945881Y-52400289D01*
X57945881Y-52400289D01*
G37*
D14*
X55000000Y-53000000D03*
D11*
%TO.N,/LED_1.1_B*%
X52900000Y-51800000D03*
%TD*%
%TO.N,/LED_1.2_G*%
%TO.C,D1.2*%
X53600000Y-63000000D03*
%TO.N,/LED_1.2_B*%
X53600000Y-61800000D03*
%TO.N,/LED_1.2_R*%
X53600000Y-64200000D03*
%TO.N,/LED_1.2_G*%
X55000000Y-63000000D03*
%TO.N,/LED_1.2_R*%
X55000000Y-64200000D03*
%TO.N,/LED_1.2_B*%
X55000000Y-61800000D03*
%TO.N,/LED_1.2_R*%
X55700000Y-64200000D03*
X54300000Y-64200000D03*
X52900000Y-64200000D03*
%TO.N,/LED_1.2_G*%
X54300000Y-63000000D03*
X55700000Y-63000000D03*
X52900000Y-63000000D03*
%TO.N,/LED_1.2_B*%
X54300000Y-61800000D03*
X55700000Y-61800000D03*
D12*
%TO.N,/LED_1.2_R*%
G36*
X57936861Y-63800337D02*
X57943656Y-63801345D01*
X57950320Y-63803014D01*
X57956788Y-63805328D01*
X57962998Y-63808266D01*
X57968890Y-63811797D01*
X57974408Y-63815889D01*
X57979497Y-63820503D01*
X57984111Y-63825592D01*
X57988203Y-63831110D01*
X57991734Y-63837002D01*
X57994672Y-63843212D01*
X57996986Y-63849680D01*
X57998655Y-63856344D01*
X57999663Y-63863139D01*
X58000000Y-63870000D01*
X58000000Y-65130000D01*
X57999663Y-65136861D01*
X57998655Y-65143656D01*
X57996986Y-65150320D01*
X57994672Y-65156788D01*
X57991734Y-65162998D01*
X57988203Y-65168890D01*
X57984111Y-65174408D01*
X57979497Y-65179497D01*
X57974408Y-65184111D01*
X57968890Y-65188203D01*
X57962998Y-65191734D01*
X57956788Y-65194672D01*
X57950320Y-65196986D01*
X57943656Y-65198655D01*
X57936861Y-65199663D01*
X57930000Y-65200000D01*
X52070000Y-65200000D01*
X52063139Y-65199663D01*
X52056344Y-65198655D01*
X52049680Y-65196986D01*
X52043212Y-65194672D01*
X52037002Y-65191734D01*
X52031110Y-65188203D01*
X52025592Y-65184111D01*
X52020503Y-65179497D01*
X52015889Y-65174408D01*
X52011797Y-65168890D01*
X52008266Y-65162998D01*
X52005328Y-65156788D01*
X52003014Y-65150320D01*
X52001345Y-65143656D01*
X52000337Y-65136861D01*
X52000000Y-65130000D01*
X52000000Y-63870000D01*
X52000337Y-63863139D01*
X52001345Y-63856344D01*
X52003014Y-63849680D01*
X52005328Y-63843212D01*
X52008266Y-63837002D01*
X52011797Y-63831110D01*
X52015889Y-63825592D01*
X52020503Y-63820503D01*
X52025592Y-63815889D01*
X52031110Y-63811797D01*
X52037002Y-63808266D01*
X52043212Y-63805328D01*
X52049680Y-63803014D01*
X52056344Y-63801345D01*
X52063139Y-63800337D01*
X52070000Y-63800000D01*
X57930000Y-63800000D01*
X57936861Y-63800337D01*
X57936861Y-63800337D01*
G37*
D13*
X55000000Y-64500000D03*
D12*
%TO.N,/LED_1.2_B*%
G36*
X57936861Y-60800337D02*
X57943656Y-60801345D01*
X57950320Y-60803014D01*
X57956788Y-60805328D01*
X57962998Y-60808266D01*
X57968890Y-60811797D01*
X57974408Y-60815889D01*
X57979497Y-60820503D01*
X57984111Y-60825592D01*
X57988203Y-60831110D01*
X57991734Y-60837002D01*
X57994672Y-60843212D01*
X57996986Y-60849680D01*
X57998655Y-60856344D01*
X57999663Y-60863139D01*
X58000000Y-60870000D01*
X58000000Y-62130000D01*
X57999663Y-62136861D01*
X57998655Y-62143656D01*
X57996986Y-62150320D01*
X57994672Y-62156788D01*
X57991734Y-62162998D01*
X57988203Y-62168890D01*
X57984111Y-62174408D01*
X57979497Y-62179497D01*
X57974408Y-62184111D01*
X57968890Y-62188203D01*
X57962998Y-62191734D01*
X57956788Y-62194672D01*
X57950320Y-62196986D01*
X57943656Y-62198655D01*
X57936861Y-62199663D01*
X57930000Y-62200000D01*
X52070000Y-62200000D01*
X52063139Y-62199663D01*
X52056344Y-62198655D01*
X52049680Y-62196986D01*
X52043212Y-62194672D01*
X52037002Y-62191734D01*
X52031110Y-62188203D01*
X52025592Y-62184111D01*
X52020503Y-62179497D01*
X52015889Y-62174408D01*
X52011797Y-62168890D01*
X52008266Y-62162998D01*
X52005328Y-62156788D01*
X52003014Y-62150320D01*
X52001345Y-62143656D01*
X52000337Y-62136861D01*
X52000000Y-62130000D01*
X52000000Y-60870000D01*
X52000337Y-60863139D01*
X52001345Y-60856344D01*
X52003014Y-60849680D01*
X52005328Y-60843212D01*
X52008266Y-60837002D01*
X52011797Y-60831110D01*
X52015889Y-60825592D01*
X52020503Y-60820503D01*
X52025592Y-60815889D01*
X52031110Y-60811797D01*
X52037002Y-60808266D01*
X52043212Y-60805328D01*
X52049680Y-60803014D01*
X52056344Y-60801345D01*
X52063139Y-60800337D01*
X52070000Y-60800000D01*
X57930000Y-60800000D01*
X57936861Y-60800337D01*
X57936861Y-60800337D01*
G37*
D13*
X55000000Y-61500000D03*
D12*
%TO.N,/LED_1.2_G*%
G36*
X57945881Y-62400289D02*
X57951705Y-62401153D01*
X57957417Y-62402584D01*
X57962961Y-62404567D01*
X57968284Y-62407085D01*
X57973334Y-62410112D01*
X57978064Y-62413619D01*
X57982426Y-62417574D01*
X57986381Y-62421936D01*
X57989888Y-62426666D01*
X57992915Y-62431716D01*
X57995433Y-62437039D01*
X57997416Y-62442583D01*
X57998847Y-62448295D01*
X57999711Y-62454119D01*
X58000000Y-62460000D01*
X58000000Y-63540000D01*
X57999711Y-63545881D01*
X57998847Y-63551705D01*
X57997416Y-63557417D01*
X57995433Y-63562961D01*
X57992915Y-63568284D01*
X57989888Y-63573334D01*
X57986381Y-63578064D01*
X57982426Y-63582426D01*
X57978064Y-63586381D01*
X57973334Y-63589888D01*
X57968284Y-63592915D01*
X57962961Y-63595433D01*
X57957417Y-63597416D01*
X57951705Y-63598847D01*
X57945881Y-63599711D01*
X57940000Y-63600000D01*
X52060000Y-63600000D01*
X52054119Y-63599711D01*
X52048295Y-63598847D01*
X52042583Y-63597416D01*
X52037039Y-63595433D01*
X52031716Y-63592915D01*
X52026666Y-63589888D01*
X52021936Y-63586381D01*
X52017574Y-63582426D01*
X52013619Y-63578064D01*
X52010112Y-63573334D01*
X52007085Y-63568284D01*
X52004567Y-63562961D01*
X52002584Y-63557417D01*
X52001153Y-63551705D01*
X52000289Y-63545881D01*
X52000000Y-63540000D01*
X52000000Y-62460000D01*
X52000289Y-62454119D01*
X52001153Y-62448295D01*
X52002584Y-62442583D01*
X52004567Y-62437039D01*
X52007085Y-62431716D01*
X52010112Y-62426666D01*
X52013619Y-62421936D01*
X52017574Y-62417574D01*
X52021936Y-62413619D01*
X52026666Y-62410112D01*
X52031716Y-62407085D01*
X52037039Y-62404567D01*
X52042583Y-62402584D01*
X52048295Y-62401153D01*
X52054119Y-62400289D01*
X52060000Y-62400000D01*
X57940000Y-62400000D01*
X57945881Y-62400289D01*
X57945881Y-62400289D01*
G37*
D14*
X55000000Y-63000000D03*
D11*
%TO.N,/LED_1.2_B*%
X52900000Y-61800000D03*
%TD*%
%TO.N,/LED_1.3_G*%
%TO.C,D1.3*%
X53600000Y-73000000D03*
%TO.N,/LED_1.3_B*%
X53600000Y-71800000D03*
%TO.N,/LED_1.3_R*%
X53600000Y-74200000D03*
%TO.N,/LED_1.3_G*%
X55000000Y-73000000D03*
%TO.N,/LED_1.3_R*%
X55000000Y-74200000D03*
%TO.N,/LED_1.3_B*%
X55000000Y-71800000D03*
%TO.N,/LED_1.3_R*%
X55700000Y-74200000D03*
X54300000Y-74200000D03*
X52900000Y-74200000D03*
%TO.N,/LED_1.3_G*%
X54300000Y-73000000D03*
X55700000Y-73000000D03*
X52900000Y-73000000D03*
%TO.N,/LED_1.3_B*%
X54300000Y-71800000D03*
X55700000Y-71800000D03*
D12*
%TO.N,/LED_1.3_R*%
G36*
X57936861Y-73800337D02*
X57943656Y-73801345D01*
X57950320Y-73803014D01*
X57956788Y-73805328D01*
X57962998Y-73808266D01*
X57968890Y-73811797D01*
X57974408Y-73815889D01*
X57979497Y-73820503D01*
X57984111Y-73825592D01*
X57988203Y-73831110D01*
X57991734Y-73837002D01*
X57994672Y-73843212D01*
X57996986Y-73849680D01*
X57998655Y-73856344D01*
X57999663Y-73863139D01*
X58000000Y-73870000D01*
X58000000Y-75130000D01*
X57999663Y-75136861D01*
X57998655Y-75143656D01*
X57996986Y-75150320D01*
X57994672Y-75156788D01*
X57991734Y-75162998D01*
X57988203Y-75168890D01*
X57984111Y-75174408D01*
X57979497Y-75179497D01*
X57974408Y-75184111D01*
X57968890Y-75188203D01*
X57962998Y-75191734D01*
X57956788Y-75194672D01*
X57950320Y-75196986D01*
X57943656Y-75198655D01*
X57936861Y-75199663D01*
X57930000Y-75200000D01*
X52070000Y-75200000D01*
X52063139Y-75199663D01*
X52056344Y-75198655D01*
X52049680Y-75196986D01*
X52043212Y-75194672D01*
X52037002Y-75191734D01*
X52031110Y-75188203D01*
X52025592Y-75184111D01*
X52020503Y-75179497D01*
X52015889Y-75174408D01*
X52011797Y-75168890D01*
X52008266Y-75162998D01*
X52005328Y-75156788D01*
X52003014Y-75150320D01*
X52001345Y-75143656D01*
X52000337Y-75136861D01*
X52000000Y-75130000D01*
X52000000Y-73870000D01*
X52000337Y-73863139D01*
X52001345Y-73856344D01*
X52003014Y-73849680D01*
X52005328Y-73843212D01*
X52008266Y-73837002D01*
X52011797Y-73831110D01*
X52015889Y-73825592D01*
X52020503Y-73820503D01*
X52025592Y-73815889D01*
X52031110Y-73811797D01*
X52037002Y-73808266D01*
X52043212Y-73805328D01*
X52049680Y-73803014D01*
X52056344Y-73801345D01*
X52063139Y-73800337D01*
X52070000Y-73800000D01*
X57930000Y-73800000D01*
X57936861Y-73800337D01*
X57936861Y-73800337D01*
G37*
D13*
X55000000Y-74500000D03*
D12*
%TO.N,/LED_1.3_B*%
G36*
X57936861Y-70800337D02*
X57943656Y-70801345D01*
X57950320Y-70803014D01*
X57956788Y-70805328D01*
X57962998Y-70808266D01*
X57968890Y-70811797D01*
X57974408Y-70815889D01*
X57979497Y-70820503D01*
X57984111Y-70825592D01*
X57988203Y-70831110D01*
X57991734Y-70837002D01*
X57994672Y-70843212D01*
X57996986Y-70849680D01*
X57998655Y-70856344D01*
X57999663Y-70863139D01*
X58000000Y-70870000D01*
X58000000Y-72130000D01*
X57999663Y-72136861D01*
X57998655Y-72143656D01*
X57996986Y-72150320D01*
X57994672Y-72156788D01*
X57991734Y-72162998D01*
X57988203Y-72168890D01*
X57984111Y-72174408D01*
X57979497Y-72179497D01*
X57974408Y-72184111D01*
X57968890Y-72188203D01*
X57962998Y-72191734D01*
X57956788Y-72194672D01*
X57950320Y-72196986D01*
X57943656Y-72198655D01*
X57936861Y-72199663D01*
X57930000Y-72200000D01*
X52070000Y-72200000D01*
X52063139Y-72199663D01*
X52056344Y-72198655D01*
X52049680Y-72196986D01*
X52043212Y-72194672D01*
X52037002Y-72191734D01*
X52031110Y-72188203D01*
X52025592Y-72184111D01*
X52020503Y-72179497D01*
X52015889Y-72174408D01*
X52011797Y-72168890D01*
X52008266Y-72162998D01*
X52005328Y-72156788D01*
X52003014Y-72150320D01*
X52001345Y-72143656D01*
X52000337Y-72136861D01*
X52000000Y-72130000D01*
X52000000Y-70870000D01*
X52000337Y-70863139D01*
X52001345Y-70856344D01*
X52003014Y-70849680D01*
X52005328Y-70843212D01*
X52008266Y-70837002D01*
X52011797Y-70831110D01*
X52015889Y-70825592D01*
X52020503Y-70820503D01*
X52025592Y-70815889D01*
X52031110Y-70811797D01*
X52037002Y-70808266D01*
X52043212Y-70805328D01*
X52049680Y-70803014D01*
X52056344Y-70801345D01*
X52063139Y-70800337D01*
X52070000Y-70800000D01*
X57930000Y-70800000D01*
X57936861Y-70800337D01*
X57936861Y-70800337D01*
G37*
D13*
X55000000Y-71500000D03*
D12*
%TO.N,/LED_1.3_G*%
G36*
X57945881Y-72400289D02*
X57951705Y-72401153D01*
X57957417Y-72402584D01*
X57962961Y-72404567D01*
X57968284Y-72407085D01*
X57973334Y-72410112D01*
X57978064Y-72413619D01*
X57982426Y-72417574D01*
X57986381Y-72421936D01*
X57989888Y-72426666D01*
X57992915Y-72431716D01*
X57995433Y-72437039D01*
X57997416Y-72442583D01*
X57998847Y-72448295D01*
X57999711Y-72454119D01*
X58000000Y-72460000D01*
X58000000Y-73540000D01*
X57999711Y-73545881D01*
X57998847Y-73551705D01*
X57997416Y-73557417D01*
X57995433Y-73562961D01*
X57992915Y-73568284D01*
X57989888Y-73573334D01*
X57986381Y-73578064D01*
X57982426Y-73582426D01*
X57978064Y-73586381D01*
X57973334Y-73589888D01*
X57968284Y-73592915D01*
X57962961Y-73595433D01*
X57957417Y-73597416D01*
X57951705Y-73598847D01*
X57945881Y-73599711D01*
X57940000Y-73600000D01*
X52060000Y-73600000D01*
X52054119Y-73599711D01*
X52048295Y-73598847D01*
X52042583Y-73597416D01*
X52037039Y-73595433D01*
X52031716Y-73592915D01*
X52026666Y-73589888D01*
X52021936Y-73586381D01*
X52017574Y-73582426D01*
X52013619Y-73578064D01*
X52010112Y-73573334D01*
X52007085Y-73568284D01*
X52004567Y-73562961D01*
X52002584Y-73557417D01*
X52001153Y-73551705D01*
X52000289Y-73545881D01*
X52000000Y-73540000D01*
X52000000Y-72460000D01*
X52000289Y-72454119D01*
X52001153Y-72448295D01*
X52002584Y-72442583D01*
X52004567Y-72437039D01*
X52007085Y-72431716D01*
X52010112Y-72426666D01*
X52013619Y-72421936D01*
X52017574Y-72417574D01*
X52021936Y-72413619D01*
X52026666Y-72410112D01*
X52031716Y-72407085D01*
X52037039Y-72404567D01*
X52042583Y-72402584D01*
X52048295Y-72401153D01*
X52054119Y-72400289D01*
X52060000Y-72400000D01*
X57940000Y-72400000D01*
X57945881Y-72400289D01*
X57945881Y-72400289D01*
G37*
D14*
X55000000Y-73000000D03*
D11*
%TO.N,/LED_1.3_B*%
X52900000Y-71800000D03*
%TD*%
%TO.N,/LED_1.4_G*%
%TO.C,D1.4*%
X53600000Y-83000000D03*
%TO.N,/LED_1.4_B*%
X53600000Y-81800000D03*
%TO.N,/LED_1.4_R*%
X53600000Y-84200000D03*
%TO.N,/LED_1.4_G*%
X55000000Y-83000000D03*
%TO.N,/LED_1.4_R*%
X55000000Y-84200000D03*
%TO.N,/LED_1.4_B*%
X55000000Y-81800000D03*
%TO.N,/LED_1.4_R*%
X55700000Y-84200000D03*
X54300000Y-84200000D03*
X52900000Y-84200000D03*
%TO.N,/LED_1.4_G*%
X54300000Y-83000000D03*
X55700000Y-83000000D03*
X52900000Y-83000000D03*
%TO.N,/LED_1.4_B*%
X54300000Y-81800000D03*
X55700000Y-81800000D03*
D12*
%TO.N,/LED_1.4_R*%
G36*
X57936861Y-83800337D02*
X57943656Y-83801345D01*
X57950320Y-83803014D01*
X57956788Y-83805328D01*
X57962998Y-83808266D01*
X57968890Y-83811797D01*
X57974408Y-83815889D01*
X57979497Y-83820503D01*
X57984111Y-83825592D01*
X57988203Y-83831110D01*
X57991734Y-83837002D01*
X57994672Y-83843212D01*
X57996986Y-83849680D01*
X57998655Y-83856344D01*
X57999663Y-83863139D01*
X58000000Y-83870000D01*
X58000000Y-85130000D01*
X57999663Y-85136861D01*
X57998655Y-85143656D01*
X57996986Y-85150320D01*
X57994672Y-85156788D01*
X57991734Y-85162998D01*
X57988203Y-85168890D01*
X57984111Y-85174408D01*
X57979497Y-85179497D01*
X57974408Y-85184111D01*
X57968890Y-85188203D01*
X57962998Y-85191734D01*
X57956788Y-85194672D01*
X57950320Y-85196986D01*
X57943656Y-85198655D01*
X57936861Y-85199663D01*
X57930000Y-85200000D01*
X52070000Y-85200000D01*
X52063139Y-85199663D01*
X52056344Y-85198655D01*
X52049680Y-85196986D01*
X52043212Y-85194672D01*
X52037002Y-85191734D01*
X52031110Y-85188203D01*
X52025592Y-85184111D01*
X52020503Y-85179497D01*
X52015889Y-85174408D01*
X52011797Y-85168890D01*
X52008266Y-85162998D01*
X52005328Y-85156788D01*
X52003014Y-85150320D01*
X52001345Y-85143656D01*
X52000337Y-85136861D01*
X52000000Y-85130000D01*
X52000000Y-83870000D01*
X52000337Y-83863139D01*
X52001345Y-83856344D01*
X52003014Y-83849680D01*
X52005328Y-83843212D01*
X52008266Y-83837002D01*
X52011797Y-83831110D01*
X52015889Y-83825592D01*
X52020503Y-83820503D01*
X52025592Y-83815889D01*
X52031110Y-83811797D01*
X52037002Y-83808266D01*
X52043212Y-83805328D01*
X52049680Y-83803014D01*
X52056344Y-83801345D01*
X52063139Y-83800337D01*
X52070000Y-83800000D01*
X57930000Y-83800000D01*
X57936861Y-83800337D01*
X57936861Y-83800337D01*
G37*
D13*
X55000000Y-84500000D03*
D12*
%TO.N,/LED_1.4_B*%
G36*
X57936861Y-80800337D02*
X57943656Y-80801345D01*
X57950320Y-80803014D01*
X57956788Y-80805328D01*
X57962998Y-80808266D01*
X57968890Y-80811797D01*
X57974408Y-80815889D01*
X57979497Y-80820503D01*
X57984111Y-80825592D01*
X57988203Y-80831110D01*
X57991734Y-80837002D01*
X57994672Y-80843212D01*
X57996986Y-80849680D01*
X57998655Y-80856344D01*
X57999663Y-80863139D01*
X58000000Y-80870000D01*
X58000000Y-82130000D01*
X57999663Y-82136861D01*
X57998655Y-82143656D01*
X57996986Y-82150320D01*
X57994672Y-82156788D01*
X57991734Y-82162998D01*
X57988203Y-82168890D01*
X57984111Y-82174408D01*
X57979497Y-82179497D01*
X57974408Y-82184111D01*
X57968890Y-82188203D01*
X57962998Y-82191734D01*
X57956788Y-82194672D01*
X57950320Y-82196986D01*
X57943656Y-82198655D01*
X57936861Y-82199663D01*
X57930000Y-82200000D01*
X52070000Y-82200000D01*
X52063139Y-82199663D01*
X52056344Y-82198655D01*
X52049680Y-82196986D01*
X52043212Y-82194672D01*
X52037002Y-82191734D01*
X52031110Y-82188203D01*
X52025592Y-82184111D01*
X52020503Y-82179497D01*
X52015889Y-82174408D01*
X52011797Y-82168890D01*
X52008266Y-82162998D01*
X52005328Y-82156788D01*
X52003014Y-82150320D01*
X52001345Y-82143656D01*
X52000337Y-82136861D01*
X52000000Y-82130000D01*
X52000000Y-80870000D01*
X52000337Y-80863139D01*
X52001345Y-80856344D01*
X52003014Y-80849680D01*
X52005328Y-80843212D01*
X52008266Y-80837002D01*
X52011797Y-80831110D01*
X52015889Y-80825592D01*
X52020503Y-80820503D01*
X52025592Y-80815889D01*
X52031110Y-80811797D01*
X52037002Y-80808266D01*
X52043212Y-80805328D01*
X52049680Y-80803014D01*
X52056344Y-80801345D01*
X52063139Y-80800337D01*
X52070000Y-80800000D01*
X57930000Y-80800000D01*
X57936861Y-80800337D01*
X57936861Y-80800337D01*
G37*
D13*
X55000000Y-81500000D03*
D12*
%TO.N,/LED_1.4_G*%
G36*
X57945881Y-82400289D02*
X57951705Y-82401153D01*
X57957417Y-82402584D01*
X57962961Y-82404567D01*
X57968284Y-82407085D01*
X57973334Y-82410112D01*
X57978064Y-82413619D01*
X57982426Y-82417574D01*
X57986381Y-82421936D01*
X57989888Y-82426666D01*
X57992915Y-82431716D01*
X57995433Y-82437039D01*
X57997416Y-82442583D01*
X57998847Y-82448295D01*
X57999711Y-82454119D01*
X58000000Y-82460000D01*
X58000000Y-83540000D01*
X57999711Y-83545881D01*
X57998847Y-83551705D01*
X57997416Y-83557417D01*
X57995433Y-83562961D01*
X57992915Y-83568284D01*
X57989888Y-83573334D01*
X57986381Y-83578064D01*
X57982426Y-83582426D01*
X57978064Y-83586381D01*
X57973334Y-83589888D01*
X57968284Y-83592915D01*
X57962961Y-83595433D01*
X57957417Y-83597416D01*
X57951705Y-83598847D01*
X57945881Y-83599711D01*
X57940000Y-83600000D01*
X52060000Y-83600000D01*
X52054119Y-83599711D01*
X52048295Y-83598847D01*
X52042583Y-83597416D01*
X52037039Y-83595433D01*
X52031716Y-83592915D01*
X52026666Y-83589888D01*
X52021936Y-83586381D01*
X52017574Y-83582426D01*
X52013619Y-83578064D01*
X52010112Y-83573334D01*
X52007085Y-83568284D01*
X52004567Y-83562961D01*
X52002584Y-83557417D01*
X52001153Y-83551705D01*
X52000289Y-83545881D01*
X52000000Y-83540000D01*
X52000000Y-82460000D01*
X52000289Y-82454119D01*
X52001153Y-82448295D01*
X52002584Y-82442583D01*
X52004567Y-82437039D01*
X52007085Y-82431716D01*
X52010112Y-82426666D01*
X52013619Y-82421936D01*
X52017574Y-82417574D01*
X52021936Y-82413619D01*
X52026666Y-82410112D01*
X52031716Y-82407085D01*
X52037039Y-82404567D01*
X52042583Y-82402584D01*
X52048295Y-82401153D01*
X52054119Y-82400289D01*
X52060000Y-82400000D01*
X57940000Y-82400000D01*
X57945881Y-82400289D01*
X57945881Y-82400289D01*
G37*
D14*
X55000000Y-83000000D03*
D11*
%TO.N,/LED_1.4_B*%
X52900000Y-81800000D03*
%TD*%
%TO.N,/LED_2.1_G*%
%TO.C,D2.1*%
X63600000Y-53000000D03*
%TO.N,/LED_2.1_B*%
X63600000Y-51800000D03*
%TO.N,/LED_2.1_R*%
X63600000Y-54200000D03*
%TO.N,/LED_2.1_G*%
X65000000Y-53000000D03*
%TO.N,/LED_2.1_R*%
X65000000Y-54200000D03*
%TO.N,/LED_2.1_B*%
X65000000Y-51800000D03*
%TO.N,/LED_2.1_R*%
X65700000Y-54200000D03*
X64300000Y-54200000D03*
X62900000Y-54200000D03*
%TO.N,/LED_2.1_G*%
X64300000Y-53000000D03*
X65700000Y-53000000D03*
X62900000Y-53000000D03*
%TO.N,/LED_2.1_B*%
X64300000Y-51800000D03*
X65700000Y-51800000D03*
D12*
%TO.N,/LED_2.1_R*%
G36*
X67936861Y-53800337D02*
X67943656Y-53801345D01*
X67950320Y-53803014D01*
X67956788Y-53805328D01*
X67962998Y-53808266D01*
X67968890Y-53811797D01*
X67974408Y-53815889D01*
X67979497Y-53820503D01*
X67984111Y-53825592D01*
X67988203Y-53831110D01*
X67991734Y-53837002D01*
X67994672Y-53843212D01*
X67996986Y-53849680D01*
X67998655Y-53856344D01*
X67999663Y-53863139D01*
X68000000Y-53870000D01*
X68000000Y-55130000D01*
X67999663Y-55136861D01*
X67998655Y-55143656D01*
X67996986Y-55150320D01*
X67994672Y-55156788D01*
X67991734Y-55162998D01*
X67988203Y-55168890D01*
X67984111Y-55174408D01*
X67979497Y-55179497D01*
X67974408Y-55184111D01*
X67968890Y-55188203D01*
X67962998Y-55191734D01*
X67956788Y-55194672D01*
X67950320Y-55196986D01*
X67943656Y-55198655D01*
X67936861Y-55199663D01*
X67930000Y-55200000D01*
X62070000Y-55200000D01*
X62063139Y-55199663D01*
X62056344Y-55198655D01*
X62049680Y-55196986D01*
X62043212Y-55194672D01*
X62037002Y-55191734D01*
X62031110Y-55188203D01*
X62025592Y-55184111D01*
X62020503Y-55179497D01*
X62015889Y-55174408D01*
X62011797Y-55168890D01*
X62008266Y-55162998D01*
X62005328Y-55156788D01*
X62003014Y-55150320D01*
X62001345Y-55143656D01*
X62000337Y-55136861D01*
X62000000Y-55130000D01*
X62000000Y-53870000D01*
X62000337Y-53863139D01*
X62001345Y-53856344D01*
X62003014Y-53849680D01*
X62005328Y-53843212D01*
X62008266Y-53837002D01*
X62011797Y-53831110D01*
X62015889Y-53825592D01*
X62020503Y-53820503D01*
X62025592Y-53815889D01*
X62031110Y-53811797D01*
X62037002Y-53808266D01*
X62043212Y-53805328D01*
X62049680Y-53803014D01*
X62056344Y-53801345D01*
X62063139Y-53800337D01*
X62070000Y-53800000D01*
X67930000Y-53800000D01*
X67936861Y-53800337D01*
X67936861Y-53800337D01*
G37*
D13*
X65000000Y-54500000D03*
D12*
%TO.N,/LED_2.1_B*%
G36*
X67936861Y-50800337D02*
X67943656Y-50801345D01*
X67950320Y-50803014D01*
X67956788Y-50805328D01*
X67962998Y-50808266D01*
X67968890Y-50811797D01*
X67974408Y-50815889D01*
X67979497Y-50820503D01*
X67984111Y-50825592D01*
X67988203Y-50831110D01*
X67991734Y-50837002D01*
X67994672Y-50843212D01*
X67996986Y-50849680D01*
X67998655Y-50856344D01*
X67999663Y-50863139D01*
X68000000Y-50870000D01*
X68000000Y-52130000D01*
X67999663Y-52136861D01*
X67998655Y-52143656D01*
X67996986Y-52150320D01*
X67994672Y-52156788D01*
X67991734Y-52162998D01*
X67988203Y-52168890D01*
X67984111Y-52174408D01*
X67979497Y-52179497D01*
X67974408Y-52184111D01*
X67968890Y-52188203D01*
X67962998Y-52191734D01*
X67956788Y-52194672D01*
X67950320Y-52196986D01*
X67943656Y-52198655D01*
X67936861Y-52199663D01*
X67930000Y-52200000D01*
X62070000Y-52200000D01*
X62063139Y-52199663D01*
X62056344Y-52198655D01*
X62049680Y-52196986D01*
X62043212Y-52194672D01*
X62037002Y-52191734D01*
X62031110Y-52188203D01*
X62025592Y-52184111D01*
X62020503Y-52179497D01*
X62015889Y-52174408D01*
X62011797Y-52168890D01*
X62008266Y-52162998D01*
X62005328Y-52156788D01*
X62003014Y-52150320D01*
X62001345Y-52143656D01*
X62000337Y-52136861D01*
X62000000Y-52130000D01*
X62000000Y-50870000D01*
X62000337Y-50863139D01*
X62001345Y-50856344D01*
X62003014Y-50849680D01*
X62005328Y-50843212D01*
X62008266Y-50837002D01*
X62011797Y-50831110D01*
X62015889Y-50825592D01*
X62020503Y-50820503D01*
X62025592Y-50815889D01*
X62031110Y-50811797D01*
X62037002Y-50808266D01*
X62043212Y-50805328D01*
X62049680Y-50803014D01*
X62056344Y-50801345D01*
X62063139Y-50800337D01*
X62070000Y-50800000D01*
X67930000Y-50800000D01*
X67936861Y-50800337D01*
X67936861Y-50800337D01*
G37*
D13*
X65000000Y-51500000D03*
D12*
%TO.N,/LED_2.1_G*%
G36*
X67945881Y-52400289D02*
X67951705Y-52401153D01*
X67957417Y-52402584D01*
X67962961Y-52404567D01*
X67968284Y-52407085D01*
X67973334Y-52410112D01*
X67978064Y-52413619D01*
X67982426Y-52417574D01*
X67986381Y-52421936D01*
X67989888Y-52426666D01*
X67992915Y-52431716D01*
X67995433Y-52437039D01*
X67997416Y-52442583D01*
X67998847Y-52448295D01*
X67999711Y-52454119D01*
X68000000Y-52460000D01*
X68000000Y-53540000D01*
X67999711Y-53545881D01*
X67998847Y-53551705D01*
X67997416Y-53557417D01*
X67995433Y-53562961D01*
X67992915Y-53568284D01*
X67989888Y-53573334D01*
X67986381Y-53578064D01*
X67982426Y-53582426D01*
X67978064Y-53586381D01*
X67973334Y-53589888D01*
X67968284Y-53592915D01*
X67962961Y-53595433D01*
X67957417Y-53597416D01*
X67951705Y-53598847D01*
X67945881Y-53599711D01*
X67940000Y-53600000D01*
X62060000Y-53600000D01*
X62054119Y-53599711D01*
X62048295Y-53598847D01*
X62042583Y-53597416D01*
X62037039Y-53595433D01*
X62031716Y-53592915D01*
X62026666Y-53589888D01*
X62021936Y-53586381D01*
X62017574Y-53582426D01*
X62013619Y-53578064D01*
X62010112Y-53573334D01*
X62007085Y-53568284D01*
X62004567Y-53562961D01*
X62002584Y-53557417D01*
X62001153Y-53551705D01*
X62000289Y-53545881D01*
X62000000Y-53540000D01*
X62000000Y-52460000D01*
X62000289Y-52454119D01*
X62001153Y-52448295D01*
X62002584Y-52442583D01*
X62004567Y-52437039D01*
X62007085Y-52431716D01*
X62010112Y-52426666D01*
X62013619Y-52421936D01*
X62017574Y-52417574D01*
X62021936Y-52413619D01*
X62026666Y-52410112D01*
X62031716Y-52407085D01*
X62037039Y-52404567D01*
X62042583Y-52402584D01*
X62048295Y-52401153D01*
X62054119Y-52400289D01*
X62060000Y-52400000D01*
X67940000Y-52400000D01*
X67945881Y-52400289D01*
X67945881Y-52400289D01*
G37*
D14*
X65000000Y-53000000D03*
D11*
%TO.N,/LED_2.1_B*%
X62900000Y-51800000D03*
%TD*%
%TO.N,/LED_2.2_G*%
%TO.C,D2.2*%
X63600000Y-63000000D03*
%TO.N,/LED_2.2_B*%
X63600000Y-61800000D03*
%TO.N,/LED_2.2_R*%
X63600000Y-64200000D03*
%TO.N,/LED_2.2_G*%
X65000000Y-63000000D03*
%TO.N,/LED_2.2_R*%
X65000000Y-64200000D03*
%TO.N,/LED_2.2_B*%
X65000000Y-61800000D03*
%TO.N,/LED_2.2_R*%
X65700000Y-64200000D03*
X64300000Y-64200000D03*
X62900000Y-64200000D03*
%TO.N,/LED_2.2_G*%
X64300000Y-63000000D03*
X65700000Y-63000000D03*
X62900000Y-63000000D03*
%TO.N,/LED_2.2_B*%
X64300000Y-61800000D03*
X65700000Y-61800000D03*
D12*
%TO.N,/LED_2.2_R*%
G36*
X67936861Y-63800337D02*
X67943656Y-63801345D01*
X67950320Y-63803014D01*
X67956788Y-63805328D01*
X67962998Y-63808266D01*
X67968890Y-63811797D01*
X67974408Y-63815889D01*
X67979497Y-63820503D01*
X67984111Y-63825592D01*
X67988203Y-63831110D01*
X67991734Y-63837002D01*
X67994672Y-63843212D01*
X67996986Y-63849680D01*
X67998655Y-63856344D01*
X67999663Y-63863139D01*
X68000000Y-63870000D01*
X68000000Y-65130000D01*
X67999663Y-65136861D01*
X67998655Y-65143656D01*
X67996986Y-65150320D01*
X67994672Y-65156788D01*
X67991734Y-65162998D01*
X67988203Y-65168890D01*
X67984111Y-65174408D01*
X67979497Y-65179497D01*
X67974408Y-65184111D01*
X67968890Y-65188203D01*
X67962998Y-65191734D01*
X67956788Y-65194672D01*
X67950320Y-65196986D01*
X67943656Y-65198655D01*
X67936861Y-65199663D01*
X67930000Y-65200000D01*
X62070000Y-65200000D01*
X62063139Y-65199663D01*
X62056344Y-65198655D01*
X62049680Y-65196986D01*
X62043212Y-65194672D01*
X62037002Y-65191734D01*
X62031110Y-65188203D01*
X62025592Y-65184111D01*
X62020503Y-65179497D01*
X62015889Y-65174408D01*
X62011797Y-65168890D01*
X62008266Y-65162998D01*
X62005328Y-65156788D01*
X62003014Y-65150320D01*
X62001345Y-65143656D01*
X62000337Y-65136861D01*
X62000000Y-65130000D01*
X62000000Y-63870000D01*
X62000337Y-63863139D01*
X62001345Y-63856344D01*
X62003014Y-63849680D01*
X62005328Y-63843212D01*
X62008266Y-63837002D01*
X62011797Y-63831110D01*
X62015889Y-63825592D01*
X62020503Y-63820503D01*
X62025592Y-63815889D01*
X62031110Y-63811797D01*
X62037002Y-63808266D01*
X62043212Y-63805328D01*
X62049680Y-63803014D01*
X62056344Y-63801345D01*
X62063139Y-63800337D01*
X62070000Y-63800000D01*
X67930000Y-63800000D01*
X67936861Y-63800337D01*
X67936861Y-63800337D01*
G37*
D13*
X65000000Y-64500000D03*
D12*
%TO.N,/LED_2.2_B*%
G36*
X67936861Y-60800337D02*
X67943656Y-60801345D01*
X67950320Y-60803014D01*
X67956788Y-60805328D01*
X67962998Y-60808266D01*
X67968890Y-60811797D01*
X67974408Y-60815889D01*
X67979497Y-60820503D01*
X67984111Y-60825592D01*
X67988203Y-60831110D01*
X67991734Y-60837002D01*
X67994672Y-60843212D01*
X67996986Y-60849680D01*
X67998655Y-60856344D01*
X67999663Y-60863139D01*
X68000000Y-60870000D01*
X68000000Y-62130000D01*
X67999663Y-62136861D01*
X67998655Y-62143656D01*
X67996986Y-62150320D01*
X67994672Y-62156788D01*
X67991734Y-62162998D01*
X67988203Y-62168890D01*
X67984111Y-62174408D01*
X67979497Y-62179497D01*
X67974408Y-62184111D01*
X67968890Y-62188203D01*
X67962998Y-62191734D01*
X67956788Y-62194672D01*
X67950320Y-62196986D01*
X67943656Y-62198655D01*
X67936861Y-62199663D01*
X67930000Y-62200000D01*
X62070000Y-62200000D01*
X62063139Y-62199663D01*
X62056344Y-62198655D01*
X62049680Y-62196986D01*
X62043212Y-62194672D01*
X62037002Y-62191734D01*
X62031110Y-62188203D01*
X62025592Y-62184111D01*
X62020503Y-62179497D01*
X62015889Y-62174408D01*
X62011797Y-62168890D01*
X62008266Y-62162998D01*
X62005328Y-62156788D01*
X62003014Y-62150320D01*
X62001345Y-62143656D01*
X62000337Y-62136861D01*
X62000000Y-62130000D01*
X62000000Y-60870000D01*
X62000337Y-60863139D01*
X62001345Y-60856344D01*
X62003014Y-60849680D01*
X62005328Y-60843212D01*
X62008266Y-60837002D01*
X62011797Y-60831110D01*
X62015889Y-60825592D01*
X62020503Y-60820503D01*
X62025592Y-60815889D01*
X62031110Y-60811797D01*
X62037002Y-60808266D01*
X62043212Y-60805328D01*
X62049680Y-60803014D01*
X62056344Y-60801345D01*
X62063139Y-60800337D01*
X62070000Y-60800000D01*
X67930000Y-60800000D01*
X67936861Y-60800337D01*
X67936861Y-60800337D01*
G37*
D13*
X65000000Y-61500000D03*
D12*
%TO.N,/LED_2.2_G*%
G36*
X67945881Y-62400289D02*
X67951705Y-62401153D01*
X67957417Y-62402584D01*
X67962961Y-62404567D01*
X67968284Y-62407085D01*
X67973334Y-62410112D01*
X67978064Y-62413619D01*
X67982426Y-62417574D01*
X67986381Y-62421936D01*
X67989888Y-62426666D01*
X67992915Y-62431716D01*
X67995433Y-62437039D01*
X67997416Y-62442583D01*
X67998847Y-62448295D01*
X67999711Y-62454119D01*
X68000000Y-62460000D01*
X68000000Y-63540000D01*
X67999711Y-63545881D01*
X67998847Y-63551705D01*
X67997416Y-63557417D01*
X67995433Y-63562961D01*
X67992915Y-63568284D01*
X67989888Y-63573334D01*
X67986381Y-63578064D01*
X67982426Y-63582426D01*
X67978064Y-63586381D01*
X67973334Y-63589888D01*
X67968284Y-63592915D01*
X67962961Y-63595433D01*
X67957417Y-63597416D01*
X67951705Y-63598847D01*
X67945881Y-63599711D01*
X67940000Y-63600000D01*
X62060000Y-63600000D01*
X62054119Y-63599711D01*
X62048295Y-63598847D01*
X62042583Y-63597416D01*
X62037039Y-63595433D01*
X62031716Y-63592915D01*
X62026666Y-63589888D01*
X62021936Y-63586381D01*
X62017574Y-63582426D01*
X62013619Y-63578064D01*
X62010112Y-63573334D01*
X62007085Y-63568284D01*
X62004567Y-63562961D01*
X62002584Y-63557417D01*
X62001153Y-63551705D01*
X62000289Y-63545881D01*
X62000000Y-63540000D01*
X62000000Y-62460000D01*
X62000289Y-62454119D01*
X62001153Y-62448295D01*
X62002584Y-62442583D01*
X62004567Y-62437039D01*
X62007085Y-62431716D01*
X62010112Y-62426666D01*
X62013619Y-62421936D01*
X62017574Y-62417574D01*
X62021936Y-62413619D01*
X62026666Y-62410112D01*
X62031716Y-62407085D01*
X62037039Y-62404567D01*
X62042583Y-62402584D01*
X62048295Y-62401153D01*
X62054119Y-62400289D01*
X62060000Y-62400000D01*
X67940000Y-62400000D01*
X67945881Y-62400289D01*
X67945881Y-62400289D01*
G37*
D14*
X65000000Y-63000000D03*
D11*
%TO.N,/LED_2.2_B*%
X62900000Y-61800000D03*
%TD*%
%TO.N,/LED_2.3_G*%
%TO.C,D2.3*%
X63600000Y-73000000D03*
%TO.N,/LED_2.3_B*%
X63600000Y-71800000D03*
%TO.N,/LED_2.3_R*%
X63600000Y-74200000D03*
%TO.N,/LED_2.3_G*%
X65000000Y-73000000D03*
%TO.N,/LED_2.3_R*%
X65000000Y-74200000D03*
%TO.N,/LED_2.3_B*%
X65000000Y-71800000D03*
%TO.N,/LED_2.3_R*%
X65700000Y-74200000D03*
X64300000Y-74200000D03*
X62900000Y-74200000D03*
%TO.N,/LED_2.3_G*%
X64300000Y-73000000D03*
X65700000Y-73000000D03*
X62900000Y-73000000D03*
%TO.N,/LED_2.3_B*%
X64300000Y-71800000D03*
X65700000Y-71800000D03*
D12*
%TO.N,/LED_2.3_R*%
G36*
X67936861Y-73800337D02*
X67943656Y-73801345D01*
X67950320Y-73803014D01*
X67956788Y-73805328D01*
X67962998Y-73808266D01*
X67968890Y-73811797D01*
X67974408Y-73815889D01*
X67979497Y-73820503D01*
X67984111Y-73825592D01*
X67988203Y-73831110D01*
X67991734Y-73837002D01*
X67994672Y-73843212D01*
X67996986Y-73849680D01*
X67998655Y-73856344D01*
X67999663Y-73863139D01*
X68000000Y-73870000D01*
X68000000Y-75130000D01*
X67999663Y-75136861D01*
X67998655Y-75143656D01*
X67996986Y-75150320D01*
X67994672Y-75156788D01*
X67991734Y-75162998D01*
X67988203Y-75168890D01*
X67984111Y-75174408D01*
X67979497Y-75179497D01*
X67974408Y-75184111D01*
X67968890Y-75188203D01*
X67962998Y-75191734D01*
X67956788Y-75194672D01*
X67950320Y-75196986D01*
X67943656Y-75198655D01*
X67936861Y-75199663D01*
X67930000Y-75200000D01*
X62070000Y-75200000D01*
X62063139Y-75199663D01*
X62056344Y-75198655D01*
X62049680Y-75196986D01*
X62043212Y-75194672D01*
X62037002Y-75191734D01*
X62031110Y-75188203D01*
X62025592Y-75184111D01*
X62020503Y-75179497D01*
X62015889Y-75174408D01*
X62011797Y-75168890D01*
X62008266Y-75162998D01*
X62005328Y-75156788D01*
X62003014Y-75150320D01*
X62001345Y-75143656D01*
X62000337Y-75136861D01*
X62000000Y-75130000D01*
X62000000Y-73870000D01*
X62000337Y-73863139D01*
X62001345Y-73856344D01*
X62003014Y-73849680D01*
X62005328Y-73843212D01*
X62008266Y-73837002D01*
X62011797Y-73831110D01*
X62015889Y-73825592D01*
X62020503Y-73820503D01*
X62025592Y-73815889D01*
X62031110Y-73811797D01*
X62037002Y-73808266D01*
X62043212Y-73805328D01*
X62049680Y-73803014D01*
X62056344Y-73801345D01*
X62063139Y-73800337D01*
X62070000Y-73800000D01*
X67930000Y-73800000D01*
X67936861Y-73800337D01*
X67936861Y-73800337D01*
G37*
D13*
X65000000Y-74500000D03*
D12*
%TO.N,/LED_2.3_B*%
G36*
X67936861Y-70800337D02*
X67943656Y-70801345D01*
X67950320Y-70803014D01*
X67956788Y-70805328D01*
X67962998Y-70808266D01*
X67968890Y-70811797D01*
X67974408Y-70815889D01*
X67979497Y-70820503D01*
X67984111Y-70825592D01*
X67988203Y-70831110D01*
X67991734Y-70837002D01*
X67994672Y-70843212D01*
X67996986Y-70849680D01*
X67998655Y-70856344D01*
X67999663Y-70863139D01*
X68000000Y-70870000D01*
X68000000Y-72130000D01*
X67999663Y-72136861D01*
X67998655Y-72143656D01*
X67996986Y-72150320D01*
X67994672Y-72156788D01*
X67991734Y-72162998D01*
X67988203Y-72168890D01*
X67984111Y-72174408D01*
X67979497Y-72179497D01*
X67974408Y-72184111D01*
X67968890Y-72188203D01*
X67962998Y-72191734D01*
X67956788Y-72194672D01*
X67950320Y-72196986D01*
X67943656Y-72198655D01*
X67936861Y-72199663D01*
X67930000Y-72200000D01*
X62070000Y-72200000D01*
X62063139Y-72199663D01*
X62056344Y-72198655D01*
X62049680Y-72196986D01*
X62043212Y-72194672D01*
X62037002Y-72191734D01*
X62031110Y-72188203D01*
X62025592Y-72184111D01*
X62020503Y-72179497D01*
X62015889Y-72174408D01*
X62011797Y-72168890D01*
X62008266Y-72162998D01*
X62005328Y-72156788D01*
X62003014Y-72150320D01*
X62001345Y-72143656D01*
X62000337Y-72136861D01*
X62000000Y-72130000D01*
X62000000Y-70870000D01*
X62000337Y-70863139D01*
X62001345Y-70856344D01*
X62003014Y-70849680D01*
X62005328Y-70843212D01*
X62008266Y-70837002D01*
X62011797Y-70831110D01*
X62015889Y-70825592D01*
X62020503Y-70820503D01*
X62025592Y-70815889D01*
X62031110Y-70811797D01*
X62037002Y-70808266D01*
X62043212Y-70805328D01*
X62049680Y-70803014D01*
X62056344Y-70801345D01*
X62063139Y-70800337D01*
X62070000Y-70800000D01*
X67930000Y-70800000D01*
X67936861Y-70800337D01*
X67936861Y-70800337D01*
G37*
D13*
X65000000Y-71500000D03*
D12*
%TO.N,/LED_2.3_G*%
G36*
X67945881Y-72400289D02*
X67951705Y-72401153D01*
X67957417Y-72402584D01*
X67962961Y-72404567D01*
X67968284Y-72407085D01*
X67973334Y-72410112D01*
X67978064Y-72413619D01*
X67982426Y-72417574D01*
X67986381Y-72421936D01*
X67989888Y-72426666D01*
X67992915Y-72431716D01*
X67995433Y-72437039D01*
X67997416Y-72442583D01*
X67998847Y-72448295D01*
X67999711Y-72454119D01*
X68000000Y-72460000D01*
X68000000Y-73540000D01*
X67999711Y-73545881D01*
X67998847Y-73551705D01*
X67997416Y-73557417D01*
X67995433Y-73562961D01*
X67992915Y-73568284D01*
X67989888Y-73573334D01*
X67986381Y-73578064D01*
X67982426Y-73582426D01*
X67978064Y-73586381D01*
X67973334Y-73589888D01*
X67968284Y-73592915D01*
X67962961Y-73595433D01*
X67957417Y-73597416D01*
X67951705Y-73598847D01*
X67945881Y-73599711D01*
X67940000Y-73600000D01*
X62060000Y-73600000D01*
X62054119Y-73599711D01*
X62048295Y-73598847D01*
X62042583Y-73597416D01*
X62037039Y-73595433D01*
X62031716Y-73592915D01*
X62026666Y-73589888D01*
X62021936Y-73586381D01*
X62017574Y-73582426D01*
X62013619Y-73578064D01*
X62010112Y-73573334D01*
X62007085Y-73568284D01*
X62004567Y-73562961D01*
X62002584Y-73557417D01*
X62001153Y-73551705D01*
X62000289Y-73545881D01*
X62000000Y-73540000D01*
X62000000Y-72460000D01*
X62000289Y-72454119D01*
X62001153Y-72448295D01*
X62002584Y-72442583D01*
X62004567Y-72437039D01*
X62007085Y-72431716D01*
X62010112Y-72426666D01*
X62013619Y-72421936D01*
X62017574Y-72417574D01*
X62021936Y-72413619D01*
X62026666Y-72410112D01*
X62031716Y-72407085D01*
X62037039Y-72404567D01*
X62042583Y-72402584D01*
X62048295Y-72401153D01*
X62054119Y-72400289D01*
X62060000Y-72400000D01*
X67940000Y-72400000D01*
X67945881Y-72400289D01*
X67945881Y-72400289D01*
G37*
D14*
X65000000Y-73000000D03*
D11*
%TO.N,/LED_2.3_B*%
X62900000Y-71800000D03*
%TD*%
%TO.N,/LED_2.4_G*%
%TO.C,D2.4*%
X63600000Y-83000000D03*
%TO.N,/LED_2.4_B*%
X63600000Y-81800000D03*
%TO.N,/LED_2.4_R*%
X63600000Y-84200000D03*
%TO.N,/LED_2.4_G*%
X65000000Y-83000000D03*
%TO.N,/LED_2.4_R*%
X65000000Y-84200000D03*
%TO.N,/LED_2.4_B*%
X65000000Y-81800000D03*
%TO.N,/LED_2.4_R*%
X65700000Y-84200000D03*
X64300000Y-84200000D03*
X62900000Y-84200000D03*
%TO.N,/LED_2.4_G*%
X64300000Y-83000000D03*
X65700000Y-83000000D03*
X62900000Y-83000000D03*
%TO.N,/LED_2.4_B*%
X64300000Y-81800000D03*
X65700000Y-81800000D03*
D12*
%TO.N,/LED_2.4_R*%
G36*
X67936861Y-83800337D02*
X67943656Y-83801345D01*
X67950320Y-83803014D01*
X67956788Y-83805328D01*
X67962998Y-83808266D01*
X67968890Y-83811797D01*
X67974408Y-83815889D01*
X67979497Y-83820503D01*
X67984111Y-83825592D01*
X67988203Y-83831110D01*
X67991734Y-83837002D01*
X67994672Y-83843212D01*
X67996986Y-83849680D01*
X67998655Y-83856344D01*
X67999663Y-83863139D01*
X68000000Y-83870000D01*
X68000000Y-85130000D01*
X67999663Y-85136861D01*
X67998655Y-85143656D01*
X67996986Y-85150320D01*
X67994672Y-85156788D01*
X67991734Y-85162998D01*
X67988203Y-85168890D01*
X67984111Y-85174408D01*
X67979497Y-85179497D01*
X67974408Y-85184111D01*
X67968890Y-85188203D01*
X67962998Y-85191734D01*
X67956788Y-85194672D01*
X67950320Y-85196986D01*
X67943656Y-85198655D01*
X67936861Y-85199663D01*
X67930000Y-85200000D01*
X62070000Y-85200000D01*
X62063139Y-85199663D01*
X62056344Y-85198655D01*
X62049680Y-85196986D01*
X62043212Y-85194672D01*
X62037002Y-85191734D01*
X62031110Y-85188203D01*
X62025592Y-85184111D01*
X62020503Y-85179497D01*
X62015889Y-85174408D01*
X62011797Y-85168890D01*
X62008266Y-85162998D01*
X62005328Y-85156788D01*
X62003014Y-85150320D01*
X62001345Y-85143656D01*
X62000337Y-85136861D01*
X62000000Y-85130000D01*
X62000000Y-83870000D01*
X62000337Y-83863139D01*
X62001345Y-83856344D01*
X62003014Y-83849680D01*
X62005328Y-83843212D01*
X62008266Y-83837002D01*
X62011797Y-83831110D01*
X62015889Y-83825592D01*
X62020503Y-83820503D01*
X62025592Y-83815889D01*
X62031110Y-83811797D01*
X62037002Y-83808266D01*
X62043212Y-83805328D01*
X62049680Y-83803014D01*
X62056344Y-83801345D01*
X62063139Y-83800337D01*
X62070000Y-83800000D01*
X67930000Y-83800000D01*
X67936861Y-83800337D01*
X67936861Y-83800337D01*
G37*
D13*
X65000000Y-84500000D03*
D12*
%TO.N,/LED_2.4_B*%
G36*
X67936861Y-80800337D02*
X67943656Y-80801345D01*
X67950320Y-80803014D01*
X67956788Y-80805328D01*
X67962998Y-80808266D01*
X67968890Y-80811797D01*
X67974408Y-80815889D01*
X67979497Y-80820503D01*
X67984111Y-80825592D01*
X67988203Y-80831110D01*
X67991734Y-80837002D01*
X67994672Y-80843212D01*
X67996986Y-80849680D01*
X67998655Y-80856344D01*
X67999663Y-80863139D01*
X68000000Y-80870000D01*
X68000000Y-82130000D01*
X67999663Y-82136861D01*
X67998655Y-82143656D01*
X67996986Y-82150320D01*
X67994672Y-82156788D01*
X67991734Y-82162998D01*
X67988203Y-82168890D01*
X67984111Y-82174408D01*
X67979497Y-82179497D01*
X67974408Y-82184111D01*
X67968890Y-82188203D01*
X67962998Y-82191734D01*
X67956788Y-82194672D01*
X67950320Y-82196986D01*
X67943656Y-82198655D01*
X67936861Y-82199663D01*
X67930000Y-82200000D01*
X62070000Y-82200000D01*
X62063139Y-82199663D01*
X62056344Y-82198655D01*
X62049680Y-82196986D01*
X62043212Y-82194672D01*
X62037002Y-82191734D01*
X62031110Y-82188203D01*
X62025592Y-82184111D01*
X62020503Y-82179497D01*
X62015889Y-82174408D01*
X62011797Y-82168890D01*
X62008266Y-82162998D01*
X62005328Y-82156788D01*
X62003014Y-82150320D01*
X62001345Y-82143656D01*
X62000337Y-82136861D01*
X62000000Y-82130000D01*
X62000000Y-80870000D01*
X62000337Y-80863139D01*
X62001345Y-80856344D01*
X62003014Y-80849680D01*
X62005328Y-80843212D01*
X62008266Y-80837002D01*
X62011797Y-80831110D01*
X62015889Y-80825592D01*
X62020503Y-80820503D01*
X62025592Y-80815889D01*
X62031110Y-80811797D01*
X62037002Y-80808266D01*
X62043212Y-80805328D01*
X62049680Y-80803014D01*
X62056344Y-80801345D01*
X62063139Y-80800337D01*
X62070000Y-80800000D01*
X67930000Y-80800000D01*
X67936861Y-80800337D01*
X67936861Y-80800337D01*
G37*
D13*
X65000000Y-81500000D03*
D12*
%TO.N,/LED_2.4_G*%
G36*
X67945881Y-82400289D02*
X67951705Y-82401153D01*
X67957417Y-82402584D01*
X67962961Y-82404567D01*
X67968284Y-82407085D01*
X67973334Y-82410112D01*
X67978064Y-82413619D01*
X67982426Y-82417574D01*
X67986381Y-82421936D01*
X67989888Y-82426666D01*
X67992915Y-82431716D01*
X67995433Y-82437039D01*
X67997416Y-82442583D01*
X67998847Y-82448295D01*
X67999711Y-82454119D01*
X68000000Y-82460000D01*
X68000000Y-83540000D01*
X67999711Y-83545881D01*
X67998847Y-83551705D01*
X67997416Y-83557417D01*
X67995433Y-83562961D01*
X67992915Y-83568284D01*
X67989888Y-83573334D01*
X67986381Y-83578064D01*
X67982426Y-83582426D01*
X67978064Y-83586381D01*
X67973334Y-83589888D01*
X67968284Y-83592915D01*
X67962961Y-83595433D01*
X67957417Y-83597416D01*
X67951705Y-83598847D01*
X67945881Y-83599711D01*
X67940000Y-83600000D01*
X62060000Y-83600000D01*
X62054119Y-83599711D01*
X62048295Y-83598847D01*
X62042583Y-83597416D01*
X62037039Y-83595433D01*
X62031716Y-83592915D01*
X62026666Y-83589888D01*
X62021936Y-83586381D01*
X62017574Y-83582426D01*
X62013619Y-83578064D01*
X62010112Y-83573334D01*
X62007085Y-83568284D01*
X62004567Y-83562961D01*
X62002584Y-83557417D01*
X62001153Y-83551705D01*
X62000289Y-83545881D01*
X62000000Y-83540000D01*
X62000000Y-82460000D01*
X62000289Y-82454119D01*
X62001153Y-82448295D01*
X62002584Y-82442583D01*
X62004567Y-82437039D01*
X62007085Y-82431716D01*
X62010112Y-82426666D01*
X62013619Y-82421936D01*
X62017574Y-82417574D01*
X62021936Y-82413619D01*
X62026666Y-82410112D01*
X62031716Y-82407085D01*
X62037039Y-82404567D01*
X62042583Y-82402584D01*
X62048295Y-82401153D01*
X62054119Y-82400289D01*
X62060000Y-82400000D01*
X67940000Y-82400000D01*
X67945881Y-82400289D01*
X67945881Y-82400289D01*
G37*
D14*
X65000000Y-83000000D03*
D11*
%TO.N,/LED_2.4_B*%
X62900000Y-81800000D03*
%TD*%
%TO.N,/LED_3.1_G*%
%TO.C,D3.1*%
X73600000Y-53000000D03*
%TO.N,/LED_3.1_B*%
X73600000Y-51800000D03*
%TO.N,/LED_3.1_R*%
X73600000Y-54200000D03*
%TO.N,/LED_3.1_G*%
X75000000Y-53000000D03*
%TO.N,/LED_3.1_R*%
X75000000Y-54200000D03*
%TO.N,/LED_3.1_B*%
X75000000Y-51800000D03*
%TO.N,/LED_3.1_R*%
X75700000Y-54200000D03*
X74300000Y-54200000D03*
X72900000Y-54200000D03*
%TO.N,/LED_3.1_G*%
X74300000Y-53000000D03*
X75700000Y-53000000D03*
X72900000Y-53000000D03*
%TO.N,/LED_3.1_B*%
X74300000Y-51800000D03*
X75700000Y-51800000D03*
D12*
%TO.N,/LED_3.1_R*%
G36*
X77936861Y-53800337D02*
X77943656Y-53801345D01*
X77950320Y-53803014D01*
X77956788Y-53805328D01*
X77962998Y-53808266D01*
X77968890Y-53811797D01*
X77974408Y-53815889D01*
X77979497Y-53820503D01*
X77984111Y-53825592D01*
X77988203Y-53831110D01*
X77991734Y-53837002D01*
X77994672Y-53843212D01*
X77996986Y-53849680D01*
X77998655Y-53856344D01*
X77999663Y-53863139D01*
X78000000Y-53870000D01*
X78000000Y-55130000D01*
X77999663Y-55136861D01*
X77998655Y-55143656D01*
X77996986Y-55150320D01*
X77994672Y-55156788D01*
X77991734Y-55162998D01*
X77988203Y-55168890D01*
X77984111Y-55174408D01*
X77979497Y-55179497D01*
X77974408Y-55184111D01*
X77968890Y-55188203D01*
X77962998Y-55191734D01*
X77956788Y-55194672D01*
X77950320Y-55196986D01*
X77943656Y-55198655D01*
X77936861Y-55199663D01*
X77930000Y-55200000D01*
X72070000Y-55200000D01*
X72063139Y-55199663D01*
X72056344Y-55198655D01*
X72049680Y-55196986D01*
X72043212Y-55194672D01*
X72037002Y-55191734D01*
X72031110Y-55188203D01*
X72025592Y-55184111D01*
X72020503Y-55179497D01*
X72015889Y-55174408D01*
X72011797Y-55168890D01*
X72008266Y-55162998D01*
X72005328Y-55156788D01*
X72003014Y-55150320D01*
X72001345Y-55143656D01*
X72000337Y-55136861D01*
X72000000Y-55130000D01*
X72000000Y-53870000D01*
X72000337Y-53863139D01*
X72001345Y-53856344D01*
X72003014Y-53849680D01*
X72005328Y-53843212D01*
X72008266Y-53837002D01*
X72011797Y-53831110D01*
X72015889Y-53825592D01*
X72020503Y-53820503D01*
X72025592Y-53815889D01*
X72031110Y-53811797D01*
X72037002Y-53808266D01*
X72043212Y-53805328D01*
X72049680Y-53803014D01*
X72056344Y-53801345D01*
X72063139Y-53800337D01*
X72070000Y-53800000D01*
X77930000Y-53800000D01*
X77936861Y-53800337D01*
X77936861Y-53800337D01*
G37*
D13*
X75000000Y-54500000D03*
D12*
%TO.N,/LED_3.1_B*%
G36*
X77936861Y-50800337D02*
X77943656Y-50801345D01*
X77950320Y-50803014D01*
X77956788Y-50805328D01*
X77962998Y-50808266D01*
X77968890Y-50811797D01*
X77974408Y-50815889D01*
X77979497Y-50820503D01*
X77984111Y-50825592D01*
X77988203Y-50831110D01*
X77991734Y-50837002D01*
X77994672Y-50843212D01*
X77996986Y-50849680D01*
X77998655Y-50856344D01*
X77999663Y-50863139D01*
X78000000Y-50870000D01*
X78000000Y-52130000D01*
X77999663Y-52136861D01*
X77998655Y-52143656D01*
X77996986Y-52150320D01*
X77994672Y-52156788D01*
X77991734Y-52162998D01*
X77988203Y-52168890D01*
X77984111Y-52174408D01*
X77979497Y-52179497D01*
X77974408Y-52184111D01*
X77968890Y-52188203D01*
X77962998Y-52191734D01*
X77956788Y-52194672D01*
X77950320Y-52196986D01*
X77943656Y-52198655D01*
X77936861Y-52199663D01*
X77930000Y-52200000D01*
X72070000Y-52200000D01*
X72063139Y-52199663D01*
X72056344Y-52198655D01*
X72049680Y-52196986D01*
X72043212Y-52194672D01*
X72037002Y-52191734D01*
X72031110Y-52188203D01*
X72025592Y-52184111D01*
X72020503Y-52179497D01*
X72015889Y-52174408D01*
X72011797Y-52168890D01*
X72008266Y-52162998D01*
X72005328Y-52156788D01*
X72003014Y-52150320D01*
X72001345Y-52143656D01*
X72000337Y-52136861D01*
X72000000Y-52130000D01*
X72000000Y-50870000D01*
X72000337Y-50863139D01*
X72001345Y-50856344D01*
X72003014Y-50849680D01*
X72005328Y-50843212D01*
X72008266Y-50837002D01*
X72011797Y-50831110D01*
X72015889Y-50825592D01*
X72020503Y-50820503D01*
X72025592Y-50815889D01*
X72031110Y-50811797D01*
X72037002Y-50808266D01*
X72043212Y-50805328D01*
X72049680Y-50803014D01*
X72056344Y-50801345D01*
X72063139Y-50800337D01*
X72070000Y-50800000D01*
X77930000Y-50800000D01*
X77936861Y-50800337D01*
X77936861Y-50800337D01*
G37*
D13*
X75000000Y-51500000D03*
D12*
%TO.N,/LED_3.1_G*%
G36*
X77945881Y-52400289D02*
X77951705Y-52401153D01*
X77957417Y-52402584D01*
X77962961Y-52404567D01*
X77968284Y-52407085D01*
X77973334Y-52410112D01*
X77978064Y-52413619D01*
X77982426Y-52417574D01*
X77986381Y-52421936D01*
X77989888Y-52426666D01*
X77992915Y-52431716D01*
X77995433Y-52437039D01*
X77997416Y-52442583D01*
X77998847Y-52448295D01*
X77999711Y-52454119D01*
X78000000Y-52460000D01*
X78000000Y-53540000D01*
X77999711Y-53545881D01*
X77998847Y-53551705D01*
X77997416Y-53557417D01*
X77995433Y-53562961D01*
X77992915Y-53568284D01*
X77989888Y-53573334D01*
X77986381Y-53578064D01*
X77982426Y-53582426D01*
X77978064Y-53586381D01*
X77973334Y-53589888D01*
X77968284Y-53592915D01*
X77962961Y-53595433D01*
X77957417Y-53597416D01*
X77951705Y-53598847D01*
X77945881Y-53599711D01*
X77940000Y-53600000D01*
X72060000Y-53600000D01*
X72054119Y-53599711D01*
X72048295Y-53598847D01*
X72042583Y-53597416D01*
X72037039Y-53595433D01*
X72031716Y-53592915D01*
X72026666Y-53589888D01*
X72021936Y-53586381D01*
X72017574Y-53582426D01*
X72013619Y-53578064D01*
X72010112Y-53573334D01*
X72007085Y-53568284D01*
X72004567Y-53562961D01*
X72002584Y-53557417D01*
X72001153Y-53551705D01*
X72000289Y-53545881D01*
X72000000Y-53540000D01*
X72000000Y-52460000D01*
X72000289Y-52454119D01*
X72001153Y-52448295D01*
X72002584Y-52442583D01*
X72004567Y-52437039D01*
X72007085Y-52431716D01*
X72010112Y-52426666D01*
X72013619Y-52421936D01*
X72017574Y-52417574D01*
X72021936Y-52413619D01*
X72026666Y-52410112D01*
X72031716Y-52407085D01*
X72037039Y-52404567D01*
X72042583Y-52402584D01*
X72048295Y-52401153D01*
X72054119Y-52400289D01*
X72060000Y-52400000D01*
X77940000Y-52400000D01*
X77945881Y-52400289D01*
X77945881Y-52400289D01*
G37*
D14*
X75000000Y-53000000D03*
D11*
%TO.N,/LED_3.1_B*%
X72900000Y-51800000D03*
%TD*%
%TO.N,/LED_3.2_G*%
%TO.C,D3.2*%
X73600000Y-63000000D03*
%TO.N,/LED_3.2_B*%
X73600000Y-61800000D03*
%TO.N,/LED_3.2_R*%
X73600000Y-64200000D03*
%TO.N,/LED_3.2_G*%
X75000000Y-63000000D03*
%TO.N,/LED_3.2_R*%
X75000000Y-64200000D03*
%TO.N,/LED_3.2_B*%
X75000000Y-61800000D03*
%TO.N,/LED_3.2_R*%
X75700000Y-64200000D03*
X74300000Y-64200000D03*
X72900000Y-64200000D03*
%TO.N,/LED_3.2_G*%
X74300000Y-63000000D03*
X75700000Y-63000000D03*
X72900000Y-63000000D03*
%TO.N,/LED_3.2_B*%
X74300000Y-61800000D03*
X75700000Y-61800000D03*
D12*
%TO.N,/LED_3.2_R*%
G36*
X77936861Y-63800337D02*
X77943656Y-63801345D01*
X77950320Y-63803014D01*
X77956788Y-63805328D01*
X77962998Y-63808266D01*
X77968890Y-63811797D01*
X77974408Y-63815889D01*
X77979497Y-63820503D01*
X77984111Y-63825592D01*
X77988203Y-63831110D01*
X77991734Y-63837002D01*
X77994672Y-63843212D01*
X77996986Y-63849680D01*
X77998655Y-63856344D01*
X77999663Y-63863139D01*
X78000000Y-63870000D01*
X78000000Y-65130000D01*
X77999663Y-65136861D01*
X77998655Y-65143656D01*
X77996986Y-65150320D01*
X77994672Y-65156788D01*
X77991734Y-65162998D01*
X77988203Y-65168890D01*
X77984111Y-65174408D01*
X77979497Y-65179497D01*
X77974408Y-65184111D01*
X77968890Y-65188203D01*
X77962998Y-65191734D01*
X77956788Y-65194672D01*
X77950320Y-65196986D01*
X77943656Y-65198655D01*
X77936861Y-65199663D01*
X77930000Y-65200000D01*
X72070000Y-65200000D01*
X72063139Y-65199663D01*
X72056344Y-65198655D01*
X72049680Y-65196986D01*
X72043212Y-65194672D01*
X72037002Y-65191734D01*
X72031110Y-65188203D01*
X72025592Y-65184111D01*
X72020503Y-65179497D01*
X72015889Y-65174408D01*
X72011797Y-65168890D01*
X72008266Y-65162998D01*
X72005328Y-65156788D01*
X72003014Y-65150320D01*
X72001345Y-65143656D01*
X72000337Y-65136861D01*
X72000000Y-65130000D01*
X72000000Y-63870000D01*
X72000337Y-63863139D01*
X72001345Y-63856344D01*
X72003014Y-63849680D01*
X72005328Y-63843212D01*
X72008266Y-63837002D01*
X72011797Y-63831110D01*
X72015889Y-63825592D01*
X72020503Y-63820503D01*
X72025592Y-63815889D01*
X72031110Y-63811797D01*
X72037002Y-63808266D01*
X72043212Y-63805328D01*
X72049680Y-63803014D01*
X72056344Y-63801345D01*
X72063139Y-63800337D01*
X72070000Y-63800000D01*
X77930000Y-63800000D01*
X77936861Y-63800337D01*
X77936861Y-63800337D01*
G37*
D13*
X75000000Y-64500000D03*
D12*
%TO.N,/LED_3.2_B*%
G36*
X77936861Y-60800337D02*
X77943656Y-60801345D01*
X77950320Y-60803014D01*
X77956788Y-60805328D01*
X77962998Y-60808266D01*
X77968890Y-60811797D01*
X77974408Y-60815889D01*
X77979497Y-60820503D01*
X77984111Y-60825592D01*
X77988203Y-60831110D01*
X77991734Y-60837002D01*
X77994672Y-60843212D01*
X77996986Y-60849680D01*
X77998655Y-60856344D01*
X77999663Y-60863139D01*
X78000000Y-60870000D01*
X78000000Y-62130000D01*
X77999663Y-62136861D01*
X77998655Y-62143656D01*
X77996986Y-62150320D01*
X77994672Y-62156788D01*
X77991734Y-62162998D01*
X77988203Y-62168890D01*
X77984111Y-62174408D01*
X77979497Y-62179497D01*
X77974408Y-62184111D01*
X77968890Y-62188203D01*
X77962998Y-62191734D01*
X77956788Y-62194672D01*
X77950320Y-62196986D01*
X77943656Y-62198655D01*
X77936861Y-62199663D01*
X77930000Y-62200000D01*
X72070000Y-62200000D01*
X72063139Y-62199663D01*
X72056344Y-62198655D01*
X72049680Y-62196986D01*
X72043212Y-62194672D01*
X72037002Y-62191734D01*
X72031110Y-62188203D01*
X72025592Y-62184111D01*
X72020503Y-62179497D01*
X72015889Y-62174408D01*
X72011797Y-62168890D01*
X72008266Y-62162998D01*
X72005328Y-62156788D01*
X72003014Y-62150320D01*
X72001345Y-62143656D01*
X72000337Y-62136861D01*
X72000000Y-62130000D01*
X72000000Y-60870000D01*
X72000337Y-60863139D01*
X72001345Y-60856344D01*
X72003014Y-60849680D01*
X72005328Y-60843212D01*
X72008266Y-60837002D01*
X72011797Y-60831110D01*
X72015889Y-60825592D01*
X72020503Y-60820503D01*
X72025592Y-60815889D01*
X72031110Y-60811797D01*
X72037002Y-60808266D01*
X72043212Y-60805328D01*
X72049680Y-60803014D01*
X72056344Y-60801345D01*
X72063139Y-60800337D01*
X72070000Y-60800000D01*
X77930000Y-60800000D01*
X77936861Y-60800337D01*
X77936861Y-60800337D01*
G37*
D13*
X75000000Y-61500000D03*
D12*
%TO.N,/LED_3.2_G*%
G36*
X77945881Y-62400289D02*
X77951705Y-62401153D01*
X77957417Y-62402584D01*
X77962961Y-62404567D01*
X77968284Y-62407085D01*
X77973334Y-62410112D01*
X77978064Y-62413619D01*
X77982426Y-62417574D01*
X77986381Y-62421936D01*
X77989888Y-62426666D01*
X77992915Y-62431716D01*
X77995433Y-62437039D01*
X77997416Y-62442583D01*
X77998847Y-62448295D01*
X77999711Y-62454119D01*
X78000000Y-62460000D01*
X78000000Y-63540000D01*
X77999711Y-63545881D01*
X77998847Y-63551705D01*
X77997416Y-63557417D01*
X77995433Y-63562961D01*
X77992915Y-63568284D01*
X77989888Y-63573334D01*
X77986381Y-63578064D01*
X77982426Y-63582426D01*
X77978064Y-63586381D01*
X77973334Y-63589888D01*
X77968284Y-63592915D01*
X77962961Y-63595433D01*
X77957417Y-63597416D01*
X77951705Y-63598847D01*
X77945881Y-63599711D01*
X77940000Y-63600000D01*
X72060000Y-63600000D01*
X72054119Y-63599711D01*
X72048295Y-63598847D01*
X72042583Y-63597416D01*
X72037039Y-63595433D01*
X72031716Y-63592915D01*
X72026666Y-63589888D01*
X72021936Y-63586381D01*
X72017574Y-63582426D01*
X72013619Y-63578064D01*
X72010112Y-63573334D01*
X72007085Y-63568284D01*
X72004567Y-63562961D01*
X72002584Y-63557417D01*
X72001153Y-63551705D01*
X72000289Y-63545881D01*
X72000000Y-63540000D01*
X72000000Y-62460000D01*
X72000289Y-62454119D01*
X72001153Y-62448295D01*
X72002584Y-62442583D01*
X72004567Y-62437039D01*
X72007085Y-62431716D01*
X72010112Y-62426666D01*
X72013619Y-62421936D01*
X72017574Y-62417574D01*
X72021936Y-62413619D01*
X72026666Y-62410112D01*
X72031716Y-62407085D01*
X72037039Y-62404567D01*
X72042583Y-62402584D01*
X72048295Y-62401153D01*
X72054119Y-62400289D01*
X72060000Y-62400000D01*
X77940000Y-62400000D01*
X77945881Y-62400289D01*
X77945881Y-62400289D01*
G37*
D14*
X75000000Y-63000000D03*
D11*
%TO.N,/LED_3.2_B*%
X72900000Y-61800000D03*
%TD*%
%TO.N,/LED_3.3_G*%
%TO.C,D3.3*%
X73600000Y-73000000D03*
%TO.N,/LED_3.3_B*%
X73600000Y-71800000D03*
%TO.N,/LED_3.3_R*%
X73600000Y-74200000D03*
%TO.N,/LED_3.3_G*%
X75000000Y-73000000D03*
%TO.N,/LED_3.3_R*%
X75000000Y-74200000D03*
%TO.N,/LED_3.3_B*%
X75000000Y-71800000D03*
%TO.N,/LED_3.3_R*%
X75700000Y-74200000D03*
X74300000Y-74200000D03*
X72900000Y-74200000D03*
%TO.N,/LED_3.3_G*%
X74300000Y-73000000D03*
X75700000Y-73000000D03*
X72900000Y-73000000D03*
%TO.N,/LED_3.3_B*%
X74300000Y-71800000D03*
X75700000Y-71800000D03*
D12*
%TO.N,/LED_3.3_R*%
G36*
X77936861Y-73800337D02*
X77943656Y-73801345D01*
X77950320Y-73803014D01*
X77956788Y-73805328D01*
X77962998Y-73808266D01*
X77968890Y-73811797D01*
X77974408Y-73815889D01*
X77979497Y-73820503D01*
X77984111Y-73825592D01*
X77988203Y-73831110D01*
X77991734Y-73837002D01*
X77994672Y-73843212D01*
X77996986Y-73849680D01*
X77998655Y-73856344D01*
X77999663Y-73863139D01*
X78000000Y-73870000D01*
X78000000Y-75130000D01*
X77999663Y-75136861D01*
X77998655Y-75143656D01*
X77996986Y-75150320D01*
X77994672Y-75156788D01*
X77991734Y-75162998D01*
X77988203Y-75168890D01*
X77984111Y-75174408D01*
X77979497Y-75179497D01*
X77974408Y-75184111D01*
X77968890Y-75188203D01*
X77962998Y-75191734D01*
X77956788Y-75194672D01*
X77950320Y-75196986D01*
X77943656Y-75198655D01*
X77936861Y-75199663D01*
X77930000Y-75200000D01*
X72070000Y-75200000D01*
X72063139Y-75199663D01*
X72056344Y-75198655D01*
X72049680Y-75196986D01*
X72043212Y-75194672D01*
X72037002Y-75191734D01*
X72031110Y-75188203D01*
X72025592Y-75184111D01*
X72020503Y-75179497D01*
X72015889Y-75174408D01*
X72011797Y-75168890D01*
X72008266Y-75162998D01*
X72005328Y-75156788D01*
X72003014Y-75150320D01*
X72001345Y-75143656D01*
X72000337Y-75136861D01*
X72000000Y-75130000D01*
X72000000Y-73870000D01*
X72000337Y-73863139D01*
X72001345Y-73856344D01*
X72003014Y-73849680D01*
X72005328Y-73843212D01*
X72008266Y-73837002D01*
X72011797Y-73831110D01*
X72015889Y-73825592D01*
X72020503Y-73820503D01*
X72025592Y-73815889D01*
X72031110Y-73811797D01*
X72037002Y-73808266D01*
X72043212Y-73805328D01*
X72049680Y-73803014D01*
X72056344Y-73801345D01*
X72063139Y-73800337D01*
X72070000Y-73800000D01*
X77930000Y-73800000D01*
X77936861Y-73800337D01*
X77936861Y-73800337D01*
G37*
D13*
X75000000Y-74500000D03*
D12*
%TO.N,/LED_3.3_B*%
G36*
X77936861Y-70800337D02*
X77943656Y-70801345D01*
X77950320Y-70803014D01*
X77956788Y-70805328D01*
X77962998Y-70808266D01*
X77968890Y-70811797D01*
X77974408Y-70815889D01*
X77979497Y-70820503D01*
X77984111Y-70825592D01*
X77988203Y-70831110D01*
X77991734Y-70837002D01*
X77994672Y-70843212D01*
X77996986Y-70849680D01*
X77998655Y-70856344D01*
X77999663Y-70863139D01*
X78000000Y-70870000D01*
X78000000Y-72130000D01*
X77999663Y-72136861D01*
X77998655Y-72143656D01*
X77996986Y-72150320D01*
X77994672Y-72156788D01*
X77991734Y-72162998D01*
X77988203Y-72168890D01*
X77984111Y-72174408D01*
X77979497Y-72179497D01*
X77974408Y-72184111D01*
X77968890Y-72188203D01*
X77962998Y-72191734D01*
X77956788Y-72194672D01*
X77950320Y-72196986D01*
X77943656Y-72198655D01*
X77936861Y-72199663D01*
X77930000Y-72200000D01*
X72070000Y-72200000D01*
X72063139Y-72199663D01*
X72056344Y-72198655D01*
X72049680Y-72196986D01*
X72043212Y-72194672D01*
X72037002Y-72191734D01*
X72031110Y-72188203D01*
X72025592Y-72184111D01*
X72020503Y-72179497D01*
X72015889Y-72174408D01*
X72011797Y-72168890D01*
X72008266Y-72162998D01*
X72005328Y-72156788D01*
X72003014Y-72150320D01*
X72001345Y-72143656D01*
X72000337Y-72136861D01*
X72000000Y-72130000D01*
X72000000Y-70870000D01*
X72000337Y-70863139D01*
X72001345Y-70856344D01*
X72003014Y-70849680D01*
X72005328Y-70843212D01*
X72008266Y-70837002D01*
X72011797Y-70831110D01*
X72015889Y-70825592D01*
X72020503Y-70820503D01*
X72025592Y-70815889D01*
X72031110Y-70811797D01*
X72037002Y-70808266D01*
X72043212Y-70805328D01*
X72049680Y-70803014D01*
X72056344Y-70801345D01*
X72063139Y-70800337D01*
X72070000Y-70800000D01*
X77930000Y-70800000D01*
X77936861Y-70800337D01*
X77936861Y-70800337D01*
G37*
D13*
X75000000Y-71500000D03*
D12*
%TO.N,/LED_3.3_G*%
G36*
X77945881Y-72400289D02*
X77951705Y-72401153D01*
X77957417Y-72402584D01*
X77962961Y-72404567D01*
X77968284Y-72407085D01*
X77973334Y-72410112D01*
X77978064Y-72413619D01*
X77982426Y-72417574D01*
X77986381Y-72421936D01*
X77989888Y-72426666D01*
X77992915Y-72431716D01*
X77995433Y-72437039D01*
X77997416Y-72442583D01*
X77998847Y-72448295D01*
X77999711Y-72454119D01*
X78000000Y-72460000D01*
X78000000Y-73540000D01*
X77999711Y-73545881D01*
X77998847Y-73551705D01*
X77997416Y-73557417D01*
X77995433Y-73562961D01*
X77992915Y-73568284D01*
X77989888Y-73573334D01*
X77986381Y-73578064D01*
X77982426Y-73582426D01*
X77978064Y-73586381D01*
X77973334Y-73589888D01*
X77968284Y-73592915D01*
X77962961Y-73595433D01*
X77957417Y-73597416D01*
X77951705Y-73598847D01*
X77945881Y-73599711D01*
X77940000Y-73600000D01*
X72060000Y-73600000D01*
X72054119Y-73599711D01*
X72048295Y-73598847D01*
X72042583Y-73597416D01*
X72037039Y-73595433D01*
X72031716Y-73592915D01*
X72026666Y-73589888D01*
X72021936Y-73586381D01*
X72017574Y-73582426D01*
X72013619Y-73578064D01*
X72010112Y-73573334D01*
X72007085Y-73568284D01*
X72004567Y-73562961D01*
X72002584Y-73557417D01*
X72001153Y-73551705D01*
X72000289Y-73545881D01*
X72000000Y-73540000D01*
X72000000Y-72460000D01*
X72000289Y-72454119D01*
X72001153Y-72448295D01*
X72002584Y-72442583D01*
X72004567Y-72437039D01*
X72007085Y-72431716D01*
X72010112Y-72426666D01*
X72013619Y-72421936D01*
X72017574Y-72417574D01*
X72021936Y-72413619D01*
X72026666Y-72410112D01*
X72031716Y-72407085D01*
X72037039Y-72404567D01*
X72042583Y-72402584D01*
X72048295Y-72401153D01*
X72054119Y-72400289D01*
X72060000Y-72400000D01*
X77940000Y-72400000D01*
X77945881Y-72400289D01*
X77945881Y-72400289D01*
G37*
D14*
X75000000Y-73000000D03*
D11*
%TO.N,/LED_3.3_B*%
X72900000Y-71800000D03*
%TD*%
%TO.N,/LED_3.4_G*%
%TO.C,D3.4*%
X73600000Y-83000000D03*
%TO.N,/LED_3.4_B*%
X73600000Y-81800000D03*
%TO.N,/LED_3.4_R*%
X73600000Y-84200000D03*
%TO.N,/LED_3.4_G*%
X75000000Y-83000000D03*
%TO.N,/LED_3.4_R*%
X75000000Y-84200000D03*
%TO.N,/LED_3.4_B*%
X75000000Y-81800000D03*
%TO.N,/LED_3.4_R*%
X75700000Y-84200000D03*
X74300000Y-84200000D03*
X72900000Y-84200000D03*
%TO.N,/LED_3.4_G*%
X74300000Y-83000000D03*
X75700000Y-83000000D03*
X72900000Y-83000000D03*
%TO.N,/LED_3.4_B*%
X74300000Y-81800000D03*
X75700000Y-81800000D03*
D12*
%TO.N,/LED_3.4_R*%
G36*
X77936861Y-83800337D02*
X77943656Y-83801345D01*
X77950320Y-83803014D01*
X77956788Y-83805328D01*
X77962998Y-83808266D01*
X77968890Y-83811797D01*
X77974408Y-83815889D01*
X77979497Y-83820503D01*
X77984111Y-83825592D01*
X77988203Y-83831110D01*
X77991734Y-83837002D01*
X77994672Y-83843212D01*
X77996986Y-83849680D01*
X77998655Y-83856344D01*
X77999663Y-83863139D01*
X78000000Y-83870000D01*
X78000000Y-85130000D01*
X77999663Y-85136861D01*
X77998655Y-85143656D01*
X77996986Y-85150320D01*
X77994672Y-85156788D01*
X77991734Y-85162998D01*
X77988203Y-85168890D01*
X77984111Y-85174408D01*
X77979497Y-85179497D01*
X77974408Y-85184111D01*
X77968890Y-85188203D01*
X77962998Y-85191734D01*
X77956788Y-85194672D01*
X77950320Y-85196986D01*
X77943656Y-85198655D01*
X77936861Y-85199663D01*
X77930000Y-85200000D01*
X72070000Y-85200000D01*
X72063139Y-85199663D01*
X72056344Y-85198655D01*
X72049680Y-85196986D01*
X72043212Y-85194672D01*
X72037002Y-85191734D01*
X72031110Y-85188203D01*
X72025592Y-85184111D01*
X72020503Y-85179497D01*
X72015889Y-85174408D01*
X72011797Y-85168890D01*
X72008266Y-85162998D01*
X72005328Y-85156788D01*
X72003014Y-85150320D01*
X72001345Y-85143656D01*
X72000337Y-85136861D01*
X72000000Y-85130000D01*
X72000000Y-83870000D01*
X72000337Y-83863139D01*
X72001345Y-83856344D01*
X72003014Y-83849680D01*
X72005328Y-83843212D01*
X72008266Y-83837002D01*
X72011797Y-83831110D01*
X72015889Y-83825592D01*
X72020503Y-83820503D01*
X72025592Y-83815889D01*
X72031110Y-83811797D01*
X72037002Y-83808266D01*
X72043212Y-83805328D01*
X72049680Y-83803014D01*
X72056344Y-83801345D01*
X72063139Y-83800337D01*
X72070000Y-83800000D01*
X77930000Y-83800000D01*
X77936861Y-83800337D01*
X77936861Y-83800337D01*
G37*
D13*
X75000000Y-84500000D03*
D12*
%TO.N,/LED_3.4_B*%
G36*
X77936861Y-80800337D02*
X77943656Y-80801345D01*
X77950320Y-80803014D01*
X77956788Y-80805328D01*
X77962998Y-80808266D01*
X77968890Y-80811797D01*
X77974408Y-80815889D01*
X77979497Y-80820503D01*
X77984111Y-80825592D01*
X77988203Y-80831110D01*
X77991734Y-80837002D01*
X77994672Y-80843212D01*
X77996986Y-80849680D01*
X77998655Y-80856344D01*
X77999663Y-80863139D01*
X78000000Y-80870000D01*
X78000000Y-82130000D01*
X77999663Y-82136861D01*
X77998655Y-82143656D01*
X77996986Y-82150320D01*
X77994672Y-82156788D01*
X77991734Y-82162998D01*
X77988203Y-82168890D01*
X77984111Y-82174408D01*
X77979497Y-82179497D01*
X77974408Y-82184111D01*
X77968890Y-82188203D01*
X77962998Y-82191734D01*
X77956788Y-82194672D01*
X77950320Y-82196986D01*
X77943656Y-82198655D01*
X77936861Y-82199663D01*
X77930000Y-82200000D01*
X72070000Y-82200000D01*
X72063139Y-82199663D01*
X72056344Y-82198655D01*
X72049680Y-82196986D01*
X72043212Y-82194672D01*
X72037002Y-82191734D01*
X72031110Y-82188203D01*
X72025592Y-82184111D01*
X72020503Y-82179497D01*
X72015889Y-82174408D01*
X72011797Y-82168890D01*
X72008266Y-82162998D01*
X72005328Y-82156788D01*
X72003014Y-82150320D01*
X72001345Y-82143656D01*
X72000337Y-82136861D01*
X72000000Y-82130000D01*
X72000000Y-80870000D01*
X72000337Y-80863139D01*
X72001345Y-80856344D01*
X72003014Y-80849680D01*
X72005328Y-80843212D01*
X72008266Y-80837002D01*
X72011797Y-80831110D01*
X72015889Y-80825592D01*
X72020503Y-80820503D01*
X72025592Y-80815889D01*
X72031110Y-80811797D01*
X72037002Y-80808266D01*
X72043212Y-80805328D01*
X72049680Y-80803014D01*
X72056344Y-80801345D01*
X72063139Y-80800337D01*
X72070000Y-80800000D01*
X77930000Y-80800000D01*
X77936861Y-80800337D01*
X77936861Y-80800337D01*
G37*
D13*
X75000000Y-81500000D03*
D12*
%TO.N,/LED_3.4_G*%
G36*
X77945881Y-82400289D02*
X77951705Y-82401153D01*
X77957417Y-82402584D01*
X77962961Y-82404567D01*
X77968284Y-82407085D01*
X77973334Y-82410112D01*
X77978064Y-82413619D01*
X77982426Y-82417574D01*
X77986381Y-82421936D01*
X77989888Y-82426666D01*
X77992915Y-82431716D01*
X77995433Y-82437039D01*
X77997416Y-82442583D01*
X77998847Y-82448295D01*
X77999711Y-82454119D01*
X78000000Y-82460000D01*
X78000000Y-83540000D01*
X77999711Y-83545881D01*
X77998847Y-83551705D01*
X77997416Y-83557417D01*
X77995433Y-83562961D01*
X77992915Y-83568284D01*
X77989888Y-83573334D01*
X77986381Y-83578064D01*
X77982426Y-83582426D01*
X77978064Y-83586381D01*
X77973334Y-83589888D01*
X77968284Y-83592915D01*
X77962961Y-83595433D01*
X77957417Y-83597416D01*
X77951705Y-83598847D01*
X77945881Y-83599711D01*
X77940000Y-83600000D01*
X72060000Y-83600000D01*
X72054119Y-83599711D01*
X72048295Y-83598847D01*
X72042583Y-83597416D01*
X72037039Y-83595433D01*
X72031716Y-83592915D01*
X72026666Y-83589888D01*
X72021936Y-83586381D01*
X72017574Y-83582426D01*
X72013619Y-83578064D01*
X72010112Y-83573334D01*
X72007085Y-83568284D01*
X72004567Y-83562961D01*
X72002584Y-83557417D01*
X72001153Y-83551705D01*
X72000289Y-83545881D01*
X72000000Y-83540000D01*
X72000000Y-82460000D01*
X72000289Y-82454119D01*
X72001153Y-82448295D01*
X72002584Y-82442583D01*
X72004567Y-82437039D01*
X72007085Y-82431716D01*
X72010112Y-82426666D01*
X72013619Y-82421936D01*
X72017574Y-82417574D01*
X72021936Y-82413619D01*
X72026666Y-82410112D01*
X72031716Y-82407085D01*
X72037039Y-82404567D01*
X72042583Y-82402584D01*
X72048295Y-82401153D01*
X72054119Y-82400289D01*
X72060000Y-82400000D01*
X77940000Y-82400000D01*
X77945881Y-82400289D01*
X77945881Y-82400289D01*
G37*
D14*
X75000000Y-83000000D03*
D11*
%TO.N,/LED_3.4_B*%
X72900000Y-81800000D03*
%TD*%
%TO.N,/LED_4.1_G*%
%TO.C,D4.1*%
X83600000Y-53000000D03*
%TO.N,/LED_4.1_B*%
X83600000Y-51800000D03*
%TO.N,/LED_4.1_R*%
X83600000Y-54200000D03*
%TO.N,/LED_4.1_G*%
X85000000Y-53000000D03*
%TO.N,/LED_4.1_R*%
X85000000Y-54200000D03*
%TO.N,/LED_4.1_B*%
X85000000Y-51800000D03*
%TO.N,/LED_4.1_R*%
X85700000Y-54200000D03*
X84300000Y-54200000D03*
X82900000Y-54200000D03*
%TO.N,/LED_4.1_G*%
X84300000Y-53000000D03*
X85700000Y-53000000D03*
X82900000Y-53000000D03*
%TO.N,/LED_4.1_B*%
X84300000Y-51800000D03*
X85700000Y-51800000D03*
D12*
%TO.N,/LED_4.1_R*%
G36*
X87936861Y-53800337D02*
X87943656Y-53801345D01*
X87950320Y-53803014D01*
X87956788Y-53805328D01*
X87962998Y-53808266D01*
X87968890Y-53811797D01*
X87974408Y-53815889D01*
X87979497Y-53820503D01*
X87984111Y-53825592D01*
X87988203Y-53831110D01*
X87991734Y-53837002D01*
X87994672Y-53843212D01*
X87996986Y-53849680D01*
X87998655Y-53856344D01*
X87999663Y-53863139D01*
X88000000Y-53870000D01*
X88000000Y-55130000D01*
X87999663Y-55136861D01*
X87998655Y-55143656D01*
X87996986Y-55150320D01*
X87994672Y-55156788D01*
X87991734Y-55162998D01*
X87988203Y-55168890D01*
X87984111Y-55174408D01*
X87979497Y-55179497D01*
X87974408Y-55184111D01*
X87968890Y-55188203D01*
X87962998Y-55191734D01*
X87956788Y-55194672D01*
X87950320Y-55196986D01*
X87943656Y-55198655D01*
X87936861Y-55199663D01*
X87930000Y-55200000D01*
X82070000Y-55200000D01*
X82063139Y-55199663D01*
X82056344Y-55198655D01*
X82049680Y-55196986D01*
X82043212Y-55194672D01*
X82037002Y-55191734D01*
X82031110Y-55188203D01*
X82025592Y-55184111D01*
X82020503Y-55179497D01*
X82015889Y-55174408D01*
X82011797Y-55168890D01*
X82008266Y-55162998D01*
X82005328Y-55156788D01*
X82003014Y-55150320D01*
X82001345Y-55143656D01*
X82000337Y-55136861D01*
X82000000Y-55130000D01*
X82000000Y-53870000D01*
X82000337Y-53863139D01*
X82001345Y-53856344D01*
X82003014Y-53849680D01*
X82005328Y-53843212D01*
X82008266Y-53837002D01*
X82011797Y-53831110D01*
X82015889Y-53825592D01*
X82020503Y-53820503D01*
X82025592Y-53815889D01*
X82031110Y-53811797D01*
X82037002Y-53808266D01*
X82043212Y-53805328D01*
X82049680Y-53803014D01*
X82056344Y-53801345D01*
X82063139Y-53800337D01*
X82070000Y-53800000D01*
X87930000Y-53800000D01*
X87936861Y-53800337D01*
X87936861Y-53800337D01*
G37*
D13*
X85000000Y-54500000D03*
D12*
%TO.N,/LED_4.1_B*%
G36*
X87936861Y-50800337D02*
X87943656Y-50801345D01*
X87950320Y-50803014D01*
X87956788Y-50805328D01*
X87962998Y-50808266D01*
X87968890Y-50811797D01*
X87974408Y-50815889D01*
X87979497Y-50820503D01*
X87984111Y-50825592D01*
X87988203Y-50831110D01*
X87991734Y-50837002D01*
X87994672Y-50843212D01*
X87996986Y-50849680D01*
X87998655Y-50856344D01*
X87999663Y-50863139D01*
X88000000Y-50870000D01*
X88000000Y-52130000D01*
X87999663Y-52136861D01*
X87998655Y-52143656D01*
X87996986Y-52150320D01*
X87994672Y-52156788D01*
X87991734Y-52162998D01*
X87988203Y-52168890D01*
X87984111Y-52174408D01*
X87979497Y-52179497D01*
X87974408Y-52184111D01*
X87968890Y-52188203D01*
X87962998Y-52191734D01*
X87956788Y-52194672D01*
X87950320Y-52196986D01*
X87943656Y-52198655D01*
X87936861Y-52199663D01*
X87930000Y-52200000D01*
X82070000Y-52200000D01*
X82063139Y-52199663D01*
X82056344Y-52198655D01*
X82049680Y-52196986D01*
X82043212Y-52194672D01*
X82037002Y-52191734D01*
X82031110Y-52188203D01*
X82025592Y-52184111D01*
X82020503Y-52179497D01*
X82015889Y-52174408D01*
X82011797Y-52168890D01*
X82008266Y-52162998D01*
X82005328Y-52156788D01*
X82003014Y-52150320D01*
X82001345Y-52143656D01*
X82000337Y-52136861D01*
X82000000Y-52130000D01*
X82000000Y-50870000D01*
X82000337Y-50863139D01*
X82001345Y-50856344D01*
X82003014Y-50849680D01*
X82005328Y-50843212D01*
X82008266Y-50837002D01*
X82011797Y-50831110D01*
X82015889Y-50825592D01*
X82020503Y-50820503D01*
X82025592Y-50815889D01*
X82031110Y-50811797D01*
X82037002Y-50808266D01*
X82043212Y-50805328D01*
X82049680Y-50803014D01*
X82056344Y-50801345D01*
X82063139Y-50800337D01*
X82070000Y-50800000D01*
X87930000Y-50800000D01*
X87936861Y-50800337D01*
X87936861Y-50800337D01*
G37*
D13*
X85000000Y-51500000D03*
D12*
%TO.N,/LED_4.1_G*%
G36*
X87945881Y-52400289D02*
X87951705Y-52401153D01*
X87957417Y-52402584D01*
X87962961Y-52404567D01*
X87968284Y-52407085D01*
X87973334Y-52410112D01*
X87978064Y-52413619D01*
X87982426Y-52417574D01*
X87986381Y-52421936D01*
X87989888Y-52426666D01*
X87992915Y-52431716D01*
X87995433Y-52437039D01*
X87997416Y-52442583D01*
X87998847Y-52448295D01*
X87999711Y-52454119D01*
X88000000Y-52460000D01*
X88000000Y-53540000D01*
X87999711Y-53545881D01*
X87998847Y-53551705D01*
X87997416Y-53557417D01*
X87995433Y-53562961D01*
X87992915Y-53568284D01*
X87989888Y-53573334D01*
X87986381Y-53578064D01*
X87982426Y-53582426D01*
X87978064Y-53586381D01*
X87973334Y-53589888D01*
X87968284Y-53592915D01*
X87962961Y-53595433D01*
X87957417Y-53597416D01*
X87951705Y-53598847D01*
X87945881Y-53599711D01*
X87940000Y-53600000D01*
X82060000Y-53600000D01*
X82054119Y-53599711D01*
X82048295Y-53598847D01*
X82042583Y-53597416D01*
X82037039Y-53595433D01*
X82031716Y-53592915D01*
X82026666Y-53589888D01*
X82021936Y-53586381D01*
X82017574Y-53582426D01*
X82013619Y-53578064D01*
X82010112Y-53573334D01*
X82007085Y-53568284D01*
X82004567Y-53562961D01*
X82002584Y-53557417D01*
X82001153Y-53551705D01*
X82000289Y-53545881D01*
X82000000Y-53540000D01*
X82000000Y-52460000D01*
X82000289Y-52454119D01*
X82001153Y-52448295D01*
X82002584Y-52442583D01*
X82004567Y-52437039D01*
X82007085Y-52431716D01*
X82010112Y-52426666D01*
X82013619Y-52421936D01*
X82017574Y-52417574D01*
X82021936Y-52413619D01*
X82026666Y-52410112D01*
X82031716Y-52407085D01*
X82037039Y-52404567D01*
X82042583Y-52402584D01*
X82048295Y-52401153D01*
X82054119Y-52400289D01*
X82060000Y-52400000D01*
X87940000Y-52400000D01*
X87945881Y-52400289D01*
X87945881Y-52400289D01*
G37*
D14*
X85000000Y-53000000D03*
D11*
%TO.N,/LED_4.1_B*%
X82900000Y-51800000D03*
%TD*%
%TO.N,/LED_4.2_G*%
%TO.C,D4.2*%
X83600000Y-63000000D03*
%TO.N,/LED_4.2_B*%
X83600000Y-61800000D03*
%TO.N,/LED_4.2_R*%
X83600000Y-64200000D03*
%TO.N,/LED_4.2_G*%
X85000000Y-63000000D03*
%TO.N,/LED_4.2_R*%
X85000000Y-64200000D03*
%TO.N,/LED_4.2_B*%
X85000000Y-61800000D03*
%TO.N,/LED_4.2_R*%
X85700000Y-64200000D03*
X84300000Y-64200000D03*
X82900000Y-64200000D03*
%TO.N,/LED_4.2_G*%
X84300000Y-63000000D03*
X85700000Y-63000000D03*
X82900000Y-63000000D03*
%TO.N,/LED_4.2_B*%
X84300000Y-61800000D03*
X85700000Y-61800000D03*
D12*
%TO.N,/LED_4.2_R*%
G36*
X87936861Y-63800337D02*
X87943656Y-63801345D01*
X87950320Y-63803014D01*
X87956788Y-63805328D01*
X87962998Y-63808266D01*
X87968890Y-63811797D01*
X87974408Y-63815889D01*
X87979497Y-63820503D01*
X87984111Y-63825592D01*
X87988203Y-63831110D01*
X87991734Y-63837002D01*
X87994672Y-63843212D01*
X87996986Y-63849680D01*
X87998655Y-63856344D01*
X87999663Y-63863139D01*
X88000000Y-63870000D01*
X88000000Y-65130000D01*
X87999663Y-65136861D01*
X87998655Y-65143656D01*
X87996986Y-65150320D01*
X87994672Y-65156788D01*
X87991734Y-65162998D01*
X87988203Y-65168890D01*
X87984111Y-65174408D01*
X87979497Y-65179497D01*
X87974408Y-65184111D01*
X87968890Y-65188203D01*
X87962998Y-65191734D01*
X87956788Y-65194672D01*
X87950320Y-65196986D01*
X87943656Y-65198655D01*
X87936861Y-65199663D01*
X87930000Y-65200000D01*
X82070000Y-65200000D01*
X82063139Y-65199663D01*
X82056344Y-65198655D01*
X82049680Y-65196986D01*
X82043212Y-65194672D01*
X82037002Y-65191734D01*
X82031110Y-65188203D01*
X82025592Y-65184111D01*
X82020503Y-65179497D01*
X82015889Y-65174408D01*
X82011797Y-65168890D01*
X82008266Y-65162998D01*
X82005328Y-65156788D01*
X82003014Y-65150320D01*
X82001345Y-65143656D01*
X82000337Y-65136861D01*
X82000000Y-65130000D01*
X82000000Y-63870000D01*
X82000337Y-63863139D01*
X82001345Y-63856344D01*
X82003014Y-63849680D01*
X82005328Y-63843212D01*
X82008266Y-63837002D01*
X82011797Y-63831110D01*
X82015889Y-63825592D01*
X82020503Y-63820503D01*
X82025592Y-63815889D01*
X82031110Y-63811797D01*
X82037002Y-63808266D01*
X82043212Y-63805328D01*
X82049680Y-63803014D01*
X82056344Y-63801345D01*
X82063139Y-63800337D01*
X82070000Y-63800000D01*
X87930000Y-63800000D01*
X87936861Y-63800337D01*
X87936861Y-63800337D01*
G37*
D13*
X85000000Y-64500000D03*
D12*
%TO.N,/LED_4.2_B*%
G36*
X87936861Y-60800337D02*
X87943656Y-60801345D01*
X87950320Y-60803014D01*
X87956788Y-60805328D01*
X87962998Y-60808266D01*
X87968890Y-60811797D01*
X87974408Y-60815889D01*
X87979497Y-60820503D01*
X87984111Y-60825592D01*
X87988203Y-60831110D01*
X87991734Y-60837002D01*
X87994672Y-60843212D01*
X87996986Y-60849680D01*
X87998655Y-60856344D01*
X87999663Y-60863139D01*
X88000000Y-60870000D01*
X88000000Y-62130000D01*
X87999663Y-62136861D01*
X87998655Y-62143656D01*
X87996986Y-62150320D01*
X87994672Y-62156788D01*
X87991734Y-62162998D01*
X87988203Y-62168890D01*
X87984111Y-62174408D01*
X87979497Y-62179497D01*
X87974408Y-62184111D01*
X87968890Y-62188203D01*
X87962998Y-62191734D01*
X87956788Y-62194672D01*
X87950320Y-62196986D01*
X87943656Y-62198655D01*
X87936861Y-62199663D01*
X87930000Y-62200000D01*
X82070000Y-62200000D01*
X82063139Y-62199663D01*
X82056344Y-62198655D01*
X82049680Y-62196986D01*
X82043212Y-62194672D01*
X82037002Y-62191734D01*
X82031110Y-62188203D01*
X82025592Y-62184111D01*
X82020503Y-62179497D01*
X82015889Y-62174408D01*
X82011797Y-62168890D01*
X82008266Y-62162998D01*
X82005328Y-62156788D01*
X82003014Y-62150320D01*
X82001345Y-62143656D01*
X82000337Y-62136861D01*
X82000000Y-62130000D01*
X82000000Y-60870000D01*
X82000337Y-60863139D01*
X82001345Y-60856344D01*
X82003014Y-60849680D01*
X82005328Y-60843212D01*
X82008266Y-60837002D01*
X82011797Y-60831110D01*
X82015889Y-60825592D01*
X82020503Y-60820503D01*
X82025592Y-60815889D01*
X82031110Y-60811797D01*
X82037002Y-60808266D01*
X82043212Y-60805328D01*
X82049680Y-60803014D01*
X82056344Y-60801345D01*
X82063139Y-60800337D01*
X82070000Y-60800000D01*
X87930000Y-60800000D01*
X87936861Y-60800337D01*
X87936861Y-60800337D01*
G37*
D13*
X85000000Y-61500000D03*
D12*
%TO.N,/LED_4.2_G*%
G36*
X87945881Y-62400289D02*
X87951705Y-62401153D01*
X87957417Y-62402584D01*
X87962961Y-62404567D01*
X87968284Y-62407085D01*
X87973334Y-62410112D01*
X87978064Y-62413619D01*
X87982426Y-62417574D01*
X87986381Y-62421936D01*
X87989888Y-62426666D01*
X87992915Y-62431716D01*
X87995433Y-62437039D01*
X87997416Y-62442583D01*
X87998847Y-62448295D01*
X87999711Y-62454119D01*
X88000000Y-62460000D01*
X88000000Y-63540000D01*
X87999711Y-63545881D01*
X87998847Y-63551705D01*
X87997416Y-63557417D01*
X87995433Y-63562961D01*
X87992915Y-63568284D01*
X87989888Y-63573334D01*
X87986381Y-63578064D01*
X87982426Y-63582426D01*
X87978064Y-63586381D01*
X87973334Y-63589888D01*
X87968284Y-63592915D01*
X87962961Y-63595433D01*
X87957417Y-63597416D01*
X87951705Y-63598847D01*
X87945881Y-63599711D01*
X87940000Y-63600000D01*
X82060000Y-63600000D01*
X82054119Y-63599711D01*
X82048295Y-63598847D01*
X82042583Y-63597416D01*
X82037039Y-63595433D01*
X82031716Y-63592915D01*
X82026666Y-63589888D01*
X82021936Y-63586381D01*
X82017574Y-63582426D01*
X82013619Y-63578064D01*
X82010112Y-63573334D01*
X82007085Y-63568284D01*
X82004567Y-63562961D01*
X82002584Y-63557417D01*
X82001153Y-63551705D01*
X82000289Y-63545881D01*
X82000000Y-63540000D01*
X82000000Y-62460000D01*
X82000289Y-62454119D01*
X82001153Y-62448295D01*
X82002584Y-62442583D01*
X82004567Y-62437039D01*
X82007085Y-62431716D01*
X82010112Y-62426666D01*
X82013619Y-62421936D01*
X82017574Y-62417574D01*
X82021936Y-62413619D01*
X82026666Y-62410112D01*
X82031716Y-62407085D01*
X82037039Y-62404567D01*
X82042583Y-62402584D01*
X82048295Y-62401153D01*
X82054119Y-62400289D01*
X82060000Y-62400000D01*
X87940000Y-62400000D01*
X87945881Y-62400289D01*
X87945881Y-62400289D01*
G37*
D14*
X85000000Y-63000000D03*
D11*
%TO.N,/LED_4.2_B*%
X82900000Y-61800000D03*
%TD*%
%TO.N,/LED_4.3_G*%
%TO.C,D4.3*%
X83600000Y-73000000D03*
%TO.N,/LED_4.3_B*%
X83600000Y-71800000D03*
%TO.N,/LED_4.3_R*%
X83600000Y-74200000D03*
%TO.N,/LED_4.3_G*%
X85000000Y-73000000D03*
%TO.N,/LED_4.3_R*%
X85000000Y-74200000D03*
%TO.N,/LED_4.3_B*%
X85000000Y-71800000D03*
%TO.N,/LED_4.3_R*%
X85700000Y-74200000D03*
X84300000Y-74200000D03*
X82900000Y-74200000D03*
%TO.N,/LED_4.3_G*%
X84300000Y-73000000D03*
X85700000Y-73000000D03*
X82900000Y-73000000D03*
%TO.N,/LED_4.3_B*%
X84300000Y-71800000D03*
X85700000Y-71800000D03*
D12*
%TO.N,/LED_4.3_R*%
G36*
X87936861Y-73800337D02*
X87943656Y-73801345D01*
X87950320Y-73803014D01*
X87956788Y-73805328D01*
X87962998Y-73808266D01*
X87968890Y-73811797D01*
X87974408Y-73815889D01*
X87979497Y-73820503D01*
X87984111Y-73825592D01*
X87988203Y-73831110D01*
X87991734Y-73837002D01*
X87994672Y-73843212D01*
X87996986Y-73849680D01*
X87998655Y-73856344D01*
X87999663Y-73863139D01*
X88000000Y-73870000D01*
X88000000Y-75130000D01*
X87999663Y-75136861D01*
X87998655Y-75143656D01*
X87996986Y-75150320D01*
X87994672Y-75156788D01*
X87991734Y-75162998D01*
X87988203Y-75168890D01*
X87984111Y-75174408D01*
X87979497Y-75179497D01*
X87974408Y-75184111D01*
X87968890Y-75188203D01*
X87962998Y-75191734D01*
X87956788Y-75194672D01*
X87950320Y-75196986D01*
X87943656Y-75198655D01*
X87936861Y-75199663D01*
X87930000Y-75200000D01*
X82070000Y-75200000D01*
X82063139Y-75199663D01*
X82056344Y-75198655D01*
X82049680Y-75196986D01*
X82043212Y-75194672D01*
X82037002Y-75191734D01*
X82031110Y-75188203D01*
X82025592Y-75184111D01*
X82020503Y-75179497D01*
X82015889Y-75174408D01*
X82011797Y-75168890D01*
X82008266Y-75162998D01*
X82005328Y-75156788D01*
X82003014Y-75150320D01*
X82001345Y-75143656D01*
X82000337Y-75136861D01*
X82000000Y-75130000D01*
X82000000Y-73870000D01*
X82000337Y-73863139D01*
X82001345Y-73856344D01*
X82003014Y-73849680D01*
X82005328Y-73843212D01*
X82008266Y-73837002D01*
X82011797Y-73831110D01*
X82015889Y-73825592D01*
X82020503Y-73820503D01*
X82025592Y-73815889D01*
X82031110Y-73811797D01*
X82037002Y-73808266D01*
X82043212Y-73805328D01*
X82049680Y-73803014D01*
X82056344Y-73801345D01*
X82063139Y-73800337D01*
X82070000Y-73800000D01*
X87930000Y-73800000D01*
X87936861Y-73800337D01*
X87936861Y-73800337D01*
G37*
D13*
X85000000Y-74500000D03*
D12*
%TO.N,/LED_4.3_B*%
G36*
X87936861Y-70800337D02*
X87943656Y-70801345D01*
X87950320Y-70803014D01*
X87956788Y-70805328D01*
X87962998Y-70808266D01*
X87968890Y-70811797D01*
X87974408Y-70815889D01*
X87979497Y-70820503D01*
X87984111Y-70825592D01*
X87988203Y-70831110D01*
X87991734Y-70837002D01*
X87994672Y-70843212D01*
X87996986Y-70849680D01*
X87998655Y-70856344D01*
X87999663Y-70863139D01*
X88000000Y-70870000D01*
X88000000Y-72130000D01*
X87999663Y-72136861D01*
X87998655Y-72143656D01*
X87996986Y-72150320D01*
X87994672Y-72156788D01*
X87991734Y-72162998D01*
X87988203Y-72168890D01*
X87984111Y-72174408D01*
X87979497Y-72179497D01*
X87974408Y-72184111D01*
X87968890Y-72188203D01*
X87962998Y-72191734D01*
X87956788Y-72194672D01*
X87950320Y-72196986D01*
X87943656Y-72198655D01*
X87936861Y-72199663D01*
X87930000Y-72200000D01*
X82070000Y-72200000D01*
X82063139Y-72199663D01*
X82056344Y-72198655D01*
X82049680Y-72196986D01*
X82043212Y-72194672D01*
X82037002Y-72191734D01*
X82031110Y-72188203D01*
X82025592Y-72184111D01*
X82020503Y-72179497D01*
X82015889Y-72174408D01*
X82011797Y-72168890D01*
X82008266Y-72162998D01*
X82005328Y-72156788D01*
X82003014Y-72150320D01*
X82001345Y-72143656D01*
X82000337Y-72136861D01*
X82000000Y-72130000D01*
X82000000Y-70870000D01*
X82000337Y-70863139D01*
X82001345Y-70856344D01*
X82003014Y-70849680D01*
X82005328Y-70843212D01*
X82008266Y-70837002D01*
X82011797Y-70831110D01*
X82015889Y-70825592D01*
X82020503Y-70820503D01*
X82025592Y-70815889D01*
X82031110Y-70811797D01*
X82037002Y-70808266D01*
X82043212Y-70805328D01*
X82049680Y-70803014D01*
X82056344Y-70801345D01*
X82063139Y-70800337D01*
X82070000Y-70800000D01*
X87930000Y-70800000D01*
X87936861Y-70800337D01*
X87936861Y-70800337D01*
G37*
D13*
X85000000Y-71500000D03*
D12*
%TO.N,/LED_4.3_G*%
G36*
X87945881Y-72400289D02*
X87951705Y-72401153D01*
X87957417Y-72402584D01*
X87962961Y-72404567D01*
X87968284Y-72407085D01*
X87973334Y-72410112D01*
X87978064Y-72413619D01*
X87982426Y-72417574D01*
X87986381Y-72421936D01*
X87989888Y-72426666D01*
X87992915Y-72431716D01*
X87995433Y-72437039D01*
X87997416Y-72442583D01*
X87998847Y-72448295D01*
X87999711Y-72454119D01*
X88000000Y-72460000D01*
X88000000Y-73540000D01*
X87999711Y-73545881D01*
X87998847Y-73551705D01*
X87997416Y-73557417D01*
X87995433Y-73562961D01*
X87992915Y-73568284D01*
X87989888Y-73573334D01*
X87986381Y-73578064D01*
X87982426Y-73582426D01*
X87978064Y-73586381D01*
X87973334Y-73589888D01*
X87968284Y-73592915D01*
X87962961Y-73595433D01*
X87957417Y-73597416D01*
X87951705Y-73598847D01*
X87945881Y-73599711D01*
X87940000Y-73600000D01*
X82060000Y-73600000D01*
X82054119Y-73599711D01*
X82048295Y-73598847D01*
X82042583Y-73597416D01*
X82037039Y-73595433D01*
X82031716Y-73592915D01*
X82026666Y-73589888D01*
X82021936Y-73586381D01*
X82017574Y-73582426D01*
X82013619Y-73578064D01*
X82010112Y-73573334D01*
X82007085Y-73568284D01*
X82004567Y-73562961D01*
X82002584Y-73557417D01*
X82001153Y-73551705D01*
X82000289Y-73545881D01*
X82000000Y-73540000D01*
X82000000Y-72460000D01*
X82000289Y-72454119D01*
X82001153Y-72448295D01*
X82002584Y-72442583D01*
X82004567Y-72437039D01*
X82007085Y-72431716D01*
X82010112Y-72426666D01*
X82013619Y-72421936D01*
X82017574Y-72417574D01*
X82021936Y-72413619D01*
X82026666Y-72410112D01*
X82031716Y-72407085D01*
X82037039Y-72404567D01*
X82042583Y-72402584D01*
X82048295Y-72401153D01*
X82054119Y-72400289D01*
X82060000Y-72400000D01*
X87940000Y-72400000D01*
X87945881Y-72400289D01*
X87945881Y-72400289D01*
G37*
D14*
X85000000Y-73000000D03*
D11*
%TO.N,/LED_4.3_B*%
X82900000Y-71800000D03*
%TD*%
%TO.N,/LED_4.4_G*%
%TO.C,D4.4*%
X83600000Y-83000000D03*
%TO.N,/LED_4.4_B*%
X83600000Y-81800000D03*
%TO.N,/LED_4.4_R*%
X83600000Y-84200000D03*
%TO.N,/LED_4.4_G*%
X85000000Y-83000000D03*
%TO.N,/LED_4.4_R*%
X85000000Y-84200000D03*
%TO.N,/LED_4.4_B*%
X85000000Y-81800000D03*
%TO.N,/LED_4.4_R*%
X85700000Y-84200000D03*
X84300000Y-84200000D03*
X82900000Y-84200000D03*
%TO.N,/LED_4.4_G*%
X84300000Y-83000000D03*
X85700000Y-83000000D03*
X82900000Y-83000000D03*
%TO.N,/LED_4.4_B*%
X84300000Y-81800000D03*
X85700000Y-81800000D03*
D12*
%TO.N,/LED_4.4_R*%
G36*
X87936861Y-83800337D02*
X87943656Y-83801345D01*
X87950320Y-83803014D01*
X87956788Y-83805328D01*
X87962998Y-83808266D01*
X87968890Y-83811797D01*
X87974408Y-83815889D01*
X87979497Y-83820503D01*
X87984111Y-83825592D01*
X87988203Y-83831110D01*
X87991734Y-83837002D01*
X87994672Y-83843212D01*
X87996986Y-83849680D01*
X87998655Y-83856344D01*
X87999663Y-83863139D01*
X88000000Y-83870000D01*
X88000000Y-85130000D01*
X87999663Y-85136861D01*
X87998655Y-85143656D01*
X87996986Y-85150320D01*
X87994672Y-85156788D01*
X87991734Y-85162998D01*
X87988203Y-85168890D01*
X87984111Y-85174408D01*
X87979497Y-85179497D01*
X87974408Y-85184111D01*
X87968890Y-85188203D01*
X87962998Y-85191734D01*
X87956788Y-85194672D01*
X87950320Y-85196986D01*
X87943656Y-85198655D01*
X87936861Y-85199663D01*
X87930000Y-85200000D01*
X82070000Y-85200000D01*
X82063139Y-85199663D01*
X82056344Y-85198655D01*
X82049680Y-85196986D01*
X82043212Y-85194672D01*
X82037002Y-85191734D01*
X82031110Y-85188203D01*
X82025592Y-85184111D01*
X82020503Y-85179497D01*
X82015889Y-85174408D01*
X82011797Y-85168890D01*
X82008266Y-85162998D01*
X82005328Y-85156788D01*
X82003014Y-85150320D01*
X82001345Y-85143656D01*
X82000337Y-85136861D01*
X82000000Y-85130000D01*
X82000000Y-83870000D01*
X82000337Y-83863139D01*
X82001345Y-83856344D01*
X82003014Y-83849680D01*
X82005328Y-83843212D01*
X82008266Y-83837002D01*
X82011797Y-83831110D01*
X82015889Y-83825592D01*
X82020503Y-83820503D01*
X82025592Y-83815889D01*
X82031110Y-83811797D01*
X82037002Y-83808266D01*
X82043212Y-83805328D01*
X82049680Y-83803014D01*
X82056344Y-83801345D01*
X82063139Y-83800337D01*
X82070000Y-83800000D01*
X87930000Y-83800000D01*
X87936861Y-83800337D01*
X87936861Y-83800337D01*
G37*
D13*
X85000000Y-84500000D03*
D12*
%TO.N,/LED_4.4_B*%
G36*
X87936861Y-80800337D02*
X87943656Y-80801345D01*
X87950320Y-80803014D01*
X87956788Y-80805328D01*
X87962998Y-80808266D01*
X87968890Y-80811797D01*
X87974408Y-80815889D01*
X87979497Y-80820503D01*
X87984111Y-80825592D01*
X87988203Y-80831110D01*
X87991734Y-80837002D01*
X87994672Y-80843212D01*
X87996986Y-80849680D01*
X87998655Y-80856344D01*
X87999663Y-80863139D01*
X88000000Y-80870000D01*
X88000000Y-82130000D01*
X87999663Y-82136861D01*
X87998655Y-82143656D01*
X87996986Y-82150320D01*
X87994672Y-82156788D01*
X87991734Y-82162998D01*
X87988203Y-82168890D01*
X87984111Y-82174408D01*
X87979497Y-82179497D01*
X87974408Y-82184111D01*
X87968890Y-82188203D01*
X87962998Y-82191734D01*
X87956788Y-82194672D01*
X87950320Y-82196986D01*
X87943656Y-82198655D01*
X87936861Y-82199663D01*
X87930000Y-82200000D01*
X82070000Y-82200000D01*
X82063139Y-82199663D01*
X82056344Y-82198655D01*
X82049680Y-82196986D01*
X82043212Y-82194672D01*
X82037002Y-82191734D01*
X82031110Y-82188203D01*
X82025592Y-82184111D01*
X82020503Y-82179497D01*
X82015889Y-82174408D01*
X82011797Y-82168890D01*
X82008266Y-82162998D01*
X82005328Y-82156788D01*
X82003014Y-82150320D01*
X82001345Y-82143656D01*
X82000337Y-82136861D01*
X82000000Y-82130000D01*
X82000000Y-80870000D01*
X82000337Y-80863139D01*
X82001345Y-80856344D01*
X82003014Y-80849680D01*
X82005328Y-80843212D01*
X82008266Y-80837002D01*
X82011797Y-80831110D01*
X82015889Y-80825592D01*
X82020503Y-80820503D01*
X82025592Y-80815889D01*
X82031110Y-80811797D01*
X82037002Y-80808266D01*
X82043212Y-80805328D01*
X82049680Y-80803014D01*
X82056344Y-80801345D01*
X82063139Y-80800337D01*
X82070000Y-80800000D01*
X87930000Y-80800000D01*
X87936861Y-80800337D01*
X87936861Y-80800337D01*
G37*
D13*
X85000000Y-81500000D03*
D12*
%TO.N,/LED_4.4_G*%
G36*
X87945881Y-82400289D02*
X87951705Y-82401153D01*
X87957417Y-82402584D01*
X87962961Y-82404567D01*
X87968284Y-82407085D01*
X87973334Y-82410112D01*
X87978064Y-82413619D01*
X87982426Y-82417574D01*
X87986381Y-82421936D01*
X87989888Y-82426666D01*
X87992915Y-82431716D01*
X87995433Y-82437039D01*
X87997416Y-82442583D01*
X87998847Y-82448295D01*
X87999711Y-82454119D01*
X88000000Y-82460000D01*
X88000000Y-83540000D01*
X87999711Y-83545881D01*
X87998847Y-83551705D01*
X87997416Y-83557417D01*
X87995433Y-83562961D01*
X87992915Y-83568284D01*
X87989888Y-83573334D01*
X87986381Y-83578064D01*
X87982426Y-83582426D01*
X87978064Y-83586381D01*
X87973334Y-83589888D01*
X87968284Y-83592915D01*
X87962961Y-83595433D01*
X87957417Y-83597416D01*
X87951705Y-83598847D01*
X87945881Y-83599711D01*
X87940000Y-83600000D01*
X82060000Y-83600000D01*
X82054119Y-83599711D01*
X82048295Y-83598847D01*
X82042583Y-83597416D01*
X82037039Y-83595433D01*
X82031716Y-83592915D01*
X82026666Y-83589888D01*
X82021936Y-83586381D01*
X82017574Y-83582426D01*
X82013619Y-83578064D01*
X82010112Y-83573334D01*
X82007085Y-83568284D01*
X82004567Y-83562961D01*
X82002584Y-83557417D01*
X82001153Y-83551705D01*
X82000289Y-83545881D01*
X82000000Y-83540000D01*
X82000000Y-82460000D01*
X82000289Y-82454119D01*
X82001153Y-82448295D01*
X82002584Y-82442583D01*
X82004567Y-82437039D01*
X82007085Y-82431716D01*
X82010112Y-82426666D01*
X82013619Y-82421936D01*
X82017574Y-82417574D01*
X82021936Y-82413619D01*
X82026666Y-82410112D01*
X82031716Y-82407085D01*
X82037039Y-82404567D01*
X82042583Y-82402584D01*
X82048295Y-82401153D01*
X82054119Y-82400289D01*
X82060000Y-82400000D01*
X87940000Y-82400000D01*
X87945881Y-82400289D01*
X87945881Y-82400289D01*
G37*
D14*
X85000000Y-83000000D03*
D11*
%TO.N,/LED_4.4_B*%
X82900000Y-81800000D03*
%TD*%
D12*
%TO.N,GND*%
%TO.C,U1*%
G36*
X61228232Y-56650650D02*
X61241337Y-56652594D01*
X61254188Y-56655813D01*
X61266662Y-56660276D01*
X61278639Y-56665941D01*
X61290002Y-56672752D01*
X61300643Y-56680644D01*
X61310459Y-56689541D01*
X61319356Y-56699357D01*
X61327248Y-56709998D01*
X61334059Y-56721361D01*
X61339724Y-56733338D01*
X61344187Y-56745812D01*
X61347406Y-56758663D01*
X61349350Y-56771768D01*
X61350000Y-56785000D01*
X61350000Y-59215000D01*
X61349350Y-59228232D01*
X61347406Y-59241337D01*
X61344187Y-59254188D01*
X61339724Y-59266662D01*
X61334059Y-59278639D01*
X61327248Y-59290002D01*
X61319356Y-59300643D01*
X61310459Y-59310459D01*
X61300643Y-59319356D01*
X61290002Y-59327248D01*
X61278639Y-59334059D01*
X61266662Y-59339724D01*
X61254188Y-59344187D01*
X61241337Y-59347406D01*
X61228232Y-59349350D01*
X61215000Y-59350000D01*
X58785000Y-59350000D01*
X58771768Y-59349350D01*
X58758663Y-59347406D01*
X58745812Y-59344187D01*
X58733338Y-59339724D01*
X58721361Y-59334059D01*
X58709998Y-59327248D01*
X58699357Y-59319356D01*
X58689541Y-59310459D01*
X58680644Y-59300643D01*
X58672752Y-59290002D01*
X58665941Y-59278639D01*
X58660276Y-59266662D01*
X58655813Y-59254188D01*
X58652594Y-59241337D01*
X58650650Y-59228232D01*
X58650000Y-59215000D01*
X58650000Y-56785000D01*
X58650650Y-56771768D01*
X58652594Y-56758663D01*
X58655813Y-56745812D01*
X58660276Y-56733338D01*
X58665941Y-56721361D01*
X58672752Y-56709998D01*
X58680644Y-56699357D01*
X58689541Y-56689541D01*
X58699357Y-56680644D01*
X58709998Y-56672752D01*
X58721361Y-56665941D01*
X58733338Y-56660276D01*
X58745812Y-56655813D01*
X58758663Y-56652594D01*
X58771768Y-56650650D01*
X58785000Y-56650000D01*
X61215000Y-56650000D01*
X61228232Y-56650650D01*
X61228232Y-56650650D01*
G37*
D15*
X60000000Y-58000000D03*
D11*
X59100000Y-58900000D03*
X60000000Y-58900000D03*
X60900000Y-58900000D03*
X59100000Y-58000000D03*
X60000000Y-58000000D03*
X60900000Y-58000000D03*
X60900000Y-57100000D03*
X60000000Y-57100000D03*
X59100000Y-57100000D03*
%TD*%
D12*
%TO.N,GND*%
%TO.C,U2*%
G36*
X81228232Y-56650650D02*
X81241337Y-56652594D01*
X81254188Y-56655813D01*
X81266662Y-56660276D01*
X81278639Y-56665941D01*
X81290002Y-56672752D01*
X81300643Y-56680644D01*
X81310459Y-56689541D01*
X81319356Y-56699357D01*
X81327248Y-56709998D01*
X81334059Y-56721361D01*
X81339724Y-56733338D01*
X81344187Y-56745812D01*
X81347406Y-56758663D01*
X81349350Y-56771768D01*
X81350000Y-56785000D01*
X81350000Y-59215000D01*
X81349350Y-59228232D01*
X81347406Y-59241337D01*
X81344187Y-59254188D01*
X81339724Y-59266662D01*
X81334059Y-59278639D01*
X81327248Y-59290002D01*
X81319356Y-59300643D01*
X81310459Y-59310459D01*
X81300643Y-59319356D01*
X81290002Y-59327248D01*
X81278639Y-59334059D01*
X81266662Y-59339724D01*
X81254188Y-59344187D01*
X81241337Y-59347406D01*
X81228232Y-59349350D01*
X81215000Y-59350000D01*
X78785000Y-59350000D01*
X78771768Y-59349350D01*
X78758663Y-59347406D01*
X78745812Y-59344187D01*
X78733338Y-59339724D01*
X78721361Y-59334059D01*
X78709998Y-59327248D01*
X78699357Y-59319356D01*
X78689541Y-59310459D01*
X78680644Y-59300643D01*
X78672752Y-59290002D01*
X78665941Y-59278639D01*
X78660276Y-59266662D01*
X78655813Y-59254188D01*
X78652594Y-59241337D01*
X78650650Y-59228232D01*
X78650000Y-59215000D01*
X78650000Y-56785000D01*
X78650650Y-56771768D01*
X78652594Y-56758663D01*
X78655813Y-56745812D01*
X78660276Y-56733338D01*
X78665941Y-56721361D01*
X78672752Y-56709998D01*
X78680644Y-56699357D01*
X78689541Y-56689541D01*
X78699357Y-56680644D01*
X78709998Y-56672752D01*
X78721361Y-56665941D01*
X78733338Y-56660276D01*
X78745812Y-56655813D01*
X78758663Y-56652594D01*
X78771768Y-56650650D01*
X78785000Y-56650000D01*
X81215000Y-56650000D01*
X81228232Y-56650650D01*
X81228232Y-56650650D01*
G37*
D15*
X80000000Y-58000000D03*
D11*
X79100000Y-58900000D03*
X80000000Y-58900000D03*
X80900000Y-58900000D03*
X79100000Y-58000000D03*
X80000000Y-58000000D03*
X80900000Y-58000000D03*
X80900000Y-57100000D03*
X80000000Y-57100000D03*
X79100000Y-57100000D03*
%TD*%
D12*
%TO.N,GND*%
%TO.C,U3*%
G36*
X61228232Y-76650650D02*
X61241337Y-76652594D01*
X61254188Y-76655813D01*
X61266662Y-76660276D01*
X61278639Y-76665941D01*
X61290002Y-76672752D01*
X61300643Y-76680644D01*
X61310459Y-76689541D01*
X61319356Y-76699357D01*
X61327248Y-76709998D01*
X61334059Y-76721361D01*
X61339724Y-76733338D01*
X61344187Y-76745812D01*
X61347406Y-76758663D01*
X61349350Y-76771768D01*
X61350000Y-76785000D01*
X61350000Y-79215000D01*
X61349350Y-79228232D01*
X61347406Y-79241337D01*
X61344187Y-79254188D01*
X61339724Y-79266662D01*
X61334059Y-79278639D01*
X61327248Y-79290002D01*
X61319356Y-79300643D01*
X61310459Y-79310459D01*
X61300643Y-79319356D01*
X61290002Y-79327248D01*
X61278639Y-79334059D01*
X61266662Y-79339724D01*
X61254188Y-79344187D01*
X61241337Y-79347406D01*
X61228232Y-79349350D01*
X61215000Y-79350000D01*
X58785000Y-79350000D01*
X58771768Y-79349350D01*
X58758663Y-79347406D01*
X58745812Y-79344187D01*
X58733338Y-79339724D01*
X58721361Y-79334059D01*
X58709998Y-79327248D01*
X58699357Y-79319356D01*
X58689541Y-79310459D01*
X58680644Y-79300643D01*
X58672752Y-79290002D01*
X58665941Y-79278639D01*
X58660276Y-79266662D01*
X58655813Y-79254188D01*
X58652594Y-79241337D01*
X58650650Y-79228232D01*
X58650000Y-79215000D01*
X58650000Y-76785000D01*
X58650650Y-76771768D01*
X58652594Y-76758663D01*
X58655813Y-76745812D01*
X58660276Y-76733338D01*
X58665941Y-76721361D01*
X58672752Y-76709998D01*
X58680644Y-76699357D01*
X58689541Y-76689541D01*
X58699357Y-76680644D01*
X58709998Y-76672752D01*
X58721361Y-76665941D01*
X58733338Y-76660276D01*
X58745812Y-76655813D01*
X58758663Y-76652594D01*
X58771768Y-76650650D01*
X58785000Y-76650000D01*
X61215000Y-76650000D01*
X61228232Y-76650650D01*
X61228232Y-76650650D01*
G37*
D15*
X60000000Y-78000000D03*
D11*
X59100000Y-78900000D03*
X60000000Y-78900000D03*
X60900000Y-78900000D03*
X59100000Y-78000000D03*
X60000000Y-78000000D03*
X60900000Y-78000000D03*
X60900000Y-77100000D03*
X60000000Y-77100000D03*
X59100000Y-77100000D03*
%TD*%
D12*
%TO.N,GND*%
%TO.C,U4*%
G36*
X81228232Y-76650650D02*
X81241337Y-76652594D01*
X81254188Y-76655813D01*
X81266662Y-76660276D01*
X81278639Y-76665941D01*
X81290002Y-76672752D01*
X81300643Y-76680644D01*
X81310459Y-76689541D01*
X81319356Y-76699357D01*
X81327248Y-76709998D01*
X81334059Y-76721361D01*
X81339724Y-76733338D01*
X81344187Y-76745812D01*
X81347406Y-76758663D01*
X81349350Y-76771768D01*
X81350000Y-76785000D01*
X81350000Y-79215000D01*
X81349350Y-79228232D01*
X81347406Y-79241337D01*
X81344187Y-79254188D01*
X81339724Y-79266662D01*
X81334059Y-79278639D01*
X81327248Y-79290002D01*
X81319356Y-79300643D01*
X81310459Y-79310459D01*
X81300643Y-79319356D01*
X81290002Y-79327248D01*
X81278639Y-79334059D01*
X81266662Y-79339724D01*
X81254188Y-79344187D01*
X81241337Y-79347406D01*
X81228232Y-79349350D01*
X81215000Y-79350000D01*
X78785000Y-79350000D01*
X78771768Y-79349350D01*
X78758663Y-79347406D01*
X78745812Y-79344187D01*
X78733338Y-79339724D01*
X78721361Y-79334059D01*
X78709998Y-79327248D01*
X78699357Y-79319356D01*
X78689541Y-79310459D01*
X78680644Y-79300643D01*
X78672752Y-79290002D01*
X78665941Y-79278639D01*
X78660276Y-79266662D01*
X78655813Y-79254188D01*
X78652594Y-79241337D01*
X78650650Y-79228232D01*
X78650000Y-79215000D01*
X78650000Y-76785000D01*
X78650650Y-76771768D01*
X78652594Y-76758663D01*
X78655813Y-76745812D01*
X78660276Y-76733338D01*
X78665941Y-76721361D01*
X78672752Y-76709998D01*
X78680644Y-76699357D01*
X78689541Y-76689541D01*
X78699357Y-76680644D01*
X78709998Y-76672752D01*
X78721361Y-76665941D01*
X78733338Y-76660276D01*
X78745812Y-76655813D01*
X78758663Y-76652594D01*
X78771768Y-76650650D01*
X78785000Y-76650000D01*
X81215000Y-76650000D01*
X81228232Y-76650650D01*
X81228232Y-76650650D01*
G37*
D15*
X80000000Y-78000000D03*
D11*
X79100000Y-78900000D03*
X80000000Y-78900000D03*
X80900000Y-78900000D03*
X79100000Y-78000000D03*
X80000000Y-78000000D03*
X80900000Y-78000000D03*
X80900000Y-77100000D03*
X80000000Y-77100000D03*
X79100000Y-77100000D03*
%TD*%
D16*
%TO.P,MK1,1*%
%TO.N,GND*%
X60000000Y-68000000D03*
%TD*%
D17*
%TO.P,J6,1*%
%TO.N,/data_out*%
X83730000Y-88000000D03*
D18*
%TO.P,J6,2*%
%TO.N,/clock_out*%
X86270000Y-88000000D03*
%TD*%
%TO.P,J1,2*%
%TO.N,/clock_in*%
X56270000Y-88000000D03*
D17*
%TO.P,J1,1*%
%TO.N,/data_in*%
X53730000Y-88000000D03*
%TD*%
D18*
%TO.P,J2,6*%
%TO.N,GND*%
X76350000Y-88000000D03*
%TO.P,J2,5*%
%TO.N,VCC*%
X73810000Y-88000000D03*
%TO.P,J2,4*%
%TO.N,GND*%
X71270000Y-88000000D03*
%TO.P,J2,3*%
%TO.N,VCC*%
X68730000Y-88000000D03*
%TO.P,J2,2*%
%TO.N,GND*%
X66190000Y-88000000D03*
D17*
%TO.P,J2,1*%
%TO.N,VCC*%
X63650000Y-88000000D03*
%TD*%
D16*
%TO.P,MK2,1*%
%TO.N,GND*%
X80000000Y-68000000D03*
%TD*%
D19*
%TO.N,GND*%
X65800000Y-58000000D03*
X65800000Y-78000000D03*
X85750000Y-78000000D03*
X85750000Y-58000000D03*
X68200000Y-70200000D03*
X70000000Y-70200000D03*
X68200000Y-69600000D03*
X70000000Y-69600000D03*
X68200000Y-69000000D03*
X70000000Y-69000000D03*
%TO.N,/LED_1.1_G*%
X61000000Y-54000000D03*
%TO.N,/LED_1.3_G*%
X61000000Y-74000000D03*
%TO.N,/LED_3.3_G*%
X81000000Y-74000000D03*
%TO.N,/LED_1.1_R*%
X61200000Y-54800038D03*
%TO.N,/LED_1.3_R*%
X61200000Y-74800038D03*
%TO.N,/LED_3.3_R*%
X81200000Y-74800038D03*
%TO.N,/LED_1.1_B*%
X60200000Y-53600010D03*
%TO.N,/LED_1.3_B*%
X60200000Y-73600010D03*
%TO.N,/LED_3.3_B*%
X80200000Y-73600010D03*
%TO.N,/LED_1.2_B*%
X59800000Y-61800000D03*
%TO.N,/LED_1.4_B*%
X59800000Y-81800000D03*
%TO.N,/LED_3.4_B*%
X79800000Y-81800000D03*
%TO.N,/LED_3.2_B*%
X79800000Y-61800000D03*
%TO.N,/LED_1.2_G*%
X59400000Y-63000000D03*
%TO.N,/LED_1.4_G*%
X59400000Y-83000000D03*
%TO.N,/LED_3.4_G*%
X79400000Y-83000000D03*
%TO.N,/LED_3.2_G*%
X79400000Y-63000000D03*
%TO.N,/LED_1.2_R*%
X59000000Y-64200000D03*
%TO.N,/LED_1.4_R*%
X59000000Y-84200000D03*
%TO.N,/LED_3.4_R*%
X79000000Y-84200000D03*
%TO.N,/LED_3.2_R*%
X79000000Y-64200000D03*
%TO.N,/LED_3.1_G*%
X81000000Y-54000000D03*
%TO.N,/LED_3.1_R*%
X81200000Y-54800038D03*
%TO.N,/LED_3.1_B*%
X80200000Y-53600010D03*
%TO.N,/clock_in*%
X55200000Y-57400000D03*
%TO.N,/data_in*%
X55200000Y-56600000D03*
%TO.N,/data_out*%
X76800000Y-79800014D03*
%TO.N,/clock_out*%
X76800000Y-79000000D03*
%TO.N,/clock_0-1*%
X76800000Y-56800000D03*
%TO.N,/data_0-1*%
X76800020Y-56000000D03*
%TO.N,/data_1-2*%
X68000000Y-59000000D03*
X70800000Y-59400000D03*
X56800000Y-76600000D03*
%TO.N,/clock_1-2*%
X68000000Y-58200000D03*
X70800000Y-58600000D03*
X56799984Y-77400000D03*
%TO.N,/clock_0-1*%
X56800000Y-58600000D03*
%TO.N,/clock_2-3*%
X68000000Y-79000000D03*
X70400000Y-79000000D03*
X75200000Y-79000000D03*
X56800000Y-78600000D03*
%TO.N,/clock_1-2*%
X76800000Y-58600000D03*
%TO.N,/data_0-1*%
X56800000Y-59400000D03*
%TO.N,/data_2-3*%
X75200012Y-79800000D03*
X70400000Y-79800000D03*
X67999988Y-79800000D03*
X56800000Y-79400000D03*
%TO.N,/data_1-2*%
X76800000Y-59400000D03*
%TD*%
D20*
%TO.N,GND*%
X60900000Y-58000000D02*
X60000000Y-58000000D01*
X65800000Y-58000000D02*
X60900000Y-58000000D01*
X65800000Y-58000000D02*
X66200005Y-57599995D01*
X69599995Y-57599995D02*
X70000000Y-58000000D01*
X66200005Y-57599995D02*
X69599995Y-57599995D01*
X70000000Y-78000000D02*
X69400000Y-78000000D01*
X69400000Y-78000000D02*
X69400000Y-80800000D01*
X69400000Y-80800000D02*
X70000000Y-81400000D01*
X70000000Y-81400000D02*
X70000000Y-86400000D01*
X65800000Y-78000000D02*
X70000000Y-78000000D01*
X60000000Y-78000000D02*
X65800000Y-78000000D01*
X80900000Y-78000000D02*
X85750000Y-78000000D01*
X80900000Y-58000000D02*
X85750000Y-58000000D01*
X68200000Y-70200000D02*
X68200000Y-69600000D01*
X70000000Y-69600000D02*
X70000000Y-70200000D01*
X70000000Y-70200000D02*
X70000000Y-78000000D01*
X68200000Y-69600000D02*
X68200000Y-69000000D01*
X70000000Y-69000000D02*
X70000000Y-69600000D01*
X68200000Y-69000000D02*
X67200000Y-68000000D01*
X67200000Y-68000000D02*
X64000000Y-68000000D01*
X64000000Y-68000000D02*
X60000000Y-68000000D01*
X70000000Y-68000000D02*
X70000000Y-69000000D01*
X70000000Y-68000000D02*
X80000000Y-68000000D01*
X70000000Y-58000000D02*
X70000000Y-68000000D01*
X80000000Y-78000000D02*
X70000000Y-78000000D01*
D21*
X71100001Y-86400000D02*
X70000000Y-86400000D01*
X70000000Y-86400000D02*
X66400000Y-86400000D01*
D20*
X70000000Y-58000000D02*
X80000000Y-58000000D01*
D21*
X71200000Y-86499999D02*
X71100001Y-86400000D01*
X66400000Y-86400000D02*
X66200000Y-86600000D01*
X66200000Y-86600000D02*
X66200000Y-87990000D01*
X66200000Y-87990000D02*
X66190000Y-88000000D01*
X76350000Y-88000000D02*
X76400000Y-87950000D01*
X76400000Y-87950000D02*
X76400000Y-86600000D01*
X76400000Y-86600000D02*
X76200000Y-86400000D01*
X71299999Y-86400000D02*
X71200000Y-86499999D01*
X76200000Y-86400000D02*
X71299999Y-86400000D01*
X71270000Y-88000000D02*
X71270000Y-86569999D01*
X71270000Y-86569999D02*
X71200000Y-86499999D01*
D20*
X60900000Y-78000000D02*
X60000000Y-78000000D01*
X80900000Y-78000000D02*
X80000000Y-78000000D01*
X80000000Y-78000000D02*
X79100000Y-78000000D01*
X80900000Y-58000000D02*
X80000000Y-58000000D01*
X80000000Y-58000000D02*
X79100000Y-58000000D01*
D22*
%TO.N,/LED_1.1_G*%
X59899999Y-54299999D02*
X60700001Y-54299999D01*
X55000000Y-53000000D02*
X58600000Y-53000000D01*
X58600000Y-53000000D02*
X59899999Y-54299999D01*
X60700001Y-54299999D02*
X61000000Y-54000000D01*
%TO.N,/LED_1.3_G*%
X60700001Y-74299999D02*
X61000000Y-74000000D01*
X58600000Y-73000000D02*
X59899999Y-74299999D01*
X59899999Y-74299999D02*
X60700001Y-74299999D01*
X55000000Y-73000000D02*
X58600000Y-73000000D01*
%TO.N,/LED_3.3_G*%
X80700001Y-74299999D02*
X81000000Y-74000000D01*
X79899999Y-74299999D02*
X80700001Y-74299999D01*
X75000000Y-73000000D02*
X78600000Y-73000000D01*
X78600000Y-73000000D02*
X79899999Y-74299999D01*
%TO.N,/LED_1.1_R*%
X61200000Y-54800038D02*
X59600038Y-54800038D01*
X59600038Y-54800038D02*
X59000000Y-54200000D01*
X55000000Y-54200000D02*
X59000000Y-54200000D01*
%TO.N,/LED_1.3_R*%
X59600038Y-74800038D02*
X59000000Y-74200000D01*
X55000000Y-74200000D02*
X59000000Y-74200000D01*
X61200000Y-74800038D02*
X59600038Y-74800038D01*
%TO.N,/LED_3.3_R*%
X79600038Y-74800038D02*
X79000000Y-74200000D01*
X75000000Y-74200000D02*
X79000000Y-74200000D01*
X81200000Y-74800038D02*
X79600038Y-74800038D01*
%TO.N,/LED_1.1_B*%
X60199990Y-53600000D02*
X60200000Y-53600010D01*
X58399990Y-51800000D02*
X60199990Y-53600000D01*
X55000000Y-51800000D02*
X58399990Y-51800000D01*
%TO.N,/LED_1.3_B*%
X58399990Y-71800000D02*
X60199990Y-73600000D01*
X60199990Y-73600000D02*
X60200000Y-73600010D01*
X55000000Y-71800000D02*
X58399990Y-71800000D01*
%TO.N,/LED_3.3_B*%
X78399990Y-71800000D02*
X80199990Y-73600000D01*
X75000000Y-71800000D02*
X78399990Y-71800000D01*
X80199990Y-73600000D02*
X80200000Y-73600010D01*
%TO.N,/LED_1.2_B*%
X55000000Y-61800000D02*
X59800000Y-61800000D01*
%TO.N,/LED_1.4_B*%
X55000000Y-81800000D02*
X59800000Y-81800000D01*
%TO.N,/LED_3.4_B*%
X75000000Y-81800000D02*
X79800000Y-81800000D01*
%TO.N,/LED_3.2_B*%
X75000000Y-61800000D02*
X79800000Y-61800000D01*
%TO.N,/LED_1.2_G*%
X59400000Y-63000000D02*
X55000000Y-63000000D01*
%TO.N,/LED_1.4_G*%
X59400000Y-83000000D02*
X55000000Y-83000000D01*
%TO.N,/LED_3.4_G*%
X79400000Y-83000000D02*
X75000000Y-83000000D01*
%TO.N,/LED_3.2_G*%
X79400000Y-63000000D02*
X75000000Y-63000000D01*
%TO.N,/LED_1.2_R*%
X59000000Y-64200000D02*
X55000000Y-64200000D01*
%TO.N,/LED_1.4_R*%
X59000000Y-84200000D02*
X55000000Y-84200000D01*
%TO.N,/LED_3.4_R*%
X79000000Y-84200000D02*
X75000000Y-84200000D01*
%TO.N,/LED_3.2_R*%
X79000000Y-64200000D02*
X75000000Y-64200000D01*
%TO.N,/LED_3.1_G*%
X80700001Y-54299999D02*
X81000000Y-54000000D01*
X79899999Y-54299999D02*
X80700001Y-54299999D01*
X78600000Y-53000000D02*
X79899999Y-54299999D01*
X75000000Y-53000000D02*
X78600000Y-53000000D01*
%TO.N,/LED_3.1_R*%
X75000000Y-54200000D02*
X79000000Y-54200000D01*
X81200000Y-54800038D02*
X79600038Y-54800038D01*
X79600038Y-54800038D02*
X79000000Y-54200000D01*
%TO.N,/LED_3.1_B*%
X75000000Y-51800000D02*
X78399990Y-51800000D01*
X78399990Y-51800000D02*
X80199990Y-53600000D01*
X80199990Y-53600000D02*
X80200000Y-53600010D01*
%TO.N,/LED_4.4_G*%
X83600000Y-83000000D02*
X82900000Y-83000000D01*
X84300000Y-83000000D02*
X83600000Y-83000000D01*
X85000000Y-83000000D02*
X84300000Y-83000000D01*
X85700000Y-83000000D02*
X85000000Y-83000000D01*
%TO.N,/LED_4.4_R*%
X85000000Y-84200000D02*
X85000000Y-84500000D01*
X85000000Y-84200000D02*
X85700000Y-84200000D01*
X84300000Y-84200000D02*
X85000000Y-84200000D01*
X83600000Y-84200000D02*
X84300000Y-84200000D01*
X82900000Y-84200000D02*
X83600000Y-84200000D01*
%TO.N,/LED_4.4_B*%
X85000000Y-81800000D02*
X85000000Y-81500000D01*
X85000000Y-81800000D02*
X85700000Y-81800000D01*
X84300000Y-81800000D02*
X85000000Y-81800000D01*
X83600000Y-81800000D02*
X84300000Y-81800000D01*
X82900000Y-81800000D02*
X83600000Y-81800000D01*
%TO.N,/clock_in*%
X56270000Y-88000000D02*
X55070000Y-86800000D01*
X55000000Y-57200000D02*
X55200000Y-57400000D01*
X55070000Y-86800000D02*
X51600000Y-86800000D01*
X51800000Y-57200000D02*
X55000000Y-57200000D01*
X51600000Y-86800000D02*
X51200000Y-86400000D01*
X51200000Y-86400000D02*
X51200000Y-57800000D01*
X51200000Y-57800000D02*
X51800000Y-57200000D01*
%TO.N,/data_in*%
X53730000Y-88000000D02*
X52930000Y-87200000D01*
X52930000Y-87200000D02*
X51400000Y-87200000D01*
X54775736Y-56600000D02*
X55200000Y-56600000D01*
X51400000Y-87200000D02*
X50800000Y-86600000D01*
X51600000Y-56800000D02*
X54575736Y-56800000D01*
X50800000Y-86600000D02*
X50800000Y-57600000D01*
X50800000Y-57600000D02*
X51600000Y-56800000D01*
X54575736Y-56800000D02*
X54775736Y-56600000D01*
%TO.N,/data_out*%
X83730000Y-88000000D02*
X83200000Y-88000000D01*
X80400000Y-80200000D02*
X77200000Y-80200000D01*
X83200000Y-88000000D02*
X81000000Y-85800000D01*
X81000000Y-85800000D02*
X81000000Y-80800000D01*
X81000000Y-80800000D02*
X80400000Y-80200000D01*
X77200000Y-80200000D02*
X76800014Y-79800014D01*
X76800014Y-79800014D02*
X76800000Y-79800014D01*
%TO.N,/clock_out*%
X77099999Y-79299999D02*
X76800000Y-79000000D01*
X77600000Y-79800000D02*
X77099999Y-79299999D01*
X80600000Y-79800000D02*
X77600000Y-79800000D01*
X81400000Y-80600000D02*
X80600000Y-79800000D01*
X81400000Y-85600000D02*
X81400000Y-80600000D01*
X82400000Y-86600000D02*
X81400000Y-85600000D01*
X86270000Y-88000000D02*
X84870000Y-86600000D01*
X84870000Y-86600000D02*
X82400000Y-86600000D01*
%TO.N,/clock_1-2*%
X76800000Y-58600000D02*
X76600000Y-58800000D01*
X76600000Y-58800000D02*
X71000000Y-58800000D01*
X71000000Y-58800000D02*
X70800000Y-58600000D01*
%TO.N,/clock_2-3*%
X75200000Y-79000000D02*
X75000000Y-79200000D01*
X75000000Y-79200000D02*
X70600000Y-79200000D01*
X70600000Y-79200000D02*
X70400000Y-79000000D01*
%TO.N,/clock_0-1*%
X56800000Y-57500020D02*
X56800000Y-56600000D01*
X56800000Y-56600000D02*
X57200000Y-56200000D01*
X57200000Y-56200000D02*
X76200000Y-56200000D01*
X76200000Y-56200000D02*
X76500001Y-56500001D01*
X76500001Y-56500001D02*
X76800000Y-56800000D01*
X56800000Y-57500020D02*
X56800000Y-58600000D01*
X56800000Y-57500020D02*
X56800000Y-57600000D01*
%TO.N,/data_0-1*%
X56800000Y-59400000D02*
X56249999Y-58849999D01*
X56249999Y-56550001D02*
X57000000Y-55800000D01*
X56249999Y-58849999D02*
X56249999Y-56550001D01*
X57000000Y-55800000D02*
X76600020Y-55800000D01*
X76600020Y-55800000D02*
X76800020Y-56000000D01*
%TO.N,/data_2-3*%
X75200012Y-79800000D02*
X75000012Y-79600000D01*
X75000012Y-79600000D02*
X70600000Y-79600000D01*
X70600000Y-79600000D02*
X70400000Y-79800000D01*
X56800000Y-79400000D02*
X57600000Y-80200000D01*
X57600000Y-80200000D02*
X67600000Y-80200000D01*
X67600000Y-80200000D02*
X68000000Y-79800000D01*
%TO.N,/data_1-2*%
X70800000Y-59400000D02*
X71000000Y-59200000D01*
X71000000Y-59200000D02*
X76600000Y-59200000D01*
X76600000Y-59200000D02*
X76800000Y-59400000D01*
X56800000Y-76600000D02*
X57200000Y-76200000D01*
X68600000Y-76200000D02*
X69299999Y-75500001D01*
X57200000Y-76200000D02*
X68600000Y-76200000D01*
X69299999Y-75500001D02*
X69299999Y-60499999D01*
X68299999Y-59299999D02*
X68000000Y-59000000D01*
X69299999Y-60499999D02*
X68299999Y-59499999D01*
X68299999Y-59499999D02*
X68299999Y-59299999D01*
%TO.N,/clock_1-2*%
X56799984Y-77400000D02*
X56249998Y-76850014D01*
X56249998Y-76850014D02*
X56249998Y-76335998D01*
X56249998Y-76335998D02*
X56785996Y-75800000D01*
X56785996Y-75800000D02*
X68400000Y-75800000D01*
X68400000Y-75800000D02*
X68800000Y-75400000D01*
X67449993Y-59249993D02*
X67449993Y-58750007D01*
X68800000Y-75400000D02*
X68800000Y-60600000D01*
X68800000Y-60600000D02*
X67449993Y-59249993D01*
X67449993Y-58750007D02*
X67700001Y-58499999D01*
X67700001Y-58499999D02*
X68000000Y-58200000D01*
%TO.N,/clock_2-3*%
X56800000Y-78600000D02*
X58000000Y-79800000D01*
X58000000Y-79800000D02*
X67200000Y-79800000D01*
X67200000Y-79800000D02*
X67700001Y-79299999D01*
X67700001Y-79299999D02*
X68000000Y-79000000D01*
%TD*%
D23*
%TO.N,GND*%
G36*
X89700000Y-89700000D02*
X50300000Y-89700000D01*
X50300000Y-57600000D01*
X50475000Y-57600000D01*
X50475000Y-86600000D01*
X50499739Y-86724372D01*
X50570190Y-86829810D01*
X51170190Y-87429810D01*
X51275628Y-87500261D01*
X51400000Y-87525000D01*
X52650592Y-87525000D01*
X52650592Y-88850000D01*
X52668055Y-88937791D01*
X52717784Y-89012216D01*
X52792209Y-89061945D01*
X52880000Y-89079408D01*
X54580000Y-89079408D01*
X54667791Y-89061945D01*
X54742216Y-89012216D01*
X54791945Y-88937791D01*
X54809408Y-88850000D01*
X54809408Y-87150000D01*
X54804435Y-87125000D01*
X54935380Y-87125000D01*
X55317327Y-87506947D01*
X55276830Y-87567555D01*
X55195000Y-87978940D01*
X55195000Y-88021060D01*
X55276830Y-88432445D01*
X55509860Y-88781200D01*
X55858615Y-89014230D01*
X56270000Y-89096060D01*
X56681385Y-89014230D01*
X57030140Y-88781200D01*
X57263170Y-88432445D01*
X57345000Y-88021060D01*
X57345000Y-87978940D01*
X57263170Y-87567555D01*
X57030140Y-87218800D01*
X56927174Y-87150000D01*
X62570592Y-87150000D01*
X62570592Y-88850000D01*
X62588055Y-88937791D01*
X62637784Y-89012216D01*
X62712209Y-89061945D01*
X62800000Y-89079408D01*
X64500000Y-89079408D01*
X64587791Y-89061945D01*
X64662216Y-89012216D01*
X64711945Y-88937791D01*
X64729408Y-88850000D01*
X64729408Y-87978940D01*
X67655000Y-87978940D01*
X67655000Y-88021060D01*
X67736830Y-88432445D01*
X67969860Y-88781200D01*
X68318615Y-89014230D01*
X68730000Y-89096060D01*
X69141385Y-89014230D01*
X69490140Y-88781200D01*
X69723170Y-88432445D01*
X69805000Y-88021060D01*
X69805000Y-87978940D01*
X72735000Y-87978940D01*
X72735000Y-88021060D01*
X72816830Y-88432445D01*
X73049860Y-88781200D01*
X73398615Y-89014230D01*
X73810000Y-89096060D01*
X74221385Y-89014230D01*
X74570140Y-88781200D01*
X74803170Y-88432445D01*
X74885000Y-88021060D01*
X74885000Y-87978940D01*
X74803170Y-87567555D01*
X74570140Y-87218800D01*
X74221385Y-86985770D01*
X73810000Y-86903940D01*
X73398615Y-86985770D01*
X73049860Y-87218800D01*
X72816830Y-87567555D01*
X72735000Y-87978940D01*
X69805000Y-87978940D01*
X69723170Y-87567555D01*
X69490140Y-87218800D01*
X69141385Y-86985770D01*
X68730000Y-86903940D01*
X68318615Y-86985770D01*
X67969860Y-87218800D01*
X67736830Y-87567555D01*
X67655000Y-87978940D01*
X64729408Y-87978940D01*
X64729408Y-87150000D01*
X64711945Y-87062209D01*
X64662216Y-86987784D01*
X64587791Y-86938055D01*
X64500000Y-86920592D01*
X62800000Y-86920592D01*
X62712209Y-86938055D01*
X62637784Y-86987784D01*
X62588055Y-87062209D01*
X62570592Y-87150000D01*
X56927174Y-87150000D01*
X56681385Y-86985770D01*
X56270000Y-86903940D01*
X55858615Y-86985770D01*
X55772758Y-87043138D01*
X55299810Y-86570190D01*
X55194372Y-86499739D01*
X55070000Y-86475000D01*
X51734619Y-86475000D01*
X51525000Y-86265380D01*
X51525000Y-80870000D01*
X51770592Y-80870000D01*
X51770592Y-82130000D01*
X51793383Y-82244578D01*
X51827972Y-82296344D01*
X51792622Y-82349248D01*
X51770592Y-82460000D01*
X51770592Y-83540000D01*
X51792622Y-83650752D01*
X51827972Y-83703656D01*
X51793383Y-83755422D01*
X51770592Y-83870000D01*
X51770592Y-85130000D01*
X51793383Y-85244578D01*
X51858287Y-85341713D01*
X51955422Y-85406617D01*
X52070000Y-85429408D01*
X57930000Y-85429408D01*
X58044578Y-85406617D01*
X58141713Y-85341713D01*
X58206617Y-85244578D01*
X58229408Y-85130000D01*
X58229408Y-84525000D01*
X58582618Y-84525000D01*
X58702223Y-84644814D01*
X58895113Y-84724908D01*
X59103971Y-84725091D01*
X59297000Y-84645333D01*
X59444814Y-84497777D01*
X59524908Y-84304887D01*
X59525091Y-84096029D01*
X59445333Y-83903000D01*
X59297777Y-83755186D01*
X59104887Y-83675092D01*
X58896029Y-83674909D01*
X58703000Y-83754667D01*
X58582457Y-83875000D01*
X58229408Y-83875000D01*
X58229408Y-83870000D01*
X58206617Y-83755422D01*
X58172028Y-83703656D01*
X58207378Y-83650752D01*
X58229408Y-83540000D01*
X58229408Y-83325000D01*
X58982618Y-83325000D01*
X59102223Y-83444814D01*
X59295113Y-83524908D01*
X59503971Y-83525091D01*
X59697000Y-83445333D01*
X59844814Y-83297777D01*
X59924908Y-83104887D01*
X59925091Y-82896029D01*
X59845333Y-82703000D01*
X59697777Y-82555186D01*
X59504887Y-82475092D01*
X59296029Y-82474909D01*
X59103000Y-82554667D01*
X58982457Y-82675000D01*
X58229408Y-82675000D01*
X58229408Y-82460000D01*
X58207378Y-82349248D01*
X58172028Y-82296344D01*
X58206617Y-82244578D01*
X58229408Y-82130000D01*
X58229408Y-82125000D01*
X59382618Y-82125000D01*
X59502223Y-82244814D01*
X59695113Y-82324908D01*
X59903971Y-82325091D01*
X60097000Y-82245333D01*
X60244814Y-82097777D01*
X60324908Y-81904887D01*
X60325091Y-81696029D01*
X60245333Y-81503000D01*
X60097777Y-81355186D01*
X59904887Y-81275092D01*
X59696029Y-81274909D01*
X59503000Y-81354667D01*
X59382457Y-81475000D01*
X58229408Y-81475000D01*
X58229408Y-80870000D01*
X61770592Y-80870000D01*
X61770592Y-82130000D01*
X61793383Y-82244578D01*
X61827972Y-82296344D01*
X61792622Y-82349248D01*
X61770592Y-82460000D01*
X61770592Y-83540000D01*
X61792622Y-83650752D01*
X61827972Y-83703656D01*
X61793383Y-83755422D01*
X61770592Y-83870000D01*
X61770592Y-85130000D01*
X61793383Y-85244578D01*
X61858287Y-85341713D01*
X61955422Y-85406617D01*
X62070000Y-85429408D01*
X67930000Y-85429408D01*
X68044578Y-85406617D01*
X68141713Y-85341713D01*
X68206617Y-85244578D01*
X68229408Y-85130000D01*
X68229408Y-83870000D01*
X68206617Y-83755422D01*
X68172028Y-83703656D01*
X68207378Y-83650752D01*
X68229408Y-83540000D01*
X68229408Y-82460000D01*
X68207378Y-82349248D01*
X68172028Y-82296344D01*
X68206617Y-82244578D01*
X68229408Y-82130000D01*
X68229408Y-80870000D01*
X71770592Y-80870000D01*
X71770592Y-82130000D01*
X71793383Y-82244578D01*
X71827972Y-82296344D01*
X71792622Y-82349248D01*
X71770592Y-82460000D01*
X71770592Y-83540000D01*
X71792622Y-83650752D01*
X71827972Y-83703656D01*
X71793383Y-83755422D01*
X71770592Y-83870000D01*
X71770592Y-85130000D01*
X71793383Y-85244578D01*
X71858287Y-85341713D01*
X71955422Y-85406617D01*
X72070000Y-85429408D01*
X77930000Y-85429408D01*
X78044578Y-85406617D01*
X78141713Y-85341713D01*
X78206617Y-85244578D01*
X78229408Y-85130000D01*
X78229408Y-84525000D01*
X78582618Y-84525000D01*
X78702223Y-84644814D01*
X78895113Y-84724908D01*
X79103971Y-84725091D01*
X79297000Y-84645333D01*
X79444814Y-84497777D01*
X79524908Y-84304887D01*
X79525091Y-84096029D01*
X79445333Y-83903000D01*
X79297777Y-83755186D01*
X79104887Y-83675092D01*
X78896029Y-83674909D01*
X78703000Y-83754667D01*
X78582457Y-83875000D01*
X78229408Y-83875000D01*
X78229408Y-83870000D01*
X78206617Y-83755422D01*
X78172028Y-83703656D01*
X78207378Y-83650752D01*
X78229408Y-83540000D01*
X78229408Y-83325000D01*
X78982618Y-83325000D01*
X79102223Y-83444814D01*
X79295113Y-83524908D01*
X79503971Y-83525091D01*
X79697000Y-83445333D01*
X79844814Y-83297777D01*
X79924908Y-83104887D01*
X79925091Y-82896029D01*
X79845333Y-82703000D01*
X79697777Y-82555186D01*
X79504887Y-82475092D01*
X79296029Y-82474909D01*
X79103000Y-82554667D01*
X78982457Y-82675000D01*
X78229408Y-82675000D01*
X78229408Y-82460000D01*
X78207378Y-82349248D01*
X78172028Y-82296344D01*
X78206617Y-82244578D01*
X78229408Y-82130000D01*
X78229408Y-82125000D01*
X79382618Y-82125000D01*
X79502223Y-82244814D01*
X79695113Y-82324908D01*
X79903971Y-82325091D01*
X80097000Y-82245333D01*
X80244814Y-82097777D01*
X80324908Y-81904887D01*
X80325091Y-81696029D01*
X80245333Y-81503000D01*
X80097777Y-81355186D01*
X79904887Y-81275092D01*
X79696029Y-81274909D01*
X79503000Y-81354667D01*
X79382457Y-81475000D01*
X78229408Y-81475000D01*
X78229408Y-80870000D01*
X78206617Y-80755422D01*
X78141713Y-80658287D01*
X78044578Y-80593383D01*
X77930000Y-80570592D01*
X72070000Y-80570592D01*
X71955422Y-80593383D01*
X71858287Y-80658287D01*
X71793383Y-80755422D01*
X71770592Y-80870000D01*
X68229408Y-80870000D01*
X68206617Y-80755422D01*
X68141713Y-80658287D01*
X68044578Y-80593383D01*
X67930000Y-80570592D01*
X62070000Y-80570592D01*
X61955422Y-80593383D01*
X61858287Y-80658287D01*
X61793383Y-80755422D01*
X61770592Y-80870000D01*
X58229408Y-80870000D01*
X58206617Y-80755422D01*
X58141713Y-80658287D01*
X58044578Y-80593383D01*
X57930000Y-80570592D01*
X52070000Y-80570592D01*
X51955422Y-80593383D01*
X51858287Y-80658287D01*
X51793383Y-80755422D01*
X51770592Y-80870000D01*
X51525000Y-80870000D01*
X51525000Y-78703971D01*
X56274909Y-78703971D01*
X56354667Y-78897000D01*
X56457537Y-79000050D01*
X56355186Y-79102223D01*
X56275092Y-79295113D01*
X56274909Y-79503971D01*
X56354667Y-79697000D01*
X56502223Y-79844814D01*
X56695113Y-79924908D01*
X56865437Y-79925057D01*
X57370190Y-80429810D01*
X57475628Y-80500261D01*
X57600000Y-80525001D01*
X57600005Y-80525000D01*
X67600000Y-80525000D01*
X67724372Y-80500261D01*
X67829810Y-80429810D01*
X67934677Y-80324943D01*
X68103959Y-80325091D01*
X68296988Y-80245333D01*
X68444802Y-80097777D01*
X68524896Y-79904887D01*
X68525079Y-79696029D01*
X68445321Y-79503000D01*
X68342457Y-79399956D01*
X68444814Y-79297777D01*
X68524908Y-79104887D01*
X68524908Y-79103971D01*
X69874909Y-79103971D01*
X69954667Y-79297000D01*
X70057537Y-79400050D01*
X69955186Y-79502223D01*
X69875092Y-79695113D01*
X69874909Y-79903971D01*
X69954667Y-80097000D01*
X70102223Y-80244814D01*
X70295113Y-80324908D01*
X70503971Y-80325091D01*
X70697000Y-80245333D01*
X70844814Y-80097777D01*
X70916556Y-79925000D01*
X74683610Y-79925000D01*
X74754679Y-80097000D01*
X74902235Y-80244814D01*
X75095125Y-80324908D01*
X75303983Y-80325091D01*
X75497012Y-80245333D01*
X75644826Y-80097777D01*
X75724920Y-79904887D01*
X75725103Y-79696029D01*
X75645345Y-79503000D01*
X75542469Y-79399944D01*
X75644814Y-79297777D01*
X75724908Y-79104887D01*
X75724908Y-79103971D01*
X76274909Y-79103971D01*
X76354667Y-79297000D01*
X76457544Y-79400057D01*
X76355186Y-79502237D01*
X76275092Y-79695127D01*
X76274909Y-79903985D01*
X76354667Y-80097014D01*
X76502223Y-80244828D01*
X76695113Y-80324922D01*
X76865452Y-80325071D01*
X76970188Y-80429807D01*
X76970190Y-80429810D01*
X77037822Y-80475000D01*
X77075628Y-80500261D01*
X77200000Y-80525001D01*
X77200005Y-80525000D01*
X80265380Y-80525000D01*
X80675000Y-80934620D01*
X80675000Y-85800000D01*
X80699739Y-85924372D01*
X80770190Y-86029810D01*
X82650592Y-87910212D01*
X82650592Y-88850000D01*
X82668055Y-88937791D01*
X82717784Y-89012216D01*
X82792209Y-89061945D01*
X82880000Y-89079408D01*
X84580000Y-89079408D01*
X84667791Y-89061945D01*
X84742216Y-89012216D01*
X84791945Y-88937791D01*
X84809408Y-88850000D01*
X84809408Y-87150000D01*
X84791945Y-87062209D01*
X84742216Y-86987784D01*
X84667791Y-86938055D01*
X84602160Y-86925000D01*
X84735380Y-86925000D01*
X85317327Y-87506947D01*
X85276830Y-87567555D01*
X85195000Y-87978940D01*
X85195000Y-88021060D01*
X85276830Y-88432445D01*
X85509860Y-88781200D01*
X85858615Y-89014230D01*
X86270000Y-89096060D01*
X86681385Y-89014230D01*
X87030140Y-88781200D01*
X87263170Y-88432445D01*
X87345000Y-88021060D01*
X87345000Y-87978940D01*
X87263170Y-87567555D01*
X87030140Y-87218800D01*
X86681385Y-86985770D01*
X86270000Y-86903940D01*
X85858615Y-86985770D01*
X85772758Y-87043138D01*
X85099810Y-86370190D01*
X84994372Y-86299739D01*
X84870000Y-86275000D01*
X82534619Y-86275000D01*
X81725000Y-85465380D01*
X81725000Y-80870000D01*
X81770592Y-80870000D01*
X81770592Y-82130000D01*
X81793383Y-82244578D01*
X81827972Y-82296344D01*
X81792622Y-82349248D01*
X81770592Y-82460000D01*
X81770592Y-83540000D01*
X81792622Y-83650752D01*
X81827972Y-83703656D01*
X81793383Y-83755422D01*
X81770592Y-83870000D01*
X81770592Y-85130000D01*
X81793383Y-85244578D01*
X81858287Y-85341713D01*
X81955422Y-85406617D01*
X82070000Y-85429408D01*
X87930000Y-85429408D01*
X88044578Y-85406617D01*
X88141713Y-85341713D01*
X88206617Y-85244578D01*
X88229408Y-85130000D01*
X88229408Y-83870000D01*
X88206617Y-83755422D01*
X88172028Y-83703656D01*
X88207378Y-83650752D01*
X88229408Y-83540000D01*
X88229408Y-82460000D01*
X88207378Y-82349248D01*
X88172028Y-82296344D01*
X88206617Y-82244578D01*
X88229408Y-82130000D01*
X88229408Y-80870000D01*
X88206617Y-80755422D01*
X88141713Y-80658287D01*
X88044578Y-80593383D01*
X87930000Y-80570592D01*
X82070000Y-80570592D01*
X81955422Y-80593383D01*
X81858287Y-80658287D01*
X81793383Y-80755422D01*
X81770592Y-80870000D01*
X81725000Y-80870000D01*
X81725000Y-80600005D01*
X81725001Y-80600000D01*
X81700261Y-80475628D01*
X81629810Y-80370190D01*
X80829810Y-79570190D01*
X80724372Y-79499739D01*
X80600000Y-79475000D01*
X77734620Y-79475000D01*
X77329809Y-79070189D01*
X77329806Y-79070187D01*
X77324943Y-79065324D01*
X77325091Y-78896029D01*
X77245333Y-78703000D01*
X77097777Y-78555186D01*
X76904887Y-78475092D01*
X76696029Y-78474909D01*
X76503000Y-78554667D01*
X76355186Y-78702223D01*
X76275092Y-78895113D01*
X76274909Y-79103971D01*
X75724908Y-79103971D01*
X75725091Y-78896029D01*
X75645333Y-78703000D01*
X75497777Y-78555186D01*
X75304887Y-78475092D01*
X75096029Y-78474909D01*
X74903000Y-78554667D01*
X74755186Y-78702223D01*
X74683444Y-78875000D01*
X70916402Y-78875000D01*
X70845333Y-78703000D01*
X70697777Y-78555186D01*
X70504887Y-78475092D01*
X70296029Y-78474909D01*
X70103000Y-78554667D01*
X69955186Y-78702223D01*
X69875092Y-78895113D01*
X69874909Y-79103971D01*
X68524908Y-79103971D01*
X68525091Y-78896029D01*
X68445333Y-78703000D01*
X68297777Y-78555186D01*
X68104887Y-78475092D01*
X67896029Y-78474909D01*
X67703000Y-78554667D01*
X67555186Y-78702223D01*
X67475092Y-78895113D01*
X67474943Y-79065437D01*
X67065380Y-79475000D01*
X58134620Y-79475000D01*
X57324943Y-78665323D01*
X57325091Y-78496029D01*
X57245333Y-78303000D01*
X57097777Y-78155186D01*
X56904887Y-78075092D01*
X56696029Y-78074909D01*
X56503000Y-78154667D01*
X56355186Y-78302223D01*
X56275092Y-78495113D01*
X56274909Y-78703971D01*
X51525000Y-78703971D01*
X51525000Y-76335998D01*
X55924998Y-76335998D01*
X55924998Y-76850014D01*
X55949737Y-76974386D01*
X56020188Y-77079824D01*
X56275041Y-77334677D01*
X56274893Y-77503971D01*
X56354651Y-77697000D01*
X56502207Y-77844814D01*
X56695097Y-77924908D01*
X56903955Y-77925091D01*
X57096984Y-77845333D01*
X57244798Y-77697777D01*
X57324892Y-77504887D01*
X57325075Y-77296029D01*
X57245317Y-77103000D01*
X57142455Y-76999958D01*
X57244814Y-76897777D01*
X57324908Y-76704887D01*
X57325057Y-76534562D01*
X57334619Y-76525000D01*
X68600000Y-76525000D01*
X68724372Y-76500261D01*
X68829810Y-76429810D01*
X69529809Y-75729811D01*
X69600260Y-75624373D01*
X69624999Y-75500001D01*
X69624999Y-70870000D01*
X71770592Y-70870000D01*
X71770592Y-72130000D01*
X71793383Y-72244578D01*
X71827972Y-72296344D01*
X71792622Y-72349248D01*
X71770592Y-72460000D01*
X71770592Y-73540000D01*
X71792622Y-73650752D01*
X71827972Y-73703656D01*
X71793383Y-73755422D01*
X71770592Y-73870000D01*
X71770592Y-75130000D01*
X71793383Y-75244578D01*
X71858287Y-75341713D01*
X71955422Y-75406617D01*
X72070000Y-75429408D01*
X77930000Y-75429408D01*
X78044578Y-75406617D01*
X78141713Y-75341713D01*
X78206617Y-75244578D01*
X78229408Y-75130000D01*
X78229408Y-74525000D01*
X78865380Y-74525000D01*
X79370228Y-75029848D01*
X79475666Y-75100299D01*
X79600038Y-75125039D01*
X79600043Y-75125038D01*
X80782618Y-75125038D01*
X80902223Y-75244852D01*
X81095113Y-75324946D01*
X81303971Y-75325129D01*
X81497000Y-75245371D01*
X81644814Y-75097815D01*
X81724908Y-74904925D01*
X81725091Y-74696067D01*
X81645333Y-74503038D01*
X81497777Y-74355224D01*
X81419731Y-74322817D01*
X81444814Y-74297777D01*
X81524908Y-74104887D01*
X81525091Y-73896029D01*
X81445333Y-73703000D01*
X81297777Y-73555186D01*
X81104887Y-73475092D01*
X80896029Y-73474909D01*
X80725048Y-73545557D01*
X80725091Y-73496039D01*
X80645333Y-73303010D01*
X80497777Y-73155196D01*
X80304887Y-73075102D01*
X80134562Y-73074953D01*
X78629800Y-71570190D01*
X78524362Y-71499739D01*
X78399990Y-71475000D01*
X78229408Y-71475000D01*
X78229408Y-70870000D01*
X81770592Y-70870000D01*
X81770592Y-72130000D01*
X81793383Y-72244578D01*
X81827972Y-72296344D01*
X81792622Y-72349248D01*
X81770592Y-72460000D01*
X81770592Y-73540000D01*
X81792622Y-73650752D01*
X81827972Y-73703656D01*
X81793383Y-73755422D01*
X81770592Y-73870000D01*
X81770592Y-75130000D01*
X81793383Y-75244578D01*
X81858287Y-75341713D01*
X81955422Y-75406617D01*
X82070000Y-75429408D01*
X87930000Y-75429408D01*
X88044578Y-75406617D01*
X88141713Y-75341713D01*
X88206617Y-75244578D01*
X88229408Y-75130000D01*
X88229408Y-73870000D01*
X88206617Y-73755422D01*
X88172028Y-73703656D01*
X88207378Y-73650752D01*
X88229408Y-73540000D01*
X88229408Y-72460000D01*
X88207378Y-72349248D01*
X88172028Y-72296344D01*
X88206617Y-72244578D01*
X88229408Y-72130000D01*
X88229408Y-70870000D01*
X88206617Y-70755422D01*
X88141713Y-70658287D01*
X88044578Y-70593383D01*
X87930000Y-70570592D01*
X82070000Y-70570592D01*
X81955422Y-70593383D01*
X81858287Y-70658287D01*
X81793383Y-70755422D01*
X81770592Y-70870000D01*
X78229408Y-70870000D01*
X78206617Y-70755422D01*
X78141713Y-70658287D01*
X78044578Y-70593383D01*
X77930000Y-70570592D01*
X72070000Y-70570592D01*
X71955422Y-70593383D01*
X71858287Y-70658287D01*
X71793383Y-70755422D01*
X71770592Y-70870000D01*
X69624999Y-70870000D01*
X69624999Y-60870000D01*
X71770592Y-60870000D01*
X71770592Y-62130000D01*
X71793383Y-62244578D01*
X71827972Y-62296344D01*
X71792622Y-62349248D01*
X71770592Y-62460000D01*
X71770592Y-63540000D01*
X71792622Y-63650752D01*
X71827972Y-63703656D01*
X71793383Y-63755422D01*
X71770592Y-63870000D01*
X71770592Y-65130000D01*
X71793383Y-65244578D01*
X71858287Y-65341713D01*
X71955422Y-65406617D01*
X72070000Y-65429408D01*
X77930000Y-65429408D01*
X78044578Y-65406617D01*
X78141713Y-65341713D01*
X78206617Y-65244578D01*
X78229408Y-65130000D01*
X78229408Y-64525000D01*
X78582618Y-64525000D01*
X78702223Y-64644814D01*
X78895113Y-64724908D01*
X79103971Y-64725091D01*
X79297000Y-64645333D01*
X79444814Y-64497777D01*
X79524908Y-64304887D01*
X79525091Y-64096029D01*
X79445333Y-63903000D01*
X79297777Y-63755186D01*
X79104887Y-63675092D01*
X78896029Y-63674909D01*
X78703000Y-63754667D01*
X78582457Y-63875000D01*
X78229408Y-63875000D01*
X78229408Y-63870000D01*
X78206617Y-63755422D01*
X78172028Y-63703656D01*
X78207378Y-63650752D01*
X78229408Y-63540000D01*
X78229408Y-63325000D01*
X78982618Y-63325000D01*
X79102223Y-63444814D01*
X79295113Y-63524908D01*
X79503971Y-63525091D01*
X79697000Y-63445333D01*
X79844814Y-63297777D01*
X79924908Y-63104887D01*
X79925091Y-62896029D01*
X79845333Y-62703000D01*
X79697777Y-62555186D01*
X79504887Y-62475092D01*
X79296029Y-62474909D01*
X79103000Y-62554667D01*
X78982457Y-62675000D01*
X78229408Y-62675000D01*
X78229408Y-62460000D01*
X78207378Y-62349248D01*
X78172028Y-62296344D01*
X78206617Y-62244578D01*
X78229408Y-62130000D01*
X78229408Y-62125000D01*
X79382618Y-62125000D01*
X79502223Y-62244814D01*
X79695113Y-62324908D01*
X79903971Y-62325091D01*
X80097000Y-62245333D01*
X80244814Y-62097777D01*
X80324908Y-61904887D01*
X80325091Y-61696029D01*
X80245333Y-61503000D01*
X80097777Y-61355186D01*
X79904887Y-61275092D01*
X79696029Y-61274909D01*
X79503000Y-61354667D01*
X79382457Y-61475000D01*
X78229408Y-61475000D01*
X78229408Y-60870000D01*
X81770592Y-60870000D01*
X81770592Y-62130000D01*
X81793383Y-62244578D01*
X81827972Y-62296344D01*
X81792622Y-62349248D01*
X81770592Y-62460000D01*
X81770592Y-63540000D01*
X81792622Y-63650752D01*
X81827972Y-63703656D01*
X81793383Y-63755422D01*
X81770592Y-63870000D01*
X81770592Y-65130000D01*
X81793383Y-65244578D01*
X81858287Y-65341713D01*
X81955422Y-65406617D01*
X82070000Y-65429408D01*
X87930000Y-65429408D01*
X88044578Y-65406617D01*
X88141713Y-65341713D01*
X88206617Y-65244578D01*
X88229408Y-65130000D01*
X88229408Y-63870000D01*
X88206617Y-63755422D01*
X88172028Y-63703656D01*
X88207378Y-63650752D01*
X88229408Y-63540000D01*
X88229408Y-62460000D01*
X88207378Y-62349248D01*
X88172028Y-62296344D01*
X88206617Y-62244578D01*
X88229408Y-62130000D01*
X88229408Y-60870000D01*
X88206617Y-60755422D01*
X88141713Y-60658287D01*
X88044578Y-60593383D01*
X87930000Y-60570592D01*
X82070000Y-60570592D01*
X81955422Y-60593383D01*
X81858287Y-60658287D01*
X81793383Y-60755422D01*
X81770592Y-60870000D01*
X78229408Y-60870000D01*
X78206617Y-60755422D01*
X78141713Y-60658287D01*
X78044578Y-60593383D01*
X77930000Y-60570592D01*
X72070000Y-60570592D01*
X71955422Y-60593383D01*
X71858287Y-60658287D01*
X71793383Y-60755422D01*
X71770592Y-60870000D01*
X69624999Y-60870000D01*
X69624999Y-60500004D01*
X69625000Y-60499999D01*
X69600260Y-60375627D01*
X69596627Y-60370190D01*
X69529809Y-60270189D01*
X69529806Y-60270187D01*
X68624999Y-59365379D01*
X68624999Y-59300004D01*
X68625000Y-59299999D01*
X68600260Y-59175627D01*
X68566371Y-59124908D01*
X68529809Y-59070189D01*
X68529806Y-59070187D01*
X68524943Y-59065324D01*
X68525091Y-58896029D01*
X68445735Y-58703971D01*
X70274909Y-58703971D01*
X70354667Y-58897000D01*
X70457537Y-59000050D01*
X70355186Y-59102223D01*
X70275092Y-59295113D01*
X70274909Y-59503971D01*
X70354667Y-59697000D01*
X70502223Y-59844814D01*
X70695113Y-59924908D01*
X70903971Y-59925091D01*
X71097000Y-59845333D01*
X71244814Y-59697777D01*
X71316556Y-59525000D01*
X76283598Y-59525000D01*
X76354667Y-59697000D01*
X76502223Y-59844814D01*
X76695113Y-59924908D01*
X76903971Y-59925091D01*
X77097000Y-59845333D01*
X77244814Y-59697777D01*
X77324908Y-59504887D01*
X77325091Y-59296029D01*
X77245333Y-59103000D01*
X77142463Y-58999950D01*
X77244814Y-58897777D01*
X77324908Y-58704887D01*
X77325091Y-58496029D01*
X77245333Y-58303000D01*
X77097777Y-58155186D01*
X76904887Y-58075092D01*
X76696029Y-58074909D01*
X76503000Y-58154667D01*
X76355186Y-58302223D01*
X76283444Y-58475000D01*
X71316402Y-58475000D01*
X71245333Y-58303000D01*
X71097777Y-58155186D01*
X70904887Y-58075092D01*
X70696029Y-58074909D01*
X70503000Y-58154667D01*
X70355186Y-58302223D01*
X70275092Y-58495113D01*
X70274909Y-58703971D01*
X68445735Y-58703971D01*
X68445333Y-58703000D01*
X68342463Y-58599950D01*
X68444814Y-58497777D01*
X68524908Y-58304887D01*
X68525091Y-58096029D01*
X68445333Y-57903000D01*
X68297777Y-57755186D01*
X68104887Y-57675092D01*
X67896029Y-57674909D01*
X67703000Y-57754667D01*
X67555186Y-57902223D01*
X67475092Y-58095113D01*
X67474943Y-58265437D01*
X67470191Y-58270189D01*
X67470189Y-58270192D01*
X67220183Y-58520197D01*
X67149732Y-58625635D01*
X67124993Y-58750007D01*
X67124993Y-59249993D01*
X67149732Y-59374365D01*
X67220183Y-59479803D01*
X68475000Y-60734620D01*
X68475000Y-75265381D01*
X68265380Y-75475000D01*
X56786001Y-75475000D01*
X56785996Y-75474999D01*
X56661624Y-75499739D01*
X56556186Y-75570190D01*
X56556184Y-75570193D01*
X56020188Y-76106188D01*
X55949737Y-76211626D01*
X55924998Y-76335998D01*
X51525000Y-76335998D01*
X51525000Y-70870000D01*
X51770592Y-70870000D01*
X51770592Y-72130000D01*
X51793383Y-72244578D01*
X51827972Y-72296344D01*
X51792622Y-72349248D01*
X51770592Y-72460000D01*
X51770592Y-73540000D01*
X51792622Y-73650752D01*
X51827972Y-73703656D01*
X51793383Y-73755422D01*
X51770592Y-73870000D01*
X51770592Y-75130000D01*
X51793383Y-75244578D01*
X51858287Y-75341713D01*
X51955422Y-75406617D01*
X52070000Y-75429408D01*
X57930000Y-75429408D01*
X58044578Y-75406617D01*
X58141713Y-75341713D01*
X58206617Y-75244578D01*
X58229408Y-75130000D01*
X58229408Y-74525000D01*
X58865380Y-74525000D01*
X59370228Y-75029848D01*
X59475666Y-75100299D01*
X59600038Y-75125039D01*
X59600043Y-75125038D01*
X60782618Y-75125038D01*
X60902223Y-75244852D01*
X61095113Y-75324946D01*
X61303971Y-75325129D01*
X61497000Y-75245371D01*
X61644814Y-75097815D01*
X61724908Y-74904925D01*
X61725091Y-74696067D01*
X61645333Y-74503038D01*
X61497777Y-74355224D01*
X61419731Y-74322817D01*
X61444814Y-74297777D01*
X61524908Y-74104887D01*
X61525091Y-73896029D01*
X61445333Y-73703000D01*
X61297777Y-73555186D01*
X61104887Y-73475092D01*
X60896029Y-73474909D01*
X60725048Y-73545557D01*
X60725091Y-73496039D01*
X60645333Y-73303010D01*
X60497777Y-73155196D01*
X60304887Y-73075102D01*
X60134562Y-73074953D01*
X58629800Y-71570190D01*
X58524362Y-71499739D01*
X58399990Y-71475000D01*
X58229408Y-71475000D01*
X58229408Y-70870000D01*
X61770592Y-70870000D01*
X61770592Y-72130000D01*
X61793383Y-72244578D01*
X61827972Y-72296344D01*
X61792622Y-72349248D01*
X61770592Y-72460000D01*
X61770592Y-73540000D01*
X61792622Y-73650752D01*
X61827972Y-73703656D01*
X61793383Y-73755422D01*
X61770592Y-73870000D01*
X61770592Y-75130000D01*
X61793383Y-75244578D01*
X61858287Y-75341713D01*
X61955422Y-75406617D01*
X62070000Y-75429408D01*
X67930000Y-75429408D01*
X68044578Y-75406617D01*
X68141713Y-75341713D01*
X68206617Y-75244578D01*
X68229408Y-75130000D01*
X68229408Y-73870000D01*
X68206617Y-73755422D01*
X68172028Y-73703656D01*
X68207378Y-73650752D01*
X68229408Y-73540000D01*
X68229408Y-72460000D01*
X68207378Y-72349248D01*
X68172028Y-72296344D01*
X68206617Y-72244578D01*
X68229408Y-72130000D01*
X68229408Y-70870000D01*
X68206617Y-70755422D01*
X68141713Y-70658287D01*
X68044578Y-70593383D01*
X67930000Y-70570592D01*
X62070000Y-70570592D01*
X61955422Y-70593383D01*
X61858287Y-70658287D01*
X61793383Y-70755422D01*
X61770592Y-70870000D01*
X58229408Y-70870000D01*
X58206617Y-70755422D01*
X58141713Y-70658287D01*
X58044578Y-70593383D01*
X57930000Y-70570592D01*
X52070000Y-70570592D01*
X51955422Y-70593383D01*
X51858287Y-70658287D01*
X51793383Y-70755422D01*
X51770592Y-70870000D01*
X51525000Y-70870000D01*
X51525000Y-60870000D01*
X51770592Y-60870000D01*
X51770592Y-62130000D01*
X51793383Y-62244578D01*
X51827972Y-62296344D01*
X51792622Y-62349248D01*
X51770592Y-62460000D01*
X51770592Y-63540000D01*
X51792622Y-63650752D01*
X51827972Y-63703656D01*
X51793383Y-63755422D01*
X51770592Y-63870000D01*
X51770592Y-65130000D01*
X51793383Y-65244578D01*
X51858287Y-65341713D01*
X51955422Y-65406617D01*
X52070000Y-65429408D01*
X57930000Y-65429408D01*
X58044578Y-65406617D01*
X58141713Y-65341713D01*
X58206617Y-65244578D01*
X58229408Y-65130000D01*
X58229408Y-64525000D01*
X58582618Y-64525000D01*
X58702223Y-64644814D01*
X58895113Y-64724908D01*
X59103971Y-64725091D01*
X59297000Y-64645333D01*
X59444814Y-64497777D01*
X59524908Y-64304887D01*
X59525091Y-64096029D01*
X59445333Y-63903000D01*
X59297777Y-63755186D01*
X59104887Y-63675092D01*
X58896029Y-63674909D01*
X58703000Y-63754667D01*
X58582457Y-63875000D01*
X58229408Y-63875000D01*
X58229408Y-63870000D01*
X58206617Y-63755422D01*
X58172028Y-63703656D01*
X58207378Y-63650752D01*
X58229408Y-63540000D01*
X58229408Y-63325000D01*
X58982618Y-63325000D01*
X59102223Y-63444814D01*
X59295113Y-63524908D01*
X59503971Y-63525091D01*
X59697000Y-63445333D01*
X59844814Y-63297777D01*
X59924908Y-63104887D01*
X59925091Y-62896029D01*
X59845333Y-62703000D01*
X59697777Y-62555186D01*
X59504887Y-62475092D01*
X59296029Y-62474909D01*
X59103000Y-62554667D01*
X58982457Y-62675000D01*
X58229408Y-62675000D01*
X58229408Y-62460000D01*
X58207378Y-62349248D01*
X58172028Y-62296344D01*
X58206617Y-62244578D01*
X58229408Y-62130000D01*
X58229408Y-62125000D01*
X59382618Y-62125000D01*
X59502223Y-62244814D01*
X59695113Y-62324908D01*
X59903971Y-62325091D01*
X60097000Y-62245333D01*
X60244814Y-62097777D01*
X60324908Y-61904887D01*
X60325091Y-61696029D01*
X60245333Y-61503000D01*
X60097777Y-61355186D01*
X59904887Y-61275092D01*
X59696029Y-61274909D01*
X59503000Y-61354667D01*
X59382457Y-61475000D01*
X58229408Y-61475000D01*
X58229408Y-60870000D01*
X61770592Y-60870000D01*
X61770592Y-62130000D01*
X61793383Y-62244578D01*
X61827972Y-62296344D01*
X61792622Y-62349248D01*
X61770592Y-62460000D01*
X61770592Y-63540000D01*
X61792622Y-63650752D01*
X61827972Y-63703656D01*
X61793383Y-63755422D01*
X61770592Y-63870000D01*
X61770592Y-65130000D01*
X61793383Y-65244578D01*
X61858287Y-65341713D01*
X61955422Y-65406617D01*
X62070000Y-65429408D01*
X67930000Y-65429408D01*
X68044578Y-65406617D01*
X68141713Y-65341713D01*
X68206617Y-65244578D01*
X68229408Y-65130000D01*
X68229408Y-63870000D01*
X68206617Y-63755422D01*
X68172028Y-63703656D01*
X68207378Y-63650752D01*
X68229408Y-63540000D01*
X68229408Y-62460000D01*
X68207378Y-62349248D01*
X68172028Y-62296344D01*
X68206617Y-62244578D01*
X68229408Y-62130000D01*
X68229408Y-60870000D01*
X68206617Y-60755422D01*
X68141713Y-60658287D01*
X68044578Y-60593383D01*
X67930000Y-60570592D01*
X62070000Y-60570592D01*
X61955422Y-60593383D01*
X61858287Y-60658287D01*
X61793383Y-60755422D01*
X61770592Y-60870000D01*
X58229408Y-60870000D01*
X58206617Y-60755422D01*
X58141713Y-60658287D01*
X58044578Y-60593383D01*
X57930000Y-60570592D01*
X52070000Y-60570592D01*
X51955422Y-60593383D01*
X51858287Y-60658287D01*
X51793383Y-60755422D01*
X51770592Y-60870000D01*
X51525000Y-60870000D01*
X51525000Y-57934620D01*
X51934620Y-57525000D01*
X54683598Y-57525000D01*
X54754667Y-57697000D01*
X54902223Y-57844814D01*
X55095113Y-57924908D01*
X55303971Y-57925091D01*
X55497000Y-57845333D01*
X55644814Y-57697777D01*
X55724908Y-57504887D01*
X55725091Y-57296029D01*
X55645333Y-57103000D01*
X55542463Y-56999950D01*
X55644814Y-56897777D01*
X55724908Y-56704887D01*
X55725043Y-56550001D01*
X55924999Y-56550001D01*
X55924999Y-58849999D01*
X55949738Y-58974371D01*
X56020189Y-59079809D01*
X56275057Y-59334677D01*
X56274909Y-59503971D01*
X56354667Y-59697000D01*
X56502223Y-59844814D01*
X56695113Y-59924908D01*
X56903971Y-59925091D01*
X57097000Y-59845333D01*
X57244814Y-59697777D01*
X57324908Y-59504887D01*
X57325091Y-59296029D01*
X57245333Y-59103000D01*
X57142463Y-58999950D01*
X57244814Y-58897777D01*
X57324908Y-58704887D01*
X57325091Y-58496029D01*
X57245333Y-58303000D01*
X57125000Y-58182457D01*
X57125000Y-56734620D01*
X57334619Y-56525000D01*
X76065380Y-56525000D01*
X76270189Y-56729808D01*
X76270191Y-56729811D01*
X76275057Y-56734677D01*
X76274909Y-56903971D01*
X76354667Y-57097000D01*
X76502223Y-57244814D01*
X76695113Y-57324908D01*
X76903971Y-57325091D01*
X77097000Y-57245333D01*
X77244814Y-57097777D01*
X77324908Y-56904887D01*
X77325091Y-56696029D01*
X77245333Y-56503000D01*
X77142473Y-56399960D01*
X77244834Y-56297777D01*
X77324928Y-56104887D01*
X77325111Y-55896029D01*
X77245353Y-55703000D01*
X77097797Y-55555186D01*
X76904907Y-55475092D01*
X76696049Y-55474909D01*
X76664694Y-55487864D01*
X76600020Y-55475000D01*
X57000005Y-55475000D01*
X57000000Y-55474999D01*
X56875628Y-55499739D01*
X56770190Y-55570190D01*
X56770188Y-55570193D01*
X56020189Y-56320191D01*
X55949738Y-56425629D01*
X55924999Y-56550001D01*
X55725043Y-56550001D01*
X55725091Y-56496029D01*
X55645333Y-56303000D01*
X55497777Y-56155186D01*
X55304887Y-56075092D01*
X55096029Y-56074909D01*
X54903000Y-56154667D01*
X54782457Y-56275000D01*
X54775741Y-56275000D01*
X54775736Y-56274999D01*
X54651364Y-56299739D01*
X54545926Y-56370190D01*
X54441116Y-56475000D01*
X51600005Y-56475000D01*
X51600000Y-56474999D01*
X51475628Y-56499739D01*
X51370190Y-56570190D01*
X50570190Y-57370190D01*
X50499739Y-57475628D01*
X50475000Y-57600000D01*
X50300000Y-57600000D01*
X50300000Y-50870000D01*
X51770592Y-50870000D01*
X51770592Y-52130000D01*
X51793383Y-52244578D01*
X51827972Y-52296344D01*
X51792622Y-52349248D01*
X51770592Y-52460000D01*
X51770592Y-53540000D01*
X51792622Y-53650752D01*
X51827972Y-53703656D01*
X51793383Y-53755422D01*
X51770592Y-53870000D01*
X51770592Y-55130000D01*
X51793383Y-55244578D01*
X51858287Y-55341713D01*
X51955422Y-55406617D01*
X52070000Y-55429408D01*
X57930000Y-55429408D01*
X58044578Y-55406617D01*
X58141713Y-55341713D01*
X58206617Y-55244578D01*
X58229408Y-55130000D01*
X58229408Y-54525000D01*
X58865380Y-54525000D01*
X59370228Y-55029848D01*
X59475666Y-55100299D01*
X59600038Y-55125039D01*
X59600043Y-55125038D01*
X60782618Y-55125038D01*
X60902223Y-55244852D01*
X61095113Y-55324946D01*
X61303971Y-55325129D01*
X61497000Y-55245371D01*
X61644814Y-55097815D01*
X61724908Y-54904925D01*
X61725091Y-54696067D01*
X61645333Y-54503038D01*
X61497777Y-54355224D01*
X61419731Y-54322817D01*
X61444814Y-54297777D01*
X61524908Y-54104887D01*
X61525091Y-53896029D01*
X61445333Y-53703000D01*
X61297777Y-53555186D01*
X61104887Y-53475092D01*
X60896029Y-53474909D01*
X60725048Y-53545557D01*
X60725091Y-53496039D01*
X60645333Y-53303010D01*
X60497777Y-53155196D01*
X60304887Y-53075102D01*
X60134562Y-53074953D01*
X58629800Y-51570190D01*
X58524362Y-51499739D01*
X58399990Y-51475000D01*
X58229408Y-51475000D01*
X58229408Y-50870000D01*
X61770592Y-50870000D01*
X61770592Y-52130000D01*
X61793383Y-52244578D01*
X61827972Y-52296344D01*
X61792622Y-52349248D01*
X61770592Y-52460000D01*
X61770592Y-53540000D01*
X61792622Y-53650752D01*
X61827972Y-53703656D01*
X61793383Y-53755422D01*
X61770592Y-53870000D01*
X61770592Y-55130000D01*
X61793383Y-55244578D01*
X61858287Y-55341713D01*
X61955422Y-55406617D01*
X62070000Y-55429408D01*
X67930000Y-55429408D01*
X68044578Y-55406617D01*
X68141713Y-55341713D01*
X68206617Y-55244578D01*
X68229408Y-55130000D01*
X68229408Y-53870000D01*
X68206617Y-53755422D01*
X68172028Y-53703656D01*
X68207378Y-53650752D01*
X68229408Y-53540000D01*
X68229408Y-52460000D01*
X68207378Y-52349248D01*
X68172028Y-52296344D01*
X68206617Y-52244578D01*
X68229408Y-52130000D01*
X68229408Y-50870000D01*
X71770592Y-50870000D01*
X71770592Y-52130000D01*
X71793383Y-52244578D01*
X71827972Y-52296344D01*
X71792622Y-52349248D01*
X71770592Y-52460000D01*
X71770592Y-53540000D01*
X71792622Y-53650752D01*
X71827972Y-53703656D01*
X71793383Y-53755422D01*
X71770592Y-53870000D01*
X71770592Y-55130000D01*
X71793383Y-55244578D01*
X71858287Y-55341713D01*
X71955422Y-55406617D01*
X72070000Y-55429408D01*
X77930000Y-55429408D01*
X78044578Y-55406617D01*
X78141713Y-55341713D01*
X78206617Y-55244578D01*
X78229408Y-55130000D01*
X78229408Y-54525000D01*
X78865380Y-54525000D01*
X79370228Y-55029848D01*
X79475666Y-55100299D01*
X79600038Y-55125039D01*
X79600043Y-55125038D01*
X80782618Y-55125038D01*
X80902223Y-55244852D01*
X81095113Y-55324946D01*
X81303971Y-55325129D01*
X81497000Y-55245371D01*
X81644814Y-55097815D01*
X81724908Y-54904925D01*
X81725091Y-54696067D01*
X81645333Y-54503038D01*
X81497777Y-54355224D01*
X81419731Y-54322817D01*
X81444814Y-54297777D01*
X81524908Y-54104887D01*
X81525091Y-53896029D01*
X81445333Y-53703000D01*
X81297777Y-53555186D01*
X81104887Y-53475092D01*
X80896029Y-53474909D01*
X80725048Y-53545557D01*
X80725091Y-53496039D01*
X80645333Y-53303010D01*
X80497777Y-53155196D01*
X80304887Y-53075102D01*
X80134562Y-53074953D01*
X78629800Y-51570190D01*
X78524362Y-51499739D01*
X78399990Y-51475000D01*
X78229408Y-51475000D01*
X78229408Y-50870000D01*
X81770592Y-50870000D01*
X81770592Y-52130000D01*
X81793383Y-52244578D01*
X81827972Y-52296344D01*
X81792622Y-52349248D01*
X81770592Y-52460000D01*
X81770592Y-53540000D01*
X81792622Y-53650752D01*
X81827972Y-53703656D01*
X81793383Y-53755422D01*
X81770592Y-53870000D01*
X81770592Y-55130000D01*
X81793383Y-55244578D01*
X81858287Y-55341713D01*
X81955422Y-55406617D01*
X82070000Y-55429408D01*
X87930000Y-55429408D01*
X88044578Y-55406617D01*
X88141713Y-55341713D01*
X88206617Y-55244578D01*
X88229408Y-55130000D01*
X88229408Y-53870000D01*
X88206617Y-53755422D01*
X88172028Y-53703656D01*
X88207378Y-53650752D01*
X88229408Y-53540000D01*
X88229408Y-52460000D01*
X88207378Y-52349248D01*
X88172028Y-52296344D01*
X88206617Y-52244578D01*
X88229408Y-52130000D01*
X88229408Y-50870000D01*
X88206617Y-50755422D01*
X88141713Y-50658287D01*
X88044578Y-50593383D01*
X87930000Y-50570592D01*
X82070000Y-50570592D01*
X81955422Y-50593383D01*
X81858287Y-50658287D01*
X81793383Y-50755422D01*
X81770592Y-50870000D01*
X78229408Y-50870000D01*
X78206617Y-50755422D01*
X78141713Y-50658287D01*
X78044578Y-50593383D01*
X77930000Y-50570592D01*
X72070000Y-50570592D01*
X71955422Y-50593383D01*
X71858287Y-50658287D01*
X71793383Y-50755422D01*
X71770592Y-50870000D01*
X68229408Y-50870000D01*
X68206617Y-50755422D01*
X68141713Y-50658287D01*
X68044578Y-50593383D01*
X67930000Y-50570592D01*
X62070000Y-50570592D01*
X61955422Y-50593383D01*
X61858287Y-50658287D01*
X61793383Y-50755422D01*
X61770592Y-50870000D01*
X58229408Y-50870000D01*
X58206617Y-50755422D01*
X58141713Y-50658287D01*
X58044578Y-50593383D01*
X57930000Y-50570592D01*
X52070000Y-50570592D01*
X51955422Y-50593383D01*
X51858287Y-50658287D01*
X51793383Y-50755422D01*
X51770592Y-50870000D01*
X50300000Y-50870000D01*
X50300000Y-50300000D01*
X89700000Y-50300000D01*
X89700000Y-89700000D01*
X89700000Y-89700000D01*
G37*
X89700000Y-89700000D02*
X50300000Y-89700000D01*
X50300000Y-57600000D01*
X50475000Y-57600000D01*
X50475000Y-86600000D01*
X50499739Y-86724372D01*
X50570190Y-86829810D01*
X51170190Y-87429810D01*
X51275628Y-87500261D01*
X51400000Y-87525000D01*
X52650592Y-87525000D01*
X52650592Y-88850000D01*
X52668055Y-88937791D01*
X52717784Y-89012216D01*
X52792209Y-89061945D01*
X52880000Y-89079408D01*
X54580000Y-89079408D01*
X54667791Y-89061945D01*
X54742216Y-89012216D01*
X54791945Y-88937791D01*
X54809408Y-88850000D01*
X54809408Y-87150000D01*
X54804435Y-87125000D01*
X54935380Y-87125000D01*
X55317327Y-87506947D01*
X55276830Y-87567555D01*
X55195000Y-87978940D01*
X55195000Y-88021060D01*
X55276830Y-88432445D01*
X55509860Y-88781200D01*
X55858615Y-89014230D01*
X56270000Y-89096060D01*
X56681385Y-89014230D01*
X57030140Y-88781200D01*
X57263170Y-88432445D01*
X57345000Y-88021060D01*
X57345000Y-87978940D01*
X57263170Y-87567555D01*
X57030140Y-87218800D01*
X56927174Y-87150000D01*
X62570592Y-87150000D01*
X62570592Y-88850000D01*
X62588055Y-88937791D01*
X62637784Y-89012216D01*
X62712209Y-89061945D01*
X62800000Y-89079408D01*
X64500000Y-89079408D01*
X64587791Y-89061945D01*
X64662216Y-89012216D01*
X64711945Y-88937791D01*
X64729408Y-88850000D01*
X64729408Y-87978940D01*
X67655000Y-87978940D01*
X67655000Y-88021060D01*
X67736830Y-88432445D01*
X67969860Y-88781200D01*
X68318615Y-89014230D01*
X68730000Y-89096060D01*
X69141385Y-89014230D01*
X69490140Y-88781200D01*
X69723170Y-88432445D01*
X69805000Y-88021060D01*
X69805000Y-87978940D01*
X72735000Y-87978940D01*
X72735000Y-88021060D01*
X72816830Y-88432445D01*
X73049860Y-88781200D01*
X73398615Y-89014230D01*
X73810000Y-89096060D01*
X74221385Y-89014230D01*
X74570140Y-88781200D01*
X74803170Y-88432445D01*
X74885000Y-88021060D01*
X74885000Y-87978940D01*
X74803170Y-87567555D01*
X74570140Y-87218800D01*
X74221385Y-86985770D01*
X73810000Y-86903940D01*
X73398615Y-86985770D01*
X73049860Y-87218800D01*
X72816830Y-87567555D01*
X72735000Y-87978940D01*
X69805000Y-87978940D01*
X69723170Y-87567555D01*
X69490140Y-87218800D01*
X69141385Y-86985770D01*
X68730000Y-86903940D01*
X68318615Y-86985770D01*
X67969860Y-87218800D01*
X67736830Y-87567555D01*
X67655000Y-87978940D01*
X64729408Y-87978940D01*
X64729408Y-87150000D01*
X64711945Y-87062209D01*
X64662216Y-86987784D01*
X64587791Y-86938055D01*
X64500000Y-86920592D01*
X62800000Y-86920592D01*
X62712209Y-86938055D01*
X62637784Y-86987784D01*
X62588055Y-87062209D01*
X62570592Y-87150000D01*
X56927174Y-87150000D01*
X56681385Y-86985770D01*
X56270000Y-86903940D01*
X55858615Y-86985770D01*
X55772758Y-87043138D01*
X55299810Y-86570190D01*
X55194372Y-86499739D01*
X55070000Y-86475000D01*
X51734619Y-86475000D01*
X51525000Y-86265380D01*
X51525000Y-80870000D01*
X51770592Y-80870000D01*
X51770592Y-82130000D01*
X51793383Y-82244578D01*
X51827972Y-82296344D01*
X51792622Y-82349248D01*
X51770592Y-82460000D01*
X51770592Y-83540000D01*
X51792622Y-83650752D01*
X51827972Y-83703656D01*
X51793383Y-83755422D01*
X51770592Y-83870000D01*
X51770592Y-85130000D01*
X51793383Y-85244578D01*
X51858287Y-85341713D01*
X51955422Y-85406617D01*
X52070000Y-85429408D01*
X57930000Y-85429408D01*
X58044578Y-85406617D01*
X58141713Y-85341713D01*
X58206617Y-85244578D01*
X58229408Y-85130000D01*
X58229408Y-84525000D01*
X58582618Y-84525000D01*
X58702223Y-84644814D01*
X58895113Y-84724908D01*
X59103971Y-84725091D01*
X59297000Y-84645333D01*
X59444814Y-84497777D01*
X59524908Y-84304887D01*
X59525091Y-84096029D01*
X59445333Y-83903000D01*
X59297777Y-83755186D01*
X59104887Y-83675092D01*
X58896029Y-83674909D01*
X58703000Y-83754667D01*
X58582457Y-83875000D01*
X58229408Y-83875000D01*
X58229408Y-83870000D01*
X58206617Y-83755422D01*
X58172028Y-83703656D01*
X58207378Y-83650752D01*
X58229408Y-83540000D01*
X58229408Y-83325000D01*
X58982618Y-83325000D01*
X59102223Y-83444814D01*
X59295113Y-83524908D01*
X59503971Y-83525091D01*
X59697000Y-83445333D01*
X59844814Y-83297777D01*
X59924908Y-83104887D01*
X59925091Y-82896029D01*
X59845333Y-82703000D01*
X59697777Y-82555186D01*
X59504887Y-82475092D01*
X59296029Y-82474909D01*
X59103000Y-82554667D01*
X58982457Y-82675000D01*
X58229408Y-82675000D01*
X58229408Y-82460000D01*
X58207378Y-82349248D01*
X58172028Y-82296344D01*
X58206617Y-82244578D01*
X58229408Y-82130000D01*
X58229408Y-82125000D01*
X59382618Y-82125000D01*
X59502223Y-82244814D01*
X59695113Y-82324908D01*
X59903971Y-82325091D01*
X60097000Y-82245333D01*
X60244814Y-82097777D01*
X60324908Y-81904887D01*
X60325091Y-81696029D01*
X60245333Y-81503000D01*
X60097777Y-81355186D01*
X59904887Y-81275092D01*
X59696029Y-81274909D01*
X59503000Y-81354667D01*
X59382457Y-81475000D01*
X58229408Y-81475000D01*
X58229408Y-80870000D01*
X61770592Y-80870000D01*
X61770592Y-82130000D01*
X61793383Y-82244578D01*
X61827972Y-82296344D01*
X61792622Y-82349248D01*
X61770592Y-82460000D01*
X61770592Y-83540000D01*
X61792622Y-83650752D01*
X61827972Y-83703656D01*
X61793383Y-83755422D01*
X61770592Y-83870000D01*
X61770592Y-85130000D01*
X61793383Y-85244578D01*
X61858287Y-85341713D01*
X61955422Y-85406617D01*
X62070000Y-85429408D01*
X67930000Y-85429408D01*
X68044578Y-85406617D01*
X68141713Y-85341713D01*
X68206617Y-85244578D01*
X68229408Y-85130000D01*
X68229408Y-83870000D01*
X68206617Y-83755422D01*
X68172028Y-83703656D01*
X68207378Y-83650752D01*
X68229408Y-83540000D01*
X68229408Y-82460000D01*
X68207378Y-82349248D01*
X68172028Y-82296344D01*
X68206617Y-82244578D01*
X68229408Y-82130000D01*
X68229408Y-80870000D01*
X71770592Y-80870000D01*
X71770592Y-82130000D01*
X71793383Y-82244578D01*
X71827972Y-82296344D01*
X71792622Y-82349248D01*
X71770592Y-82460000D01*
X71770592Y-83540000D01*
X71792622Y-83650752D01*
X71827972Y-83703656D01*
X71793383Y-83755422D01*
X71770592Y-83870000D01*
X71770592Y-85130000D01*
X71793383Y-85244578D01*
X71858287Y-85341713D01*
X71955422Y-85406617D01*
X72070000Y-85429408D01*
X77930000Y-85429408D01*
X78044578Y-85406617D01*
X78141713Y-85341713D01*
X78206617Y-85244578D01*
X78229408Y-85130000D01*
X78229408Y-84525000D01*
X78582618Y-84525000D01*
X78702223Y-84644814D01*
X78895113Y-84724908D01*
X79103971Y-84725091D01*
X79297000Y-84645333D01*
X79444814Y-84497777D01*
X79524908Y-84304887D01*
X79525091Y-84096029D01*
X79445333Y-83903000D01*
X79297777Y-83755186D01*
X79104887Y-83675092D01*
X78896029Y-83674909D01*
X78703000Y-83754667D01*
X78582457Y-83875000D01*
X78229408Y-83875000D01*
X78229408Y-83870000D01*
X78206617Y-83755422D01*
X78172028Y-83703656D01*
X78207378Y-83650752D01*
X78229408Y-83540000D01*
X78229408Y-83325000D01*
X78982618Y-83325000D01*
X79102223Y-83444814D01*
X79295113Y-83524908D01*
X79503971Y-83525091D01*
X79697000Y-83445333D01*
X79844814Y-83297777D01*
X79924908Y-83104887D01*
X79925091Y-82896029D01*
X79845333Y-82703000D01*
X79697777Y-82555186D01*
X79504887Y-82475092D01*
X79296029Y-82474909D01*
X79103000Y-82554667D01*
X78982457Y-82675000D01*
X78229408Y-82675000D01*
X78229408Y-82460000D01*
X78207378Y-82349248D01*
X78172028Y-82296344D01*
X78206617Y-82244578D01*
X78229408Y-82130000D01*
X78229408Y-82125000D01*
X79382618Y-82125000D01*
X79502223Y-82244814D01*
X79695113Y-82324908D01*
X79903971Y-82325091D01*
X80097000Y-82245333D01*
X80244814Y-82097777D01*
X80324908Y-81904887D01*
X80325091Y-81696029D01*
X80245333Y-81503000D01*
X80097777Y-81355186D01*
X79904887Y-81275092D01*
X79696029Y-81274909D01*
X79503000Y-81354667D01*
X79382457Y-81475000D01*
X78229408Y-81475000D01*
X78229408Y-80870000D01*
X78206617Y-80755422D01*
X78141713Y-80658287D01*
X78044578Y-80593383D01*
X77930000Y-80570592D01*
X72070000Y-80570592D01*
X71955422Y-80593383D01*
X71858287Y-80658287D01*
X71793383Y-80755422D01*
X71770592Y-80870000D01*
X68229408Y-80870000D01*
X68206617Y-80755422D01*
X68141713Y-80658287D01*
X68044578Y-80593383D01*
X67930000Y-80570592D01*
X62070000Y-80570592D01*
X61955422Y-80593383D01*
X61858287Y-80658287D01*
X61793383Y-80755422D01*
X61770592Y-80870000D01*
X58229408Y-80870000D01*
X58206617Y-80755422D01*
X58141713Y-80658287D01*
X58044578Y-80593383D01*
X57930000Y-80570592D01*
X52070000Y-80570592D01*
X51955422Y-80593383D01*
X51858287Y-80658287D01*
X51793383Y-80755422D01*
X51770592Y-80870000D01*
X51525000Y-80870000D01*
X51525000Y-78703971D01*
X56274909Y-78703971D01*
X56354667Y-78897000D01*
X56457537Y-79000050D01*
X56355186Y-79102223D01*
X56275092Y-79295113D01*
X56274909Y-79503971D01*
X56354667Y-79697000D01*
X56502223Y-79844814D01*
X56695113Y-79924908D01*
X56865437Y-79925057D01*
X57370190Y-80429810D01*
X57475628Y-80500261D01*
X57600000Y-80525001D01*
X57600005Y-80525000D01*
X67600000Y-80525000D01*
X67724372Y-80500261D01*
X67829810Y-80429810D01*
X67934677Y-80324943D01*
X68103959Y-80325091D01*
X68296988Y-80245333D01*
X68444802Y-80097777D01*
X68524896Y-79904887D01*
X68525079Y-79696029D01*
X68445321Y-79503000D01*
X68342457Y-79399956D01*
X68444814Y-79297777D01*
X68524908Y-79104887D01*
X68524908Y-79103971D01*
X69874909Y-79103971D01*
X69954667Y-79297000D01*
X70057537Y-79400050D01*
X69955186Y-79502223D01*
X69875092Y-79695113D01*
X69874909Y-79903971D01*
X69954667Y-80097000D01*
X70102223Y-80244814D01*
X70295113Y-80324908D01*
X70503971Y-80325091D01*
X70697000Y-80245333D01*
X70844814Y-80097777D01*
X70916556Y-79925000D01*
X74683610Y-79925000D01*
X74754679Y-80097000D01*
X74902235Y-80244814D01*
X75095125Y-80324908D01*
X75303983Y-80325091D01*
X75497012Y-80245333D01*
X75644826Y-80097777D01*
X75724920Y-79904887D01*
X75725103Y-79696029D01*
X75645345Y-79503000D01*
X75542469Y-79399944D01*
X75644814Y-79297777D01*
X75724908Y-79104887D01*
X75724908Y-79103971D01*
X76274909Y-79103971D01*
X76354667Y-79297000D01*
X76457544Y-79400057D01*
X76355186Y-79502237D01*
X76275092Y-79695127D01*
X76274909Y-79903985D01*
X76354667Y-80097014D01*
X76502223Y-80244828D01*
X76695113Y-80324922D01*
X76865452Y-80325071D01*
X76970188Y-80429807D01*
X76970190Y-80429810D01*
X77037822Y-80475000D01*
X77075628Y-80500261D01*
X77200000Y-80525001D01*
X77200005Y-80525000D01*
X80265380Y-80525000D01*
X80675000Y-80934620D01*
X80675000Y-85800000D01*
X80699739Y-85924372D01*
X80770190Y-86029810D01*
X82650592Y-87910212D01*
X82650592Y-88850000D01*
X82668055Y-88937791D01*
X82717784Y-89012216D01*
X82792209Y-89061945D01*
X82880000Y-89079408D01*
X84580000Y-89079408D01*
X84667791Y-89061945D01*
X84742216Y-89012216D01*
X84791945Y-88937791D01*
X84809408Y-88850000D01*
X84809408Y-87150000D01*
X84791945Y-87062209D01*
X84742216Y-86987784D01*
X84667791Y-86938055D01*
X84602160Y-86925000D01*
X84735380Y-86925000D01*
X85317327Y-87506947D01*
X85276830Y-87567555D01*
X85195000Y-87978940D01*
X85195000Y-88021060D01*
X85276830Y-88432445D01*
X85509860Y-88781200D01*
X85858615Y-89014230D01*
X86270000Y-89096060D01*
X86681385Y-89014230D01*
X87030140Y-88781200D01*
X87263170Y-88432445D01*
X87345000Y-88021060D01*
X87345000Y-87978940D01*
X87263170Y-87567555D01*
X87030140Y-87218800D01*
X86681385Y-86985770D01*
X86270000Y-86903940D01*
X85858615Y-86985770D01*
X85772758Y-87043138D01*
X85099810Y-86370190D01*
X84994372Y-86299739D01*
X84870000Y-86275000D01*
X82534619Y-86275000D01*
X81725000Y-85465380D01*
X81725000Y-80870000D01*
X81770592Y-80870000D01*
X81770592Y-82130000D01*
X81793383Y-82244578D01*
X81827972Y-82296344D01*
X81792622Y-82349248D01*
X81770592Y-82460000D01*
X81770592Y-83540000D01*
X81792622Y-83650752D01*
X81827972Y-83703656D01*
X81793383Y-83755422D01*
X81770592Y-83870000D01*
X81770592Y-85130000D01*
X81793383Y-85244578D01*
X81858287Y-85341713D01*
X81955422Y-85406617D01*
X82070000Y-85429408D01*
X87930000Y-85429408D01*
X88044578Y-85406617D01*
X88141713Y-85341713D01*
X88206617Y-85244578D01*
X88229408Y-85130000D01*
X88229408Y-83870000D01*
X88206617Y-83755422D01*
X88172028Y-83703656D01*
X88207378Y-83650752D01*
X88229408Y-83540000D01*
X88229408Y-82460000D01*
X88207378Y-82349248D01*
X88172028Y-82296344D01*
X88206617Y-82244578D01*
X88229408Y-82130000D01*
X88229408Y-80870000D01*
X88206617Y-80755422D01*
X88141713Y-80658287D01*
X88044578Y-80593383D01*
X87930000Y-80570592D01*
X82070000Y-80570592D01*
X81955422Y-80593383D01*
X81858287Y-80658287D01*
X81793383Y-80755422D01*
X81770592Y-80870000D01*
X81725000Y-80870000D01*
X81725000Y-80600005D01*
X81725001Y-80600000D01*
X81700261Y-80475628D01*
X81629810Y-80370190D01*
X80829810Y-79570190D01*
X80724372Y-79499739D01*
X80600000Y-79475000D01*
X77734620Y-79475000D01*
X77329809Y-79070189D01*
X77329806Y-79070187D01*
X77324943Y-79065324D01*
X77325091Y-78896029D01*
X77245333Y-78703000D01*
X77097777Y-78555186D01*
X76904887Y-78475092D01*
X76696029Y-78474909D01*
X76503000Y-78554667D01*
X76355186Y-78702223D01*
X76275092Y-78895113D01*
X76274909Y-79103971D01*
X75724908Y-79103971D01*
X75725091Y-78896029D01*
X75645333Y-78703000D01*
X75497777Y-78555186D01*
X75304887Y-78475092D01*
X75096029Y-78474909D01*
X74903000Y-78554667D01*
X74755186Y-78702223D01*
X74683444Y-78875000D01*
X70916402Y-78875000D01*
X70845333Y-78703000D01*
X70697777Y-78555186D01*
X70504887Y-78475092D01*
X70296029Y-78474909D01*
X70103000Y-78554667D01*
X69955186Y-78702223D01*
X69875092Y-78895113D01*
X69874909Y-79103971D01*
X68524908Y-79103971D01*
X68525091Y-78896029D01*
X68445333Y-78703000D01*
X68297777Y-78555186D01*
X68104887Y-78475092D01*
X67896029Y-78474909D01*
X67703000Y-78554667D01*
X67555186Y-78702223D01*
X67475092Y-78895113D01*
X67474943Y-79065437D01*
X67065380Y-79475000D01*
X58134620Y-79475000D01*
X57324943Y-78665323D01*
X57325091Y-78496029D01*
X57245333Y-78303000D01*
X57097777Y-78155186D01*
X56904887Y-78075092D01*
X56696029Y-78074909D01*
X56503000Y-78154667D01*
X56355186Y-78302223D01*
X56275092Y-78495113D01*
X56274909Y-78703971D01*
X51525000Y-78703971D01*
X51525000Y-76335998D01*
X55924998Y-76335998D01*
X55924998Y-76850014D01*
X55949737Y-76974386D01*
X56020188Y-77079824D01*
X56275041Y-77334677D01*
X56274893Y-77503971D01*
X56354651Y-77697000D01*
X56502207Y-77844814D01*
X56695097Y-77924908D01*
X56903955Y-77925091D01*
X57096984Y-77845333D01*
X57244798Y-77697777D01*
X57324892Y-77504887D01*
X57325075Y-77296029D01*
X57245317Y-77103000D01*
X57142455Y-76999958D01*
X57244814Y-76897777D01*
X57324908Y-76704887D01*
X57325057Y-76534562D01*
X57334619Y-76525000D01*
X68600000Y-76525000D01*
X68724372Y-76500261D01*
X68829810Y-76429810D01*
X69529809Y-75729811D01*
X69600260Y-75624373D01*
X69624999Y-75500001D01*
X69624999Y-70870000D01*
X71770592Y-70870000D01*
X71770592Y-72130000D01*
X71793383Y-72244578D01*
X71827972Y-72296344D01*
X71792622Y-72349248D01*
X71770592Y-72460000D01*
X71770592Y-73540000D01*
X71792622Y-73650752D01*
X71827972Y-73703656D01*
X71793383Y-73755422D01*
X71770592Y-73870000D01*
X71770592Y-75130000D01*
X71793383Y-75244578D01*
X71858287Y-75341713D01*
X71955422Y-75406617D01*
X72070000Y-75429408D01*
X77930000Y-75429408D01*
X78044578Y-75406617D01*
X78141713Y-75341713D01*
X78206617Y-75244578D01*
X78229408Y-75130000D01*
X78229408Y-74525000D01*
X78865380Y-74525000D01*
X79370228Y-75029848D01*
X79475666Y-75100299D01*
X79600038Y-75125039D01*
X79600043Y-75125038D01*
X80782618Y-75125038D01*
X80902223Y-75244852D01*
X81095113Y-75324946D01*
X81303971Y-75325129D01*
X81497000Y-75245371D01*
X81644814Y-75097815D01*
X81724908Y-74904925D01*
X81725091Y-74696067D01*
X81645333Y-74503038D01*
X81497777Y-74355224D01*
X81419731Y-74322817D01*
X81444814Y-74297777D01*
X81524908Y-74104887D01*
X81525091Y-73896029D01*
X81445333Y-73703000D01*
X81297777Y-73555186D01*
X81104887Y-73475092D01*
X80896029Y-73474909D01*
X80725048Y-73545557D01*
X80725091Y-73496039D01*
X80645333Y-73303010D01*
X80497777Y-73155196D01*
X80304887Y-73075102D01*
X80134562Y-73074953D01*
X78629800Y-71570190D01*
X78524362Y-71499739D01*
X78399990Y-71475000D01*
X78229408Y-71475000D01*
X78229408Y-70870000D01*
X81770592Y-70870000D01*
X81770592Y-72130000D01*
X81793383Y-72244578D01*
X81827972Y-72296344D01*
X81792622Y-72349248D01*
X81770592Y-72460000D01*
X81770592Y-73540000D01*
X81792622Y-73650752D01*
X81827972Y-73703656D01*
X81793383Y-73755422D01*
X81770592Y-73870000D01*
X81770592Y-75130000D01*
X81793383Y-75244578D01*
X81858287Y-75341713D01*
X81955422Y-75406617D01*
X82070000Y-75429408D01*
X87930000Y-75429408D01*
X88044578Y-75406617D01*
X88141713Y-75341713D01*
X88206617Y-75244578D01*
X88229408Y-75130000D01*
X88229408Y-73870000D01*
X88206617Y-73755422D01*
X88172028Y-73703656D01*
X88207378Y-73650752D01*
X88229408Y-73540000D01*
X88229408Y-72460000D01*
X88207378Y-72349248D01*
X88172028Y-72296344D01*
X88206617Y-72244578D01*
X88229408Y-72130000D01*
X88229408Y-70870000D01*
X88206617Y-70755422D01*
X88141713Y-70658287D01*
X88044578Y-70593383D01*
X87930000Y-70570592D01*
X82070000Y-70570592D01*
X81955422Y-70593383D01*
X81858287Y-70658287D01*
X81793383Y-70755422D01*
X81770592Y-70870000D01*
X78229408Y-70870000D01*
X78206617Y-70755422D01*
X78141713Y-70658287D01*
X78044578Y-70593383D01*
X77930000Y-70570592D01*
X72070000Y-70570592D01*
X71955422Y-70593383D01*
X71858287Y-70658287D01*
X71793383Y-70755422D01*
X71770592Y-70870000D01*
X69624999Y-70870000D01*
X69624999Y-60870000D01*
X71770592Y-60870000D01*
X71770592Y-62130000D01*
X71793383Y-62244578D01*
X71827972Y-62296344D01*
X71792622Y-62349248D01*
X71770592Y-62460000D01*
X71770592Y-63540000D01*
X71792622Y-63650752D01*
X71827972Y-63703656D01*
X71793383Y-63755422D01*
X71770592Y-63870000D01*
X71770592Y-65130000D01*
X71793383Y-65244578D01*
X71858287Y-65341713D01*
X71955422Y-65406617D01*
X72070000Y-65429408D01*
X77930000Y-65429408D01*
X78044578Y-65406617D01*
X78141713Y-65341713D01*
X78206617Y-65244578D01*
X78229408Y-65130000D01*
X78229408Y-64525000D01*
X78582618Y-64525000D01*
X78702223Y-64644814D01*
X78895113Y-64724908D01*
X79103971Y-64725091D01*
X79297000Y-64645333D01*
X79444814Y-64497777D01*
X79524908Y-64304887D01*
X79525091Y-64096029D01*
X79445333Y-63903000D01*
X79297777Y-63755186D01*
X79104887Y-63675092D01*
X78896029Y-63674909D01*
X78703000Y-63754667D01*
X78582457Y-63875000D01*
X78229408Y-63875000D01*
X78229408Y-63870000D01*
X78206617Y-63755422D01*
X78172028Y-63703656D01*
X78207378Y-63650752D01*
X78229408Y-63540000D01*
X78229408Y-63325000D01*
X78982618Y-63325000D01*
X79102223Y-63444814D01*
X79295113Y-63524908D01*
X79503971Y-63525091D01*
X79697000Y-63445333D01*
X79844814Y-63297777D01*
X79924908Y-63104887D01*
X79925091Y-62896029D01*
X79845333Y-62703000D01*
X79697777Y-62555186D01*
X79504887Y-62475092D01*
X79296029Y-62474909D01*
X79103000Y-62554667D01*
X78982457Y-62675000D01*
X78229408Y-62675000D01*
X78229408Y-62460000D01*
X78207378Y-62349248D01*
X78172028Y-62296344D01*
X78206617Y-62244578D01*
X78229408Y-62130000D01*
X78229408Y-62125000D01*
X79382618Y-62125000D01*
X79502223Y-62244814D01*
X79695113Y-62324908D01*
X79903971Y-62325091D01*
X80097000Y-62245333D01*
X80244814Y-62097777D01*
X80324908Y-61904887D01*
X80325091Y-61696029D01*
X80245333Y-61503000D01*
X80097777Y-61355186D01*
X79904887Y-61275092D01*
X79696029Y-61274909D01*
X79503000Y-61354667D01*
X79382457Y-61475000D01*
X78229408Y-61475000D01*
X78229408Y-60870000D01*
X81770592Y-60870000D01*
X81770592Y-62130000D01*
X81793383Y-62244578D01*
X81827972Y-62296344D01*
X81792622Y-62349248D01*
X81770592Y-62460000D01*
X81770592Y-63540000D01*
X81792622Y-63650752D01*
X81827972Y-63703656D01*
X81793383Y-63755422D01*
X81770592Y-63870000D01*
X81770592Y-65130000D01*
X81793383Y-65244578D01*
X81858287Y-65341713D01*
X81955422Y-65406617D01*
X82070000Y-65429408D01*
X87930000Y-65429408D01*
X88044578Y-65406617D01*
X88141713Y-65341713D01*
X88206617Y-65244578D01*
X88229408Y-65130000D01*
X88229408Y-63870000D01*
X88206617Y-63755422D01*
X88172028Y-63703656D01*
X88207378Y-63650752D01*
X88229408Y-63540000D01*
X88229408Y-62460000D01*
X88207378Y-62349248D01*
X88172028Y-62296344D01*
X88206617Y-62244578D01*
X88229408Y-62130000D01*
X88229408Y-60870000D01*
X88206617Y-60755422D01*
X88141713Y-60658287D01*
X88044578Y-60593383D01*
X87930000Y-60570592D01*
X82070000Y-60570592D01*
X81955422Y-60593383D01*
X81858287Y-60658287D01*
X81793383Y-60755422D01*
X81770592Y-60870000D01*
X78229408Y-60870000D01*
X78206617Y-60755422D01*
X78141713Y-60658287D01*
X78044578Y-60593383D01*
X77930000Y-60570592D01*
X72070000Y-60570592D01*
X71955422Y-60593383D01*
X71858287Y-60658287D01*
X71793383Y-60755422D01*
X71770592Y-60870000D01*
X69624999Y-60870000D01*
X69624999Y-60500004D01*
X69625000Y-60499999D01*
X69600260Y-60375627D01*
X69596627Y-60370190D01*
X69529809Y-60270189D01*
X69529806Y-60270187D01*
X68624999Y-59365379D01*
X68624999Y-59300004D01*
X68625000Y-59299999D01*
X68600260Y-59175627D01*
X68566371Y-59124908D01*
X68529809Y-59070189D01*
X68529806Y-59070187D01*
X68524943Y-59065324D01*
X68525091Y-58896029D01*
X68445735Y-58703971D01*
X70274909Y-58703971D01*
X70354667Y-58897000D01*
X70457537Y-59000050D01*
X70355186Y-59102223D01*
X70275092Y-59295113D01*
X70274909Y-59503971D01*
X70354667Y-59697000D01*
X70502223Y-59844814D01*
X70695113Y-59924908D01*
X70903971Y-59925091D01*
X71097000Y-59845333D01*
X71244814Y-59697777D01*
X71316556Y-59525000D01*
X76283598Y-59525000D01*
X76354667Y-59697000D01*
X76502223Y-59844814D01*
X76695113Y-59924908D01*
X76903971Y-59925091D01*
X77097000Y-59845333D01*
X77244814Y-59697777D01*
X77324908Y-59504887D01*
X77325091Y-59296029D01*
X77245333Y-59103000D01*
X77142463Y-58999950D01*
X77244814Y-58897777D01*
X77324908Y-58704887D01*
X77325091Y-58496029D01*
X77245333Y-58303000D01*
X77097777Y-58155186D01*
X76904887Y-58075092D01*
X76696029Y-58074909D01*
X76503000Y-58154667D01*
X76355186Y-58302223D01*
X76283444Y-58475000D01*
X71316402Y-58475000D01*
X71245333Y-58303000D01*
X71097777Y-58155186D01*
X70904887Y-58075092D01*
X70696029Y-58074909D01*
X70503000Y-58154667D01*
X70355186Y-58302223D01*
X70275092Y-58495113D01*
X70274909Y-58703971D01*
X68445735Y-58703971D01*
X68445333Y-58703000D01*
X68342463Y-58599950D01*
X68444814Y-58497777D01*
X68524908Y-58304887D01*
X68525091Y-58096029D01*
X68445333Y-57903000D01*
X68297777Y-57755186D01*
X68104887Y-57675092D01*
X67896029Y-57674909D01*
X67703000Y-57754667D01*
X67555186Y-57902223D01*
X67475092Y-58095113D01*
X67474943Y-58265437D01*
X67470191Y-58270189D01*
X67470189Y-58270192D01*
X67220183Y-58520197D01*
X67149732Y-58625635D01*
X67124993Y-58750007D01*
X67124993Y-59249993D01*
X67149732Y-59374365D01*
X67220183Y-59479803D01*
X68475000Y-60734620D01*
X68475000Y-75265381D01*
X68265380Y-75475000D01*
X56786001Y-75475000D01*
X56785996Y-75474999D01*
X56661624Y-75499739D01*
X56556186Y-75570190D01*
X56556184Y-75570193D01*
X56020188Y-76106188D01*
X55949737Y-76211626D01*
X55924998Y-76335998D01*
X51525000Y-76335998D01*
X51525000Y-70870000D01*
X51770592Y-70870000D01*
X51770592Y-72130000D01*
X51793383Y-72244578D01*
X51827972Y-72296344D01*
X51792622Y-72349248D01*
X51770592Y-72460000D01*
X51770592Y-73540000D01*
X51792622Y-73650752D01*
X51827972Y-73703656D01*
X51793383Y-73755422D01*
X51770592Y-73870000D01*
X51770592Y-75130000D01*
X51793383Y-75244578D01*
X51858287Y-75341713D01*
X51955422Y-75406617D01*
X52070000Y-75429408D01*
X57930000Y-75429408D01*
X58044578Y-75406617D01*
X58141713Y-75341713D01*
X58206617Y-75244578D01*
X58229408Y-75130000D01*
X58229408Y-74525000D01*
X58865380Y-74525000D01*
X59370228Y-75029848D01*
X59475666Y-75100299D01*
X59600038Y-75125039D01*
X59600043Y-75125038D01*
X60782618Y-75125038D01*
X60902223Y-75244852D01*
X61095113Y-75324946D01*
X61303971Y-75325129D01*
X61497000Y-75245371D01*
X61644814Y-75097815D01*
X61724908Y-74904925D01*
X61725091Y-74696067D01*
X61645333Y-74503038D01*
X61497777Y-74355224D01*
X61419731Y-74322817D01*
X61444814Y-74297777D01*
X61524908Y-74104887D01*
X61525091Y-73896029D01*
X61445333Y-73703000D01*
X61297777Y-73555186D01*
X61104887Y-73475092D01*
X60896029Y-73474909D01*
X60725048Y-73545557D01*
X60725091Y-73496039D01*
X60645333Y-73303010D01*
X60497777Y-73155196D01*
X60304887Y-73075102D01*
X60134562Y-73074953D01*
X58629800Y-71570190D01*
X58524362Y-71499739D01*
X58399990Y-71475000D01*
X58229408Y-71475000D01*
X58229408Y-70870000D01*
X61770592Y-70870000D01*
X61770592Y-72130000D01*
X61793383Y-72244578D01*
X61827972Y-72296344D01*
X61792622Y-72349248D01*
X61770592Y-72460000D01*
X61770592Y-73540000D01*
X61792622Y-73650752D01*
X61827972Y-73703656D01*
X61793383Y-73755422D01*
X61770592Y-73870000D01*
X61770592Y-75130000D01*
X61793383Y-75244578D01*
X61858287Y-75341713D01*
X61955422Y-75406617D01*
X62070000Y-75429408D01*
X67930000Y-75429408D01*
X68044578Y-75406617D01*
X68141713Y-75341713D01*
X68206617Y-75244578D01*
X68229408Y-75130000D01*
X68229408Y-73870000D01*
X68206617Y-73755422D01*
X68172028Y-73703656D01*
X68207378Y-73650752D01*
X68229408Y-73540000D01*
X68229408Y-72460000D01*
X68207378Y-72349248D01*
X68172028Y-72296344D01*
X68206617Y-72244578D01*
X68229408Y-72130000D01*
X68229408Y-70870000D01*
X68206617Y-70755422D01*
X68141713Y-70658287D01*
X68044578Y-70593383D01*
X67930000Y-70570592D01*
X62070000Y-70570592D01*
X61955422Y-70593383D01*
X61858287Y-70658287D01*
X61793383Y-70755422D01*
X61770592Y-70870000D01*
X58229408Y-70870000D01*
X58206617Y-70755422D01*
X58141713Y-70658287D01*
X58044578Y-70593383D01*
X57930000Y-70570592D01*
X52070000Y-70570592D01*
X51955422Y-70593383D01*
X51858287Y-70658287D01*
X51793383Y-70755422D01*
X51770592Y-70870000D01*
X51525000Y-70870000D01*
X51525000Y-60870000D01*
X51770592Y-60870000D01*
X51770592Y-62130000D01*
X51793383Y-62244578D01*
X51827972Y-62296344D01*
X51792622Y-62349248D01*
X51770592Y-62460000D01*
X51770592Y-63540000D01*
X51792622Y-63650752D01*
X51827972Y-63703656D01*
X51793383Y-63755422D01*
X51770592Y-63870000D01*
X51770592Y-65130000D01*
X51793383Y-65244578D01*
X51858287Y-65341713D01*
X51955422Y-65406617D01*
X52070000Y-65429408D01*
X57930000Y-65429408D01*
X58044578Y-65406617D01*
X58141713Y-65341713D01*
X58206617Y-65244578D01*
X58229408Y-65130000D01*
X58229408Y-64525000D01*
X58582618Y-64525000D01*
X58702223Y-64644814D01*
X58895113Y-64724908D01*
X59103971Y-64725091D01*
X59297000Y-64645333D01*
X59444814Y-64497777D01*
X59524908Y-64304887D01*
X59525091Y-64096029D01*
X59445333Y-63903000D01*
X59297777Y-63755186D01*
X59104887Y-63675092D01*
X58896029Y-63674909D01*
X58703000Y-63754667D01*
X58582457Y-63875000D01*
X58229408Y-63875000D01*
X58229408Y-63870000D01*
X58206617Y-63755422D01*
X58172028Y-63703656D01*
X58207378Y-63650752D01*
X58229408Y-63540000D01*
X58229408Y-63325000D01*
X58982618Y-63325000D01*
X59102223Y-63444814D01*
X59295113Y-63524908D01*
X59503971Y-63525091D01*
X59697000Y-63445333D01*
X59844814Y-63297777D01*
X59924908Y-63104887D01*
X59925091Y-62896029D01*
X59845333Y-62703000D01*
X59697777Y-62555186D01*
X59504887Y-62475092D01*
X59296029Y-62474909D01*
X59103000Y-62554667D01*
X58982457Y-62675000D01*
X58229408Y-62675000D01*
X58229408Y-62460000D01*
X58207378Y-62349248D01*
X58172028Y-62296344D01*
X58206617Y-62244578D01*
X58229408Y-62130000D01*
X58229408Y-62125000D01*
X59382618Y-62125000D01*
X59502223Y-62244814D01*
X59695113Y-62324908D01*
X59903971Y-62325091D01*
X60097000Y-62245333D01*
X60244814Y-62097777D01*
X60324908Y-61904887D01*
X60325091Y-61696029D01*
X60245333Y-61503000D01*
X60097777Y-61355186D01*
X59904887Y-61275092D01*
X59696029Y-61274909D01*
X59503000Y-61354667D01*
X59382457Y-61475000D01*
X58229408Y-61475000D01*
X58229408Y-60870000D01*
X61770592Y-60870000D01*
X61770592Y-62130000D01*
X61793383Y-62244578D01*
X61827972Y-62296344D01*
X61792622Y-62349248D01*
X61770592Y-62460000D01*
X61770592Y-63540000D01*
X61792622Y-63650752D01*
X61827972Y-63703656D01*
X61793383Y-63755422D01*
X61770592Y-63870000D01*
X61770592Y-65130000D01*
X61793383Y-65244578D01*
X61858287Y-65341713D01*
X61955422Y-65406617D01*
X62070000Y-65429408D01*
X67930000Y-65429408D01*
X68044578Y-65406617D01*
X68141713Y-65341713D01*
X68206617Y-65244578D01*
X68229408Y-65130000D01*
X68229408Y-63870000D01*
X68206617Y-63755422D01*
X68172028Y-63703656D01*
X68207378Y-63650752D01*
X68229408Y-63540000D01*
X68229408Y-62460000D01*
X68207378Y-62349248D01*
X68172028Y-62296344D01*
X68206617Y-62244578D01*
X68229408Y-62130000D01*
X68229408Y-60870000D01*
X68206617Y-60755422D01*
X68141713Y-60658287D01*
X68044578Y-60593383D01*
X67930000Y-60570592D01*
X62070000Y-60570592D01*
X61955422Y-60593383D01*
X61858287Y-60658287D01*
X61793383Y-60755422D01*
X61770592Y-60870000D01*
X58229408Y-60870000D01*
X58206617Y-60755422D01*
X58141713Y-60658287D01*
X58044578Y-60593383D01*
X57930000Y-60570592D01*
X52070000Y-60570592D01*
X51955422Y-60593383D01*
X51858287Y-60658287D01*
X51793383Y-60755422D01*
X51770592Y-60870000D01*
X51525000Y-60870000D01*
X51525000Y-57934620D01*
X51934620Y-57525000D01*
X54683598Y-57525000D01*
X54754667Y-57697000D01*
X54902223Y-57844814D01*
X55095113Y-57924908D01*
X55303971Y-57925091D01*
X55497000Y-57845333D01*
X55644814Y-57697777D01*
X55724908Y-57504887D01*
X55725091Y-57296029D01*
X55645333Y-57103000D01*
X55542463Y-56999950D01*
X55644814Y-56897777D01*
X55724908Y-56704887D01*
X55725043Y-56550001D01*
X55924999Y-56550001D01*
X55924999Y-58849999D01*
X55949738Y-58974371D01*
X56020189Y-59079809D01*
X56275057Y-59334677D01*
X56274909Y-59503971D01*
X56354667Y-59697000D01*
X56502223Y-59844814D01*
X56695113Y-59924908D01*
X56903971Y-59925091D01*
X57097000Y-59845333D01*
X57244814Y-59697777D01*
X57324908Y-59504887D01*
X57325091Y-59296029D01*
X57245333Y-59103000D01*
X57142463Y-58999950D01*
X57244814Y-58897777D01*
X57324908Y-58704887D01*
X57325091Y-58496029D01*
X57245333Y-58303000D01*
X57125000Y-58182457D01*
X57125000Y-56734620D01*
X57334619Y-56525000D01*
X76065380Y-56525000D01*
X76270189Y-56729808D01*
X76270191Y-56729811D01*
X76275057Y-56734677D01*
X76274909Y-56903971D01*
X76354667Y-57097000D01*
X76502223Y-57244814D01*
X76695113Y-57324908D01*
X76903971Y-57325091D01*
X77097000Y-57245333D01*
X77244814Y-57097777D01*
X77324908Y-56904887D01*
X77325091Y-56696029D01*
X77245333Y-56503000D01*
X77142473Y-56399960D01*
X77244834Y-56297777D01*
X77324928Y-56104887D01*
X77325111Y-55896029D01*
X77245353Y-55703000D01*
X77097797Y-55555186D01*
X76904907Y-55475092D01*
X76696049Y-55474909D01*
X76664694Y-55487864D01*
X76600020Y-55475000D01*
X57000005Y-55475000D01*
X57000000Y-55474999D01*
X56875628Y-55499739D01*
X56770190Y-55570190D01*
X56770188Y-55570193D01*
X56020189Y-56320191D01*
X55949738Y-56425629D01*
X55924999Y-56550001D01*
X55725043Y-56550001D01*
X55725091Y-56496029D01*
X55645333Y-56303000D01*
X55497777Y-56155186D01*
X55304887Y-56075092D01*
X55096029Y-56074909D01*
X54903000Y-56154667D01*
X54782457Y-56275000D01*
X54775741Y-56275000D01*
X54775736Y-56274999D01*
X54651364Y-56299739D01*
X54545926Y-56370190D01*
X54441116Y-56475000D01*
X51600005Y-56475000D01*
X51600000Y-56474999D01*
X51475628Y-56499739D01*
X51370190Y-56570190D01*
X50570190Y-57370190D01*
X50499739Y-57475628D01*
X50475000Y-57600000D01*
X50300000Y-57600000D01*
X50300000Y-50870000D01*
X51770592Y-50870000D01*
X51770592Y-52130000D01*
X51793383Y-52244578D01*
X51827972Y-52296344D01*
X51792622Y-52349248D01*
X51770592Y-52460000D01*
X51770592Y-53540000D01*
X51792622Y-53650752D01*
X51827972Y-53703656D01*
X51793383Y-53755422D01*
X51770592Y-53870000D01*
X51770592Y-55130000D01*
X51793383Y-55244578D01*
X51858287Y-55341713D01*
X51955422Y-55406617D01*
X52070000Y-55429408D01*
X57930000Y-55429408D01*
X58044578Y-55406617D01*
X58141713Y-55341713D01*
X58206617Y-55244578D01*
X58229408Y-55130000D01*
X58229408Y-54525000D01*
X58865380Y-54525000D01*
X59370228Y-55029848D01*
X59475666Y-55100299D01*
X59600038Y-55125039D01*
X59600043Y-55125038D01*
X60782618Y-55125038D01*
X60902223Y-55244852D01*
X61095113Y-55324946D01*
X61303971Y-55325129D01*
X61497000Y-55245371D01*
X61644814Y-55097815D01*
X61724908Y-54904925D01*
X61725091Y-54696067D01*
X61645333Y-54503038D01*
X61497777Y-54355224D01*
X61419731Y-54322817D01*
X61444814Y-54297777D01*
X61524908Y-54104887D01*
X61525091Y-53896029D01*
X61445333Y-53703000D01*
X61297777Y-53555186D01*
X61104887Y-53475092D01*
X60896029Y-53474909D01*
X60725048Y-53545557D01*
X60725091Y-53496039D01*
X60645333Y-53303010D01*
X60497777Y-53155196D01*
X60304887Y-53075102D01*
X60134562Y-53074953D01*
X58629800Y-51570190D01*
X58524362Y-51499739D01*
X58399990Y-51475000D01*
X58229408Y-51475000D01*
X58229408Y-50870000D01*
X61770592Y-50870000D01*
X61770592Y-52130000D01*
X61793383Y-52244578D01*
X61827972Y-52296344D01*
X61792622Y-52349248D01*
X61770592Y-52460000D01*
X61770592Y-53540000D01*
X61792622Y-53650752D01*
X61827972Y-53703656D01*
X61793383Y-53755422D01*
X61770592Y-53870000D01*
X61770592Y-55130000D01*
X61793383Y-55244578D01*
X61858287Y-55341713D01*
X61955422Y-55406617D01*
X62070000Y-55429408D01*
X67930000Y-55429408D01*
X68044578Y-55406617D01*
X68141713Y-55341713D01*
X68206617Y-55244578D01*
X68229408Y-55130000D01*
X68229408Y-53870000D01*
X68206617Y-53755422D01*
X68172028Y-53703656D01*
X68207378Y-53650752D01*
X68229408Y-53540000D01*
X68229408Y-52460000D01*
X68207378Y-52349248D01*
X68172028Y-52296344D01*
X68206617Y-52244578D01*
X68229408Y-52130000D01*
X68229408Y-50870000D01*
X71770592Y-50870000D01*
X71770592Y-52130000D01*
X71793383Y-52244578D01*
X71827972Y-52296344D01*
X71792622Y-52349248D01*
X71770592Y-52460000D01*
X71770592Y-53540000D01*
X71792622Y-53650752D01*
X71827972Y-53703656D01*
X71793383Y-53755422D01*
X71770592Y-53870000D01*
X71770592Y-55130000D01*
X71793383Y-55244578D01*
X71858287Y-55341713D01*
X71955422Y-55406617D01*
X72070000Y-55429408D01*
X77930000Y-55429408D01*
X78044578Y-55406617D01*
X78141713Y-55341713D01*
X78206617Y-55244578D01*
X78229408Y-55130000D01*
X78229408Y-54525000D01*
X78865380Y-54525000D01*
X79370228Y-55029848D01*
X79475666Y-55100299D01*
X79600038Y-55125039D01*
X79600043Y-55125038D01*
X80782618Y-55125038D01*
X80902223Y-55244852D01*
X81095113Y-55324946D01*
X81303971Y-55325129D01*
X81497000Y-55245371D01*
X81644814Y-55097815D01*
X81724908Y-54904925D01*
X81725091Y-54696067D01*
X81645333Y-54503038D01*
X81497777Y-54355224D01*
X81419731Y-54322817D01*
X81444814Y-54297777D01*
X81524908Y-54104887D01*
X81525091Y-53896029D01*
X81445333Y-53703000D01*
X81297777Y-53555186D01*
X81104887Y-53475092D01*
X80896029Y-53474909D01*
X80725048Y-53545557D01*
X80725091Y-53496039D01*
X80645333Y-53303010D01*
X80497777Y-53155196D01*
X80304887Y-53075102D01*
X80134562Y-53074953D01*
X78629800Y-51570190D01*
X78524362Y-51499739D01*
X78399990Y-51475000D01*
X78229408Y-51475000D01*
X78229408Y-50870000D01*
X81770592Y-50870000D01*
X81770592Y-52130000D01*
X81793383Y-52244578D01*
X81827972Y-52296344D01*
X81792622Y-52349248D01*
X81770592Y-52460000D01*
X81770592Y-53540000D01*
X81792622Y-53650752D01*
X81827972Y-53703656D01*
X81793383Y-53755422D01*
X81770592Y-53870000D01*
X81770592Y-55130000D01*
X81793383Y-55244578D01*
X81858287Y-55341713D01*
X81955422Y-55406617D01*
X82070000Y-55429408D01*
X87930000Y-55429408D01*
X88044578Y-55406617D01*
X88141713Y-55341713D01*
X88206617Y-55244578D01*
X88229408Y-55130000D01*
X88229408Y-53870000D01*
X88206617Y-53755422D01*
X88172028Y-53703656D01*
X88207378Y-53650752D01*
X88229408Y-53540000D01*
X88229408Y-52460000D01*
X88207378Y-52349248D01*
X88172028Y-52296344D01*
X88206617Y-52244578D01*
X88229408Y-52130000D01*
X88229408Y-50870000D01*
X88206617Y-50755422D01*
X88141713Y-50658287D01*
X88044578Y-50593383D01*
X87930000Y-50570592D01*
X82070000Y-50570592D01*
X81955422Y-50593383D01*
X81858287Y-50658287D01*
X81793383Y-50755422D01*
X81770592Y-50870000D01*
X78229408Y-50870000D01*
X78206617Y-50755422D01*
X78141713Y-50658287D01*
X78044578Y-50593383D01*
X77930000Y-50570592D01*
X72070000Y-50570592D01*
X71955422Y-50593383D01*
X71858287Y-50658287D01*
X71793383Y-50755422D01*
X71770592Y-50870000D01*
X68229408Y-50870000D01*
X68206617Y-50755422D01*
X68141713Y-50658287D01*
X68044578Y-50593383D01*
X67930000Y-50570592D01*
X62070000Y-50570592D01*
X61955422Y-50593383D01*
X61858287Y-50658287D01*
X61793383Y-50755422D01*
X61770592Y-50870000D01*
X58229408Y-50870000D01*
X58206617Y-50755422D01*
X58141713Y-50658287D01*
X58044578Y-50593383D01*
X57930000Y-50570592D01*
X52070000Y-50570592D01*
X51955422Y-50593383D01*
X51858287Y-50658287D01*
X51793383Y-50755422D01*
X51770592Y-50870000D01*
X50300000Y-50870000D01*
X50300000Y-50300000D01*
X89700000Y-50300000D01*
X89700000Y-89700000D01*
%TD*%
M02*
