%TF.GenerationSoftware,KiCad,Pcbnew,no-vcs-found-e797af3~59~ubuntu17.04.1*%
%TF.CreationDate,2017-07-18T08:46:09+02:00*%
%TF.ProjectId,LEDBoard_4x4_16bit,4C4544426F6172645F3478345F313662,0.1*%
%TF.SameCoordinates,Original%
%TF.FileFunction,Other,User*%
%FSLAX46Y46*%
G04 Gerber Fmt 4.6, Leading zero omitted, Abs format (unit mm)*
G04 Created by KiCad (PCBNEW no-vcs-found-e797af3~59~ubuntu17.04.1) date Tue Jul 18 08:46:09 2017*
%MOMM*%
%LPD*%
G01*
G04 APERTURE LIST*
%ADD10C,0.050000*%
G04 APERTURE END LIST*
D10*
X51750000Y-50750000D02*
X58250000Y-50750000D01*
X58250000Y-50750000D02*
X58250000Y-55250000D01*
X58250000Y-55250000D02*
X51750000Y-55250000D01*
X51750000Y-55250000D02*
X51750000Y-50750000D01*
X51750000Y-60750000D02*
X58250000Y-60750000D01*
X58250000Y-60750000D02*
X58250000Y-65250000D01*
X58250000Y-65250000D02*
X51750000Y-65250000D01*
X51750000Y-65250000D02*
X51750000Y-60750000D01*
X51750000Y-70750000D02*
X58250000Y-70750000D01*
X58250000Y-70750000D02*
X58250000Y-75250000D01*
X58250000Y-75250000D02*
X51750000Y-75250000D01*
X51750000Y-75250000D02*
X51750000Y-70750000D01*
X51750000Y-80750000D02*
X58250000Y-80750000D01*
X58250000Y-80750000D02*
X58250000Y-85250000D01*
X58250000Y-85250000D02*
X51750000Y-85250000D01*
X51750000Y-85250000D02*
X51750000Y-80750000D01*
X61750000Y-50750000D02*
X68250000Y-50750000D01*
X68250000Y-50750000D02*
X68250000Y-55250000D01*
X68250000Y-55250000D02*
X61750000Y-55250000D01*
X61750000Y-55250000D02*
X61750000Y-50750000D01*
X61750000Y-60750000D02*
X68250000Y-60750000D01*
X68250000Y-60750000D02*
X68250000Y-65250000D01*
X68250000Y-65250000D02*
X61750000Y-65250000D01*
X61750000Y-65250000D02*
X61750000Y-60750000D01*
X61750000Y-70750000D02*
X68250000Y-70750000D01*
X68250000Y-70750000D02*
X68250000Y-75250000D01*
X68250000Y-75250000D02*
X61750000Y-75250000D01*
X61750000Y-75250000D02*
X61750000Y-70750000D01*
X61750000Y-80750000D02*
X68250000Y-80750000D01*
X68250000Y-80750000D02*
X68250000Y-85250000D01*
X68250000Y-85250000D02*
X61750000Y-85250000D01*
X61750000Y-85250000D02*
X61750000Y-80750000D01*
X71750000Y-50750000D02*
X78250000Y-50750000D01*
X78250000Y-50750000D02*
X78250000Y-55250000D01*
X78250000Y-55250000D02*
X71750000Y-55250000D01*
X71750000Y-55250000D02*
X71750000Y-50750000D01*
X71750000Y-60750000D02*
X78250000Y-60750000D01*
X78250000Y-60750000D02*
X78250000Y-65250000D01*
X78250000Y-65250000D02*
X71750000Y-65250000D01*
X71750000Y-65250000D02*
X71750000Y-60750000D01*
X71750000Y-70750000D02*
X78250000Y-70750000D01*
X78250000Y-70750000D02*
X78250000Y-75250000D01*
X78250000Y-75250000D02*
X71750000Y-75250000D01*
X71750000Y-75250000D02*
X71750000Y-70750000D01*
X71750000Y-80750000D02*
X78250000Y-80750000D01*
X78250000Y-80750000D02*
X78250000Y-85250000D01*
X78250000Y-85250000D02*
X71750000Y-85250000D01*
X71750000Y-85250000D02*
X71750000Y-80750000D01*
X81750000Y-50750000D02*
X88250000Y-50750000D01*
X88250000Y-50750000D02*
X88250000Y-55250000D01*
X88250000Y-55250000D02*
X81750000Y-55250000D01*
X81750000Y-55250000D02*
X81750000Y-50750000D01*
X81750000Y-60750000D02*
X88250000Y-60750000D01*
X88250000Y-60750000D02*
X88250000Y-65250000D01*
X88250000Y-65250000D02*
X81750000Y-65250000D01*
X81750000Y-65250000D02*
X81750000Y-60750000D01*
X81750000Y-70750000D02*
X88250000Y-70750000D01*
X88250000Y-70750000D02*
X88250000Y-75250000D01*
X88250000Y-75250000D02*
X81750000Y-75250000D01*
X81750000Y-75250000D02*
X81750000Y-70750000D01*
X81750000Y-80750000D02*
X88250000Y-80750000D01*
X88250000Y-80750000D02*
X88250000Y-85250000D01*
X88250000Y-85250000D02*
X81750000Y-85250000D01*
X81750000Y-85250000D02*
X81750000Y-80750000D01*
X57350000Y-60650000D02*
X62650000Y-60650000D01*
X57350000Y-55350000D02*
X62650000Y-55350000D01*
X62650000Y-55350000D02*
X62650000Y-60650000D01*
X57350000Y-55350000D02*
X57350000Y-60650000D01*
X77350000Y-60650000D02*
X82650000Y-60650000D01*
X77350000Y-55350000D02*
X82650000Y-55350000D01*
X82650000Y-55350000D02*
X82650000Y-60650000D01*
X77350000Y-55350000D02*
X77350000Y-60650000D01*
X57350000Y-80650000D02*
X62650000Y-80650000D01*
X57350000Y-75350000D02*
X62650000Y-75350000D01*
X62650000Y-75350000D02*
X62650000Y-80650000D01*
X57350000Y-75350000D02*
X57350000Y-80650000D01*
X77350000Y-80650000D02*
X82650000Y-80650000D01*
X77350000Y-75350000D02*
X82650000Y-75350000D01*
X82650000Y-75350000D02*
X82650000Y-80650000D01*
X77350000Y-75350000D02*
X77350000Y-80650000D01*
X63100000Y-68000000D02*
G75*
G03X63100000Y-68000000I-3100000J0D01*
G01*
X63600000Y-58350000D02*
X66400000Y-58350000D01*
X63600000Y-58350000D02*
X63600000Y-59650000D01*
X66400000Y-59650000D02*
X66400000Y-58350000D01*
X66400000Y-59650000D02*
X63600000Y-59650000D01*
X86400000Y-59650000D02*
X83600000Y-59650000D01*
X86400000Y-59650000D02*
X86400000Y-58350000D01*
X83600000Y-58350000D02*
X83600000Y-59650000D01*
X83600000Y-58350000D02*
X86400000Y-58350000D01*
X63600000Y-78350000D02*
X66400000Y-78350000D01*
X63600000Y-78350000D02*
X63600000Y-79650000D01*
X66400000Y-79650000D02*
X66400000Y-78350000D01*
X66400000Y-79650000D02*
X63600000Y-79650000D01*
X86400000Y-79650000D02*
X83600000Y-79650000D01*
X86400000Y-79650000D02*
X86400000Y-78350000D01*
X83600000Y-78350000D02*
X83600000Y-79650000D01*
X83600000Y-78350000D02*
X86400000Y-78350000D01*
X63750000Y-56300000D02*
X66250000Y-56300000D01*
X63750000Y-56300000D02*
X63750000Y-57700000D01*
X66250000Y-57700000D02*
X66250000Y-56300000D01*
X66250000Y-57700000D02*
X63750000Y-57700000D01*
X86250000Y-57700000D02*
X83750000Y-57700000D01*
X86250000Y-57700000D02*
X86250000Y-56300000D01*
X83750000Y-56300000D02*
X83750000Y-57700000D01*
X83750000Y-56300000D02*
X86250000Y-56300000D01*
X63750000Y-76300000D02*
X66250000Y-76300000D01*
X63750000Y-76300000D02*
X63750000Y-77700000D01*
X66250000Y-77700000D02*
X66250000Y-76300000D01*
X66250000Y-77700000D02*
X63750000Y-77700000D01*
X86250000Y-77700000D02*
X83750000Y-77700000D01*
X86250000Y-77700000D02*
X86250000Y-76300000D01*
X83750000Y-76300000D02*
X83750000Y-77700000D01*
X83750000Y-76300000D02*
X86250000Y-76300000D01*
X68600000Y-67350000D02*
X71400000Y-67350000D01*
X68600000Y-67350000D02*
X68600000Y-68650000D01*
X71400000Y-68650000D02*
X71400000Y-67350000D01*
X71400000Y-68650000D02*
X68600000Y-68650000D01*
X83100000Y-68000000D02*
G75*
G03X83100000Y-68000000I-3100000J0D01*
G01*
M02*
