%TF.GenerationSoftware,KiCad,Pcbnew,no-vcs-found-e797af3~59~ubuntu17.04.1*%
%TF.CreationDate,2017-07-18T08:56:31+02:00*%
%TF.ProjectId,LEDBoard_4x4_16bit,4C4544426F6172645F3478345F313662,0.1*%
%TF.SameCoordinates,Original%
%TF.FileFunction,Soldermask,Top*%
%TF.FilePolarity,Negative*%
%FSLAX46Y46*%
G04 Gerber Fmt 4.6, Leading zero omitted, Abs format (unit mm)*
G04 Created by KiCad (PCBNEW no-vcs-found-e797af3~59~ubuntu17.04.1) date Tue Jul 18 08:56:31 2017*
%MOMM*%
%LPD*%
G01*
G04 APERTURE LIST*
%ADD10C,0.100000*%
G04 APERTURE END LIST*
D10*
G36*
X68920976Y-87064800D02*
X68920986Y-87064803D01*
X68921024Y-87064807D01*
X69098140Y-87119633D01*
X69261233Y-87207817D01*
X69404092Y-87326001D01*
X69521275Y-87469681D01*
X69608319Y-87633386D01*
X69661907Y-87810880D01*
X69680000Y-87995403D01*
X69680000Y-88004636D01*
X69679922Y-88015839D01*
X69679921Y-88015847D01*
X69679907Y-88017861D01*
X69659240Y-88202113D01*
X69603179Y-88378842D01*
X69513858Y-88541316D01*
X69394680Y-88683346D01*
X69250185Y-88799523D01*
X69085876Y-88885422D01*
X68908012Y-88937770D01*
X68907978Y-88937773D01*
X68907965Y-88937777D01*
X68723371Y-88954577D01*
X68539024Y-88935200D01*
X68539014Y-88935197D01*
X68538976Y-88935193D01*
X68361860Y-88880367D01*
X68198767Y-88792183D01*
X68055908Y-88673999D01*
X67938725Y-88530319D01*
X67851681Y-88366614D01*
X67798093Y-88189120D01*
X67780000Y-88004597D01*
X67780000Y-87995364D01*
X67780078Y-87984161D01*
X67780079Y-87984153D01*
X67780093Y-87982139D01*
X67800760Y-87797887D01*
X67856821Y-87621158D01*
X67946142Y-87458684D01*
X68065320Y-87316654D01*
X68209815Y-87200477D01*
X68374124Y-87114578D01*
X68551988Y-87062230D01*
X68552022Y-87062227D01*
X68552035Y-87062223D01*
X68736629Y-87045423D01*
X68920976Y-87064800D01*
X68920976Y-87064800D01*
G37*
G36*
X71460976Y-87064800D02*
X71460986Y-87064803D01*
X71461024Y-87064807D01*
X71638140Y-87119633D01*
X71801233Y-87207817D01*
X71944092Y-87326001D01*
X72061275Y-87469681D01*
X72148319Y-87633386D01*
X72201907Y-87810880D01*
X72220000Y-87995403D01*
X72220000Y-88004636D01*
X72219922Y-88015839D01*
X72219921Y-88015847D01*
X72219907Y-88017861D01*
X72199240Y-88202113D01*
X72143179Y-88378842D01*
X72053858Y-88541316D01*
X71934680Y-88683346D01*
X71790185Y-88799523D01*
X71625876Y-88885422D01*
X71448012Y-88937770D01*
X71447978Y-88937773D01*
X71447965Y-88937777D01*
X71263371Y-88954577D01*
X71079024Y-88935200D01*
X71079014Y-88935197D01*
X71078976Y-88935193D01*
X70901860Y-88880367D01*
X70738767Y-88792183D01*
X70595908Y-88673999D01*
X70478725Y-88530319D01*
X70391681Y-88366614D01*
X70338093Y-88189120D01*
X70320000Y-88004597D01*
X70320000Y-87995364D01*
X70320078Y-87984161D01*
X70320079Y-87984153D01*
X70320093Y-87982139D01*
X70340760Y-87797887D01*
X70396821Y-87621158D01*
X70486142Y-87458684D01*
X70605320Y-87316654D01*
X70749815Y-87200477D01*
X70914124Y-87114578D01*
X71091988Y-87062230D01*
X71092022Y-87062227D01*
X71092035Y-87062223D01*
X71276629Y-87045423D01*
X71460976Y-87064800D01*
X71460976Y-87064800D01*
G37*
G36*
X74000976Y-87064800D02*
X74000986Y-87064803D01*
X74001024Y-87064807D01*
X74178140Y-87119633D01*
X74341233Y-87207817D01*
X74484092Y-87326001D01*
X74601275Y-87469681D01*
X74688319Y-87633386D01*
X74741907Y-87810880D01*
X74760000Y-87995403D01*
X74760000Y-88004636D01*
X74759922Y-88015839D01*
X74759921Y-88015847D01*
X74759907Y-88017861D01*
X74739240Y-88202113D01*
X74683179Y-88378842D01*
X74593858Y-88541316D01*
X74474680Y-88683346D01*
X74330185Y-88799523D01*
X74165876Y-88885422D01*
X73988012Y-88937770D01*
X73987978Y-88937773D01*
X73987965Y-88937777D01*
X73803371Y-88954577D01*
X73619024Y-88935200D01*
X73619014Y-88935197D01*
X73618976Y-88935193D01*
X73441860Y-88880367D01*
X73278767Y-88792183D01*
X73135908Y-88673999D01*
X73018725Y-88530319D01*
X72931681Y-88366614D01*
X72878093Y-88189120D01*
X72860000Y-88004597D01*
X72860000Y-87995364D01*
X72860078Y-87984161D01*
X72860079Y-87984153D01*
X72860093Y-87982139D01*
X72880760Y-87797887D01*
X72936821Y-87621158D01*
X73026142Y-87458684D01*
X73145320Y-87316654D01*
X73289815Y-87200477D01*
X73454124Y-87114578D01*
X73631988Y-87062230D01*
X73632022Y-87062227D01*
X73632035Y-87062223D01*
X73816629Y-87045423D01*
X74000976Y-87064800D01*
X74000976Y-87064800D01*
G37*
G36*
X76540976Y-87064800D02*
X76540986Y-87064803D01*
X76541024Y-87064807D01*
X76718140Y-87119633D01*
X76881233Y-87207817D01*
X77024092Y-87326001D01*
X77141275Y-87469681D01*
X77228319Y-87633386D01*
X77281907Y-87810880D01*
X77300000Y-87995403D01*
X77300000Y-88004636D01*
X77299922Y-88015839D01*
X77299921Y-88015847D01*
X77299907Y-88017861D01*
X77279240Y-88202113D01*
X77223179Y-88378842D01*
X77133858Y-88541316D01*
X77014680Y-88683346D01*
X76870185Y-88799523D01*
X76705876Y-88885422D01*
X76528012Y-88937770D01*
X76527978Y-88937773D01*
X76527965Y-88937777D01*
X76343371Y-88954577D01*
X76159024Y-88935200D01*
X76159014Y-88935197D01*
X76158976Y-88935193D01*
X75981860Y-88880367D01*
X75818767Y-88792183D01*
X75675908Y-88673999D01*
X75558725Y-88530319D01*
X75471681Y-88366614D01*
X75418093Y-88189120D01*
X75400000Y-88004597D01*
X75400000Y-87995364D01*
X75400078Y-87984161D01*
X75400079Y-87984153D01*
X75400093Y-87982139D01*
X75420760Y-87797887D01*
X75476821Y-87621158D01*
X75566142Y-87458684D01*
X75685320Y-87316654D01*
X75829815Y-87200477D01*
X75994124Y-87114578D01*
X76171988Y-87062230D01*
X76172022Y-87062227D01*
X76172035Y-87062223D01*
X76356629Y-87045423D01*
X76540976Y-87064800D01*
X76540976Y-87064800D01*
G37*
G36*
X86460976Y-87064800D02*
X86460986Y-87064803D01*
X86461024Y-87064807D01*
X86638140Y-87119633D01*
X86801233Y-87207817D01*
X86944092Y-87326001D01*
X87061275Y-87469681D01*
X87148319Y-87633386D01*
X87201907Y-87810880D01*
X87220000Y-87995403D01*
X87220000Y-88004636D01*
X87219922Y-88015839D01*
X87219921Y-88015847D01*
X87219907Y-88017861D01*
X87199240Y-88202113D01*
X87143179Y-88378842D01*
X87053858Y-88541316D01*
X86934680Y-88683346D01*
X86790185Y-88799523D01*
X86625876Y-88885422D01*
X86448012Y-88937770D01*
X86447978Y-88937773D01*
X86447965Y-88937777D01*
X86263371Y-88954577D01*
X86079024Y-88935200D01*
X86079014Y-88935197D01*
X86078976Y-88935193D01*
X85901860Y-88880367D01*
X85738767Y-88792183D01*
X85595908Y-88673999D01*
X85478725Y-88530319D01*
X85391681Y-88366614D01*
X85338093Y-88189120D01*
X85320000Y-88004597D01*
X85320000Y-87995364D01*
X85320078Y-87984161D01*
X85320079Y-87984153D01*
X85320093Y-87982139D01*
X85340760Y-87797887D01*
X85396821Y-87621158D01*
X85486142Y-87458684D01*
X85605320Y-87316654D01*
X85749815Y-87200477D01*
X85914124Y-87114578D01*
X86091988Y-87062230D01*
X86092022Y-87062227D01*
X86092035Y-87062223D01*
X86276629Y-87045423D01*
X86460976Y-87064800D01*
X86460976Y-87064800D01*
G37*
G36*
X56460976Y-87064800D02*
X56460986Y-87064803D01*
X56461024Y-87064807D01*
X56638140Y-87119633D01*
X56801233Y-87207817D01*
X56944092Y-87326001D01*
X57061275Y-87469681D01*
X57148319Y-87633386D01*
X57201907Y-87810880D01*
X57220000Y-87995403D01*
X57220000Y-88004636D01*
X57219922Y-88015839D01*
X57219921Y-88015847D01*
X57219907Y-88017861D01*
X57199240Y-88202113D01*
X57143179Y-88378842D01*
X57053858Y-88541316D01*
X56934680Y-88683346D01*
X56790185Y-88799523D01*
X56625876Y-88885422D01*
X56448012Y-88937770D01*
X56447978Y-88937773D01*
X56447965Y-88937777D01*
X56263371Y-88954577D01*
X56079024Y-88935200D01*
X56079014Y-88935197D01*
X56078976Y-88935193D01*
X55901860Y-88880367D01*
X55738767Y-88792183D01*
X55595908Y-88673999D01*
X55478725Y-88530319D01*
X55391681Y-88366614D01*
X55338093Y-88189120D01*
X55320000Y-88004597D01*
X55320000Y-87995364D01*
X55320078Y-87984161D01*
X55320079Y-87984153D01*
X55320093Y-87982139D01*
X55340760Y-87797887D01*
X55396821Y-87621158D01*
X55486142Y-87458684D01*
X55605320Y-87316654D01*
X55749815Y-87200477D01*
X55914124Y-87114578D01*
X56091988Y-87062230D01*
X56092022Y-87062227D01*
X56092035Y-87062223D01*
X56276629Y-87045423D01*
X56460976Y-87064800D01*
X56460976Y-87064800D01*
G37*
G36*
X66380976Y-87064800D02*
X66380986Y-87064803D01*
X66381024Y-87064807D01*
X66558140Y-87119633D01*
X66721233Y-87207817D01*
X66864092Y-87326001D01*
X66981275Y-87469681D01*
X67068319Y-87633386D01*
X67121907Y-87810880D01*
X67140000Y-87995403D01*
X67140000Y-88004636D01*
X67139922Y-88015839D01*
X67139921Y-88015847D01*
X67139907Y-88017861D01*
X67119240Y-88202113D01*
X67063179Y-88378842D01*
X66973858Y-88541316D01*
X66854680Y-88683346D01*
X66710185Y-88799523D01*
X66545876Y-88885422D01*
X66368012Y-88937770D01*
X66367978Y-88937773D01*
X66367965Y-88937777D01*
X66183371Y-88954577D01*
X65999024Y-88935200D01*
X65999014Y-88935197D01*
X65998976Y-88935193D01*
X65821860Y-88880367D01*
X65658767Y-88792183D01*
X65515908Y-88673999D01*
X65398725Y-88530319D01*
X65311681Y-88366614D01*
X65258093Y-88189120D01*
X65240000Y-88004597D01*
X65240000Y-87995364D01*
X65240078Y-87984161D01*
X65240079Y-87984153D01*
X65240093Y-87982139D01*
X65260760Y-87797887D01*
X65316821Y-87621158D01*
X65406142Y-87458684D01*
X65525320Y-87316654D01*
X65669815Y-87200477D01*
X65834124Y-87114578D01*
X66011988Y-87062230D01*
X66012022Y-87062227D01*
X66012035Y-87062223D01*
X66196629Y-87045423D01*
X66380976Y-87064800D01*
X66380976Y-87064800D01*
G37*
G36*
X64600000Y-88950000D02*
X62700000Y-88950000D01*
X62700000Y-87050000D01*
X64600000Y-87050000D01*
X64600000Y-88950000D01*
X64600000Y-88950000D01*
G37*
G36*
X54680000Y-88950000D02*
X52780000Y-88950000D01*
X52780000Y-87050000D01*
X54680000Y-87050000D01*
X54680000Y-88950000D01*
X54680000Y-88950000D01*
G37*
G36*
X84680000Y-88950000D02*
X82780000Y-88950000D01*
X82780000Y-87050000D01*
X84680000Y-87050000D01*
X84680000Y-88950000D01*
X84680000Y-88950000D01*
G37*
G36*
X63526379Y-81251622D02*
X63533382Y-81252312D01*
X63560674Y-81260591D01*
X63585826Y-81274035D01*
X63585828Y-81274036D01*
X63585827Y-81274036D01*
X63607872Y-81292128D01*
X63625964Y-81314173D01*
X63639409Y-81339326D01*
X63647688Y-81366619D01*
X63650725Y-81397454D01*
X63650725Y-82202546D01*
X63650483Y-82205000D01*
X63647688Y-82233382D01*
X63639409Y-82260674D01*
X63625965Y-82285826D01*
X63607872Y-82307872D01*
X63585826Y-82325965D01*
X63560674Y-82339409D01*
X63533382Y-82347688D01*
X63526173Y-82348398D01*
X63507460Y-82350241D01*
X63497846Y-82352153D01*
X63488791Y-82355904D01*
X63480641Y-82361350D01*
X63473710Y-82368281D01*
X63468265Y-82376430D01*
X63464514Y-82385486D01*
X63462602Y-82395099D01*
X63462602Y-82404901D01*
X63464514Y-82414515D01*
X63468265Y-82423570D01*
X63473711Y-82431720D01*
X63480642Y-82438651D01*
X63488791Y-82444096D01*
X63497847Y-82447847D01*
X63507460Y-82449759D01*
X63526173Y-82451602D01*
X63533382Y-82452312D01*
X63560674Y-82460591D01*
X63585826Y-82474035D01*
X63585828Y-82474036D01*
X63585827Y-82474036D01*
X63607872Y-82492128D01*
X63625964Y-82514173D01*
X63639409Y-82539326D01*
X63647688Y-82566619D01*
X63650725Y-82597454D01*
X63650725Y-83402546D01*
X63650483Y-83405000D01*
X63647688Y-83433382D01*
X63639409Y-83460674D01*
X63625965Y-83485826D01*
X63607872Y-83507872D01*
X63585826Y-83525965D01*
X63560674Y-83539409D01*
X63533382Y-83547688D01*
X63526173Y-83548398D01*
X63507460Y-83550241D01*
X63497846Y-83552153D01*
X63488791Y-83555904D01*
X63480641Y-83561350D01*
X63473710Y-83568281D01*
X63468265Y-83576430D01*
X63464514Y-83585486D01*
X63462602Y-83595099D01*
X63462602Y-83604901D01*
X63464514Y-83614515D01*
X63468265Y-83623570D01*
X63473711Y-83631720D01*
X63480642Y-83638651D01*
X63488791Y-83644096D01*
X63497847Y-83647847D01*
X63507460Y-83649759D01*
X63526173Y-83651602D01*
X63533382Y-83652312D01*
X63560674Y-83660591D01*
X63585826Y-83674035D01*
X63585828Y-83674036D01*
X63585827Y-83674036D01*
X63607872Y-83692128D01*
X63625964Y-83714173D01*
X63639409Y-83739326D01*
X63647688Y-83766619D01*
X63650725Y-83797454D01*
X63650725Y-84602546D01*
X63650483Y-84605000D01*
X63647688Y-84633382D01*
X63639409Y-84660674D01*
X63625965Y-84685826D01*
X63607872Y-84707872D01*
X63585826Y-84725965D01*
X63560674Y-84739409D01*
X63533382Y-84747688D01*
X63526379Y-84748378D01*
X63502546Y-84750725D01*
X62047454Y-84750725D01*
X62023621Y-84748378D01*
X62016618Y-84747688D01*
X61989326Y-84739409D01*
X61964174Y-84725965D01*
X61942128Y-84707872D01*
X61924035Y-84685826D01*
X61910591Y-84660674D01*
X61902312Y-84633382D01*
X61899517Y-84605000D01*
X61899275Y-84602546D01*
X61899275Y-83797454D01*
X61902312Y-83766619D01*
X61910591Y-83739326D01*
X61924036Y-83714173D01*
X61942128Y-83692128D01*
X61964173Y-83674036D01*
X61964172Y-83674036D01*
X61964174Y-83674035D01*
X61989326Y-83660591D01*
X62016618Y-83652312D01*
X62023827Y-83651602D01*
X62042540Y-83649759D01*
X62052154Y-83647847D01*
X62061209Y-83644096D01*
X62069359Y-83638650D01*
X62076290Y-83631719D01*
X62081735Y-83623570D01*
X62085486Y-83614514D01*
X62087398Y-83604901D01*
X62087398Y-83595099D01*
X62085486Y-83585485D01*
X62081735Y-83576430D01*
X62076289Y-83568280D01*
X62069358Y-83561349D01*
X62061209Y-83555904D01*
X62052153Y-83552153D01*
X62042540Y-83550241D01*
X62023827Y-83548398D01*
X62016618Y-83547688D01*
X61989326Y-83539409D01*
X61964174Y-83525965D01*
X61942128Y-83507872D01*
X61924035Y-83485826D01*
X61910591Y-83460674D01*
X61902312Y-83433382D01*
X61899517Y-83405000D01*
X61899275Y-83402546D01*
X61899275Y-82597454D01*
X61902312Y-82566619D01*
X61910591Y-82539326D01*
X61924036Y-82514173D01*
X61942128Y-82492128D01*
X61964173Y-82474036D01*
X61964172Y-82474036D01*
X61964174Y-82474035D01*
X61989326Y-82460591D01*
X62016618Y-82452312D01*
X62023827Y-82451602D01*
X62042540Y-82449759D01*
X62052154Y-82447847D01*
X62061209Y-82444096D01*
X62069359Y-82438650D01*
X62076290Y-82431719D01*
X62081735Y-82423570D01*
X62085486Y-82414514D01*
X62087398Y-82404901D01*
X62087398Y-82395099D01*
X62085486Y-82385485D01*
X62081735Y-82376430D01*
X62076289Y-82368280D01*
X62069358Y-82361349D01*
X62061209Y-82355904D01*
X62052153Y-82352153D01*
X62042540Y-82350241D01*
X62023827Y-82348398D01*
X62016618Y-82347688D01*
X61989326Y-82339409D01*
X61964174Y-82325965D01*
X61942128Y-82307872D01*
X61924035Y-82285826D01*
X61910591Y-82260674D01*
X61902312Y-82233382D01*
X61899517Y-82205000D01*
X61899275Y-82202546D01*
X61899275Y-81397454D01*
X61902312Y-81366619D01*
X61910591Y-81339326D01*
X61924036Y-81314173D01*
X61942128Y-81292128D01*
X61964173Y-81274036D01*
X61964172Y-81274036D01*
X61964174Y-81274035D01*
X61989326Y-81260591D01*
X62016618Y-81252312D01*
X62023621Y-81251622D01*
X62047454Y-81249275D01*
X63502546Y-81249275D01*
X63526379Y-81251622D01*
X63526379Y-81251622D01*
G37*
G36*
X67976379Y-81251622D02*
X67983382Y-81252312D01*
X68010674Y-81260591D01*
X68035826Y-81274035D01*
X68035828Y-81274036D01*
X68035827Y-81274036D01*
X68057872Y-81292128D01*
X68075964Y-81314173D01*
X68089409Y-81339326D01*
X68097688Y-81366619D01*
X68100725Y-81397454D01*
X68100725Y-82202546D01*
X68100483Y-82205000D01*
X68097688Y-82233382D01*
X68089409Y-82260674D01*
X68075965Y-82285826D01*
X68057872Y-82307872D01*
X68035826Y-82325965D01*
X68010674Y-82339409D01*
X67983382Y-82347688D01*
X67976173Y-82348398D01*
X67957460Y-82350241D01*
X67947846Y-82352153D01*
X67938791Y-82355904D01*
X67930641Y-82361350D01*
X67923710Y-82368281D01*
X67918265Y-82376430D01*
X67914514Y-82385486D01*
X67912602Y-82395099D01*
X67912602Y-82404901D01*
X67914514Y-82414515D01*
X67918265Y-82423570D01*
X67923711Y-82431720D01*
X67930642Y-82438651D01*
X67938791Y-82444096D01*
X67947847Y-82447847D01*
X67957460Y-82449759D01*
X67976173Y-82451602D01*
X67983382Y-82452312D01*
X68010674Y-82460591D01*
X68035826Y-82474035D01*
X68035828Y-82474036D01*
X68035827Y-82474036D01*
X68057872Y-82492128D01*
X68075964Y-82514173D01*
X68089409Y-82539326D01*
X68097688Y-82566619D01*
X68100725Y-82597454D01*
X68100725Y-83402546D01*
X68100483Y-83405000D01*
X68097688Y-83433382D01*
X68089409Y-83460674D01*
X68075965Y-83485826D01*
X68057872Y-83507872D01*
X68035826Y-83525965D01*
X68010674Y-83539409D01*
X67983382Y-83547688D01*
X67976173Y-83548398D01*
X67957460Y-83550241D01*
X67947846Y-83552153D01*
X67938791Y-83555904D01*
X67930641Y-83561350D01*
X67923710Y-83568281D01*
X67918265Y-83576430D01*
X67914514Y-83585486D01*
X67912602Y-83595099D01*
X67912602Y-83604901D01*
X67914514Y-83614515D01*
X67918265Y-83623570D01*
X67923711Y-83631720D01*
X67930642Y-83638651D01*
X67938791Y-83644096D01*
X67947847Y-83647847D01*
X67957460Y-83649759D01*
X67976173Y-83651602D01*
X67983382Y-83652312D01*
X68010674Y-83660591D01*
X68035826Y-83674035D01*
X68035828Y-83674036D01*
X68035827Y-83674036D01*
X68057872Y-83692128D01*
X68075964Y-83714173D01*
X68089409Y-83739326D01*
X68097688Y-83766619D01*
X68100725Y-83797454D01*
X68100725Y-84602546D01*
X68100483Y-84605000D01*
X68097688Y-84633382D01*
X68089409Y-84660674D01*
X68075965Y-84685826D01*
X68057872Y-84707872D01*
X68035826Y-84725965D01*
X68010674Y-84739409D01*
X67983382Y-84747688D01*
X67976379Y-84748378D01*
X67952546Y-84750725D01*
X66497454Y-84750725D01*
X66473621Y-84748378D01*
X66466618Y-84747688D01*
X66439326Y-84739409D01*
X66414174Y-84725965D01*
X66392128Y-84707872D01*
X66374035Y-84685826D01*
X66360591Y-84660674D01*
X66352312Y-84633382D01*
X66349517Y-84605000D01*
X66349275Y-84602546D01*
X66349275Y-83797454D01*
X66352312Y-83766619D01*
X66360591Y-83739326D01*
X66374036Y-83714173D01*
X66392128Y-83692128D01*
X66414173Y-83674036D01*
X66414172Y-83674036D01*
X66414174Y-83674035D01*
X66439326Y-83660591D01*
X66466618Y-83652312D01*
X66473827Y-83651602D01*
X66492540Y-83649759D01*
X66502154Y-83647847D01*
X66511209Y-83644096D01*
X66519359Y-83638650D01*
X66526290Y-83631719D01*
X66531735Y-83623570D01*
X66535486Y-83614514D01*
X66537398Y-83604901D01*
X66537398Y-83595099D01*
X66535486Y-83585485D01*
X66531735Y-83576430D01*
X66526289Y-83568280D01*
X66519358Y-83561349D01*
X66511209Y-83555904D01*
X66502153Y-83552153D01*
X66492540Y-83550241D01*
X66473827Y-83548398D01*
X66466618Y-83547688D01*
X66439326Y-83539409D01*
X66414174Y-83525965D01*
X66392128Y-83507872D01*
X66374035Y-83485826D01*
X66360591Y-83460674D01*
X66352312Y-83433382D01*
X66349517Y-83405000D01*
X66349275Y-83402546D01*
X66349275Y-82597454D01*
X66352312Y-82566619D01*
X66360591Y-82539326D01*
X66374036Y-82514173D01*
X66392128Y-82492128D01*
X66414173Y-82474036D01*
X66414172Y-82474036D01*
X66414174Y-82474035D01*
X66439326Y-82460591D01*
X66466618Y-82452312D01*
X66473827Y-82451602D01*
X66492540Y-82449759D01*
X66502154Y-82447847D01*
X66511209Y-82444096D01*
X66519359Y-82438650D01*
X66526290Y-82431719D01*
X66531735Y-82423570D01*
X66535486Y-82414514D01*
X66537398Y-82404901D01*
X66537398Y-82395099D01*
X66535486Y-82385485D01*
X66531735Y-82376430D01*
X66526289Y-82368280D01*
X66519358Y-82361349D01*
X66511209Y-82355904D01*
X66502153Y-82352153D01*
X66492540Y-82350241D01*
X66473827Y-82348398D01*
X66466618Y-82347688D01*
X66439326Y-82339409D01*
X66414174Y-82325965D01*
X66392128Y-82307872D01*
X66374035Y-82285826D01*
X66360591Y-82260674D01*
X66352312Y-82233382D01*
X66349517Y-82205000D01*
X66349275Y-82202546D01*
X66349275Y-81397454D01*
X66352312Y-81366619D01*
X66360591Y-81339326D01*
X66374036Y-81314173D01*
X66392128Y-81292128D01*
X66414173Y-81274036D01*
X66414172Y-81274036D01*
X66414174Y-81274035D01*
X66439326Y-81260591D01*
X66466618Y-81252312D01*
X66473621Y-81251622D01*
X66497454Y-81249275D01*
X67952546Y-81249275D01*
X67976379Y-81251622D01*
X67976379Y-81251622D01*
G37*
G36*
X53526379Y-81251622D02*
X53533382Y-81252312D01*
X53560674Y-81260591D01*
X53585826Y-81274035D01*
X53585828Y-81274036D01*
X53585827Y-81274036D01*
X53607872Y-81292128D01*
X53625964Y-81314173D01*
X53639409Y-81339326D01*
X53647688Y-81366619D01*
X53650725Y-81397454D01*
X53650725Y-82202546D01*
X53650483Y-82205000D01*
X53647688Y-82233382D01*
X53639409Y-82260674D01*
X53625965Y-82285826D01*
X53607872Y-82307872D01*
X53585826Y-82325965D01*
X53560674Y-82339409D01*
X53533382Y-82347688D01*
X53526173Y-82348398D01*
X53507460Y-82350241D01*
X53497846Y-82352153D01*
X53488791Y-82355904D01*
X53480641Y-82361350D01*
X53473710Y-82368281D01*
X53468265Y-82376430D01*
X53464514Y-82385486D01*
X53462602Y-82395099D01*
X53462602Y-82404901D01*
X53464514Y-82414515D01*
X53468265Y-82423570D01*
X53473711Y-82431720D01*
X53480642Y-82438651D01*
X53488791Y-82444096D01*
X53497847Y-82447847D01*
X53507460Y-82449759D01*
X53526173Y-82451602D01*
X53533382Y-82452312D01*
X53560674Y-82460591D01*
X53585826Y-82474035D01*
X53585828Y-82474036D01*
X53585827Y-82474036D01*
X53607872Y-82492128D01*
X53625964Y-82514173D01*
X53639409Y-82539326D01*
X53647688Y-82566619D01*
X53650725Y-82597454D01*
X53650725Y-83402546D01*
X53650483Y-83405000D01*
X53647688Y-83433382D01*
X53639409Y-83460674D01*
X53625965Y-83485826D01*
X53607872Y-83507872D01*
X53585826Y-83525965D01*
X53560674Y-83539409D01*
X53533382Y-83547688D01*
X53526173Y-83548398D01*
X53507460Y-83550241D01*
X53497846Y-83552153D01*
X53488791Y-83555904D01*
X53480641Y-83561350D01*
X53473710Y-83568281D01*
X53468265Y-83576430D01*
X53464514Y-83585486D01*
X53462602Y-83595099D01*
X53462602Y-83604901D01*
X53464514Y-83614515D01*
X53468265Y-83623570D01*
X53473711Y-83631720D01*
X53480642Y-83638651D01*
X53488791Y-83644096D01*
X53497847Y-83647847D01*
X53507460Y-83649759D01*
X53526173Y-83651602D01*
X53533382Y-83652312D01*
X53560674Y-83660591D01*
X53585826Y-83674035D01*
X53585828Y-83674036D01*
X53585827Y-83674036D01*
X53607872Y-83692128D01*
X53625964Y-83714173D01*
X53639409Y-83739326D01*
X53647688Y-83766619D01*
X53650725Y-83797454D01*
X53650725Y-84602546D01*
X53650483Y-84605000D01*
X53647688Y-84633382D01*
X53639409Y-84660674D01*
X53625965Y-84685826D01*
X53607872Y-84707872D01*
X53585826Y-84725965D01*
X53560674Y-84739409D01*
X53533382Y-84747688D01*
X53526379Y-84748378D01*
X53502546Y-84750725D01*
X52047454Y-84750725D01*
X52023621Y-84748378D01*
X52016618Y-84747688D01*
X51989326Y-84739409D01*
X51964174Y-84725965D01*
X51942128Y-84707872D01*
X51924035Y-84685826D01*
X51910591Y-84660674D01*
X51902312Y-84633382D01*
X51899517Y-84605000D01*
X51899275Y-84602546D01*
X51899275Y-83797454D01*
X51902312Y-83766619D01*
X51910591Y-83739326D01*
X51924036Y-83714173D01*
X51942128Y-83692128D01*
X51964173Y-83674036D01*
X51964172Y-83674036D01*
X51964174Y-83674035D01*
X51989326Y-83660591D01*
X52016618Y-83652312D01*
X52023827Y-83651602D01*
X52042540Y-83649759D01*
X52052154Y-83647847D01*
X52061209Y-83644096D01*
X52069359Y-83638650D01*
X52076290Y-83631719D01*
X52081735Y-83623570D01*
X52085486Y-83614514D01*
X52087398Y-83604901D01*
X52087398Y-83595099D01*
X52085486Y-83585485D01*
X52081735Y-83576430D01*
X52076289Y-83568280D01*
X52069358Y-83561349D01*
X52061209Y-83555904D01*
X52052153Y-83552153D01*
X52042540Y-83550241D01*
X52023827Y-83548398D01*
X52016618Y-83547688D01*
X51989326Y-83539409D01*
X51964174Y-83525965D01*
X51942128Y-83507872D01*
X51924035Y-83485826D01*
X51910591Y-83460674D01*
X51902312Y-83433382D01*
X51899517Y-83405000D01*
X51899275Y-83402546D01*
X51899275Y-82597454D01*
X51902312Y-82566619D01*
X51910591Y-82539326D01*
X51924036Y-82514173D01*
X51942128Y-82492128D01*
X51964173Y-82474036D01*
X51964172Y-82474036D01*
X51964174Y-82474035D01*
X51989326Y-82460591D01*
X52016618Y-82452312D01*
X52023827Y-82451602D01*
X52042540Y-82449759D01*
X52052154Y-82447847D01*
X52061209Y-82444096D01*
X52069359Y-82438650D01*
X52076290Y-82431719D01*
X52081735Y-82423570D01*
X52085486Y-82414514D01*
X52087398Y-82404901D01*
X52087398Y-82395099D01*
X52085486Y-82385485D01*
X52081735Y-82376430D01*
X52076289Y-82368280D01*
X52069358Y-82361349D01*
X52061209Y-82355904D01*
X52052153Y-82352153D01*
X52042540Y-82350241D01*
X52023827Y-82348398D01*
X52016618Y-82347688D01*
X51989326Y-82339409D01*
X51964174Y-82325965D01*
X51942128Y-82307872D01*
X51924035Y-82285826D01*
X51910591Y-82260674D01*
X51902312Y-82233382D01*
X51899517Y-82205000D01*
X51899275Y-82202546D01*
X51899275Y-81397454D01*
X51902312Y-81366619D01*
X51910591Y-81339326D01*
X51924036Y-81314173D01*
X51942128Y-81292128D01*
X51964173Y-81274036D01*
X51964172Y-81274036D01*
X51964174Y-81274035D01*
X51989326Y-81260591D01*
X52016618Y-81252312D01*
X52023621Y-81251622D01*
X52047454Y-81249275D01*
X53502546Y-81249275D01*
X53526379Y-81251622D01*
X53526379Y-81251622D01*
G37*
G36*
X57976379Y-81251622D02*
X57983382Y-81252312D01*
X58010674Y-81260591D01*
X58035826Y-81274035D01*
X58035828Y-81274036D01*
X58035827Y-81274036D01*
X58057872Y-81292128D01*
X58075964Y-81314173D01*
X58089409Y-81339326D01*
X58097688Y-81366619D01*
X58100725Y-81397454D01*
X58100725Y-82202546D01*
X58100483Y-82205000D01*
X58097688Y-82233382D01*
X58089409Y-82260674D01*
X58075965Y-82285826D01*
X58057872Y-82307872D01*
X58035826Y-82325965D01*
X58010674Y-82339409D01*
X57983382Y-82347688D01*
X57976173Y-82348398D01*
X57957460Y-82350241D01*
X57947846Y-82352153D01*
X57938791Y-82355904D01*
X57930641Y-82361350D01*
X57923710Y-82368281D01*
X57918265Y-82376430D01*
X57914514Y-82385486D01*
X57912602Y-82395099D01*
X57912602Y-82404901D01*
X57914514Y-82414515D01*
X57918265Y-82423570D01*
X57923711Y-82431720D01*
X57930642Y-82438651D01*
X57938791Y-82444096D01*
X57947847Y-82447847D01*
X57957460Y-82449759D01*
X57976173Y-82451602D01*
X57983382Y-82452312D01*
X58010674Y-82460591D01*
X58035826Y-82474035D01*
X58035828Y-82474036D01*
X58035827Y-82474036D01*
X58057872Y-82492128D01*
X58075964Y-82514173D01*
X58089409Y-82539326D01*
X58097688Y-82566619D01*
X58100725Y-82597454D01*
X58100725Y-83402546D01*
X58100483Y-83405000D01*
X58097688Y-83433382D01*
X58089409Y-83460674D01*
X58075965Y-83485826D01*
X58057872Y-83507872D01*
X58035826Y-83525965D01*
X58010674Y-83539409D01*
X57983382Y-83547688D01*
X57976173Y-83548398D01*
X57957460Y-83550241D01*
X57947846Y-83552153D01*
X57938791Y-83555904D01*
X57930641Y-83561350D01*
X57923710Y-83568281D01*
X57918265Y-83576430D01*
X57914514Y-83585486D01*
X57912602Y-83595099D01*
X57912602Y-83604901D01*
X57914514Y-83614515D01*
X57918265Y-83623570D01*
X57923711Y-83631720D01*
X57930642Y-83638651D01*
X57938791Y-83644096D01*
X57947847Y-83647847D01*
X57957460Y-83649759D01*
X57976173Y-83651602D01*
X57983382Y-83652312D01*
X58010674Y-83660591D01*
X58035826Y-83674035D01*
X58035828Y-83674036D01*
X58035827Y-83674036D01*
X58057872Y-83692128D01*
X58075964Y-83714173D01*
X58089409Y-83739326D01*
X58097688Y-83766619D01*
X58100725Y-83797454D01*
X58100725Y-84602546D01*
X58100483Y-84605000D01*
X58097688Y-84633382D01*
X58089409Y-84660674D01*
X58075965Y-84685826D01*
X58057872Y-84707872D01*
X58035826Y-84725965D01*
X58010674Y-84739409D01*
X57983382Y-84747688D01*
X57976379Y-84748378D01*
X57952546Y-84750725D01*
X56497454Y-84750725D01*
X56473621Y-84748378D01*
X56466618Y-84747688D01*
X56439326Y-84739409D01*
X56414174Y-84725965D01*
X56392128Y-84707872D01*
X56374035Y-84685826D01*
X56360591Y-84660674D01*
X56352312Y-84633382D01*
X56349517Y-84605000D01*
X56349275Y-84602546D01*
X56349275Y-83797454D01*
X56352312Y-83766619D01*
X56360591Y-83739326D01*
X56374036Y-83714173D01*
X56392128Y-83692128D01*
X56414173Y-83674036D01*
X56414172Y-83674036D01*
X56414174Y-83674035D01*
X56439326Y-83660591D01*
X56466618Y-83652312D01*
X56473827Y-83651602D01*
X56492540Y-83649759D01*
X56502154Y-83647847D01*
X56511209Y-83644096D01*
X56519359Y-83638650D01*
X56526290Y-83631719D01*
X56531735Y-83623570D01*
X56535486Y-83614514D01*
X56537398Y-83604901D01*
X56537398Y-83595099D01*
X56535486Y-83585485D01*
X56531735Y-83576430D01*
X56526289Y-83568280D01*
X56519358Y-83561349D01*
X56511209Y-83555904D01*
X56502153Y-83552153D01*
X56492540Y-83550241D01*
X56473827Y-83548398D01*
X56466618Y-83547688D01*
X56439326Y-83539409D01*
X56414174Y-83525965D01*
X56392128Y-83507872D01*
X56374035Y-83485826D01*
X56360591Y-83460674D01*
X56352312Y-83433382D01*
X56349517Y-83405000D01*
X56349275Y-83402546D01*
X56349275Y-82597454D01*
X56352312Y-82566619D01*
X56360591Y-82539326D01*
X56374036Y-82514173D01*
X56392128Y-82492128D01*
X56414173Y-82474036D01*
X56414172Y-82474036D01*
X56414174Y-82474035D01*
X56439326Y-82460591D01*
X56466618Y-82452312D01*
X56473827Y-82451602D01*
X56492540Y-82449759D01*
X56502154Y-82447847D01*
X56511209Y-82444096D01*
X56519359Y-82438650D01*
X56526290Y-82431719D01*
X56531735Y-82423570D01*
X56535486Y-82414514D01*
X56537398Y-82404901D01*
X56537398Y-82395099D01*
X56535486Y-82385485D01*
X56531735Y-82376430D01*
X56526289Y-82368280D01*
X56519358Y-82361349D01*
X56511209Y-82355904D01*
X56502153Y-82352153D01*
X56492540Y-82350241D01*
X56473827Y-82348398D01*
X56466618Y-82347688D01*
X56439326Y-82339409D01*
X56414174Y-82325965D01*
X56392128Y-82307872D01*
X56374035Y-82285826D01*
X56360591Y-82260674D01*
X56352312Y-82233382D01*
X56349517Y-82205000D01*
X56349275Y-82202546D01*
X56349275Y-81397454D01*
X56352312Y-81366619D01*
X56360591Y-81339326D01*
X56374036Y-81314173D01*
X56392128Y-81292128D01*
X56414173Y-81274036D01*
X56414172Y-81274036D01*
X56414174Y-81274035D01*
X56439326Y-81260591D01*
X56466618Y-81252312D01*
X56473621Y-81251622D01*
X56497454Y-81249275D01*
X57952546Y-81249275D01*
X57976379Y-81251622D01*
X57976379Y-81251622D01*
G37*
G36*
X73526379Y-81251622D02*
X73533382Y-81252312D01*
X73560674Y-81260591D01*
X73585826Y-81274035D01*
X73585828Y-81274036D01*
X73585827Y-81274036D01*
X73607872Y-81292128D01*
X73625964Y-81314173D01*
X73639409Y-81339326D01*
X73647688Y-81366619D01*
X73650725Y-81397454D01*
X73650725Y-82202546D01*
X73650483Y-82205000D01*
X73647688Y-82233382D01*
X73639409Y-82260674D01*
X73625965Y-82285826D01*
X73607872Y-82307872D01*
X73585826Y-82325965D01*
X73560674Y-82339409D01*
X73533382Y-82347688D01*
X73526173Y-82348398D01*
X73507460Y-82350241D01*
X73497846Y-82352153D01*
X73488791Y-82355904D01*
X73480641Y-82361350D01*
X73473710Y-82368281D01*
X73468265Y-82376430D01*
X73464514Y-82385486D01*
X73462602Y-82395099D01*
X73462602Y-82404901D01*
X73464514Y-82414515D01*
X73468265Y-82423570D01*
X73473711Y-82431720D01*
X73480642Y-82438651D01*
X73488791Y-82444096D01*
X73497847Y-82447847D01*
X73507460Y-82449759D01*
X73526173Y-82451602D01*
X73533382Y-82452312D01*
X73560674Y-82460591D01*
X73585826Y-82474035D01*
X73585828Y-82474036D01*
X73585827Y-82474036D01*
X73607872Y-82492128D01*
X73625964Y-82514173D01*
X73639409Y-82539326D01*
X73647688Y-82566619D01*
X73650725Y-82597454D01*
X73650725Y-83402546D01*
X73650483Y-83405000D01*
X73647688Y-83433382D01*
X73639409Y-83460674D01*
X73625965Y-83485826D01*
X73607872Y-83507872D01*
X73585826Y-83525965D01*
X73560674Y-83539409D01*
X73533382Y-83547688D01*
X73526173Y-83548398D01*
X73507460Y-83550241D01*
X73497846Y-83552153D01*
X73488791Y-83555904D01*
X73480641Y-83561350D01*
X73473710Y-83568281D01*
X73468265Y-83576430D01*
X73464514Y-83585486D01*
X73462602Y-83595099D01*
X73462602Y-83604901D01*
X73464514Y-83614515D01*
X73468265Y-83623570D01*
X73473711Y-83631720D01*
X73480642Y-83638651D01*
X73488791Y-83644096D01*
X73497847Y-83647847D01*
X73507460Y-83649759D01*
X73526173Y-83651602D01*
X73533382Y-83652312D01*
X73560674Y-83660591D01*
X73585826Y-83674035D01*
X73585828Y-83674036D01*
X73585827Y-83674036D01*
X73607872Y-83692128D01*
X73625964Y-83714173D01*
X73639409Y-83739326D01*
X73647688Y-83766619D01*
X73650725Y-83797454D01*
X73650725Y-84602546D01*
X73650483Y-84605000D01*
X73647688Y-84633382D01*
X73639409Y-84660674D01*
X73625965Y-84685826D01*
X73607872Y-84707872D01*
X73585826Y-84725965D01*
X73560674Y-84739409D01*
X73533382Y-84747688D01*
X73526379Y-84748378D01*
X73502546Y-84750725D01*
X72047454Y-84750725D01*
X72023621Y-84748378D01*
X72016618Y-84747688D01*
X71989326Y-84739409D01*
X71964174Y-84725965D01*
X71942128Y-84707872D01*
X71924035Y-84685826D01*
X71910591Y-84660674D01*
X71902312Y-84633382D01*
X71899517Y-84605000D01*
X71899275Y-84602546D01*
X71899275Y-83797454D01*
X71902312Y-83766619D01*
X71910591Y-83739326D01*
X71924036Y-83714173D01*
X71942128Y-83692128D01*
X71964173Y-83674036D01*
X71964172Y-83674036D01*
X71964174Y-83674035D01*
X71989326Y-83660591D01*
X72016618Y-83652312D01*
X72023827Y-83651602D01*
X72042540Y-83649759D01*
X72052154Y-83647847D01*
X72061209Y-83644096D01*
X72069359Y-83638650D01*
X72076290Y-83631719D01*
X72081735Y-83623570D01*
X72085486Y-83614514D01*
X72087398Y-83604901D01*
X72087398Y-83595099D01*
X72085486Y-83585485D01*
X72081735Y-83576430D01*
X72076289Y-83568280D01*
X72069358Y-83561349D01*
X72061209Y-83555904D01*
X72052153Y-83552153D01*
X72042540Y-83550241D01*
X72023827Y-83548398D01*
X72016618Y-83547688D01*
X71989326Y-83539409D01*
X71964174Y-83525965D01*
X71942128Y-83507872D01*
X71924035Y-83485826D01*
X71910591Y-83460674D01*
X71902312Y-83433382D01*
X71899517Y-83405000D01*
X71899275Y-83402546D01*
X71899275Y-82597454D01*
X71902312Y-82566619D01*
X71910591Y-82539326D01*
X71924036Y-82514173D01*
X71942128Y-82492128D01*
X71964173Y-82474036D01*
X71964172Y-82474036D01*
X71964174Y-82474035D01*
X71989326Y-82460591D01*
X72016618Y-82452312D01*
X72023827Y-82451602D01*
X72042540Y-82449759D01*
X72052154Y-82447847D01*
X72061209Y-82444096D01*
X72069359Y-82438650D01*
X72076290Y-82431719D01*
X72081735Y-82423570D01*
X72085486Y-82414514D01*
X72087398Y-82404901D01*
X72087398Y-82395099D01*
X72085486Y-82385485D01*
X72081735Y-82376430D01*
X72076289Y-82368280D01*
X72069358Y-82361349D01*
X72061209Y-82355904D01*
X72052153Y-82352153D01*
X72042540Y-82350241D01*
X72023827Y-82348398D01*
X72016618Y-82347688D01*
X71989326Y-82339409D01*
X71964174Y-82325965D01*
X71942128Y-82307872D01*
X71924035Y-82285826D01*
X71910591Y-82260674D01*
X71902312Y-82233382D01*
X71899517Y-82205000D01*
X71899275Y-82202546D01*
X71899275Y-81397454D01*
X71902312Y-81366619D01*
X71910591Y-81339326D01*
X71924036Y-81314173D01*
X71942128Y-81292128D01*
X71964173Y-81274036D01*
X71964172Y-81274036D01*
X71964174Y-81274035D01*
X71989326Y-81260591D01*
X72016618Y-81252312D01*
X72023621Y-81251622D01*
X72047454Y-81249275D01*
X73502546Y-81249275D01*
X73526379Y-81251622D01*
X73526379Y-81251622D01*
G37*
G36*
X77976379Y-81251622D02*
X77983382Y-81252312D01*
X78010674Y-81260591D01*
X78035826Y-81274035D01*
X78035828Y-81274036D01*
X78035827Y-81274036D01*
X78057872Y-81292128D01*
X78075964Y-81314173D01*
X78089409Y-81339326D01*
X78097688Y-81366619D01*
X78100725Y-81397454D01*
X78100725Y-82202546D01*
X78100483Y-82205000D01*
X78097688Y-82233382D01*
X78089409Y-82260674D01*
X78075965Y-82285826D01*
X78057872Y-82307872D01*
X78035826Y-82325965D01*
X78010674Y-82339409D01*
X77983382Y-82347688D01*
X77976173Y-82348398D01*
X77957460Y-82350241D01*
X77947846Y-82352153D01*
X77938791Y-82355904D01*
X77930641Y-82361350D01*
X77923710Y-82368281D01*
X77918265Y-82376430D01*
X77914514Y-82385486D01*
X77912602Y-82395099D01*
X77912602Y-82404901D01*
X77914514Y-82414515D01*
X77918265Y-82423570D01*
X77923711Y-82431720D01*
X77930642Y-82438651D01*
X77938791Y-82444096D01*
X77947847Y-82447847D01*
X77957460Y-82449759D01*
X77976173Y-82451602D01*
X77983382Y-82452312D01*
X78010674Y-82460591D01*
X78035826Y-82474035D01*
X78035828Y-82474036D01*
X78035827Y-82474036D01*
X78057872Y-82492128D01*
X78075964Y-82514173D01*
X78089409Y-82539326D01*
X78097688Y-82566619D01*
X78100725Y-82597454D01*
X78100725Y-83402546D01*
X78100483Y-83405000D01*
X78097688Y-83433382D01*
X78089409Y-83460674D01*
X78075965Y-83485826D01*
X78057872Y-83507872D01*
X78035826Y-83525965D01*
X78010674Y-83539409D01*
X77983382Y-83547688D01*
X77976173Y-83548398D01*
X77957460Y-83550241D01*
X77947846Y-83552153D01*
X77938791Y-83555904D01*
X77930641Y-83561350D01*
X77923710Y-83568281D01*
X77918265Y-83576430D01*
X77914514Y-83585486D01*
X77912602Y-83595099D01*
X77912602Y-83604901D01*
X77914514Y-83614515D01*
X77918265Y-83623570D01*
X77923711Y-83631720D01*
X77930642Y-83638651D01*
X77938791Y-83644096D01*
X77947847Y-83647847D01*
X77957460Y-83649759D01*
X77976173Y-83651602D01*
X77983382Y-83652312D01*
X78010674Y-83660591D01*
X78035826Y-83674035D01*
X78035828Y-83674036D01*
X78035827Y-83674036D01*
X78057872Y-83692128D01*
X78075964Y-83714173D01*
X78089409Y-83739326D01*
X78097688Y-83766619D01*
X78100725Y-83797454D01*
X78100725Y-84602546D01*
X78100483Y-84605000D01*
X78097688Y-84633382D01*
X78089409Y-84660674D01*
X78075965Y-84685826D01*
X78057872Y-84707872D01*
X78035826Y-84725965D01*
X78010674Y-84739409D01*
X77983382Y-84747688D01*
X77976379Y-84748378D01*
X77952546Y-84750725D01*
X76497454Y-84750725D01*
X76473621Y-84748378D01*
X76466618Y-84747688D01*
X76439326Y-84739409D01*
X76414174Y-84725965D01*
X76392128Y-84707872D01*
X76374035Y-84685826D01*
X76360591Y-84660674D01*
X76352312Y-84633382D01*
X76349517Y-84605000D01*
X76349275Y-84602546D01*
X76349275Y-83797454D01*
X76352312Y-83766619D01*
X76360591Y-83739326D01*
X76374036Y-83714173D01*
X76392128Y-83692128D01*
X76414173Y-83674036D01*
X76414172Y-83674036D01*
X76414174Y-83674035D01*
X76439326Y-83660591D01*
X76466618Y-83652312D01*
X76473827Y-83651602D01*
X76492540Y-83649759D01*
X76502154Y-83647847D01*
X76511209Y-83644096D01*
X76519359Y-83638650D01*
X76526290Y-83631719D01*
X76531735Y-83623570D01*
X76535486Y-83614514D01*
X76537398Y-83604901D01*
X76537398Y-83595099D01*
X76535486Y-83585485D01*
X76531735Y-83576430D01*
X76526289Y-83568280D01*
X76519358Y-83561349D01*
X76511209Y-83555904D01*
X76502153Y-83552153D01*
X76492540Y-83550241D01*
X76473827Y-83548398D01*
X76466618Y-83547688D01*
X76439326Y-83539409D01*
X76414174Y-83525965D01*
X76392128Y-83507872D01*
X76374035Y-83485826D01*
X76360591Y-83460674D01*
X76352312Y-83433382D01*
X76349517Y-83405000D01*
X76349275Y-83402546D01*
X76349275Y-82597454D01*
X76352312Y-82566619D01*
X76360591Y-82539326D01*
X76374036Y-82514173D01*
X76392128Y-82492128D01*
X76414173Y-82474036D01*
X76414172Y-82474036D01*
X76414174Y-82474035D01*
X76439326Y-82460591D01*
X76466618Y-82452312D01*
X76473827Y-82451602D01*
X76492540Y-82449759D01*
X76502154Y-82447847D01*
X76511209Y-82444096D01*
X76519359Y-82438650D01*
X76526290Y-82431719D01*
X76531735Y-82423570D01*
X76535486Y-82414514D01*
X76537398Y-82404901D01*
X76537398Y-82395099D01*
X76535486Y-82385485D01*
X76531735Y-82376430D01*
X76526289Y-82368280D01*
X76519358Y-82361349D01*
X76511209Y-82355904D01*
X76502153Y-82352153D01*
X76492540Y-82350241D01*
X76473827Y-82348398D01*
X76466618Y-82347688D01*
X76439326Y-82339409D01*
X76414174Y-82325965D01*
X76392128Y-82307872D01*
X76374035Y-82285826D01*
X76360591Y-82260674D01*
X76352312Y-82233382D01*
X76349517Y-82205000D01*
X76349275Y-82202546D01*
X76349275Y-81397454D01*
X76352312Y-81366619D01*
X76360591Y-81339326D01*
X76374036Y-81314173D01*
X76392128Y-81292128D01*
X76414173Y-81274036D01*
X76414172Y-81274036D01*
X76414174Y-81274035D01*
X76439326Y-81260591D01*
X76466618Y-81252312D01*
X76473621Y-81251622D01*
X76497454Y-81249275D01*
X77952546Y-81249275D01*
X77976379Y-81251622D01*
X77976379Y-81251622D01*
G37*
G36*
X83526379Y-81251622D02*
X83533382Y-81252312D01*
X83560674Y-81260591D01*
X83585826Y-81274035D01*
X83585828Y-81274036D01*
X83585827Y-81274036D01*
X83607872Y-81292128D01*
X83625964Y-81314173D01*
X83639409Y-81339326D01*
X83647688Y-81366619D01*
X83650725Y-81397454D01*
X83650725Y-82202546D01*
X83650483Y-82205000D01*
X83647688Y-82233382D01*
X83639409Y-82260674D01*
X83625965Y-82285826D01*
X83607872Y-82307872D01*
X83585826Y-82325965D01*
X83560674Y-82339409D01*
X83533382Y-82347688D01*
X83526173Y-82348398D01*
X83507460Y-82350241D01*
X83497846Y-82352153D01*
X83488791Y-82355904D01*
X83480641Y-82361350D01*
X83473710Y-82368281D01*
X83468265Y-82376430D01*
X83464514Y-82385486D01*
X83462602Y-82395099D01*
X83462602Y-82404901D01*
X83464514Y-82414515D01*
X83468265Y-82423570D01*
X83473711Y-82431720D01*
X83480642Y-82438651D01*
X83488791Y-82444096D01*
X83497847Y-82447847D01*
X83507460Y-82449759D01*
X83526173Y-82451602D01*
X83533382Y-82452312D01*
X83560674Y-82460591D01*
X83585826Y-82474035D01*
X83585828Y-82474036D01*
X83585827Y-82474036D01*
X83607872Y-82492128D01*
X83625964Y-82514173D01*
X83639409Y-82539326D01*
X83647688Y-82566619D01*
X83650725Y-82597454D01*
X83650725Y-83402546D01*
X83650483Y-83405000D01*
X83647688Y-83433382D01*
X83639409Y-83460674D01*
X83625965Y-83485826D01*
X83607872Y-83507872D01*
X83585826Y-83525965D01*
X83560674Y-83539409D01*
X83533382Y-83547688D01*
X83526173Y-83548398D01*
X83507460Y-83550241D01*
X83497846Y-83552153D01*
X83488791Y-83555904D01*
X83480641Y-83561350D01*
X83473710Y-83568281D01*
X83468265Y-83576430D01*
X83464514Y-83585486D01*
X83462602Y-83595099D01*
X83462602Y-83604901D01*
X83464514Y-83614515D01*
X83468265Y-83623570D01*
X83473711Y-83631720D01*
X83480642Y-83638651D01*
X83488791Y-83644096D01*
X83497847Y-83647847D01*
X83507460Y-83649759D01*
X83526173Y-83651602D01*
X83533382Y-83652312D01*
X83560674Y-83660591D01*
X83585826Y-83674035D01*
X83585828Y-83674036D01*
X83585827Y-83674036D01*
X83607872Y-83692128D01*
X83625964Y-83714173D01*
X83639409Y-83739326D01*
X83647688Y-83766619D01*
X83650725Y-83797454D01*
X83650725Y-84602546D01*
X83650483Y-84605000D01*
X83647688Y-84633382D01*
X83639409Y-84660674D01*
X83625965Y-84685826D01*
X83607872Y-84707872D01*
X83585826Y-84725965D01*
X83560674Y-84739409D01*
X83533382Y-84747688D01*
X83526379Y-84748378D01*
X83502546Y-84750725D01*
X82047454Y-84750725D01*
X82023621Y-84748378D01*
X82016618Y-84747688D01*
X81989326Y-84739409D01*
X81964174Y-84725965D01*
X81942128Y-84707872D01*
X81924035Y-84685826D01*
X81910591Y-84660674D01*
X81902312Y-84633382D01*
X81899517Y-84605000D01*
X81899275Y-84602546D01*
X81899275Y-83797454D01*
X81902312Y-83766619D01*
X81910591Y-83739326D01*
X81924036Y-83714173D01*
X81942128Y-83692128D01*
X81964173Y-83674036D01*
X81964172Y-83674036D01*
X81964174Y-83674035D01*
X81989326Y-83660591D01*
X82016618Y-83652312D01*
X82023827Y-83651602D01*
X82042540Y-83649759D01*
X82052154Y-83647847D01*
X82061209Y-83644096D01*
X82069359Y-83638650D01*
X82076290Y-83631719D01*
X82081735Y-83623570D01*
X82085486Y-83614514D01*
X82087398Y-83604901D01*
X82087398Y-83595099D01*
X82085486Y-83585485D01*
X82081735Y-83576430D01*
X82076289Y-83568280D01*
X82069358Y-83561349D01*
X82061209Y-83555904D01*
X82052153Y-83552153D01*
X82042540Y-83550241D01*
X82023827Y-83548398D01*
X82016618Y-83547688D01*
X81989326Y-83539409D01*
X81964174Y-83525965D01*
X81942128Y-83507872D01*
X81924035Y-83485826D01*
X81910591Y-83460674D01*
X81902312Y-83433382D01*
X81899517Y-83405000D01*
X81899275Y-83402546D01*
X81899275Y-82597454D01*
X81902312Y-82566619D01*
X81910591Y-82539326D01*
X81924036Y-82514173D01*
X81942128Y-82492128D01*
X81964173Y-82474036D01*
X81964172Y-82474036D01*
X81964174Y-82474035D01*
X81989326Y-82460591D01*
X82016618Y-82452312D01*
X82023827Y-82451602D01*
X82042540Y-82449759D01*
X82052154Y-82447847D01*
X82061209Y-82444096D01*
X82069359Y-82438650D01*
X82076290Y-82431719D01*
X82081735Y-82423570D01*
X82085486Y-82414514D01*
X82087398Y-82404901D01*
X82087398Y-82395099D01*
X82085486Y-82385485D01*
X82081735Y-82376430D01*
X82076289Y-82368280D01*
X82069358Y-82361349D01*
X82061209Y-82355904D01*
X82052153Y-82352153D01*
X82042540Y-82350241D01*
X82023827Y-82348398D01*
X82016618Y-82347688D01*
X81989326Y-82339409D01*
X81964174Y-82325965D01*
X81942128Y-82307872D01*
X81924035Y-82285826D01*
X81910591Y-82260674D01*
X81902312Y-82233382D01*
X81899517Y-82205000D01*
X81899275Y-82202546D01*
X81899275Y-81397454D01*
X81902312Y-81366619D01*
X81910591Y-81339326D01*
X81924036Y-81314173D01*
X81942128Y-81292128D01*
X81964173Y-81274036D01*
X81964172Y-81274036D01*
X81964174Y-81274035D01*
X81989326Y-81260591D01*
X82016618Y-81252312D01*
X82023621Y-81251622D01*
X82047454Y-81249275D01*
X83502546Y-81249275D01*
X83526379Y-81251622D01*
X83526379Y-81251622D01*
G37*
G36*
X87976379Y-81251622D02*
X87983382Y-81252312D01*
X88010674Y-81260591D01*
X88035826Y-81274035D01*
X88035828Y-81274036D01*
X88035827Y-81274036D01*
X88057872Y-81292128D01*
X88075964Y-81314173D01*
X88089409Y-81339326D01*
X88097688Y-81366619D01*
X88100725Y-81397454D01*
X88100725Y-82202546D01*
X88100483Y-82205000D01*
X88097688Y-82233382D01*
X88089409Y-82260674D01*
X88075965Y-82285826D01*
X88057872Y-82307872D01*
X88035826Y-82325965D01*
X88010674Y-82339409D01*
X87983382Y-82347688D01*
X87976173Y-82348398D01*
X87957460Y-82350241D01*
X87947846Y-82352153D01*
X87938791Y-82355904D01*
X87930641Y-82361350D01*
X87923710Y-82368281D01*
X87918265Y-82376430D01*
X87914514Y-82385486D01*
X87912602Y-82395099D01*
X87912602Y-82404901D01*
X87914514Y-82414515D01*
X87918265Y-82423570D01*
X87923711Y-82431720D01*
X87930642Y-82438651D01*
X87938791Y-82444096D01*
X87947847Y-82447847D01*
X87957460Y-82449759D01*
X87976173Y-82451602D01*
X87983382Y-82452312D01*
X88010674Y-82460591D01*
X88035826Y-82474035D01*
X88035828Y-82474036D01*
X88035827Y-82474036D01*
X88057872Y-82492128D01*
X88075964Y-82514173D01*
X88089409Y-82539326D01*
X88097688Y-82566619D01*
X88100725Y-82597454D01*
X88100725Y-83402546D01*
X88100483Y-83405000D01*
X88097688Y-83433382D01*
X88089409Y-83460674D01*
X88075965Y-83485826D01*
X88057872Y-83507872D01*
X88035826Y-83525965D01*
X88010674Y-83539409D01*
X87983382Y-83547688D01*
X87976173Y-83548398D01*
X87957460Y-83550241D01*
X87947846Y-83552153D01*
X87938791Y-83555904D01*
X87930641Y-83561350D01*
X87923710Y-83568281D01*
X87918265Y-83576430D01*
X87914514Y-83585486D01*
X87912602Y-83595099D01*
X87912602Y-83604901D01*
X87914514Y-83614515D01*
X87918265Y-83623570D01*
X87923711Y-83631720D01*
X87930642Y-83638651D01*
X87938791Y-83644096D01*
X87947847Y-83647847D01*
X87957460Y-83649759D01*
X87976173Y-83651602D01*
X87983382Y-83652312D01*
X88010674Y-83660591D01*
X88035826Y-83674035D01*
X88035828Y-83674036D01*
X88035827Y-83674036D01*
X88057872Y-83692128D01*
X88075964Y-83714173D01*
X88089409Y-83739326D01*
X88097688Y-83766619D01*
X88100725Y-83797454D01*
X88100725Y-84602546D01*
X88100483Y-84605000D01*
X88097688Y-84633382D01*
X88089409Y-84660674D01*
X88075965Y-84685826D01*
X88057872Y-84707872D01*
X88035826Y-84725965D01*
X88010674Y-84739409D01*
X87983382Y-84747688D01*
X87976379Y-84748378D01*
X87952546Y-84750725D01*
X86497454Y-84750725D01*
X86473621Y-84748378D01*
X86466618Y-84747688D01*
X86439326Y-84739409D01*
X86414174Y-84725965D01*
X86392128Y-84707872D01*
X86374035Y-84685826D01*
X86360591Y-84660674D01*
X86352312Y-84633382D01*
X86349517Y-84605000D01*
X86349275Y-84602546D01*
X86349275Y-83797454D01*
X86352312Y-83766619D01*
X86360591Y-83739326D01*
X86374036Y-83714173D01*
X86392128Y-83692128D01*
X86414173Y-83674036D01*
X86414172Y-83674036D01*
X86414174Y-83674035D01*
X86439326Y-83660591D01*
X86466618Y-83652312D01*
X86473827Y-83651602D01*
X86492540Y-83649759D01*
X86502154Y-83647847D01*
X86511209Y-83644096D01*
X86519359Y-83638650D01*
X86526290Y-83631719D01*
X86531735Y-83623570D01*
X86535486Y-83614514D01*
X86537398Y-83604901D01*
X86537398Y-83595099D01*
X86535486Y-83585485D01*
X86531735Y-83576430D01*
X86526289Y-83568280D01*
X86519358Y-83561349D01*
X86511209Y-83555904D01*
X86502153Y-83552153D01*
X86492540Y-83550241D01*
X86473827Y-83548398D01*
X86466618Y-83547688D01*
X86439326Y-83539409D01*
X86414174Y-83525965D01*
X86392128Y-83507872D01*
X86374035Y-83485826D01*
X86360591Y-83460674D01*
X86352312Y-83433382D01*
X86349517Y-83405000D01*
X86349275Y-83402546D01*
X86349275Y-82597454D01*
X86352312Y-82566619D01*
X86360591Y-82539326D01*
X86374036Y-82514173D01*
X86392128Y-82492128D01*
X86414173Y-82474036D01*
X86414172Y-82474036D01*
X86414174Y-82474035D01*
X86439326Y-82460591D01*
X86466618Y-82452312D01*
X86473827Y-82451602D01*
X86492540Y-82449759D01*
X86502154Y-82447847D01*
X86511209Y-82444096D01*
X86519359Y-82438650D01*
X86526290Y-82431719D01*
X86531735Y-82423570D01*
X86535486Y-82414514D01*
X86537398Y-82404901D01*
X86537398Y-82395099D01*
X86535486Y-82385485D01*
X86531735Y-82376430D01*
X86526289Y-82368280D01*
X86519358Y-82361349D01*
X86511209Y-82355904D01*
X86502153Y-82352153D01*
X86492540Y-82350241D01*
X86473827Y-82348398D01*
X86466618Y-82347688D01*
X86439326Y-82339409D01*
X86414174Y-82325965D01*
X86392128Y-82307872D01*
X86374035Y-82285826D01*
X86360591Y-82260674D01*
X86352312Y-82233382D01*
X86349517Y-82205000D01*
X86349275Y-82202546D01*
X86349275Y-81397454D01*
X86352312Y-81366619D01*
X86360591Y-81339326D01*
X86374036Y-81314173D01*
X86392128Y-81292128D01*
X86414173Y-81274036D01*
X86414172Y-81274036D01*
X86414174Y-81274035D01*
X86439326Y-81260591D01*
X86466618Y-81252312D01*
X86473621Y-81251622D01*
X86497454Y-81249275D01*
X87952546Y-81249275D01*
X87976379Y-81251622D01*
X87976379Y-81251622D01*
G37*
G36*
X81490000Y-76460000D02*
X81490961Y-76469755D01*
X81493806Y-76479134D01*
X81498427Y-76487779D01*
X81504645Y-76495355D01*
X81512221Y-76501573D01*
X81520866Y-76506194D01*
X81530245Y-76509039D01*
X81540000Y-76510000D01*
X82500000Y-76510000D01*
X82500000Y-79490000D01*
X81540000Y-79490000D01*
X81530245Y-79490961D01*
X81520866Y-79493806D01*
X81512221Y-79498427D01*
X81504645Y-79504645D01*
X81498427Y-79512221D01*
X81493806Y-79520866D01*
X81490961Y-79530245D01*
X81490000Y-79540000D01*
X81490000Y-80500000D01*
X78510000Y-80500000D01*
X78510000Y-79538361D01*
X78509039Y-79528606D01*
X78506194Y-79519227D01*
X78501573Y-79510582D01*
X78495355Y-79503006D01*
X78487779Y-79496788D01*
X78479134Y-79492167D01*
X78469755Y-79489322D01*
X78460000Y-79488361D01*
X78455099Y-79488602D01*
X78433546Y-79490725D01*
X77616454Y-79490725D01*
X77591666Y-79488284D01*
X77570189Y-79481769D01*
X77550396Y-79471189D01*
X77533048Y-79456952D01*
X77518811Y-79439604D01*
X77508231Y-79419811D01*
X77501716Y-79398334D01*
X77499275Y-79373546D01*
X77499275Y-79126454D01*
X77501716Y-79101666D01*
X77508231Y-79080189D01*
X77518811Y-79060396D01*
X77526802Y-79050659D01*
X77533048Y-79043048D01*
X77538411Y-79038647D01*
X77545339Y-79031718D01*
X77550784Y-79023568D01*
X77554534Y-79014513D01*
X77556446Y-79004899D01*
X77556446Y-78995098D01*
X77554534Y-78985484D01*
X77550782Y-78976429D01*
X77545337Y-78968279D01*
X77538411Y-78961353D01*
X77533048Y-78956952D01*
X77526802Y-78949341D01*
X77518811Y-78939604D01*
X77508231Y-78919811D01*
X77501716Y-78898334D01*
X77499275Y-78873546D01*
X77499275Y-78626454D01*
X77501716Y-78601666D01*
X77508231Y-78580189D01*
X77518811Y-78560396D01*
X77526802Y-78550659D01*
X77533048Y-78543048D01*
X77538411Y-78538647D01*
X77545339Y-78531718D01*
X77550784Y-78523568D01*
X77554534Y-78514513D01*
X77556446Y-78504899D01*
X77556446Y-78495098D01*
X77554534Y-78485484D01*
X77550782Y-78476429D01*
X77545337Y-78468279D01*
X77538411Y-78461353D01*
X77533048Y-78456952D01*
X77526802Y-78449341D01*
X77518811Y-78439604D01*
X77508231Y-78419811D01*
X77501716Y-78398334D01*
X77499275Y-78373546D01*
X77499275Y-78126454D01*
X77501716Y-78101666D01*
X77508231Y-78080189D01*
X77518811Y-78060396D01*
X77526802Y-78050659D01*
X77533048Y-78043048D01*
X77538411Y-78038647D01*
X77545339Y-78031718D01*
X77550784Y-78023568D01*
X77554534Y-78014513D01*
X77556446Y-78004899D01*
X77556446Y-77995098D01*
X77554534Y-77985484D01*
X77550782Y-77976429D01*
X77545337Y-77968279D01*
X77538411Y-77961353D01*
X77533048Y-77956952D01*
X77526802Y-77949341D01*
X77518811Y-77939604D01*
X77508231Y-77919811D01*
X77501716Y-77898334D01*
X77499275Y-77873546D01*
X77499275Y-77626454D01*
X77501716Y-77601666D01*
X77508231Y-77580189D01*
X77518811Y-77560396D01*
X77527343Y-77550000D01*
X77533048Y-77543048D01*
X77538411Y-77538647D01*
X77545339Y-77531718D01*
X77550784Y-77523568D01*
X77554534Y-77514513D01*
X77556446Y-77504899D01*
X77556446Y-77495098D01*
X77554534Y-77485484D01*
X77550782Y-77476429D01*
X77545337Y-77468279D01*
X77538411Y-77461353D01*
X77533048Y-77456952D01*
X77526802Y-77449341D01*
X77518811Y-77439604D01*
X77508231Y-77419811D01*
X77501716Y-77398334D01*
X77499275Y-77373546D01*
X77499275Y-77126454D01*
X77501716Y-77101666D01*
X77508231Y-77080189D01*
X77518811Y-77060396D01*
X77526802Y-77050659D01*
X77533048Y-77043048D01*
X77538411Y-77038647D01*
X77545339Y-77031718D01*
X77550784Y-77023568D01*
X77554534Y-77014513D01*
X77556446Y-77004899D01*
X77556446Y-76995098D01*
X77554534Y-76985484D01*
X77550782Y-76976429D01*
X77545337Y-76968279D01*
X77538411Y-76961353D01*
X77533048Y-76956952D01*
X77526802Y-76949341D01*
X77518811Y-76939604D01*
X77508231Y-76919811D01*
X77501716Y-76898334D01*
X77499275Y-76873546D01*
X77499275Y-76626454D01*
X77501716Y-76601666D01*
X77508231Y-76580189D01*
X77518811Y-76560396D01*
X77533048Y-76543048D01*
X77550396Y-76528811D01*
X77570189Y-76518231D01*
X77591666Y-76511716D01*
X77616454Y-76509275D01*
X78433546Y-76509275D01*
X78455099Y-76511398D01*
X78464900Y-76511398D01*
X78474514Y-76509486D01*
X78483569Y-76505735D01*
X78491719Y-76500290D01*
X78498650Y-76493359D01*
X78504096Y-76485209D01*
X78507847Y-76476154D01*
X78509759Y-76466540D01*
X78510000Y-76461639D01*
X78510000Y-75500000D01*
X81490000Y-75500000D01*
X81490000Y-76460000D01*
X81490000Y-76460000D01*
G37*
G36*
X61490000Y-76460000D02*
X61490961Y-76469755D01*
X61493806Y-76479134D01*
X61498427Y-76487779D01*
X61504645Y-76495355D01*
X61512221Y-76501573D01*
X61520866Y-76506194D01*
X61530245Y-76509039D01*
X61540000Y-76510000D01*
X62500000Y-76510000D01*
X62500000Y-79490000D01*
X61540000Y-79490000D01*
X61530245Y-79490961D01*
X61520866Y-79493806D01*
X61512221Y-79498427D01*
X61504645Y-79504645D01*
X61498427Y-79512221D01*
X61493806Y-79520866D01*
X61490961Y-79530245D01*
X61490000Y-79540000D01*
X61490000Y-80500000D01*
X58510000Y-80500000D01*
X58510000Y-79538361D01*
X58509039Y-79528606D01*
X58506194Y-79519227D01*
X58501573Y-79510582D01*
X58495355Y-79503006D01*
X58487779Y-79496788D01*
X58479134Y-79492167D01*
X58469755Y-79489322D01*
X58460000Y-79488361D01*
X58455099Y-79488602D01*
X58433546Y-79490725D01*
X57616454Y-79490725D01*
X57591666Y-79488284D01*
X57570189Y-79481769D01*
X57550396Y-79471189D01*
X57533048Y-79456952D01*
X57518811Y-79439604D01*
X57508231Y-79419811D01*
X57501716Y-79398334D01*
X57499275Y-79373546D01*
X57499275Y-79126454D01*
X57501716Y-79101666D01*
X57508231Y-79080189D01*
X57518811Y-79060396D01*
X57526802Y-79050659D01*
X57533048Y-79043048D01*
X57538411Y-79038647D01*
X57545339Y-79031718D01*
X57550784Y-79023568D01*
X57554534Y-79014513D01*
X57556446Y-79004899D01*
X57556446Y-78995098D01*
X57554534Y-78985484D01*
X57550782Y-78976429D01*
X57545337Y-78968279D01*
X57538411Y-78961353D01*
X57533048Y-78956952D01*
X57526802Y-78949341D01*
X57518811Y-78939604D01*
X57508231Y-78919811D01*
X57501716Y-78898334D01*
X57499275Y-78873546D01*
X57499275Y-78626454D01*
X57501716Y-78601666D01*
X57508231Y-78580189D01*
X57518811Y-78560396D01*
X57526802Y-78550659D01*
X57533048Y-78543048D01*
X57538411Y-78538647D01*
X57545339Y-78531718D01*
X57550784Y-78523568D01*
X57554534Y-78514513D01*
X57556446Y-78504899D01*
X57556446Y-78495098D01*
X57554534Y-78485484D01*
X57550782Y-78476429D01*
X57545337Y-78468279D01*
X57538411Y-78461353D01*
X57533048Y-78456952D01*
X57526802Y-78449341D01*
X57518811Y-78439604D01*
X57508231Y-78419811D01*
X57501716Y-78398334D01*
X57499275Y-78373546D01*
X57499275Y-78126454D01*
X57501716Y-78101666D01*
X57508231Y-78080189D01*
X57518811Y-78060396D01*
X57526802Y-78050659D01*
X57533048Y-78043048D01*
X57538411Y-78038647D01*
X57545339Y-78031718D01*
X57550784Y-78023568D01*
X57554534Y-78014513D01*
X57556446Y-78004899D01*
X57556446Y-77995098D01*
X57554534Y-77985484D01*
X57550782Y-77976429D01*
X57545337Y-77968279D01*
X57538411Y-77961353D01*
X57533048Y-77956952D01*
X57526802Y-77949341D01*
X57518811Y-77939604D01*
X57508231Y-77919811D01*
X57501716Y-77898334D01*
X57499275Y-77873546D01*
X57499275Y-77626454D01*
X57501716Y-77601666D01*
X57508231Y-77580189D01*
X57518811Y-77560396D01*
X57527343Y-77550000D01*
X57533048Y-77543048D01*
X57538411Y-77538647D01*
X57545339Y-77531718D01*
X57550784Y-77523568D01*
X57554534Y-77514513D01*
X57556446Y-77504899D01*
X57556446Y-77495098D01*
X57554534Y-77485484D01*
X57550782Y-77476429D01*
X57545337Y-77468279D01*
X57538411Y-77461353D01*
X57533048Y-77456952D01*
X57526802Y-77449341D01*
X57518811Y-77439604D01*
X57508231Y-77419811D01*
X57501716Y-77398334D01*
X57499275Y-77373546D01*
X57499275Y-77126454D01*
X57501716Y-77101666D01*
X57508231Y-77080189D01*
X57518811Y-77060396D01*
X57526802Y-77050659D01*
X57533048Y-77043048D01*
X57538411Y-77038647D01*
X57545339Y-77031718D01*
X57550784Y-77023568D01*
X57554534Y-77014513D01*
X57556446Y-77004899D01*
X57556446Y-76995098D01*
X57554534Y-76985484D01*
X57550782Y-76976429D01*
X57545337Y-76968279D01*
X57538411Y-76961353D01*
X57533048Y-76956952D01*
X57526802Y-76949341D01*
X57518811Y-76939604D01*
X57508231Y-76919811D01*
X57501716Y-76898334D01*
X57499275Y-76873546D01*
X57499275Y-76626454D01*
X57501716Y-76601666D01*
X57508231Y-76580189D01*
X57518811Y-76560396D01*
X57533048Y-76543048D01*
X57550396Y-76528811D01*
X57570189Y-76518231D01*
X57591666Y-76511716D01*
X57616454Y-76509275D01*
X58433546Y-76509275D01*
X58455099Y-76511398D01*
X58464900Y-76511398D01*
X58474514Y-76509486D01*
X58483569Y-76505735D01*
X58491719Y-76500290D01*
X58498650Y-76493359D01*
X58504096Y-76485209D01*
X58507847Y-76476154D01*
X58509759Y-76466540D01*
X58510000Y-76461639D01*
X58510000Y-75500000D01*
X61490000Y-75500000D01*
X61490000Y-76460000D01*
X61490000Y-76460000D01*
G37*
G36*
X86250000Y-79475000D02*
X85250000Y-79475000D01*
X85250000Y-78525000D01*
X86250000Y-78525000D01*
X86250000Y-79475000D01*
X86250000Y-79475000D01*
G37*
G36*
X64750000Y-79475000D02*
X63750000Y-79475000D01*
X63750000Y-78525000D01*
X64750000Y-78525000D01*
X64750000Y-79475000D01*
X64750000Y-79475000D01*
G37*
G36*
X66250000Y-79475000D02*
X65250000Y-79475000D01*
X65250000Y-78525000D01*
X66250000Y-78525000D01*
X66250000Y-79475000D01*
X66250000Y-79475000D01*
G37*
G36*
X84750000Y-79475000D02*
X83750000Y-79475000D01*
X83750000Y-78525000D01*
X84750000Y-78525000D01*
X84750000Y-79475000D01*
X84750000Y-79475000D01*
G37*
G36*
X86100000Y-77550000D02*
X85400000Y-77550000D01*
X85400000Y-76450000D01*
X86100000Y-76450000D01*
X86100000Y-77550000D01*
X86100000Y-77550000D01*
G37*
G36*
X84600000Y-77550000D02*
X83900000Y-77550000D01*
X83900000Y-76450000D01*
X84600000Y-76450000D01*
X84600000Y-77550000D01*
X84600000Y-77550000D01*
G37*
G36*
X66100000Y-77550000D02*
X65400000Y-77550000D01*
X65400000Y-76450000D01*
X66100000Y-76450000D01*
X66100000Y-77550000D01*
X66100000Y-77550000D01*
G37*
G36*
X64600000Y-77550000D02*
X63900000Y-77550000D01*
X63900000Y-76450000D01*
X64600000Y-76450000D01*
X64600000Y-77550000D01*
X64600000Y-77550000D01*
G37*
G36*
X87976379Y-71251622D02*
X87983382Y-71252312D01*
X88010674Y-71260591D01*
X88035826Y-71274035D01*
X88035828Y-71274036D01*
X88035827Y-71274036D01*
X88057872Y-71292128D01*
X88075964Y-71314173D01*
X88089409Y-71339326D01*
X88097688Y-71366619D01*
X88100725Y-71397454D01*
X88100725Y-72202546D01*
X88100483Y-72205000D01*
X88097688Y-72233382D01*
X88089409Y-72260674D01*
X88075965Y-72285826D01*
X88057872Y-72307872D01*
X88035826Y-72325965D01*
X88010674Y-72339409D01*
X87983382Y-72347688D01*
X87976173Y-72348398D01*
X87957460Y-72350241D01*
X87947846Y-72352153D01*
X87938791Y-72355904D01*
X87930641Y-72361350D01*
X87923710Y-72368281D01*
X87918265Y-72376430D01*
X87914514Y-72385486D01*
X87912602Y-72395099D01*
X87912602Y-72404901D01*
X87914514Y-72414515D01*
X87918265Y-72423570D01*
X87923711Y-72431720D01*
X87930642Y-72438651D01*
X87938791Y-72444096D01*
X87947847Y-72447847D01*
X87957460Y-72449759D01*
X87976173Y-72451602D01*
X87983382Y-72452312D01*
X88010674Y-72460591D01*
X88035826Y-72474035D01*
X88035828Y-72474036D01*
X88035827Y-72474036D01*
X88057872Y-72492128D01*
X88075964Y-72514173D01*
X88089409Y-72539326D01*
X88097688Y-72566619D01*
X88100725Y-72597454D01*
X88100725Y-73402546D01*
X88100483Y-73405000D01*
X88097688Y-73433382D01*
X88089409Y-73460674D01*
X88075965Y-73485826D01*
X88057872Y-73507872D01*
X88035826Y-73525965D01*
X88010674Y-73539409D01*
X87983382Y-73547688D01*
X87976173Y-73548398D01*
X87957460Y-73550241D01*
X87947846Y-73552153D01*
X87938791Y-73555904D01*
X87930641Y-73561350D01*
X87923710Y-73568281D01*
X87918265Y-73576430D01*
X87914514Y-73585486D01*
X87912602Y-73595099D01*
X87912602Y-73604901D01*
X87914514Y-73614515D01*
X87918265Y-73623570D01*
X87923711Y-73631720D01*
X87930642Y-73638651D01*
X87938791Y-73644096D01*
X87947847Y-73647847D01*
X87957460Y-73649759D01*
X87976173Y-73651602D01*
X87983382Y-73652312D01*
X88010674Y-73660591D01*
X88035826Y-73674035D01*
X88035828Y-73674036D01*
X88035827Y-73674036D01*
X88057872Y-73692128D01*
X88075964Y-73714173D01*
X88089409Y-73739326D01*
X88097688Y-73766619D01*
X88100725Y-73797454D01*
X88100725Y-74602546D01*
X88100483Y-74605000D01*
X88097688Y-74633382D01*
X88089409Y-74660674D01*
X88075965Y-74685826D01*
X88057872Y-74707872D01*
X88035826Y-74725965D01*
X88010674Y-74739409D01*
X87983382Y-74747688D01*
X87976379Y-74748378D01*
X87952546Y-74750725D01*
X86497454Y-74750725D01*
X86473621Y-74748378D01*
X86466618Y-74747688D01*
X86439326Y-74739409D01*
X86414174Y-74725965D01*
X86392128Y-74707872D01*
X86374035Y-74685826D01*
X86360591Y-74660674D01*
X86352312Y-74633382D01*
X86349517Y-74605000D01*
X86349275Y-74602546D01*
X86349275Y-73797454D01*
X86352312Y-73766619D01*
X86360591Y-73739326D01*
X86374036Y-73714173D01*
X86392128Y-73692128D01*
X86414173Y-73674036D01*
X86414172Y-73674036D01*
X86414174Y-73674035D01*
X86439326Y-73660591D01*
X86466618Y-73652312D01*
X86473827Y-73651602D01*
X86492540Y-73649759D01*
X86502154Y-73647847D01*
X86511209Y-73644096D01*
X86519359Y-73638650D01*
X86526290Y-73631719D01*
X86531735Y-73623570D01*
X86535486Y-73614514D01*
X86537398Y-73604901D01*
X86537398Y-73595099D01*
X86535486Y-73585485D01*
X86531735Y-73576430D01*
X86526289Y-73568280D01*
X86519358Y-73561349D01*
X86511209Y-73555904D01*
X86502153Y-73552153D01*
X86492540Y-73550241D01*
X86473827Y-73548398D01*
X86466618Y-73547688D01*
X86439326Y-73539409D01*
X86414174Y-73525965D01*
X86392128Y-73507872D01*
X86374035Y-73485826D01*
X86360591Y-73460674D01*
X86352312Y-73433382D01*
X86349517Y-73405000D01*
X86349275Y-73402546D01*
X86349275Y-72597454D01*
X86352312Y-72566619D01*
X86360591Y-72539326D01*
X86374036Y-72514173D01*
X86392128Y-72492128D01*
X86414173Y-72474036D01*
X86414172Y-72474036D01*
X86414174Y-72474035D01*
X86439326Y-72460591D01*
X86466618Y-72452312D01*
X86473827Y-72451602D01*
X86492540Y-72449759D01*
X86502154Y-72447847D01*
X86511209Y-72444096D01*
X86519359Y-72438650D01*
X86526290Y-72431719D01*
X86531735Y-72423570D01*
X86535486Y-72414514D01*
X86537398Y-72404901D01*
X86537398Y-72395099D01*
X86535486Y-72385485D01*
X86531735Y-72376430D01*
X86526289Y-72368280D01*
X86519358Y-72361349D01*
X86511209Y-72355904D01*
X86502153Y-72352153D01*
X86492540Y-72350241D01*
X86473827Y-72348398D01*
X86466618Y-72347688D01*
X86439326Y-72339409D01*
X86414174Y-72325965D01*
X86392128Y-72307872D01*
X86374035Y-72285826D01*
X86360591Y-72260674D01*
X86352312Y-72233382D01*
X86349517Y-72205000D01*
X86349275Y-72202546D01*
X86349275Y-71397454D01*
X86352312Y-71366619D01*
X86360591Y-71339326D01*
X86374036Y-71314173D01*
X86392128Y-71292128D01*
X86414173Y-71274036D01*
X86414172Y-71274036D01*
X86414174Y-71274035D01*
X86439326Y-71260591D01*
X86466618Y-71252312D01*
X86473621Y-71251622D01*
X86497454Y-71249275D01*
X87952546Y-71249275D01*
X87976379Y-71251622D01*
X87976379Y-71251622D01*
G37*
G36*
X83526379Y-71251622D02*
X83533382Y-71252312D01*
X83560674Y-71260591D01*
X83585826Y-71274035D01*
X83585828Y-71274036D01*
X83585827Y-71274036D01*
X83607872Y-71292128D01*
X83625964Y-71314173D01*
X83639409Y-71339326D01*
X83647688Y-71366619D01*
X83650725Y-71397454D01*
X83650725Y-72202546D01*
X83650483Y-72205000D01*
X83647688Y-72233382D01*
X83639409Y-72260674D01*
X83625965Y-72285826D01*
X83607872Y-72307872D01*
X83585826Y-72325965D01*
X83560674Y-72339409D01*
X83533382Y-72347688D01*
X83526173Y-72348398D01*
X83507460Y-72350241D01*
X83497846Y-72352153D01*
X83488791Y-72355904D01*
X83480641Y-72361350D01*
X83473710Y-72368281D01*
X83468265Y-72376430D01*
X83464514Y-72385486D01*
X83462602Y-72395099D01*
X83462602Y-72404901D01*
X83464514Y-72414515D01*
X83468265Y-72423570D01*
X83473711Y-72431720D01*
X83480642Y-72438651D01*
X83488791Y-72444096D01*
X83497847Y-72447847D01*
X83507460Y-72449759D01*
X83526173Y-72451602D01*
X83533382Y-72452312D01*
X83560674Y-72460591D01*
X83585826Y-72474035D01*
X83585828Y-72474036D01*
X83585827Y-72474036D01*
X83607872Y-72492128D01*
X83625964Y-72514173D01*
X83639409Y-72539326D01*
X83647688Y-72566619D01*
X83650725Y-72597454D01*
X83650725Y-73402546D01*
X83650483Y-73405000D01*
X83647688Y-73433382D01*
X83639409Y-73460674D01*
X83625965Y-73485826D01*
X83607872Y-73507872D01*
X83585826Y-73525965D01*
X83560674Y-73539409D01*
X83533382Y-73547688D01*
X83526173Y-73548398D01*
X83507460Y-73550241D01*
X83497846Y-73552153D01*
X83488791Y-73555904D01*
X83480641Y-73561350D01*
X83473710Y-73568281D01*
X83468265Y-73576430D01*
X83464514Y-73585486D01*
X83462602Y-73595099D01*
X83462602Y-73604901D01*
X83464514Y-73614515D01*
X83468265Y-73623570D01*
X83473711Y-73631720D01*
X83480642Y-73638651D01*
X83488791Y-73644096D01*
X83497847Y-73647847D01*
X83507460Y-73649759D01*
X83526173Y-73651602D01*
X83533382Y-73652312D01*
X83560674Y-73660591D01*
X83585826Y-73674035D01*
X83585828Y-73674036D01*
X83585827Y-73674036D01*
X83607872Y-73692128D01*
X83625964Y-73714173D01*
X83639409Y-73739326D01*
X83647688Y-73766619D01*
X83650725Y-73797454D01*
X83650725Y-74602546D01*
X83650483Y-74605000D01*
X83647688Y-74633382D01*
X83639409Y-74660674D01*
X83625965Y-74685826D01*
X83607872Y-74707872D01*
X83585826Y-74725965D01*
X83560674Y-74739409D01*
X83533382Y-74747688D01*
X83526379Y-74748378D01*
X83502546Y-74750725D01*
X82047454Y-74750725D01*
X82023621Y-74748378D01*
X82016618Y-74747688D01*
X81989326Y-74739409D01*
X81964174Y-74725965D01*
X81942128Y-74707872D01*
X81924035Y-74685826D01*
X81910591Y-74660674D01*
X81902312Y-74633382D01*
X81899517Y-74605000D01*
X81899275Y-74602546D01*
X81899275Y-73797454D01*
X81902312Y-73766619D01*
X81910591Y-73739326D01*
X81924036Y-73714173D01*
X81942128Y-73692128D01*
X81964173Y-73674036D01*
X81964172Y-73674036D01*
X81964174Y-73674035D01*
X81989326Y-73660591D01*
X82016618Y-73652312D01*
X82023827Y-73651602D01*
X82042540Y-73649759D01*
X82052154Y-73647847D01*
X82061209Y-73644096D01*
X82069359Y-73638650D01*
X82076290Y-73631719D01*
X82081735Y-73623570D01*
X82085486Y-73614514D01*
X82087398Y-73604901D01*
X82087398Y-73595099D01*
X82085486Y-73585485D01*
X82081735Y-73576430D01*
X82076289Y-73568280D01*
X82069358Y-73561349D01*
X82061209Y-73555904D01*
X82052153Y-73552153D01*
X82042540Y-73550241D01*
X82023827Y-73548398D01*
X82016618Y-73547688D01*
X81989326Y-73539409D01*
X81964174Y-73525965D01*
X81942128Y-73507872D01*
X81924035Y-73485826D01*
X81910591Y-73460674D01*
X81902312Y-73433382D01*
X81899517Y-73405000D01*
X81899275Y-73402546D01*
X81899275Y-72597454D01*
X81902312Y-72566619D01*
X81910591Y-72539326D01*
X81924036Y-72514173D01*
X81942128Y-72492128D01*
X81964173Y-72474036D01*
X81964172Y-72474036D01*
X81964174Y-72474035D01*
X81989326Y-72460591D01*
X82016618Y-72452312D01*
X82023827Y-72451602D01*
X82042540Y-72449759D01*
X82052154Y-72447847D01*
X82061209Y-72444096D01*
X82069359Y-72438650D01*
X82076290Y-72431719D01*
X82081735Y-72423570D01*
X82085486Y-72414514D01*
X82087398Y-72404901D01*
X82087398Y-72395099D01*
X82085486Y-72385485D01*
X82081735Y-72376430D01*
X82076289Y-72368280D01*
X82069358Y-72361349D01*
X82061209Y-72355904D01*
X82052153Y-72352153D01*
X82042540Y-72350241D01*
X82023827Y-72348398D01*
X82016618Y-72347688D01*
X81989326Y-72339409D01*
X81964174Y-72325965D01*
X81942128Y-72307872D01*
X81924035Y-72285826D01*
X81910591Y-72260674D01*
X81902312Y-72233382D01*
X81899517Y-72205000D01*
X81899275Y-72202546D01*
X81899275Y-71397454D01*
X81902312Y-71366619D01*
X81910591Y-71339326D01*
X81924036Y-71314173D01*
X81942128Y-71292128D01*
X81964173Y-71274036D01*
X81964172Y-71274036D01*
X81964174Y-71274035D01*
X81989326Y-71260591D01*
X82016618Y-71252312D01*
X82023621Y-71251622D01*
X82047454Y-71249275D01*
X83502546Y-71249275D01*
X83526379Y-71251622D01*
X83526379Y-71251622D01*
G37*
G36*
X77976379Y-71251622D02*
X77983382Y-71252312D01*
X78010674Y-71260591D01*
X78035826Y-71274035D01*
X78035828Y-71274036D01*
X78035827Y-71274036D01*
X78057872Y-71292128D01*
X78075964Y-71314173D01*
X78089409Y-71339326D01*
X78097688Y-71366619D01*
X78100725Y-71397454D01*
X78100725Y-72202546D01*
X78100483Y-72205000D01*
X78097688Y-72233382D01*
X78089409Y-72260674D01*
X78075965Y-72285826D01*
X78057872Y-72307872D01*
X78035826Y-72325965D01*
X78010674Y-72339409D01*
X77983382Y-72347688D01*
X77976173Y-72348398D01*
X77957460Y-72350241D01*
X77947846Y-72352153D01*
X77938791Y-72355904D01*
X77930641Y-72361350D01*
X77923710Y-72368281D01*
X77918265Y-72376430D01*
X77914514Y-72385486D01*
X77912602Y-72395099D01*
X77912602Y-72404901D01*
X77914514Y-72414515D01*
X77918265Y-72423570D01*
X77923711Y-72431720D01*
X77930642Y-72438651D01*
X77938791Y-72444096D01*
X77947847Y-72447847D01*
X77957460Y-72449759D01*
X77976173Y-72451602D01*
X77983382Y-72452312D01*
X78010674Y-72460591D01*
X78035826Y-72474035D01*
X78035828Y-72474036D01*
X78035827Y-72474036D01*
X78057872Y-72492128D01*
X78075964Y-72514173D01*
X78089409Y-72539326D01*
X78097688Y-72566619D01*
X78100725Y-72597454D01*
X78100725Y-73402546D01*
X78100483Y-73405000D01*
X78097688Y-73433382D01*
X78089409Y-73460674D01*
X78075965Y-73485826D01*
X78057872Y-73507872D01*
X78035826Y-73525965D01*
X78010674Y-73539409D01*
X77983382Y-73547688D01*
X77976173Y-73548398D01*
X77957460Y-73550241D01*
X77947846Y-73552153D01*
X77938791Y-73555904D01*
X77930641Y-73561350D01*
X77923710Y-73568281D01*
X77918265Y-73576430D01*
X77914514Y-73585486D01*
X77912602Y-73595099D01*
X77912602Y-73604901D01*
X77914514Y-73614515D01*
X77918265Y-73623570D01*
X77923711Y-73631720D01*
X77930642Y-73638651D01*
X77938791Y-73644096D01*
X77947847Y-73647847D01*
X77957460Y-73649759D01*
X77976173Y-73651602D01*
X77983382Y-73652312D01*
X78010674Y-73660591D01*
X78035826Y-73674035D01*
X78035828Y-73674036D01*
X78035827Y-73674036D01*
X78057872Y-73692128D01*
X78075964Y-73714173D01*
X78089409Y-73739326D01*
X78097688Y-73766619D01*
X78100725Y-73797454D01*
X78100725Y-74602546D01*
X78100483Y-74605000D01*
X78097688Y-74633382D01*
X78089409Y-74660674D01*
X78075965Y-74685826D01*
X78057872Y-74707872D01*
X78035826Y-74725965D01*
X78010674Y-74739409D01*
X77983382Y-74747688D01*
X77976379Y-74748378D01*
X77952546Y-74750725D01*
X76497454Y-74750725D01*
X76473621Y-74748378D01*
X76466618Y-74747688D01*
X76439326Y-74739409D01*
X76414174Y-74725965D01*
X76392128Y-74707872D01*
X76374035Y-74685826D01*
X76360591Y-74660674D01*
X76352312Y-74633382D01*
X76349517Y-74605000D01*
X76349275Y-74602546D01*
X76349275Y-73797454D01*
X76352312Y-73766619D01*
X76360591Y-73739326D01*
X76374036Y-73714173D01*
X76392128Y-73692128D01*
X76414173Y-73674036D01*
X76414172Y-73674036D01*
X76414174Y-73674035D01*
X76439326Y-73660591D01*
X76466618Y-73652312D01*
X76473827Y-73651602D01*
X76492540Y-73649759D01*
X76502154Y-73647847D01*
X76511209Y-73644096D01*
X76519359Y-73638650D01*
X76526290Y-73631719D01*
X76531735Y-73623570D01*
X76535486Y-73614514D01*
X76537398Y-73604901D01*
X76537398Y-73595099D01*
X76535486Y-73585485D01*
X76531735Y-73576430D01*
X76526289Y-73568280D01*
X76519358Y-73561349D01*
X76511209Y-73555904D01*
X76502153Y-73552153D01*
X76492540Y-73550241D01*
X76473827Y-73548398D01*
X76466618Y-73547688D01*
X76439326Y-73539409D01*
X76414174Y-73525965D01*
X76392128Y-73507872D01*
X76374035Y-73485826D01*
X76360591Y-73460674D01*
X76352312Y-73433382D01*
X76349517Y-73405000D01*
X76349275Y-73402546D01*
X76349275Y-72597454D01*
X76352312Y-72566619D01*
X76360591Y-72539326D01*
X76374036Y-72514173D01*
X76392128Y-72492128D01*
X76414173Y-72474036D01*
X76414172Y-72474036D01*
X76414174Y-72474035D01*
X76439326Y-72460591D01*
X76466618Y-72452312D01*
X76473827Y-72451602D01*
X76492540Y-72449759D01*
X76502154Y-72447847D01*
X76511209Y-72444096D01*
X76519359Y-72438650D01*
X76526290Y-72431719D01*
X76531735Y-72423570D01*
X76535486Y-72414514D01*
X76537398Y-72404901D01*
X76537398Y-72395099D01*
X76535486Y-72385485D01*
X76531735Y-72376430D01*
X76526289Y-72368280D01*
X76519358Y-72361349D01*
X76511209Y-72355904D01*
X76502153Y-72352153D01*
X76492540Y-72350241D01*
X76473827Y-72348398D01*
X76466618Y-72347688D01*
X76439326Y-72339409D01*
X76414174Y-72325965D01*
X76392128Y-72307872D01*
X76374035Y-72285826D01*
X76360591Y-72260674D01*
X76352312Y-72233382D01*
X76349517Y-72205000D01*
X76349275Y-72202546D01*
X76349275Y-71397454D01*
X76352312Y-71366619D01*
X76360591Y-71339326D01*
X76374036Y-71314173D01*
X76392128Y-71292128D01*
X76414173Y-71274036D01*
X76414172Y-71274036D01*
X76414174Y-71274035D01*
X76439326Y-71260591D01*
X76466618Y-71252312D01*
X76473621Y-71251622D01*
X76497454Y-71249275D01*
X77952546Y-71249275D01*
X77976379Y-71251622D01*
X77976379Y-71251622D01*
G37*
G36*
X73526379Y-71251622D02*
X73533382Y-71252312D01*
X73560674Y-71260591D01*
X73585826Y-71274035D01*
X73585828Y-71274036D01*
X73585827Y-71274036D01*
X73607872Y-71292128D01*
X73625964Y-71314173D01*
X73639409Y-71339326D01*
X73647688Y-71366619D01*
X73650725Y-71397454D01*
X73650725Y-72202546D01*
X73650483Y-72205000D01*
X73647688Y-72233382D01*
X73639409Y-72260674D01*
X73625965Y-72285826D01*
X73607872Y-72307872D01*
X73585826Y-72325965D01*
X73560674Y-72339409D01*
X73533382Y-72347688D01*
X73526173Y-72348398D01*
X73507460Y-72350241D01*
X73497846Y-72352153D01*
X73488791Y-72355904D01*
X73480641Y-72361350D01*
X73473710Y-72368281D01*
X73468265Y-72376430D01*
X73464514Y-72385486D01*
X73462602Y-72395099D01*
X73462602Y-72404901D01*
X73464514Y-72414515D01*
X73468265Y-72423570D01*
X73473711Y-72431720D01*
X73480642Y-72438651D01*
X73488791Y-72444096D01*
X73497847Y-72447847D01*
X73507460Y-72449759D01*
X73526173Y-72451602D01*
X73533382Y-72452312D01*
X73560674Y-72460591D01*
X73585826Y-72474035D01*
X73585828Y-72474036D01*
X73585827Y-72474036D01*
X73607872Y-72492128D01*
X73625964Y-72514173D01*
X73639409Y-72539326D01*
X73647688Y-72566619D01*
X73650725Y-72597454D01*
X73650725Y-73402546D01*
X73650483Y-73405000D01*
X73647688Y-73433382D01*
X73639409Y-73460674D01*
X73625965Y-73485826D01*
X73607872Y-73507872D01*
X73585826Y-73525965D01*
X73560674Y-73539409D01*
X73533382Y-73547688D01*
X73526173Y-73548398D01*
X73507460Y-73550241D01*
X73497846Y-73552153D01*
X73488791Y-73555904D01*
X73480641Y-73561350D01*
X73473710Y-73568281D01*
X73468265Y-73576430D01*
X73464514Y-73585486D01*
X73462602Y-73595099D01*
X73462602Y-73604901D01*
X73464514Y-73614515D01*
X73468265Y-73623570D01*
X73473711Y-73631720D01*
X73480642Y-73638651D01*
X73488791Y-73644096D01*
X73497847Y-73647847D01*
X73507460Y-73649759D01*
X73526173Y-73651602D01*
X73533382Y-73652312D01*
X73560674Y-73660591D01*
X73585826Y-73674035D01*
X73585828Y-73674036D01*
X73585827Y-73674036D01*
X73607872Y-73692128D01*
X73625964Y-73714173D01*
X73639409Y-73739326D01*
X73647688Y-73766619D01*
X73650725Y-73797454D01*
X73650725Y-74602546D01*
X73650483Y-74605000D01*
X73647688Y-74633382D01*
X73639409Y-74660674D01*
X73625965Y-74685826D01*
X73607872Y-74707872D01*
X73585826Y-74725965D01*
X73560674Y-74739409D01*
X73533382Y-74747688D01*
X73526379Y-74748378D01*
X73502546Y-74750725D01*
X72047454Y-74750725D01*
X72023621Y-74748378D01*
X72016618Y-74747688D01*
X71989326Y-74739409D01*
X71964174Y-74725965D01*
X71942128Y-74707872D01*
X71924035Y-74685826D01*
X71910591Y-74660674D01*
X71902312Y-74633382D01*
X71899517Y-74605000D01*
X71899275Y-74602546D01*
X71899275Y-73797454D01*
X71902312Y-73766619D01*
X71910591Y-73739326D01*
X71924036Y-73714173D01*
X71942128Y-73692128D01*
X71964173Y-73674036D01*
X71964172Y-73674036D01*
X71964174Y-73674035D01*
X71989326Y-73660591D01*
X72016618Y-73652312D01*
X72023827Y-73651602D01*
X72042540Y-73649759D01*
X72052154Y-73647847D01*
X72061209Y-73644096D01*
X72069359Y-73638650D01*
X72076290Y-73631719D01*
X72081735Y-73623570D01*
X72085486Y-73614514D01*
X72087398Y-73604901D01*
X72087398Y-73595099D01*
X72085486Y-73585485D01*
X72081735Y-73576430D01*
X72076289Y-73568280D01*
X72069358Y-73561349D01*
X72061209Y-73555904D01*
X72052153Y-73552153D01*
X72042540Y-73550241D01*
X72023827Y-73548398D01*
X72016618Y-73547688D01*
X71989326Y-73539409D01*
X71964174Y-73525965D01*
X71942128Y-73507872D01*
X71924035Y-73485826D01*
X71910591Y-73460674D01*
X71902312Y-73433382D01*
X71899517Y-73405000D01*
X71899275Y-73402546D01*
X71899275Y-72597454D01*
X71902312Y-72566619D01*
X71910591Y-72539326D01*
X71924036Y-72514173D01*
X71942128Y-72492128D01*
X71964173Y-72474036D01*
X71964172Y-72474036D01*
X71964174Y-72474035D01*
X71989326Y-72460591D01*
X72016618Y-72452312D01*
X72023827Y-72451602D01*
X72042540Y-72449759D01*
X72052154Y-72447847D01*
X72061209Y-72444096D01*
X72069359Y-72438650D01*
X72076290Y-72431719D01*
X72081735Y-72423570D01*
X72085486Y-72414514D01*
X72087398Y-72404901D01*
X72087398Y-72395099D01*
X72085486Y-72385485D01*
X72081735Y-72376430D01*
X72076289Y-72368280D01*
X72069358Y-72361349D01*
X72061209Y-72355904D01*
X72052153Y-72352153D01*
X72042540Y-72350241D01*
X72023827Y-72348398D01*
X72016618Y-72347688D01*
X71989326Y-72339409D01*
X71964174Y-72325965D01*
X71942128Y-72307872D01*
X71924035Y-72285826D01*
X71910591Y-72260674D01*
X71902312Y-72233382D01*
X71899517Y-72205000D01*
X71899275Y-72202546D01*
X71899275Y-71397454D01*
X71902312Y-71366619D01*
X71910591Y-71339326D01*
X71924036Y-71314173D01*
X71942128Y-71292128D01*
X71964173Y-71274036D01*
X71964172Y-71274036D01*
X71964174Y-71274035D01*
X71989326Y-71260591D01*
X72016618Y-71252312D01*
X72023621Y-71251622D01*
X72047454Y-71249275D01*
X73502546Y-71249275D01*
X73526379Y-71251622D01*
X73526379Y-71251622D01*
G37*
G36*
X63526379Y-71251622D02*
X63533382Y-71252312D01*
X63560674Y-71260591D01*
X63585826Y-71274035D01*
X63585828Y-71274036D01*
X63585827Y-71274036D01*
X63607872Y-71292128D01*
X63625964Y-71314173D01*
X63639409Y-71339326D01*
X63647688Y-71366619D01*
X63650725Y-71397454D01*
X63650725Y-72202546D01*
X63650483Y-72205000D01*
X63647688Y-72233382D01*
X63639409Y-72260674D01*
X63625965Y-72285826D01*
X63607872Y-72307872D01*
X63585826Y-72325965D01*
X63560674Y-72339409D01*
X63533382Y-72347688D01*
X63526173Y-72348398D01*
X63507460Y-72350241D01*
X63497846Y-72352153D01*
X63488791Y-72355904D01*
X63480641Y-72361350D01*
X63473710Y-72368281D01*
X63468265Y-72376430D01*
X63464514Y-72385486D01*
X63462602Y-72395099D01*
X63462602Y-72404901D01*
X63464514Y-72414515D01*
X63468265Y-72423570D01*
X63473711Y-72431720D01*
X63480642Y-72438651D01*
X63488791Y-72444096D01*
X63497847Y-72447847D01*
X63507460Y-72449759D01*
X63526173Y-72451602D01*
X63533382Y-72452312D01*
X63560674Y-72460591D01*
X63585826Y-72474035D01*
X63585828Y-72474036D01*
X63585827Y-72474036D01*
X63607872Y-72492128D01*
X63625964Y-72514173D01*
X63639409Y-72539326D01*
X63647688Y-72566619D01*
X63650725Y-72597454D01*
X63650725Y-73402546D01*
X63650483Y-73405000D01*
X63647688Y-73433382D01*
X63639409Y-73460674D01*
X63625965Y-73485826D01*
X63607872Y-73507872D01*
X63585826Y-73525965D01*
X63560674Y-73539409D01*
X63533382Y-73547688D01*
X63526173Y-73548398D01*
X63507460Y-73550241D01*
X63497846Y-73552153D01*
X63488791Y-73555904D01*
X63480641Y-73561350D01*
X63473710Y-73568281D01*
X63468265Y-73576430D01*
X63464514Y-73585486D01*
X63462602Y-73595099D01*
X63462602Y-73604901D01*
X63464514Y-73614515D01*
X63468265Y-73623570D01*
X63473711Y-73631720D01*
X63480642Y-73638651D01*
X63488791Y-73644096D01*
X63497847Y-73647847D01*
X63507460Y-73649759D01*
X63526173Y-73651602D01*
X63533382Y-73652312D01*
X63560674Y-73660591D01*
X63585826Y-73674035D01*
X63585828Y-73674036D01*
X63585827Y-73674036D01*
X63607872Y-73692128D01*
X63625964Y-73714173D01*
X63639409Y-73739326D01*
X63647688Y-73766619D01*
X63650725Y-73797454D01*
X63650725Y-74602546D01*
X63650483Y-74605000D01*
X63647688Y-74633382D01*
X63639409Y-74660674D01*
X63625965Y-74685826D01*
X63607872Y-74707872D01*
X63585826Y-74725965D01*
X63560674Y-74739409D01*
X63533382Y-74747688D01*
X63526379Y-74748378D01*
X63502546Y-74750725D01*
X62047454Y-74750725D01*
X62023621Y-74748378D01*
X62016618Y-74747688D01*
X61989326Y-74739409D01*
X61964174Y-74725965D01*
X61942128Y-74707872D01*
X61924035Y-74685826D01*
X61910591Y-74660674D01*
X61902312Y-74633382D01*
X61899517Y-74605000D01*
X61899275Y-74602546D01*
X61899275Y-73797454D01*
X61902312Y-73766619D01*
X61910591Y-73739326D01*
X61924036Y-73714173D01*
X61942128Y-73692128D01*
X61964173Y-73674036D01*
X61964172Y-73674036D01*
X61964174Y-73674035D01*
X61989326Y-73660591D01*
X62016618Y-73652312D01*
X62023827Y-73651602D01*
X62042540Y-73649759D01*
X62052154Y-73647847D01*
X62061209Y-73644096D01*
X62069359Y-73638650D01*
X62076290Y-73631719D01*
X62081735Y-73623570D01*
X62085486Y-73614514D01*
X62087398Y-73604901D01*
X62087398Y-73595099D01*
X62085486Y-73585485D01*
X62081735Y-73576430D01*
X62076289Y-73568280D01*
X62069358Y-73561349D01*
X62061209Y-73555904D01*
X62052153Y-73552153D01*
X62042540Y-73550241D01*
X62023827Y-73548398D01*
X62016618Y-73547688D01*
X61989326Y-73539409D01*
X61964174Y-73525965D01*
X61942128Y-73507872D01*
X61924035Y-73485826D01*
X61910591Y-73460674D01*
X61902312Y-73433382D01*
X61899517Y-73405000D01*
X61899275Y-73402546D01*
X61899275Y-72597454D01*
X61902312Y-72566619D01*
X61910591Y-72539326D01*
X61924036Y-72514173D01*
X61942128Y-72492128D01*
X61964173Y-72474036D01*
X61964172Y-72474036D01*
X61964174Y-72474035D01*
X61989326Y-72460591D01*
X62016618Y-72452312D01*
X62023827Y-72451602D01*
X62042540Y-72449759D01*
X62052154Y-72447847D01*
X62061209Y-72444096D01*
X62069359Y-72438650D01*
X62076290Y-72431719D01*
X62081735Y-72423570D01*
X62085486Y-72414514D01*
X62087398Y-72404901D01*
X62087398Y-72395099D01*
X62085486Y-72385485D01*
X62081735Y-72376430D01*
X62076289Y-72368280D01*
X62069358Y-72361349D01*
X62061209Y-72355904D01*
X62052153Y-72352153D01*
X62042540Y-72350241D01*
X62023827Y-72348398D01*
X62016618Y-72347688D01*
X61989326Y-72339409D01*
X61964174Y-72325965D01*
X61942128Y-72307872D01*
X61924035Y-72285826D01*
X61910591Y-72260674D01*
X61902312Y-72233382D01*
X61899517Y-72205000D01*
X61899275Y-72202546D01*
X61899275Y-71397454D01*
X61902312Y-71366619D01*
X61910591Y-71339326D01*
X61924036Y-71314173D01*
X61942128Y-71292128D01*
X61964173Y-71274036D01*
X61964172Y-71274036D01*
X61964174Y-71274035D01*
X61989326Y-71260591D01*
X62016618Y-71252312D01*
X62023621Y-71251622D01*
X62047454Y-71249275D01*
X63502546Y-71249275D01*
X63526379Y-71251622D01*
X63526379Y-71251622D01*
G37*
G36*
X67976379Y-71251622D02*
X67983382Y-71252312D01*
X68010674Y-71260591D01*
X68035826Y-71274035D01*
X68035828Y-71274036D01*
X68035827Y-71274036D01*
X68057872Y-71292128D01*
X68075964Y-71314173D01*
X68089409Y-71339326D01*
X68097688Y-71366619D01*
X68100725Y-71397454D01*
X68100725Y-72202546D01*
X68100483Y-72205000D01*
X68097688Y-72233382D01*
X68089409Y-72260674D01*
X68075965Y-72285826D01*
X68057872Y-72307872D01*
X68035826Y-72325965D01*
X68010674Y-72339409D01*
X67983382Y-72347688D01*
X67976173Y-72348398D01*
X67957460Y-72350241D01*
X67947846Y-72352153D01*
X67938791Y-72355904D01*
X67930641Y-72361350D01*
X67923710Y-72368281D01*
X67918265Y-72376430D01*
X67914514Y-72385486D01*
X67912602Y-72395099D01*
X67912602Y-72404901D01*
X67914514Y-72414515D01*
X67918265Y-72423570D01*
X67923711Y-72431720D01*
X67930642Y-72438651D01*
X67938791Y-72444096D01*
X67947847Y-72447847D01*
X67957460Y-72449759D01*
X67976173Y-72451602D01*
X67983382Y-72452312D01*
X68010674Y-72460591D01*
X68035826Y-72474035D01*
X68035828Y-72474036D01*
X68035827Y-72474036D01*
X68057872Y-72492128D01*
X68075964Y-72514173D01*
X68089409Y-72539326D01*
X68097688Y-72566619D01*
X68100725Y-72597454D01*
X68100725Y-73402546D01*
X68100483Y-73405000D01*
X68097688Y-73433382D01*
X68089409Y-73460674D01*
X68075965Y-73485826D01*
X68057872Y-73507872D01*
X68035826Y-73525965D01*
X68010674Y-73539409D01*
X67983382Y-73547688D01*
X67976173Y-73548398D01*
X67957460Y-73550241D01*
X67947846Y-73552153D01*
X67938791Y-73555904D01*
X67930641Y-73561350D01*
X67923710Y-73568281D01*
X67918265Y-73576430D01*
X67914514Y-73585486D01*
X67912602Y-73595099D01*
X67912602Y-73604901D01*
X67914514Y-73614515D01*
X67918265Y-73623570D01*
X67923711Y-73631720D01*
X67930642Y-73638651D01*
X67938791Y-73644096D01*
X67947847Y-73647847D01*
X67957460Y-73649759D01*
X67976173Y-73651602D01*
X67983382Y-73652312D01*
X68010674Y-73660591D01*
X68035826Y-73674035D01*
X68035828Y-73674036D01*
X68035827Y-73674036D01*
X68057872Y-73692128D01*
X68075964Y-73714173D01*
X68089409Y-73739326D01*
X68097688Y-73766619D01*
X68100725Y-73797454D01*
X68100725Y-74602546D01*
X68100483Y-74605000D01*
X68097688Y-74633382D01*
X68089409Y-74660674D01*
X68075965Y-74685826D01*
X68057872Y-74707872D01*
X68035826Y-74725965D01*
X68010674Y-74739409D01*
X67983382Y-74747688D01*
X67976379Y-74748378D01*
X67952546Y-74750725D01*
X66497454Y-74750725D01*
X66473621Y-74748378D01*
X66466618Y-74747688D01*
X66439326Y-74739409D01*
X66414174Y-74725965D01*
X66392128Y-74707872D01*
X66374035Y-74685826D01*
X66360591Y-74660674D01*
X66352312Y-74633382D01*
X66349517Y-74605000D01*
X66349275Y-74602546D01*
X66349275Y-73797454D01*
X66352312Y-73766619D01*
X66360591Y-73739326D01*
X66374036Y-73714173D01*
X66392128Y-73692128D01*
X66414173Y-73674036D01*
X66414172Y-73674036D01*
X66414174Y-73674035D01*
X66439326Y-73660591D01*
X66466618Y-73652312D01*
X66473827Y-73651602D01*
X66492540Y-73649759D01*
X66502154Y-73647847D01*
X66511209Y-73644096D01*
X66519359Y-73638650D01*
X66526290Y-73631719D01*
X66531735Y-73623570D01*
X66535486Y-73614514D01*
X66537398Y-73604901D01*
X66537398Y-73595099D01*
X66535486Y-73585485D01*
X66531735Y-73576430D01*
X66526289Y-73568280D01*
X66519358Y-73561349D01*
X66511209Y-73555904D01*
X66502153Y-73552153D01*
X66492540Y-73550241D01*
X66473827Y-73548398D01*
X66466618Y-73547688D01*
X66439326Y-73539409D01*
X66414174Y-73525965D01*
X66392128Y-73507872D01*
X66374035Y-73485826D01*
X66360591Y-73460674D01*
X66352312Y-73433382D01*
X66349517Y-73405000D01*
X66349275Y-73402546D01*
X66349275Y-72597454D01*
X66352312Y-72566619D01*
X66360591Y-72539326D01*
X66374036Y-72514173D01*
X66392128Y-72492128D01*
X66414173Y-72474036D01*
X66414172Y-72474036D01*
X66414174Y-72474035D01*
X66439326Y-72460591D01*
X66466618Y-72452312D01*
X66473827Y-72451602D01*
X66492540Y-72449759D01*
X66502154Y-72447847D01*
X66511209Y-72444096D01*
X66519359Y-72438650D01*
X66526290Y-72431719D01*
X66531735Y-72423570D01*
X66535486Y-72414514D01*
X66537398Y-72404901D01*
X66537398Y-72395099D01*
X66535486Y-72385485D01*
X66531735Y-72376430D01*
X66526289Y-72368280D01*
X66519358Y-72361349D01*
X66511209Y-72355904D01*
X66502153Y-72352153D01*
X66492540Y-72350241D01*
X66473827Y-72348398D01*
X66466618Y-72347688D01*
X66439326Y-72339409D01*
X66414174Y-72325965D01*
X66392128Y-72307872D01*
X66374035Y-72285826D01*
X66360591Y-72260674D01*
X66352312Y-72233382D01*
X66349517Y-72205000D01*
X66349275Y-72202546D01*
X66349275Y-71397454D01*
X66352312Y-71366619D01*
X66360591Y-71339326D01*
X66374036Y-71314173D01*
X66392128Y-71292128D01*
X66414173Y-71274036D01*
X66414172Y-71274036D01*
X66414174Y-71274035D01*
X66439326Y-71260591D01*
X66466618Y-71252312D01*
X66473621Y-71251622D01*
X66497454Y-71249275D01*
X67952546Y-71249275D01*
X67976379Y-71251622D01*
X67976379Y-71251622D01*
G37*
G36*
X53526379Y-71251622D02*
X53533382Y-71252312D01*
X53560674Y-71260591D01*
X53585826Y-71274035D01*
X53585828Y-71274036D01*
X53585827Y-71274036D01*
X53607872Y-71292128D01*
X53625964Y-71314173D01*
X53639409Y-71339326D01*
X53647688Y-71366619D01*
X53650725Y-71397454D01*
X53650725Y-72202546D01*
X53650483Y-72205000D01*
X53647688Y-72233382D01*
X53639409Y-72260674D01*
X53625965Y-72285826D01*
X53607872Y-72307872D01*
X53585826Y-72325965D01*
X53560674Y-72339409D01*
X53533382Y-72347688D01*
X53526173Y-72348398D01*
X53507460Y-72350241D01*
X53497846Y-72352153D01*
X53488791Y-72355904D01*
X53480641Y-72361350D01*
X53473710Y-72368281D01*
X53468265Y-72376430D01*
X53464514Y-72385486D01*
X53462602Y-72395099D01*
X53462602Y-72404901D01*
X53464514Y-72414515D01*
X53468265Y-72423570D01*
X53473711Y-72431720D01*
X53480642Y-72438651D01*
X53488791Y-72444096D01*
X53497847Y-72447847D01*
X53507460Y-72449759D01*
X53526173Y-72451602D01*
X53533382Y-72452312D01*
X53560674Y-72460591D01*
X53585826Y-72474035D01*
X53585828Y-72474036D01*
X53585827Y-72474036D01*
X53607872Y-72492128D01*
X53625964Y-72514173D01*
X53639409Y-72539326D01*
X53647688Y-72566619D01*
X53650725Y-72597454D01*
X53650725Y-73402546D01*
X53650483Y-73405000D01*
X53647688Y-73433382D01*
X53639409Y-73460674D01*
X53625965Y-73485826D01*
X53607872Y-73507872D01*
X53585826Y-73525965D01*
X53560674Y-73539409D01*
X53533382Y-73547688D01*
X53526173Y-73548398D01*
X53507460Y-73550241D01*
X53497846Y-73552153D01*
X53488791Y-73555904D01*
X53480641Y-73561350D01*
X53473710Y-73568281D01*
X53468265Y-73576430D01*
X53464514Y-73585486D01*
X53462602Y-73595099D01*
X53462602Y-73604901D01*
X53464514Y-73614515D01*
X53468265Y-73623570D01*
X53473711Y-73631720D01*
X53480642Y-73638651D01*
X53488791Y-73644096D01*
X53497847Y-73647847D01*
X53507460Y-73649759D01*
X53526173Y-73651602D01*
X53533382Y-73652312D01*
X53560674Y-73660591D01*
X53585826Y-73674035D01*
X53585828Y-73674036D01*
X53585827Y-73674036D01*
X53607872Y-73692128D01*
X53625964Y-73714173D01*
X53639409Y-73739326D01*
X53647688Y-73766619D01*
X53650725Y-73797454D01*
X53650725Y-74602546D01*
X53650483Y-74605000D01*
X53647688Y-74633382D01*
X53639409Y-74660674D01*
X53625965Y-74685826D01*
X53607872Y-74707872D01*
X53585826Y-74725965D01*
X53560674Y-74739409D01*
X53533382Y-74747688D01*
X53526379Y-74748378D01*
X53502546Y-74750725D01*
X52047454Y-74750725D01*
X52023621Y-74748378D01*
X52016618Y-74747688D01*
X51989326Y-74739409D01*
X51964174Y-74725965D01*
X51942128Y-74707872D01*
X51924035Y-74685826D01*
X51910591Y-74660674D01*
X51902312Y-74633382D01*
X51899517Y-74605000D01*
X51899275Y-74602546D01*
X51899275Y-73797454D01*
X51902312Y-73766619D01*
X51910591Y-73739326D01*
X51924036Y-73714173D01*
X51942128Y-73692128D01*
X51964173Y-73674036D01*
X51964172Y-73674036D01*
X51964174Y-73674035D01*
X51989326Y-73660591D01*
X52016618Y-73652312D01*
X52023827Y-73651602D01*
X52042540Y-73649759D01*
X52052154Y-73647847D01*
X52061209Y-73644096D01*
X52069359Y-73638650D01*
X52076290Y-73631719D01*
X52081735Y-73623570D01*
X52085486Y-73614514D01*
X52087398Y-73604901D01*
X52087398Y-73595099D01*
X52085486Y-73585485D01*
X52081735Y-73576430D01*
X52076289Y-73568280D01*
X52069358Y-73561349D01*
X52061209Y-73555904D01*
X52052153Y-73552153D01*
X52042540Y-73550241D01*
X52023827Y-73548398D01*
X52016618Y-73547688D01*
X51989326Y-73539409D01*
X51964174Y-73525965D01*
X51942128Y-73507872D01*
X51924035Y-73485826D01*
X51910591Y-73460674D01*
X51902312Y-73433382D01*
X51899517Y-73405000D01*
X51899275Y-73402546D01*
X51899275Y-72597454D01*
X51902312Y-72566619D01*
X51910591Y-72539326D01*
X51924036Y-72514173D01*
X51942128Y-72492128D01*
X51964173Y-72474036D01*
X51964172Y-72474036D01*
X51964174Y-72474035D01*
X51989326Y-72460591D01*
X52016618Y-72452312D01*
X52023827Y-72451602D01*
X52042540Y-72449759D01*
X52052154Y-72447847D01*
X52061209Y-72444096D01*
X52069359Y-72438650D01*
X52076290Y-72431719D01*
X52081735Y-72423570D01*
X52085486Y-72414514D01*
X52087398Y-72404901D01*
X52087398Y-72395099D01*
X52085486Y-72385485D01*
X52081735Y-72376430D01*
X52076289Y-72368280D01*
X52069358Y-72361349D01*
X52061209Y-72355904D01*
X52052153Y-72352153D01*
X52042540Y-72350241D01*
X52023827Y-72348398D01*
X52016618Y-72347688D01*
X51989326Y-72339409D01*
X51964174Y-72325965D01*
X51942128Y-72307872D01*
X51924035Y-72285826D01*
X51910591Y-72260674D01*
X51902312Y-72233382D01*
X51899517Y-72205000D01*
X51899275Y-72202546D01*
X51899275Y-71397454D01*
X51902312Y-71366619D01*
X51910591Y-71339326D01*
X51924036Y-71314173D01*
X51942128Y-71292128D01*
X51964173Y-71274036D01*
X51964172Y-71274036D01*
X51964174Y-71274035D01*
X51989326Y-71260591D01*
X52016618Y-71252312D01*
X52023621Y-71251622D01*
X52047454Y-71249275D01*
X53502546Y-71249275D01*
X53526379Y-71251622D01*
X53526379Y-71251622D01*
G37*
G36*
X57976379Y-71251622D02*
X57983382Y-71252312D01*
X58010674Y-71260591D01*
X58035826Y-71274035D01*
X58035828Y-71274036D01*
X58035827Y-71274036D01*
X58057872Y-71292128D01*
X58075964Y-71314173D01*
X58089409Y-71339326D01*
X58097688Y-71366619D01*
X58100725Y-71397454D01*
X58100725Y-72202546D01*
X58100483Y-72205000D01*
X58097688Y-72233382D01*
X58089409Y-72260674D01*
X58075965Y-72285826D01*
X58057872Y-72307872D01*
X58035826Y-72325965D01*
X58010674Y-72339409D01*
X57983382Y-72347688D01*
X57976173Y-72348398D01*
X57957460Y-72350241D01*
X57947846Y-72352153D01*
X57938791Y-72355904D01*
X57930641Y-72361350D01*
X57923710Y-72368281D01*
X57918265Y-72376430D01*
X57914514Y-72385486D01*
X57912602Y-72395099D01*
X57912602Y-72404901D01*
X57914514Y-72414515D01*
X57918265Y-72423570D01*
X57923711Y-72431720D01*
X57930642Y-72438651D01*
X57938791Y-72444096D01*
X57947847Y-72447847D01*
X57957460Y-72449759D01*
X57976173Y-72451602D01*
X57983382Y-72452312D01*
X58010674Y-72460591D01*
X58035826Y-72474035D01*
X58035828Y-72474036D01*
X58035827Y-72474036D01*
X58057872Y-72492128D01*
X58075964Y-72514173D01*
X58089409Y-72539326D01*
X58097688Y-72566619D01*
X58100725Y-72597454D01*
X58100725Y-73402546D01*
X58100483Y-73405000D01*
X58097688Y-73433382D01*
X58089409Y-73460674D01*
X58075965Y-73485826D01*
X58057872Y-73507872D01*
X58035826Y-73525965D01*
X58010674Y-73539409D01*
X57983382Y-73547688D01*
X57976173Y-73548398D01*
X57957460Y-73550241D01*
X57947846Y-73552153D01*
X57938791Y-73555904D01*
X57930641Y-73561350D01*
X57923710Y-73568281D01*
X57918265Y-73576430D01*
X57914514Y-73585486D01*
X57912602Y-73595099D01*
X57912602Y-73604901D01*
X57914514Y-73614515D01*
X57918265Y-73623570D01*
X57923711Y-73631720D01*
X57930642Y-73638651D01*
X57938791Y-73644096D01*
X57947847Y-73647847D01*
X57957460Y-73649759D01*
X57976173Y-73651602D01*
X57983382Y-73652312D01*
X58010674Y-73660591D01*
X58035826Y-73674035D01*
X58035828Y-73674036D01*
X58035827Y-73674036D01*
X58057872Y-73692128D01*
X58075964Y-73714173D01*
X58089409Y-73739326D01*
X58097688Y-73766619D01*
X58100725Y-73797454D01*
X58100725Y-74602546D01*
X58100483Y-74605000D01*
X58097688Y-74633382D01*
X58089409Y-74660674D01*
X58075965Y-74685826D01*
X58057872Y-74707872D01*
X58035826Y-74725965D01*
X58010674Y-74739409D01*
X57983382Y-74747688D01*
X57976379Y-74748378D01*
X57952546Y-74750725D01*
X56497454Y-74750725D01*
X56473621Y-74748378D01*
X56466618Y-74747688D01*
X56439326Y-74739409D01*
X56414174Y-74725965D01*
X56392128Y-74707872D01*
X56374035Y-74685826D01*
X56360591Y-74660674D01*
X56352312Y-74633382D01*
X56349517Y-74605000D01*
X56349275Y-74602546D01*
X56349275Y-73797454D01*
X56352312Y-73766619D01*
X56360591Y-73739326D01*
X56374036Y-73714173D01*
X56392128Y-73692128D01*
X56414173Y-73674036D01*
X56414172Y-73674036D01*
X56414174Y-73674035D01*
X56439326Y-73660591D01*
X56466618Y-73652312D01*
X56473827Y-73651602D01*
X56492540Y-73649759D01*
X56502154Y-73647847D01*
X56511209Y-73644096D01*
X56519359Y-73638650D01*
X56526290Y-73631719D01*
X56531735Y-73623570D01*
X56535486Y-73614514D01*
X56537398Y-73604901D01*
X56537398Y-73595099D01*
X56535486Y-73585485D01*
X56531735Y-73576430D01*
X56526289Y-73568280D01*
X56519358Y-73561349D01*
X56511209Y-73555904D01*
X56502153Y-73552153D01*
X56492540Y-73550241D01*
X56473827Y-73548398D01*
X56466618Y-73547688D01*
X56439326Y-73539409D01*
X56414174Y-73525965D01*
X56392128Y-73507872D01*
X56374035Y-73485826D01*
X56360591Y-73460674D01*
X56352312Y-73433382D01*
X56349517Y-73405000D01*
X56349275Y-73402546D01*
X56349275Y-72597454D01*
X56352312Y-72566619D01*
X56360591Y-72539326D01*
X56374036Y-72514173D01*
X56392128Y-72492128D01*
X56414173Y-72474036D01*
X56414172Y-72474036D01*
X56414174Y-72474035D01*
X56439326Y-72460591D01*
X56466618Y-72452312D01*
X56473827Y-72451602D01*
X56492540Y-72449759D01*
X56502154Y-72447847D01*
X56511209Y-72444096D01*
X56519359Y-72438650D01*
X56526290Y-72431719D01*
X56531735Y-72423570D01*
X56535486Y-72414514D01*
X56537398Y-72404901D01*
X56537398Y-72395099D01*
X56535486Y-72385485D01*
X56531735Y-72376430D01*
X56526289Y-72368280D01*
X56519358Y-72361349D01*
X56511209Y-72355904D01*
X56502153Y-72352153D01*
X56492540Y-72350241D01*
X56473827Y-72348398D01*
X56466618Y-72347688D01*
X56439326Y-72339409D01*
X56414174Y-72325965D01*
X56392128Y-72307872D01*
X56374035Y-72285826D01*
X56360591Y-72260674D01*
X56352312Y-72233382D01*
X56349517Y-72205000D01*
X56349275Y-72202546D01*
X56349275Y-71397454D01*
X56352312Y-71366619D01*
X56360591Y-71339326D01*
X56374036Y-71314173D01*
X56392128Y-71292128D01*
X56414173Y-71274036D01*
X56414172Y-71274036D01*
X56414174Y-71274035D01*
X56439326Y-71260591D01*
X56466618Y-71252312D01*
X56473621Y-71251622D01*
X56497454Y-71249275D01*
X57952546Y-71249275D01*
X57976379Y-71251622D01*
X57976379Y-71251622D01*
G37*
G36*
X60309851Y-65051963D02*
X60876562Y-65168292D01*
X61409880Y-65392478D01*
X61889500Y-65715986D01*
X62297151Y-66126493D01*
X62617303Y-66608359D01*
X62837758Y-67143226D01*
X62950061Y-67710394D01*
X62950061Y-67710404D01*
X62950127Y-67710738D01*
X62940900Y-68371522D01*
X62940824Y-68371856D01*
X62940824Y-68371868D01*
X62812732Y-68935669D01*
X62577423Y-69464180D01*
X62243944Y-69936918D01*
X61824987Y-70335884D01*
X61336527Y-70645870D01*
X60797152Y-70855081D01*
X60227419Y-70955539D01*
X59649020Y-70943424D01*
X59083984Y-70819193D01*
X58553849Y-70587583D01*
X58078794Y-70257410D01*
X57676915Y-69841252D01*
X57363525Y-69354967D01*
X57150555Y-68817067D01*
X57046119Y-68248041D01*
X57054198Y-67669574D01*
X57174478Y-67103694D01*
X57402385Y-66571949D01*
X57729233Y-66094600D01*
X58142575Y-65689825D01*
X58626663Y-65373047D01*
X59163062Y-65156328D01*
X59731337Y-65047924D01*
X60309851Y-65051963D01*
X60309851Y-65051963D01*
G37*
G36*
X80309851Y-65051963D02*
X80876562Y-65168292D01*
X81409880Y-65392478D01*
X81889500Y-65715986D01*
X82297151Y-66126493D01*
X82617303Y-66608359D01*
X82837758Y-67143226D01*
X82950061Y-67710394D01*
X82950061Y-67710404D01*
X82950127Y-67710738D01*
X82940900Y-68371522D01*
X82940824Y-68371856D01*
X82940824Y-68371868D01*
X82812732Y-68935669D01*
X82577423Y-69464180D01*
X82243944Y-69936918D01*
X81824987Y-70335884D01*
X81336527Y-70645870D01*
X80797152Y-70855081D01*
X80227419Y-70955539D01*
X79649020Y-70943424D01*
X79083984Y-70819193D01*
X78553849Y-70587583D01*
X78078794Y-70257410D01*
X77676915Y-69841252D01*
X77363525Y-69354967D01*
X77150555Y-68817067D01*
X77046119Y-68248041D01*
X77054198Y-67669574D01*
X77174478Y-67103694D01*
X77402385Y-66571949D01*
X77729233Y-66094600D01*
X78142575Y-65689825D01*
X78626663Y-65373047D01*
X79163062Y-65156328D01*
X79731337Y-65047924D01*
X80309851Y-65051963D01*
X80309851Y-65051963D01*
G37*
G36*
X71250000Y-68475000D02*
X70250000Y-68475000D01*
X70250000Y-67525000D01*
X71250000Y-67525000D01*
X71250000Y-68475000D01*
X71250000Y-68475000D01*
G37*
G36*
X69750000Y-68475000D02*
X68750000Y-68475000D01*
X68750000Y-67525000D01*
X69750000Y-67525000D01*
X69750000Y-68475000D01*
X69750000Y-68475000D01*
G37*
G36*
X57976379Y-61251622D02*
X57983382Y-61252312D01*
X58010674Y-61260591D01*
X58035826Y-61274035D01*
X58035828Y-61274036D01*
X58035827Y-61274036D01*
X58057872Y-61292128D01*
X58075964Y-61314173D01*
X58089409Y-61339326D01*
X58097688Y-61366619D01*
X58100725Y-61397454D01*
X58100725Y-62202546D01*
X58100483Y-62205000D01*
X58097688Y-62233382D01*
X58089409Y-62260674D01*
X58075965Y-62285826D01*
X58057872Y-62307872D01*
X58035826Y-62325965D01*
X58010674Y-62339409D01*
X57983382Y-62347688D01*
X57976173Y-62348398D01*
X57957460Y-62350241D01*
X57947846Y-62352153D01*
X57938791Y-62355904D01*
X57930641Y-62361350D01*
X57923710Y-62368281D01*
X57918265Y-62376430D01*
X57914514Y-62385486D01*
X57912602Y-62395099D01*
X57912602Y-62404901D01*
X57914514Y-62414515D01*
X57918265Y-62423570D01*
X57923711Y-62431720D01*
X57930642Y-62438651D01*
X57938791Y-62444096D01*
X57947847Y-62447847D01*
X57957460Y-62449759D01*
X57976173Y-62451602D01*
X57983382Y-62452312D01*
X58010674Y-62460591D01*
X58035826Y-62474035D01*
X58035828Y-62474036D01*
X58035827Y-62474036D01*
X58057872Y-62492128D01*
X58075964Y-62514173D01*
X58089409Y-62539326D01*
X58097688Y-62566619D01*
X58100725Y-62597454D01*
X58100725Y-63402546D01*
X58100483Y-63405000D01*
X58097688Y-63433382D01*
X58089409Y-63460674D01*
X58075965Y-63485826D01*
X58057872Y-63507872D01*
X58035826Y-63525965D01*
X58010674Y-63539409D01*
X57983382Y-63547688D01*
X57976173Y-63548398D01*
X57957460Y-63550241D01*
X57947846Y-63552153D01*
X57938791Y-63555904D01*
X57930641Y-63561350D01*
X57923710Y-63568281D01*
X57918265Y-63576430D01*
X57914514Y-63585486D01*
X57912602Y-63595099D01*
X57912602Y-63604901D01*
X57914514Y-63614515D01*
X57918265Y-63623570D01*
X57923711Y-63631720D01*
X57930642Y-63638651D01*
X57938791Y-63644096D01*
X57947847Y-63647847D01*
X57957460Y-63649759D01*
X57976173Y-63651602D01*
X57983382Y-63652312D01*
X58010674Y-63660591D01*
X58035826Y-63674035D01*
X58035828Y-63674036D01*
X58035827Y-63674036D01*
X58057872Y-63692128D01*
X58075964Y-63714173D01*
X58089409Y-63739326D01*
X58097688Y-63766619D01*
X58100725Y-63797454D01*
X58100725Y-64602546D01*
X58100483Y-64605000D01*
X58097688Y-64633382D01*
X58089409Y-64660674D01*
X58075965Y-64685826D01*
X58057872Y-64707872D01*
X58035826Y-64725965D01*
X58010674Y-64739409D01*
X57983382Y-64747688D01*
X57976379Y-64748378D01*
X57952546Y-64750725D01*
X56497454Y-64750725D01*
X56473621Y-64748378D01*
X56466618Y-64747688D01*
X56439326Y-64739409D01*
X56414174Y-64725965D01*
X56392128Y-64707872D01*
X56374035Y-64685826D01*
X56360591Y-64660674D01*
X56352312Y-64633382D01*
X56349517Y-64605000D01*
X56349275Y-64602546D01*
X56349275Y-63797454D01*
X56352312Y-63766619D01*
X56360591Y-63739326D01*
X56374036Y-63714173D01*
X56392128Y-63692128D01*
X56414173Y-63674036D01*
X56414172Y-63674036D01*
X56414174Y-63674035D01*
X56439326Y-63660591D01*
X56466618Y-63652312D01*
X56473827Y-63651602D01*
X56492540Y-63649759D01*
X56502154Y-63647847D01*
X56511209Y-63644096D01*
X56519359Y-63638650D01*
X56526290Y-63631719D01*
X56531735Y-63623570D01*
X56535486Y-63614514D01*
X56537398Y-63604901D01*
X56537398Y-63595099D01*
X56535486Y-63585485D01*
X56531735Y-63576430D01*
X56526289Y-63568280D01*
X56519358Y-63561349D01*
X56511209Y-63555904D01*
X56502153Y-63552153D01*
X56492540Y-63550241D01*
X56473827Y-63548398D01*
X56466618Y-63547688D01*
X56439326Y-63539409D01*
X56414174Y-63525965D01*
X56392128Y-63507872D01*
X56374035Y-63485826D01*
X56360591Y-63460674D01*
X56352312Y-63433382D01*
X56349517Y-63405000D01*
X56349275Y-63402546D01*
X56349275Y-62597454D01*
X56352312Y-62566619D01*
X56360591Y-62539326D01*
X56374036Y-62514173D01*
X56392128Y-62492128D01*
X56414173Y-62474036D01*
X56414172Y-62474036D01*
X56414174Y-62474035D01*
X56439326Y-62460591D01*
X56466618Y-62452312D01*
X56473827Y-62451602D01*
X56492540Y-62449759D01*
X56502154Y-62447847D01*
X56511209Y-62444096D01*
X56519359Y-62438650D01*
X56526290Y-62431719D01*
X56531735Y-62423570D01*
X56535486Y-62414514D01*
X56537398Y-62404901D01*
X56537398Y-62395099D01*
X56535486Y-62385485D01*
X56531735Y-62376430D01*
X56526289Y-62368280D01*
X56519358Y-62361349D01*
X56511209Y-62355904D01*
X56502153Y-62352153D01*
X56492540Y-62350241D01*
X56473827Y-62348398D01*
X56466618Y-62347688D01*
X56439326Y-62339409D01*
X56414174Y-62325965D01*
X56392128Y-62307872D01*
X56374035Y-62285826D01*
X56360591Y-62260674D01*
X56352312Y-62233382D01*
X56349517Y-62205000D01*
X56349275Y-62202546D01*
X56349275Y-61397454D01*
X56352312Y-61366619D01*
X56360591Y-61339326D01*
X56374036Y-61314173D01*
X56392128Y-61292128D01*
X56414173Y-61274036D01*
X56414172Y-61274036D01*
X56414174Y-61274035D01*
X56439326Y-61260591D01*
X56466618Y-61252312D01*
X56473621Y-61251622D01*
X56497454Y-61249275D01*
X57952546Y-61249275D01*
X57976379Y-61251622D01*
X57976379Y-61251622D01*
G37*
G36*
X53526379Y-61251622D02*
X53533382Y-61252312D01*
X53560674Y-61260591D01*
X53585826Y-61274035D01*
X53585828Y-61274036D01*
X53585827Y-61274036D01*
X53607872Y-61292128D01*
X53625964Y-61314173D01*
X53639409Y-61339326D01*
X53647688Y-61366619D01*
X53650725Y-61397454D01*
X53650725Y-62202546D01*
X53650483Y-62205000D01*
X53647688Y-62233382D01*
X53639409Y-62260674D01*
X53625965Y-62285826D01*
X53607872Y-62307872D01*
X53585826Y-62325965D01*
X53560674Y-62339409D01*
X53533382Y-62347688D01*
X53526173Y-62348398D01*
X53507460Y-62350241D01*
X53497846Y-62352153D01*
X53488791Y-62355904D01*
X53480641Y-62361350D01*
X53473710Y-62368281D01*
X53468265Y-62376430D01*
X53464514Y-62385486D01*
X53462602Y-62395099D01*
X53462602Y-62404901D01*
X53464514Y-62414515D01*
X53468265Y-62423570D01*
X53473711Y-62431720D01*
X53480642Y-62438651D01*
X53488791Y-62444096D01*
X53497847Y-62447847D01*
X53507460Y-62449759D01*
X53526173Y-62451602D01*
X53533382Y-62452312D01*
X53560674Y-62460591D01*
X53585826Y-62474035D01*
X53585828Y-62474036D01*
X53585827Y-62474036D01*
X53607872Y-62492128D01*
X53625964Y-62514173D01*
X53639409Y-62539326D01*
X53647688Y-62566619D01*
X53650725Y-62597454D01*
X53650725Y-63402546D01*
X53650483Y-63405000D01*
X53647688Y-63433382D01*
X53639409Y-63460674D01*
X53625965Y-63485826D01*
X53607872Y-63507872D01*
X53585826Y-63525965D01*
X53560674Y-63539409D01*
X53533382Y-63547688D01*
X53526173Y-63548398D01*
X53507460Y-63550241D01*
X53497846Y-63552153D01*
X53488791Y-63555904D01*
X53480641Y-63561350D01*
X53473710Y-63568281D01*
X53468265Y-63576430D01*
X53464514Y-63585486D01*
X53462602Y-63595099D01*
X53462602Y-63604901D01*
X53464514Y-63614515D01*
X53468265Y-63623570D01*
X53473711Y-63631720D01*
X53480642Y-63638651D01*
X53488791Y-63644096D01*
X53497847Y-63647847D01*
X53507460Y-63649759D01*
X53526173Y-63651602D01*
X53533382Y-63652312D01*
X53560674Y-63660591D01*
X53585826Y-63674035D01*
X53585828Y-63674036D01*
X53585827Y-63674036D01*
X53607872Y-63692128D01*
X53625964Y-63714173D01*
X53639409Y-63739326D01*
X53647688Y-63766619D01*
X53650725Y-63797454D01*
X53650725Y-64602546D01*
X53650483Y-64605000D01*
X53647688Y-64633382D01*
X53639409Y-64660674D01*
X53625965Y-64685826D01*
X53607872Y-64707872D01*
X53585826Y-64725965D01*
X53560674Y-64739409D01*
X53533382Y-64747688D01*
X53526379Y-64748378D01*
X53502546Y-64750725D01*
X52047454Y-64750725D01*
X52023621Y-64748378D01*
X52016618Y-64747688D01*
X51989326Y-64739409D01*
X51964174Y-64725965D01*
X51942128Y-64707872D01*
X51924035Y-64685826D01*
X51910591Y-64660674D01*
X51902312Y-64633382D01*
X51899517Y-64605000D01*
X51899275Y-64602546D01*
X51899275Y-63797454D01*
X51902312Y-63766619D01*
X51910591Y-63739326D01*
X51924036Y-63714173D01*
X51942128Y-63692128D01*
X51964173Y-63674036D01*
X51964172Y-63674036D01*
X51964174Y-63674035D01*
X51989326Y-63660591D01*
X52016618Y-63652312D01*
X52023827Y-63651602D01*
X52042540Y-63649759D01*
X52052154Y-63647847D01*
X52061209Y-63644096D01*
X52069359Y-63638650D01*
X52076290Y-63631719D01*
X52081735Y-63623570D01*
X52085486Y-63614514D01*
X52087398Y-63604901D01*
X52087398Y-63595099D01*
X52085486Y-63585485D01*
X52081735Y-63576430D01*
X52076289Y-63568280D01*
X52069358Y-63561349D01*
X52061209Y-63555904D01*
X52052153Y-63552153D01*
X52042540Y-63550241D01*
X52023827Y-63548398D01*
X52016618Y-63547688D01*
X51989326Y-63539409D01*
X51964174Y-63525965D01*
X51942128Y-63507872D01*
X51924035Y-63485826D01*
X51910591Y-63460674D01*
X51902312Y-63433382D01*
X51899517Y-63405000D01*
X51899275Y-63402546D01*
X51899275Y-62597454D01*
X51902312Y-62566619D01*
X51910591Y-62539326D01*
X51924036Y-62514173D01*
X51942128Y-62492128D01*
X51964173Y-62474036D01*
X51964172Y-62474036D01*
X51964174Y-62474035D01*
X51989326Y-62460591D01*
X52016618Y-62452312D01*
X52023827Y-62451602D01*
X52042540Y-62449759D01*
X52052154Y-62447847D01*
X52061209Y-62444096D01*
X52069359Y-62438650D01*
X52076290Y-62431719D01*
X52081735Y-62423570D01*
X52085486Y-62414514D01*
X52087398Y-62404901D01*
X52087398Y-62395099D01*
X52085486Y-62385485D01*
X52081735Y-62376430D01*
X52076289Y-62368280D01*
X52069358Y-62361349D01*
X52061209Y-62355904D01*
X52052153Y-62352153D01*
X52042540Y-62350241D01*
X52023827Y-62348398D01*
X52016618Y-62347688D01*
X51989326Y-62339409D01*
X51964174Y-62325965D01*
X51942128Y-62307872D01*
X51924035Y-62285826D01*
X51910591Y-62260674D01*
X51902312Y-62233382D01*
X51899517Y-62205000D01*
X51899275Y-62202546D01*
X51899275Y-61397454D01*
X51902312Y-61366619D01*
X51910591Y-61339326D01*
X51924036Y-61314173D01*
X51942128Y-61292128D01*
X51964173Y-61274036D01*
X51964172Y-61274036D01*
X51964174Y-61274035D01*
X51989326Y-61260591D01*
X52016618Y-61252312D01*
X52023621Y-61251622D01*
X52047454Y-61249275D01*
X53502546Y-61249275D01*
X53526379Y-61251622D01*
X53526379Y-61251622D01*
G37*
G36*
X63526379Y-61251622D02*
X63533382Y-61252312D01*
X63560674Y-61260591D01*
X63585826Y-61274035D01*
X63585828Y-61274036D01*
X63585827Y-61274036D01*
X63607872Y-61292128D01*
X63625964Y-61314173D01*
X63639409Y-61339326D01*
X63647688Y-61366619D01*
X63650725Y-61397454D01*
X63650725Y-62202546D01*
X63650483Y-62205000D01*
X63647688Y-62233382D01*
X63639409Y-62260674D01*
X63625965Y-62285826D01*
X63607872Y-62307872D01*
X63585826Y-62325965D01*
X63560674Y-62339409D01*
X63533382Y-62347688D01*
X63526173Y-62348398D01*
X63507460Y-62350241D01*
X63497846Y-62352153D01*
X63488791Y-62355904D01*
X63480641Y-62361350D01*
X63473710Y-62368281D01*
X63468265Y-62376430D01*
X63464514Y-62385486D01*
X63462602Y-62395099D01*
X63462602Y-62404901D01*
X63464514Y-62414515D01*
X63468265Y-62423570D01*
X63473711Y-62431720D01*
X63480642Y-62438651D01*
X63488791Y-62444096D01*
X63497847Y-62447847D01*
X63507460Y-62449759D01*
X63526173Y-62451602D01*
X63533382Y-62452312D01*
X63560674Y-62460591D01*
X63585826Y-62474035D01*
X63585828Y-62474036D01*
X63585827Y-62474036D01*
X63607872Y-62492128D01*
X63625964Y-62514173D01*
X63639409Y-62539326D01*
X63647688Y-62566619D01*
X63650725Y-62597454D01*
X63650725Y-63402546D01*
X63650483Y-63405000D01*
X63647688Y-63433382D01*
X63639409Y-63460674D01*
X63625965Y-63485826D01*
X63607872Y-63507872D01*
X63585826Y-63525965D01*
X63560674Y-63539409D01*
X63533382Y-63547688D01*
X63526173Y-63548398D01*
X63507460Y-63550241D01*
X63497846Y-63552153D01*
X63488791Y-63555904D01*
X63480641Y-63561350D01*
X63473710Y-63568281D01*
X63468265Y-63576430D01*
X63464514Y-63585486D01*
X63462602Y-63595099D01*
X63462602Y-63604901D01*
X63464514Y-63614515D01*
X63468265Y-63623570D01*
X63473711Y-63631720D01*
X63480642Y-63638651D01*
X63488791Y-63644096D01*
X63497847Y-63647847D01*
X63507460Y-63649759D01*
X63526173Y-63651602D01*
X63533382Y-63652312D01*
X63560674Y-63660591D01*
X63585826Y-63674035D01*
X63585828Y-63674036D01*
X63585827Y-63674036D01*
X63607872Y-63692128D01*
X63625964Y-63714173D01*
X63639409Y-63739326D01*
X63647688Y-63766619D01*
X63650725Y-63797454D01*
X63650725Y-64602546D01*
X63650483Y-64605000D01*
X63647688Y-64633382D01*
X63639409Y-64660674D01*
X63625965Y-64685826D01*
X63607872Y-64707872D01*
X63585826Y-64725965D01*
X63560674Y-64739409D01*
X63533382Y-64747688D01*
X63526379Y-64748378D01*
X63502546Y-64750725D01*
X62047454Y-64750725D01*
X62023621Y-64748378D01*
X62016618Y-64747688D01*
X61989326Y-64739409D01*
X61964174Y-64725965D01*
X61942128Y-64707872D01*
X61924035Y-64685826D01*
X61910591Y-64660674D01*
X61902312Y-64633382D01*
X61899517Y-64605000D01*
X61899275Y-64602546D01*
X61899275Y-63797454D01*
X61902312Y-63766619D01*
X61910591Y-63739326D01*
X61924036Y-63714173D01*
X61942128Y-63692128D01*
X61964173Y-63674036D01*
X61964172Y-63674036D01*
X61964174Y-63674035D01*
X61989326Y-63660591D01*
X62016618Y-63652312D01*
X62023827Y-63651602D01*
X62042540Y-63649759D01*
X62052154Y-63647847D01*
X62061209Y-63644096D01*
X62069359Y-63638650D01*
X62076290Y-63631719D01*
X62081735Y-63623570D01*
X62085486Y-63614514D01*
X62087398Y-63604901D01*
X62087398Y-63595099D01*
X62085486Y-63585485D01*
X62081735Y-63576430D01*
X62076289Y-63568280D01*
X62069358Y-63561349D01*
X62061209Y-63555904D01*
X62052153Y-63552153D01*
X62042540Y-63550241D01*
X62023827Y-63548398D01*
X62016618Y-63547688D01*
X61989326Y-63539409D01*
X61964174Y-63525965D01*
X61942128Y-63507872D01*
X61924035Y-63485826D01*
X61910591Y-63460674D01*
X61902312Y-63433382D01*
X61899517Y-63405000D01*
X61899275Y-63402546D01*
X61899275Y-62597454D01*
X61902312Y-62566619D01*
X61910591Y-62539326D01*
X61924036Y-62514173D01*
X61942128Y-62492128D01*
X61964173Y-62474036D01*
X61964172Y-62474036D01*
X61964174Y-62474035D01*
X61989326Y-62460591D01*
X62016618Y-62452312D01*
X62023827Y-62451602D01*
X62042540Y-62449759D01*
X62052154Y-62447847D01*
X62061209Y-62444096D01*
X62069359Y-62438650D01*
X62076290Y-62431719D01*
X62081735Y-62423570D01*
X62085486Y-62414514D01*
X62087398Y-62404901D01*
X62087398Y-62395099D01*
X62085486Y-62385485D01*
X62081735Y-62376430D01*
X62076289Y-62368280D01*
X62069358Y-62361349D01*
X62061209Y-62355904D01*
X62052153Y-62352153D01*
X62042540Y-62350241D01*
X62023827Y-62348398D01*
X62016618Y-62347688D01*
X61989326Y-62339409D01*
X61964174Y-62325965D01*
X61942128Y-62307872D01*
X61924035Y-62285826D01*
X61910591Y-62260674D01*
X61902312Y-62233382D01*
X61899517Y-62205000D01*
X61899275Y-62202546D01*
X61899275Y-61397454D01*
X61902312Y-61366619D01*
X61910591Y-61339326D01*
X61924036Y-61314173D01*
X61942128Y-61292128D01*
X61964173Y-61274036D01*
X61964172Y-61274036D01*
X61964174Y-61274035D01*
X61989326Y-61260591D01*
X62016618Y-61252312D01*
X62023621Y-61251622D01*
X62047454Y-61249275D01*
X63502546Y-61249275D01*
X63526379Y-61251622D01*
X63526379Y-61251622D01*
G37*
G36*
X67976379Y-61251622D02*
X67983382Y-61252312D01*
X68010674Y-61260591D01*
X68035826Y-61274035D01*
X68035828Y-61274036D01*
X68035827Y-61274036D01*
X68057872Y-61292128D01*
X68075964Y-61314173D01*
X68089409Y-61339326D01*
X68097688Y-61366619D01*
X68100725Y-61397454D01*
X68100725Y-62202546D01*
X68100483Y-62205000D01*
X68097688Y-62233382D01*
X68089409Y-62260674D01*
X68075965Y-62285826D01*
X68057872Y-62307872D01*
X68035826Y-62325965D01*
X68010674Y-62339409D01*
X67983382Y-62347688D01*
X67976173Y-62348398D01*
X67957460Y-62350241D01*
X67947846Y-62352153D01*
X67938791Y-62355904D01*
X67930641Y-62361350D01*
X67923710Y-62368281D01*
X67918265Y-62376430D01*
X67914514Y-62385486D01*
X67912602Y-62395099D01*
X67912602Y-62404901D01*
X67914514Y-62414515D01*
X67918265Y-62423570D01*
X67923711Y-62431720D01*
X67930642Y-62438651D01*
X67938791Y-62444096D01*
X67947847Y-62447847D01*
X67957460Y-62449759D01*
X67976173Y-62451602D01*
X67983382Y-62452312D01*
X68010674Y-62460591D01*
X68035826Y-62474035D01*
X68035828Y-62474036D01*
X68035827Y-62474036D01*
X68057872Y-62492128D01*
X68075964Y-62514173D01*
X68089409Y-62539326D01*
X68097688Y-62566619D01*
X68100725Y-62597454D01*
X68100725Y-63402546D01*
X68100483Y-63405000D01*
X68097688Y-63433382D01*
X68089409Y-63460674D01*
X68075965Y-63485826D01*
X68057872Y-63507872D01*
X68035826Y-63525965D01*
X68010674Y-63539409D01*
X67983382Y-63547688D01*
X67976173Y-63548398D01*
X67957460Y-63550241D01*
X67947846Y-63552153D01*
X67938791Y-63555904D01*
X67930641Y-63561350D01*
X67923710Y-63568281D01*
X67918265Y-63576430D01*
X67914514Y-63585486D01*
X67912602Y-63595099D01*
X67912602Y-63604901D01*
X67914514Y-63614515D01*
X67918265Y-63623570D01*
X67923711Y-63631720D01*
X67930642Y-63638651D01*
X67938791Y-63644096D01*
X67947847Y-63647847D01*
X67957460Y-63649759D01*
X67976173Y-63651602D01*
X67983382Y-63652312D01*
X68010674Y-63660591D01*
X68035826Y-63674035D01*
X68035828Y-63674036D01*
X68035827Y-63674036D01*
X68057872Y-63692128D01*
X68075964Y-63714173D01*
X68089409Y-63739326D01*
X68097688Y-63766619D01*
X68100725Y-63797454D01*
X68100725Y-64602546D01*
X68100483Y-64605000D01*
X68097688Y-64633382D01*
X68089409Y-64660674D01*
X68075965Y-64685826D01*
X68057872Y-64707872D01*
X68035826Y-64725965D01*
X68010674Y-64739409D01*
X67983382Y-64747688D01*
X67976379Y-64748378D01*
X67952546Y-64750725D01*
X66497454Y-64750725D01*
X66473621Y-64748378D01*
X66466618Y-64747688D01*
X66439326Y-64739409D01*
X66414174Y-64725965D01*
X66392128Y-64707872D01*
X66374035Y-64685826D01*
X66360591Y-64660674D01*
X66352312Y-64633382D01*
X66349517Y-64605000D01*
X66349275Y-64602546D01*
X66349275Y-63797454D01*
X66352312Y-63766619D01*
X66360591Y-63739326D01*
X66374036Y-63714173D01*
X66392128Y-63692128D01*
X66414173Y-63674036D01*
X66414172Y-63674036D01*
X66414174Y-63674035D01*
X66439326Y-63660591D01*
X66466618Y-63652312D01*
X66473827Y-63651602D01*
X66492540Y-63649759D01*
X66502154Y-63647847D01*
X66511209Y-63644096D01*
X66519359Y-63638650D01*
X66526290Y-63631719D01*
X66531735Y-63623570D01*
X66535486Y-63614514D01*
X66537398Y-63604901D01*
X66537398Y-63595099D01*
X66535486Y-63585485D01*
X66531735Y-63576430D01*
X66526289Y-63568280D01*
X66519358Y-63561349D01*
X66511209Y-63555904D01*
X66502153Y-63552153D01*
X66492540Y-63550241D01*
X66473827Y-63548398D01*
X66466618Y-63547688D01*
X66439326Y-63539409D01*
X66414174Y-63525965D01*
X66392128Y-63507872D01*
X66374035Y-63485826D01*
X66360591Y-63460674D01*
X66352312Y-63433382D01*
X66349517Y-63405000D01*
X66349275Y-63402546D01*
X66349275Y-62597454D01*
X66352312Y-62566619D01*
X66360591Y-62539326D01*
X66374036Y-62514173D01*
X66392128Y-62492128D01*
X66414173Y-62474036D01*
X66414172Y-62474036D01*
X66414174Y-62474035D01*
X66439326Y-62460591D01*
X66466618Y-62452312D01*
X66473827Y-62451602D01*
X66492540Y-62449759D01*
X66502154Y-62447847D01*
X66511209Y-62444096D01*
X66519359Y-62438650D01*
X66526290Y-62431719D01*
X66531735Y-62423570D01*
X66535486Y-62414514D01*
X66537398Y-62404901D01*
X66537398Y-62395099D01*
X66535486Y-62385485D01*
X66531735Y-62376430D01*
X66526289Y-62368280D01*
X66519358Y-62361349D01*
X66511209Y-62355904D01*
X66502153Y-62352153D01*
X66492540Y-62350241D01*
X66473827Y-62348398D01*
X66466618Y-62347688D01*
X66439326Y-62339409D01*
X66414174Y-62325965D01*
X66392128Y-62307872D01*
X66374035Y-62285826D01*
X66360591Y-62260674D01*
X66352312Y-62233382D01*
X66349517Y-62205000D01*
X66349275Y-62202546D01*
X66349275Y-61397454D01*
X66352312Y-61366619D01*
X66360591Y-61339326D01*
X66374036Y-61314173D01*
X66392128Y-61292128D01*
X66414173Y-61274036D01*
X66414172Y-61274036D01*
X66414174Y-61274035D01*
X66439326Y-61260591D01*
X66466618Y-61252312D01*
X66473621Y-61251622D01*
X66497454Y-61249275D01*
X67952546Y-61249275D01*
X67976379Y-61251622D01*
X67976379Y-61251622D01*
G37*
G36*
X77976379Y-61251622D02*
X77983382Y-61252312D01*
X78010674Y-61260591D01*
X78035826Y-61274035D01*
X78035828Y-61274036D01*
X78035827Y-61274036D01*
X78057872Y-61292128D01*
X78075964Y-61314173D01*
X78089409Y-61339326D01*
X78097688Y-61366619D01*
X78100725Y-61397454D01*
X78100725Y-62202546D01*
X78100483Y-62205000D01*
X78097688Y-62233382D01*
X78089409Y-62260674D01*
X78075965Y-62285826D01*
X78057872Y-62307872D01*
X78035826Y-62325965D01*
X78010674Y-62339409D01*
X77983382Y-62347688D01*
X77976173Y-62348398D01*
X77957460Y-62350241D01*
X77947846Y-62352153D01*
X77938791Y-62355904D01*
X77930641Y-62361350D01*
X77923710Y-62368281D01*
X77918265Y-62376430D01*
X77914514Y-62385486D01*
X77912602Y-62395099D01*
X77912602Y-62404901D01*
X77914514Y-62414515D01*
X77918265Y-62423570D01*
X77923711Y-62431720D01*
X77930642Y-62438651D01*
X77938791Y-62444096D01*
X77947847Y-62447847D01*
X77957460Y-62449759D01*
X77976173Y-62451602D01*
X77983382Y-62452312D01*
X78010674Y-62460591D01*
X78035826Y-62474035D01*
X78035828Y-62474036D01*
X78035827Y-62474036D01*
X78057872Y-62492128D01*
X78075964Y-62514173D01*
X78089409Y-62539326D01*
X78097688Y-62566619D01*
X78100725Y-62597454D01*
X78100725Y-63402546D01*
X78100483Y-63405000D01*
X78097688Y-63433382D01*
X78089409Y-63460674D01*
X78075965Y-63485826D01*
X78057872Y-63507872D01*
X78035826Y-63525965D01*
X78010674Y-63539409D01*
X77983382Y-63547688D01*
X77976173Y-63548398D01*
X77957460Y-63550241D01*
X77947846Y-63552153D01*
X77938791Y-63555904D01*
X77930641Y-63561350D01*
X77923710Y-63568281D01*
X77918265Y-63576430D01*
X77914514Y-63585486D01*
X77912602Y-63595099D01*
X77912602Y-63604901D01*
X77914514Y-63614515D01*
X77918265Y-63623570D01*
X77923711Y-63631720D01*
X77930642Y-63638651D01*
X77938791Y-63644096D01*
X77947847Y-63647847D01*
X77957460Y-63649759D01*
X77976173Y-63651602D01*
X77983382Y-63652312D01*
X78010674Y-63660591D01*
X78035826Y-63674035D01*
X78035828Y-63674036D01*
X78035827Y-63674036D01*
X78057872Y-63692128D01*
X78075964Y-63714173D01*
X78089409Y-63739326D01*
X78097688Y-63766619D01*
X78100725Y-63797454D01*
X78100725Y-64602546D01*
X78100483Y-64605000D01*
X78097688Y-64633382D01*
X78089409Y-64660674D01*
X78075965Y-64685826D01*
X78057872Y-64707872D01*
X78035826Y-64725965D01*
X78010674Y-64739409D01*
X77983382Y-64747688D01*
X77976379Y-64748378D01*
X77952546Y-64750725D01*
X76497454Y-64750725D01*
X76473621Y-64748378D01*
X76466618Y-64747688D01*
X76439326Y-64739409D01*
X76414174Y-64725965D01*
X76392128Y-64707872D01*
X76374035Y-64685826D01*
X76360591Y-64660674D01*
X76352312Y-64633382D01*
X76349517Y-64605000D01*
X76349275Y-64602546D01*
X76349275Y-63797454D01*
X76352312Y-63766619D01*
X76360591Y-63739326D01*
X76374036Y-63714173D01*
X76392128Y-63692128D01*
X76414173Y-63674036D01*
X76414172Y-63674036D01*
X76414174Y-63674035D01*
X76439326Y-63660591D01*
X76466618Y-63652312D01*
X76473827Y-63651602D01*
X76492540Y-63649759D01*
X76502154Y-63647847D01*
X76511209Y-63644096D01*
X76519359Y-63638650D01*
X76526290Y-63631719D01*
X76531735Y-63623570D01*
X76535486Y-63614514D01*
X76537398Y-63604901D01*
X76537398Y-63595099D01*
X76535486Y-63585485D01*
X76531735Y-63576430D01*
X76526289Y-63568280D01*
X76519358Y-63561349D01*
X76511209Y-63555904D01*
X76502153Y-63552153D01*
X76492540Y-63550241D01*
X76473827Y-63548398D01*
X76466618Y-63547688D01*
X76439326Y-63539409D01*
X76414174Y-63525965D01*
X76392128Y-63507872D01*
X76374035Y-63485826D01*
X76360591Y-63460674D01*
X76352312Y-63433382D01*
X76349517Y-63405000D01*
X76349275Y-63402546D01*
X76349275Y-62597454D01*
X76352312Y-62566619D01*
X76360591Y-62539326D01*
X76374036Y-62514173D01*
X76392128Y-62492128D01*
X76414173Y-62474036D01*
X76414172Y-62474036D01*
X76414174Y-62474035D01*
X76439326Y-62460591D01*
X76466618Y-62452312D01*
X76473827Y-62451602D01*
X76492540Y-62449759D01*
X76502154Y-62447847D01*
X76511209Y-62444096D01*
X76519359Y-62438650D01*
X76526290Y-62431719D01*
X76531735Y-62423570D01*
X76535486Y-62414514D01*
X76537398Y-62404901D01*
X76537398Y-62395099D01*
X76535486Y-62385485D01*
X76531735Y-62376430D01*
X76526289Y-62368280D01*
X76519358Y-62361349D01*
X76511209Y-62355904D01*
X76502153Y-62352153D01*
X76492540Y-62350241D01*
X76473827Y-62348398D01*
X76466618Y-62347688D01*
X76439326Y-62339409D01*
X76414174Y-62325965D01*
X76392128Y-62307872D01*
X76374035Y-62285826D01*
X76360591Y-62260674D01*
X76352312Y-62233382D01*
X76349517Y-62205000D01*
X76349275Y-62202546D01*
X76349275Y-61397454D01*
X76352312Y-61366619D01*
X76360591Y-61339326D01*
X76374036Y-61314173D01*
X76392128Y-61292128D01*
X76414173Y-61274036D01*
X76414172Y-61274036D01*
X76414174Y-61274035D01*
X76439326Y-61260591D01*
X76466618Y-61252312D01*
X76473621Y-61251622D01*
X76497454Y-61249275D01*
X77952546Y-61249275D01*
X77976379Y-61251622D01*
X77976379Y-61251622D01*
G37*
G36*
X83526379Y-61251622D02*
X83533382Y-61252312D01*
X83560674Y-61260591D01*
X83585826Y-61274035D01*
X83585828Y-61274036D01*
X83585827Y-61274036D01*
X83607872Y-61292128D01*
X83625964Y-61314173D01*
X83639409Y-61339326D01*
X83647688Y-61366619D01*
X83650725Y-61397454D01*
X83650725Y-62202546D01*
X83650483Y-62205000D01*
X83647688Y-62233382D01*
X83639409Y-62260674D01*
X83625965Y-62285826D01*
X83607872Y-62307872D01*
X83585826Y-62325965D01*
X83560674Y-62339409D01*
X83533382Y-62347688D01*
X83526173Y-62348398D01*
X83507460Y-62350241D01*
X83497846Y-62352153D01*
X83488791Y-62355904D01*
X83480641Y-62361350D01*
X83473710Y-62368281D01*
X83468265Y-62376430D01*
X83464514Y-62385486D01*
X83462602Y-62395099D01*
X83462602Y-62404901D01*
X83464514Y-62414515D01*
X83468265Y-62423570D01*
X83473711Y-62431720D01*
X83480642Y-62438651D01*
X83488791Y-62444096D01*
X83497847Y-62447847D01*
X83507460Y-62449759D01*
X83526173Y-62451602D01*
X83533382Y-62452312D01*
X83560674Y-62460591D01*
X83585826Y-62474035D01*
X83585828Y-62474036D01*
X83585827Y-62474036D01*
X83607872Y-62492128D01*
X83625964Y-62514173D01*
X83639409Y-62539326D01*
X83647688Y-62566619D01*
X83650725Y-62597454D01*
X83650725Y-63402546D01*
X83650483Y-63405000D01*
X83647688Y-63433382D01*
X83639409Y-63460674D01*
X83625965Y-63485826D01*
X83607872Y-63507872D01*
X83585826Y-63525965D01*
X83560674Y-63539409D01*
X83533382Y-63547688D01*
X83526173Y-63548398D01*
X83507460Y-63550241D01*
X83497846Y-63552153D01*
X83488791Y-63555904D01*
X83480641Y-63561350D01*
X83473710Y-63568281D01*
X83468265Y-63576430D01*
X83464514Y-63585486D01*
X83462602Y-63595099D01*
X83462602Y-63604901D01*
X83464514Y-63614515D01*
X83468265Y-63623570D01*
X83473711Y-63631720D01*
X83480642Y-63638651D01*
X83488791Y-63644096D01*
X83497847Y-63647847D01*
X83507460Y-63649759D01*
X83526173Y-63651602D01*
X83533382Y-63652312D01*
X83560674Y-63660591D01*
X83585826Y-63674035D01*
X83585828Y-63674036D01*
X83585827Y-63674036D01*
X83607872Y-63692128D01*
X83625964Y-63714173D01*
X83639409Y-63739326D01*
X83647688Y-63766619D01*
X83650725Y-63797454D01*
X83650725Y-64602546D01*
X83650483Y-64605000D01*
X83647688Y-64633382D01*
X83639409Y-64660674D01*
X83625965Y-64685826D01*
X83607872Y-64707872D01*
X83585826Y-64725965D01*
X83560674Y-64739409D01*
X83533382Y-64747688D01*
X83526379Y-64748378D01*
X83502546Y-64750725D01*
X82047454Y-64750725D01*
X82023621Y-64748378D01*
X82016618Y-64747688D01*
X81989326Y-64739409D01*
X81964174Y-64725965D01*
X81942128Y-64707872D01*
X81924035Y-64685826D01*
X81910591Y-64660674D01*
X81902312Y-64633382D01*
X81899517Y-64605000D01*
X81899275Y-64602546D01*
X81899275Y-63797454D01*
X81902312Y-63766619D01*
X81910591Y-63739326D01*
X81924036Y-63714173D01*
X81942128Y-63692128D01*
X81964173Y-63674036D01*
X81964172Y-63674036D01*
X81964174Y-63674035D01*
X81989326Y-63660591D01*
X82016618Y-63652312D01*
X82023827Y-63651602D01*
X82042540Y-63649759D01*
X82052154Y-63647847D01*
X82061209Y-63644096D01*
X82069359Y-63638650D01*
X82076290Y-63631719D01*
X82081735Y-63623570D01*
X82085486Y-63614514D01*
X82087398Y-63604901D01*
X82087398Y-63595099D01*
X82085486Y-63585485D01*
X82081735Y-63576430D01*
X82076289Y-63568280D01*
X82069358Y-63561349D01*
X82061209Y-63555904D01*
X82052153Y-63552153D01*
X82042540Y-63550241D01*
X82023827Y-63548398D01*
X82016618Y-63547688D01*
X81989326Y-63539409D01*
X81964174Y-63525965D01*
X81942128Y-63507872D01*
X81924035Y-63485826D01*
X81910591Y-63460674D01*
X81902312Y-63433382D01*
X81899517Y-63405000D01*
X81899275Y-63402546D01*
X81899275Y-62597454D01*
X81902312Y-62566619D01*
X81910591Y-62539326D01*
X81924036Y-62514173D01*
X81942128Y-62492128D01*
X81964173Y-62474036D01*
X81964172Y-62474036D01*
X81964174Y-62474035D01*
X81989326Y-62460591D01*
X82016618Y-62452312D01*
X82023827Y-62451602D01*
X82042540Y-62449759D01*
X82052154Y-62447847D01*
X82061209Y-62444096D01*
X82069359Y-62438650D01*
X82076290Y-62431719D01*
X82081735Y-62423570D01*
X82085486Y-62414514D01*
X82087398Y-62404901D01*
X82087398Y-62395099D01*
X82085486Y-62385485D01*
X82081735Y-62376430D01*
X82076289Y-62368280D01*
X82069358Y-62361349D01*
X82061209Y-62355904D01*
X82052153Y-62352153D01*
X82042540Y-62350241D01*
X82023827Y-62348398D01*
X82016618Y-62347688D01*
X81989326Y-62339409D01*
X81964174Y-62325965D01*
X81942128Y-62307872D01*
X81924035Y-62285826D01*
X81910591Y-62260674D01*
X81902312Y-62233382D01*
X81899517Y-62205000D01*
X81899275Y-62202546D01*
X81899275Y-61397454D01*
X81902312Y-61366619D01*
X81910591Y-61339326D01*
X81924036Y-61314173D01*
X81942128Y-61292128D01*
X81964173Y-61274036D01*
X81964172Y-61274036D01*
X81964174Y-61274035D01*
X81989326Y-61260591D01*
X82016618Y-61252312D01*
X82023621Y-61251622D01*
X82047454Y-61249275D01*
X83502546Y-61249275D01*
X83526379Y-61251622D01*
X83526379Y-61251622D01*
G37*
G36*
X87976379Y-61251622D02*
X87983382Y-61252312D01*
X88010674Y-61260591D01*
X88035826Y-61274035D01*
X88035828Y-61274036D01*
X88035827Y-61274036D01*
X88057872Y-61292128D01*
X88075964Y-61314173D01*
X88089409Y-61339326D01*
X88097688Y-61366619D01*
X88100725Y-61397454D01*
X88100725Y-62202546D01*
X88100483Y-62205000D01*
X88097688Y-62233382D01*
X88089409Y-62260674D01*
X88075965Y-62285826D01*
X88057872Y-62307872D01*
X88035826Y-62325965D01*
X88010674Y-62339409D01*
X87983382Y-62347688D01*
X87976173Y-62348398D01*
X87957460Y-62350241D01*
X87947846Y-62352153D01*
X87938791Y-62355904D01*
X87930641Y-62361350D01*
X87923710Y-62368281D01*
X87918265Y-62376430D01*
X87914514Y-62385486D01*
X87912602Y-62395099D01*
X87912602Y-62404901D01*
X87914514Y-62414515D01*
X87918265Y-62423570D01*
X87923711Y-62431720D01*
X87930642Y-62438651D01*
X87938791Y-62444096D01*
X87947847Y-62447847D01*
X87957460Y-62449759D01*
X87976173Y-62451602D01*
X87983382Y-62452312D01*
X88010674Y-62460591D01*
X88035826Y-62474035D01*
X88035828Y-62474036D01*
X88035827Y-62474036D01*
X88057872Y-62492128D01*
X88075964Y-62514173D01*
X88089409Y-62539326D01*
X88097688Y-62566619D01*
X88100725Y-62597454D01*
X88100725Y-63402546D01*
X88100483Y-63405000D01*
X88097688Y-63433382D01*
X88089409Y-63460674D01*
X88075965Y-63485826D01*
X88057872Y-63507872D01*
X88035826Y-63525965D01*
X88010674Y-63539409D01*
X87983382Y-63547688D01*
X87976173Y-63548398D01*
X87957460Y-63550241D01*
X87947846Y-63552153D01*
X87938791Y-63555904D01*
X87930641Y-63561350D01*
X87923710Y-63568281D01*
X87918265Y-63576430D01*
X87914514Y-63585486D01*
X87912602Y-63595099D01*
X87912602Y-63604901D01*
X87914514Y-63614515D01*
X87918265Y-63623570D01*
X87923711Y-63631720D01*
X87930642Y-63638651D01*
X87938791Y-63644096D01*
X87947847Y-63647847D01*
X87957460Y-63649759D01*
X87976173Y-63651602D01*
X87983382Y-63652312D01*
X88010674Y-63660591D01*
X88035826Y-63674035D01*
X88035828Y-63674036D01*
X88035827Y-63674036D01*
X88057872Y-63692128D01*
X88075964Y-63714173D01*
X88089409Y-63739326D01*
X88097688Y-63766619D01*
X88100725Y-63797454D01*
X88100725Y-64602546D01*
X88100483Y-64605000D01*
X88097688Y-64633382D01*
X88089409Y-64660674D01*
X88075965Y-64685826D01*
X88057872Y-64707872D01*
X88035826Y-64725965D01*
X88010674Y-64739409D01*
X87983382Y-64747688D01*
X87976379Y-64748378D01*
X87952546Y-64750725D01*
X86497454Y-64750725D01*
X86473621Y-64748378D01*
X86466618Y-64747688D01*
X86439326Y-64739409D01*
X86414174Y-64725965D01*
X86392128Y-64707872D01*
X86374035Y-64685826D01*
X86360591Y-64660674D01*
X86352312Y-64633382D01*
X86349517Y-64605000D01*
X86349275Y-64602546D01*
X86349275Y-63797454D01*
X86352312Y-63766619D01*
X86360591Y-63739326D01*
X86374036Y-63714173D01*
X86392128Y-63692128D01*
X86414173Y-63674036D01*
X86414172Y-63674036D01*
X86414174Y-63674035D01*
X86439326Y-63660591D01*
X86466618Y-63652312D01*
X86473827Y-63651602D01*
X86492540Y-63649759D01*
X86502154Y-63647847D01*
X86511209Y-63644096D01*
X86519359Y-63638650D01*
X86526290Y-63631719D01*
X86531735Y-63623570D01*
X86535486Y-63614514D01*
X86537398Y-63604901D01*
X86537398Y-63595099D01*
X86535486Y-63585485D01*
X86531735Y-63576430D01*
X86526289Y-63568280D01*
X86519358Y-63561349D01*
X86511209Y-63555904D01*
X86502153Y-63552153D01*
X86492540Y-63550241D01*
X86473827Y-63548398D01*
X86466618Y-63547688D01*
X86439326Y-63539409D01*
X86414174Y-63525965D01*
X86392128Y-63507872D01*
X86374035Y-63485826D01*
X86360591Y-63460674D01*
X86352312Y-63433382D01*
X86349517Y-63405000D01*
X86349275Y-63402546D01*
X86349275Y-62597454D01*
X86352312Y-62566619D01*
X86360591Y-62539326D01*
X86374036Y-62514173D01*
X86392128Y-62492128D01*
X86414173Y-62474036D01*
X86414172Y-62474036D01*
X86414174Y-62474035D01*
X86439326Y-62460591D01*
X86466618Y-62452312D01*
X86473827Y-62451602D01*
X86492540Y-62449759D01*
X86502154Y-62447847D01*
X86511209Y-62444096D01*
X86519359Y-62438650D01*
X86526290Y-62431719D01*
X86531735Y-62423570D01*
X86535486Y-62414514D01*
X86537398Y-62404901D01*
X86537398Y-62395099D01*
X86535486Y-62385485D01*
X86531735Y-62376430D01*
X86526289Y-62368280D01*
X86519358Y-62361349D01*
X86511209Y-62355904D01*
X86502153Y-62352153D01*
X86492540Y-62350241D01*
X86473827Y-62348398D01*
X86466618Y-62347688D01*
X86439326Y-62339409D01*
X86414174Y-62325965D01*
X86392128Y-62307872D01*
X86374035Y-62285826D01*
X86360591Y-62260674D01*
X86352312Y-62233382D01*
X86349517Y-62205000D01*
X86349275Y-62202546D01*
X86349275Y-61397454D01*
X86352312Y-61366619D01*
X86360591Y-61339326D01*
X86374036Y-61314173D01*
X86392128Y-61292128D01*
X86414173Y-61274036D01*
X86414172Y-61274036D01*
X86414174Y-61274035D01*
X86439326Y-61260591D01*
X86466618Y-61252312D01*
X86473621Y-61251622D01*
X86497454Y-61249275D01*
X87952546Y-61249275D01*
X87976379Y-61251622D01*
X87976379Y-61251622D01*
G37*
G36*
X73526379Y-61251622D02*
X73533382Y-61252312D01*
X73560674Y-61260591D01*
X73585826Y-61274035D01*
X73585828Y-61274036D01*
X73585827Y-61274036D01*
X73607872Y-61292128D01*
X73625964Y-61314173D01*
X73639409Y-61339326D01*
X73647688Y-61366619D01*
X73650725Y-61397454D01*
X73650725Y-62202546D01*
X73650483Y-62205000D01*
X73647688Y-62233382D01*
X73639409Y-62260674D01*
X73625965Y-62285826D01*
X73607872Y-62307872D01*
X73585826Y-62325965D01*
X73560674Y-62339409D01*
X73533382Y-62347688D01*
X73526173Y-62348398D01*
X73507460Y-62350241D01*
X73497846Y-62352153D01*
X73488791Y-62355904D01*
X73480641Y-62361350D01*
X73473710Y-62368281D01*
X73468265Y-62376430D01*
X73464514Y-62385486D01*
X73462602Y-62395099D01*
X73462602Y-62404901D01*
X73464514Y-62414515D01*
X73468265Y-62423570D01*
X73473711Y-62431720D01*
X73480642Y-62438651D01*
X73488791Y-62444096D01*
X73497847Y-62447847D01*
X73507460Y-62449759D01*
X73526173Y-62451602D01*
X73533382Y-62452312D01*
X73560674Y-62460591D01*
X73585826Y-62474035D01*
X73585828Y-62474036D01*
X73585827Y-62474036D01*
X73607872Y-62492128D01*
X73625964Y-62514173D01*
X73639409Y-62539326D01*
X73647688Y-62566619D01*
X73650725Y-62597454D01*
X73650725Y-63402546D01*
X73650483Y-63405000D01*
X73647688Y-63433382D01*
X73639409Y-63460674D01*
X73625965Y-63485826D01*
X73607872Y-63507872D01*
X73585826Y-63525965D01*
X73560674Y-63539409D01*
X73533382Y-63547688D01*
X73526173Y-63548398D01*
X73507460Y-63550241D01*
X73497846Y-63552153D01*
X73488791Y-63555904D01*
X73480641Y-63561350D01*
X73473710Y-63568281D01*
X73468265Y-63576430D01*
X73464514Y-63585486D01*
X73462602Y-63595099D01*
X73462602Y-63604901D01*
X73464514Y-63614515D01*
X73468265Y-63623570D01*
X73473711Y-63631720D01*
X73480642Y-63638651D01*
X73488791Y-63644096D01*
X73497847Y-63647847D01*
X73507460Y-63649759D01*
X73526173Y-63651602D01*
X73533382Y-63652312D01*
X73560674Y-63660591D01*
X73585826Y-63674035D01*
X73585828Y-63674036D01*
X73585827Y-63674036D01*
X73607872Y-63692128D01*
X73625964Y-63714173D01*
X73639409Y-63739326D01*
X73647688Y-63766619D01*
X73650725Y-63797454D01*
X73650725Y-64602546D01*
X73650483Y-64605000D01*
X73647688Y-64633382D01*
X73639409Y-64660674D01*
X73625965Y-64685826D01*
X73607872Y-64707872D01*
X73585826Y-64725965D01*
X73560674Y-64739409D01*
X73533382Y-64747688D01*
X73526379Y-64748378D01*
X73502546Y-64750725D01*
X72047454Y-64750725D01*
X72023621Y-64748378D01*
X72016618Y-64747688D01*
X71989326Y-64739409D01*
X71964174Y-64725965D01*
X71942128Y-64707872D01*
X71924035Y-64685826D01*
X71910591Y-64660674D01*
X71902312Y-64633382D01*
X71899517Y-64605000D01*
X71899275Y-64602546D01*
X71899275Y-63797454D01*
X71902312Y-63766619D01*
X71910591Y-63739326D01*
X71924036Y-63714173D01*
X71942128Y-63692128D01*
X71964173Y-63674036D01*
X71964172Y-63674036D01*
X71964174Y-63674035D01*
X71989326Y-63660591D01*
X72016618Y-63652312D01*
X72023827Y-63651602D01*
X72042540Y-63649759D01*
X72052154Y-63647847D01*
X72061209Y-63644096D01*
X72069359Y-63638650D01*
X72076290Y-63631719D01*
X72081735Y-63623570D01*
X72085486Y-63614514D01*
X72087398Y-63604901D01*
X72087398Y-63595099D01*
X72085486Y-63585485D01*
X72081735Y-63576430D01*
X72076289Y-63568280D01*
X72069358Y-63561349D01*
X72061209Y-63555904D01*
X72052153Y-63552153D01*
X72042540Y-63550241D01*
X72023827Y-63548398D01*
X72016618Y-63547688D01*
X71989326Y-63539409D01*
X71964174Y-63525965D01*
X71942128Y-63507872D01*
X71924035Y-63485826D01*
X71910591Y-63460674D01*
X71902312Y-63433382D01*
X71899517Y-63405000D01*
X71899275Y-63402546D01*
X71899275Y-62597454D01*
X71902312Y-62566619D01*
X71910591Y-62539326D01*
X71924036Y-62514173D01*
X71942128Y-62492128D01*
X71964173Y-62474036D01*
X71964172Y-62474036D01*
X71964174Y-62474035D01*
X71989326Y-62460591D01*
X72016618Y-62452312D01*
X72023827Y-62451602D01*
X72042540Y-62449759D01*
X72052154Y-62447847D01*
X72061209Y-62444096D01*
X72069359Y-62438650D01*
X72076290Y-62431719D01*
X72081735Y-62423570D01*
X72085486Y-62414514D01*
X72087398Y-62404901D01*
X72087398Y-62395099D01*
X72085486Y-62385485D01*
X72081735Y-62376430D01*
X72076289Y-62368280D01*
X72069358Y-62361349D01*
X72061209Y-62355904D01*
X72052153Y-62352153D01*
X72042540Y-62350241D01*
X72023827Y-62348398D01*
X72016618Y-62347688D01*
X71989326Y-62339409D01*
X71964174Y-62325965D01*
X71942128Y-62307872D01*
X71924035Y-62285826D01*
X71910591Y-62260674D01*
X71902312Y-62233382D01*
X71899517Y-62205000D01*
X71899275Y-62202546D01*
X71899275Y-61397454D01*
X71902312Y-61366619D01*
X71910591Y-61339326D01*
X71924036Y-61314173D01*
X71942128Y-61292128D01*
X71964173Y-61274036D01*
X71964172Y-61274036D01*
X71964174Y-61274035D01*
X71989326Y-61260591D01*
X72016618Y-61252312D01*
X72023621Y-61251622D01*
X72047454Y-61249275D01*
X73502546Y-61249275D01*
X73526379Y-61251622D01*
X73526379Y-61251622D01*
G37*
G36*
X81490000Y-56460000D02*
X81490961Y-56469755D01*
X81493806Y-56479134D01*
X81498427Y-56487779D01*
X81504645Y-56495355D01*
X81512221Y-56501573D01*
X81520866Y-56506194D01*
X81530245Y-56509039D01*
X81540000Y-56510000D01*
X82500000Y-56510000D01*
X82500000Y-59490000D01*
X81540000Y-59490000D01*
X81530245Y-59490961D01*
X81520866Y-59493806D01*
X81512221Y-59498427D01*
X81504645Y-59504645D01*
X81498427Y-59512221D01*
X81493806Y-59520866D01*
X81490961Y-59530245D01*
X81490000Y-59540000D01*
X81490000Y-60500000D01*
X78510000Y-60500000D01*
X78510000Y-59538361D01*
X78509039Y-59528606D01*
X78506194Y-59519227D01*
X78501573Y-59510582D01*
X78495355Y-59503006D01*
X78487779Y-59496788D01*
X78479134Y-59492167D01*
X78469755Y-59489322D01*
X78460000Y-59488361D01*
X78455099Y-59488602D01*
X78433546Y-59490725D01*
X77616454Y-59490725D01*
X77591666Y-59488284D01*
X77570189Y-59481769D01*
X77550396Y-59471189D01*
X77533048Y-59456952D01*
X77518811Y-59439604D01*
X77508231Y-59419811D01*
X77501716Y-59398334D01*
X77499275Y-59373546D01*
X77499275Y-59126454D01*
X77501716Y-59101666D01*
X77508231Y-59080189D01*
X77518811Y-59060396D01*
X77526802Y-59050659D01*
X77533048Y-59043048D01*
X77538411Y-59038647D01*
X77545339Y-59031718D01*
X77550784Y-59023568D01*
X77554534Y-59014513D01*
X77556446Y-59004899D01*
X77556446Y-58995098D01*
X77554534Y-58985484D01*
X77550782Y-58976429D01*
X77545337Y-58968279D01*
X77538411Y-58961353D01*
X77533048Y-58956952D01*
X77526802Y-58949341D01*
X77518811Y-58939604D01*
X77508231Y-58919811D01*
X77501716Y-58898334D01*
X77499275Y-58873546D01*
X77499275Y-58626454D01*
X77501716Y-58601666D01*
X77508231Y-58580189D01*
X77518811Y-58560396D01*
X77526802Y-58550659D01*
X77533048Y-58543048D01*
X77538411Y-58538647D01*
X77545339Y-58531718D01*
X77550784Y-58523568D01*
X77554534Y-58514513D01*
X77556446Y-58504899D01*
X77556446Y-58495098D01*
X77554534Y-58485484D01*
X77550782Y-58476429D01*
X77545337Y-58468279D01*
X77538411Y-58461353D01*
X77533048Y-58456952D01*
X77526802Y-58449341D01*
X77518811Y-58439604D01*
X77508231Y-58419811D01*
X77501716Y-58398334D01*
X77499275Y-58373546D01*
X77499275Y-58126454D01*
X77501716Y-58101666D01*
X77508231Y-58080189D01*
X77518811Y-58060396D01*
X77526802Y-58050659D01*
X77533048Y-58043048D01*
X77538411Y-58038647D01*
X77545339Y-58031718D01*
X77550784Y-58023568D01*
X77554534Y-58014513D01*
X77556446Y-58004899D01*
X77556446Y-57995098D01*
X77554534Y-57985484D01*
X77550782Y-57976429D01*
X77545337Y-57968279D01*
X77538411Y-57961353D01*
X77533048Y-57956952D01*
X77526802Y-57949341D01*
X77518811Y-57939604D01*
X77508231Y-57919811D01*
X77501716Y-57898334D01*
X77499275Y-57873546D01*
X77499275Y-57626454D01*
X77501716Y-57601666D01*
X77508231Y-57580189D01*
X77518811Y-57560396D01*
X77527343Y-57550000D01*
X77533048Y-57543048D01*
X77538411Y-57538647D01*
X77545339Y-57531718D01*
X77550784Y-57523568D01*
X77554534Y-57514513D01*
X77556446Y-57504899D01*
X77556446Y-57495098D01*
X77554534Y-57485484D01*
X77550782Y-57476429D01*
X77545337Y-57468279D01*
X77538411Y-57461353D01*
X77533048Y-57456952D01*
X77526802Y-57449341D01*
X77518811Y-57439604D01*
X77508231Y-57419811D01*
X77501716Y-57398334D01*
X77499275Y-57373546D01*
X77499275Y-57126454D01*
X77501716Y-57101666D01*
X77508231Y-57080189D01*
X77518811Y-57060396D01*
X77526802Y-57050659D01*
X77533048Y-57043048D01*
X77538411Y-57038647D01*
X77545339Y-57031718D01*
X77550784Y-57023568D01*
X77554534Y-57014513D01*
X77556446Y-57004899D01*
X77556446Y-56995098D01*
X77554534Y-56985484D01*
X77550782Y-56976429D01*
X77545337Y-56968279D01*
X77538411Y-56961353D01*
X77533048Y-56956952D01*
X77526802Y-56949341D01*
X77518811Y-56939604D01*
X77508231Y-56919811D01*
X77501716Y-56898334D01*
X77499275Y-56873546D01*
X77499275Y-56626454D01*
X77501716Y-56601666D01*
X77508231Y-56580189D01*
X77518811Y-56560396D01*
X77533048Y-56543048D01*
X77550396Y-56528811D01*
X77570189Y-56518231D01*
X77591666Y-56511716D01*
X77616454Y-56509275D01*
X78433546Y-56509275D01*
X78455099Y-56511398D01*
X78464900Y-56511398D01*
X78474514Y-56509486D01*
X78483569Y-56505735D01*
X78491719Y-56500290D01*
X78498650Y-56493359D01*
X78504096Y-56485209D01*
X78507847Y-56476154D01*
X78509759Y-56466540D01*
X78510000Y-56461639D01*
X78510000Y-55500000D01*
X81490000Y-55500000D01*
X81490000Y-56460000D01*
X81490000Y-56460000D01*
G37*
G36*
X61490000Y-56460000D02*
X61490961Y-56469755D01*
X61493806Y-56479134D01*
X61498427Y-56487779D01*
X61504645Y-56495355D01*
X61512221Y-56501573D01*
X61520866Y-56506194D01*
X61530245Y-56509039D01*
X61540000Y-56510000D01*
X62500000Y-56510000D01*
X62500000Y-59490000D01*
X61540000Y-59490000D01*
X61530245Y-59490961D01*
X61520866Y-59493806D01*
X61512221Y-59498427D01*
X61504645Y-59504645D01*
X61498427Y-59512221D01*
X61493806Y-59520866D01*
X61490961Y-59530245D01*
X61490000Y-59540000D01*
X61490000Y-60500000D01*
X58510000Y-60500000D01*
X58510000Y-59538361D01*
X58509039Y-59528606D01*
X58506194Y-59519227D01*
X58501573Y-59510582D01*
X58495355Y-59503006D01*
X58487779Y-59496788D01*
X58479134Y-59492167D01*
X58469755Y-59489322D01*
X58460000Y-59488361D01*
X58455099Y-59488602D01*
X58433546Y-59490725D01*
X57616454Y-59490725D01*
X57591666Y-59488284D01*
X57570189Y-59481769D01*
X57550396Y-59471189D01*
X57533048Y-59456952D01*
X57518811Y-59439604D01*
X57508231Y-59419811D01*
X57501716Y-59398334D01*
X57499275Y-59373546D01*
X57499275Y-59126454D01*
X57501716Y-59101666D01*
X57508231Y-59080189D01*
X57518811Y-59060396D01*
X57526802Y-59050659D01*
X57533048Y-59043048D01*
X57538411Y-59038647D01*
X57545339Y-59031718D01*
X57550784Y-59023568D01*
X57554534Y-59014513D01*
X57556446Y-59004899D01*
X57556446Y-58995098D01*
X57554534Y-58985484D01*
X57550782Y-58976429D01*
X57545337Y-58968279D01*
X57538411Y-58961353D01*
X57533048Y-58956952D01*
X57526802Y-58949341D01*
X57518811Y-58939604D01*
X57508231Y-58919811D01*
X57501716Y-58898334D01*
X57499275Y-58873546D01*
X57499275Y-58626454D01*
X57501716Y-58601666D01*
X57508231Y-58580189D01*
X57518811Y-58560396D01*
X57526802Y-58550659D01*
X57533048Y-58543048D01*
X57538411Y-58538647D01*
X57545339Y-58531718D01*
X57550784Y-58523568D01*
X57554534Y-58514513D01*
X57556446Y-58504899D01*
X57556446Y-58495098D01*
X57554534Y-58485484D01*
X57550782Y-58476429D01*
X57545337Y-58468279D01*
X57538411Y-58461353D01*
X57533048Y-58456952D01*
X57526802Y-58449341D01*
X57518811Y-58439604D01*
X57508231Y-58419811D01*
X57501716Y-58398334D01*
X57499275Y-58373546D01*
X57499275Y-58126454D01*
X57501716Y-58101666D01*
X57508231Y-58080189D01*
X57518811Y-58060396D01*
X57526802Y-58050659D01*
X57533048Y-58043048D01*
X57538411Y-58038647D01*
X57545339Y-58031718D01*
X57550784Y-58023568D01*
X57554534Y-58014513D01*
X57556446Y-58004899D01*
X57556446Y-57995098D01*
X57554534Y-57985484D01*
X57550782Y-57976429D01*
X57545337Y-57968279D01*
X57538411Y-57961353D01*
X57533048Y-57956952D01*
X57526802Y-57949341D01*
X57518811Y-57939604D01*
X57508231Y-57919811D01*
X57501716Y-57898334D01*
X57499275Y-57873546D01*
X57499275Y-57626454D01*
X57501716Y-57601666D01*
X57508231Y-57580189D01*
X57518811Y-57560396D01*
X57527343Y-57550000D01*
X57533048Y-57543048D01*
X57538411Y-57538647D01*
X57545339Y-57531718D01*
X57550784Y-57523568D01*
X57554534Y-57514513D01*
X57556446Y-57504899D01*
X57556446Y-57495098D01*
X57554534Y-57485484D01*
X57550782Y-57476429D01*
X57545337Y-57468279D01*
X57538411Y-57461353D01*
X57533048Y-57456952D01*
X57526802Y-57449341D01*
X57518811Y-57439604D01*
X57508231Y-57419811D01*
X57501716Y-57398334D01*
X57499275Y-57373546D01*
X57499275Y-57126454D01*
X57501716Y-57101666D01*
X57508231Y-57080189D01*
X57518811Y-57060396D01*
X57526802Y-57050659D01*
X57533048Y-57043048D01*
X57538411Y-57038647D01*
X57545339Y-57031718D01*
X57550784Y-57023568D01*
X57554534Y-57014513D01*
X57556446Y-57004899D01*
X57556446Y-56995098D01*
X57554534Y-56985484D01*
X57550782Y-56976429D01*
X57545337Y-56968279D01*
X57538411Y-56961353D01*
X57533048Y-56956952D01*
X57526802Y-56949341D01*
X57518811Y-56939604D01*
X57508231Y-56919811D01*
X57501716Y-56898334D01*
X57499275Y-56873546D01*
X57499275Y-56626454D01*
X57501716Y-56601666D01*
X57508231Y-56580189D01*
X57518811Y-56560396D01*
X57533048Y-56543048D01*
X57550396Y-56528811D01*
X57570189Y-56518231D01*
X57591666Y-56511716D01*
X57616454Y-56509275D01*
X58433546Y-56509275D01*
X58455099Y-56511398D01*
X58464900Y-56511398D01*
X58474514Y-56509486D01*
X58483569Y-56505735D01*
X58491719Y-56500290D01*
X58498650Y-56493359D01*
X58504096Y-56485209D01*
X58507847Y-56476154D01*
X58509759Y-56466540D01*
X58510000Y-56461639D01*
X58510000Y-55500000D01*
X61490000Y-55500000D01*
X61490000Y-56460000D01*
X61490000Y-56460000D01*
G37*
G36*
X64750000Y-59475000D02*
X63750000Y-59475000D01*
X63750000Y-58525000D01*
X64750000Y-58525000D01*
X64750000Y-59475000D01*
X64750000Y-59475000D01*
G37*
G36*
X66250000Y-59475000D02*
X65250000Y-59475000D01*
X65250000Y-58525000D01*
X66250000Y-58525000D01*
X66250000Y-59475000D01*
X66250000Y-59475000D01*
G37*
G36*
X84750000Y-59475000D02*
X83750000Y-59475000D01*
X83750000Y-58525000D01*
X84750000Y-58525000D01*
X84750000Y-59475000D01*
X84750000Y-59475000D01*
G37*
G36*
X86250000Y-59475000D02*
X85250000Y-59475000D01*
X85250000Y-58525000D01*
X86250000Y-58525000D01*
X86250000Y-59475000D01*
X86250000Y-59475000D01*
G37*
G36*
X64600000Y-57550000D02*
X63900000Y-57550000D01*
X63900000Y-56450000D01*
X64600000Y-56450000D01*
X64600000Y-57550000D01*
X64600000Y-57550000D01*
G37*
G36*
X84600000Y-57550000D02*
X83900000Y-57550000D01*
X83900000Y-56450000D01*
X84600000Y-56450000D01*
X84600000Y-57550000D01*
X84600000Y-57550000D01*
G37*
G36*
X86100000Y-57550000D02*
X85400000Y-57550000D01*
X85400000Y-56450000D01*
X86100000Y-56450000D01*
X86100000Y-57550000D01*
X86100000Y-57550000D01*
G37*
G36*
X66100000Y-57550000D02*
X65400000Y-57550000D01*
X65400000Y-56450000D01*
X66100000Y-56450000D01*
X66100000Y-57550000D01*
X66100000Y-57550000D01*
G37*
G36*
X83526379Y-51251622D02*
X83533382Y-51252312D01*
X83560674Y-51260591D01*
X83585826Y-51274035D01*
X83585828Y-51274036D01*
X83585827Y-51274036D01*
X83607872Y-51292128D01*
X83625964Y-51314173D01*
X83639409Y-51339326D01*
X83647688Y-51366619D01*
X83650725Y-51397454D01*
X83650725Y-52202546D01*
X83650483Y-52205000D01*
X83647688Y-52233382D01*
X83639409Y-52260674D01*
X83625965Y-52285826D01*
X83607872Y-52307872D01*
X83585826Y-52325965D01*
X83560674Y-52339409D01*
X83533382Y-52347688D01*
X83526173Y-52348398D01*
X83507460Y-52350241D01*
X83497846Y-52352153D01*
X83488791Y-52355904D01*
X83480641Y-52361350D01*
X83473710Y-52368281D01*
X83468265Y-52376430D01*
X83464514Y-52385486D01*
X83462602Y-52395099D01*
X83462602Y-52404901D01*
X83464514Y-52414515D01*
X83468265Y-52423570D01*
X83473711Y-52431720D01*
X83480642Y-52438651D01*
X83488791Y-52444096D01*
X83497847Y-52447847D01*
X83507460Y-52449759D01*
X83526173Y-52451602D01*
X83533382Y-52452312D01*
X83560674Y-52460591D01*
X83585826Y-52474035D01*
X83585828Y-52474036D01*
X83585827Y-52474036D01*
X83607872Y-52492128D01*
X83625964Y-52514173D01*
X83639409Y-52539326D01*
X83647688Y-52566619D01*
X83650725Y-52597454D01*
X83650725Y-53402546D01*
X83650483Y-53405000D01*
X83647688Y-53433382D01*
X83639409Y-53460674D01*
X83625965Y-53485826D01*
X83607872Y-53507872D01*
X83585826Y-53525965D01*
X83560674Y-53539409D01*
X83533382Y-53547688D01*
X83526173Y-53548398D01*
X83507460Y-53550241D01*
X83497846Y-53552153D01*
X83488791Y-53555904D01*
X83480641Y-53561350D01*
X83473710Y-53568281D01*
X83468265Y-53576430D01*
X83464514Y-53585486D01*
X83462602Y-53595099D01*
X83462602Y-53604901D01*
X83464514Y-53614515D01*
X83468265Y-53623570D01*
X83473711Y-53631720D01*
X83480642Y-53638651D01*
X83488791Y-53644096D01*
X83497847Y-53647847D01*
X83507460Y-53649759D01*
X83526173Y-53651602D01*
X83533382Y-53652312D01*
X83560674Y-53660591D01*
X83585826Y-53674035D01*
X83585828Y-53674036D01*
X83585827Y-53674036D01*
X83607872Y-53692128D01*
X83625964Y-53714173D01*
X83639409Y-53739326D01*
X83647688Y-53766619D01*
X83650725Y-53797454D01*
X83650725Y-54602546D01*
X83650483Y-54605000D01*
X83647688Y-54633382D01*
X83639409Y-54660674D01*
X83625965Y-54685826D01*
X83607872Y-54707872D01*
X83585826Y-54725965D01*
X83560674Y-54739409D01*
X83533382Y-54747688D01*
X83526379Y-54748378D01*
X83502546Y-54750725D01*
X82047454Y-54750725D01*
X82023621Y-54748378D01*
X82016618Y-54747688D01*
X81989326Y-54739409D01*
X81964174Y-54725965D01*
X81942128Y-54707872D01*
X81924035Y-54685826D01*
X81910591Y-54660674D01*
X81902312Y-54633382D01*
X81899517Y-54605000D01*
X81899275Y-54602546D01*
X81899275Y-53797454D01*
X81902312Y-53766619D01*
X81910591Y-53739326D01*
X81924036Y-53714173D01*
X81942128Y-53692128D01*
X81964173Y-53674036D01*
X81964172Y-53674036D01*
X81964174Y-53674035D01*
X81989326Y-53660591D01*
X82016618Y-53652312D01*
X82023827Y-53651602D01*
X82042540Y-53649759D01*
X82052154Y-53647847D01*
X82061209Y-53644096D01*
X82069359Y-53638650D01*
X82076290Y-53631719D01*
X82081735Y-53623570D01*
X82085486Y-53614514D01*
X82087398Y-53604901D01*
X82087398Y-53595099D01*
X82085486Y-53585485D01*
X82081735Y-53576430D01*
X82076289Y-53568280D01*
X82069358Y-53561349D01*
X82061209Y-53555904D01*
X82052153Y-53552153D01*
X82042540Y-53550241D01*
X82023827Y-53548398D01*
X82016618Y-53547688D01*
X81989326Y-53539409D01*
X81964174Y-53525965D01*
X81942128Y-53507872D01*
X81924035Y-53485826D01*
X81910591Y-53460674D01*
X81902312Y-53433382D01*
X81899517Y-53405000D01*
X81899275Y-53402546D01*
X81899275Y-52597454D01*
X81902312Y-52566619D01*
X81910591Y-52539326D01*
X81924036Y-52514173D01*
X81942128Y-52492128D01*
X81964173Y-52474036D01*
X81964172Y-52474036D01*
X81964174Y-52474035D01*
X81989326Y-52460591D01*
X82016618Y-52452312D01*
X82023827Y-52451602D01*
X82042540Y-52449759D01*
X82052154Y-52447847D01*
X82061209Y-52444096D01*
X82069359Y-52438650D01*
X82076290Y-52431719D01*
X82081735Y-52423570D01*
X82085486Y-52414514D01*
X82087398Y-52404901D01*
X82087398Y-52395099D01*
X82085486Y-52385485D01*
X82081735Y-52376430D01*
X82076289Y-52368280D01*
X82069358Y-52361349D01*
X82061209Y-52355904D01*
X82052153Y-52352153D01*
X82042540Y-52350241D01*
X82023827Y-52348398D01*
X82016618Y-52347688D01*
X81989326Y-52339409D01*
X81964174Y-52325965D01*
X81942128Y-52307872D01*
X81924035Y-52285826D01*
X81910591Y-52260674D01*
X81902312Y-52233382D01*
X81899517Y-52205000D01*
X81899275Y-52202546D01*
X81899275Y-51397454D01*
X81902312Y-51366619D01*
X81910591Y-51339326D01*
X81924036Y-51314173D01*
X81942128Y-51292128D01*
X81964173Y-51274036D01*
X81964172Y-51274036D01*
X81964174Y-51274035D01*
X81989326Y-51260591D01*
X82016618Y-51252312D01*
X82023621Y-51251622D01*
X82047454Y-51249275D01*
X83502546Y-51249275D01*
X83526379Y-51251622D01*
X83526379Y-51251622D01*
G37*
G36*
X53526379Y-51251622D02*
X53533382Y-51252312D01*
X53560674Y-51260591D01*
X53585826Y-51274035D01*
X53585828Y-51274036D01*
X53585827Y-51274036D01*
X53607872Y-51292128D01*
X53625964Y-51314173D01*
X53639409Y-51339326D01*
X53647688Y-51366619D01*
X53650725Y-51397454D01*
X53650725Y-52202546D01*
X53650483Y-52205000D01*
X53647688Y-52233382D01*
X53639409Y-52260674D01*
X53625965Y-52285826D01*
X53607872Y-52307872D01*
X53585826Y-52325965D01*
X53560674Y-52339409D01*
X53533382Y-52347688D01*
X53526173Y-52348398D01*
X53507460Y-52350241D01*
X53497846Y-52352153D01*
X53488791Y-52355904D01*
X53480641Y-52361350D01*
X53473710Y-52368281D01*
X53468265Y-52376430D01*
X53464514Y-52385486D01*
X53462602Y-52395099D01*
X53462602Y-52404901D01*
X53464514Y-52414515D01*
X53468265Y-52423570D01*
X53473711Y-52431720D01*
X53480642Y-52438651D01*
X53488791Y-52444096D01*
X53497847Y-52447847D01*
X53507460Y-52449759D01*
X53526173Y-52451602D01*
X53533382Y-52452312D01*
X53560674Y-52460591D01*
X53585826Y-52474035D01*
X53585828Y-52474036D01*
X53585827Y-52474036D01*
X53607872Y-52492128D01*
X53625964Y-52514173D01*
X53639409Y-52539326D01*
X53647688Y-52566619D01*
X53650725Y-52597454D01*
X53650725Y-53402546D01*
X53650483Y-53405000D01*
X53647688Y-53433382D01*
X53639409Y-53460674D01*
X53625965Y-53485826D01*
X53607872Y-53507872D01*
X53585826Y-53525965D01*
X53560674Y-53539409D01*
X53533382Y-53547688D01*
X53526173Y-53548398D01*
X53507460Y-53550241D01*
X53497846Y-53552153D01*
X53488791Y-53555904D01*
X53480641Y-53561350D01*
X53473710Y-53568281D01*
X53468265Y-53576430D01*
X53464514Y-53585486D01*
X53462602Y-53595099D01*
X53462602Y-53604901D01*
X53464514Y-53614515D01*
X53468265Y-53623570D01*
X53473711Y-53631720D01*
X53480642Y-53638651D01*
X53488791Y-53644096D01*
X53497847Y-53647847D01*
X53507460Y-53649759D01*
X53526173Y-53651602D01*
X53533382Y-53652312D01*
X53560674Y-53660591D01*
X53585826Y-53674035D01*
X53585828Y-53674036D01*
X53585827Y-53674036D01*
X53607872Y-53692128D01*
X53625964Y-53714173D01*
X53639409Y-53739326D01*
X53647688Y-53766619D01*
X53650725Y-53797454D01*
X53650725Y-54602546D01*
X53650483Y-54605000D01*
X53647688Y-54633382D01*
X53639409Y-54660674D01*
X53625965Y-54685826D01*
X53607872Y-54707872D01*
X53585826Y-54725965D01*
X53560674Y-54739409D01*
X53533382Y-54747688D01*
X53526379Y-54748378D01*
X53502546Y-54750725D01*
X52047454Y-54750725D01*
X52023621Y-54748378D01*
X52016618Y-54747688D01*
X51989326Y-54739409D01*
X51964174Y-54725965D01*
X51942128Y-54707872D01*
X51924035Y-54685826D01*
X51910591Y-54660674D01*
X51902312Y-54633382D01*
X51899517Y-54605000D01*
X51899275Y-54602546D01*
X51899275Y-53797454D01*
X51902312Y-53766619D01*
X51910591Y-53739326D01*
X51924036Y-53714173D01*
X51942128Y-53692128D01*
X51964173Y-53674036D01*
X51964172Y-53674036D01*
X51964174Y-53674035D01*
X51989326Y-53660591D01*
X52016618Y-53652312D01*
X52023827Y-53651602D01*
X52042540Y-53649759D01*
X52052154Y-53647847D01*
X52061209Y-53644096D01*
X52069359Y-53638650D01*
X52076290Y-53631719D01*
X52081735Y-53623570D01*
X52085486Y-53614514D01*
X52087398Y-53604901D01*
X52087398Y-53595099D01*
X52085486Y-53585485D01*
X52081735Y-53576430D01*
X52076289Y-53568280D01*
X52069358Y-53561349D01*
X52061209Y-53555904D01*
X52052153Y-53552153D01*
X52042540Y-53550241D01*
X52023827Y-53548398D01*
X52016618Y-53547688D01*
X51989326Y-53539409D01*
X51964174Y-53525965D01*
X51942128Y-53507872D01*
X51924035Y-53485826D01*
X51910591Y-53460674D01*
X51902312Y-53433382D01*
X51899517Y-53405000D01*
X51899275Y-53402546D01*
X51899275Y-52597454D01*
X51902312Y-52566619D01*
X51910591Y-52539326D01*
X51924036Y-52514173D01*
X51942128Y-52492128D01*
X51964173Y-52474036D01*
X51964172Y-52474036D01*
X51964174Y-52474035D01*
X51989326Y-52460591D01*
X52016618Y-52452312D01*
X52023827Y-52451602D01*
X52042540Y-52449759D01*
X52052154Y-52447847D01*
X52061209Y-52444096D01*
X52069359Y-52438650D01*
X52076290Y-52431719D01*
X52081735Y-52423570D01*
X52085486Y-52414514D01*
X52087398Y-52404901D01*
X52087398Y-52395099D01*
X52085486Y-52385485D01*
X52081735Y-52376430D01*
X52076289Y-52368280D01*
X52069358Y-52361349D01*
X52061209Y-52355904D01*
X52052153Y-52352153D01*
X52042540Y-52350241D01*
X52023827Y-52348398D01*
X52016618Y-52347688D01*
X51989326Y-52339409D01*
X51964174Y-52325965D01*
X51942128Y-52307872D01*
X51924035Y-52285826D01*
X51910591Y-52260674D01*
X51902312Y-52233382D01*
X51899517Y-52205000D01*
X51899275Y-52202546D01*
X51899275Y-51397454D01*
X51902312Y-51366619D01*
X51910591Y-51339326D01*
X51924036Y-51314173D01*
X51942128Y-51292128D01*
X51964173Y-51274036D01*
X51964172Y-51274036D01*
X51964174Y-51274035D01*
X51989326Y-51260591D01*
X52016618Y-51252312D01*
X52023621Y-51251622D01*
X52047454Y-51249275D01*
X53502546Y-51249275D01*
X53526379Y-51251622D01*
X53526379Y-51251622D01*
G37*
G36*
X57976379Y-51251622D02*
X57983382Y-51252312D01*
X58010674Y-51260591D01*
X58035826Y-51274035D01*
X58035828Y-51274036D01*
X58035827Y-51274036D01*
X58057872Y-51292128D01*
X58075964Y-51314173D01*
X58089409Y-51339326D01*
X58097688Y-51366619D01*
X58100725Y-51397454D01*
X58100725Y-52202546D01*
X58100483Y-52205000D01*
X58097688Y-52233382D01*
X58089409Y-52260674D01*
X58075965Y-52285826D01*
X58057872Y-52307872D01*
X58035826Y-52325965D01*
X58010674Y-52339409D01*
X57983382Y-52347688D01*
X57976173Y-52348398D01*
X57957460Y-52350241D01*
X57947846Y-52352153D01*
X57938791Y-52355904D01*
X57930641Y-52361350D01*
X57923710Y-52368281D01*
X57918265Y-52376430D01*
X57914514Y-52385486D01*
X57912602Y-52395099D01*
X57912602Y-52404901D01*
X57914514Y-52414515D01*
X57918265Y-52423570D01*
X57923711Y-52431720D01*
X57930642Y-52438651D01*
X57938791Y-52444096D01*
X57947847Y-52447847D01*
X57957460Y-52449759D01*
X57976173Y-52451602D01*
X57983382Y-52452312D01*
X58010674Y-52460591D01*
X58035826Y-52474035D01*
X58035828Y-52474036D01*
X58035827Y-52474036D01*
X58057872Y-52492128D01*
X58075964Y-52514173D01*
X58089409Y-52539326D01*
X58097688Y-52566619D01*
X58100725Y-52597454D01*
X58100725Y-53402546D01*
X58100483Y-53405000D01*
X58097688Y-53433382D01*
X58089409Y-53460674D01*
X58075965Y-53485826D01*
X58057872Y-53507872D01*
X58035826Y-53525965D01*
X58010674Y-53539409D01*
X57983382Y-53547688D01*
X57976173Y-53548398D01*
X57957460Y-53550241D01*
X57947846Y-53552153D01*
X57938791Y-53555904D01*
X57930641Y-53561350D01*
X57923710Y-53568281D01*
X57918265Y-53576430D01*
X57914514Y-53585486D01*
X57912602Y-53595099D01*
X57912602Y-53604901D01*
X57914514Y-53614515D01*
X57918265Y-53623570D01*
X57923711Y-53631720D01*
X57930642Y-53638651D01*
X57938791Y-53644096D01*
X57947847Y-53647847D01*
X57957460Y-53649759D01*
X57976173Y-53651602D01*
X57983382Y-53652312D01*
X58010674Y-53660591D01*
X58035826Y-53674035D01*
X58035828Y-53674036D01*
X58035827Y-53674036D01*
X58057872Y-53692128D01*
X58075964Y-53714173D01*
X58089409Y-53739326D01*
X58097688Y-53766619D01*
X58100725Y-53797454D01*
X58100725Y-54602546D01*
X58100483Y-54605000D01*
X58097688Y-54633382D01*
X58089409Y-54660674D01*
X58075965Y-54685826D01*
X58057872Y-54707872D01*
X58035826Y-54725965D01*
X58010674Y-54739409D01*
X57983382Y-54747688D01*
X57976379Y-54748378D01*
X57952546Y-54750725D01*
X56497454Y-54750725D01*
X56473621Y-54748378D01*
X56466618Y-54747688D01*
X56439326Y-54739409D01*
X56414174Y-54725965D01*
X56392128Y-54707872D01*
X56374035Y-54685826D01*
X56360591Y-54660674D01*
X56352312Y-54633382D01*
X56349517Y-54605000D01*
X56349275Y-54602546D01*
X56349275Y-53797454D01*
X56352312Y-53766619D01*
X56360591Y-53739326D01*
X56374036Y-53714173D01*
X56392128Y-53692128D01*
X56414173Y-53674036D01*
X56414172Y-53674036D01*
X56414174Y-53674035D01*
X56439326Y-53660591D01*
X56466618Y-53652312D01*
X56473827Y-53651602D01*
X56492540Y-53649759D01*
X56502154Y-53647847D01*
X56511209Y-53644096D01*
X56519359Y-53638650D01*
X56526290Y-53631719D01*
X56531735Y-53623570D01*
X56535486Y-53614514D01*
X56537398Y-53604901D01*
X56537398Y-53595099D01*
X56535486Y-53585485D01*
X56531735Y-53576430D01*
X56526289Y-53568280D01*
X56519358Y-53561349D01*
X56511209Y-53555904D01*
X56502153Y-53552153D01*
X56492540Y-53550241D01*
X56473827Y-53548398D01*
X56466618Y-53547688D01*
X56439326Y-53539409D01*
X56414174Y-53525965D01*
X56392128Y-53507872D01*
X56374035Y-53485826D01*
X56360591Y-53460674D01*
X56352312Y-53433382D01*
X56349517Y-53405000D01*
X56349275Y-53402546D01*
X56349275Y-52597454D01*
X56352312Y-52566619D01*
X56360591Y-52539326D01*
X56374036Y-52514173D01*
X56392128Y-52492128D01*
X56414173Y-52474036D01*
X56414172Y-52474036D01*
X56414174Y-52474035D01*
X56439326Y-52460591D01*
X56466618Y-52452312D01*
X56473827Y-52451602D01*
X56492540Y-52449759D01*
X56502154Y-52447847D01*
X56511209Y-52444096D01*
X56519359Y-52438650D01*
X56526290Y-52431719D01*
X56531735Y-52423570D01*
X56535486Y-52414514D01*
X56537398Y-52404901D01*
X56537398Y-52395099D01*
X56535486Y-52385485D01*
X56531735Y-52376430D01*
X56526289Y-52368280D01*
X56519358Y-52361349D01*
X56511209Y-52355904D01*
X56502153Y-52352153D01*
X56492540Y-52350241D01*
X56473827Y-52348398D01*
X56466618Y-52347688D01*
X56439326Y-52339409D01*
X56414174Y-52325965D01*
X56392128Y-52307872D01*
X56374035Y-52285826D01*
X56360591Y-52260674D01*
X56352312Y-52233382D01*
X56349517Y-52205000D01*
X56349275Y-52202546D01*
X56349275Y-51397454D01*
X56352312Y-51366619D01*
X56360591Y-51339326D01*
X56374036Y-51314173D01*
X56392128Y-51292128D01*
X56414173Y-51274036D01*
X56414172Y-51274036D01*
X56414174Y-51274035D01*
X56439326Y-51260591D01*
X56466618Y-51252312D01*
X56473621Y-51251622D01*
X56497454Y-51249275D01*
X57952546Y-51249275D01*
X57976379Y-51251622D01*
X57976379Y-51251622D01*
G37*
G36*
X63526379Y-51251622D02*
X63533382Y-51252312D01*
X63560674Y-51260591D01*
X63585826Y-51274035D01*
X63585828Y-51274036D01*
X63585827Y-51274036D01*
X63607872Y-51292128D01*
X63625964Y-51314173D01*
X63639409Y-51339326D01*
X63647688Y-51366619D01*
X63650725Y-51397454D01*
X63650725Y-52202546D01*
X63650483Y-52205000D01*
X63647688Y-52233382D01*
X63639409Y-52260674D01*
X63625965Y-52285826D01*
X63607872Y-52307872D01*
X63585826Y-52325965D01*
X63560674Y-52339409D01*
X63533382Y-52347688D01*
X63526173Y-52348398D01*
X63507460Y-52350241D01*
X63497846Y-52352153D01*
X63488791Y-52355904D01*
X63480641Y-52361350D01*
X63473710Y-52368281D01*
X63468265Y-52376430D01*
X63464514Y-52385486D01*
X63462602Y-52395099D01*
X63462602Y-52404901D01*
X63464514Y-52414515D01*
X63468265Y-52423570D01*
X63473711Y-52431720D01*
X63480642Y-52438651D01*
X63488791Y-52444096D01*
X63497847Y-52447847D01*
X63507460Y-52449759D01*
X63526173Y-52451602D01*
X63533382Y-52452312D01*
X63560674Y-52460591D01*
X63585826Y-52474035D01*
X63585828Y-52474036D01*
X63585827Y-52474036D01*
X63607872Y-52492128D01*
X63625964Y-52514173D01*
X63639409Y-52539326D01*
X63647688Y-52566619D01*
X63650725Y-52597454D01*
X63650725Y-53402546D01*
X63650483Y-53405000D01*
X63647688Y-53433382D01*
X63639409Y-53460674D01*
X63625965Y-53485826D01*
X63607872Y-53507872D01*
X63585826Y-53525965D01*
X63560674Y-53539409D01*
X63533382Y-53547688D01*
X63526173Y-53548398D01*
X63507460Y-53550241D01*
X63497846Y-53552153D01*
X63488791Y-53555904D01*
X63480641Y-53561350D01*
X63473710Y-53568281D01*
X63468265Y-53576430D01*
X63464514Y-53585486D01*
X63462602Y-53595099D01*
X63462602Y-53604901D01*
X63464514Y-53614515D01*
X63468265Y-53623570D01*
X63473711Y-53631720D01*
X63480642Y-53638651D01*
X63488791Y-53644096D01*
X63497847Y-53647847D01*
X63507460Y-53649759D01*
X63526173Y-53651602D01*
X63533382Y-53652312D01*
X63560674Y-53660591D01*
X63585826Y-53674035D01*
X63585828Y-53674036D01*
X63585827Y-53674036D01*
X63607872Y-53692128D01*
X63625964Y-53714173D01*
X63639409Y-53739326D01*
X63647688Y-53766619D01*
X63650725Y-53797454D01*
X63650725Y-54602546D01*
X63650483Y-54605000D01*
X63647688Y-54633382D01*
X63639409Y-54660674D01*
X63625965Y-54685826D01*
X63607872Y-54707872D01*
X63585826Y-54725965D01*
X63560674Y-54739409D01*
X63533382Y-54747688D01*
X63526379Y-54748378D01*
X63502546Y-54750725D01*
X62047454Y-54750725D01*
X62023621Y-54748378D01*
X62016618Y-54747688D01*
X61989326Y-54739409D01*
X61964174Y-54725965D01*
X61942128Y-54707872D01*
X61924035Y-54685826D01*
X61910591Y-54660674D01*
X61902312Y-54633382D01*
X61899517Y-54605000D01*
X61899275Y-54602546D01*
X61899275Y-53797454D01*
X61902312Y-53766619D01*
X61910591Y-53739326D01*
X61924036Y-53714173D01*
X61942128Y-53692128D01*
X61964173Y-53674036D01*
X61964172Y-53674036D01*
X61964174Y-53674035D01*
X61989326Y-53660591D01*
X62016618Y-53652312D01*
X62023827Y-53651602D01*
X62042540Y-53649759D01*
X62052154Y-53647847D01*
X62061209Y-53644096D01*
X62069359Y-53638650D01*
X62076290Y-53631719D01*
X62081735Y-53623570D01*
X62085486Y-53614514D01*
X62087398Y-53604901D01*
X62087398Y-53595099D01*
X62085486Y-53585485D01*
X62081735Y-53576430D01*
X62076289Y-53568280D01*
X62069358Y-53561349D01*
X62061209Y-53555904D01*
X62052153Y-53552153D01*
X62042540Y-53550241D01*
X62023827Y-53548398D01*
X62016618Y-53547688D01*
X61989326Y-53539409D01*
X61964174Y-53525965D01*
X61942128Y-53507872D01*
X61924035Y-53485826D01*
X61910591Y-53460674D01*
X61902312Y-53433382D01*
X61899517Y-53405000D01*
X61899275Y-53402546D01*
X61899275Y-52597454D01*
X61902312Y-52566619D01*
X61910591Y-52539326D01*
X61924036Y-52514173D01*
X61942128Y-52492128D01*
X61964173Y-52474036D01*
X61964172Y-52474036D01*
X61964174Y-52474035D01*
X61989326Y-52460591D01*
X62016618Y-52452312D01*
X62023827Y-52451602D01*
X62042540Y-52449759D01*
X62052154Y-52447847D01*
X62061209Y-52444096D01*
X62069359Y-52438650D01*
X62076290Y-52431719D01*
X62081735Y-52423570D01*
X62085486Y-52414514D01*
X62087398Y-52404901D01*
X62087398Y-52395099D01*
X62085486Y-52385485D01*
X62081735Y-52376430D01*
X62076289Y-52368280D01*
X62069358Y-52361349D01*
X62061209Y-52355904D01*
X62052153Y-52352153D01*
X62042540Y-52350241D01*
X62023827Y-52348398D01*
X62016618Y-52347688D01*
X61989326Y-52339409D01*
X61964174Y-52325965D01*
X61942128Y-52307872D01*
X61924035Y-52285826D01*
X61910591Y-52260674D01*
X61902312Y-52233382D01*
X61899517Y-52205000D01*
X61899275Y-52202546D01*
X61899275Y-51397454D01*
X61902312Y-51366619D01*
X61910591Y-51339326D01*
X61924036Y-51314173D01*
X61942128Y-51292128D01*
X61964173Y-51274036D01*
X61964172Y-51274036D01*
X61964174Y-51274035D01*
X61989326Y-51260591D01*
X62016618Y-51252312D01*
X62023621Y-51251622D01*
X62047454Y-51249275D01*
X63502546Y-51249275D01*
X63526379Y-51251622D01*
X63526379Y-51251622D01*
G37*
G36*
X67976379Y-51251622D02*
X67983382Y-51252312D01*
X68010674Y-51260591D01*
X68035826Y-51274035D01*
X68035828Y-51274036D01*
X68035827Y-51274036D01*
X68057872Y-51292128D01*
X68075964Y-51314173D01*
X68089409Y-51339326D01*
X68097688Y-51366619D01*
X68100725Y-51397454D01*
X68100725Y-52202546D01*
X68100483Y-52205000D01*
X68097688Y-52233382D01*
X68089409Y-52260674D01*
X68075965Y-52285826D01*
X68057872Y-52307872D01*
X68035826Y-52325965D01*
X68010674Y-52339409D01*
X67983382Y-52347688D01*
X67976173Y-52348398D01*
X67957460Y-52350241D01*
X67947846Y-52352153D01*
X67938791Y-52355904D01*
X67930641Y-52361350D01*
X67923710Y-52368281D01*
X67918265Y-52376430D01*
X67914514Y-52385486D01*
X67912602Y-52395099D01*
X67912602Y-52404901D01*
X67914514Y-52414515D01*
X67918265Y-52423570D01*
X67923711Y-52431720D01*
X67930642Y-52438651D01*
X67938791Y-52444096D01*
X67947847Y-52447847D01*
X67957460Y-52449759D01*
X67976173Y-52451602D01*
X67983382Y-52452312D01*
X68010674Y-52460591D01*
X68035826Y-52474035D01*
X68035828Y-52474036D01*
X68035827Y-52474036D01*
X68057872Y-52492128D01*
X68075964Y-52514173D01*
X68089409Y-52539326D01*
X68097688Y-52566619D01*
X68100725Y-52597454D01*
X68100725Y-53402546D01*
X68100483Y-53405000D01*
X68097688Y-53433382D01*
X68089409Y-53460674D01*
X68075965Y-53485826D01*
X68057872Y-53507872D01*
X68035826Y-53525965D01*
X68010674Y-53539409D01*
X67983382Y-53547688D01*
X67976173Y-53548398D01*
X67957460Y-53550241D01*
X67947846Y-53552153D01*
X67938791Y-53555904D01*
X67930641Y-53561350D01*
X67923710Y-53568281D01*
X67918265Y-53576430D01*
X67914514Y-53585486D01*
X67912602Y-53595099D01*
X67912602Y-53604901D01*
X67914514Y-53614515D01*
X67918265Y-53623570D01*
X67923711Y-53631720D01*
X67930642Y-53638651D01*
X67938791Y-53644096D01*
X67947847Y-53647847D01*
X67957460Y-53649759D01*
X67976173Y-53651602D01*
X67983382Y-53652312D01*
X68010674Y-53660591D01*
X68035826Y-53674035D01*
X68035828Y-53674036D01*
X68035827Y-53674036D01*
X68057872Y-53692128D01*
X68075964Y-53714173D01*
X68089409Y-53739326D01*
X68097688Y-53766619D01*
X68100725Y-53797454D01*
X68100725Y-54602546D01*
X68100483Y-54605000D01*
X68097688Y-54633382D01*
X68089409Y-54660674D01*
X68075965Y-54685826D01*
X68057872Y-54707872D01*
X68035826Y-54725965D01*
X68010674Y-54739409D01*
X67983382Y-54747688D01*
X67976379Y-54748378D01*
X67952546Y-54750725D01*
X66497454Y-54750725D01*
X66473621Y-54748378D01*
X66466618Y-54747688D01*
X66439326Y-54739409D01*
X66414174Y-54725965D01*
X66392128Y-54707872D01*
X66374035Y-54685826D01*
X66360591Y-54660674D01*
X66352312Y-54633382D01*
X66349517Y-54605000D01*
X66349275Y-54602546D01*
X66349275Y-53797454D01*
X66352312Y-53766619D01*
X66360591Y-53739326D01*
X66374036Y-53714173D01*
X66392128Y-53692128D01*
X66414173Y-53674036D01*
X66414172Y-53674036D01*
X66414174Y-53674035D01*
X66439326Y-53660591D01*
X66466618Y-53652312D01*
X66473827Y-53651602D01*
X66492540Y-53649759D01*
X66502154Y-53647847D01*
X66511209Y-53644096D01*
X66519359Y-53638650D01*
X66526290Y-53631719D01*
X66531735Y-53623570D01*
X66535486Y-53614514D01*
X66537398Y-53604901D01*
X66537398Y-53595099D01*
X66535486Y-53585485D01*
X66531735Y-53576430D01*
X66526289Y-53568280D01*
X66519358Y-53561349D01*
X66511209Y-53555904D01*
X66502153Y-53552153D01*
X66492540Y-53550241D01*
X66473827Y-53548398D01*
X66466618Y-53547688D01*
X66439326Y-53539409D01*
X66414174Y-53525965D01*
X66392128Y-53507872D01*
X66374035Y-53485826D01*
X66360591Y-53460674D01*
X66352312Y-53433382D01*
X66349517Y-53405000D01*
X66349275Y-53402546D01*
X66349275Y-52597454D01*
X66352312Y-52566619D01*
X66360591Y-52539326D01*
X66374036Y-52514173D01*
X66392128Y-52492128D01*
X66414173Y-52474036D01*
X66414172Y-52474036D01*
X66414174Y-52474035D01*
X66439326Y-52460591D01*
X66466618Y-52452312D01*
X66473827Y-52451602D01*
X66492540Y-52449759D01*
X66502154Y-52447847D01*
X66511209Y-52444096D01*
X66519359Y-52438650D01*
X66526290Y-52431719D01*
X66531735Y-52423570D01*
X66535486Y-52414514D01*
X66537398Y-52404901D01*
X66537398Y-52395099D01*
X66535486Y-52385485D01*
X66531735Y-52376430D01*
X66526289Y-52368280D01*
X66519358Y-52361349D01*
X66511209Y-52355904D01*
X66502153Y-52352153D01*
X66492540Y-52350241D01*
X66473827Y-52348398D01*
X66466618Y-52347688D01*
X66439326Y-52339409D01*
X66414174Y-52325965D01*
X66392128Y-52307872D01*
X66374035Y-52285826D01*
X66360591Y-52260674D01*
X66352312Y-52233382D01*
X66349517Y-52205000D01*
X66349275Y-52202546D01*
X66349275Y-51397454D01*
X66352312Y-51366619D01*
X66360591Y-51339326D01*
X66374036Y-51314173D01*
X66392128Y-51292128D01*
X66414173Y-51274036D01*
X66414172Y-51274036D01*
X66414174Y-51274035D01*
X66439326Y-51260591D01*
X66466618Y-51252312D01*
X66473621Y-51251622D01*
X66497454Y-51249275D01*
X67952546Y-51249275D01*
X67976379Y-51251622D01*
X67976379Y-51251622D01*
G37*
G36*
X73526379Y-51251622D02*
X73533382Y-51252312D01*
X73560674Y-51260591D01*
X73585826Y-51274035D01*
X73585828Y-51274036D01*
X73585827Y-51274036D01*
X73607872Y-51292128D01*
X73625964Y-51314173D01*
X73639409Y-51339326D01*
X73647688Y-51366619D01*
X73650725Y-51397454D01*
X73650725Y-52202546D01*
X73650483Y-52205000D01*
X73647688Y-52233382D01*
X73639409Y-52260674D01*
X73625965Y-52285826D01*
X73607872Y-52307872D01*
X73585826Y-52325965D01*
X73560674Y-52339409D01*
X73533382Y-52347688D01*
X73526173Y-52348398D01*
X73507460Y-52350241D01*
X73497846Y-52352153D01*
X73488791Y-52355904D01*
X73480641Y-52361350D01*
X73473710Y-52368281D01*
X73468265Y-52376430D01*
X73464514Y-52385486D01*
X73462602Y-52395099D01*
X73462602Y-52404901D01*
X73464514Y-52414515D01*
X73468265Y-52423570D01*
X73473711Y-52431720D01*
X73480642Y-52438651D01*
X73488791Y-52444096D01*
X73497847Y-52447847D01*
X73507460Y-52449759D01*
X73526173Y-52451602D01*
X73533382Y-52452312D01*
X73560674Y-52460591D01*
X73585826Y-52474035D01*
X73585828Y-52474036D01*
X73585827Y-52474036D01*
X73607872Y-52492128D01*
X73625964Y-52514173D01*
X73639409Y-52539326D01*
X73647688Y-52566619D01*
X73650725Y-52597454D01*
X73650725Y-53402546D01*
X73650483Y-53405000D01*
X73647688Y-53433382D01*
X73639409Y-53460674D01*
X73625965Y-53485826D01*
X73607872Y-53507872D01*
X73585826Y-53525965D01*
X73560674Y-53539409D01*
X73533382Y-53547688D01*
X73526173Y-53548398D01*
X73507460Y-53550241D01*
X73497846Y-53552153D01*
X73488791Y-53555904D01*
X73480641Y-53561350D01*
X73473710Y-53568281D01*
X73468265Y-53576430D01*
X73464514Y-53585486D01*
X73462602Y-53595099D01*
X73462602Y-53604901D01*
X73464514Y-53614515D01*
X73468265Y-53623570D01*
X73473711Y-53631720D01*
X73480642Y-53638651D01*
X73488791Y-53644096D01*
X73497847Y-53647847D01*
X73507460Y-53649759D01*
X73526173Y-53651602D01*
X73533382Y-53652312D01*
X73560674Y-53660591D01*
X73585826Y-53674035D01*
X73585828Y-53674036D01*
X73585827Y-53674036D01*
X73607872Y-53692128D01*
X73625964Y-53714173D01*
X73639409Y-53739326D01*
X73647688Y-53766619D01*
X73650725Y-53797454D01*
X73650725Y-54602546D01*
X73650483Y-54605000D01*
X73647688Y-54633382D01*
X73639409Y-54660674D01*
X73625965Y-54685826D01*
X73607872Y-54707872D01*
X73585826Y-54725965D01*
X73560674Y-54739409D01*
X73533382Y-54747688D01*
X73526379Y-54748378D01*
X73502546Y-54750725D01*
X72047454Y-54750725D01*
X72023621Y-54748378D01*
X72016618Y-54747688D01*
X71989326Y-54739409D01*
X71964174Y-54725965D01*
X71942128Y-54707872D01*
X71924035Y-54685826D01*
X71910591Y-54660674D01*
X71902312Y-54633382D01*
X71899517Y-54605000D01*
X71899275Y-54602546D01*
X71899275Y-53797454D01*
X71902312Y-53766619D01*
X71910591Y-53739326D01*
X71924036Y-53714173D01*
X71942128Y-53692128D01*
X71964173Y-53674036D01*
X71964172Y-53674036D01*
X71964174Y-53674035D01*
X71989326Y-53660591D01*
X72016618Y-53652312D01*
X72023827Y-53651602D01*
X72042540Y-53649759D01*
X72052154Y-53647847D01*
X72061209Y-53644096D01*
X72069359Y-53638650D01*
X72076290Y-53631719D01*
X72081735Y-53623570D01*
X72085486Y-53614514D01*
X72087398Y-53604901D01*
X72087398Y-53595099D01*
X72085486Y-53585485D01*
X72081735Y-53576430D01*
X72076289Y-53568280D01*
X72069358Y-53561349D01*
X72061209Y-53555904D01*
X72052153Y-53552153D01*
X72042540Y-53550241D01*
X72023827Y-53548398D01*
X72016618Y-53547688D01*
X71989326Y-53539409D01*
X71964174Y-53525965D01*
X71942128Y-53507872D01*
X71924035Y-53485826D01*
X71910591Y-53460674D01*
X71902312Y-53433382D01*
X71899517Y-53405000D01*
X71899275Y-53402546D01*
X71899275Y-52597454D01*
X71902312Y-52566619D01*
X71910591Y-52539326D01*
X71924036Y-52514173D01*
X71942128Y-52492128D01*
X71964173Y-52474036D01*
X71964172Y-52474036D01*
X71964174Y-52474035D01*
X71989326Y-52460591D01*
X72016618Y-52452312D01*
X72023827Y-52451602D01*
X72042540Y-52449759D01*
X72052154Y-52447847D01*
X72061209Y-52444096D01*
X72069359Y-52438650D01*
X72076290Y-52431719D01*
X72081735Y-52423570D01*
X72085486Y-52414514D01*
X72087398Y-52404901D01*
X72087398Y-52395099D01*
X72085486Y-52385485D01*
X72081735Y-52376430D01*
X72076289Y-52368280D01*
X72069358Y-52361349D01*
X72061209Y-52355904D01*
X72052153Y-52352153D01*
X72042540Y-52350241D01*
X72023827Y-52348398D01*
X72016618Y-52347688D01*
X71989326Y-52339409D01*
X71964174Y-52325965D01*
X71942128Y-52307872D01*
X71924035Y-52285826D01*
X71910591Y-52260674D01*
X71902312Y-52233382D01*
X71899517Y-52205000D01*
X71899275Y-52202546D01*
X71899275Y-51397454D01*
X71902312Y-51366619D01*
X71910591Y-51339326D01*
X71924036Y-51314173D01*
X71942128Y-51292128D01*
X71964173Y-51274036D01*
X71964172Y-51274036D01*
X71964174Y-51274035D01*
X71989326Y-51260591D01*
X72016618Y-51252312D01*
X72023621Y-51251622D01*
X72047454Y-51249275D01*
X73502546Y-51249275D01*
X73526379Y-51251622D01*
X73526379Y-51251622D01*
G37*
G36*
X77976379Y-51251622D02*
X77983382Y-51252312D01*
X78010674Y-51260591D01*
X78035826Y-51274035D01*
X78035828Y-51274036D01*
X78035827Y-51274036D01*
X78057872Y-51292128D01*
X78075964Y-51314173D01*
X78089409Y-51339326D01*
X78097688Y-51366619D01*
X78100725Y-51397454D01*
X78100725Y-52202546D01*
X78100483Y-52205000D01*
X78097688Y-52233382D01*
X78089409Y-52260674D01*
X78075965Y-52285826D01*
X78057872Y-52307872D01*
X78035826Y-52325965D01*
X78010674Y-52339409D01*
X77983382Y-52347688D01*
X77976173Y-52348398D01*
X77957460Y-52350241D01*
X77947846Y-52352153D01*
X77938791Y-52355904D01*
X77930641Y-52361350D01*
X77923710Y-52368281D01*
X77918265Y-52376430D01*
X77914514Y-52385486D01*
X77912602Y-52395099D01*
X77912602Y-52404901D01*
X77914514Y-52414515D01*
X77918265Y-52423570D01*
X77923711Y-52431720D01*
X77930642Y-52438651D01*
X77938791Y-52444096D01*
X77947847Y-52447847D01*
X77957460Y-52449759D01*
X77976173Y-52451602D01*
X77983382Y-52452312D01*
X78010674Y-52460591D01*
X78035826Y-52474035D01*
X78035828Y-52474036D01*
X78035827Y-52474036D01*
X78057872Y-52492128D01*
X78075964Y-52514173D01*
X78089409Y-52539326D01*
X78097688Y-52566619D01*
X78100725Y-52597454D01*
X78100725Y-53402546D01*
X78100483Y-53405000D01*
X78097688Y-53433382D01*
X78089409Y-53460674D01*
X78075965Y-53485826D01*
X78057872Y-53507872D01*
X78035826Y-53525965D01*
X78010674Y-53539409D01*
X77983382Y-53547688D01*
X77976173Y-53548398D01*
X77957460Y-53550241D01*
X77947846Y-53552153D01*
X77938791Y-53555904D01*
X77930641Y-53561350D01*
X77923710Y-53568281D01*
X77918265Y-53576430D01*
X77914514Y-53585486D01*
X77912602Y-53595099D01*
X77912602Y-53604901D01*
X77914514Y-53614515D01*
X77918265Y-53623570D01*
X77923711Y-53631720D01*
X77930642Y-53638651D01*
X77938791Y-53644096D01*
X77947847Y-53647847D01*
X77957460Y-53649759D01*
X77976173Y-53651602D01*
X77983382Y-53652312D01*
X78010674Y-53660591D01*
X78035826Y-53674035D01*
X78035828Y-53674036D01*
X78035827Y-53674036D01*
X78057872Y-53692128D01*
X78075964Y-53714173D01*
X78089409Y-53739326D01*
X78097688Y-53766619D01*
X78100725Y-53797454D01*
X78100725Y-54602546D01*
X78100483Y-54605000D01*
X78097688Y-54633382D01*
X78089409Y-54660674D01*
X78075965Y-54685826D01*
X78057872Y-54707872D01*
X78035826Y-54725965D01*
X78010674Y-54739409D01*
X77983382Y-54747688D01*
X77976379Y-54748378D01*
X77952546Y-54750725D01*
X76497454Y-54750725D01*
X76473621Y-54748378D01*
X76466618Y-54747688D01*
X76439326Y-54739409D01*
X76414174Y-54725965D01*
X76392128Y-54707872D01*
X76374035Y-54685826D01*
X76360591Y-54660674D01*
X76352312Y-54633382D01*
X76349517Y-54605000D01*
X76349275Y-54602546D01*
X76349275Y-53797454D01*
X76352312Y-53766619D01*
X76360591Y-53739326D01*
X76374036Y-53714173D01*
X76392128Y-53692128D01*
X76414173Y-53674036D01*
X76414172Y-53674036D01*
X76414174Y-53674035D01*
X76439326Y-53660591D01*
X76466618Y-53652312D01*
X76473827Y-53651602D01*
X76492540Y-53649759D01*
X76502154Y-53647847D01*
X76511209Y-53644096D01*
X76519359Y-53638650D01*
X76526290Y-53631719D01*
X76531735Y-53623570D01*
X76535486Y-53614514D01*
X76537398Y-53604901D01*
X76537398Y-53595099D01*
X76535486Y-53585485D01*
X76531735Y-53576430D01*
X76526289Y-53568280D01*
X76519358Y-53561349D01*
X76511209Y-53555904D01*
X76502153Y-53552153D01*
X76492540Y-53550241D01*
X76473827Y-53548398D01*
X76466618Y-53547688D01*
X76439326Y-53539409D01*
X76414174Y-53525965D01*
X76392128Y-53507872D01*
X76374035Y-53485826D01*
X76360591Y-53460674D01*
X76352312Y-53433382D01*
X76349517Y-53405000D01*
X76349275Y-53402546D01*
X76349275Y-52597454D01*
X76352312Y-52566619D01*
X76360591Y-52539326D01*
X76374036Y-52514173D01*
X76392128Y-52492128D01*
X76414173Y-52474036D01*
X76414172Y-52474036D01*
X76414174Y-52474035D01*
X76439326Y-52460591D01*
X76466618Y-52452312D01*
X76473827Y-52451602D01*
X76492540Y-52449759D01*
X76502154Y-52447847D01*
X76511209Y-52444096D01*
X76519359Y-52438650D01*
X76526290Y-52431719D01*
X76531735Y-52423570D01*
X76535486Y-52414514D01*
X76537398Y-52404901D01*
X76537398Y-52395099D01*
X76535486Y-52385485D01*
X76531735Y-52376430D01*
X76526289Y-52368280D01*
X76519358Y-52361349D01*
X76511209Y-52355904D01*
X76502153Y-52352153D01*
X76492540Y-52350241D01*
X76473827Y-52348398D01*
X76466618Y-52347688D01*
X76439326Y-52339409D01*
X76414174Y-52325965D01*
X76392128Y-52307872D01*
X76374035Y-52285826D01*
X76360591Y-52260674D01*
X76352312Y-52233382D01*
X76349517Y-52205000D01*
X76349275Y-52202546D01*
X76349275Y-51397454D01*
X76352312Y-51366619D01*
X76360591Y-51339326D01*
X76374036Y-51314173D01*
X76392128Y-51292128D01*
X76414173Y-51274036D01*
X76414172Y-51274036D01*
X76414174Y-51274035D01*
X76439326Y-51260591D01*
X76466618Y-51252312D01*
X76473621Y-51251622D01*
X76497454Y-51249275D01*
X77952546Y-51249275D01*
X77976379Y-51251622D01*
X77976379Y-51251622D01*
G37*
G36*
X87976379Y-51251622D02*
X87983382Y-51252312D01*
X88010674Y-51260591D01*
X88035826Y-51274035D01*
X88035828Y-51274036D01*
X88035827Y-51274036D01*
X88057872Y-51292128D01*
X88075964Y-51314173D01*
X88089409Y-51339326D01*
X88097688Y-51366619D01*
X88100725Y-51397454D01*
X88100725Y-52202546D01*
X88100483Y-52205000D01*
X88097688Y-52233382D01*
X88089409Y-52260674D01*
X88075965Y-52285826D01*
X88057872Y-52307872D01*
X88035826Y-52325965D01*
X88010674Y-52339409D01*
X87983382Y-52347688D01*
X87976173Y-52348398D01*
X87957460Y-52350241D01*
X87947846Y-52352153D01*
X87938791Y-52355904D01*
X87930641Y-52361350D01*
X87923710Y-52368281D01*
X87918265Y-52376430D01*
X87914514Y-52385486D01*
X87912602Y-52395099D01*
X87912602Y-52404901D01*
X87914514Y-52414515D01*
X87918265Y-52423570D01*
X87923711Y-52431720D01*
X87930642Y-52438651D01*
X87938791Y-52444096D01*
X87947847Y-52447847D01*
X87957460Y-52449759D01*
X87976173Y-52451602D01*
X87983382Y-52452312D01*
X88010674Y-52460591D01*
X88035826Y-52474035D01*
X88035828Y-52474036D01*
X88035827Y-52474036D01*
X88057872Y-52492128D01*
X88075964Y-52514173D01*
X88089409Y-52539326D01*
X88097688Y-52566619D01*
X88100725Y-52597454D01*
X88100725Y-53402546D01*
X88100483Y-53405000D01*
X88097688Y-53433382D01*
X88089409Y-53460674D01*
X88075965Y-53485826D01*
X88057872Y-53507872D01*
X88035826Y-53525965D01*
X88010674Y-53539409D01*
X87983382Y-53547688D01*
X87976173Y-53548398D01*
X87957460Y-53550241D01*
X87947846Y-53552153D01*
X87938791Y-53555904D01*
X87930641Y-53561350D01*
X87923710Y-53568281D01*
X87918265Y-53576430D01*
X87914514Y-53585486D01*
X87912602Y-53595099D01*
X87912602Y-53604901D01*
X87914514Y-53614515D01*
X87918265Y-53623570D01*
X87923711Y-53631720D01*
X87930642Y-53638651D01*
X87938791Y-53644096D01*
X87947847Y-53647847D01*
X87957460Y-53649759D01*
X87976173Y-53651602D01*
X87983382Y-53652312D01*
X88010674Y-53660591D01*
X88035826Y-53674035D01*
X88035828Y-53674036D01*
X88035827Y-53674036D01*
X88057872Y-53692128D01*
X88075964Y-53714173D01*
X88089409Y-53739326D01*
X88097688Y-53766619D01*
X88100725Y-53797454D01*
X88100725Y-54602546D01*
X88100483Y-54605000D01*
X88097688Y-54633382D01*
X88089409Y-54660674D01*
X88075965Y-54685826D01*
X88057872Y-54707872D01*
X88035826Y-54725965D01*
X88010674Y-54739409D01*
X87983382Y-54747688D01*
X87976379Y-54748378D01*
X87952546Y-54750725D01*
X86497454Y-54750725D01*
X86473621Y-54748378D01*
X86466618Y-54747688D01*
X86439326Y-54739409D01*
X86414174Y-54725965D01*
X86392128Y-54707872D01*
X86374035Y-54685826D01*
X86360591Y-54660674D01*
X86352312Y-54633382D01*
X86349517Y-54605000D01*
X86349275Y-54602546D01*
X86349275Y-53797454D01*
X86352312Y-53766619D01*
X86360591Y-53739326D01*
X86374036Y-53714173D01*
X86392128Y-53692128D01*
X86414173Y-53674036D01*
X86414172Y-53674036D01*
X86414174Y-53674035D01*
X86439326Y-53660591D01*
X86466618Y-53652312D01*
X86473827Y-53651602D01*
X86492540Y-53649759D01*
X86502154Y-53647847D01*
X86511209Y-53644096D01*
X86519359Y-53638650D01*
X86526290Y-53631719D01*
X86531735Y-53623570D01*
X86535486Y-53614514D01*
X86537398Y-53604901D01*
X86537398Y-53595099D01*
X86535486Y-53585485D01*
X86531735Y-53576430D01*
X86526289Y-53568280D01*
X86519358Y-53561349D01*
X86511209Y-53555904D01*
X86502153Y-53552153D01*
X86492540Y-53550241D01*
X86473827Y-53548398D01*
X86466618Y-53547688D01*
X86439326Y-53539409D01*
X86414174Y-53525965D01*
X86392128Y-53507872D01*
X86374035Y-53485826D01*
X86360591Y-53460674D01*
X86352312Y-53433382D01*
X86349517Y-53405000D01*
X86349275Y-53402546D01*
X86349275Y-52597454D01*
X86352312Y-52566619D01*
X86360591Y-52539326D01*
X86374036Y-52514173D01*
X86392128Y-52492128D01*
X86414173Y-52474036D01*
X86414172Y-52474036D01*
X86414174Y-52474035D01*
X86439326Y-52460591D01*
X86466618Y-52452312D01*
X86473827Y-52451602D01*
X86492540Y-52449759D01*
X86502154Y-52447847D01*
X86511209Y-52444096D01*
X86519359Y-52438650D01*
X86526290Y-52431719D01*
X86531735Y-52423570D01*
X86535486Y-52414514D01*
X86537398Y-52404901D01*
X86537398Y-52395099D01*
X86535486Y-52385485D01*
X86531735Y-52376430D01*
X86526289Y-52368280D01*
X86519358Y-52361349D01*
X86511209Y-52355904D01*
X86502153Y-52352153D01*
X86492540Y-52350241D01*
X86473827Y-52348398D01*
X86466618Y-52347688D01*
X86439326Y-52339409D01*
X86414174Y-52325965D01*
X86392128Y-52307872D01*
X86374035Y-52285826D01*
X86360591Y-52260674D01*
X86352312Y-52233382D01*
X86349517Y-52205000D01*
X86349275Y-52202546D01*
X86349275Y-51397454D01*
X86352312Y-51366619D01*
X86360591Y-51339326D01*
X86374036Y-51314173D01*
X86392128Y-51292128D01*
X86414173Y-51274036D01*
X86414172Y-51274036D01*
X86414174Y-51274035D01*
X86439326Y-51260591D01*
X86466618Y-51252312D01*
X86473621Y-51251622D01*
X86497454Y-51249275D01*
X87952546Y-51249275D01*
X87976379Y-51251622D01*
X87976379Y-51251622D01*
G37*
M02*
