%TF.GenerationSoftware,KiCad,Pcbnew,no-vcs-found-e797af3~59~ubuntu17.04.1*%
%TF.CreationDate,2017-07-18T08:46:09+02:00*%
%TF.ProjectId,LEDBoard_4x4_16bit,4C4544426F6172645F3478345F313662,0.1*%
%TF.SameCoordinates,Original%
%TF.FileFunction,Other,Fab,Bot*%
%FSLAX46Y46*%
G04 Gerber Fmt 4.6, Leading zero omitted, Abs format (unit mm)*
G04 Created by KiCad (PCBNEW no-vcs-found-e797af3~59~ubuntu17.04.1) date Tue Jul 18 08:46:09 2017*
%MOMM*%
%LPD*%
G01*
G04 APERTURE LIST*
%ADD10C,0.100000*%
%ADD11C,0.150000*%
G04 APERTURE END LIST*
D10*
X82460000Y-86730000D02*
X87540000Y-86730000D01*
X87540000Y-86730000D02*
X87540000Y-89270000D01*
X87540000Y-89270000D02*
X82460000Y-89270000D01*
X82460000Y-89270000D02*
X82460000Y-86730000D01*
X52460000Y-89270000D02*
X52460000Y-86730000D01*
X57540000Y-89270000D02*
X52460000Y-89270000D01*
X57540000Y-86730000D02*
X57540000Y-89270000D01*
X52460000Y-86730000D02*
X57540000Y-86730000D01*
X62380000Y-89270000D02*
X62380000Y-86730000D01*
X77620000Y-89270000D02*
X62380000Y-89270000D01*
X77620000Y-86730000D02*
X77620000Y-89270000D01*
X62380000Y-86730000D02*
X77620000Y-86730000D01*
D11*
X88904761Y-81857142D02*
X88952380Y-81952380D01*
X88952380Y-82142857D01*
X88904761Y-82238095D01*
X88809523Y-82285714D01*
X88761904Y-82285714D01*
X88666666Y-82238095D01*
X88619047Y-82142857D01*
X88619047Y-82000000D01*
X88571428Y-81904761D01*
X88476190Y-81857142D01*
X88428571Y-81857142D01*
X88333333Y-81904761D01*
X88285714Y-82000000D01*
X88285714Y-82142857D01*
X88333333Y-82238095D01*
X88952380Y-82714285D02*
X88285714Y-82714285D01*
X87952380Y-82714285D02*
X88000000Y-82666666D01*
X88047619Y-82714285D01*
X88000000Y-82761904D01*
X87952380Y-82714285D01*
X88047619Y-82714285D01*
X88285714Y-83619047D02*
X89095238Y-83619047D01*
X89190476Y-83571428D01*
X89238095Y-83523809D01*
X89285714Y-83428571D01*
X89285714Y-83285714D01*
X89238095Y-83190476D01*
X88904761Y-83619047D02*
X88952380Y-83523809D01*
X88952380Y-83333333D01*
X88904761Y-83238095D01*
X88857142Y-83190476D01*
X88761904Y-83142857D01*
X88476190Y-83142857D01*
X88380952Y-83190476D01*
X88333333Y-83238095D01*
X88285714Y-83333333D01*
X88285714Y-83523809D01*
X88333333Y-83619047D01*
X88285714Y-84095238D02*
X88952380Y-84095238D01*
X88380952Y-84095238D02*
X88333333Y-84142857D01*
X88285714Y-84238095D01*
X88285714Y-84380952D01*
X88333333Y-84476190D01*
X88428571Y-84523809D01*
X88952380Y-84523809D01*
X88952380Y-85428571D02*
X88428571Y-85428571D01*
X88333333Y-85380952D01*
X88285714Y-85285714D01*
X88285714Y-85095238D01*
X88333333Y-85000000D01*
X88904761Y-85428571D02*
X88952380Y-85333333D01*
X88952380Y-85095238D01*
X88904761Y-85000000D01*
X88809523Y-84952380D01*
X88714285Y-84952380D01*
X88619047Y-85000000D01*
X88571428Y-85095238D01*
X88571428Y-85333333D01*
X88523809Y-85428571D01*
X88952380Y-86047619D02*
X88904761Y-85952380D01*
X88809523Y-85904761D01*
X87952380Y-85904761D01*
X89047619Y-86190476D02*
X89047619Y-86952380D01*
X88952380Y-87333333D02*
X88904761Y-87238095D01*
X88857142Y-87190476D01*
X88761904Y-87142857D01*
X88476190Y-87142857D01*
X88380952Y-87190476D01*
X88333333Y-87238095D01*
X88285714Y-87333333D01*
X88285714Y-87476190D01*
X88333333Y-87571428D01*
X88380952Y-87619047D01*
X88476190Y-87666666D01*
X88761904Y-87666666D01*
X88857142Y-87619047D01*
X88904761Y-87571428D01*
X88952380Y-87476190D01*
X88952380Y-87333333D01*
X88285714Y-88523809D02*
X88952380Y-88523809D01*
X88285714Y-88095238D02*
X88809523Y-88095238D01*
X88904761Y-88142857D01*
X88952380Y-88238095D01*
X88952380Y-88380952D01*
X88904761Y-88476190D01*
X88857142Y-88523809D01*
X88285714Y-88857142D02*
X88285714Y-89238095D01*
X87952380Y-89000000D02*
X88809523Y-89000000D01*
X88904761Y-89047619D01*
X88952380Y-89142857D01*
X88952380Y-89238095D01*
X80852380Y-87666666D02*
X81566666Y-87666666D01*
X81709523Y-87619047D01*
X81804761Y-87523809D01*
X81852380Y-87380952D01*
X81852380Y-87285714D01*
X80852380Y-88571428D02*
X80852380Y-88380952D01*
X80900000Y-88285714D01*
X80947619Y-88238095D01*
X81090476Y-88142857D01*
X81280952Y-88095238D01*
X81661904Y-88095238D01*
X81757142Y-88142857D01*
X81804761Y-88190476D01*
X81852380Y-88285714D01*
X81852380Y-88476190D01*
X81804761Y-88571428D01*
X81757142Y-88619047D01*
X81661904Y-88666666D01*
X81423809Y-88666666D01*
X81328571Y-88619047D01*
X81280952Y-88571428D01*
X81233333Y-88476190D01*
X81233333Y-88285714D01*
X81280952Y-88190476D01*
X81328571Y-88142857D01*
X81423809Y-88095238D01*
X51404761Y-83357142D02*
X51452380Y-83452380D01*
X51452380Y-83642857D01*
X51404761Y-83738095D01*
X51309523Y-83785714D01*
X51261904Y-83785714D01*
X51166666Y-83738095D01*
X51119047Y-83642857D01*
X51119047Y-83500000D01*
X51071428Y-83404761D01*
X50976190Y-83357142D01*
X50928571Y-83357142D01*
X50833333Y-83404761D01*
X50785714Y-83500000D01*
X50785714Y-83642857D01*
X50833333Y-83738095D01*
X51452380Y-84214285D02*
X50785714Y-84214285D01*
X50452380Y-84214285D02*
X50500000Y-84166666D01*
X50547619Y-84214285D01*
X50500000Y-84261904D01*
X50452380Y-84214285D01*
X50547619Y-84214285D01*
X50785714Y-85119047D02*
X51595238Y-85119047D01*
X51690476Y-85071428D01*
X51738095Y-85023809D01*
X51785714Y-84928571D01*
X51785714Y-84785714D01*
X51738095Y-84690476D01*
X51404761Y-85119047D02*
X51452380Y-85023809D01*
X51452380Y-84833333D01*
X51404761Y-84738095D01*
X51357142Y-84690476D01*
X51261904Y-84642857D01*
X50976190Y-84642857D01*
X50880952Y-84690476D01*
X50833333Y-84738095D01*
X50785714Y-84833333D01*
X50785714Y-85023809D01*
X50833333Y-85119047D01*
X50785714Y-85595238D02*
X51452380Y-85595238D01*
X50880952Y-85595238D02*
X50833333Y-85642857D01*
X50785714Y-85738095D01*
X50785714Y-85880952D01*
X50833333Y-85976190D01*
X50928571Y-86023809D01*
X51452380Y-86023809D01*
X51452380Y-86928571D02*
X50928571Y-86928571D01*
X50833333Y-86880952D01*
X50785714Y-86785714D01*
X50785714Y-86595238D01*
X50833333Y-86500000D01*
X51404761Y-86928571D02*
X51452380Y-86833333D01*
X51452380Y-86595238D01*
X51404761Y-86500000D01*
X51309523Y-86452380D01*
X51214285Y-86452380D01*
X51119047Y-86500000D01*
X51071428Y-86595238D01*
X51071428Y-86833333D01*
X51023809Y-86928571D01*
X51452380Y-87547619D02*
X51404761Y-87452380D01*
X51309523Y-87404761D01*
X50452380Y-87404761D01*
X51547619Y-87690476D02*
X51547619Y-88452380D01*
X51452380Y-88690476D02*
X50785714Y-88690476D01*
X50452380Y-88690476D02*
X50500000Y-88642857D01*
X50547619Y-88690476D01*
X50500000Y-88738095D01*
X50452380Y-88690476D01*
X50547619Y-88690476D01*
X50785714Y-89166666D02*
X51452380Y-89166666D01*
X50880952Y-89166666D02*
X50833333Y-89214285D01*
X50785714Y-89309523D01*
X50785714Y-89452380D01*
X50833333Y-89547619D01*
X50928571Y-89595238D01*
X51452380Y-89595238D01*
X57952380Y-87666666D02*
X58666666Y-87666666D01*
X58809523Y-87619047D01*
X58904761Y-87523809D01*
X58952380Y-87380952D01*
X58952380Y-87285714D01*
X58952380Y-88666666D02*
X58952380Y-88095238D01*
X58952380Y-88380952D02*
X57952380Y-88380952D01*
X58095238Y-88285714D01*
X58190476Y-88190476D01*
X58238095Y-88095238D01*
X72952380Y-68452380D02*
X72952380Y-67452380D01*
X72952380Y-67928571D02*
X72380952Y-67928571D01*
X72380952Y-68452380D02*
X72380952Y-67452380D01*
X71523809Y-68404761D02*
X71619047Y-68452380D01*
X71809523Y-68452380D01*
X71904761Y-68404761D01*
X71952380Y-68309523D01*
X71952380Y-67928571D01*
X71904761Y-67833333D01*
X71809523Y-67785714D01*
X71619047Y-67785714D01*
X71523809Y-67833333D01*
X71476190Y-67928571D01*
X71476190Y-68023809D01*
X71952380Y-68119047D01*
X70619047Y-68452380D02*
X70619047Y-67928571D01*
X70666666Y-67833333D01*
X70761904Y-67785714D01*
X70952380Y-67785714D01*
X71047619Y-67833333D01*
X70619047Y-68404761D02*
X70714285Y-68452380D01*
X70952380Y-68452380D01*
X71047619Y-68404761D01*
X71095238Y-68309523D01*
X71095238Y-68214285D01*
X71047619Y-68119047D01*
X70952380Y-68071428D01*
X70714285Y-68071428D01*
X70619047Y-68023809D01*
X70285714Y-67785714D02*
X69904761Y-67785714D01*
X70142857Y-67452380D02*
X70142857Y-68309523D01*
X70095238Y-68404761D01*
X70000000Y-68452380D01*
X69904761Y-68452380D01*
X69619047Y-68404761D02*
X69523809Y-68452380D01*
X69333333Y-68452380D01*
X69238095Y-68404761D01*
X69190476Y-68309523D01*
X69190476Y-68261904D01*
X69238095Y-68166666D01*
X69333333Y-68119047D01*
X69476190Y-68119047D01*
X69571428Y-68071428D01*
X69619047Y-67976190D01*
X69619047Y-67928571D01*
X69571428Y-67833333D01*
X69476190Y-67785714D01*
X69333333Y-67785714D01*
X69238095Y-67833333D01*
X68761904Y-68452380D02*
X68761904Y-67785714D01*
X68761904Y-67452380D02*
X68809523Y-67500000D01*
X68761904Y-67547619D01*
X68714285Y-67500000D01*
X68761904Y-67452380D01*
X68761904Y-67547619D01*
X68285714Y-67785714D02*
X68285714Y-68452380D01*
X68285714Y-67880952D02*
X68238095Y-67833333D01*
X68142857Y-67785714D01*
X68000000Y-67785714D01*
X67904761Y-67833333D01*
X67857142Y-67928571D01*
X67857142Y-68452380D01*
X67380952Y-68452380D02*
X67380952Y-67452380D01*
X67285714Y-68071428D02*
X66999999Y-68452380D01*
X66999999Y-67785714D02*
X67380952Y-68166666D01*
X78465714Y-85571428D02*
X79465714Y-85571428D01*
X78513333Y-85571428D02*
X78465714Y-85666666D01*
X78465714Y-85857142D01*
X78513333Y-85952380D01*
X78560952Y-86000000D01*
X78656190Y-86047619D01*
X78941904Y-86047619D01*
X79037142Y-86000000D01*
X79084761Y-85952380D01*
X79132380Y-85857142D01*
X79132380Y-85666666D01*
X79084761Y-85571428D01*
X79132380Y-86619047D02*
X79084761Y-86523809D01*
X79037142Y-86476190D01*
X78941904Y-86428571D01*
X78656190Y-86428571D01*
X78560952Y-86476190D01*
X78513333Y-86523809D01*
X78465714Y-86619047D01*
X78465714Y-86761904D01*
X78513333Y-86857142D01*
X78560952Y-86904761D01*
X78656190Y-86952380D01*
X78941904Y-86952380D01*
X79037142Y-86904761D01*
X79084761Y-86857142D01*
X79132380Y-86761904D01*
X79132380Y-86619047D01*
X78465714Y-87285714D02*
X79132380Y-87476190D01*
X78656190Y-87666666D01*
X79132380Y-87857142D01*
X78465714Y-88047619D01*
X79084761Y-88809523D02*
X79132380Y-88714285D01*
X79132380Y-88523809D01*
X79084761Y-88428571D01*
X78989523Y-88380952D01*
X78608571Y-88380952D01*
X78513333Y-88428571D01*
X78465714Y-88523809D01*
X78465714Y-88714285D01*
X78513333Y-88809523D01*
X78608571Y-88857142D01*
X78703809Y-88857142D01*
X78799047Y-88380952D01*
X79132380Y-89285714D02*
X78465714Y-89285714D01*
X78656190Y-89285714D02*
X78560952Y-89333333D01*
X78513333Y-89380952D01*
X78465714Y-89476190D01*
X78465714Y-89571428D01*
X60772380Y-87666666D02*
X61486666Y-87666666D01*
X61629523Y-87619047D01*
X61724761Y-87523809D01*
X61772380Y-87380952D01*
X61772380Y-87285714D01*
X60867619Y-88095238D02*
X60820000Y-88142857D01*
X60772380Y-88238095D01*
X60772380Y-88476190D01*
X60820000Y-88571428D01*
X60867619Y-88619047D01*
X60962857Y-88666666D01*
X61058095Y-88666666D01*
X61200952Y-88619047D01*
X61772380Y-88047619D01*
X61772380Y-88666666D01*
M02*
