%TF.GenerationSoftware,KiCad,Pcbnew,no-vcs-found-b8c621a~59~ubuntu17.04.1*%
%TF.CreationDate,2017-08-09T14:22:45+02:00*%
%TF.ProjectId,LEDBoard_4x4_16bit,4C4544426F6172645F3478345F313662,2.1.0*%
%TF.SameCoordinates,Original*%
%TF.FileFunction,Legend,Top*%
%TF.FilePolarity,Positive*%
%FSLAX46Y46*%
G04 Gerber Fmt 4.6, Leading zero omitted, Abs format (unit mm)*
G04 Created by KiCad (PCBNEW no-vcs-found-b8c621a~59~ubuntu17.04.1) date Wed Aug  9 14:22:45 2017*
%MOMM*%
%LPD*%
G01*
G04 APERTURE LIST*
%ADD10C,0.100000*%
%ADD11C,0.050000*%
%ADD12C,0.150000*%
%ADD13C,0.120000*%
%ADD14C,0.125000*%
G04 APERTURE END LIST*
D10*
X60719047Y-85950000D02*
X60671428Y-85926190D01*
X60600000Y-85926190D01*
X60528571Y-85950000D01*
X60480952Y-85997619D01*
X60457142Y-86045238D01*
X60433333Y-86140476D01*
X60433333Y-86211904D01*
X60457142Y-86307142D01*
X60480952Y-86354761D01*
X60528571Y-86402380D01*
X60600000Y-86426190D01*
X60647619Y-86426190D01*
X60719047Y-86402380D01*
X60742857Y-86378571D01*
X60742857Y-86211904D01*
X60647619Y-86211904D01*
X60957142Y-86426190D02*
X60957142Y-85926190D01*
X61242857Y-86426190D01*
X61242857Y-85926190D01*
X61480952Y-86426190D02*
X61480952Y-85926190D01*
X61600000Y-85926190D01*
X61671428Y-85950000D01*
X61719047Y-85997619D01*
X61742857Y-86045238D01*
X61766666Y-86140476D01*
X61766666Y-86211904D01*
X61742857Y-86307142D01*
X61719047Y-86354761D01*
X61671428Y-86402380D01*
X61600000Y-86426190D01*
X61480952Y-86426190D01*
X83619047Y-85950000D02*
X83571428Y-85926190D01*
X83500000Y-85926190D01*
X83428571Y-85950000D01*
X83380952Y-85997619D01*
X83357142Y-86045238D01*
X83333333Y-86140476D01*
X83333333Y-86211904D01*
X83357142Y-86307142D01*
X83380952Y-86354761D01*
X83428571Y-86402380D01*
X83500000Y-86426190D01*
X83547619Y-86426190D01*
X83619047Y-86402380D01*
X83642857Y-86378571D01*
X83642857Y-86211904D01*
X83547619Y-86211904D01*
X83857142Y-86426190D02*
X83857142Y-85926190D01*
X84142857Y-86426190D01*
X84142857Y-85926190D01*
X84380952Y-86426190D02*
X84380952Y-85926190D01*
X84500000Y-85926190D01*
X84571428Y-85950000D01*
X84619047Y-85997619D01*
X84642857Y-86045238D01*
X84666666Y-86140476D01*
X84666666Y-86211904D01*
X84642857Y-86307142D01*
X84619047Y-86354761D01*
X84571428Y-86402380D01*
X84500000Y-86426190D01*
X84380952Y-86426190D01*
X56973809Y-85901190D02*
X56973809Y-85567857D01*
X56973809Y-85401190D02*
X56950000Y-85425000D01*
X56973809Y-85448809D01*
X56997619Y-85425000D01*
X56973809Y-85401190D01*
X56973809Y-85448809D01*
X57211904Y-85567857D02*
X57211904Y-85901190D01*
X57211904Y-85615476D02*
X57235714Y-85591666D01*
X57283333Y-85567857D01*
X57354761Y-85567857D01*
X57402380Y-85591666D01*
X57426190Y-85639285D01*
X57426190Y-85901190D01*
X55533333Y-86751190D02*
X55533333Y-86251190D01*
X55533333Y-86727380D02*
X55485714Y-86751190D01*
X55390476Y-86751190D01*
X55342857Y-86727380D01*
X55319047Y-86703571D01*
X55295238Y-86655952D01*
X55295238Y-86513095D01*
X55319047Y-86465476D01*
X55342857Y-86441666D01*
X55390476Y-86417857D01*
X55485714Y-86417857D01*
X55533333Y-86441666D01*
X55985714Y-86751190D02*
X55985714Y-86489285D01*
X55961904Y-86441666D01*
X55914285Y-86417857D01*
X55819047Y-86417857D01*
X55771428Y-86441666D01*
X55985714Y-86727380D02*
X55938095Y-86751190D01*
X55819047Y-86751190D01*
X55771428Y-86727380D01*
X55747619Y-86679761D01*
X55747619Y-86632142D01*
X55771428Y-86584523D01*
X55819047Y-86560714D01*
X55938095Y-86560714D01*
X55985714Y-86536904D01*
X56152380Y-86417857D02*
X56342857Y-86417857D01*
X56223809Y-86251190D02*
X56223809Y-86679761D01*
X56247619Y-86727380D01*
X56295238Y-86751190D01*
X56342857Y-86751190D01*
X56723809Y-86751190D02*
X56723809Y-86489285D01*
X56700000Y-86441666D01*
X56652380Y-86417857D01*
X56557142Y-86417857D01*
X56509523Y-86441666D01*
X56723809Y-86727380D02*
X56676190Y-86751190D01*
X56557142Y-86751190D01*
X56509523Y-86727380D01*
X56485714Y-86679761D01*
X56485714Y-86632142D01*
X56509523Y-86584523D01*
X56557142Y-86560714D01*
X56676190Y-86560714D01*
X56723809Y-86536904D01*
X57557142Y-86727380D02*
X57509523Y-86751190D01*
X57414285Y-86751190D01*
X57366666Y-86727380D01*
X57342857Y-86703571D01*
X57319047Y-86655952D01*
X57319047Y-86513095D01*
X57342857Y-86465476D01*
X57366666Y-86441666D01*
X57414285Y-86417857D01*
X57509523Y-86417857D01*
X57557142Y-86441666D01*
X57842857Y-86751190D02*
X57795238Y-86727380D01*
X57771428Y-86679761D01*
X57771428Y-86251190D01*
X58104761Y-86751190D02*
X58057142Y-86727380D01*
X58033333Y-86703571D01*
X58009523Y-86655952D01*
X58009523Y-86513095D01*
X58033333Y-86465476D01*
X58057142Y-86441666D01*
X58104761Y-86417857D01*
X58176190Y-86417857D01*
X58223809Y-86441666D01*
X58247619Y-86465476D01*
X58271428Y-86513095D01*
X58271428Y-86655952D01*
X58247619Y-86703571D01*
X58223809Y-86727380D01*
X58176190Y-86751190D01*
X58104761Y-86751190D01*
X58700000Y-86727380D02*
X58652380Y-86751190D01*
X58557142Y-86751190D01*
X58509523Y-86727380D01*
X58485714Y-86703571D01*
X58461904Y-86655952D01*
X58461904Y-86513095D01*
X58485714Y-86465476D01*
X58509523Y-86441666D01*
X58557142Y-86417857D01*
X58652380Y-86417857D01*
X58700000Y-86441666D01*
X58914285Y-86751190D02*
X58914285Y-86251190D01*
X58961904Y-86560714D02*
X59104761Y-86751190D01*
X59104761Y-86417857D02*
X58914285Y-86608333D01*
X79695238Y-85601190D02*
X79647619Y-85577380D01*
X79623809Y-85553571D01*
X79600000Y-85505952D01*
X79600000Y-85363095D01*
X79623809Y-85315476D01*
X79647619Y-85291666D01*
X79695238Y-85267857D01*
X79766666Y-85267857D01*
X79814285Y-85291666D01*
X79838095Y-85315476D01*
X79861904Y-85363095D01*
X79861904Y-85505952D01*
X79838095Y-85553571D01*
X79814285Y-85577380D01*
X79766666Y-85601190D01*
X79695238Y-85601190D01*
X80290476Y-85267857D02*
X80290476Y-85601190D01*
X80076190Y-85267857D02*
X80076190Y-85529761D01*
X80100000Y-85577380D01*
X80147619Y-85601190D01*
X80219047Y-85601190D01*
X80266666Y-85577380D01*
X80290476Y-85553571D01*
X80457142Y-85267857D02*
X80647619Y-85267857D01*
X80528571Y-85101190D02*
X80528571Y-85529761D01*
X80552380Y-85577380D01*
X80600000Y-85601190D01*
X80647619Y-85601190D01*
X78433333Y-86451190D02*
X78433333Y-85951190D01*
X78433333Y-86427380D02*
X78385714Y-86451190D01*
X78290476Y-86451190D01*
X78242857Y-86427380D01*
X78219047Y-86403571D01*
X78195238Y-86355952D01*
X78195238Y-86213095D01*
X78219047Y-86165476D01*
X78242857Y-86141666D01*
X78290476Y-86117857D01*
X78385714Y-86117857D01*
X78433333Y-86141666D01*
X78885714Y-86451190D02*
X78885714Y-86189285D01*
X78861904Y-86141666D01*
X78814285Y-86117857D01*
X78719047Y-86117857D01*
X78671428Y-86141666D01*
X78885714Y-86427380D02*
X78838095Y-86451190D01*
X78719047Y-86451190D01*
X78671428Y-86427380D01*
X78647619Y-86379761D01*
X78647619Y-86332142D01*
X78671428Y-86284523D01*
X78719047Y-86260714D01*
X78838095Y-86260714D01*
X78885714Y-86236904D01*
X79052380Y-86117857D02*
X79242857Y-86117857D01*
X79123809Y-85951190D02*
X79123809Y-86379761D01*
X79147619Y-86427380D01*
X79195238Y-86451190D01*
X79242857Y-86451190D01*
X79623809Y-86451190D02*
X79623809Y-86189285D01*
X79600000Y-86141666D01*
X79552380Y-86117857D01*
X79457142Y-86117857D01*
X79409523Y-86141666D01*
X79623809Y-86427380D02*
X79576190Y-86451190D01*
X79457142Y-86451190D01*
X79409523Y-86427380D01*
X79385714Y-86379761D01*
X79385714Y-86332142D01*
X79409523Y-86284523D01*
X79457142Y-86260714D01*
X79576190Y-86260714D01*
X79623809Y-86236904D01*
X80457142Y-86427380D02*
X80409523Y-86451190D01*
X80314285Y-86451190D01*
X80266666Y-86427380D01*
X80242857Y-86403571D01*
X80219047Y-86355952D01*
X80219047Y-86213095D01*
X80242857Y-86165476D01*
X80266666Y-86141666D01*
X80314285Y-86117857D01*
X80409523Y-86117857D01*
X80457142Y-86141666D01*
X80742857Y-86451190D02*
X80695238Y-86427380D01*
X80671428Y-86379761D01*
X80671428Y-85951190D01*
X81004761Y-86451190D02*
X80957142Y-86427380D01*
X80933333Y-86403571D01*
X80909523Y-86355952D01*
X80909523Y-86213095D01*
X80933333Y-86165476D01*
X80957142Y-86141666D01*
X81004761Y-86117857D01*
X81076190Y-86117857D01*
X81123809Y-86141666D01*
X81147619Y-86165476D01*
X81171428Y-86213095D01*
X81171428Y-86355952D01*
X81147619Y-86403571D01*
X81123809Y-86427380D01*
X81076190Y-86451190D01*
X81004761Y-86451190D01*
X81600000Y-86427380D02*
X81552380Y-86451190D01*
X81457142Y-86451190D01*
X81409523Y-86427380D01*
X81385714Y-86403571D01*
X81361904Y-86355952D01*
X81361904Y-86213095D01*
X81385714Y-86165476D01*
X81409523Y-86141666D01*
X81457142Y-86117857D01*
X81552380Y-86117857D01*
X81600000Y-86141666D01*
X81814285Y-86451190D02*
X81814285Y-85951190D01*
X81861904Y-86260714D02*
X82004761Y-86451190D01*
X82004761Y-86117857D02*
X81814285Y-86308333D01*
X73000000Y-85926190D02*
X73166666Y-86426190D01*
X73333333Y-85926190D01*
X73785714Y-86378571D02*
X73761904Y-86402380D01*
X73690476Y-86426190D01*
X73642857Y-86426190D01*
X73571428Y-86402380D01*
X73523809Y-86354761D01*
X73500000Y-86307142D01*
X73476190Y-86211904D01*
X73476190Y-86140476D01*
X73500000Y-86045238D01*
X73523809Y-85997619D01*
X73571428Y-85950000D01*
X73642857Y-85926190D01*
X73690476Y-85926190D01*
X73761904Y-85950000D01*
X73785714Y-85973809D01*
X74285714Y-86378571D02*
X74261904Y-86402380D01*
X74190476Y-86426190D01*
X74142857Y-86426190D01*
X74071428Y-86402380D01*
X74023809Y-86354761D01*
X74000000Y-86307142D01*
X73976190Y-86211904D01*
X73976190Y-86140476D01*
X74000000Y-86045238D01*
X74023809Y-85997619D01*
X74071428Y-85950000D01*
X74142857Y-85926190D01*
X74190476Y-85926190D01*
X74261904Y-85950000D01*
X74285714Y-85973809D01*
X75904761Y-85950000D02*
X75857142Y-85926190D01*
X75785714Y-85926190D01*
X75714285Y-85950000D01*
X75666666Y-85997619D01*
X75642857Y-86045238D01*
X75619047Y-86140476D01*
X75619047Y-86211904D01*
X75642857Y-86307142D01*
X75666666Y-86354761D01*
X75714285Y-86402380D01*
X75785714Y-86426190D01*
X75833333Y-86426190D01*
X75904761Y-86402380D01*
X75928571Y-86378571D01*
X75928571Y-86211904D01*
X75833333Y-86211904D01*
X76142857Y-86426190D02*
X76142857Y-85926190D01*
X76428571Y-86426190D01*
X76428571Y-85926190D01*
X76666666Y-86426190D02*
X76666666Y-85926190D01*
X76785714Y-85926190D01*
X76857142Y-85950000D01*
X76904761Y-85997619D01*
X76928571Y-86045238D01*
X76952380Y-86140476D01*
X76952380Y-86211904D01*
X76928571Y-86307142D01*
X76904761Y-86354761D01*
X76857142Y-86402380D01*
X76785714Y-86426190D01*
X76666666Y-86426190D01*
X68000000Y-85926190D02*
X68166666Y-86426190D01*
X68333333Y-85926190D01*
X68785714Y-86378571D02*
X68761904Y-86402380D01*
X68690476Y-86426190D01*
X68642857Y-86426190D01*
X68571428Y-86402380D01*
X68523809Y-86354761D01*
X68500000Y-86307142D01*
X68476190Y-86211904D01*
X68476190Y-86140476D01*
X68500000Y-86045238D01*
X68523809Y-85997619D01*
X68571428Y-85950000D01*
X68642857Y-85926190D01*
X68690476Y-85926190D01*
X68761904Y-85950000D01*
X68785714Y-85973809D01*
X69285714Y-86378571D02*
X69261904Y-86402380D01*
X69190476Y-86426190D01*
X69142857Y-86426190D01*
X69071428Y-86402380D01*
X69023809Y-86354761D01*
X69000000Y-86307142D01*
X68976190Y-86211904D01*
X68976190Y-86140476D01*
X69000000Y-86045238D01*
X69023809Y-85997619D01*
X69071428Y-85950000D01*
X69142857Y-85926190D01*
X69190476Y-85926190D01*
X69261904Y-85950000D01*
X69285714Y-85973809D01*
X70904761Y-85950000D02*
X70857142Y-85926190D01*
X70785714Y-85926190D01*
X70714285Y-85950000D01*
X70666666Y-85997619D01*
X70642857Y-86045238D01*
X70619047Y-86140476D01*
X70619047Y-86211904D01*
X70642857Y-86307142D01*
X70666666Y-86354761D01*
X70714285Y-86402380D01*
X70785714Y-86426190D01*
X70833333Y-86426190D01*
X70904761Y-86402380D01*
X70928571Y-86378571D01*
X70928571Y-86211904D01*
X70833333Y-86211904D01*
X71142857Y-86426190D02*
X71142857Y-85926190D01*
X71428571Y-86426190D01*
X71428571Y-85926190D01*
X71666666Y-86426190D02*
X71666666Y-85926190D01*
X71785714Y-85926190D01*
X71857142Y-85950000D01*
X71904761Y-85997619D01*
X71928571Y-86045238D01*
X71952380Y-86140476D01*
X71952380Y-86211904D01*
X71928571Y-86307142D01*
X71904761Y-86354761D01*
X71857142Y-86402380D01*
X71785714Y-86426190D01*
X71666666Y-86426190D01*
X62800000Y-85926190D02*
X62966666Y-86426190D01*
X63133333Y-85926190D01*
X63585714Y-86378571D02*
X63561904Y-86402380D01*
X63490476Y-86426190D01*
X63442857Y-86426190D01*
X63371428Y-86402380D01*
X63323809Y-86354761D01*
X63300000Y-86307142D01*
X63276190Y-86211904D01*
X63276190Y-86140476D01*
X63300000Y-86045238D01*
X63323809Y-85997619D01*
X63371428Y-85950000D01*
X63442857Y-85926190D01*
X63490476Y-85926190D01*
X63561904Y-85950000D01*
X63585714Y-85973809D01*
X64085714Y-86378571D02*
X64061904Y-86402380D01*
X63990476Y-86426190D01*
X63942857Y-86426190D01*
X63871428Y-86402380D01*
X63823809Y-86354761D01*
X63800000Y-86307142D01*
X63776190Y-86211904D01*
X63776190Y-86140476D01*
X63800000Y-86045238D01*
X63823809Y-85997619D01*
X63871428Y-85950000D01*
X63942857Y-85926190D01*
X63990476Y-85926190D01*
X64061904Y-85950000D01*
X64085714Y-85973809D01*
X65704761Y-85950000D02*
X65657142Y-85926190D01*
X65585714Y-85926190D01*
X65514285Y-85950000D01*
X65466666Y-85997619D01*
X65442857Y-86045238D01*
X65419047Y-86140476D01*
X65419047Y-86211904D01*
X65442857Y-86307142D01*
X65466666Y-86354761D01*
X65514285Y-86402380D01*
X65585714Y-86426190D01*
X65633333Y-86426190D01*
X65704761Y-86402380D01*
X65728571Y-86378571D01*
X65728571Y-86211904D01*
X65633333Y-86211904D01*
X65942857Y-86426190D02*
X65942857Y-85926190D01*
X66228571Y-86426190D01*
X66228571Y-85926190D01*
X66466666Y-86426190D02*
X66466666Y-85926190D01*
X66585714Y-85926190D01*
X66657142Y-85950000D01*
X66704761Y-85997619D01*
X66728571Y-86045238D01*
X66752380Y-86140476D01*
X66752380Y-86211904D01*
X66728571Y-86307142D01*
X66704761Y-86354761D01*
X66657142Y-86402380D01*
X66585714Y-86426190D01*
X66466666Y-86426190D01*
X89026190Y-78790476D02*
X88526190Y-78790476D01*
X89026190Y-78576190D02*
X88764285Y-78576190D01*
X88716666Y-78600000D01*
X88692857Y-78647619D01*
X88692857Y-78719047D01*
X88716666Y-78766666D01*
X88740476Y-78790476D01*
X88692857Y-78409523D02*
X88692857Y-78219047D01*
X88526190Y-78338095D02*
X88954761Y-78338095D01*
X89002380Y-78314285D01*
X89026190Y-78266666D01*
X89026190Y-78219047D01*
X88692857Y-78123809D02*
X88692857Y-77933333D01*
X88526190Y-78052380D02*
X88954761Y-78052380D01*
X89002380Y-78028571D01*
X89026190Y-77980952D01*
X89026190Y-77933333D01*
X88692857Y-77766666D02*
X89192857Y-77766666D01*
X88716666Y-77766666D02*
X88692857Y-77719047D01*
X88692857Y-77623809D01*
X88716666Y-77576190D01*
X88740476Y-77552380D01*
X88788095Y-77528571D01*
X88930952Y-77528571D01*
X88978571Y-77552380D01*
X89002380Y-77576190D01*
X89026190Y-77623809D01*
X89026190Y-77719047D01*
X89002380Y-77766666D01*
X89002380Y-77338095D02*
X89026190Y-77290476D01*
X89026190Y-77195238D01*
X89002380Y-77147619D01*
X88954761Y-77123809D01*
X88930952Y-77123809D01*
X88883333Y-77147619D01*
X88859523Y-77195238D01*
X88859523Y-77266666D01*
X88835714Y-77314285D01*
X88788095Y-77338095D01*
X88764285Y-77338095D01*
X88716666Y-77314285D01*
X88692857Y-77266666D01*
X88692857Y-77195238D01*
X88716666Y-77147619D01*
X88978571Y-76909523D02*
X89002380Y-76885714D01*
X89026190Y-76909523D01*
X89002380Y-76933333D01*
X88978571Y-76909523D01*
X89026190Y-76909523D01*
X88716666Y-76909523D02*
X88740476Y-76885714D01*
X88764285Y-76909523D01*
X88740476Y-76933333D01*
X88716666Y-76909523D01*
X88764285Y-76909523D01*
X88502380Y-76314285D02*
X89145238Y-76742857D01*
X88502380Y-75790476D02*
X89145238Y-76219047D01*
X88692857Y-75409523D02*
X89097619Y-75409523D01*
X89145238Y-75433333D01*
X89169047Y-75457142D01*
X89192857Y-75504761D01*
X89192857Y-75576190D01*
X89169047Y-75623809D01*
X89002380Y-75409523D02*
X89026190Y-75457142D01*
X89026190Y-75552380D01*
X89002380Y-75600000D01*
X88978571Y-75623809D01*
X88930952Y-75647619D01*
X88788095Y-75647619D01*
X88740476Y-75623809D01*
X88716666Y-75600000D01*
X88692857Y-75552380D01*
X88692857Y-75457142D01*
X88716666Y-75409523D01*
X89026190Y-75171428D02*
X88692857Y-75171428D01*
X88526190Y-75171428D02*
X88550000Y-75195238D01*
X88573809Y-75171428D01*
X88550000Y-75147619D01*
X88526190Y-75171428D01*
X88573809Y-75171428D01*
X88692857Y-75004761D02*
X88692857Y-74814285D01*
X88526190Y-74933333D02*
X88954761Y-74933333D01*
X89002380Y-74909523D01*
X89026190Y-74861904D01*
X89026190Y-74814285D01*
X89026190Y-74647619D02*
X88526190Y-74647619D01*
X89026190Y-74433333D02*
X88764285Y-74433333D01*
X88716666Y-74457142D01*
X88692857Y-74504761D01*
X88692857Y-74576190D01*
X88716666Y-74623809D01*
X88740476Y-74647619D01*
X88692857Y-73980952D02*
X89026190Y-73980952D01*
X88692857Y-74195238D02*
X88954761Y-74195238D01*
X89002380Y-74171428D01*
X89026190Y-74123809D01*
X89026190Y-74052380D01*
X89002380Y-74004761D01*
X88978571Y-73980952D01*
X89026190Y-73742857D02*
X88526190Y-73742857D01*
X88716666Y-73742857D02*
X88692857Y-73695238D01*
X88692857Y-73600000D01*
X88716666Y-73552380D01*
X88740476Y-73528571D01*
X88788095Y-73504761D01*
X88930952Y-73504761D01*
X88978571Y-73528571D01*
X89002380Y-73552380D01*
X89026190Y-73600000D01*
X89026190Y-73695238D01*
X89002380Y-73742857D01*
X88978571Y-73290476D02*
X89002380Y-73266666D01*
X89026190Y-73290476D01*
X89002380Y-73314285D01*
X88978571Y-73290476D01*
X89026190Y-73290476D01*
X89002380Y-72838095D02*
X89026190Y-72885714D01*
X89026190Y-72980952D01*
X89002380Y-73028571D01*
X88978571Y-73052380D01*
X88930952Y-73076190D01*
X88788095Y-73076190D01*
X88740476Y-73052380D01*
X88716666Y-73028571D01*
X88692857Y-72980952D01*
X88692857Y-72885714D01*
X88716666Y-72838095D01*
X89026190Y-72552380D02*
X89002380Y-72600000D01*
X88978571Y-72623809D01*
X88930952Y-72647619D01*
X88788095Y-72647619D01*
X88740476Y-72623809D01*
X88716666Y-72600000D01*
X88692857Y-72552380D01*
X88692857Y-72480952D01*
X88716666Y-72433333D01*
X88740476Y-72409523D01*
X88788095Y-72385714D01*
X88930952Y-72385714D01*
X88978571Y-72409523D01*
X89002380Y-72433333D01*
X89026190Y-72480952D01*
X89026190Y-72552380D01*
X89026190Y-72171428D02*
X88692857Y-72171428D01*
X88740476Y-72171428D02*
X88716666Y-72147619D01*
X88692857Y-72100000D01*
X88692857Y-72028571D01*
X88716666Y-71980952D01*
X88764285Y-71957142D01*
X89026190Y-71957142D01*
X88764285Y-71957142D02*
X88716666Y-71933333D01*
X88692857Y-71885714D01*
X88692857Y-71814285D01*
X88716666Y-71766666D01*
X88764285Y-71742857D01*
X89026190Y-71742857D01*
X88502380Y-71147619D02*
X89145238Y-71576190D01*
X89002380Y-71004761D02*
X89026190Y-70957142D01*
X89026190Y-70861904D01*
X89002380Y-70814285D01*
X88954761Y-70790476D01*
X88930952Y-70790476D01*
X88883333Y-70814285D01*
X88859523Y-70861904D01*
X88859523Y-70933333D01*
X88835714Y-70980952D01*
X88788095Y-71004761D01*
X88764285Y-71004761D01*
X88716666Y-70980952D01*
X88692857Y-70933333D01*
X88692857Y-70861904D01*
X88716666Y-70814285D01*
X88835714Y-70576190D02*
X88835714Y-70195238D01*
X89026190Y-69885714D02*
X89002380Y-69933333D01*
X88954761Y-69957142D01*
X88526190Y-69957142D01*
X89026190Y-69695238D02*
X88692857Y-69695238D01*
X88526190Y-69695238D02*
X88550000Y-69719047D01*
X88573809Y-69695238D01*
X88550000Y-69671428D01*
X88526190Y-69695238D01*
X88573809Y-69695238D01*
X88692857Y-69242857D02*
X89097619Y-69242857D01*
X89145238Y-69266666D01*
X89169047Y-69290476D01*
X89192857Y-69338095D01*
X89192857Y-69409523D01*
X89169047Y-69457142D01*
X89002380Y-69242857D02*
X89026190Y-69290476D01*
X89026190Y-69385714D01*
X89002380Y-69433333D01*
X88978571Y-69457142D01*
X88930952Y-69480952D01*
X88788095Y-69480952D01*
X88740476Y-69457142D01*
X88716666Y-69433333D01*
X88692857Y-69385714D01*
X88692857Y-69290476D01*
X88716666Y-69242857D01*
X89026190Y-69004761D02*
X88526190Y-69004761D01*
X89026190Y-68790476D02*
X88764285Y-68790476D01*
X88716666Y-68814285D01*
X88692857Y-68861904D01*
X88692857Y-68933333D01*
X88716666Y-68980952D01*
X88740476Y-69004761D01*
X88692857Y-68623809D02*
X88692857Y-68433333D01*
X88526190Y-68552380D02*
X88954761Y-68552380D01*
X89002380Y-68528571D01*
X89026190Y-68480952D01*
X89026190Y-68433333D01*
X88502380Y-67909523D02*
X89145238Y-68338095D01*
X89026190Y-67504761D02*
X89026190Y-67742857D01*
X88526190Y-67742857D01*
X88764285Y-67338095D02*
X88764285Y-67171428D01*
X89026190Y-67100000D02*
X89026190Y-67338095D01*
X88526190Y-67338095D01*
X88526190Y-67100000D01*
X89026190Y-66885714D02*
X88526190Y-66885714D01*
X88526190Y-66766666D01*
X88550000Y-66695238D01*
X88597619Y-66647619D01*
X88645238Y-66623809D01*
X88740476Y-66600000D01*
X88811904Y-66600000D01*
X88907142Y-66623809D01*
X88954761Y-66647619D01*
X89002380Y-66695238D01*
X89026190Y-66766666D01*
X89026190Y-66885714D01*
X88764285Y-66219047D02*
X88788095Y-66147619D01*
X88811904Y-66123809D01*
X88859523Y-66100000D01*
X88930952Y-66100000D01*
X88978571Y-66123809D01*
X89002380Y-66147619D01*
X89026190Y-66195238D01*
X89026190Y-66385714D01*
X88526190Y-66385714D01*
X88526190Y-66219047D01*
X88550000Y-66171428D01*
X88573809Y-66147619D01*
X88621428Y-66123809D01*
X88669047Y-66123809D01*
X88716666Y-66147619D01*
X88740476Y-66171428D01*
X88764285Y-66219047D01*
X88764285Y-66385714D01*
X89026190Y-65814285D02*
X89002380Y-65861904D01*
X88978571Y-65885714D01*
X88930952Y-65909523D01*
X88788095Y-65909523D01*
X88740476Y-65885714D01*
X88716666Y-65861904D01*
X88692857Y-65814285D01*
X88692857Y-65742857D01*
X88716666Y-65695238D01*
X88740476Y-65671428D01*
X88788095Y-65647619D01*
X88930952Y-65647619D01*
X88978571Y-65671428D01*
X89002380Y-65695238D01*
X89026190Y-65742857D01*
X89026190Y-65814285D01*
X89026190Y-65219047D02*
X88764285Y-65219047D01*
X88716666Y-65242857D01*
X88692857Y-65290476D01*
X88692857Y-65385714D01*
X88716666Y-65433333D01*
X89002380Y-65219047D02*
X89026190Y-65266666D01*
X89026190Y-65385714D01*
X89002380Y-65433333D01*
X88954761Y-65457142D01*
X88907142Y-65457142D01*
X88859523Y-65433333D01*
X88835714Y-65385714D01*
X88835714Y-65266666D01*
X88811904Y-65219047D01*
X89026190Y-64980952D02*
X88692857Y-64980952D01*
X88788095Y-64980952D02*
X88740476Y-64957142D01*
X88716666Y-64933333D01*
X88692857Y-64885714D01*
X88692857Y-64838095D01*
X89026190Y-64457142D02*
X88526190Y-64457142D01*
X89002380Y-64457142D02*
X89026190Y-64504761D01*
X89026190Y-64600000D01*
X89002380Y-64647619D01*
X88978571Y-64671428D01*
X88930952Y-64695238D01*
X88788095Y-64695238D01*
X88740476Y-64671428D01*
X88716666Y-64647619D01*
X88692857Y-64600000D01*
X88692857Y-64504761D01*
X88716666Y-64457142D01*
X89073809Y-64338095D02*
X89073809Y-63957142D01*
X88692857Y-63623809D02*
X89026190Y-63623809D01*
X88502380Y-63742857D02*
X88859523Y-63861904D01*
X88859523Y-63552380D01*
X89026190Y-63409523D02*
X88692857Y-63147619D01*
X88692857Y-63409523D02*
X89026190Y-63147619D01*
X88692857Y-62742857D02*
X89026190Y-62742857D01*
X88502380Y-62861904D02*
X88859523Y-62980952D01*
X88859523Y-62671428D01*
X89073809Y-62600000D02*
X89073809Y-62219047D01*
X89026190Y-61838095D02*
X89026190Y-62123809D01*
X89026190Y-61980952D02*
X88526190Y-61980952D01*
X88597619Y-62028571D01*
X88645238Y-62076190D01*
X88669047Y-62123809D01*
X88526190Y-61409523D02*
X88526190Y-61504761D01*
X88550000Y-61552380D01*
X88573809Y-61576190D01*
X88645238Y-61623809D01*
X88740476Y-61647619D01*
X88930952Y-61647619D01*
X88978571Y-61623809D01*
X89002380Y-61600000D01*
X89026190Y-61552380D01*
X89026190Y-61457142D01*
X89002380Y-61409523D01*
X88978571Y-61385714D01*
X88930952Y-61361904D01*
X88811904Y-61361904D01*
X88764285Y-61385714D01*
X88740476Y-61409523D01*
X88716666Y-61457142D01*
X88716666Y-61552380D01*
X88740476Y-61600000D01*
X88764285Y-61623809D01*
X88811904Y-61647619D01*
X89026190Y-61147619D02*
X88526190Y-61147619D01*
X88716666Y-61147619D02*
X88692857Y-61100000D01*
X88692857Y-61004761D01*
X88716666Y-60957142D01*
X88740476Y-60933333D01*
X88788095Y-60909523D01*
X88930952Y-60909523D01*
X88978571Y-60933333D01*
X89002380Y-60957142D01*
X89026190Y-61004761D01*
X89026190Y-61100000D01*
X89002380Y-61147619D01*
X89026190Y-60695238D02*
X88692857Y-60695238D01*
X88526190Y-60695238D02*
X88550000Y-60719047D01*
X88573809Y-60695238D01*
X88550000Y-60671428D01*
X88526190Y-60695238D01*
X88573809Y-60695238D01*
X88692857Y-60528571D02*
X88692857Y-60338095D01*
X88526190Y-60457142D02*
X88954761Y-60457142D01*
X89002380Y-60433333D01*
X89026190Y-60385714D01*
X89026190Y-60338095D01*
X65214285Y-66201190D02*
X64976190Y-66201190D01*
X64976190Y-65701190D01*
X65380952Y-65939285D02*
X65547619Y-65939285D01*
X65619047Y-66201190D02*
X65380952Y-66201190D01*
X65380952Y-65701190D01*
X65619047Y-65701190D01*
X65833333Y-66201190D02*
X65833333Y-65701190D01*
X65952380Y-65701190D01*
X66023809Y-65725000D01*
X66071428Y-65772619D01*
X66095238Y-65820238D01*
X66119047Y-65915476D01*
X66119047Y-65986904D01*
X66095238Y-66082142D01*
X66071428Y-66129761D01*
X66023809Y-66177380D01*
X65952380Y-66201190D01*
X65833333Y-66201190D01*
X66500000Y-65939285D02*
X66571428Y-65963095D01*
X66595238Y-65986904D01*
X66619047Y-66034523D01*
X66619047Y-66105952D01*
X66595238Y-66153571D01*
X66571428Y-66177380D01*
X66523809Y-66201190D01*
X66333333Y-66201190D01*
X66333333Y-65701190D01*
X66500000Y-65701190D01*
X66547619Y-65725000D01*
X66571428Y-65748809D01*
X66595238Y-65796428D01*
X66595238Y-65844047D01*
X66571428Y-65891666D01*
X66547619Y-65915476D01*
X66500000Y-65939285D01*
X66333333Y-65939285D01*
X66904761Y-66201190D02*
X66857142Y-66177380D01*
X66833333Y-66153571D01*
X66809523Y-66105952D01*
X66809523Y-65963095D01*
X66833333Y-65915476D01*
X66857142Y-65891666D01*
X66904761Y-65867857D01*
X66976190Y-65867857D01*
X67023809Y-65891666D01*
X67047619Y-65915476D01*
X67071428Y-65963095D01*
X67071428Y-66105952D01*
X67047619Y-66153571D01*
X67023809Y-66177380D01*
X66976190Y-66201190D01*
X66904761Y-66201190D01*
X67500000Y-66201190D02*
X67500000Y-65939285D01*
X67476190Y-65891666D01*
X67428571Y-65867857D01*
X67333333Y-65867857D01*
X67285714Y-65891666D01*
X67500000Y-66177380D02*
X67452380Y-66201190D01*
X67333333Y-66201190D01*
X67285714Y-66177380D01*
X67261904Y-66129761D01*
X67261904Y-66082142D01*
X67285714Y-66034523D01*
X67333333Y-66010714D01*
X67452380Y-66010714D01*
X67500000Y-65986904D01*
X67738095Y-66201190D02*
X67738095Y-65867857D01*
X67738095Y-65963095D02*
X67761904Y-65915476D01*
X67785714Y-65891666D01*
X67833333Y-65867857D01*
X67880952Y-65867857D01*
X68261904Y-66201190D02*
X68261904Y-65701190D01*
X68261904Y-66177380D02*
X68214285Y-66201190D01*
X68119047Y-66201190D01*
X68071428Y-66177380D01*
X68047619Y-66153571D01*
X68023809Y-66105952D01*
X68023809Y-65963095D01*
X68047619Y-65915476D01*
X68071428Y-65891666D01*
X68119047Y-65867857D01*
X68214285Y-65867857D01*
X68261904Y-65891666D01*
X68380952Y-66248809D02*
X68761904Y-66248809D01*
X69095238Y-65867857D02*
X69095238Y-66201190D01*
X68976190Y-65677380D02*
X68857142Y-66034523D01*
X69166666Y-66034523D01*
X69309523Y-66201190D02*
X69571428Y-65867857D01*
X69309523Y-65867857D02*
X69571428Y-66201190D01*
X69976190Y-65867857D02*
X69976190Y-66201190D01*
X69857142Y-65677380D02*
X69738095Y-66034523D01*
X70047619Y-66034523D01*
X70119047Y-66248809D02*
X70500000Y-66248809D01*
X70880952Y-66201190D02*
X70595238Y-66201190D01*
X70738095Y-66201190D02*
X70738095Y-65701190D01*
X70690476Y-65772619D01*
X70642857Y-65820238D01*
X70595238Y-65844047D01*
X71309523Y-65701190D02*
X71214285Y-65701190D01*
X71166666Y-65725000D01*
X71142857Y-65748809D01*
X71095238Y-65820238D01*
X71071428Y-65915476D01*
X71071428Y-66105952D01*
X71095238Y-66153571D01*
X71119047Y-66177380D01*
X71166666Y-66201190D01*
X71261904Y-66201190D01*
X71309523Y-66177380D01*
X71333333Y-66153571D01*
X71357142Y-66105952D01*
X71357142Y-65986904D01*
X71333333Y-65939285D01*
X71309523Y-65915476D01*
X71261904Y-65891666D01*
X71166666Y-65891666D01*
X71119047Y-65915476D01*
X71095238Y-65939285D01*
X71071428Y-65986904D01*
X71571428Y-66201190D02*
X71571428Y-65701190D01*
X71571428Y-65891666D02*
X71619047Y-65867857D01*
X71714285Y-65867857D01*
X71761904Y-65891666D01*
X71785714Y-65915476D01*
X71809523Y-65963095D01*
X71809523Y-66105952D01*
X71785714Y-66153571D01*
X71761904Y-66177380D01*
X71714285Y-66201190D01*
X71619047Y-66201190D01*
X71571428Y-66177380D01*
X72023809Y-66201190D02*
X72023809Y-65867857D01*
X72023809Y-65701190D02*
X72000000Y-65725000D01*
X72023809Y-65748809D01*
X72047619Y-65725000D01*
X72023809Y-65701190D01*
X72023809Y-65748809D01*
X72190476Y-65867857D02*
X72380952Y-65867857D01*
X72261904Y-65701190D02*
X72261904Y-66129761D01*
X72285714Y-66177380D01*
X72333333Y-66201190D01*
X72380952Y-66201190D01*
X72857142Y-65701190D02*
X73023809Y-66201190D01*
X73190476Y-65701190D01*
X73333333Y-65748809D02*
X73357142Y-65725000D01*
X73404761Y-65701190D01*
X73523809Y-65701190D01*
X73571428Y-65725000D01*
X73595238Y-65748809D01*
X73619047Y-65796428D01*
X73619047Y-65844047D01*
X73595238Y-65915476D01*
X73309523Y-66201190D01*
X73619047Y-66201190D01*
X73833333Y-66153571D02*
X73857142Y-66177380D01*
X73833333Y-66201190D01*
X73809523Y-66177380D01*
X73833333Y-66153571D01*
X73833333Y-66201190D01*
X74333333Y-66201190D02*
X74047619Y-66201190D01*
X74190476Y-66201190D02*
X74190476Y-65701190D01*
X74142857Y-65772619D01*
X74095238Y-65820238D01*
X74047619Y-65844047D01*
X74547619Y-66153571D02*
X74571428Y-66177380D01*
X74547619Y-66201190D01*
X74523809Y-66177380D01*
X74547619Y-66153571D01*
X74547619Y-66201190D01*
X74880952Y-65701190D02*
X74928571Y-65701190D01*
X74976190Y-65725000D01*
X75000000Y-65748809D01*
X75023809Y-65796428D01*
X75047619Y-65891666D01*
X75047619Y-66010714D01*
X75023809Y-66105952D01*
X75000000Y-66153571D01*
X74976190Y-66177380D01*
X74928571Y-66201190D01*
X74880952Y-66201190D01*
X74833333Y-66177380D01*
X74809523Y-66153571D01*
X74785714Y-66105952D01*
X74761904Y-66010714D01*
X74761904Y-65891666D01*
X74785714Y-65796428D01*
X74809523Y-65748809D01*
X74833333Y-65725000D01*
X74880952Y-65701190D01*
X64857142Y-67027380D02*
X64809523Y-67051190D01*
X64714285Y-67051190D01*
X64666666Y-67027380D01*
X64642857Y-67003571D01*
X64619047Y-66955952D01*
X64619047Y-66813095D01*
X64642857Y-66765476D01*
X64666666Y-66741666D01*
X64714285Y-66717857D01*
X64809523Y-66717857D01*
X64857142Y-66741666D01*
X65285714Y-67027380D02*
X65238095Y-67051190D01*
X65142857Y-67051190D01*
X65095238Y-67027380D01*
X65071428Y-67003571D01*
X65047619Y-66955952D01*
X65047619Y-66813095D01*
X65071428Y-66765476D01*
X65095238Y-66741666D01*
X65142857Y-66717857D01*
X65238095Y-66717857D01*
X65285714Y-66741666D01*
X65880952Y-67051190D02*
X65880952Y-66551190D01*
X65880952Y-66741666D02*
X65928571Y-66717857D01*
X66023809Y-66717857D01*
X66071428Y-66741666D01*
X66095238Y-66765476D01*
X66119047Y-66813095D01*
X66119047Y-66955952D01*
X66095238Y-67003571D01*
X66071428Y-67027380D01*
X66023809Y-67051190D01*
X65928571Y-67051190D01*
X65880952Y-67027380D01*
X66285714Y-66717857D02*
X66404761Y-67051190D01*
X66523809Y-66717857D02*
X66404761Y-67051190D01*
X66357142Y-67170238D01*
X66333333Y-67194047D01*
X66285714Y-67217857D01*
X67071428Y-67027380D02*
X67119047Y-67051190D01*
X67214285Y-67051190D01*
X67261904Y-67027380D01*
X67285714Y-66979761D01*
X67285714Y-66955952D01*
X67261904Y-66908333D01*
X67214285Y-66884523D01*
X67142857Y-66884523D01*
X67095238Y-66860714D01*
X67071428Y-66813095D01*
X67071428Y-66789285D01*
X67095238Y-66741666D01*
X67142857Y-66717857D01*
X67214285Y-66717857D01*
X67261904Y-66741666D01*
X67500000Y-66860714D02*
X67880952Y-66860714D01*
X68190476Y-67051190D02*
X68142857Y-67027380D01*
X68119047Y-66979761D01*
X68119047Y-66551190D01*
X68380952Y-67051190D02*
X68380952Y-66717857D01*
X68380952Y-66551190D02*
X68357142Y-66575000D01*
X68380952Y-66598809D01*
X68404761Y-66575000D01*
X68380952Y-66551190D01*
X68380952Y-66598809D01*
X68833333Y-66717857D02*
X68833333Y-67122619D01*
X68809523Y-67170238D01*
X68785714Y-67194047D01*
X68738095Y-67217857D01*
X68666666Y-67217857D01*
X68619047Y-67194047D01*
X68833333Y-67027380D02*
X68785714Y-67051190D01*
X68690476Y-67051190D01*
X68642857Y-67027380D01*
X68619047Y-67003571D01*
X68595238Y-66955952D01*
X68595238Y-66813095D01*
X68619047Y-66765476D01*
X68642857Y-66741666D01*
X68690476Y-66717857D01*
X68785714Y-66717857D01*
X68833333Y-66741666D01*
X69071428Y-67051190D02*
X69071428Y-66551190D01*
X69285714Y-67051190D02*
X69285714Y-66789285D01*
X69261904Y-66741666D01*
X69214285Y-66717857D01*
X69142857Y-66717857D01*
X69095238Y-66741666D01*
X69071428Y-66765476D01*
X69452380Y-66717857D02*
X69642857Y-66717857D01*
X69523809Y-66551190D02*
X69523809Y-66979761D01*
X69547619Y-67027380D01*
X69595238Y-67051190D01*
X69642857Y-67051190D01*
X69809523Y-67003571D02*
X69833333Y-67027380D01*
X69809523Y-67051190D01*
X69785714Y-67027380D01*
X69809523Y-67003571D01*
X69809523Y-67051190D01*
X70238095Y-67027380D02*
X70190476Y-67051190D01*
X70095238Y-67051190D01*
X70047619Y-67027380D01*
X70023809Y-66979761D01*
X70023809Y-66789285D01*
X70047619Y-66741666D01*
X70095238Y-66717857D01*
X70190476Y-66717857D01*
X70238095Y-66741666D01*
X70261904Y-66789285D01*
X70261904Y-66836904D01*
X70023809Y-66884523D01*
X70690476Y-66717857D02*
X70690476Y-67051190D01*
X70476190Y-66717857D02*
X70476190Y-66979761D01*
X70500000Y-67027380D01*
X70547619Y-67051190D01*
X70619047Y-67051190D01*
X70666666Y-67027380D01*
X70690476Y-67003571D01*
X71404761Y-66551190D02*
X71452380Y-66551190D01*
X71500000Y-66575000D01*
X71523809Y-66598809D01*
X71547619Y-66646428D01*
X71571428Y-66741666D01*
X71571428Y-66860714D01*
X71547619Y-66955952D01*
X71523809Y-67003571D01*
X71500000Y-67027380D01*
X71452380Y-67051190D01*
X71404761Y-67051190D01*
X71357142Y-67027380D01*
X71333333Y-67003571D01*
X71309523Y-66955952D01*
X71285714Y-66860714D01*
X71285714Y-66741666D01*
X71309523Y-66646428D01*
X71333333Y-66598809D01*
X71357142Y-66575000D01*
X71404761Y-66551190D01*
X71857142Y-66765476D02*
X71809523Y-66741666D01*
X71785714Y-66717857D01*
X71761904Y-66670238D01*
X71761904Y-66646428D01*
X71785714Y-66598809D01*
X71809523Y-66575000D01*
X71857142Y-66551190D01*
X71952380Y-66551190D01*
X72000000Y-66575000D01*
X72023809Y-66598809D01*
X72047619Y-66646428D01*
X72047619Y-66670238D01*
X72023809Y-66717857D01*
X72000000Y-66741666D01*
X71952380Y-66765476D01*
X71857142Y-66765476D01*
X71809523Y-66789285D01*
X71785714Y-66813095D01*
X71761904Y-66860714D01*
X71761904Y-66955952D01*
X71785714Y-67003571D01*
X71809523Y-67027380D01*
X71857142Y-67051190D01*
X71952380Y-67051190D01*
X72000000Y-67027380D01*
X72023809Y-67003571D01*
X72047619Y-66955952D01*
X72047619Y-66860714D01*
X72023809Y-66813095D01*
X72000000Y-66789285D01*
X71952380Y-66765476D01*
X72261904Y-67003571D02*
X72285714Y-67027380D01*
X72261904Y-67051190D01*
X72238095Y-67027380D01*
X72261904Y-67003571D01*
X72261904Y-67051190D01*
X72595238Y-66551190D02*
X72642857Y-66551190D01*
X72690476Y-66575000D01*
X72714285Y-66598809D01*
X72738095Y-66646428D01*
X72761904Y-66741666D01*
X72761904Y-66860714D01*
X72738095Y-66955952D01*
X72714285Y-67003571D01*
X72690476Y-67027380D01*
X72642857Y-67051190D01*
X72595238Y-67051190D01*
X72547619Y-67027380D01*
X72523809Y-67003571D01*
X72500000Y-66955952D01*
X72476190Y-66860714D01*
X72476190Y-66741666D01*
X72500000Y-66646428D01*
X72523809Y-66598809D01*
X72547619Y-66575000D01*
X72595238Y-66551190D01*
X73047619Y-66765476D02*
X73000000Y-66741666D01*
X72976190Y-66717857D01*
X72952380Y-66670238D01*
X72952380Y-66646428D01*
X72976190Y-66598809D01*
X73000000Y-66575000D01*
X73047619Y-66551190D01*
X73142857Y-66551190D01*
X73190476Y-66575000D01*
X73214285Y-66598809D01*
X73238095Y-66646428D01*
X73238095Y-66670238D01*
X73214285Y-66717857D01*
X73190476Y-66741666D01*
X73142857Y-66765476D01*
X73047619Y-66765476D01*
X73000000Y-66789285D01*
X72976190Y-66813095D01*
X72952380Y-66860714D01*
X72952380Y-66955952D01*
X72976190Y-67003571D01*
X73000000Y-67027380D01*
X73047619Y-67051190D01*
X73142857Y-67051190D01*
X73190476Y-67027380D01*
X73214285Y-67003571D01*
X73238095Y-66955952D01*
X73238095Y-66860714D01*
X73214285Y-66813095D01*
X73190476Y-66789285D01*
X73142857Y-66765476D01*
X73452380Y-67003571D02*
X73476190Y-67027380D01*
X73452380Y-67051190D01*
X73428571Y-67027380D01*
X73452380Y-67003571D01*
X73452380Y-67051190D01*
X73666666Y-66598809D02*
X73690476Y-66575000D01*
X73738095Y-66551190D01*
X73857142Y-66551190D01*
X73904761Y-66575000D01*
X73928571Y-66598809D01*
X73952380Y-66646428D01*
X73952380Y-66694047D01*
X73928571Y-66765476D01*
X73642857Y-67051190D01*
X73952380Y-67051190D01*
X74261904Y-66551190D02*
X74309523Y-66551190D01*
X74357142Y-66575000D01*
X74380952Y-66598809D01*
X74404761Y-66646428D01*
X74428571Y-66741666D01*
X74428571Y-66860714D01*
X74404761Y-66955952D01*
X74380952Y-67003571D01*
X74357142Y-67027380D01*
X74309523Y-67051190D01*
X74261904Y-67051190D01*
X74214285Y-67027380D01*
X74190476Y-67003571D01*
X74166666Y-66955952D01*
X74142857Y-66860714D01*
X74142857Y-66741666D01*
X74166666Y-66646428D01*
X74190476Y-66598809D01*
X74214285Y-66575000D01*
X74261904Y-66551190D01*
X74904761Y-67051190D02*
X74619047Y-67051190D01*
X74761904Y-67051190D02*
X74761904Y-66551190D01*
X74714285Y-66622619D01*
X74666666Y-66670238D01*
X74619047Y-66694047D01*
X75071428Y-66551190D02*
X75404761Y-66551190D01*
X75190476Y-67051190D01*
D11*
%TO.C,D1.1*%
X54450000Y-53950000D02*
X54400000Y-53800000D01*
X54250000Y-53850000D02*
X54300000Y-53800000D01*
X54350000Y-53850000D02*
X54400000Y-53800000D01*
X54350000Y-53950000D02*
X54300000Y-53800000D01*
X54350000Y-52750000D02*
X54300000Y-52600000D01*
X54250000Y-52650000D02*
X54300000Y-52600000D01*
X54350000Y-52650000D02*
X54400000Y-52600000D01*
X54450000Y-52750000D02*
X54400000Y-52600000D01*
X54350000Y-51450000D02*
X54400000Y-51400000D01*
D12*
X54600000Y-54400000D02*
X54600000Y-54000000D01*
X54200000Y-54200000D02*
X54600000Y-54400000D01*
X54600000Y-54000000D02*
X54200000Y-54200000D01*
X54200000Y-54000000D02*
X54200000Y-54400000D01*
X54000000Y-54200000D02*
X54800000Y-54200000D01*
X54600000Y-53200000D02*
X54600000Y-52800000D01*
X54200000Y-53000000D02*
X54600000Y-53200000D01*
X54600000Y-52800000D02*
X54200000Y-53000000D01*
X54200000Y-52800000D02*
X54200000Y-53200000D01*
X54000000Y-53000000D02*
X54800000Y-53000000D01*
X53600000Y-51200000D02*
X56400000Y-51200000D01*
X56400000Y-54700000D02*
X53600000Y-54700000D01*
X52500000Y-50750000D02*
G75*
G03X52500000Y-50750000I-250000J0D01*
G01*
D10*
X54200000Y-51600000D02*
X54200000Y-52000000D01*
X54200000Y-51800000D02*
X54600000Y-52000000D01*
X54600000Y-52000000D02*
X54600000Y-51600000D01*
X54600000Y-51600000D02*
X54200000Y-51800000D01*
X54000000Y-51800000D02*
X54800000Y-51800000D01*
D11*
X54350000Y-51550000D02*
X54300000Y-51400000D01*
X54450000Y-51550000D02*
X54400000Y-51400000D01*
X54250000Y-51450000D02*
X54300000Y-51400000D01*
%TO.C,D1.2*%
X54450000Y-63950000D02*
X54400000Y-63800000D01*
X54250000Y-63850000D02*
X54300000Y-63800000D01*
X54350000Y-63850000D02*
X54400000Y-63800000D01*
X54350000Y-63950000D02*
X54300000Y-63800000D01*
X54350000Y-62750000D02*
X54300000Y-62600000D01*
X54250000Y-62650000D02*
X54300000Y-62600000D01*
X54350000Y-62650000D02*
X54400000Y-62600000D01*
X54450000Y-62750000D02*
X54400000Y-62600000D01*
X54350000Y-61450000D02*
X54400000Y-61400000D01*
D12*
X54600000Y-64400000D02*
X54600000Y-64000000D01*
X54200000Y-64200000D02*
X54600000Y-64400000D01*
X54600000Y-64000000D02*
X54200000Y-64200000D01*
X54200000Y-64000000D02*
X54200000Y-64400000D01*
X54000000Y-64200000D02*
X54800000Y-64200000D01*
X54600000Y-63200000D02*
X54600000Y-62800000D01*
X54200000Y-63000000D02*
X54600000Y-63200000D01*
X54600000Y-62800000D02*
X54200000Y-63000000D01*
X54200000Y-62800000D02*
X54200000Y-63200000D01*
X54000000Y-63000000D02*
X54800000Y-63000000D01*
X53600000Y-61200000D02*
X56400000Y-61200000D01*
X56400000Y-64700000D02*
X53600000Y-64700000D01*
X52500000Y-60750000D02*
G75*
G03X52500000Y-60750000I-250000J0D01*
G01*
D10*
X54200000Y-61600000D02*
X54200000Y-62000000D01*
X54200000Y-61800000D02*
X54600000Y-62000000D01*
X54600000Y-62000000D02*
X54600000Y-61600000D01*
X54600000Y-61600000D02*
X54200000Y-61800000D01*
X54000000Y-61800000D02*
X54800000Y-61800000D01*
D11*
X54350000Y-61550000D02*
X54300000Y-61400000D01*
X54450000Y-61550000D02*
X54400000Y-61400000D01*
X54250000Y-61450000D02*
X54300000Y-61400000D01*
%TO.C,D1.3*%
X54450000Y-73950000D02*
X54400000Y-73800000D01*
X54250000Y-73850000D02*
X54300000Y-73800000D01*
X54350000Y-73850000D02*
X54400000Y-73800000D01*
X54350000Y-73950000D02*
X54300000Y-73800000D01*
X54350000Y-72750000D02*
X54300000Y-72600000D01*
X54250000Y-72650000D02*
X54300000Y-72600000D01*
X54350000Y-72650000D02*
X54400000Y-72600000D01*
X54450000Y-72750000D02*
X54400000Y-72600000D01*
X54350000Y-71450000D02*
X54400000Y-71400000D01*
D12*
X54600000Y-74400000D02*
X54600000Y-74000000D01*
X54200000Y-74200000D02*
X54600000Y-74400000D01*
X54600000Y-74000000D02*
X54200000Y-74200000D01*
X54200000Y-74000000D02*
X54200000Y-74400000D01*
X54000000Y-74200000D02*
X54800000Y-74200000D01*
X54600000Y-73200000D02*
X54600000Y-72800000D01*
X54200000Y-73000000D02*
X54600000Y-73200000D01*
X54600000Y-72800000D02*
X54200000Y-73000000D01*
X54200000Y-72800000D02*
X54200000Y-73200000D01*
X54000000Y-73000000D02*
X54800000Y-73000000D01*
X53600000Y-71200000D02*
X56400000Y-71200000D01*
X56400000Y-74700000D02*
X53600000Y-74700000D01*
X52500000Y-70750000D02*
G75*
G03X52500000Y-70750000I-250000J0D01*
G01*
D10*
X54200000Y-71600000D02*
X54200000Y-72000000D01*
X54200000Y-71800000D02*
X54600000Y-72000000D01*
X54600000Y-72000000D02*
X54600000Y-71600000D01*
X54600000Y-71600000D02*
X54200000Y-71800000D01*
X54000000Y-71800000D02*
X54800000Y-71800000D01*
D11*
X54350000Y-71550000D02*
X54300000Y-71400000D01*
X54450000Y-71550000D02*
X54400000Y-71400000D01*
X54250000Y-71450000D02*
X54300000Y-71400000D01*
%TO.C,D1.4*%
X54450000Y-83950000D02*
X54400000Y-83800000D01*
X54250000Y-83850000D02*
X54300000Y-83800000D01*
X54350000Y-83850000D02*
X54400000Y-83800000D01*
X54350000Y-83950000D02*
X54300000Y-83800000D01*
X54350000Y-82750000D02*
X54300000Y-82600000D01*
X54250000Y-82650000D02*
X54300000Y-82600000D01*
X54350000Y-82650000D02*
X54400000Y-82600000D01*
X54450000Y-82750000D02*
X54400000Y-82600000D01*
X54350000Y-81450000D02*
X54400000Y-81400000D01*
D12*
X54600000Y-84400000D02*
X54600000Y-84000000D01*
X54200000Y-84200000D02*
X54600000Y-84400000D01*
X54600000Y-84000000D02*
X54200000Y-84200000D01*
X54200000Y-84000000D02*
X54200000Y-84400000D01*
X54000000Y-84200000D02*
X54800000Y-84200000D01*
X54600000Y-83200000D02*
X54600000Y-82800000D01*
X54200000Y-83000000D02*
X54600000Y-83200000D01*
X54600000Y-82800000D02*
X54200000Y-83000000D01*
X54200000Y-82800000D02*
X54200000Y-83200000D01*
X54000000Y-83000000D02*
X54800000Y-83000000D01*
X53600000Y-81200000D02*
X56400000Y-81200000D01*
X56400000Y-84700000D02*
X53600000Y-84700000D01*
X52500000Y-80750000D02*
G75*
G03X52500000Y-80750000I-250000J0D01*
G01*
D10*
X54200000Y-81600000D02*
X54200000Y-82000000D01*
X54200000Y-81800000D02*
X54600000Y-82000000D01*
X54600000Y-82000000D02*
X54600000Y-81600000D01*
X54600000Y-81600000D02*
X54200000Y-81800000D01*
X54000000Y-81800000D02*
X54800000Y-81800000D01*
D11*
X54350000Y-81550000D02*
X54300000Y-81400000D01*
X54450000Y-81550000D02*
X54400000Y-81400000D01*
X54250000Y-81450000D02*
X54300000Y-81400000D01*
%TO.C,D2.1*%
X64450000Y-53950000D02*
X64400000Y-53800000D01*
X64250000Y-53850000D02*
X64300000Y-53800000D01*
X64350000Y-53850000D02*
X64400000Y-53800000D01*
X64350000Y-53950000D02*
X64300000Y-53800000D01*
X64350000Y-52750000D02*
X64300000Y-52600000D01*
X64250000Y-52650000D02*
X64300000Y-52600000D01*
X64350000Y-52650000D02*
X64400000Y-52600000D01*
X64450000Y-52750000D02*
X64400000Y-52600000D01*
X64350000Y-51450000D02*
X64400000Y-51400000D01*
D12*
X64600000Y-54400000D02*
X64600000Y-54000000D01*
X64200000Y-54200000D02*
X64600000Y-54400000D01*
X64600000Y-54000000D02*
X64200000Y-54200000D01*
X64200000Y-54000000D02*
X64200000Y-54400000D01*
X64000000Y-54200000D02*
X64800000Y-54200000D01*
X64600000Y-53200000D02*
X64600000Y-52800000D01*
X64200000Y-53000000D02*
X64600000Y-53200000D01*
X64600000Y-52800000D02*
X64200000Y-53000000D01*
X64200000Y-52800000D02*
X64200000Y-53200000D01*
X64000000Y-53000000D02*
X64800000Y-53000000D01*
X63600000Y-51200000D02*
X66400000Y-51200000D01*
X66400000Y-54700000D02*
X63600000Y-54700000D01*
X62500000Y-50750000D02*
G75*
G03X62500000Y-50750000I-250000J0D01*
G01*
D10*
X64200000Y-51600000D02*
X64200000Y-52000000D01*
X64200000Y-51800000D02*
X64600000Y-52000000D01*
X64600000Y-52000000D02*
X64600000Y-51600000D01*
X64600000Y-51600000D02*
X64200000Y-51800000D01*
X64000000Y-51800000D02*
X64800000Y-51800000D01*
D11*
X64350000Y-51550000D02*
X64300000Y-51400000D01*
X64450000Y-51550000D02*
X64400000Y-51400000D01*
X64250000Y-51450000D02*
X64300000Y-51400000D01*
%TO.C,D2.2*%
X64450000Y-63950000D02*
X64400000Y-63800000D01*
X64250000Y-63850000D02*
X64300000Y-63800000D01*
X64350000Y-63850000D02*
X64400000Y-63800000D01*
X64350000Y-63950000D02*
X64300000Y-63800000D01*
X64350000Y-62750000D02*
X64300000Y-62600000D01*
X64250000Y-62650000D02*
X64300000Y-62600000D01*
X64350000Y-62650000D02*
X64400000Y-62600000D01*
X64450000Y-62750000D02*
X64400000Y-62600000D01*
X64350000Y-61450000D02*
X64400000Y-61400000D01*
D12*
X64600000Y-64400000D02*
X64600000Y-64000000D01*
X64200000Y-64200000D02*
X64600000Y-64400000D01*
X64600000Y-64000000D02*
X64200000Y-64200000D01*
X64200000Y-64000000D02*
X64200000Y-64400000D01*
X64000000Y-64200000D02*
X64800000Y-64200000D01*
X64600000Y-63200000D02*
X64600000Y-62800000D01*
X64200000Y-63000000D02*
X64600000Y-63200000D01*
X64600000Y-62800000D02*
X64200000Y-63000000D01*
X64200000Y-62800000D02*
X64200000Y-63200000D01*
X64000000Y-63000000D02*
X64800000Y-63000000D01*
X63600000Y-61200000D02*
X66400000Y-61200000D01*
X66400000Y-64700000D02*
X63600000Y-64700000D01*
X62500000Y-60750000D02*
G75*
G03X62500000Y-60750000I-250000J0D01*
G01*
D10*
X64200000Y-61600000D02*
X64200000Y-62000000D01*
X64200000Y-61800000D02*
X64600000Y-62000000D01*
X64600000Y-62000000D02*
X64600000Y-61600000D01*
X64600000Y-61600000D02*
X64200000Y-61800000D01*
X64000000Y-61800000D02*
X64800000Y-61800000D01*
D11*
X64350000Y-61550000D02*
X64300000Y-61400000D01*
X64450000Y-61550000D02*
X64400000Y-61400000D01*
X64250000Y-61450000D02*
X64300000Y-61400000D01*
%TO.C,D2.3*%
X64450000Y-73950000D02*
X64400000Y-73800000D01*
X64250000Y-73850000D02*
X64300000Y-73800000D01*
X64350000Y-73850000D02*
X64400000Y-73800000D01*
X64350000Y-73950000D02*
X64300000Y-73800000D01*
X64350000Y-72750000D02*
X64300000Y-72600000D01*
X64250000Y-72650000D02*
X64300000Y-72600000D01*
X64350000Y-72650000D02*
X64400000Y-72600000D01*
X64450000Y-72750000D02*
X64400000Y-72600000D01*
X64350000Y-71450000D02*
X64400000Y-71400000D01*
D12*
X64600000Y-74400000D02*
X64600000Y-74000000D01*
X64200000Y-74200000D02*
X64600000Y-74400000D01*
X64600000Y-74000000D02*
X64200000Y-74200000D01*
X64200000Y-74000000D02*
X64200000Y-74400000D01*
X64000000Y-74200000D02*
X64800000Y-74200000D01*
X64600000Y-73200000D02*
X64600000Y-72800000D01*
X64200000Y-73000000D02*
X64600000Y-73200000D01*
X64600000Y-72800000D02*
X64200000Y-73000000D01*
X64200000Y-72800000D02*
X64200000Y-73200000D01*
X64000000Y-73000000D02*
X64800000Y-73000000D01*
X63600000Y-71200000D02*
X66400000Y-71200000D01*
X66400000Y-74700000D02*
X63600000Y-74700000D01*
X62500000Y-70750000D02*
G75*
G03X62500000Y-70750000I-250000J0D01*
G01*
D10*
X64200000Y-71600000D02*
X64200000Y-72000000D01*
X64200000Y-71800000D02*
X64600000Y-72000000D01*
X64600000Y-72000000D02*
X64600000Y-71600000D01*
X64600000Y-71600000D02*
X64200000Y-71800000D01*
X64000000Y-71800000D02*
X64800000Y-71800000D01*
D11*
X64350000Y-71550000D02*
X64300000Y-71400000D01*
X64450000Y-71550000D02*
X64400000Y-71400000D01*
X64250000Y-71450000D02*
X64300000Y-71400000D01*
%TO.C,D2.4*%
X64450000Y-83950000D02*
X64400000Y-83800000D01*
X64250000Y-83850000D02*
X64300000Y-83800000D01*
X64350000Y-83850000D02*
X64400000Y-83800000D01*
X64350000Y-83950000D02*
X64300000Y-83800000D01*
X64350000Y-82750000D02*
X64300000Y-82600000D01*
X64250000Y-82650000D02*
X64300000Y-82600000D01*
X64350000Y-82650000D02*
X64400000Y-82600000D01*
X64450000Y-82750000D02*
X64400000Y-82600000D01*
X64350000Y-81450000D02*
X64400000Y-81400000D01*
D12*
X64600000Y-84400000D02*
X64600000Y-84000000D01*
X64200000Y-84200000D02*
X64600000Y-84400000D01*
X64600000Y-84000000D02*
X64200000Y-84200000D01*
X64200000Y-84000000D02*
X64200000Y-84400000D01*
X64000000Y-84200000D02*
X64800000Y-84200000D01*
X64600000Y-83200000D02*
X64600000Y-82800000D01*
X64200000Y-83000000D02*
X64600000Y-83200000D01*
X64600000Y-82800000D02*
X64200000Y-83000000D01*
X64200000Y-82800000D02*
X64200000Y-83200000D01*
X64000000Y-83000000D02*
X64800000Y-83000000D01*
X63600000Y-81200000D02*
X66400000Y-81200000D01*
X66400000Y-84700000D02*
X63600000Y-84700000D01*
X62500000Y-80750000D02*
G75*
G03X62500000Y-80750000I-250000J0D01*
G01*
D10*
X64200000Y-81600000D02*
X64200000Y-82000000D01*
X64200000Y-81800000D02*
X64600000Y-82000000D01*
X64600000Y-82000000D02*
X64600000Y-81600000D01*
X64600000Y-81600000D02*
X64200000Y-81800000D01*
X64000000Y-81800000D02*
X64800000Y-81800000D01*
D11*
X64350000Y-81550000D02*
X64300000Y-81400000D01*
X64450000Y-81550000D02*
X64400000Y-81400000D01*
X64250000Y-81450000D02*
X64300000Y-81400000D01*
%TO.C,D3.1*%
X74450000Y-53950000D02*
X74400000Y-53800000D01*
X74250000Y-53850000D02*
X74300000Y-53800000D01*
X74350000Y-53850000D02*
X74400000Y-53800000D01*
X74350000Y-53950000D02*
X74300000Y-53800000D01*
X74350000Y-52750000D02*
X74300000Y-52600000D01*
X74250000Y-52650000D02*
X74300000Y-52600000D01*
X74350000Y-52650000D02*
X74400000Y-52600000D01*
X74450000Y-52750000D02*
X74400000Y-52600000D01*
X74350000Y-51450000D02*
X74400000Y-51400000D01*
D12*
X74600000Y-54400000D02*
X74600000Y-54000000D01*
X74200000Y-54200000D02*
X74600000Y-54400000D01*
X74600000Y-54000000D02*
X74200000Y-54200000D01*
X74200000Y-54000000D02*
X74200000Y-54400000D01*
X74000000Y-54200000D02*
X74800000Y-54200000D01*
X74600000Y-53200000D02*
X74600000Y-52800000D01*
X74200000Y-53000000D02*
X74600000Y-53200000D01*
X74600000Y-52800000D02*
X74200000Y-53000000D01*
X74200000Y-52800000D02*
X74200000Y-53200000D01*
X74000000Y-53000000D02*
X74800000Y-53000000D01*
X73600000Y-51200000D02*
X76400000Y-51200000D01*
X76400000Y-54700000D02*
X73600000Y-54700000D01*
X72500000Y-50750000D02*
G75*
G03X72500000Y-50750000I-250000J0D01*
G01*
D10*
X74200000Y-51600000D02*
X74200000Y-52000000D01*
X74200000Y-51800000D02*
X74600000Y-52000000D01*
X74600000Y-52000000D02*
X74600000Y-51600000D01*
X74600000Y-51600000D02*
X74200000Y-51800000D01*
X74000000Y-51800000D02*
X74800000Y-51800000D01*
D11*
X74350000Y-51550000D02*
X74300000Y-51400000D01*
X74450000Y-51550000D02*
X74400000Y-51400000D01*
X74250000Y-51450000D02*
X74300000Y-51400000D01*
%TO.C,D3.2*%
X74450000Y-63950000D02*
X74400000Y-63800000D01*
X74250000Y-63850000D02*
X74300000Y-63800000D01*
X74350000Y-63850000D02*
X74400000Y-63800000D01*
X74350000Y-63950000D02*
X74300000Y-63800000D01*
X74350000Y-62750000D02*
X74300000Y-62600000D01*
X74250000Y-62650000D02*
X74300000Y-62600000D01*
X74350000Y-62650000D02*
X74400000Y-62600000D01*
X74450000Y-62750000D02*
X74400000Y-62600000D01*
X74350000Y-61450000D02*
X74400000Y-61400000D01*
D12*
X74600000Y-64400000D02*
X74600000Y-64000000D01*
X74200000Y-64200000D02*
X74600000Y-64400000D01*
X74600000Y-64000000D02*
X74200000Y-64200000D01*
X74200000Y-64000000D02*
X74200000Y-64400000D01*
X74000000Y-64200000D02*
X74800000Y-64200000D01*
X74600000Y-63200000D02*
X74600000Y-62800000D01*
X74200000Y-63000000D02*
X74600000Y-63200000D01*
X74600000Y-62800000D02*
X74200000Y-63000000D01*
X74200000Y-62800000D02*
X74200000Y-63200000D01*
X74000000Y-63000000D02*
X74800000Y-63000000D01*
X73600000Y-61200000D02*
X76400000Y-61200000D01*
X76400000Y-64700000D02*
X73600000Y-64700000D01*
X72500000Y-60750000D02*
G75*
G03X72500000Y-60750000I-250000J0D01*
G01*
D10*
X74200000Y-61600000D02*
X74200000Y-62000000D01*
X74200000Y-61800000D02*
X74600000Y-62000000D01*
X74600000Y-62000000D02*
X74600000Y-61600000D01*
X74600000Y-61600000D02*
X74200000Y-61800000D01*
X74000000Y-61800000D02*
X74800000Y-61800000D01*
D11*
X74350000Y-61550000D02*
X74300000Y-61400000D01*
X74450000Y-61550000D02*
X74400000Y-61400000D01*
X74250000Y-61450000D02*
X74300000Y-61400000D01*
%TO.C,D3.3*%
X74450000Y-73950000D02*
X74400000Y-73800000D01*
X74250000Y-73850000D02*
X74300000Y-73800000D01*
X74350000Y-73850000D02*
X74400000Y-73800000D01*
X74350000Y-73950000D02*
X74300000Y-73800000D01*
X74350000Y-72750000D02*
X74300000Y-72600000D01*
X74250000Y-72650000D02*
X74300000Y-72600000D01*
X74350000Y-72650000D02*
X74400000Y-72600000D01*
X74450000Y-72750000D02*
X74400000Y-72600000D01*
X74350000Y-71450000D02*
X74400000Y-71400000D01*
D12*
X74600000Y-74400000D02*
X74600000Y-74000000D01*
X74200000Y-74200000D02*
X74600000Y-74400000D01*
X74600000Y-74000000D02*
X74200000Y-74200000D01*
X74200000Y-74000000D02*
X74200000Y-74400000D01*
X74000000Y-74200000D02*
X74800000Y-74200000D01*
X74600000Y-73200000D02*
X74600000Y-72800000D01*
X74200000Y-73000000D02*
X74600000Y-73200000D01*
X74600000Y-72800000D02*
X74200000Y-73000000D01*
X74200000Y-72800000D02*
X74200000Y-73200000D01*
X74000000Y-73000000D02*
X74800000Y-73000000D01*
X73600000Y-71200000D02*
X76400000Y-71200000D01*
X76400000Y-74700000D02*
X73600000Y-74700000D01*
X72500000Y-70750000D02*
G75*
G03X72500000Y-70750000I-250000J0D01*
G01*
D10*
X74200000Y-71600000D02*
X74200000Y-72000000D01*
X74200000Y-71800000D02*
X74600000Y-72000000D01*
X74600000Y-72000000D02*
X74600000Y-71600000D01*
X74600000Y-71600000D02*
X74200000Y-71800000D01*
X74000000Y-71800000D02*
X74800000Y-71800000D01*
D11*
X74350000Y-71550000D02*
X74300000Y-71400000D01*
X74450000Y-71550000D02*
X74400000Y-71400000D01*
X74250000Y-71450000D02*
X74300000Y-71400000D01*
%TO.C,D3.4*%
X74450000Y-83950000D02*
X74400000Y-83800000D01*
X74250000Y-83850000D02*
X74300000Y-83800000D01*
X74350000Y-83850000D02*
X74400000Y-83800000D01*
X74350000Y-83950000D02*
X74300000Y-83800000D01*
X74350000Y-82750000D02*
X74300000Y-82600000D01*
X74250000Y-82650000D02*
X74300000Y-82600000D01*
X74350000Y-82650000D02*
X74400000Y-82600000D01*
X74450000Y-82750000D02*
X74400000Y-82600000D01*
X74350000Y-81450000D02*
X74400000Y-81400000D01*
D12*
X74600000Y-84400000D02*
X74600000Y-84000000D01*
X74200000Y-84200000D02*
X74600000Y-84400000D01*
X74600000Y-84000000D02*
X74200000Y-84200000D01*
X74200000Y-84000000D02*
X74200000Y-84400000D01*
X74000000Y-84200000D02*
X74800000Y-84200000D01*
X74600000Y-83200000D02*
X74600000Y-82800000D01*
X74200000Y-83000000D02*
X74600000Y-83200000D01*
X74600000Y-82800000D02*
X74200000Y-83000000D01*
X74200000Y-82800000D02*
X74200000Y-83200000D01*
X74000000Y-83000000D02*
X74800000Y-83000000D01*
X73600000Y-81200000D02*
X76400000Y-81200000D01*
X76400000Y-84700000D02*
X73600000Y-84700000D01*
X72500000Y-80750000D02*
G75*
G03X72500000Y-80750000I-250000J0D01*
G01*
D10*
X74200000Y-81600000D02*
X74200000Y-82000000D01*
X74200000Y-81800000D02*
X74600000Y-82000000D01*
X74600000Y-82000000D02*
X74600000Y-81600000D01*
X74600000Y-81600000D02*
X74200000Y-81800000D01*
X74000000Y-81800000D02*
X74800000Y-81800000D01*
D11*
X74350000Y-81550000D02*
X74300000Y-81400000D01*
X74450000Y-81550000D02*
X74400000Y-81400000D01*
X74250000Y-81450000D02*
X74300000Y-81400000D01*
%TO.C,D4.1*%
X84450000Y-53950000D02*
X84400000Y-53800000D01*
X84250000Y-53850000D02*
X84300000Y-53800000D01*
X84350000Y-53850000D02*
X84400000Y-53800000D01*
X84350000Y-53950000D02*
X84300000Y-53800000D01*
X84350000Y-52750000D02*
X84300000Y-52600000D01*
X84250000Y-52650000D02*
X84300000Y-52600000D01*
X84350000Y-52650000D02*
X84400000Y-52600000D01*
X84450000Y-52750000D02*
X84400000Y-52600000D01*
X84350000Y-51450000D02*
X84400000Y-51400000D01*
D12*
X84600000Y-54400000D02*
X84600000Y-54000000D01*
X84200000Y-54200000D02*
X84600000Y-54400000D01*
X84600000Y-54000000D02*
X84200000Y-54200000D01*
X84200000Y-54000000D02*
X84200000Y-54400000D01*
X84000000Y-54200000D02*
X84800000Y-54200000D01*
X84600000Y-53200000D02*
X84600000Y-52800000D01*
X84200000Y-53000000D02*
X84600000Y-53200000D01*
X84600000Y-52800000D02*
X84200000Y-53000000D01*
X84200000Y-52800000D02*
X84200000Y-53200000D01*
X84000000Y-53000000D02*
X84800000Y-53000000D01*
X83600000Y-51200000D02*
X86400000Y-51200000D01*
X86400000Y-54700000D02*
X83600000Y-54700000D01*
X82500000Y-50750000D02*
G75*
G03X82500000Y-50750000I-250000J0D01*
G01*
D10*
X84200000Y-51600000D02*
X84200000Y-52000000D01*
X84200000Y-51800000D02*
X84600000Y-52000000D01*
X84600000Y-52000000D02*
X84600000Y-51600000D01*
X84600000Y-51600000D02*
X84200000Y-51800000D01*
X84000000Y-51800000D02*
X84800000Y-51800000D01*
D11*
X84350000Y-51550000D02*
X84300000Y-51400000D01*
X84450000Y-51550000D02*
X84400000Y-51400000D01*
X84250000Y-51450000D02*
X84300000Y-51400000D01*
%TO.C,D4.2*%
X84450000Y-63950000D02*
X84400000Y-63800000D01*
X84250000Y-63850000D02*
X84300000Y-63800000D01*
X84350000Y-63850000D02*
X84400000Y-63800000D01*
X84350000Y-63950000D02*
X84300000Y-63800000D01*
X84350000Y-62750000D02*
X84300000Y-62600000D01*
X84250000Y-62650000D02*
X84300000Y-62600000D01*
X84350000Y-62650000D02*
X84400000Y-62600000D01*
X84450000Y-62750000D02*
X84400000Y-62600000D01*
X84350000Y-61450000D02*
X84400000Y-61400000D01*
D12*
X84600000Y-64400000D02*
X84600000Y-64000000D01*
X84200000Y-64200000D02*
X84600000Y-64400000D01*
X84600000Y-64000000D02*
X84200000Y-64200000D01*
X84200000Y-64000000D02*
X84200000Y-64400000D01*
X84000000Y-64200000D02*
X84800000Y-64200000D01*
X84600000Y-63200000D02*
X84600000Y-62800000D01*
X84200000Y-63000000D02*
X84600000Y-63200000D01*
X84600000Y-62800000D02*
X84200000Y-63000000D01*
X84200000Y-62800000D02*
X84200000Y-63200000D01*
X84000000Y-63000000D02*
X84800000Y-63000000D01*
X83600000Y-61200000D02*
X86400000Y-61200000D01*
X86400000Y-64700000D02*
X83600000Y-64700000D01*
X82500000Y-60750000D02*
G75*
G03X82500000Y-60750000I-250000J0D01*
G01*
D10*
X84200000Y-61600000D02*
X84200000Y-62000000D01*
X84200000Y-61800000D02*
X84600000Y-62000000D01*
X84600000Y-62000000D02*
X84600000Y-61600000D01*
X84600000Y-61600000D02*
X84200000Y-61800000D01*
X84000000Y-61800000D02*
X84800000Y-61800000D01*
D11*
X84350000Y-61550000D02*
X84300000Y-61400000D01*
X84450000Y-61550000D02*
X84400000Y-61400000D01*
X84250000Y-61450000D02*
X84300000Y-61400000D01*
%TO.C,D4.3*%
X84450000Y-73950000D02*
X84400000Y-73800000D01*
X84250000Y-73850000D02*
X84300000Y-73800000D01*
X84350000Y-73850000D02*
X84400000Y-73800000D01*
X84350000Y-73950000D02*
X84300000Y-73800000D01*
X84350000Y-72750000D02*
X84300000Y-72600000D01*
X84250000Y-72650000D02*
X84300000Y-72600000D01*
X84350000Y-72650000D02*
X84400000Y-72600000D01*
X84450000Y-72750000D02*
X84400000Y-72600000D01*
X84350000Y-71450000D02*
X84400000Y-71400000D01*
D12*
X84600000Y-74400000D02*
X84600000Y-74000000D01*
X84200000Y-74200000D02*
X84600000Y-74400000D01*
X84600000Y-74000000D02*
X84200000Y-74200000D01*
X84200000Y-74000000D02*
X84200000Y-74400000D01*
X84000000Y-74200000D02*
X84800000Y-74200000D01*
X84600000Y-73200000D02*
X84600000Y-72800000D01*
X84200000Y-73000000D02*
X84600000Y-73200000D01*
X84600000Y-72800000D02*
X84200000Y-73000000D01*
X84200000Y-72800000D02*
X84200000Y-73200000D01*
X84000000Y-73000000D02*
X84800000Y-73000000D01*
X83600000Y-71200000D02*
X86400000Y-71200000D01*
X86400000Y-74700000D02*
X83600000Y-74700000D01*
X82500000Y-70750000D02*
G75*
G03X82500000Y-70750000I-250000J0D01*
G01*
D10*
X84200000Y-71600000D02*
X84200000Y-72000000D01*
X84200000Y-71800000D02*
X84600000Y-72000000D01*
X84600000Y-72000000D02*
X84600000Y-71600000D01*
X84600000Y-71600000D02*
X84200000Y-71800000D01*
X84000000Y-71800000D02*
X84800000Y-71800000D01*
D11*
X84350000Y-71550000D02*
X84300000Y-71400000D01*
X84450000Y-71550000D02*
X84400000Y-71400000D01*
X84250000Y-71450000D02*
X84300000Y-71400000D01*
%TO.C,D4.4*%
X84450000Y-83950000D02*
X84400000Y-83800000D01*
X84250000Y-83850000D02*
X84300000Y-83800000D01*
X84350000Y-83850000D02*
X84400000Y-83800000D01*
X84350000Y-83950000D02*
X84300000Y-83800000D01*
X84350000Y-82750000D02*
X84300000Y-82600000D01*
X84250000Y-82650000D02*
X84300000Y-82600000D01*
X84350000Y-82650000D02*
X84400000Y-82600000D01*
X84450000Y-82750000D02*
X84400000Y-82600000D01*
X84350000Y-81450000D02*
X84400000Y-81400000D01*
D12*
X84600000Y-84400000D02*
X84600000Y-84000000D01*
X84200000Y-84200000D02*
X84600000Y-84400000D01*
X84600000Y-84000000D02*
X84200000Y-84200000D01*
X84200000Y-84000000D02*
X84200000Y-84400000D01*
X84000000Y-84200000D02*
X84800000Y-84200000D01*
X84600000Y-83200000D02*
X84600000Y-82800000D01*
X84200000Y-83000000D02*
X84600000Y-83200000D01*
X84600000Y-82800000D02*
X84200000Y-83000000D01*
X84200000Y-82800000D02*
X84200000Y-83200000D01*
X84000000Y-83000000D02*
X84800000Y-83000000D01*
X83600000Y-81200000D02*
X86400000Y-81200000D01*
X86400000Y-84700000D02*
X83600000Y-84700000D01*
X82500000Y-80750000D02*
G75*
G03X82500000Y-80750000I-250000J0D01*
G01*
D10*
X84200000Y-81600000D02*
X84200000Y-82000000D01*
X84200000Y-81800000D02*
X84600000Y-82000000D01*
X84600000Y-82000000D02*
X84600000Y-81600000D01*
X84600000Y-81600000D02*
X84200000Y-81800000D01*
X84000000Y-81800000D02*
X84800000Y-81800000D01*
D11*
X84350000Y-81550000D02*
X84300000Y-81400000D01*
X84450000Y-81550000D02*
X84400000Y-81400000D01*
X84250000Y-81450000D02*
X84300000Y-81400000D01*
D12*
%TO.C,U1*%
X62150000Y-55850000D02*
X61625000Y-55850000D01*
X62150000Y-60150000D02*
X61625000Y-60150000D01*
X57850000Y-60150000D02*
X58375000Y-60150000D01*
X57850000Y-55850000D02*
X58375000Y-55850000D01*
X62150000Y-60150000D02*
X62150000Y-59625000D01*
X57850000Y-60150000D02*
X57850000Y-59625000D01*
X62150000Y-55850000D02*
X62150000Y-56375000D01*
%TO.C,U2*%
X82150000Y-55850000D02*
X81625000Y-55850000D01*
X82150000Y-60150000D02*
X81625000Y-60150000D01*
X77850000Y-60150000D02*
X78375000Y-60150000D01*
X77850000Y-55850000D02*
X78375000Y-55850000D01*
X82150000Y-60150000D02*
X82150000Y-59625000D01*
X77850000Y-60150000D02*
X77850000Y-59625000D01*
X82150000Y-55850000D02*
X82150000Y-56375000D01*
%TO.C,U3*%
X62150000Y-75850000D02*
X61625000Y-75850000D01*
X62150000Y-80150000D02*
X61625000Y-80150000D01*
X57850000Y-80150000D02*
X58375000Y-80150000D01*
X57850000Y-75850000D02*
X58375000Y-75850000D01*
X62150000Y-80150000D02*
X62150000Y-79625000D01*
X57850000Y-80150000D02*
X57850000Y-79625000D01*
X62150000Y-75850000D02*
X62150000Y-76375000D01*
%TO.C,U4*%
X82150000Y-75850000D02*
X81625000Y-75850000D01*
X82150000Y-80150000D02*
X81625000Y-80150000D01*
X77850000Y-80150000D02*
X78375000Y-80150000D01*
X77850000Y-75850000D02*
X78375000Y-75850000D01*
X82150000Y-80150000D02*
X82150000Y-79625000D01*
X77850000Y-80150000D02*
X77850000Y-79625000D01*
X82150000Y-75850000D02*
X82150000Y-76375000D01*
D13*
%TO.C,C1*%
X64650000Y-58400000D02*
X65350000Y-58400000D01*
X65350000Y-59600000D02*
X64650000Y-59600000D01*
%TO.C,C2*%
X85350000Y-59600000D02*
X84650000Y-59600000D01*
X84650000Y-58400000D02*
X85350000Y-58400000D01*
%TO.C,C3*%
X64650000Y-78400000D02*
X65350000Y-78400000D01*
X65350000Y-79600000D02*
X64650000Y-79600000D01*
%TO.C,C4*%
X85350000Y-79600000D02*
X84650000Y-79600000D01*
X84650000Y-78400000D02*
X85350000Y-78400000D01*
%TO.C,R1*%
X65500000Y-57680000D02*
X64500000Y-57680000D01*
X64500000Y-56320000D02*
X65500000Y-56320000D01*
%TO.C,R2*%
X84500000Y-56320000D02*
X85500000Y-56320000D01*
X85500000Y-57680000D02*
X84500000Y-57680000D01*
%TO.C,R3*%
X65500000Y-77680000D02*
X64500000Y-77680000D01*
X64500000Y-76320000D02*
X65500000Y-76320000D01*
%TO.C,R4*%
X84500000Y-76320000D02*
X85500000Y-76320000D01*
X85500000Y-77680000D02*
X84500000Y-77680000D01*
%TO.C,C5*%
X69650000Y-67400000D02*
X70350000Y-67400000D01*
X70350000Y-68600000D02*
X69650000Y-68600000D01*
%TO.C,HS1*%
D10*
X71880952Y-69126190D02*
X71880952Y-68626190D01*
X71880952Y-68864285D02*
X72166666Y-68864285D01*
X72166666Y-69126190D02*
X72166666Y-68626190D01*
X72380952Y-69102380D02*
X72452380Y-69126190D01*
X72571428Y-69126190D01*
X72619047Y-69102380D01*
X72642857Y-69078571D01*
X72666666Y-69030952D01*
X72666666Y-68983333D01*
X72642857Y-68935714D01*
X72619047Y-68911904D01*
X72571428Y-68888095D01*
X72476190Y-68864285D01*
X72428571Y-68840476D01*
X72404761Y-68816666D01*
X72380952Y-68769047D01*
X72380952Y-68721428D01*
X72404761Y-68673809D01*
X72428571Y-68650000D01*
X72476190Y-68626190D01*
X72595238Y-68626190D01*
X72666666Y-68650000D01*
X73142857Y-69126190D02*
X72857142Y-69126190D01*
X73000000Y-69126190D02*
X73000000Y-68626190D01*
X72952380Y-68697619D01*
X72904761Y-68745238D01*
X72857142Y-68769047D01*
%TO.C,D1.1*%
D12*
X51552380Y-54452380D02*
X50552380Y-54452380D01*
X50552380Y-54214285D01*
X50600000Y-54071428D01*
X50695238Y-53976190D01*
X50790476Y-53928571D01*
X50980952Y-53880952D01*
X51123809Y-53880952D01*
X51314285Y-53928571D01*
X51409523Y-53976190D01*
X51504761Y-54071428D01*
X51552380Y-54214285D01*
X51552380Y-54452380D01*
X51552380Y-52928571D02*
X51552380Y-53500000D01*
X51552380Y-53214285D02*
X50552380Y-53214285D01*
X50695238Y-53309523D01*
X50790476Y-53404761D01*
X50838095Y-53500000D01*
X51457142Y-52500000D02*
X51504761Y-52452380D01*
X51552380Y-52500000D01*
X51504761Y-52547619D01*
X51457142Y-52500000D01*
X51552380Y-52500000D01*
X51552380Y-51500000D02*
X51552380Y-52071428D01*
X51552380Y-51785714D02*
X50552380Y-51785714D01*
X50695238Y-51880952D01*
X50790476Y-51976190D01*
X50838095Y-52071428D01*
D11*
X55535714Y-51714285D02*
X55607142Y-51738095D01*
X55630952Y-51761904D01*
X55654761Y-51809523D01*
X55654761Y-51880952D01*
X55630952Y-51928571D01*
X55607142Y-51952380D01*
X55559523Y-51976190D01*
X55369047Y-51976190D01*
X55369047Y-51476190D01*
X55535714Y-51476190D01*
X55583333Y-51500000D01*
X55607142Y-51523809D01*
X55630952Y-51571428D01*
X55630952Y-51619047D01*
X55607142Y-51666666D01*
X55583333Y-51690476D01*
X55535714Y-51714285D01*
X55369047Y-51714285D01*
X55630952Y-52750000D02*
X55583333Y-52726190D01*
X55511904Y-52726190D01*
X55440476Y-52750000D01*
X55392857Y-52797619D01*
X55369047Y-52845238D01*
X55345238Y-52940476D01*
X55345238Y-53011904D01*
X55369047Y-53107142D01*
X55392857Y-53154761D01*
X55440476Y-53202380D01*
X55511904Y-53226190D01*
X55559523Y-53226190D01*
X55630952Y-53202380D01*
X55654761Y-53178571D01*
X55654761Y-53011904D01*
X55559523Y-53011904D01*
X55654761Y-54476190D02*
X55488095Y-54238095D01*
X55369047Y-54476190D02*
X55369047Y-53976190D01*
X55559523Y-53976190D01*
X55607142Y-54000000D01*
X55630952Y-54023809D01*
X55654761Y-54071428D01*
X55654761Y-54142857D01*
X55630952Y-54190476D01*
X55607142Y-54214285D01*
X55559523Y-54238095D01*
X55369047Y-54238095D01*
%TO.C,D1.2*%
D12*
X51552380Y-64452380D02*
X50552380Y-64452380D01*
X50552380Y-64214285D01*
X50600000Y-64071428D01*
X50695238Y-63976190D01*
X50790476Y-63928571D01*
X50980952Y-63880952D01*
X51123809Y-63880952D01*
X51314285Y-63928571D01*
X51409523Y-63976190D01*
X51504761Y-64071428D01*
X51552380Y-64214285D01*
X51552380Y-64452380D01*
X51552380Y-62928571D02*
X51552380Y-63500000D01*
X51552380Y-63214285D02*
X50552380Y-63214285D01*
X50695238Y-63309523D01*
X50790476Y-63404761D01*
X50838095Y-63500000D01*
X51457142Y-62500000D02*
X51504761Y-62452380D01*
X51552380Y-62500000D01*
X51504761Y-62547619D01*
X51457142Y-62500000D01*
X51552380Y-62500000D01*
X50647619Y-62071428D02*
X50600000Y-62023809D01*
X50552380Y-61928571D01*
X50552380Y-61690476D01*
X50600000Y-61595238D01*
X50647619Y-61547619D01*
X50742857Y-61500000D01*
X50838095Y-61500000D01*
X50980952Y-61547619D01*
X51552380Y-62119047D01*
X51552380Y-61500000D01*
D11*
X55535714Y-61714285D02*
X55607142Y-61738095D01*
X55630952Y-61761904D01*
X55654761Y-61809523D01*
X55654761Y-61880952D01*
X55630952Y-61928571D01*
X55607142Y-61952380D01*
X55559523Y-61976190D01*
X55369047Y-61976190D01*
X55369047Y-61476190D01*
X55535714Y-61476190D01*
X55583333Y-61500000D01*
X55607142Y-61523809D01*
X55630952Y-61571428D01*
X55630952Y-61619047D01*
X55607142Y-61666666D01*
X55583333Y-61690476D01*
X55535714Y-61714285D01*
X55369047Y-61714285D01*
X55630952Y-62750000D02*
X55583333Y-62726190D01*
X55511904Y-62726190D01*
X55440476Y-62750000D01*
X55392857Y-62797619D01*
X55369047Y-62845238D01*
X55345238Y-62940476D01*
X55345238Y-63011904D01*
X55369047Y-63107142D01*
X55392857Y-63154761D01*
X55440476Y-63202380D01*
X55511904Y-63226190D01*
X55559523Y-63226190D01*
X55630952Y-63202380D01*
X55654761Y-63178571D01*
X55654761Y-63011904D01*
X55559523Y-63011904D01*
X55654761Y-64476190D02*
X55488095Y-64238095D01*
X55369047Y-64476190D02*
X55369047Y-63976190D01*
X55559523Y-63976190D01*
X55607142Y-64000000D01*
X55630952Y-64023809D01*
X55654761Y-64071428D01*
X55654761Y-64142857D01*
X55630952Y-64190476D01*
X55607142Y-64214285D01*
X55559523Y-64238095D01*
X55369047Y-64238095D01*
%TO.C,D1.3*%
D12*
X51552380Y-74452380D02*
X50552380Y-74452380D01*
X50552380Y-74214285D01*
X50600000Y-74071428D01*
X50695238Y-73976190D01*
X50790476Y-73928571D01*
X50980952Y-73880952D01*
X51123809Y-73880952D01*
X51314285Y-73928571D01*
X51409523Y-73976190D01*
X51504761Y-74071428D01*
X51552380Y-74214285D01*
X51552380Y-74452380D01*
X51552380Y-72928571D02*
X51552380Y-73500000D01*
X51552380Y-73214285D02*
X50552380Y-73214285D01*
X50695238Y-73309523D01*
X50790476Y-73404761D01*
X50838095Y-73500000D01*
X51457142Y-72500000D02*
X51504761Y-72452380D01*
X51552380Y-72500000D01*
X51504761Y-72547619D01*
X51457142Y-72500000D01*
X51552380Y-72500000D01*
X50552380Y-72119047D02*
X50552380Y-71500000D01*
X50933333Y-71833333D01*
X50933333Y-71690476D01*
X50980952Y-71595238D01*
X51028571Y-71547619D01*
X51123809Y-71500000D01*
X51361904Y-71500000D01*
X51457142Y-71547619D01*
X51504761Y-71595238D01*
X51552380Y-71690476D01*
X51552380Y-71976190D01*
X51504761Y-72071428D01*
X51457142Y-72119047D01*
D11*
X55535714Y-71714285D02*
X55607142Y-71738095D01*
X55630952Y-71761904D01*
X55654761Y-71809523D01*
X55654761Y-71880952D01*
X55630952Y-71928571D01*
X55607142Y-71952380D01*
X55559523Y-71976190D01*
X55369047Y-71976190D01*
X55369047Y-71476190D01*
X55535714Y-71476190D01*
X55583333Y-71500000D01*
X55607142Y-71523809D01*
X55630952Y-71571428D01*
X55630952Y-71619047D01*
X55607142Y-71666666D01*
X55583333Y-71690476D01*
X55535714Y-71714285D01*
X55369047Y-71714285D01*
X55630952Y-72750000D02*
X55583333Y-72726190D01*
X55511904Y-72726190D01*
X55440476Y-72750000D01*
X55392857Y-72797619D01*
X55369047Y-72845238D01*
X55345238Y-72940476D01*
X55345238Y-73011904D01*
X55369047Y-73107142D01*
X55392857Y-73154761D01*
X55440476Y-73202380D01*
X55511904Y-73226190D01*
X55559523Y-73226190D01*
X55630952Y-73202380D01*
X55654761Y-73178571D01*
X55654761Y-73011904D01*
X55559523Y-73011904D01*
X55654761Y-74476190D02*
X55488095Y-74238095D01*
X55369047Y-74476190D02*
X55369047Y-73976190D01*
X55559523Y-73976190D01*
X55607142Y-74000000D01*
X55630952Y-74023809D01*
X55654761Y-74071428D01*
X55654761Y-74142857D01*
X55630952Y-74190476D01*
X55607142Y-74214285D01*
X55559523Y-74238095D01*
X55369047Y-74238095D01*
%TO.C,D1.4*%
D12*
X51552380Y-84452380D02*
X50552380Y-84452380D01*
X50552380Y-84214285D01*
X50600000Y-84071428D01*
X50695238Y-83976190D01*
X50790476Y-83928571D01*
X50980952Y-83880952D01*
X51123809Y-83880952D01*
X51314285Y-83928571D01*
X51409523Y-83976190D01*
X51504761Y-84071428D01*
X51552380Y-84214285D01*
X51552380Y-84452380D01*
X51552380Y-82928571D02*
X51552380Y-83500000D01*
X51552380Y-83214285D02*
X50552380Y-83214285D01*
X50695238Y-83309523D01*
X50790476Y-83404761D01*
X50838095Y-83500000D01*
X51457142Y-82500000D02*
X51504761Y-82452380D01*
X51552380Y-82500000D01*
X51504761Y-82547619D01*
X51457142Y-82500000D01*
X51552380Y-82500000D01*
X50885714Y-81595238D02*
X51552380Y-81595238D01*
X50504761Y-81833333D02*
X51219047Y-82071428D01*
X51219047Y-81452380D01*
D11*
X55535714Y-81714285D02*
X55607142Y-81738095D01*
X55630952Y-81761904D01*
X55654761Y-81809523D01*
X55654761Y-81880952D01*
X55630952Y-81928571D01*
X55607142Y-81952380D01*
X55559523Y-81976190D01*
X55369047Y-81976190D01*
X55369047Y-81476190D01*
X55535714Y-81476190D01*
X55583333Y-81500000D01*
X55607142Y-81523809D01*
X55630952Y-81571428D01*
X55630952Y-81619047D01*
X55607142Y-81666666D01*
X55583333Y-81690476D01*
X55535714Y-81714285D01*
X55369047Y-81714285D01*
X55630952Y-82750000D02*
X55583333Y-82726190D01*
X55511904Y-82726190D01*
X55440476Y-82750000D01*
X55392857Y-82797619D01*
X55369047Y-82845238D01*
X55345238Y-82940476D01*
X55345238Y-83011904D01*
X55369047Y-83107142D01*
X55392857Y-83154761D01*
X55440476Y-83202380D01*
X55511904Y-83226190D01*
X55559523Y-83226190D01*
X55630952Y-83202380D01*
X55654761Y-83178571D01*
X55654761Y-83011904D01*
X55559523Y-83011904D01*
X55654761Y-84476190D02*
X55488095Y-84238095D01*
X55369047Y-84476190D02*
X55369047Y-83976190D01*
X55559523Y-83976190D01*
X55607142Y-84000000D01*
X55630952Y-84023809D01*
X55654761Y-84071428D01*
X55654761Y-84142857D01*
X55630952Y-84190476D01*
X55607142Y-84214285D01*
X55559523Y-84238095D01*
X55369047Y-84238095D01*
%TO.C,D2.1*%
D12*
X61552380Y-54452380D02*
X60552380Y-54452380D01*
X60552380Y-54214285D01*
X60600000Y-54071428D01*
X60695238Y-53976190D01*
X60790476Y-53928571D01*
X60980952Y-53880952D01*
X61123809Y-53880952D01*
X61314285Y-53928571D01*
X61409523Y-53976190D01*
X61504761Y-54071428D01*
X61552380Y-54214285D01*
X61552380Y-54452380D01*
X60647619Y-53500000D02*
X60600000Y-53452380D01*
X60552380Y-53357142D01*
X60552380Y-53119047D01*
X60600000Y-53023809D01*
X60647619Y-52976190D01*
X60742857Y-52928571D01*
X60838095Y-52928571D01*
X60980952Y-52976190D01*
X61552380Y-53547619D01*
X61552380Y-52928571D01*
X61457142Y-52500000D02*
X61504761Y-52452380D01*
X61552380Y-52500000D01*
X61504761Y-52547619D01*
X61457142Y-52500000D01*
X61552380Y-52500000D01*
X61552380Y-51500000D02*
X61552380Y-52071428D01*
X61552380Y-51785714D02*
X60552380Y-51785714D01*
X60695238Y-51880952D01*
X60790476Y-51976190D01*
X60838095Y-52071428D01*
D11*
X65535714Y-51714285D02*
X65607142Y-51738095D01*
X65630952Y-51761904D01*
X65654761Y-51809523D01*
X65654761Y-51880952D01*
X65630952Y-51928571D01*
X65607142Y-51952380D01*
X65559523Y-51976190D01*
X65369047Y-51976190D01*
X65369047Y-51476190D01*
X65535714Y-51476190D01*
X65583333Y-51500000D01*
X65607142Y-51523809D01*
X65630952Y-51571428D01*
X65630952Y-51619047D01*
X65607142Y-51666666D01*
X65583333Y-51690476D01*
X65535714Y-51714285D01*
X65369047Y-51714285D01*
X65630952Y-52750000D02*
X65583333Y-52726190D01*
X65511904Y-52726190D01*
X65440476Y-52750000D01*
X65392857Y-52797619D01*
X65369047Y-52845238D01*
X65345238Y-52940476D01*
X65345238Y-53011904D01*
X65369047Y-53107142D01*
X65392857Y-53154761D01*
X65440476Y-53202380D01*
X65511904Y-53226190D01*
X65559523Y-53226190D01*
X65630952Y-53202380D01*
X65654761Y-53178571D01*
X65654761Y-53011904D01*
X65559523Y-53011904D01*
X65654761Y-54476190D02*
X65488095Y-54238095D01*
X65369047Y-54476190D02*
X65369047Y-53976190D01*
X65559523Y-53976190D01*
X65607142Y-54000000D01*
X65630952Y-54023809D01*
X65654761Y-54071428D01*
X65654761Y-54142857D01*
X65630952Y-54190476D01*
X65607142Y-54214285D01*
X65559523Y-54238095D01*
X65369047Y-54238095D01*
%TO.C,D2.2*%
D12*
X61552380Y-64452380D02*
X60552380Y-64452380D01*
X60552380Y-64214285D01*
X60600000Y-64071428D01*
X60695238Y-63976190D01*
X60790476Y-63928571D01*
X60980952Y-63880952D01*
X61123809Y-63880952D01*
X61314285Y-63928571D01*
X61409523Y-63976190D01*
X61504761Y-64071428D01*
X61552380Y-64214285D01*
X61552380Y-64452380D01*
X60647619Y-63500000D02*
X60600000Y-63452380D01*
X60552380Y-63357142D01*
X60552380Y-63119047D01*
X60600000Y-63023809D01*
X60647619Y-62976190D01*
X60742857Y-62928571D01*
X60838095Y-62928571D01*
X60980952Y-62976190D01*
X61552380Y-63547619D01*
X61552380Y-62928571D01*
X61457142Y-62500000D02*
X61504761Y-62452380D01*
X61552380Y-62500000D01*
X61504761Y-62547619D01*
X61457142Y-62500000D01*
X61552380Y-62500000D01*
X60647619Y-62071428D02*
X60600000Y-62023809D01*
X60552380Y-61928571D01*
X60552380Y-61690476D01*
X60600000Y-61595238D01*
X60647619Y-61547619D01*
X60742857Y-61500000D01*
X60838095Y-61500000D01*
X60980952Y-61547619D01*
X61552380Y-62119047D01*
X61552380Y-61500000D01*
D11*
X65535714Y-61714285D02*
X65607142Y-61738095D01*
X65630952Y-61761904D01*
X65654761Y-61809523D01*
X65654761Y-61880952D01*
X65630952Y-61928571D01*
X65607142Y-61952380D01*
X65559523Y-61976190D01*
X65369047Y-61976190D01*
X65369047Y-61476190D01*
X65535714Y-61476190D01*
X65583333Y-61500000D01*
X65607142Y-61523809D01*
X65630952Y-61571428D01*
X65630952Y-61619047D01*
X65607142Y-61666666D01*
X65583333Y-61690476D01*
X65535714Y-61714285D01*
X65369047Y-61714285D01*
X65630952Y-62750000D02*
X65583333Y-62726190D01*
X65511904Y-62726190D01*
X65440476Y-62750000D01*
X65392857Y-62797619D01*
X65369047Y-62845238D01*
X65345238Y-62940476D01*
X65345238Y-63011904D01*
X65369047Y-63107142D01*
X65392857Y-63154761D01*
X65440476Y-63202380D01*
X65511904Y-63226190D01*
X65559523Y-63226190D01*
X65630952Y-63202380D01*
X65654761Y-63178571D01*
X65654761Y-63011904D01*
X65559523Y-63011904D01*
X65654761Y-64476190D02*
X65488095Y-64238095D01*
X65369047Y-64476190D02*
X65369047Y-63976190D01*
X65559523Y-63976190D01*
X65607142Y-64000000D01*
X65630952Y-64023809D01*
X65654761Y-64071428D01*
X65654761Y-64142857D01*
X65630952Y-64190476D01*
X65607142Y-64214285D01*
X65559523Y-64238095D01*
X65369047Y-64238095D01*
%TO.C,D2.3*%
D12*
X61552380Y-74452380D02*
X60552380Y-74452380D01*
X60552380Y-74214285D01*
X60600000Y-74071428D01*
X60695238Y-73976190D01*
X60790476Y-73928571D01*
X60980952Y-73880952D01*
X61123809Y-73880952D01*
X61314285Y-73928571D01*
X61409523Y-73976190D01*
X61504761Y-74071428D01*
X61552380Y-74214285D01*
X61552380Y-74452380D01*
X60647619Y-73500000D02*
X60600000Y-73452380D01*
X60552380Y-73357142D01*
X60552380Y-73119047D01*
X60600000Y-73023809D01*
X60647619Y-72976190D01*
X60742857Y-72928571D01*
X60838095Y-72928571D01*
X60980952Y-72976190D01*
X61552380Y-73547619D01*
X61552380Y-72928571D01*
X61457142Y-72500000D02*
X61504761Y-72452380D01*
X61552380Y-72500000D01*
X61504761Y-72547619D01*
X61457142Y-72500000D01*
X61552380Y-72500000D01*
X60552380Y-72119047D02*
X60552380Y-71500000D01*
X60933333Y-71833333D01*
X60933333Y-71690476D01*
X60980952Y-71595238D01*
X61028571Y-71547619D01*
X61123809Y-71500000D01*
X61361904Y-71500000D01*
X61457142Y-71547619D01*
X61504761Y-71595238D01*
X61552380Y-71690476D01*
X61552380Y-71976190D01*
X61504761Y-72071428D01*
X61457142Y-72119047D01*
D11*
X65535714Y-71714285D02*
X65607142Y-71738095D01*
X65630952Y-71761904D01*
X65654761Y-71809523D01*
X65654761Y-71880952D01*
X65630952Y-71928571D01*
X65607142Y-71952380D01*
X65559523Y-71976190D01*
X65369047Y-71976190D01*
X65369047Y-71476190D01*
X65535714Y-71476190D01*
X65583333Y-71500000D01*
X65607142Y-71523809D01*
X65630952Y-71571428D01*
X65630952Y-71619047D01*
X65607142Y-71666666D01*
X65583333Y-71690476D01*
X65535714Y-71714285D01*
X65369047Y-71714285D01*
X65630952Y-72750000D02*
X65583333Y-72726190D01*
X65511904Y-72726190D01*
X65440476Y-72750000D01*
X65392857Y-72797619D01*
X65369047Y-72845238D01*
X65345238Y-72940476D01*
X65345238Y-73011904D01*
X65369047Y-73107142D01*
X65392857Y-73154761D01*
X65440476Y-73202380D01*
X65511904Y-73226190D01*
X65559523Y-73226190D01*
X65630952Y-73202380D01*
X65654761Y-73178571D01*
X65654761Y-73011904D01*
X65559523Y-73011904D01*
X65654761Y-74476190D02*
X65488095Y-74238095D01*
X65369047Y-74476190D02*
X65369047Y-73976190D01*
X65559523Y-73976190D01*
X65607142Y-74000000D01*
X65630952Y-74023809D01*
X65654761Y-74071428D01*
X65654761Y-74142857D01*
X65630952Y-74190476D01*
X65607142Y-74214285D01*
X65559523Y-74238095D01*
X65369047Y-74238095D01*
%TO.C,D2.4*%
D12*
X61552380Y-84452380D02*
X60552380Y-84452380D01*
X60552380Y-84214285D01*
X60600000Y-84071428D01*
X60695238Y-83976190D01*
X60790476Y-83928571D01*
X60980952Y-83880952D01*
X61123809Y-83880952D01*
X61314285Y-83928571D01*
X61409523Y-83976190D01*
X61504761Y-84071428D01*
X61552380Y-84214285D01*
X61552380Y-84452380D01*
X60647619Y-83500000D02*
X60600000Y-83452380D01*
X60552380Y-83357142D01*
X60552380Y-83119047D01*
X60600000Y-83023809D01*
X60647619Y-82976190D01*
X60742857Y-82928571D01*
X60838095Y-82928571D01*
X60980952Y-82976190D01*
X61552380Y-83547619D01*
X61552380Y-82928571D01*
X61457142Y-82500000D02*
X61504761Y-82452380D01*
X61552380Y-82500000D01*
X61504761Y-82547619D01*
X61457142Y-82500000D01*
X61552380Y-82500000D01*
X60885714Y-81595238D02*
X61552380Y-81595238D01*
X60504761Y-81833333D02*
X61219047Y-82071428D01*
X61219047Y-81452380D01*
D11*
X65535714Y-81714285D02*
X65607142Y-81738095D01*
X65630952Y-81761904D01*
X65654761Y-81809523D01*
X65654761Y-81880952D01*
X65630952Y-81928571D01*
X65607142Y-81952380D01*
X65559523Y-81976190D01*
X65369047Y-81976190D01*
X65369047Y-81476190D01*
X65535714Y-81476190D01*
X65583333Y-81500000D01*
X65607142Y-81523809D01*
X65630952Y-81571428D01*
X65630952Y-81619047D01*
X65607142Y-81666666D01*
X65583333Y-81690476D01*
X65535714Y-81714285D01*
X65369047Y-81714285D01*
X65630952Y-82750000D02*
X65583333Y-82726190D01*
X65511904Y-82726190D01*
X65440476Y-82750000D01*
X65392857Y-82797619D01*
X65369047Y-82845238D01*
X65345238Y-82940476D01*
X65345238Y-83011904D01*
X65369047Y-83107142D01*
X65392857Y-83154761D01*
X65440476Y-83202380D01*
X65511904Y-83226190D01*
X65559523Y-83226190D01*
X65630952Y-83202380D01*
X65654761Y-83178571D01*
X65654761Y-83011904D01*
X65559523Y-83011904D01*
X65654761Y-84476190D02*
X65488095Y-84238095D01*
X65369047Y-84476190D02*
X65369047Y-83976190D01*
X65559523Y-83976190D01*
X65607142Y-84000000D01*
X65630952Y-84023809D01*
X65654761Y-84071428D01*
X65654761Y-84142857D01*
X65630952Y-84190476D01*
X65607142Y-84214285D01*
X65559523Y-84238095D01*
X65369047Y-84238095D01*
%TO.C,D3.1*%
D12*
X71552380Y-54452380D02*
X70552380Y-54452380D01*
X70552380Y-54214285D01*
X70600000Y-54071428D01*
X70695238Y-53976190D01*
X70790476Y-53928571D01*
X70980952Y-53880952D01*
X71123809Y-53880952D01*
X71314285Y-53928571D01*
X71409523Y-53976190D01*
X71504761Y-54071428D01*
X71552380Y-54214285D01*
X71552380Y-54452380D01*
X70552380Y-53547619D02*
X70552380Y-52928571D01*
X70933333Y-53261904D01*
X70933333Y-53119047D01*
X70980952Y-53023809D01*
X71028571Y-52976190D01*
X71123809Y-52928571D01*
X71361904Y-52928571D01*
X71457142Y-52976190D01*
X71504761Y-53023809D01*
X71552380Y-53119047D01*
X71552380Y-53404761D01*
X71504761Y-53500000D01*
X71457142Y-53547619D01*
X71457142Y-52500000D02*
X71504761Y-52452380D01*
X71552380Y-52500000D01*
X71504761Y-52547619D01*
X71457142Y-52500000D01*
X71552380Y-52500000D01*
X71552380Y-51500000D02*
X71552380Y-52071428D01*
X71552380Y-51785714D02*
X70552380Y-51785714D01*
X70695238Y-51880952D01*
X70790476Y-51976190D01*
X70838095Y-52071428D01*
D11*
X75535714Y-51714285D02*
X75607142Y-51738095D01*
X75630952Y-51761904D01*
X75654761Y-51809523D01*
X75654761Y-51880952D01*
X75630952Y-51928571D01*
X75607142Y-51952380D01*
X75559523Y-51976190D01*
X75369047Y-51976190D01*
X75369047Y-51476190D01*
X75535714Y-51476190D01*
X75583333Y-51500000D01*
X75607142Y-51523809D01*
X75630952Y-51571428D01*
X75630952Y-51619047D01*
X75607142Y-51666666D01*
X75583333Y-51690476D01*
X75535714Y-51714285D01*
X75369047Y-51714285D01*
X75630952Y-52750000D02*
X75583333Y-52726190D01*
X75511904Y-52726190D01*
X75440476Y-52750000D01*
X75392857Y-52797619D01*
X75369047Y-52845238D01*
X75345238Y-52940476D01*
X75345238Y-53011904D01*
X75369047Y-53107142D01*
X75392857Y-53154761D01*
X75440476Y-53202380D01*
X75511904Y-53226190D01*
X75559523Y-53226190D01*
X75630952Y-53202380D01*
X75654761Y-53178571D01*
X75654761Y-53011904D01*
X75559523Y-53011904D01*
X75654761Y-54476190D02*
X75488095Y-54238095D01*
X75369047Y-54476190D02*
X75369047Y-53976190D01*
X75559523Y-53976190D01*
X75607142Y-54000000D01*
X75630952Y-54023809D01*
X75654761Y-54071428D01*
X75654761Y-54142857D01*
X75630952Y-54190476D01*
X75607142Y-54214285D01*
X75559523Y-54238095D01*
X75369047Y-54238095D01*
%TO.C,D3.2*%
D12*
X71552380Y-64452380D02*
X70552380Y-64452380D01*
X70552380Y-64214285D01*
X70600000Y-64071428D01*
X70695238Y-63976190D01*
X70790476Y-63928571D01*
X70980952Y-63880952D01*
X71123809Y-63880952D01*
X71314285Y-63928571D01*
X71409523Y-63976190D01*
X71504761Y-64071428D01*
X71552380Y-64214285D01*
X71552380Y-64452380D01*
X70552380Y-63547619D02*
X70552380Y-62928571D01*
X70933333Y-63261904D01*
X70933333Y-63119047D01*
X70980952Y-63023809D01*
X71028571Y-62976190D01*
X71123809Y-62928571D01*
X71361904Y-62928571D01*
X71457142Y-62976190D01*
X71504761Y-63023809D01*
X71552380Y-63119047D01*
X71552380Y-63404761D01*
X71504761Y-63500000D01*
X71457142Y-63547619D01*
X71457142Y-62500000D02*
X71504761Y-62452380D01*
X71552380Y-62500000D01*
X71504761Y-62547619D01*
X71457142Y-62500000D01*
X71552380Y-62500000D01*
X70647619Y-62071428D02*
X70600000Y-62023809D01*
X70552380Y-61928571D01*
X70552380Y-61690476D01*
X70600000Y-61595238D01*
X70647619Y-61547619D01*
X70742857Y-61500000D01*
X70838095Y-61500000D01*
X70980952Y-61547619D01*
X71552380Y-62119047D01*
X71552380Y-61500000D01*
D11*
X75535714Y-61714285D02*
X75607142Y-61738095D01*
X75630952Y-61761904D01*
X75654761Y-61809523D01*
X75654761Y-61880952D01*
X75630952Y-61928571D01*
X75607142Y-61952380D01*
X75559523Y-61976190D01*
X75369047Y-61976190D01*
X75369047Y-61476190D01*
X75535714Y-61476190D01*
X75583333Y-61500000D01*
X75607142Y-61523809D01*
X75630952Y-61571428D01*
X75630952Y-61619047D01*
X75607142Y-61666666D01*
X75583333Y-61690476D01*
X75535714Y-61714285D01*
X75369047Y-61714285D01*
X75630952Y-62750000D02*
X75583333Y-62726190D01*
X75511904Y-62726190D01*
X75440476Y-62750000D01*
X75392857Y-62797619D01*
X75369047Y-62845238D01*
X75345238Y-62940476D01*
X75345238Y-63011904D01*
X75369047Y-63107142D01*
X75392857Y-63154761D01*
X75440476Y-63202380D01*
X75511904Y-63226190D01*
X75559523Y-63226190D01*
X75630952Y-63202380D01*
X75654761Y-63178571D01*
X75654761Y-63011904D01*
X75559523Y-63011904D01*
X75654761Y-64476190D02*
X75488095Y-64238095D01*
X75369047Y-64476190D02*
X75369047Y-63976190D01*
X75559523Y-63976190D01*
X75607142Y-64000000D01*
X75630952Y-64023809D01*
X75654761Y-64071428D01*
X75654761Y-64142857D01*
X75630952Y-64190476D01*
X75607142Y-64214285D01*
X75559523Y-64238095D01*
X75369047Y-64238095D01*
%TO.C,D3.3*%
D12*
X71552380Y-74452380D02*
X70552380Y-74452380D01*
X70552380Y-74214285D01*
X70600000Y-74071428D01*
X70695238Y-73976190D01*
X70790476Y-73928571D01*
X70980952Y-73880952D01*
X71123809Y-73880952D01*
X71314285Y-73928571D01*
X71409523Y-73976190D01*
X71504761Y-74071428D01*
X71552380Y-74214285D01*
X71552380Y-74452380D01*
X70552380Y-73547619D02*
X70552380Y-72928571D01*
X70933333Y-73261904D01*
X70933333Y-73119047D01*
X70980952Y-73023809D01*
X71028571Y-72976190D01*
X71123809Y-72928571D01*
X71361904Y-72928571D01*
X71457142Y-72976190D01*
X71504761Y-73023809D01*
X71552380Y-73119047D01*
X71552380Y-73404761D01*
X71504761Y-73500000D01*
X71457142Y-73547619D01*
X71457142Y-72500000D02*
X71504761Y-72452380D01*
X71552380Y-72500000D01*
X71504761Y-72547619D01*
X71457142Y-72500000D01*
X71552380Y-72500000D01*
X70552380Y-72119047D02*
X70552380Y-71500000D01*
X70933333Y-71833333D01*
X70933333Y-71690476D01*
X70980952Y-71595238D01*
X71028571Y-71547619D01*
X71123809Y-71500000D01*
X71361904Y-71500000D01*
X71457142Y-71547619D01*
X71504761Y-71595238D01*
X71552380Y-71690476D01*
X71552380Y-71976190D01*
X71504761Y-72071428D01*
X71457142Y-72119047D01*
D11*
X75535714Y-71714285D02*
X75607142Y-71738095D01*
X75630952Y-71761904D01*
X75654761Y-71809523D01*
X75654761Y-71880952D01*
X75630952Y-71928571D01*
X75607142Y-71952380D01*
X75559523Y-71976190D01*
X75369047Y-71976190D01*
X75369047Y-71476190D01*
X75535714Y-71476190D01*
X75583333Y-71500000D01*
X75607142Y-71523809D01*
X75630952Y-71571428D01*
X75630952Y-71619047D01*
X75607142Y-71666666D01*
X75583333Y-71690476D01*
X75535714Y-71714285D01*
X75369047Y-71714285D01*
X75630952Y-72750000D02*
X75583333Y-72726190D01*
X75511904Y-72726190D01*
X75440476Y-72750000D01*
X75392857Y-72797619D01*
X75369047Y-72845238D01*
X75345238Y-72940476D01*
X75345238Y-73011904D01*
X75369047Y-73107142D01*
X75392857Y-73154761D01*
X75440476Y-73202380D01*
X75511904Y-73226190D01*
X75559523Y-73226190D01*
X75630952Y-73202380D01*
X75654761Y-73178571D01*
X75654761Y-73011904D01*
X75559523Y-73011904D01*
X75654761Y-74476190D02*
X75488095Y-74238095D01*
X75369047Y-74476190D02*
X75369047Y-73976190D01*
X75559523Y-73976190D01*
X75607142Y-74000000D01*
X75630952Y-74023809D01*
X75654761Y-74071428D01*
X75654761Y-74142857D01*
X75630952Y-74190476D01*
X75607142Y-74214285D01*
X75559523Y-74238095D01*
X75369047Y-74238095D01*
%TO.C,D3.4*%
D12*
X71552380Y-84452380D02*
X70552380Y-84452380D01*
X70552380Y-84214285D01*
X70600000Y-84071428D01*
X70695238Y-83976190D01*
X70790476Y-83928571D01*
X70980952Y-83880952D01*
X71123809Y-83880952D01*
X71314285Y-83928571D01*
X71409523Y-83976190D01*
X71504761Y-84071428D01*
X71552380Y-84214285D01*
X71552380Y-84452380D01*
X70552380Y-83547619D02*
X70552380Y-82928571D01*
X70933333Y-83261904D01*
X70933333Y-83119047D01*
X70980952Y-83023809D01*
X71028571Y-82976190D01*
X71123809Y-82928571D01*
X71361904Y-82928571D01*
X71457142Y-82976190D01*
X71504761Y-83023809D01*
X71552380Y-83119047D01*
X71552380Y-83404761D01*
X71504761Y-83500000D01*
X71457142Y-83547619D01*
X71457142Y-82500000D02*
X71504761Y-82452380D01*
X71552380Y-82500000D01*
X71504761Y-82547619D01*
X71457142Y-82500000D01*
X71552380Y-82500000D01*
X70885714Y-81595238D02*
X71552380Y-81595238D01*
X70504761Y-81833333D02*
X71219047Y-82071428D01*
X71219047Y-81452380D01*
D11*
X75535714Y-81714285D02*
X75607142Y-81738095D01*
X75630952Y-81761904D01*
X75654761Y-81809523D01*
X75654761Y-81880952D01*
X75630952Y-81928571D01*
X75607142Y-81952380D01*
X75559523Y-81976190D01*
X75369047Y-81976190D01*
X75369047Y-81476190D01*
X75535714Y-81476190D01*
X75583333Y-81500000D01*
X75607142Y-81523809D01*
X75630952Y-81571428D01*
X75630952Y-81619047D01*
X75607142Y-81666666D01*
X75583333Y-81690476D01*
X75535714Y-81714285D01*
X75369047Y-81714285D01*
X75630952Y-82750000D02*
X75583333Y-82726190D01*
X75511904Y-82726190D01*
X75440476Y-82750000D01*
X75392857Y-82797619D01*
X75369047Y-82845238D01*
X75345238Y-82940476D01*
X75345238Y-83011904D01*
X75369047Y-83107142D01*
X75392857Y-83154761D01*
X75440476Y-83202380D01*
X75511904Y-83226190D01*
X75559523Y-83226190D01*
X75630952Y-83202380D01*
X75654761Y-83178571D01*
X75654761Y-83011904D01*
X75559523Y-83011904D01*
X75654761Y-84476190D02*
X75488095Y-84238095D01*
X75369047Y-84476190D02*
X75369047Y-83976190D01*
X75559523Y-83976190D01*
X75607142Y-84000000D01*
X75630952Y-84023809D01*
X75654761Y-84071428D01*
X75654761Y-84142857D01*
X75630952Y-84190476D01*
X75607142Y-84214285D01*
X75559523Y-84238095D01*
X75369047Y-84238095D01*
%TO.C,D4.1*%
D12*
X81552380Y-54452380D02*
X80552380Y-54452380D01*
X80552380Y-54214285D01*
X80600000Y-54071428D01*
X80695238Y-53976190D01*
X80790476Y-53928571D01*
X80980952Y-53880952D01*
X81123809Y-53880952D01*
X81314285Y-53928571D01*
X81409523Y-53976190D01*
X81504761Y-54071428D01*
X81552380Y-54214285D01*
X81552380Y-54452380D01*
X80885714Y-53023809D02*
X81552380Y-53023809D01*
X80504761Y-53261904D02*
X81219047Y-53500000D01*
X81219047Y-52880952D01*
X81457142Y-52500000D02*
X81504761Y-52452380D01*
X81552380Y-52500000D01*
X81504761Y-52547619D01*
X81457142Y-52500000D01*
X81552380Y-52500000D01*
X81552380Y-51500000D02*
X81552380Y-52071428D01*
X81552380Y-51785714D02*
X80552380Y-51785714D01*
X80695238Y-51880952D01*
X80790476Y-51976190D01*
X80838095Y-52071428D01*
D11*
X85535714Y-51714285D02*
X85607142Y-51738095D01*
X85630952Y-51761904D01*
X85654761Y-51809523D01*
X85654761Y-51880952D01*
X85630952Y-51928571D01*
X85607142Y-51952380D01*
X85559523Y-51976190D01*
X85369047Y-51976190D01*
X85369047Y-51476190D01*
X85535714Y-51476190D01*
X85583333Y-51500000D01*
X85607142Y-51523809D01*
X85630952Y-51571428D01*
X85630952Y-51619047D01*
X85607142Y-51666666D01*
X85583333Y-51690476D01*
X85535714Y-51714285D01*
X85369047Y-51714285D01*
X85630952Y-52750000D02*
X85583333Y-52726190D01*
X85511904Y-52726190D01*
X85440476Y-52750000D01*
X85392857Y-52797619D01*
X85369047Y-52845238D01*
X85345238Y-52940476D01*
X85345238Y-53011904D01*
X85369047Y-53107142D01*
X85392857Y-53154761D01*
X85440476Y-53202380D01*
X85511904Y-53226190D01*
X85559523Y-53226190D01*
X85630952Y-53202380D01*
X85654761Y-53178571D01*
X85654761Y-53011904D01*
X85559523Y-53011904D01*
X85654761Y-54476190D02*
X85488095Y-54238095D01*
X85369047Y-54476190D02*
X85369047Y-53976190D01*
X85559523Y-53976190D01*
X85607142Y-54000000D01*
X85630952Y-54023809D01*
X85654761Y-54071428D01*
X85654761Y-54142857D01*
X85630952Y-54190476D01*
X85607142Y-54214285D01*
X85559523Y-54238095D01*
X85369047Y-54238095D01*
%TO.C,D4.2*%
D12*
X81552380Y-64452380D02*
X80552380Y-64452380D01*
X80552380Y-64214285D01*
X80600000Y-64071428D01*
X80695238Y-63976190D01*
X80790476Y-63928571D01*
X80980952Y-63880952D01*
X81123809Y-63880952D01*
X81314285Y-63928571D01*
X81409523Y-63976190D01*
X81504761Y-64071428D01*
X81552380Y-64214285D01*
X81552380Y-64452380D01*
X80885714Y-63023809D02*
X81552380Y-63023809D01*
X80504761Y-63261904D02*
X81219047Y-63500000D01*
X81219047Y-62880952D01*
X81457142Y-62500000D02*
X81504761Y-62452380D01*
X81552380Y-62500000D01*
X81504761Y-62547619D01*
X81457142Y-62500000D01*
X81552380Y-62500000D01*
X80647619Y-62071428D02*
X80600000Y-62023809D01*
X80552380Y-61928571D01*
X80552380Y-61690476D01*
X80600000Y-61595238D01*
X80647619Y-61547619D01*
X80742857Y-61500000D01*
X80838095Y-61500000D01*
X80980952Y-61547619D01*
X81552380Y-62119047D01*
X81552380Y-61500000D01*
D11*
X85535714Y-61714285D02*
X85607142Y-61738095D01*
X85630952Y-61761904D01*
X85654761Y-61809523D01*
X85654761Y-61880952D01*
X85630952Y-61928571D01*
X85607142Y-61952380D01*
X85559523Y-61976190D01*
X85369047Y-61976190D01*
X85369047Y-61476190D01*
X85535714Y-61476190D01*
X85583333Y-61500000D01*
X85607142Y-61523809D01*
X85630952Y-61571428D01*
X85630952Y-61619047D01*
X85607142Y-61666666D01*
X85583333Y-61690476D01*
X85535714Y-61714285D01*
X85369047Y-61714285D01*
X85630952Y-62750000D02*
X85583333Y-62726190D01*
X85511904Y-62726190D01*
X85440476Y-62750000D01*
X85392857Y-62797619D01*
X85369047Y-62845238D01*
X85345238Y-62940476D01*
X85345238Y-63011904D01*
X85369047Y-63107142D01*
X85392857Y-63154761D01*
X85440476Y-63202380D01*
X85511904Y-63226190D01*
X85559523Y-63226190D01*
X85630952Y-63202380D01*
X85654761Y-63178571D01*
X85654761Y-63011904D01*
X85559523Y-63011904D01*
X85654761Y-64476190D02*
X85488095Y-64238095D01*
X85369047Y-64476190D02*
X85369047Y-63976190D01*
X85559523Y-63976190D01*
X85607142Y-64000000D01*
X85630952Y-64023809D01*
X85654761Y-64071428D01*
X85654761Y-64142857D01*
X85630952Y-64190476D01*
X85607142Y-64214285D01*
X85559523Y-64238095D01*
X85369047Y-64238095D01*
%TO.C,D4.3*%
D12*
X81552380Y-74452380D02*
X80552380Y-74452380D01*
X80552380Y-74214285D01*
X80600000Y-74071428D01*
X80695238Y-73976190D01*
X80790476Y-73928571D01*
X80980952Y-73880952D01*
X81123809Y-73880952D01*
X81314285Y-73928571D01*
X81409523Y-73976190D01*
X81504761Y-74071428D01*
X81552380Y-74214285D01*
X81552380Y-74452380D01*
X80885714Y-73023809D02*
X81552380Y-73023809D01*
X80504761Y-73261904D02*
X81219047Y-73500000D01*
X81219047Y-72880952D01*
X81457142Y-72500000D02*
X81504761Y-72452380D01*
X81552380Y-72500000D01*
X81504761Y-72547619D01*
X81457142Y-72500000D01*
X81552380Y-72500000D01*
X80552380Y-72119047D02*
X80552380Y-71500000D01*
X80933333Y-71833333D01*
X80933333Y-71690476D01*
X80980952Y-71595238D01*
X81028571Y-71547619D01*
X81123809Y-71500000D01*
X81361904Y-71500000D01*
X81457142Y-71547619D01*
X81504761Y-71595238D01*
X81552380Y-71690476D01*
X81552380Y-71976190D01*
X81504761Y-72071428D01*
X81457142Y-72119047D01*
D11*
X85535714Y-71714285D02*
X85607142Y-71738095D01*
X85630952Y-71761904D01*
X85654761Y-71809523D01*
X85654761Y-71880952D01*
X85630952Y-71928571D01*
X85607142Y-71952380D01*
X85559523Y-71976190D01*
X85369047Y-71976190D01*
X85369047Y-71476190D01*
X85535714Y-71476190D01*
X85583333Y-71500000D01*
X85607142Y-71523809D01*
X85630952Y-71571428D01*
X85630952Y-71619047D01*
X85607142Y-71666666D01*
X85583333Y-71690476D01*
X85535714Y-71714285D01*
X85369047Y-71714285D01*
X85630952Y-72750000D02*
X85583333Y-72726190D01*
X85511904Y-72726190D01*
X85440476Y-72750000D01*
X85392857Y-72797619D01*
X85369047Y-72845238D01*
X85345238Y-72940476D01*
X85345238Y-73011904D01*
X85369047Y-73107142D01*
X85392857Y-73154761D01*
X85440476Y-73202380D01*
X85511904Y-73226190D01*
X85559523Y-73226190D01*
X85630952Y-73202380D01*
X85654761Y-73178571D01*
X85654761Y-73011904D01*
X85559523Y-73011904D01*
X85654761Y-74476190D02*
X85488095Y-74238095D01*
X85369047Y-74476190D02*
X85369047Y-73976190D01*
X85559523Y-73976190D01*
X85607142Y-74000000D01*
X85630952Y-74023809D01*
X85654761Y-74071428D01*
X85654761Y-74142857D01*
X85630952Y-74190476D01*
X85607142Y-74214285D01*
X85559523Y-74238095D01*
X85369047Y-74238095D01*
%TO.C,D4.4*%
D12*
X81552380Y-84452380D02*
X80552380Y-84452380D01*
X80552380Y-84214285D01*
X80600000Y-84071428D01*
X80695238Y-83976190D01*
X80790476Y-83928571D01*
X80980952Y-83880952D01*
X81123809Y-83880952D01*
X81314285Y-83928571D01*
X81409523Y-83976190D01*
X81504761Y-84071428D01*
X81552380Y-84214285D01*
X81552380Y-84452380D01*
X80885714Y-83023809D02*
X81552380Y-83023809D01*
X80504761Y-83261904D02*
X81219047Y-83500000D01*
X81219047Y-82880952D01*
X81457142Y-82500000D02*
X81504761Y-82452380D01*
X81552380Y-82500000D01*
X81504761Y-82547619D01*
X81457142Y-82500000D01*
X81552380Y-82500000D01*
X80885714Y-81595238D02*
X81552380Y-81595238D01*
X80504761Y-81833333D02*
X81219047Y-82071428D01*
X81219047Y-81452380D01*
D11*
X85535714Y-81714285D02*
X85607142Y-81738095D01*
X85630952Y-81761904D01*
X85654761Y-81809523D01*
X85654761Y-81880952D01*
X85630952Y-81928571D01*
X85607142Y-81952380D01*
X85559523Y-81976190D01*
X85369047Y-81976190D01*
X85369047Y-81476190D01*
X85535714Y-81476190D01*
X85583333Y-81500000D01*
X85607142Y-81523809D01*
X85630952Y-81571428D01*
X85630952Y-81619047D01*
X85607142Y-81666666D01*
X85583333Y-81690476D01*
X85535714Y-81714285D01*
X85369047Y-81714285D01*
X85630952Y-82750000D02*
X85583333Y-82726190D01*
X85511904Y-82726190D01*
X85440476Y-82750000D01*
X85392857Y-82797619D01*
X85369047Y-82845238D01*
X85345238Y-82940476D01*
X85345238Y-83011904D01*
X85369047Y-83107142D01*
X85392857Y-83154761D01*
X85440476Y-83202380D01*
X85511904Y-83226190D01*
X85559523Y-83226190D01*
X85630952Y-83202380D01*
X85654761Y-83178571D01*
X85654761Y-83011904D01*
X85559523Y-83011904D01*
X85654761Y-84476190D02*
X85488095Y-84238095D01*
X85369047Y-84476190D02*
X85369047Y-83976190D01*
X85559523Y-83976190D01*
X85607142Y-84000000D01*
X85630952Y-84023809D01*
X85654761Y-84071428D01*
X85654761Y-84142857D01*
X85630952Y-84190476D01*
X85607142Y-84214285D01*
X85559523Y-84238095D01*
X85369047Y-84238095D01*
%TO.C,U1*%
D12*
X55238095Y-57452380D02*
X55238095Y-58261904D01*
X55285714Y-58357142D01*
X55333333Y-58404761D01*
X55428571Y-58452380D01*
X55619047Y-58452380D01*
X55714285Y-58404761D01*
X55761904Y-58357142D01*
X55809523Y-58261904D01*
X55809523Y-57452380D01*
X56809523Y-58452380D02*
X56238095Y-58452380D01*
X56523809Y-58452380D02*
X56523809Y-57452380D01*
X56428571Y-57595238D01*
X56333333Y-57690476D01*
X56238095Y-57738095D01*
%TO.C,U2*%
X75238095Y-57452380D02*
X75238095Y-58261904D01*
X75285714Y-58357142D01*
X75333333Y-58404761D01*
X75428571Y-58452380D01*
X75619047Y-58452380D01*
X75714285Y-58404761D01*
X75761904Y-58357142D01*
X75809523Y-58261904D01*
X75809523Y-57452380D01*
X76238095Y-57547619D02*
X76285714Y-57500000D01*
X76380952Y-57452380D01*
X76619047Y-57452380D01*
X76714285Y-57500000D01*
X76761904Y-57547619D01*
X76809523Y-57642857D01*
X76809523Y-57738095D01*
X76761904Y-57880952D01*
X76190476Y-58452380D01*
X76809523Y-58452380D01*
%TO.C,U3*%
X55238095Y-77452380D02*
X55238095Y-78261904D01*
X55285714Y-78357142D01*
X55333333Y-78404761D01*
X55428571Y-78452380D01*
X55619047Y-78452380D01*
X55714285Y-78404761D01*
X55761904Y-78357142D01*
X55809523Y-78261904D01*
X55809523Y-77452380D01*
X56190476Y-77452380D02*
X56809523Y-77452380D01*
X56476190Y-77833333D01*
X56619047Y-77833333D01*
X56714285Y-77880952D01*
X56761904Y-77928571D01*
X56809523Y-78023809D01*
X56809523Y-78261904D01*
X56761904Y-78357142D01*
X56714285Y-78404761D01*
X56619047Y-78452380D01*
X56333333Y-78452380D01*
X56238095Y-78404761D01*
X56190476Y-78357142D01*
%TO.C,U4*%
X75238095Y-77452380D02*
X75238095Y-78261904D01*
X75285714Y-78357142D01*
X75333333Y-78404761D01*
X75428571Y-78452380D01*
X75619047Y-78452380D01*
X75714285Y-78404761D01*
X75761904Y-78357142D01*
X75809523Y-78261904D01*
X75809523Y-77452380D01*
X76714285Y-77785714D02*
X76714285Y-78452380D01*
X76476190Y-77404761D02*
X76238095Y-78119047D01*
X76857142Y-78119047D01*
%TO.C,MK1*%
D14*
X56726190Y-69654761D02*
X56226190Y-69654761D01*
X56583333Y-69488095D01*
X56226190Y-69321428D01*
X56726190Y-69321428D01*
X56726190Y-69083333D02*
X56226190Y-69083333D01*
X56726190Y-68797619D02*
X56440476Y-69011904D01*
X56226190Y-68797619D02*
X56511904Y-69083333D01*
X56726190Y-68321428D02*
X56726190Y-68607142D01*
X56726190Y-68464285D02*
X56226190Y-68464285D01*
X56297619Y-68511904D01*
X56345238Y-68559523D01*
X56369047Y-68607142D01*
%TO.C,C1*%
D12*
X67333333Y-59357142D02*
X67285714Y-59404761D01*
X67142857Y-59452380D01*
X67047619Y-59452380D01*
X66904761Y-59404761D01*
X66809523Y-59309523D01*
X66761904Y-59214285D01*
X66714285Y-59023809D01*
X66714285Y-58880952D01*
X66761904Y-58690476D01*
X66809523Y-58595238D01*
X66904761Y-58500000D01*
X67047619Y-58452380D01*
X67142857Y-58452380D01*
X67285714Y-58500000D01*
X67333333Y-58547619D01*
X68285714Y-59452380D02*
X67714285Y-59452380D01*
X68000000Y-59452380D02*
X68000000Y-58452380D01*
X67904761Y-58595238D01*
X67809523Y-58690476D01*
X67714285Y-58738095D01*
%TO.C,C2*%
X87583333Y-59357142D02*
X87535714Y-59404761D01*
X87392857Y-59452380D01*
X87297619Y-59452380D01*
X87154761Y-59404761D01*
X87059523Y-59309523D01*
X87011904Y-59214285D01*
X86964285Y-59023809D01*
X86964285Y-58880952D01*
X87011904Y-58690476D01*
X87059523Y-58595238D01*
X87154761Y-58500000D01*
X87297619Y-58452380D01*
X87392857Y-58452380D01*
X87535714Y-58500000D01*
X87583333Y-58547619D01*
X87964285Y-58547619D02*
X88011904Y-58500000D01*
X88107142Y-58452380D01*
X88345238Y-58452380D01*
X88440476Y-58500000D01*
X88488095Y-58547619D01*
X88535714Y-58642857D01*
X88535714Y-58738095D01*
X88488095Y-58880952D01*
X87916666Y-59452380D01*
X88535714Y-59452380D01*
%TO.C,C3*%
X67333333Y-79357142D02*
X67285714Y-79404761D01*
X67142857Y-79452380D01*
X67047619Y-79452380D01*
X66904761Y-79404761D01*
X66809523Y-79309523D01*
X66761904Y-79214285D01*
X66714285Y-79023809D01*
X66714285Y-78880952D01*
X66761904Y-78690476D01*
X66809523Y-78595238D01*
X66904761Y-78500000D01*
X67047619Y-78452380D01*
X67142857Y-78452380D01*
X67285714Y-78500000D01*
X67333333Y-78547619D01*
X67666666Y-78452380D02*
X68285714Y-78452380D01*
X67952380Y-78833333D01*
X68095238Y-78833333D01*
X68190476Y-78880952D01*
X68238095Y-78928571D01*
X68285714Y-79023809D01*
X68285714Y-79261904D01*
X68238095Y-79357142D01*
X68190476Y-79404761D01*
X68095238Y-79452380D01*
X67809523Y-79452380D01*
X67714285Y-79404761D01*
X67666666Y-79357142D01*
%TO.C,C4*%
X87333333Y-79357142D02*
X87285714Y-79404761D01*
X87142857Y-79452380D01*
X87047619Y-79452380D01*
X86904761Y-79404761D01*
X86809523Y-79309523D01*
X86761904Y-79214285D01*
X86714285Y-79023809D01*
X86714285Y-78880952D01*
X86761904Y-78690476D01*
X86809523Y-78595238D01*
X86904761Y-78500000D01*
X87047619Y-78452380D01*
X87142857Y-78452380D01*
X87285714Y-78500000D01*
X87333333Y-78547619D01*
X88190476Y-78785714D02*
X88190476Y-79452380D01*
X87952380Y-78404761D02*
X87714285Y-79119047D01*
X88333333Y-79119047D01*
%TO.C,R1*%
X67333333Y-57452380D02*
X67000000Y-56976190D01*
X66761904Y-57452380D02*
X66761904Y-56452380D01*
X67142857Y-56452380D01*
X67238095Y-56500000D01*
X67285714Y-56547619D01*
X67333333Y-56642857D01*
X67333333Y-56785714D01*
X67285714Y-56880952D01*
X67238095Y-56928571D01*
X67142857Y-56976190D01*
X66761904Y-56976190D01*
X68285714Y-57452380D02*
X67714285Y-57452380D01*
X68000000Y-57452380D02*
X68000000Y-56452380D01*
X67904761Y-56595238D01*
X67809523Y-56690476D01*
X67714285Y-56738095D01*
%TO.C,R2*%
X87333333Y-57452380D02*
X87000000Y-56976190D01*
X86761904Y-57452380D02*
X86761904Y-56452380D01*
X87142857Y-56452380D01*
X87238095Y-56500000D01*
X87285714Y-56547619D01*
X87333333Y-56642857D01*
X87333333Y-56785714D01*
X87285714Y-56880952D01*
X87238095Y-56928571D01*
X87142857Y-56976190D01*
X86761904Y-56976190D01*
X87714285Y-56547619D02*
X87761904Y-56500000D01*
X87857142Y-56452380D01*
X88095238Y-56452380D01*
X88190476Y-56500000D01*
X88238095Y-56547619D01*
X88285714Y-56642857D01*
X88285714Y-56738095D01*
X88238095Y-56880952D01*
X87666666Y-57452380D01*
X88285714Y-57452380D01*
%TO.C,R3*%
X67333333Y-77452380D02*
X67000000Y-76976190D01*
X66761904Y-77452380D02*
X66761904Y-76452380D01*
X67142857Y-76452380D01*
X67238095Y-76500000D01*
X67285714Y-76547619D01*
X67333333Y-76642857D01*
X67333333Y-76785714D01*
X67285714Y-76880952D01*
X67238095Y-76928571D01*
X67142857Y-76976190D01*
X66761904Y-76976190D01*
X67666666Y-76452380D02*
X68285714Y-76452380D01*
X67952380Y-76833333D01*
X68095238Y-76833333D01*
X68190476Y-76880952D01*
X68238095Y-76928571D01*
X68285714Y-77023809D01*
X68285714Y-77261904D01*
X68238095Y-77357142D01*
X68190476Y-77404761D01*
X68095238Y-77452380D01*
X67809523Y-77452380D01*
X67714285Y-77404761D01*
X67666666Y-77357142D01*
%TO.C,R4*%
X87333333Y-77452380D02*
X87000000Y-76976190D01*
X86761904Y-77452380D02*
X86761904Y-76452380D01*
X87142857Y-76452380D01*
X87238095Y-76500000D01*
X87285714Y-76547619D01*
X87333333Y-76642857D01*
X87333333Y-76785714D01*
X87285714Y-76880952D01*
X87238095Y-76928571D01*
X87142857Y-76976190D01*
X86761904Y-76976190D01*
X88190476Y-76785714D02*
X88190476Y-77452380D01*
X87952380Y-76404761D02*
X87714285Y-77119047D01*
X88333333Y-77119047D01*
%TO.C,C5*%
X68833333Y-69357142D02*
X68785714Y-69404761D01*
X68642857Y-69452380D01*
X68547619Y-69452380D01*
X68404761Y-69404761D01*
X68309523Y-69309523D01*
X68261904Y-69214285D01*
X68214285Y-69023809D01*
X68214285Y-68880952D01*
X68261904Y-68690476D01*
X68309523Y-68595238D01*
X68404761Y-68500000D01*
X68547619Y-68452380D01*
X68642857Y-68452380D01*
X68785714Y-68500000D01*
X68833333Y-68547619D01*
X69738095Y-68452380D02*
X69261904Y-68452380D01*
X69214285Y-68928571D01*
X69261904Y-68880952D01*
X69357142Y-68833333D01*
X69595238Y-68833333D01*
X69690476Y-68880952D01*
X69738095Y-68928571D01*
X69785714Y-69023809D01*
X69785714Y-69261904D01*
X69738095Y-69357142D01*
X69690476Y-69404761D01*
X69595238Y-69452380D01*
X69357142Y-69452380D01*
X69261904Y-69404761D01*
X69214285Y-69357142D01*
%TO.C,MK2*%
D14*
X76726190Y-69654761D02*
X76226190Y-69654761D01*
X76583333Y-69488095D01*
X76226190Y-69321428D01*
X76726190Y-69321428D01*
X76726190Y-69083333D02*
X76226190Y-69083333D01*
X76726190Y-68797619D02*
X76440476Y-69011904D01*
X76226190Y-68797619D02*
X76511904Y-69083333D01*
X76273809Y-68607142D02*
X76250000Y-68583333D01*
X76226190Y-68535714D01*
X76226190Y-68416666D01*
X76250000Y-68369047D01*
X76273809Y-68345238D01*
X76321428Y-68321428D01*
X76369047Y-68321428D01*
X76440476Y-68345238D01*
X76726190Y-68630952D01*
X76726190Y-68321428D01*
%TD*%
M02*
